{"accessors":[{"bufferView":0,"byteOffset":0,"componentType":5123,"count":201,"type":"SCALAR"},{"bufferView":1,"byteOffset":0,"componentType":5126,"count":201,"max":[1.02012658119202,1.0509842634201,0.509997308254242],"min":[-1.02136123180389,-0.02792018279433,-0.53128683567047],"type":"VEC3"},{"bufferView":2,"byteOffset":0,"componentType":5126,"count":201,"type":"VEC3"},{"bufferView":3,"byteOffset":0,"componentType":5126,"count":201,"type":"VEC2"}],"asset":{"generator":"FBX2glTF v0.13.1","version":"2.0"},"bufferViews":[{"buffer":0,"byteLength":402,"byteOffset":0,"target":34963},{"buffer":0,"byteLength":2412,"byteOffset":404,"target":34962},{"buffer":0,"byteLength":2412,"byteOffset":2816,"target":34962},{"buffer":0,"byteLength":1608,"byteOffset":5228,"target":34962}],"buffers":[{"byteLength":6836,"uri":"SM_bush_04.bin"}],"images":[{"name":"Polygon_Texture_vol2","uri":"Polygon_Texture_vol2.png"}],"materials":[{"alphaMode":"OPAQUE","doubleSided":false,"extras":{"fromFBX":{"isTruePBR":false,"shadingModel":"Phong"}},"name":"Main_material","pbrMetallicRoughness":{"baseColorFactor":[1,1,1,1],"baseColorTexture":{"index":0,"texCoord":0},"metallicFactor":0.400000005960464,"roughnessFactor":0.272165536880493}}],"meshes":[{"name":"bush_04","primitives":[{"attributes":{"NORMAL":2,"POSITION":1,"TEXCOORD_0":3},"indices":0,"material":0,"mode":4}]}],"nodes":[{"mesh":0,"name":"bush_04","rotation":[0,0,0,1],"scale":[1,1,1],"translation":[196.76936340332,0,9.00124454498291]}],"samplers":[{}],"scene":0,"scenes":[{"name":"Root Scene","nodes":[0]}],"textures":[{"name":"base_color_texture","sampler":0,"source":0}]}