{"accessors":[{"bufferView":0,"byteOffset":0,"componentType":5123,"count":330,"type":"SCALAR"},{"bufferView":1,"byteOffset":0,"componentType":5126,"count":330,"max":[0.411678522825241,1.24371862411499,0.411756694316864],"min":[-0.40402767062187,0.00092280958779156,-0.41083282232285],"type":"VEC3"},{"bufferView":2,"byteOffset":0,"componentType":5126,"count":330,"type":"VEC3"},{"bufferView":3,"byteOffset":0,"componentType":5126,"count":330,"type":"VEC2"}],"asset":{"generator":"FBX2glTF v0.13.1","version":"2.0"},"bufferViews":[{"buffer":0,"byteLength":660,"byteOffset":0,"target":34963},{"buffer":0,"byteLength":3960,"byteOffset":660,"target":34962},{"buffer":0,"byteLength":3960,"byteOffset":4620,"target":34962},{"buffer":0,"byteLength":2640,"byteOffset":8580,"target":34962}],"buffers":[{"byteLength":11220,"uri":"SM_bush_02.bin"}],"images":[{"name":"Polygon_Texture_vol2","uri":"Polygon_Texture_vol2.png"}],"materials":[{"alphaMode":"OPAQUE","doubleSided":false,"extras":{"fromFBX":{"isTruePBR":false,"shadingModel":"Phong"}},"name":"Main_material","pbrMetallicRoughness":{"baseColorFactor":[1,1,1,1],"baseColorTexture":{"index":0,"texCoord":0},"metallicFactor":0.400000005960464,"roughnessFactor":0.272165536880493}}],"meshes":[{"name":"bush_02","primitives":[{"attributes":{"NORMAL":2,"POSITION":1,"TEXCOORD_0":3},"indices":0,"material":0,"mode":4}]}],"nodes":[{"mesh":0,"name":"bush_02","rotation":[0,0,0,1],"scale":[1,1,1],"translation":[192.427841186523,0,8.91511726379395]}],"samplers":[{}],"scene":0,"scenes":[{"name":"Root Scene","nodes":[0]}],"textures":[{"name":"base_color_texture","sampler":0,"source":0}]}