{"accessors":[{"bufferView":0,"byteOffset":0,"componentType":5123,"count":495,"type":"SCALAR"},{"bufferView":1,"byteOffset":0,"componentType":5126,"count":495,"max":[0.425337165594101,1.31022942066193,0.422568768262863],"min":[-0.4236227273941,-1.00118982791901,-0.42624977231026],"type":"VEC3"},{"bufferView":2,"byteOffset":0,"componentType":5126,"count":495,"type":"VEC3"},{"bufferView":3,"byteOffset":0,"componentType":5126,"count":495,"type":"VEC2"}],"asset":{"generator":"FBX2glTF v0.13.1","version":"2.0"},"bufferViews":[{"buffer":0,"byteLength":990,"byteOffset":0,"target":34963},{"buffer":0,"byteLength":5940,"byteOffset":992,"target":34962},{"buffer":0,"byteLength":5940,"byteOffset":6932,"target":34962},{"buffer":0,"byteLength":3960,"byteOffset":12872,"target":34962}],"buffers":[{"byteLength":16832,"uri":"SM_bush_05.bin"}],"images":[{"name":"Polygon_Texture_vol2","uri":"Polygon_Texture_vol2.png"}],"materials":[{"alphaMode":"OPAQUE","doubleSided":false,"extras":{"fromFBX":{"isTruePBR":false,"shadingModel":"Phong"}},"name":"Main_material","pbrMetallicRoughness":{"baseColorFactor":[1,1,1,1],"baseColorTexture":{"index":0,"texCoord":0},"metallicFactor":0.400000005960464,"roughnessFactor":0.272165536880493}}],"meshes":[{"name":"bush_05","primitives":[{"attributes":{"NORMAL":2,"POSITION":1,"TEXCOORD_0":3},"indices":0,"material":0,"mode":4}]}],"nodes":[{"mesh":0,"name":"bush_05","rotation":[0,0,0,1],"scale":[1,1,1],"translation":[198.547668457031,1,9.00124454498291]}],"samplers":[{}],"scene":0,"scenes":[{"name":"Root Scene","nodes":[0]}],"textures":[{"name":"base_color_texture","sampler":0,"source":0}]}