{"accessors":[{"bufferView":0,"byteOffset":0,"componentType":5123,"count":462,"type":"SCALAR"},{"bufferView":1,"byteOffset":0,"componentType":5126,"count":462,"max":[0.635442733764648,0.966485023498535,0.637236058712006],"min":[-0.63173544406891,-0.00443506799638,-0.63669282197952],"type":"VEC3"},{"bufferView":2,"byteOffset":0,"componentType":5126,"count":462,"type":"VEC3"},{"bufferView":3,"byteOffset":0,"componentType":5126,"count":462,"type":"VEC2"}],"asset":{"generator":"FBX2glTF v0.13.1","version":"2.0"},"bufferViews":[{"buffer":0,"byteLength":924,"byteOffset":0,"target":34963},{"buffer":0,"byteLength":5544,"byteOffset":924,"target":34962},{"buffer":0,"byteLength":5544,"byteOffset":6468,"target":34962},{"buffer":0,"byteLength":3696,"byteOffset":12012,"target":34962}],"buffers":[{"byteLength":15708,"uri":"SM_bush_01.bin"}],"images":[{"name":"Polygon_Texture_vol2","uri":"Polygon_Texture_vol2.png"}],"materials":[{"alphaMode":"OPAQUE","doubleSided":false,"extras":{"fromFBX":{"isTruePBR":false,"shadingModel":"Phong"}},"name":"Main_material","pbrMetallicRoughness":{"baseColorFactor":[1,1,1,1],"baseColorTexture":{"index":0,"texCoord":0},"metallicFactor":0.400000005960464,"roughnessFactor":0.272165536880493}}],"meshes":[{"name":"bush_01","primitives":[{"attributes":{"NORMAL":2,"POSITION":1,"TEXCOORD_0":3},"indices":0,"material":0,"mode":4}]}],"nodes":[{"mesh":0,"name":"bush_01","rotation":[0,0,0,1],"scale":[1,1,1],"translation":[190.916717529297,0,8.91511726379395]}],"samplers":[{}],"scene":0,"scenes":[{"name":"Root Scene","nodes":[0]}],"textures":[{"name":"base_color_texture","sampler":0,"source":0}]}