{"accessors":[{"bufferView":0,"byteOffset":0,"componentType":5123,"count":363,"type":"SCALAR"},{"bufferView":1,"byteOffset":0,"componentType":5126,"count":363,"max":[0.998138785362244,1.04513156414032,1.00061881542206],"min":[-1.00186109542847,-0.00582498591393,-0.99938094615936],"type":"VEC3"},{"bufferView":2,"byteOffset":0,"componentType":5126,"count":363,"type":"VEC3"},{"bufferView":3,"byteOffset":0,"componentType":5126,"count":363,"type":"VEC2"}],"asset":{"generator":"FBX2glTF v0.13.1","version":"2.0"},"bufferViews":[{"buffer":0,"byteLength":726,"byteOffset":0,"target":34963},{"buffer":0,"byteLength":4356,"byteOffset":728,"target":34962},{"buffer":0,"byteLength":4356,"byteOffset":5084,"target":34962},{"buffer":0,"byteLength":2904,"byteOffset":9440,"target":34962}],"buffers":[{"byteLength":12344,"uri":"SM_bush_03.bin"}],"images":[{"name":"Polygon_Texture_vol2","uri":"Polygon_Texture_vol2.png"}],"materials":[{"alphaMode":"OPAQUE","doubleSided":false,"extras":{"fromFBX":{"isTruePBR":false,"shadingModel":"Phong"}},"name":"Main_material","pbrMetallicRoughness":{"baseColorFactor":[1,1,1,1],"baseColorTexture":{"index":0,"texCoord":0},"metallicFactor":0.400000005960464,"roughnessFactor":0.272165536880493}}],"meshes":[{"name":"bush_03","primitives":[{"attributes":{"NORMAL":2,"POSITION":1,"TEXCOORD_0":3},"indices":0,"material":0,"mode":4}]}],"nodes":[{"mesh":0,"name":"bush_03","rotation":[0,0,0,1],"scale":[1,1,1],"translation":[194.228240966797,0,9.00124454498291]}],"samplers":[{}],"scene":0,"scenes":[{"name":"Root Scene","nodes":[0]}],"textures":[{"name":"base_color_texture","sampler":0,"source":0}]}