{"accessors":[{"bufferView":0,"byteOffset":0,"componentType":5123,"count":2391,"type":"SCALAR"},{"bufferView":1,"byteOffset":0,"componentType":5126,"count":1599,"max":[1.00322937965393,1.02187955379486,0.500160574913025],"min":[-0.99677044153214,0.00034767389297485,-0.49983942508697],"type":"VEC3"},{"bufferView":2,"byteOffset":0,"componentType":5126,"count":1599,"type":"VEC3"},{"bufferView":3,"byteOffset":0,"componentType":5126,"count":1599,"type":"VEC2"}],"asset":{"generator":"FBX2glTF v0.13.1","version":"2.0"},"bufferViews":[{"buffer":0,"byteLength":4782,"byteOffset":0,"target":34963},{"buffer":0,"byteLength":19188,"byteOffset":4784,"target":34962},{"buffer":0,"byteLength":19188,"byteOffset":23972,"target":34962},{"buffer":0,"byteLength":12792,"byteOffset":43160,"target":34962}],"buffers":[{"byteLength":55952,"uri":"SM_flower_bed_02.bin"}],"images":[{"name":"Polygon_Texture_vol2","uri":"Polygon_Texture_vol2.png"}],"materials":[{"alphaMode":"OPAQUE","doubleSided":false,"extras":{"fromFBX":{"isTruePBR":false,"shadingModel":"Phong"}},"name":"Main_material","pbrMetallicRoughness":{"baseColorFactor":[1,1,1,1],"baseColorTexture":{"index":0,"texCoord":0},"metallicFactor":0.400000005960464,"roughnessFactor":0.272165536880493}}],"meshes":[{"name":"flower_bed_02","primitives":[{"attributes":{"NORMAL":2,"POSITION":1,"TEXCOORD_0":3},"indices":0,"material":0,"mode":4}]}],"nodes":[{"mesh":0,"name":"flower_bed_02","rotation":[0,0,0,1],"scale":[1,1,1],"translation":[202.624404907227,0,9.04040908813477]}],"samplers":[{}],"scene":0,"scenes":[{"name":"Root Scene","nodes":[0]}],"textures":[{"name":"base_color_texture","sampler":0,"source":0}]}