{"accessors":[{"bufferView":0,"byteOffset":0,"componentType":5123,"count":852,"type":"SCALAR"},{"bufferView":1,"byteOffset":0,"componentType":5126,"count":586,"max":[0.0625235140323639,0.224105894565582,0.0530001670122147],"min":[-0.07291474938393,0,-0.05313534289598],"type":"VEC3"},{"bufferView":2,"byteOffset":0,"componentType":5126,"count":586,"type":"VEC3"},{"bufferView":3,"byteOffset":0,"componentType":5126,"count":586,"type":"VEC2"}],"asset":{"generator":"FBX2glTF v0.13.1","version":"2.0"},"bufferViews":[{"buffer":0,"byteLength":1704,"byteOffset":0,"target":34963},{"buffer":0,"byteLength":7032,"byteOffset":1704,"target":34962},{"buffer":0,"byteLength":7032,"byteOffset":8736,"target":34962},{"buffer":0,"byteLength":4688,"byteOffset":15768,"target":34962}],"buffers":[{"byteLength":20456,"uri":"SM_flower_01.bin"}],"images":[{"name":"Polygon_Texture_vol2","uri":"Polygon_Texture_vol2.png"}],"materials":[{"alphaMode":"OPAQUE","doubleSided":false,"extras":{"fromFBX":{"isTruePBR":false,"shadingModel":"Phong"}},"name":"Main_material","pbrMetallicRoughness":{"baseColorFactor":[1,1,1,1],"baseColorTexture":{"index":0,"texCoord":0},"metallicFactor":0.400000005960464,"roughnessFactor":0.272165536880493}}],"meshes":[{"name":"flower_01","primitives":[{"attributes":{"NORMAL":2,"POSITION":1,"TEXCOORD_0":3},"indices":0,"material":0,"mode":4}]}],"nodes":[{"mesh":0,"name":"flower_01","rotation":[0,0,0,1],"scale":[1,1,1],"translation":[216.460525512695,0,10.9423398971558]}],"samplers":[{}],"scene":0,"scenes":[{"name":"Root Scene","nodes":[0]}],"textures":[{"name":"base_color_texture","sampler":0,"source":0}]}