{"accessors":[{"bufferView":0,"byteOffset":0,"componentType":5123,"count":384,"type":"SCALAR"},{"bufferView":1,"byteOffset":0,"componentType":5126,"count":382,"max":[8.0120849609375,1.13453459739685,7.99999237060547],"min":[-7.9879150390625,-1.26400995254517,-8.00000667572021],"type":"VEC3"},{"bufferView":2,"byteOffset":0,"componentType":5126,"count":382,"type":"VEC3"},{"bufferView":3,"byteOffset":0,"componentType":5126,"count":382,"type":"VEC2"}],"asset":{"generator":"FBX2glTF v0.13.1","version":"2.0"},"bufferViews":[{"buffer":0,"byteLength":768,"byteOffset":0,"target":34963},{"buffer":0,"byteLength":4584,"byteOffset":768,"target":34962},{"buffer":0,"byteLength":4584,"byteOffset":5352,"target":34962},{"buffer":0,"byteLength":3056,"byteOffset":9936,"target":34962}],"buffers":[{"byteLength":12992,"uri":"SM_ground_02.bin"}],"images":[{"name":"Polygon_Texture_vol2","uri":"Polygon_Texture_vol2.png"}],"materials":[{"alphaMode":"OPAQUE","doubleSided":false,"extras":{"fromFBX":{"isTruePBR":false,"shadingModel":"Phong"}},"name":"Main_material","pbrMetallicRoughness":{"baseColorFactor":[1,1,1,1],"baseColorTexture":{"index":0,"texCoord":0},"metallicFactor":0.400000005960464,"roughnessFactor":0.272165536880493}}],"meshes":[{"name":"ground_02","primitives":[{"attributes":{"NORMAL":2,"POSITION":1,"TEXCOORD_0":3},"indices":0,"material":0,"mode":4}]}],"nodes":[{"mesh":0,"name":"ground_02","rotation":[0,0,0,1],"scale":[1,1,1],"translation":[254.310104370117,2.58855485916138,31.4297180175781]}],"samplers":[{}],"scene":0,"scenes":[{"name":"Root Scene","nodes":[0]}],"textures":[{"name":"base_color_texture","sampler":0,"source":0}]}