{"accessors":[{"bufferView":0,"byteOffset":0,"componentType":5123,"count":384,"type":"SCALAR"},{"bufferView":1,"byteOffset":0,"componentType":5126,"count":382,"max":[8.00009155273438,2.70863676071167,7.99999618530273],"min":[-7.99990844726562,-0.46253806352615,-8.00000381469727],"type":"VEC3"},{"bufferView":2,"byteOffset":0,"componentType":5126,"count":382,"type":"VEC3"},{"bufferView":3,"byteOffset":0,"componentType":5126,"count":382,"type":"VEC2"}],"asset":{"generator":"FBX2glTF v0.13.1","version":"2.0"},"bufferViews":[{"buffer":0,"byteLength":768,"byteOffset":0,"target":34963},{"buffer":0,"byteLength":4584,"byteOffset":768,"target":34962},{"buffer":0,"byteLength":4584,"byteOffset":5352,"target":34962},{"buffer":0,"byteLength":3056,"byteOffset":9936,"target":34962}],"buffers":[{"byteLength":12992,"uri":"SM_ground_05.bin"}],"images":[{"name":"Polygon_Texture_vol2","uri":"Polygon_Texture_vol2.png"}],"materials":[{"alphaMode":"OPAQUE","doubleSided":false,"extras":{"fromFBX":{"isTruePBR":false,"shadingModel":"Phong"}},"name":"Main_material","pbrMetallicRoughness":{"baseColorFactor":[1,1,1,1],"baseColorTexture":{"index":0,"texCoord":0},"metallicFactor":0.400000005960464,"roughnessFactor":0.272165536880493}}],"meshes":[{"name":"ground_05","primitives":[{"attributes":{"NORMAL":2,"POSITION":1,"TEXCOORD_0":3},"indices":0,"material":0,"mode":4}]}],"nodes":[{"mesh":0,"name":"ground_05","rotation":[0,0,0,1],"scale":[1,1,1],"translation":[254.32209777832,2.58855485916138,48.5616874694824]}],"samplers":[{}],"scene":0,"scenes":[{"name":"Root Scene","nodes":[0]}],"textures":[{"name":"base_color_texture","sampler":0,"source":0}]}