{"accessors":[{"bufferView":0,"byteOffset":0,"componentType":5123,"count":2154,"type":"SCALAR"},{"bufferView":1,"byteOffset":0,"componentType":5126,"count":1614,"max":[1.47304475307465,6.91660451889038,2.18234395980835],"min":[-1.95445334911346,-0.00246201199479,-0.69680547714233],"type":"VEC3"},{"bufferView":2,"byteOffset":0,"componentType":5126,"count":1614,"type":"VEC3"},{"bufferView":3,"byteOffset":0,"componentType":5126,"count":1614,"type":"VEC2"}],"asset":{"generator":"FBX2glTF v0.13.1","version":"2.0"},"bufferViews":[{"buffer":0,"byteLength":4308,"byteOffset":0,"target":34963},{"buffer":0,"byteLength":19368,"byteOffset":4308,"target":34962},{"buffer":0,"byteLength":19368,"byteOffset":23676,"target":34962},{"buffer":0,"byteLength":12912,"byteOffset":43044,"target":34962}],"buffers":[{"byteLength":55956,"uri":"SM_hight_tree_12.bin"}],"images":[{"name":"Polygon_Texture_vol2","uri":"Polygon_Texture_vol2.png"}],"materials":[{"alphaMode":"OPAQUE","doubleSided":false,"extras":{"fromFBX":{"isTruePBR":false,"shadingModel":"Phong"}},"name":"Main_material","pbrMetallicRoughness":{"baseColorFactor":[1,1,1,1],"baseColorTexture":{"index":0,"texCoord":0},"metallicFactor":0.400000005960464,"roughnessFactor":0.272165536880493}}],"meshes":[{"name":"hight_tree_12","primitives":[{"attributes":{"NORMAL":2,"POSITION":1,"TEXCOORD_0":3},"indices":0,"material":0,"mode":4}]}],"nodes":[{"mesh":0,"name":"hight_tree_12","rotation":[0,0,0,1],"scale":[1,1,1],"translation":[246.507537841797,0,0]}],"samplers":[{}],"scene":0,"scenes":[{"name":"Root Scene","nodes":[0]}],"textures":[{"name":"base_color_texture","sampler":0,"source":0}]}