{"accessors":[{"bufferView":0,"byteOffset":0,"componentType":5123,"count":4326,"type":"SCALAR"},{"bufferView":1,"byteOffset":0,"componentType":5126,"count":3998,"max":[1.51992583274841,5.38113260269165,1.40460181236267],"min":[-1.50557768344879,-0.02390185557306,-1.37793266773224],"type":"VEC3"},{"bufferView":2,"byteOffset":0,"componentType":5126,"count":3998,"type":"VEC3"},{"bufferView":3,"byteOffset":0,"componentType":5126,"count":3998,"type":"VEC2"}],"asset":{"generator":"FBX2glTF v0.13.1","version":"2.0"},"bufferViews":[{"buffer":0,"byteLength":8652,"byteOffset":0,"target":34963},{"buffer":0,"byteLength":47976,"byteOffset":8652,"target":34962},{"buffer":0,"byteLength":47976,"byteOffset":56628,"target":34962},{"buffer":0,"byteLength":31984,"byteOffset":104604,"target":34962}],"buffers":[{"byteLength":136588,"uri":"SM_hight_tree_01.bin"}],"images":[{"name":"Polygon_Texture_vol2","uri":"Polygon_Texture_vol2.png"}],"materials":[{"alphaMode":"OPAQUE","doubleSided":false,"extras":{"fromFBX":{"isTruePBR":false,"shadingModel":"Phong"}},"name":"Main_material","pbrMetallicRoughness":{"baseColorFactor":[1,1,1,1],"baseColorTexture":{"index":0,"texCoord":0},"metallicFactor":0.400000005960464,"roughnessFactor":0.272165536880493}}],"meshes":[{"name":"hight_tree_01","primitives":[{"attributes":{"NORMAL":2,"POSITION":1,"TEXCOORD_0":3},"indices":0,"material":0,"mode":4}]}],"nodes":[{"mesh":0,"name":"hight_tree_01","rotation":[0,0,0,1],"scale":[1,1,1],"translation":[183.96728515625,0,0]}],"samplers":[{}],"scene":0,"scenes":[{"name":"Root Scene","nodes":[0]}],"textures":[{"name":"base_color_texture","sampler":0,"source":0}]}