{"accessors":[{"bufferView":0,"byteOffset":0,"componentType":5123,"count":960,"type":"SCALAR"},{"bufferView":1,"byteOffset":0,"componentType":5126,"count":864,"max":[1.52371060848236,4.01817750930786,1.38546395301819],"min":[-1.69407570362091,0,-1.29934549331665],"type":"VEC3"},{"bufferView":2,"byteOffset":0,"componentType":5126,"count":864,"type":"VEC3"},{"bufferView":3,"byteOffset":0,"componentType":5126,"count":864,"type":"VEC2"}],"asset":{"generator":"FBX2glTF v0.13.1","version":"2.0"},"bufferViews":[{"buffer":0,"byteLength":1920,"byteOffset":0,"target":34963},{"buffer":0,"byteLength":10368,"byteOffset":1920,"target":34962},{"buffer":0,"byteLength":10368,"byteOffset":12288,"target":34962},{"buffer":0,"byteLength":6912,"byteOffset":22656,"target":34962}],"buffers":[{"byteLength":29568,"uri":"SM_hight_tree_04.bin"}],"images":[{"name":"Polygon_Texture_vol2","uri":"Polygon_Texture_vol2.png"}],"materials":[{"alphaMode":"OPAQUE","doubleSided":false,"extras":{"fromFBX":{"isTruePBR":false,"shadingModel":"Phong"}},"name":"Main_material","pbrMetallicRoughness":{"baseColorFactor":[1,1,1,1],"baseColorTexture":{"index":0,"texCoord":0},"metallicFactor":0.400000005960464,"roughnessFactor":0.272165536880493}}],"meshes":[{"name":"hight_tree_04","primitives":[{"attributes":{"NORMAL":2,"POSITION":1,"TEXCOORD_0":3},"indices":0,"material":0,"mode":4}]}],"nodes":[{"mesh":0,"name":"hight_tree_04","rotation":[0,0,0,1],"scale":[1,1,1],"translation":[194.405868530273,0,-0.00010018050671]}],"samplers":[{}],"scene":0,"scenes":[{"name":"Root Scene","nodes":[0]}],"textures":[{"name":"base_color_texture","sampler":0,"source":0}]}