{"accessors":[{"bufferView":0,"byteOffset":0,"componentType":5123,"count":816,"type":"SCALAR"},{"bufferView":1,"byteOffset":0,"componentType":5126,"count":544,"max":[0.144355908036232,0.305554091930389,0.100104793906212],"min":[-0.1452465057373,-0.00064608239336,-0.12248463183641],"type":"VEC3"},{"bufferView":2,"byteOffset":0,"componentType":5126,"count":544,"type":"VEC3"},{"bufferView":3,"byteOffset":0,"componentType":5126,"count":544,"type":"VEC2"}],"asset":{"generator":"FBX2glTF v0.13.1","version":"2.0"},"bufferViews":[{"buffer":0,"byteLength":1632,"byteOffset":0,"target":34963},{"buffer":0,"byteLength":6528,"byteOffset":1632,"target":34962},{"buffer":0,"byteLength":6528,"byteOffset":8160,"target":34962},{"buffer":0,"byteLength":4352,"byteOffset":14688,"target":34962}],"buffers":[{"byteLength":19040,"uri":"SM_high_grass_09.bin"}],"images":[{"name":"Polygon_Texture_vol2","uri":"Polygon_Texture_vol2.png"}],"materials":[{"alphaMode":"OPAQUE","doubleSided":false,"extras":{"fromFBX":{"isTruePBR":false,"shadingModel":"Phong"}},"name":"Main_material","pbrMetallicRoughness":{"baseColorFactor":[1,1,1,1],"baseColorTexture":{"index":0,"texCoord":0},"metallicFactor":0.400000005960464,"roughnessFactor":0.272165536880493}}],"meshes":[{"name":"high_grass_02.004","primitives":[{"attributes":{"NORMAL":2,"POSITION":1,"TEXCOORD_0":3},"indices":0,"material":0,"mode":4}]}],"nodes":[{"mesh":0,"name":"high_grass_02.004","rotation":[0,0,0,1],"scale":[1,1,1],"translation":[202.720489501953,0,11.0016078948975]}],"samplers":[{}],"scene":0,"scenes":[{"name":"Root Scene","nodes":[0]}],"textures":[{"name":"base_color_texture","sampler":0,"source":0}]}