{"accessors":[{"bufferView":0,"byteOffset":0,"componentType":5123,"count":3342,"type":"SCALAR"},{"bufferView":1,"byteOffset":0,"componentType":5126,"count":2528,"max":[2.3460681438446,5.32158756256104,2.06825423240662],"min":[-1.78238809108734,-0.01193760335445,-2.22040510177612],"type":"VEC3"},{"bufferView":2,"byteOffset":0,"componentType":5126,"count":2528,"type":"VEC3"},{"bufferView":3,"byteOffset":0,"componentType":5126,"count":2528,"type":"VEC2"}],"asset":{"generator":"FBX2glTF v0.13.1","version":"2.0"},"bufferViews":[{"buffer":0,"byteLength":6684,"byteOffset":0,"target":34963},{"buffer":0,"byteLength":30336,"byteOffset":6684,"target":34962},{"buffer":0,"byteLength":30336,"byteOffset":37020,"target":34962},{"buffer":0,"byteLength":20224,"byteOffset":67356,"target":34962}],"buffers":[{"byteLength":87580,"uri":"SM_hight_tree_18.bin"}],"images":[{"name":"Polygon_Texture_vol2","uri":"Polygon_Texture_vol2.png"}],"materials":[{"alphaMode":"OPAQUE","doubleSided":false,"extras":{"fromFBX":{"isTruePBR":false,"shadingModel":"Phong"}},"name":"Main_material","pbrMetallicRoughness":{"baseColorFactor":[1,1,1,1],"baseColorTexture":{"index":0,"texCoord":0},"metallicFactor":0.400000005960464,"roughnessFactor":0.272165536880493}}],"meshes":[{"name":"hight_tree_18","primitives":[{"attributes":{"NORMAL":2,"POSITION":1,"TEXCOORD_0":3},"indices":0,"material":0,"mode":4}]}],"nodes":[{"mesh":0,"name":"hight_tree_18","rotation":[0,0,0,1],"scale":[1,1,1],"translation":[281.208618164062,0,0]}],"samplers":[{}],"scene":0,"scenes":[{"name":"Root Scene","nodes":[0]}],"textures":[{"name":"base_color_texture","sampler":0,"source":0}]}