{"accessors":[{"bufferView":0,"byteOffset":0,"componentType":5123,"count":2952,"type":"SCALAR"},{"bufferView":1,"byteOffset":0,"componentType":5126,"count":2678,"max":[4.24035024642944,10.6000280380249,2.03967571258545],"min":[-5.32750225067139,0.03755883872509,-5.36435031890869],"type":"VEC3"},{"bufferView":2,"byteOffset":0,"componentType":5126,"count":2678,"type":"VEC3"},{"bufferView":3,"byteOffset":0,"componentType":5126,"count":2678,"type":"VEC2"}],"asset":{"generator":"FBX2glTF v0.13.1","version":"2.0"},"bufferViews":[{"buffer":0,"byteLength":5904,"byteOffset":0,"target":34963},{"buffer":0,"byteLength":32136,"byteOffset":5904,"target":34962},{"buffer":0,"byteLength":32136,"byteOffset":38040,"target":34962},{"buffer":0,"byteLength":21424,"byteOffset":70176,"target":34962}],"buffers":[{"byteLength":91600,"uri":"SM_hight_tree_07.bin"}],"images":[{"name":"Polygon_Texture_vol2","uri":"Polygon_Texture_vol2.png"}],"materials":[{"alphaMode":"OPAQUE","doubleSided":false,"extras":{"fromFBX":{"isTruePBR":false,"shadingModel":"Phong"}},"name":"Main_material","pbrMetallicRoughness":{"baseColorFactor":[1,1,1,1],"baseColorTexture":{"index":0,"texCoord":0},"metallicFactor":0.400000005960464,"roughnessFactor":0.272165536880493}}],"meshes":[{"name":"hight_tree_07","primitives":[{"attributes":{"NORMAL":2,"POSITION":1,"TEXCOORD_0":3},"indices":0,"material":0,"mode":4}]}],"nodes":[{"mesh":0,"name":"hight_tree_07","rotation":[0,0,0,1],"scale":[1,1,1],"translation":[210.366104125977,0,-0.19548654556274]}],"samplers":[{}],"scene":0,"scenes":[{"name":"Root Scene","nodes":[0]}],"textures":[{"name":"base_color_texture","sampler":0,"source":0}]}