{"accessors":[{"bufferView":0,"byteOffset":0,"componentType":5123,"count":804,"type":"SCALAR"},{"bufferView":1,"byteOffset":0,"componentType":5126,"count":750,"max":[1.6276046037674,8.79712295532227,1.62777245044708],"min":[-1.58687019348145,0,-1.70163583755493],"type":"VEC3"},{"bufferView":2,"byteOffset":0,"componentType":5126,"count":750,"type":"VEC3"},{"bufferView":3,"byteOffset":0,"componentType":5126,"count":750,"type":"VEC2"}],"asset":{"generator":"FBX2glTF v0.13.1","version":"2.0"},"bufferViews":[{"buffer":0,"byteLength":1608,"byteOffset":0,"target":34963},{"buffer":0,"byteLength":9000,"byteOffset":1608,"target":34962},{"buffer":0,"byteLength":9000,"byteOffset":10608,"target":34962},{"buffer":0,"byteLength":6000,"byteOffset":19608,"target":34962}],"buffers":[{"byteLength":25608,"uri":"SM_hight_tree_08.bin"}],"images":[{"name":"Polygon_Texture_vol2","uri":"Polygon_Texture_vol2.png"}],"materials":[{"alphaMode":"OPAQUE","doubleSided":false,"extras":{"fromFBX":{"isTruePBR":false,"shadingModel":"Phong"}},"name":"Main_material","pbrMetallicRoughness":{"baseColorFactor":[1,1,1,1],"baseColorTexture":{"index":0,"texCoord":0},"metallicFactor":0.400000005960464,"roughnessFactor":0.272165536880493}}],"meshes":[{"name":"hight_tree_08","primitives":[{"attributes":{"NORMAL":2,"POSITION":1,"TEXCOORD_0":3},"indices":0,"material":0,"mode":4}]}],"nodes":[{"mesh":0,"name":"hight_tree_08","rotation":[0,0,0,1],"scale":[1,1,1],"translation":[217.523132324219,0,-0.00002617388964]}],"samplers":[{}],"scene":0,"scenes":[{"name":"Root Scene","nodes":[0]}],"textures":[{"name":"base_color_texture","sampler":0,"source":0}]}