{"accessors":[{"bufferView":0,"byteOffset":0,"componentType":5123,"count":1872,"type":"SCALAR"},{"bufferView":1,"byteOffset":0,"componentType":5126,"count":1342,"max":[2.51323461532593,11.72314453125,1.516148686409],"min":[-1.68517959117889,0,-1.48021996021271],"type":"VEC3"},{"bufferView":2,"byteOffset":0,"componentType":5126,"count":1342,"type":"VEC3"},{"bufferView":3,"byteOffset":0,"componentType":5126,"count":1342,"type":"VEC2"}],"asset":{"generator":"FBX2glTF v0.13.1","version":"2.0"},"bufferViews":[{"buffer":0,"byteLength":3744,"byteOffset":0,"target":34963},{"buffer":0,"byteLength":16104,"byteOffset":3744,"target":34962},{"buffer":0,"byteLength":16104,"byteOffset":19848,"target":34962},{"buffer":0,"byteLength":10736,"byteOffset":35952,"target":34962}],"buffers":[{"byteLength":46688,"uri":"SM_hight_tree_10.bin"}],"images":[{"name":"Polygon_Texture_vol2","uri":"Polygon_Texture_vol2.png"}],"materials":[{"alphaMode":"OPAQUE","doubleSided":false,"extras":{"fromFBX":{"isTruePBR":false,"shadingModel":"Phong"}},"name":"Main_material","pbrMetallicRoughness":{"baseColorFactor":[1,1,1,1],"baseColorTexture":{"index":0,"texCoord":0},"metallicFactor":0.400000005960464,"roughnessFactor":0.272165536880493}}],"meshes":[{"name":"hight_tree_10","primitives":[{"attributes":{"NORMAL":2,"POSITION":1,"TEXCOORD_0":3},"indices":0,"material":0,"mode":4}]}],"nodes":[{"mesh":0,"name":"hight_tree_10","rotation":[0,0,0,1],"scale":[1,1,1],"translation":[231.53044128418,-0.00172470347025,0]}],"samplers":[{}],"scene":0,"scenes":[{"name":"Root Scene","nodes":[0]}],"textures":[{"name":"base_color_texture","sampler":0,"source":0}]}