{"accessors":[{"bufferView":0,"byteOffset":0,"componentType":5123,"count":3276,"type":"SCALAR"},{"bufferView":1,"byteOffset":0,"componentType":5126,"count":2424,"max":[1.63919794559479,4.78714084625244,1.38250517845154],"min":[-2.18631339073181,0.00532183470204473,-2.22614884376526],"type":"VEC3"},{"bufferView":2,"byteOffset":0,"componentType":5126,"count":2424,"type":"VEC3"},{"bufferView":3,"byteOffset":0,"componentType":5126,"count":2424,"type":"VEC2"}],"asset":{"generator":"FBX2glTF v0.13.1","version":"2.0"},"bufferViews":[{"buffer":0,"byteLength":6552,"byteOffset":0,"target":34963},{"buffer":0,"byteLength":29088,"byteOffset":6552,"target":34962},{"buffer":0,"byteLength":29088,"byteOffset":35640,"target":34962},{"buffer":0,"byteLength":19392,"byteOffset":64728,"target":34962}],"buffers":[{"byteLength":84120,"uri":"SM_hight_tree_16.bin"}],"images":[{"name":"Polygon_Texture_vol2","uri":"Polygon_Texture_vol2.png"}],"materials":[{"alphaMode":"OPAQUE","doubleSided":false,"extras":{"fromFBX":{"isTruePBR":false,"shadingModel":"Phong"}},"name":"Main_material","pbrMetallicRoughness":{"baseColorFactor":[1,1,1,1],"baseColorTexture":{"index":0,"texCoord":0},"metallicFactor":0.400000005960464,"roughnessFactor":0.272165536880493}}],"meshes":[{"name":"hight_tree_16","primitives":[{"attributes":{"NORMAL":2,"POSITION":1,"TEXCOORD_0":3},"indices":0,"material":0,"mode":4}]}],"nodes":[{"mesh":0,"name":"hight_tree_16","rotation":[0,0,0,1],"scale":[1,1,1],"translation":[273.173278808594,0,-0.08117612451315]}],"samplers":[{}],"scene":0,"scenes":[{"name":"Root Scene","nodes":[0]}],"textures":[{"name":"base_color_texture","sampler":0,"source":0}]}