{"accessors":[{"bufferView":0,"byteOffset":0,"componentType":5123,"count":1725,"type":"SCALAR"},{"bufferView":1,"byteOffset":0,"componentType":5126,"count":1551,"max":[3.9237642288208,5.83069038391113,1.49681091308594],"min":[-3.25147676467896,-0.00000000715256,-1.10241401195526],"type":"VEC3"},{"bufferView":2,"byteOffset":0,"componentType":5126,"count":1551,"type":"VEC3"},{"bufferView":3,"byteOffset":0,"componentType":5126,"count":1551,"type":"VEC2"}],"asset":{"generator":"FBX2glTF v0.13.1","version":"2.0"},"bufferViews":[{"buffer":0,"byteLength":3450,"byteOffset":0,"target":34963},{"buffer":0,"byteLength":18612,"byteOffset":3452,"target":34962},{"buffer":0,"byteLength":18612,"byteOffset":22064,"target":34962},{"buffer":0,"byteLength":12408,"byteOffset":40676,"target":34962}],"buffers":[{"byteLength":53084,"uri":"SM_hight_tree_13.bin"}],"images":[{"name":"Polygon_Texture_vol2","uri":"Polygon_Texture_vol2.png"}],"materials":[{"alphaMode":"OPAQUE","doubleSided":false,"extras":{"fromFBX":{"isTruePBR":false,"shadingModel":"Phong"}},"name":"Main_material","pbrMetallicRoughness":{"baseColorFactor":[1,1,1,1],"baseColorTexture":{"index":0,"texCoord":0},"metallicFactor":0.400000005960464,"roughnessFactor":0.272165536880493}}],"meshes":[{"name":"hight_tree_13","primitives":[{"attributes":{"NORMAL":2,"POSITION":1,"TEXCOORD_0":3},"indices":0,"material":0,"mode":4}]}],"nodes":[{"mesh":0,"name":"hight_tree_13","rotation":[0,0,0,1],"scale":[1,1,1],"translation":[253.037551879883,-0.0000000077486,0]}],"samplers":[{}],"scene":0,"scenes":[{"name":"Root Scene","nodes":[0]}],"textures":[{"name":"base_color_texture","sampler":0,"source":0}]}