{"accessors":[{"bufferView":0,"byteOffset":0,"componentType":5123,"count":3351,"type":"SCALAR"},{"bufferView":1,"byteOffset":0,"componentType":5126,"count":3177,"max":[5.48491764068604,8.38628482818604,2.90391874313354],"min":[-4.92912483215332,-0.00000000715256,-2.53335380554199],"type":"VEC3"},{"bufferView":2,"byteOffset":0,"componentType":5126,"count":3177,"type":"VEC3"},{"bufferView":3,"byteOffset":0,"componentType":5126,"count":3177,"type":"VEC2"}],"asset":{"generator":"FBX2glTF v0.13.1","version":"2.0"},"bufferViews":[{"buffer":0,"byteLength":6702,"byteOffset":0,"target":34963},{"buffer":0,"byteLength":38124,"byteOffset":6704,"target":34962},{"buffer":0,"byteLength":38124,"byteOffset":44828,"target":34962},{"buffer":0,"byteLength":25416,"byteOffset":82952,"target":34962}],"buffers":[{"byteLength":108368,"uri":"SM_hight_tree_09.bin"}],"images":[{"name":"Polygon_Texture_vol2","uri":"Polygon_Texture_vol2.png"}],"materials":[{"alphaMode":"OPAQUE","doubleSided":false,"extras":{"fromFBX":{"isTruePBR":false,"shadingModel":"Phong"}},"name":"Main_material","pbrMetallicRoughness":{"baseColorFactor":[1,1,1,1],"baseColorTexture":{"index":0,"texCoord":0},"metallicFactor":0.400000005960464,"roughnessFactor":0.272165536880493}}],"meshes":[{"name":"hight_tree_09","primitives":[{"attributes":{"NORMAL":2,"POSITION":1,"TEXCOORD_0":3},"indices":0,"material":0,"mode":4}]}],"nodes":[{"mesh":0,"name":"hight_tree_09","rotation":[0,0,0,1],"scale":[1,1,1],"translation":[224.256988525391,-0.0000000077486,-0.06194734573364]}],"samplers":[{}],"scene":0,"scenes":[{"name":"Root Scene","nodes":[0]}],"textures":[{"name":"base_color_texture","sampler":0,"source":0}]}