{"accessors":[{"bufferView":0,"byteOffset":0,"componentType":5123,"count":390,"type":"SCALAR"},{"bufferView":1,"byteOffset":0,"componentType":5126,"count":260,"max":[0.0676733776926994,0.620786011219025,0.07626823335886],"min":[-0.07481157779694,-0.00027112910175,-0.10179013758898],"type":"VEC3"},{"bufferView":2,"byteOffset":0,"componentType":5126,"count":260,"type":"VEC3"},{"bufferView":3,"byteOffset":0,"componentType":5126,"count":260,"type":"VEC2"}],"asset":{"generator":"FBX2glTF v0.13.1","version":"2.0"},"bufferViews":[{"buffer":0,"byteLength":780,"byteOffset":0,"target":34963},{"buffer":0,"byteLength":3120,"byteOffset":780,"target":34962},{"buffer":0,"byteLength":3120,"byteOffset":3900,"target":34962},{"buffer":0,"byteLength":2080,"byteOffset":7020,"target":34962}],"buffers":[{"byteLength":9100,"uri":"SM_high_grass_01.bin"}],"images":[{"name":"Polygon_Texture_vol2","uri":"Polygon_Texture_vol2.png"}],"materials":[{"alphaMode":"OPAQUE","doubleSided":false,"extras":{"fromFBX":{"isTruePBR":false,"shadingModel":"Phong"}},"name":"Main_material","pbrMetallicRoughness":{"baseColorFactor":[1,1,1,1],"baseColorTexture":{"index":0,"texCoord":0},"metallicFactor":0.400000005960464,"roughnessFactor":0.272165536880493}}],"meshes":[{"name":"high_grass_01","primitives":[{"attributes":{"NORMAL":2,"POSITION":1,"TEXCOORD_0":3},"indices":0,"material":0,"mode":4}]}],"nodes":[{"mesh":0,"name":"high_grass_01","rotation":[0,0,0,1],"scale":[1,1,1],"translation":[202.416946411133,0,11.0036668777466]}],"samplers":[{}],"scene":0,"scenes":[{"name":"Root Scene","nodes":[0]}],"textures":[{"name":"base_color_texture","sampler":0,"source":0}]}