{"accessors":[{"bufferView":0,"byteOffset":0,"componentType":5123,"count":4512,"type":"SCALAR"},{"bufferView":1,"byteOffset":0,"componentType":5126,"count":3940,"max":[5.11823654174805,8.04974174499512,2.28490543365479],"min":[-4.95726633071899,-0.00996658857912,-2.28657484054565],"type":"VEC3"},{"bufferView":2,"byteOffset":0,"componentType":5126,"count":3940,"type":"VEC3"},{"bufferView":3,"byteOffset":0,"componentType":5126,"count":3940,"type":"VEC2"}],"asset":{"generator":"FBX2glTF v0.13.1","version":"2.0"},"bufferViews":[{"buffer":0,"byteLength":9024,"byteOffset":0,"target":34963},{"buffer":0,"byteLength":47280,"byteOffset":9024,"target":34962},{"buffer":0,"byteLength":47280,"byteOffset":56304,"target":34962},{"buffer":0,"byteLength":31520,"byteOffset":103584,"target":34962}],"buffers":[{"byteLength":135104,"uri":"SM_hight_tree_11.bin"}],"images":[{"name":"Polygon_Texture_vol2","uri":"Polygon_Texture_vol2.png"}],"materials":[{"alphaMode":"OPAQUE","doubleSided":false,"extras":{"fromFBX":{"isTruePBR":false,"shadingModel":"Phong"}},"name":"Main_material","pbrMetallicRoughness":{"baseColorFactor":[1,1,1,1],"baseColorTexture":{"index":0,"texCoord":0},"metallicFactor":0.400000005960464,"roughnessFactor":0.272165536880493}}],"meshes":[{"name":"hight_tree_11","primitives":[{"attributes":{"NORMAL":2,"POSITION":1,"TEXCOORD_0":3},"indices":0,"material":0,"mode":4}]}],"nodes":[{"mesh":0,"name":"hight_tree_11","rotation":[0,0,0,1],"scale":[1,1,1],"translation":[238.014663696289,0,0.0012059211730957]}],"samplers":[{}],"scene":0,"scenes":[{"name":"Root Scene","nodes":[0]}],"textures":[{"name":"base_color_texture","sampler":0,"source":0}]}