{"accessors":[{"bufferView":0,"byteOffset":0,"componentType":5123,"count":972,"type":"SCALAR"},{"bufferView":1,"byteOffset":0,"componentType":5126,"count":848,"max":[0.897790133953094,2.02120876312256,0.0303683560341597],"min":[-0.9022096991539,-0.0081872921437,-0.61681425571442],"type":"VEC3"},{"bufferView":2,"byteOffset":0,"componentType":5126,"count":848,"type":"VEC3"},{"bufferView":3,"byteOffset":0,"componentType":5126,"count":848,"type":"VEC2"}],"asset":{"generator":"FBX2glTF v0.13.1","version":"2.0"},"bufferViews":[{"buffer":0,"byteLength":1944,"byteOffset":0,"target":34963},{"buffer":0,"byteLength":10176,"byteOffset":1944,"target":34962},{"buffer":0,"byteLength":10176,"byteOffset":12120,"target":34962},{"buffer":0,"byteLength":6784,"byteOffset":22296,"target":34962}],"buffers":[{"byteLength":29080,"uri":"SM_ivy.bin"}],"images":[{"name":"Polygon_Texture_vol2","uri":"Polygon_Texture_vol2.png"}],"materials":[{"alphaMode":"OPAQUE","doubleSided":false,"extras":{"fromFBX":{"isTruePBR":false,"shadingModel":"Phong"}},"name":"Main_material","pbrMetallicRoughness":{"baseColorFactor":[1,1,1,1],"baseColorTexture":{"index":0,"texCoord":0},"metallicFactor":0.400000005960464,"roughnessFactor":0.272165536880493}}],"meshes":[{"name":"ivy","primitives":[{"attributes":{"NORMAL":2,"POSITION":1,"TEXCOORD_0":3},"indices":0,"material":0,"mode":4}]}],"nodes":[{"mesh":0,"name":"ivy","rotation":[0,0,0,1],"scale":[1,1,1],"translation":[209.76155090332,0,10.9995183944702]}],"samplers":[{}],"scene":0,"scenes":[{"name":"Root Scene","nodes":[0]}],"textures":[{"name":"base_color_texture","sampler":0,"source":0}]}