{"accessors":[{"bufferView":0,"byteOffset":0,"componentType":5123,"count":975,"type":"SCALAR"},{"bufferView":1,"byteOffset":0,"componentType":5126,"count":975,"max":[11.7315998077393,2.05669450759888,0.0139117240905762],"min":[-0.12112045288086,-0.04098308086395,-4.91619205474854],"type":"VEC3"},{"bufferView":2,"byteOffset":0,"componentType":5126,"count":975,"type":"VEC3"},{"bufferView":3,"byteOffset":0,"componentType":5126,"count":975,"type":"VEC2"}],"asset":{"generator":"FBX2glTF v0.13.1","version":"2.0"},"bufferViews":[{"buffer":0,"byteLength":1950,"byteOffset":0,"target":34963},{"buffer":0,"byteLength":11700,"byteOffset":1952,"target":34962},{"buffer":0,"byteLength":11700,"byteOffset":13652,"target":34962},{"buffer":0,"byteLength":7800,"byteOffset":25352,"target":34962}],"buffers":[{"byteLength":33152,"uri":"SM_Land_02_C.bin"}],"images":[{"name":"Polygon_Camping_Texture_vol2.0","uri":"Polygon_Camping_Texture_vol2.0.jpg"}],"materials":[{"alphaMode":"OPAQUE","doubleSided":false,"extras":{"fromFBX":{"isTruePBR":false,"shadingModel":"Phong"}},"name":"Material","pbrMetallicRoughness":{"baseColorFactor":[1,1,1,1],"baseColorTexture":{"index":0,"texCoord":0},"metallicFactor":0.400000005960464,"roughnessFactor":0.272165536880493}}],"meshes":[{"name":"Land_02_C","primitives":[{"attributes":{"NORMAL":2,"POSITION":1,"TEXCOORD_0":3},"indices":0,"material":0,"mode":4}]}],"nodes":[{"mesh":0,"name":"Land_02_C","rotation":[0,0,0,1],"scale":[1,1,1],"translation":[90.7694091796875,0.0790706872940063,-19.0864753723145]}],"samplers":[{}],"scene":0,"scenes":[{"name":"Root Scene","nodes":[0]}],"textures":[{"name":"base_color_texture","sampler":0,"source":0}]}