{"accessors":[{"bufferView":0,"byteOffset":0,"componentType":5123,"count":966,"type":"SCALAR"},{"bufferView":1,"byteOffset":0,"componentType":5126,"count":966,"max":[6.81959867477417,1.94636476039886,-0.00000047683716],"min":[-3.20753836631775,-0.09378682821989,-7.72206449508667],"type":"VEC3"},{"bufferView":2,"byteOffset":0,"componentType":5126,"count":966,"type":"VEC3"},{"bufferView":3,"byteOffset":0,"componentType":5126,"count":966,"type":"VEC2"}],"asset":{"generator":"FBX2glTF v0.13.1","version":"2.0"},"bufferViews":[{"buffer":0,"byteLength":1932,"byteOffset":0,"target":34963},{"buffer":0,"byteLength":11592,"byteOffset":1932,"target":34962},{"buffer":0,"byteLength":11592,"byteOffset":13524,"target":34962},{"buffer":0,"byteLength":7728,"byteOffset":25116,"target":34962}],"buffers":[{"byteLength":32844,"uri":"SM_Land_02_D.bin"}],"images":[{"name":"Polygon_Camping_Texture_vol2.0","uri":"Polygon_Camping_Texture_vol2.0.jpg"}],"materials":[{"alphaMode":"OPAQUE","doubleSided":false,"extras":{"fromFBX":{"isTruePBR":false,"shadingModel":"Phong"}},"name":"Material","pbrMetallicRoughness":{"baseColorFactor":[1,1,1,1],"baseColorTexture":{"index":0,"texCoord":0},"metallicFactor":0.400000005960464,"roughnessFactor":0.272165536880493}}],"meshes":[{"name":"Land_02_D","primitives":[{"attributes":{"NORMAL":2,"POSITION":1,"TEXCOORD_0":3},"indices":0,"material":0,"mode":4}]}],"nodes":[{"mesh":0,"name":"Land_02_D","rotation":[0,0,0,1],"scale":[1,1,1],"translation":[83.4282989501953,0.129108309745789,-15.2601728439331]}],"samplers":[{}],"scene":0,"scenes":[{"name":"Root Scene","nodes":[0]}],"textures":[{"name":"base_color_texture","sampler":0,"source":0}]}