{"accessors":[{"bufferView":0,"byteOffset":0,"componentType":5123,"count":984,"type":"SCALAR"},{"bufferView":1,"byteOffset":0,"componentType":5126,"count":984,"max":[11.4093723297119,2.07870054244995,-0.00000047683716],"min":[-0.50644302368164,0,-4.01081562042236],"type":"VEC3"},{"bufferView":2,"byteOffset":0,"componentType":5126,"count":984,"type":"VEC3"},{"bufferView":3,"byteOffset":0,"componentType":5126,"count":984,"type":"VEC2"}],"asset":{"generator":"FBX2glTF v0.13.1","version":"2.0"},"bufferViews":[{"buffer":0,"byteLength":1968,"byteOffset":0,"target":34963},{"buffer":0,"byteLength":11808,"byteOffset":1968,"target":34962},{"buffer":0,"byteLength":11808,"byteOffset":13776,"target":34962},{"buffer":0,"byteLength":7872,"byteOffset":25584,"target":34962}],"buffers":[{"byteLength":33456,"uri":"SM_Land_02_B.bin"}],"images":[{"name":"Polygon_Camping_Texture_vol2.0","uri":"Polygon_Camping_Texture_vol2.0.jpg"}],"materials":[{"alphaMode":"OPAQUE","doubleSided":false,"extras":{"fromFBX":{"isTruePBR":false,"shadingModel":"Phong"}},"name":"Material","pbrMetallicRoughness":{"baseColorFactor":[1,1,1,1],"baseColorTexture":{"index":0,"texCoord":0},"metallicFactor":0.400000005960464,"roughnessFactor":0.272165536880493}}],"meshes":[{"name":"Land_02_B","primitives":[{"attributes":{"NORMAL":2,"POSITION":1,"TEXCOORD_0":3},"indices":0,"material":0,"mode":4}]}],"nodes":[{"mesh":0,"name":"Land_02_B","rotation":[0,0,0,1],"scale":[1,1,1],"translation":[103.355361938477,0.0110999345779419,-19.0829601287842]}],"samplers":[{}],"scene":0,"scenes":[{"name":"Root Scene","nodes":[0]}],"textures":[{"name":"base_color_texture","sampler":0,"source":0}]}