{"accessors":[{"bufferView":0,"byteOffset":0,"componentType":5123,"count":102,"type":"SCALAR"},{"bufferView":1,"byteOffset":0,"componentType":5126,"count":102,"max":[0.00034618377685546,0.731225490570068,0],"min":[-8.00173854827881,-0.01769839599729,-7.97017383575439],"type":"VEC3"},{"bufferView":2,"byteOffset":0,"componentType":5126,"count":102,"type":"VEC3"},{"bufferView":3,"byteOffset":0,"componentType":5126,"count":102,"type":"VEC2"}],"asset":{"generator":"FBX2glTF v0.13.1","version":"2.0"},"bufferViews":[{"buffer":0,"byteLength":204,"byteOffset":0,"target":34963},{"buffer":0,"byteLength":1224,"byteOffset":204,"target":34962},{"buffer":0,"byteLength":1224,"byteOffset":1428,"target":34962},{"buffer":0,"byteLength":816,"byteOffset":2652,"target":34962}],"buffers":[{"byteLength":3468,"uri":"SM_Land_03_A.bin"}],"images":[{"name":"Polygon_Camping_Texture_vol2.0","uri":"Polygon_Camping_Texture_vol2.0.jpg"}],"materials":[{"alphaMode":"OPAQUE","doubleSided":false,"extras":{"fromFBX":{"isTruePBR":false,"shadingModel":"Phong"}},"name":"Material","pbrMetallicRoughness":{"baseColorFactor":[1,1,1,1],"baseColorTexture":{"index":0,"texCoord":0},"metallicFactor":0.400000005960464,"roughnessFactor":0.272165536880493}}],"meshes":[{"name":"Land_03_A","primitives":[{"attributes":{"NORMAL":2,"POSITION":1,"TEXCOORD_0":3},"indices":0,"material":0,"mode":4}]}],"nodes":[{"mesh":0,"name":"Land_03_A","rotation":[0,0,0,1],"scale":[1,1,1],"translation":[141.986801147461,-0.00518353190273,-12.5764780044556]}],"samplers":[{}],"scene":0,"scenes":[{"name":"Root Scene","nodes":[0]}],"textures":[{"name":"base_color_texture","sampler":0,"source":0}]}