{"accessors":[{"bufferView":0,"byteOffset":0,"componentType":5123,"count":1854,"type":"SCALAR"},{"bufferView":1,"byteOffset":0,"componentType":5126,"count":1264,"max":[0.00012779235839843,2.1158766746521,0.0007486343383789],"min":[-6.00003576278687,-0.00155639648438,-6.0001015663147],"type":"VEC3"},{"bufferView":2,"byteOffset":0,"componentType":5126,"count":1264,"type":"VEC3"},{"bufferView":3,"byteOffset":0,"componentType":5126,"count":1264,"type":"VEC2"}],"asset":{"generator":"FBX2glTF v0.13.1","version":"2.0"},"bufferViews":[{"buffer":0,"byteLength":3708,"byteOffset":0,"target":34963},{"buffer":0,"byteLength":15168,"byteOffset":3708,"target":34962},{"buffer":0,"byteLength":15168,"byteOffset":18876,"target":34962},{"buffer":0,"byteLength":10112,"byteOffset":34044,"target":34962}],"buffers":[{"byteLength":44156,"uri":"SM_Land_01_A.bin"}],"images":[{"name":"Polygon_Camping_Texture_vol2.0","uri":"Polygon_Camping_Texture_vol2.0.jpg"}],"materials":[{"alphaMode":"OPAQUE","doubleSided":false,"extras":{"fromFBX":{"isTruePBR":false,"shadingModel":"Phong"}},"name":"Material","pbrMetallicRoughness":{"baseColorFactor":[1,1,1,1],"baseColorTexture":{"index":0,"texCoord":0},"metallicFactor":0.400000005960464,"roughnessFactor":0.272165536880493}}],"meshes":[{"name":"Land_01_A","primitives":[{"attributes":{"NORMAL":2,"POSITION":1,"TEXCOORD_0":3},"indices":0,"material":0,"mode":4}]}],"nodes":[{"mesh":0,"name":"Land_01_A","rotation":[0,0,0,1],"scale":[1,1,1],"translation":[163.43896484375,0.111492745578289,-20.2110958099365]}],"samplers":[{}],"scene":0,"scenes":[{"name":"Root Scene","nodes":[0]}],"textures":[{"name":"base_color_texture","sampler":0,"source":0}]}