{"accessors":[{"bufferView":0,"byteOffset":0,"componentType":5123,"count":933,"type":"SCALAR"},{"bufferView":1,"byteOffset":0,"componentType":5126,"count":933,"max":[11.5273017883301,2.02597284317017,0.897562026977539],"min":[-0.31707191467285,-0.00739574432373,-3.87467336654663],"type":"VEC3"},{"bufferView":2,"byteOffset":0,"componentType":5126,"count":933,"type":"VEC3"},{"bufferView":3,"byteOffset":0,"componentType":5126,"count":933,"type":"VEC2"}],"asset":{"generator":"FBX2glTF v0.13.1","version":"2.0"},"bufferViews":[{"buffer":0,"byteLength":1866,"byteOffset":0,"target":34963},{"buffer":0,"byteLength":11196,"byteOffset":1868,"target":34962},{"buffer":0,"byteLength":11196,"byteOffset":13064,"target":34962},{"buffer":0,"byteLength":7464,"byteOffset":24260,"target":34962}],"buffers":[{"byteLength":31724,"uri":"SM_Land_02_A.bin"}],"images":[{"name":"Polygon_Camping_Texture_vol2.0","uri":"Polygon_Camping_Texture_vol2.0.jpg"}],"materials":[{"alphaMode":"OPAQUE","doubleSided":false,"extras":{"fromFBX":{"isTruePBR":false,"shadingModel":"Phong"}},"name":"Material","pbrMetallicRoughness":{"baseColorFactor":[1,1,1,1],"baseColorTexture":{"index":0,"texCoord":0},"metallicFactor":0.400000005960464,"roughnessFactor":0.272165536880493}}],"meshes":[{"name":"Land_02_A","primitives":[{"attributes":{"NORMAL":2,"POSITION":1,"TEXCOORD_0":3},"indices":0,"material":0,"mode":4}]}],"nodes":[{"mesh":0,"name":"Land_02_A","rotation":[0,0,0,1],"scale":[1,1,1],"translation":[115.552917480469,0.0739907026290894,-19.0626163482666]}],"samplers":[{}],"scene":0,"scenes":[{"name":"Root Scene","nodes":[0]}],"textures":[{"name":"base_color_texture","sampler":0,"source":0}]}