{"accessors":[{"bufferView":0,"byteOffset":0,"componentType":5123,"count":675,"type":"SCALAR"},{"bufferView":1,"byteOffset":0,"componentType":5126,"count":675,"max":[6.93784952163696,1.13697552680969,0.415310114622116],"min":[-0.81975889205933,0,-7.2978572845459],"type":"VEC3"},{"bufferView":2,"byteOffset":0,"componentType":5126,"count":675,"type":"VEC3"},{"bufferView":3,"byteOffset":0,"componentType":5126,"count":675,"type":"VEC2"}],"asset":{"generator":"FBX2glTF v0.13.1","version":"2.0"},"bufferViews":[{"buffer":0,"byteLength":1350,"byteOffset":0,"target":34963},{"buffer":0,"byteLength":8100,"byteOffset":1352,"target":34962},{"buffer":0,"byteLength":8100,"byteOffset":9452,"target":34962},{"buffer":0,"byteLength":5400,"byteOffset":17552,"target":34962}],"buffers":[{"byteLength":22952,"uri":"SM_Land_04_B.bin"}],"images":[{"name":"Polygon_Camping_Texture_vol2.0","uri":"Polygon_Camping_Texture_vol2.0.jpg"}],"materials":[{"alphaMode":"OPAQUE","doubleSided":false,"extras":{"fromFBX":{"isTruePBR":false,"shadingModel":"Phong"}},"name":"Material","pbrMetallicRoughness":{"baseColorFactor":[1,1,1,1],"baseColorTexture":{"index":0,"texCoord":0},"metallicFactor":0.400000005960464,"roughnessFactor":0.272165536880493}}],"meshes":[{"name":"Land_04_B","primitives":[{"attributes":{"NORMAL":2,"POSITION":1,"TEXCOORD_0":3},"indices":0,"material":0,"mode":4}]}],"nodes":[{"mesh":0,"name":"Land_04_B","rotation":[0,0,0,1],"scale":[1,1,1],"translation":[114.997184753418,0.0456311777234077,3.32637691497803]}],"samplers":[{}],"scene":0,"scenes":[{"name":"Root Scene","nodes":[0]}],"textures":[{"name":"base_color_texture","sampler":0,"source":0}]}