{"accessors":[{"bufferView":0,"byteOffset":0,"componentType":5123,"count":774,"type":"SCALAR"},{"bufferView":1,"byteOffset":0,"componentType":5126,"count":774,"max":[8.99462890625,1.30526053905487,1.73670816421509],"min":[-0.59268039464951,-0.03090274706483,-4.91389799118042],"type":"VEC3"},{"bufferView":2,"byteOffset":0,"componentType":5126,"count":774,"type":"VEC3"},{"bufferView":3,"byteOffset":0,"componentType":5126,"count":774,"type":"VEC2"}],"asset":{"generator":"FBX2glTF v0.13.1","version":"2.0"},"bufferViews":[{"buffer":0,"byteLength":1548,"byteOffset":0,"target":34963},{"buffer":0,"byteLength":9288,"byteOffset":1548,"target":34962},{"buffer":0,"byteLength":9288,"byteOffset":10836,"target":34962},{"buffer":0,"byteLength":6192,"byteOffset":20124,"target":34962}],"buffers":[{"byteLength":26316,"uri":"SM_Land_04_A.bin"}],"images":[{"name":"Polygon_Camping_Texture_vol2.0","uri":"Polygon_Camping_Texture_vol2.0.jpg"}],"materials":[{"alphaMode":"OPAQUE","doubleSided":false,"extras":{"fromFBX":{"isTruePBR":false,"shadingModel":"Phong"}},"name":"Material","pbrMetallicRoughness":{"baseColorFactor":[1,1,1,1],"baseColorTexture":{"index":0,"texCoord":0},"metallicFactor":0.400000005960464,"roughnessFactor":0.272165536880493}}],"meshes":[{"name":"Land_04_A","primitives":[{"attributes":{"NORMAL":2,"POSITION":1,"TEXCOORD_0":3},"indices":0,"material":0,"mode":4}]}],"nodes":[{"mesh":0,"name":"Land_04_A","rotation":[0,0,0,1],"scale":[1,1,1],"translation":[123.03279876709,-0.00357194407843,1.58832132816315]}],"samplers":[{}],"scene":0,"scenes":[{"name":"Root Scene","nodes":[0]}],"textures":[{"name":"base_color_texture","sampler":0,"source":0}]}