{"accessors":[{"bufferView":0,"byteOffset":0,"componentType":5123,"count":1884,"type":"SCALAR"},{"bufferView":1,"byteOffset":0,"componentType":5126,"count":1274,"max":[0.0000951290130615234,0.363128185272217,0.0000104904174804688],"min":[-6.00001335144043,-0.08687281608582,-6.00034475326538],"type":"VEC3"},{"bufferView":2,"byteOffset":0,"componentType":5126,"count":1274,"type":"VEC3"},{"bufferView":3,"byteOffset":0,"componentType":5126,"count":1274,"type":"VEC2"}],"asset":{"generator":"FBX2glTF v0.13.1","version":"2.0"},"bufferViews":[{"buffer":0,"byteLength":3768,"byteOffset":0,"target":34963},{"buffer":0,"byteLength":15288,"byteOffset":3768,"target":34962},{"buffer":0,"byteLength":15288,"byteOffset":19056,"target":34962},{"buffer":0,"byteLength":10192,"byteOffset":34344,"target":34962}],"buffers":[{"byteLength":44536,"uri":"SM_Land_01_B.bin"}],"images":[{"name":"Polygon_Camping_Texture_vol2.0","uri":"Polygon_Camping_Texture_vol2.0.jpg"}],"materials":[{"alphaMode":"OPAQUE","doubleSided":false,"extras":{"fromFBX":{"isTruePBR":false,"shadingModel":"Phong"}},"name":"Material","pbrMetallicRoughness":{"baseColorFactor":[1,1,1,1],"baseColorTexture":{"index":0,"texCoord":0},"metallicFactor":0.400000005960464,"roughnessFactor":0.272165536880493}}],"meshes":[{"name":"Land_01_B","primitives":[{"attributes":{"NORMAL":2,"POSITION":1,"TEXCOORD_0":3},"indices":0,"material":0,"mode":4}]}],"nodes":[{"mesh":0,"name":"Land_01_B","rotation":[0,0,0,1],"scale":[1,1,1],"translation":[156.865295410156,0.111492745578289,-20.2110958099365]}],"samplers":[{}],"scene":0,"scenes":[{"name":"Root Scene","nodes":[0]}],"textures":[{"name":"base_color_texture","sampler":0,"source":0}]}