{"accessors":[{"bufferView":0,"byteOffset":0,"componentType":5123,"count":1887,"type":"SCALAR"},{"bufferView":1,"byteOffset":0,"componentType":5126,"count":1273,"max":[0.0000095367431640625,2.18110609054565,0.00100135803222656],"min":[-5.99999237060547,-0.00563645362854,-5.99922037124634],"type":"VEC3"},{"bufferView":2,"byteOffset":0,"componentType":5126,"count":1273,"type":"VEC3"},{"bufferView":3,"byteOffset":0,"componentType":5126,"count":1273,"type":"VEC2"}],"asset":{"generator":"FBX2glTF v0.13.1","version":"2.0"},"bufferViews":[{"buffer":0,"byteLength":3774,"byteOffset":0,"target":34963},{"buffer":0,"byteLength":15276,"byteOffset":3776,"target":34962},{"buffer":0,"byteLength":15276,"byteOffset":19052,"target":34962},{"buffer":0,"byteLength":10184,"byteOffset":34328,"target":34962}],"buffers":[{"byteLength":44512,"uri":"SM_Land_01.bin"}],"images":[{"name":"Polygon_Camping_Texture_vol2.0","uri":"Polygon_Camping_Texture_vol2.0.jpg"}],"materials":[{"alphaMode":"OPAQUE","doubleSided":false,"extras":{"fromFBX":{"isTruePBR":false,"shadingModel":"Phong"}},"name":"Material","pbrMetallicRoughness":{"baseColorFactor":[1,1,1,1],"baseColorTexture":{"index":0,"texCoord":0},"metallicFactor":0.400000005960464,"roughnessFactor":0.272165536880493}}],"meshes":[{"name":"Land_01","primitives":[{"attributes":{"NORMAL":2,"POSITION":1,"TEXCOORD_0":3},"indices":0,"material":0,"mode":4}]}],"nodes":[{"mesh":0,"name":"Land_01","rotation":[0,0,0,1],"scale":[1,1,1],"translation":[169.906097412109,0.110342137515545,-20.2118759155273]}],"samplers":[{}],"scene":0,"scenes":[{"name":"Root Scene","nodes":[0]}],"textures":[{"name":"base_color_texture","sampler":0,"source":0}]}