{"accessors":[{"bufferView":0,"byteOffset":0,"componentType":5123,"count":90,"type":"SCALAR"},{"bufferView":1,"byteOffset":0,"componentType":5126,"count":90,"max":[0.00486993789672852,1.09199285507202,0.00380992889404297],"min":[-7.9987268447876,0,-7.9986777305603],"type":"VEC3"},{"bufferView":2,"byteOffset":0,"componentType":5126,"count":90,"type":"VEC3"},{"bufferView":3,"byteOffset":0,"componentType":5126,"count":90,"type":"VEC2"}],"asset":{"generator":"FBX2glTF v0.13.1","version":"2.0"},"bufferViews":[{"buffer":0,"byteLength":180,"byteOffset":0,"target":34963},{"buffer":0,"byteLength":1080,"byteOffset":180,"target":34962},{"buffer":0,"byteLength":1080,"byteOffset":1260,"target":34962},{"buffer":0,"byteLength":720,"byteOffset":2340,"target":34962}],"buffers":[{"byteLength":3060,"uri":"SM_Land_03_E.bin"}],"images":[{"name":"Polygon_Camping_Texture_vol2.0","uri":"Polygon_Camping_Texture_vol2.0.jpg"}],"materials":[{"alphaMode":"OPAQUE","doubleSided":false,"extras":{"fromFBX":{"isTruePBR":false,"shadingModel":"Phong"}},"name":"Material","pbrMetallicRoughness":{"baseColorFactor":[1,1,1,1],"baseColorTexture":{"index":0,"texCoord":0},"metallicFactor":0.400000005960464,"roughnessFactor":0.272165536880493}}],"meshes":[{"name":"Land_03_E","primitives":[{"attributes":{"NORMAL":2,"POSITION":1,"TEXCOORD_0":3},"indices":0,"material":0,"mode":4}]}],"nodes":[{"mesh":0,"name":"Land_03_E","rotation":[0,0,0,1],"scale":[1,1,1],"translation":[141.984741210938,-1.00809562206268,3.99831223487854]}],"samplers":[{}],"scene":0,"scenes":[{"name":"Root Scene","nodes":[0]}],"textures":[{"name":"base_color_texture","sampler":0,"source":0}]}