{"accessors":[{"bufferView":0,"byteOffset":0,"componentType":5123,"count":111,"type":"SCALAR"},{"bufferView":1,"byteOffset":0,"componentType":5126,"count":111,"max":[0.00700235366821289,1.07176220417023,0],"min":[-7.99894952774048,0,-8.00210762023926],"type":"VEC3"},{"bufferView":2,"byteOffset":0,"componentType":5126,"count":111,"type":"VEC3"},{"bufferView":3,"byteOffset":0,"componentType":5126,"count":111,"type":"VEC2"}],"asset":{"generator":"FBX2glTF v0.13.1","version":"2.0"},"bufferViews":[{"buffer":0,"byteLength":222,"byteOffset":0,"target":34963},{"buffer":0,"byteLength":1332,"byteOffset":224,"target":34962},{"buffer":0,"byteLength":1332,"byteOffset":1556,"target":34962},{"buffer":0,"byteLength":888,"byteOffset":2888,"target":34962}],"buffers":[{"byteLength":3776,"uri":"SM_Land_03_D.bin"}],"images":[{"name":"Polygon_Camping_Texture_vol2.0","uri":"Polygon_Camping_Texture_vol2.0.jpg"}],"materials":[{"alphaMode":"OPAQUE","doubleSided":false,"extras":{"fromFBX":{"isTruePBR":false,"shadingModel":"Phong"}},"name":"Material","pbrMetallicRoughness":{"baseColorFactor":[1,1,1,1],"baseColorTexture":{"index":0,"texCoord":0},"metallicFactor":0.400000005960464,"roughnessFactor":0.272165536880493}}],"meshes":[{"name":"Land_03_D","primitives":[{"attributes":{"NORMAL":2,"POSITION":1,"TEXCOORD_0":3},"indices":0,"material":0,"mode":4}]}],"nodes":[{"mesh":0,"name":"Land_03_D","rotation":[0,0,0,1],"scale":[1,1,1],"translation":[150.269638061523,-1.0110787153244,-4.38045692443848]}],"samplers":[{}],"scene":0,"scenes":[{"name":"Root Scene","nodes":[0]}],"textures":[{"name":"base_color_texture","sampler":0,"source":0}]}