{"accessors":[{"bufferView":0,"byteOffset":0,"componentType":5123,"count":1002,"type":"SCALAR"},{"bufferView":1,"byteOffset":0,"componentType":5126,"count":1002,"max":[7.28387117385864,1.83683037757874,0.797871828079224],"min":[-0.52447867393494,-0.0195232629776,-7.1935338973999],"type":"VEC3"},{"bufferView":2,"byteOffset":0,"componentType":5126,"count":1002,"type":"VEC3"},{"bufferView":3,"byteOffset":0,"componentType":5126,"count":1002,"type":"VEC2"}],"asset":{"generator":"FBX2glTF v0.13.1","version":"2.0"},"bufferViews":[{"buffer":0,"byteLength":2004,"byteOffset":0,"target":34963},{"buffer":0,"byteLength":12024,"byteOffset":2004,"target":34962},{"buffer":0,"byteLength":12024,"byteOffset":14028,"target":34962},{"buffer":0,"byteLength":8016,"byteOffset":26052,"target":34962}],"buffers":[{"byteLength":34068,"uri":"SM_Land_04_C.bin"}],"images":[{"name":"Polygon_Camping_Texture_vol2.0","uri":"Polygon_Camping_Texture_vol2.0.jpg"}],"materials":[{"alphaMode":"OPAQUE","doubleSided":false,"extras":{"fromFBX":{"isTruePBR":false,"shadingModel":"Phong"}},"name":"Material","pbrMetallicRoughness":{"baseColorFactor":[1,1,1,1],"baseColorTexture":{"index":0,"texCoord":0},"metallicFactor":0.400000005960464,"roughnessFactor":0.272165536880493}}],"meshes":[{"name":"Land_04_C","primitives":[{"attributes":{"NORMAL":2,"POSITION":1,"TEXCOORD_0":3},"indices":0,"material":0,"mode":4}]}],"nodes":[{"mesh":0,"name":"Land_04_C","rotation":[0,0,0,1],"scale":[1,1,1],"translation":[105.918594360352,0.00307750701904297,3.14745330810547]}],"samplers":[{}],"scene":0,"scenes":[{"name":"Root Scene","nodes":[0]}],"textures":[{"name":"base_color_texture","sampler":0,"source":0}]}