{"accessors":[{"bufferView":0,"byteOffset":0,"componentType":5123,"count":2505,"type":"SCALAR"},{"bufferView":1,"byteOffset":0,"componentType":5126,"count":2505,"max":[6.47017669677734,4.1464958190918,0.336843699216843],"min":[-1.33647239208221,0,-7.66181087493896],"type":"VEC3"},{"bufferView":2,"byteOffset":0,"componentType":5126,"count":2505,"type":"VEC3"},{"bufferView":3,"byteOffset":0,"componentType":5126,"count":2505,"type":"VEC2"}],"asset":{"generator":"FBX2glTF v0.13.1","version":"2.0"},"bufferViews":[{"buffer":0,"byteLength":5010,"byteOffset":0,"target":34963},{"buffer":0,"byteLength":30060,"byteOffset":5012,"target":34962},{"buffer":0,"byteLength":30060,"byteOffset":35072,"target":34962},{"buffer":0,"byteLength":20040,"byteOffset":65132,"target":34962}],"buffers":[{"byteLength":85172,"uri":"SM_Land_04_D.bin"}],"images":[{"name":"Polygon_Camping_Texture_vol2.0","uri":"Polygon_Camping_Texture_vol2.0.jpg"}],"materials":[{"alphaMode":"OPAQUE","doubleSided":false,"extras":{"fromFBX":{"isTruePBR":false,"shadingModel":"Phong"}},"name":"Material","pbrMetallicRoughness":{"baseColorFactor":[1,1,1,1],"baseColorTexture":{"index":0,"texCoord":0},"metallicFactor":0.400000005960464,"roughnessFactor":0.272165536880493}}],"meshes":[{"name":"Land_04_D","primitives":[{"attributes":{"NORMAL":2,"POSITION":1,"TEXCOORD_0":3},"indices":0,"material":0,"mode":4}]}],"nodes":[{"mesh":0,"name":"Land_04_D","rotation":[0,0,0,1],"scale":[1,1,1],"translation":[96.9414901733398,-0.00000011920929,3.53871965408325]}],"samplers":[{}],"scene":0,"scenes":[{"name":"Root Scene","nodes":[0]}],"textures":[{"name":"base_color_texture","sampler":0,"source":0}]}