{"accessors":[{"bufferView":0,"byteOffset":0,"componentType":5123,"count":1608,"type":"SCALAR"},{"bufferView":1,"byteOffset":0,"componentType":5126,"count":1608,"max":[5.64434862136841,2.43437671661377,0.0143976211547852],"min":[-6.65095186233521,-0.01413859333843,-12.4748163223267],"type":"VEC3"},{"bufferView":2,"byteOffset":0,"componentType":5126,"count":1608,"type":"VEC3"},{"bufferView":3,"byteOffset":0,"componentType":5126,"count":1608,"type":"VEC2"}],"asset":{"generator":"FBX2glTF v0.13.1","version":"2.0"},"bufferViews":[{"buffer":0,"byteLength":3216,"byteOffset":0,"target":34963},{"buffer":0,"byteLength":19296,"byteOffset":3216,"target":34962},{"buffer":0,"byteLength":19296,"byteOffset":22512,"target":34962},{"buffer":0,"byteLength":12864,"byteOffset":41808,"target":34962}],"buffers":[{"byteLength":54672,"uri":"SM_Land_04_G.bin"}],"images":[{"name":"Polygon_Camping_Texture_vol2.0","uri":"Polygon_Camping_Texture_vol2.0.jpg"}],"materials":[{"alphaMode":"OPAQUE","doubleSided":false,"extras":{"fromFBX":{"isTruePBR":false,"shadingModel":"Phong"}},"name":"Material","pbrMetallicRoughness":{"baseColorFactor":[1,1,1,1],"baseColorTexture":{"index":0,"texCoord":0},"metallicFactor":0.400000005960464,"roughnessFactor":0.272165536880493}}],"meshes":[{"name":"Land_04_G","primitives":[{"attributes":{"NORMAL":2,"POSITION":1,"TEXCOORD_0":3},"indices":0,"material":0,"mode":4}]}],"nodes":[{"mesh":0,"name":"Land_04_G","rotation":[0,0,0,1],"scale":[1,1,1],"translation":[67.4298934936523,0.0925491526722908,3.39293265342712]}],"samplers":[{}],"scene":0,"scenes":[{"name":"Root Scene","nodes":[0]}],"textures":[{"name":"base_color_texture","sampler":0,"source":0}]}