{"accessors":[{"bufferView":0,"byteOffset":0,"componentType":5123,"count":951,"type":"SCALAR"},{"bufferView":1,"byteOffset":0,"componentType":5126,"count":951,"max":[9.75939178466797,1.94454109668732,0.0773677825927734],"min":[-0.24273681640625,-0.13386355340481,-7.64710855484009],"type":"VEC3"},{"bufferView":2,"byteOffset":0,"componentType":5126,"count":951,"type":"VEC3"},{"bufferView":3,"byteOffset":0,"componentType":5126,"count":951,"type":"VEC2"}],"asset":{"generator":"FBX2glTF v0.13.1","version":"2.0"},"bufferViews":[{"buffer":0,"byteLength":1902,"byteOffset":0,"target":34963},{"buffer":0,"byteLength":11412,"byteOffset":1904,"target":34962},{"buffer":0,"byteLength":11412,"byteOffset":13316,"target":34962},{"buffer":0,"byteLength":7608,"byteOffset":24728,"target":34962}],"buffers":[{"byteLength":32336,"uri":"SM_Land_02.bin"}],"images":[{"name":"Polygon_Camping_Texture_vol2.0","uri":"Polygon_Camping_Texture_vol2.0.jpg"}],"materials":[{"alphaMode":"OPAQUE","doubleSided":false,"extras":{"fromFBX":{"isTruePBR":false,"shadingModel":"Phong"}},"name":"Material","pbrMetallicRoughness":{"baseColorFactor":[1,1,1,1],"baseColorTexture":{"index":0,"texCoord":0},"metallicFactor":0.400000005960464,"roughnessFactor":0.272165536880493}}],"meshes":[{"name":"Land_02","primitives":[{"attributes":{"NORMAL":2,"POSITION":1,"TEXCOORD_0":3},"indices":0,"material":0,"mode":4}]}],"nodes":[{"mesh":0,"name":"Land_02","rotation":[0,0,0,1],"scale":[1,1,1],"translation":[127.93270111084,0.12752591073513,-19.2464466094971]}],"samplers":[{}],"scene":0,"scenes":[{"name":"Root Scene","nodes":[0]}],"textures":[{"name":"base_color_texture","sampler":0,"source":0}]}