{"accessors":[{"bufferView":0,"byteOffset":0,"componentType":5123,"count":1491,"type":"SCALAR"},{"bufferView":1,"byteOffset":0,"componentType":5126,"count":1351,"max":[10.9074401855469,0.692433893680573,1.56190538406372],"min":[-0.13231134414673,-0.03452947363257,-9.09763717651367],"type":"VEC3"},{"bufferView":2,"byteOffset":0,"componentType":5126,"count":1351,"type":"VEC3"},{"bufferView":3,"byteOffset":0,"componentType":5126,"count":1351,"type":"VEC2"}],"asset":{"generator":"FBX2glTF v0.13.1","version":"2.0"},"bufferViews":[{"buffer":0,"byteLength":2982,"byteOffset":0,"target":34963},{"buffer":0,"byteLength":16212,"byteOffset":2984,"target":34962},{"buffer":0,"byteLength":16212,"byteOffset":19196,"target":34962},{"buffer":0,"byteLength":10808,"byteOffset":35408,"target":34962}],"buffers":[{"byteLength":46216,"uri":"SM_Land_04_E.bin"}],"images":[{"name":"Polygon_Camping_Texture_vol2.0","uri":"Polygon_Camping_Texture_vol2.0.jpg"}],"materials":[{"alphaMode":"OPAQUE","doubleSided":false,"extras":{"fromFBX":{"isTruePBR":false,"shadingModel":"Phong"}},"name":"Material","pbrMetallicRoughness":{"baseColorFactor":[1,1,1,1],"baseColorTexture":{"index":0,"texCoord":0},"metallicFactor":0.400000005960464,"roughnessFactor":0.272165536880493}}],"meshes":[{"name":"Land_04_E","primitives":[{"attributes":{"NORMAL":2,"POSITION":1,"TEXCOORD_0":3},"indices":0,"material":0,"mode":4}]}],"nodes":[{"mesh":0,"name":"Land_04_E","rotation":[0,0,0,1],"scale":[1,1,1],"translation":[83.6755065917969,0.0303108803927898,3.4953236579895]}],"samplers":[{}],"scene":0,"scenes":[{"name":"Root Scene","nodes":[0]}],"textures":[{"name":"base_color_texture","sampler":0,"source":0}]}