{"accessors":[{"bufferView":0,"byteOffset":0,"componentType":5123,"count":1911,"type":"SCALAR"},{"bufferView":1,"byteOffset":0,"componentType":5126,"count":1285,"max":[0.0000104904174804688,0.381805419921875,0],"min":[-6.00000524520874,-2,-6],"type":"VEC3"},{"bufferView":2,"byteOffset":0,"componentType":5126,"count":1285,"type":"VEC3"},{"bufferView":3,"byteOffset":0,"componentType":5126,"count":1285,"type":"VEC2"}],"asset":{"generator":"FBX2glTF v0.13.1","version":"2.0"},"bufferViews":[{"buffer":0,"byteLength":3822,"byteOffset":0,"target":34963},{"buffer":0,"byteLength":15420,"byteOffset":3824,"target":34962},{"buffer":0,"byteLength":15420,"byteOffset":19244,"target":34962},{"buffer":0,"byteLength":10280,"byteOffset":34664,"target":34962}],"buffers":[{"byteLength":44944,"uri":"SM_Land_01_D.bin"}],"images":[{"name":"Polygon_Camping_Texture_vol2.0","uri":"Polygon_Camping_Texture_vol2.0.jpg"}],"materials":[{"alphaMode":"OPAQUE","doubleSided":false,"extras":{"fromFBX":{"isTruePBR":false,"shadingModel":"Phong"}},"name":"Material","pbrMetallicRoughness":{"baseColorFactor":[1,1,1,1],"baseColorTexture":{"index":0,"texCoord":0},"metallicFactor":0.400000005960464,"roughnessFactor":0.272165536880493}}],"meshes":[{"name":"Land_01_D","primitives":[{"attributes":{"NORMAL":2,"POSITION":1,"TEXCOORD_0":3},"indices":0,"material":0,"mode":4}]}],"nodes":[{"mesh":0,"name":"Land_01_D","rotation":[0,0,0,1],"scale":[1,1,1],"translation":[150.398147583008,2.11149263381958,-13.6805419921875]}],"samplers":[{}],"scene":0,"scenes":[{"name":"Root Scene","nodes":[0]}],"textures":[{"name":"base_color_texture","sampler":0,"source":0}]}