{"accessors":[{"bufferView":0,"byteOffset":0,"componentType":5123,"count":1269,"type":"SCALAR"},{"bufferView":1,"byteOffset":0,"componentType":5126,"count":1269,"max":[2.86518907546997,0.479349851608276,0.00825977325439453],"min":[-9.55685806274414,-0.44217267632484,-13.1597814559937],"type":"VEC3"},{"bufferView":2,"byteOffset":0,"componentType":5126,"count":1269,"type":"VEC3"},{"bufferView":3,"byteOffset":0,"componentType":5126,"count":1269,"type":"VEC2"}],"asset":{"generator":"FBX2glTF v0.13.1","version":"2.0"},"bufferViews":[{"buffer":0,"byteLength":2538,"byteOffset":0,"target":34963},{"buffer":0,"byteLength":15228,"byteOffset":2540,"target":34962},{"buffer":0,"byteLength":15228,"byteOffset":17768,"target":34962},{"buffer":0,"byteLength":10152,"byteOffset":32996,"target":34962}],"buffers":[{"byteLength":43148,"uri":"SM_Land_04_F.bin"}],"images":[{"name":"Polygon_Camping_Texture_vol2.0","uri":"Polygon_Camping_Texture_vol2.0.jpg"}],"materials":[{"alphaMode":"OPAQUE","doubleSided":false,"extras":{"fromFBX":{"isTruePBR":false,"shadingModel":"Phong"}},"name":"Material","pbrMetallicRoughness":{"baseColorFactor":[1,1,1,1],"baseColorTexture":{"index":0,"texCoord":0},"metallicFactor":0.400000005960464,"roughnessFactor":0.272165536880493}}],"meshes":[{"name":"Land_04_F","primitives":[{"attributes":{"NORMAL":2,"POSITION":1,"TEXCOORD_0":3},"indices":0,"material":0,"mode":4}]}],"nodes":[{"mesh":0,"name":"Land_04_F","rotation":[0,0,0,1],"scale":[1,1,1],"translation":[81.2147216796875,-0.00170036964118,5.02480411529541]}],"samplers":[{}],"scene":0,"scenes":[{"name":"Root Scene","nodes":[0]}],"textures":[{"name":"base_color_texture","sampler":0,"source":0}]}