{"accessors":[{"bufferView":0,"byteOffset":0,"componentType":5123,"count":102,"type":"SCALAR"},{"bufferView":1,"byteOffset":0,"componentType":5126,"count":102,"max":[0.00181198120117188,1.42330992221832,0.00162124633789062],"min":[-7.90081214904785,-0.0194154586643,-8.00764846801758],"type":"VEC3"},{"bufferView":2,"byteOffset":0,"componentType":5126,"count":102,"type":"VEC3"},{"bufferView":3,"byteOffset":0,"componentType":5126,"count":102,"type":"VEC2"}],"asset":{"generator":"FBX2glTF v0.13.1","version":"2.0"},"bufferViews":[{"buffer":0,"byteLength":204,"byteOffset":0,"target":34963},{"buffer":0,"byteLength":1224,"byteOffset":204,"target":34962},{"buffer":0,"byteLength":1224,"byteOffset":1428,"target":34962},{"buffer":0,"byteLength":816,"byteOffset":2652,"target":34962}],"buffers":[{"byteLength":3468,"uri":"SM_Land_03_B.bin"}],"images":[{"name":"Polygon_Camping_Texture_vol2.0","uri":"Polygon_Camping_Texture_vol2.0.jpg"}],"materials":[{"alphaMode":"OPAQUE","doubleSided":false,"extras":{"fromFBX":{"isTruePBR":false,"shadingModel":"Phong"}},"name":"Material","pbrMetallicRoughness":{"baseColorFactor":[1,1,1,1],"baseColorTexture":{"index":0,"texCoord":0},"metallicFactor":0.400000005960464,"roughnessFactor":0.272165536880493}}],"meshes":[{"name":"Land_03_B","primitives":[{"attributes":{"NORMAL":2,"POSITION":1,"TEXCOORD_0":3},"indices":0,"material":0,"mode":4}]}],"nodes":[{"mesh":0,"name":"Land_03_B","rotation":[0,0,0,1],"scale":[1,1,1],"translation":[133.802978515625,-0.00726206600666,-4.38185167312622]}],"samplers":[{}],"scene":0,"scenes":[{"name":"Root Scene","nodes":[0]}],"textures":[{"name":"base_color_texture","sampler":0,"source":0}]}