{"accessors":[{"bufferView":0,"byteOffset":0,"componentType":5123,"count":672,"type":"SCALAR"},{"bufferView":1,"byteOffset":0,"componentType":5126,"count":394,"max":[1,0.456625521183014,0.209684073925018],"min":[-1.11789679527283,-0.0000001937151,-0.3056874871254],"type":"VEC3"},{"bufferView":2,"byteOffset":0,"componentType":5126,"count":394,"type":"VEC3"},{"bufferView":3,"byteOffset":0,"componentType":5126,"count":394,"type":"VEC2"}],"asset":{"generator":"FBX2glTF v0.13.1","version":"2.0"},"bufferViews":[{"buffer":0,"byteLength":1344,"byteOffset":0,"target":34963},{"buffer":0,"byteLength":4728,"byteOffset":1344,"target":34962},{"buffer":0,"byteLength":4728,"byteOffset":6072,"target":34962},{"buffer":0,"byteLength":3152,"byteOffset":10800,"target":34962}],"buffers":[{"byteLength":13952,"uri":"SM_log_01.bin"}],"images":[{"name":"Polygon_Texture_vol2","uri":"Polygon_Texture_vol2.png"}],"materials":[{"alphaMode":"OPAQUE","doubleSided":false,"extras":{"fromFBX":{"isTruePBR":false,"shadingModel":"Phong"}},"name":"Main_material","pbrMetallicRoughness":{"baseColorFactor":[1,1,1,1],"baseColorTexture":{"index":0,"texCoord":0},"metallicFactor":0.400000005960464,"roughnessFactor":0.272165536880493}}],"meshes":[{"name":"log_01","primitives":[{"attributes":{"NORMAL":2,"POSITION":1,"TEXCOORD_0":3},"indices":0,"material":0,"mode":4}]}],"nodes":[{"mesh":0,"name":"log_01","rotation":[0,0,0,1],"scale":[1,1,1],"translation":[207.356338500977,0,10.9995183944702]}],"samplers":[{}],"scene":0,"scenes":[{"name":"Root Scene","nodes":[0]}],"textures":[{"name":"base_color_texture","sampler":0,"source":0}]}