{"accessors":[{"bufferView":0,"byteOffset":0,"componentType":5123,"count":1860,"type":"SCALAR"},{"bufferView":1,"byteOffset":0,"componentType":5126,"count":1262,"max":[0.00204658508300781,2.19111967086792,0.0000638961791992188],"min":[-6.00010299682617,0,-6.0000467300415],"type":"VEC3"},{"bufferView":2,"byteOffset":0,"componentType":5126,"count":1262,"type":"VEC3"},{"bufferView":3,"byteOffset":0,"componentType":5126,"count":1262,"type":"VEC2"}],"asset":{"generator":"FBX2glTF v0.13.1","version":"2.0"},"bufferViews":[{"buffer":0,"byteLength":3720,"byteOffset":0,"target":34963},{"buffer":0,"byteLength":15144,"byteOffset":3720,"target":34962},{"buffer":0,"byteLength":15144,"byteOffset":18864,"target":34962},{"buffer":0,"byteLength":10096,"byteOffset":34008,"target":34962}],"buffers":[{"byteLength":44104,"uri":"SM_Land_01_C.bin"}],"images":[{"name":"Polygon_Camping_Texture_vol2.0","uri":"Polygon_Camping_Texture_vol2.0.jpg"}],"materials":[{"alphaMode":"OPAQUE","doubleSided":false,"extras":{"fromFBX":{"isTruePBR":false,"shadingModel":"Phong"}},"name":"Material","pbrMetallicRoughness":{"baseColorFactor":[1,1,1,1],"baseColorTexture":{"index":0,"texCoord":0},"metallicFactor":0.400000005960464,"roughnessFactor":0.272165536880493}}],"meshes":[{"name":"Land_01_C","primitives":[{"attributes":{"NORMAL":2,"POSITION":1,"TEXCOORD_0":3},"indices":0,"material":0,"mode":4}]}],"nodes":[{"mesh":0,"name":"Land_01_C","rotation":[0,0,0,1],"scale":[1,1,1],"translation":[150.398147583008,0.111492745578289,-20.2110958099365]}],"samplers":[{}],"scene":0,"scenes":[{"name":"Root Scene","nodes":[0]}],"textures":[{"name":"base_color_texture","sampler":0,"source":0}]}