{"accessors":[{"bufferView":0,"byteOffset":0,"componentType":5123,"count":204,"type":"SCALAR"},{"bufferView":1,"byteOffset":0,"componentType":5126,"count":204,"max":[1,0.249674901366234,0.5],"min":[-1,0.00232841982506216,-0.5],"type":"VEC3"},{"bufferView":2,"byteOffset":0,"componentType":5126,"count":204,"type":"VEC3"},{"bufferView":3,"byteOffset":0,"componentType":5126,"count":204,"type":"VEC2"}],"asset":{"generator":"FBX2glTF v0.13.1","version":"2.0"},"bufferViews":[{"buffer":0,"byteLength":408,"byteOffset":0,"target":34963},{"buffer":0,"byteLength":2448,"byteOffset":408,"target":34962},{"buffer":0,"byteLength":2448,"byteOffset":2856,"target":34962},{"buffer":0,"byteLength":1632,"byteOffset":5304,"target":34962}],"buffers":[{"byteLength":6936,"uri":"SM_moss_02.bin"}],"images":[{"name":"Polygon_Texture_vol2","uri":"Polygon_Texture_vol2.png"}],"materials":[{"alphaMode":"OPAQUE","doubleSided":false,"extras":{"fromFBX":{"isTruePBR":false,"shadingModel":"Phong"}},"name":"Main_material","pbrMetallicRoughness":{"baseColorFactor":[1,1,1,1],"baseColorTexture":{"index":0,"texCoord":0},"metallicFactor":0.400000005960464,"roughnessFactor":0.272165536880493}}],"meshes":[{"name":"moss_02","primitives":[{"attributes":{"NORMAL":2,"POSITION":1,"TEXCOORD_0":3},"indices":0,"material":0,"mode":4}]}],"nodes":[{"mesh":0,"name":"moss_02","rotation":[0,0,0,1],"scale":[1,1,1],"translation":[215.186660766602,0,10.9950428009033]}],"samplers":[{}],"scene":0,"scenes":[{"name":"Root Scene","nodes":[0]}],"textures":[{"name":"base_color_texture","sampler":0,"source":0}]}