{"accessors":[{"bufferView":0,"byteOffset":0,"componentType":5123,"count":168,"type":"SCALAR"},{"bufferView":1,"byteOffset":0,"componentType":5126,"count":164,"max":[4.00001859664917,0.382309228181839,0.650875091552734],"min":[-3.99998140335083,0,-3.34909224510193],"type":"VEC3"},{"bufferView":2,"byteOffset":0,"componentType":5126,"count":164,"type":"VEC3"},{"bufferView":3,"byteOffset":0,"componentType":5126,"count":164,"type":"VEC2"}],"asset":{"generator":"FBX2glTF v0.13.1","version":"2.0"},"bufferViews":[{"buffer":0,"byteLength":336,"byteOffset":0,"target":34963},{"buffer":0,"byteLength":1968,"byteOffset":336,"target":34962},{"buffer":0,"byteLength":1968,"byteOffset":2304,"target":34962},{"buffer":0,"byteLength":1312,"byteOffset":4272,"target":34962}],"buffers":[{"byteLength":5584,"uri":"SM_path_02.bin"}],"images":[{"name":"Polygon_Texture_vol2","uri":"Polygon_Texture_vol2.png"}],"materials":[{"alphaMode":"OPAQUE","doubleSided":false,"extras":{"fromFBX":{"isTruePBR":false,"shadingModel":"Phong"}},"name":"Main_material","pbrMetallicRoughness":{"baseColorFactor":[1,1,1,1],"baseColorTexture":{"index":0,"texCoord":0},"metallicFactor":0.400000005960464,"roughnessFactor":0.272165536880493}}],"meshes":[{"name":"path_02","primitives":[{"attributes":{"NORMAL":2,"POSITION":1,"TEXCOORD_0":3},"indices":0,"material":0,"mode":4}]}],"nodes":[{"mesh":0,"name":"path_02","rotation":[0,0,0,1],"scale":[1,1,1],"translation":[287.417144775391,-0.00403445959091,30.2755317687988]}],"samplers":[{}],"scene":0,"scenes":[{"name":"Root Scene","nodes":[0]}],"textures":[{"name":"base_color_texture","sampler":0,"source":0}]}