{"accessors":[{"bufferView":0,"byteOffset":0,"componentType":5123,"count":225,"type":"SCALAR"},{"bufferView":1,"byteOffset":0,"componentType":5126,"count":225,"max":[1.50162827968597,0.457665085792542,4.19422674179077],"min":[-1.51035761833191,0.0216027498245239,-4.02682304382324],"type":"VEC3"},{"bufferView":2,"byteOffset":0,"componentType":5126,"count":225,"type":"VEC3"},{"bufferView":3,"byteOffset":0,"componentType":5126,"count":225,"type":"VEC2"}],"asset":{"generator":"FBX2glTF v0.13.1","version":"2.0"},"bufferViews":[{"buffer":0,"byteLength":450,"byteOffset":0,"target":34963},{"buffer":0,"byteLength":2700,"byteOffset":452,"target":34962},{"buffer":0,"byteLength":2700,"byteOffset":3152,"target":34962},{"buffer":0,"byteLength":1800,"byteOffset":5852,"target":34962}],"buffers":[{"byteLength":7652,"uri":"SM_path_03.bin"}],"images":[{"name":"Polygon_Texture_vol2","uri":"Polygon_Texture_vol2.png"}],"materials":[{"alphaMode":"OPAQUE","doubleSided":false,"extras":{"fromFBX":{"isTruePBR":false,"shadingModel":"Phong"}},"name":"Main_material","pbrMetallicRoughness":{"baseColorFactor":[1,1,1,1],"baseColorTexture":{"index":0,"texCoord":0},"metallicFactor":0.400000005960464,"roughnessFactor":0.272165536880493}}],"meshes":[{"name":"path_03","primitives":[{"attributes":{"NORMAL":2,"POSITION":1,"TEXCOORD_0":3},"indices":0,"material":0,"mode":4}]}],"nodes":[{"mesh":0,"name":"path_03","rotation":[0,0,0,1],"scale":[2,0.881268918514252,2],"translation":[287.271667480469,-0.00403445959091,39.5717964172363]}],"samplers":[{}],"scene":0,"scenes":[{"name":"Root Scene","nodes":[0]}],"textures":[{"name":"base_color_texture","sampler":0,"source":0}]}