{"accessors":[{"bufferView":0,"byteOffset":0,"componentType":5123,"count":231,"type":"SCALAR"},{"bufferView":1,"byteOffset":0,"componentType":5126,"count":231,"max":[3.80853343009949,0.403999656438828,0.992364346981049],"min":[-4.19146585464478,-0.00000000046566,-1.00763559341431],"type":"VEC3"},{"bufferView":2,"byteOffset":0,"componentType":5126,"count":231,"type":"VEC3"},{"bufferView":3,"byteOffset":0,"componentType":5126,"count":231,"type":"VEC2"}],"asset":{"generator":"FBX2glTF v0.13.1","version":"2.0"},"bufferViews":[{"buffer":0,"byteLength":462,"byteOffset":0,"target":34963},{"buffer":0,"byteLength":2772,"byteOffset":464,"target":34962},{"buffer":0,"byteLength":2772,"byteOffset":3236,"target":34962},{"buffer":0,"byteLength":1848,"byteOffset":6008,"target":34962}],"buffers":[{"byteLength":7856,"uri":"SM_path_01.bin"}],"images":[{"name":"Polygon_Texture_vol2","uri":"Polygon_Texture_vol2.png"}],"materials":[{"alphaMode":"OPAQUE","doubleSided":false,"extras":{"fromFBX":{"isTruePBR":false,"shadingModel":"Phong"}},"name":"Main_material","pbrMetallicRoughness":{"baseColorFactor":[1,1,1,1],"baseColorTexture":{"index":0,"texCoord":0},"metallicFactor":0.400000005960464,"roughnessFactor":0.272165536880493}}],"meshes":[{"name":"path_01","primitives":[{"attributes":{"NORMAL":2,"POSITION":1,"TEXCOORD_0":3},"indices":0,"material":0,"mode":4}]}],"nodes":[{"mesh":0,"name":"path_01","rotation":[0,0,0,1],"scale":[1,1,1],"translation":[287.641784667969,0,25.4142475128174]}],"samplers":[{}],"scene":0,"scenes":[{"name":"Root Scene","nodes":[0]}],"textures":[{"name":"base_color_texture","sampler":0,"source":0}]}