{"accessors":[{"bufferView":0,"byteOffset":0,"componentType":5123,"count":228,"type":"SCALAR"},{"bufferView":1,"byteOffset":0,"componentType":5126,"count":226,"max":[0.349935919046402,0.165046170353889,0.749992370605469],"min":[-0.35006406903267,0.00000000186264514923096,-0.75000762939453],"type":"VEC3"},{"bufferView":2,"byteOffset":0,"componentType":5126,"count":226,"type":"VEC3"},{"bufferView":3,"byteOffset":0,"componentType":5126,"count":226,"type":"VEC2"}],"asset":{"generator":"FBX2glTF v0.13.1","version":"2.0"},"bufferViews":[{"buffer":0,"byteLength":456,"byteOffset":0,"target":34963},{"buffer":0,"byteLength":2712,"byteOffset":456,"target":34962},{"buffer":0,"byteLength":2712,"byteOffset":3168,"target":34962},{"buffer":0,"byteLength":1808,"byteOffset":5880,"target":34962}],"buffers":[{"byteLength":7688,"uri":"SM_path_04.bin"}],"images":[{"name":"Polygon_Texture_vol2","uri":"Polygon_Texture_vol2.png"}],"materials":[{"alphaMode":"OPAQUE","doubleSided":false,"extras":{"fromFBX":{"isTruePBR":false,"shadingModel":"Phong"}},"name":"Main_material","pbrMetallicRoughness":{"baseColorFactor":[1,1,1,1],"baseColorTexture":{"index":0,"texCoord":0},"metallicFactor":0.400000005960464,"roughnessFactor":0.272165536880493}}],"meshes":[{"name":"path_04","primitives":[{"attributes":{"NORMAL":2,"POSITION":1,"TEXCOORD_0":3},"indices":0,"material":0,"mode":4}]}],"nodes":[{"mesh":0,"name":"path_04","rotation":[0,0,0,1],"scale":[1,1,1],"translation":[292.71630859375,0.0120027083903551,32.2862167358398]}],"samplers":[{}],"scene":0,"scenes":[{"name":"Root Scene","nodes":[0]}],"textures":[{"name":"base_color_texture","sampler":0,"source":0}]}