{"accessors":[{"bufferView":0,"byteOffset":0,"componentType":5123,"count":2412,"type":"SCALAR"},{"bufferView":1,"byteOffset":0,"componentType":5126,"count":2404,"max":[7.99092102050781,4.11667156219482,16.8406028747559],"min":[-8.00907897949219,1.10037183761597,-15.1593952178955],"type":"VEC3"},{"bufferView":2,"byteOffset":0,"componentType":5126,"count":2404,"type":"VEC3"},{"bufferView":3,"byteOffset":0,"componentType":5126,"count":2404,"type":"VEC2"}],"asset":{"generator":"FBX2glTF v0.13.1","version":"2.0"},"bufferViews":[{"buffer":0,"byteLength":4824,"byteOffset":0,"target":34963},{"buffer":0,"byteLength":28848,"byteOffset":4824,"target":34962},{"buffer":0,"byteLength":28848,"byteOffset":33672,"target":34962},{"buffer":0,"byteLength":19232,"byteOffset":62520,"target":34962}],"buffers":[{"byteLength":81752,"uri":"SM_river_03.bin"}],"images":[{"name":"Polygon_Texture_vol2","uri":"Polygon_Texture_vol2.png"}],"materials":[{"alphaMode":"OPAQUE","doubleSided":false,"extras":{"fromFBX":{"isTruePBR":false,"shadingModel":"Phong"}},"name":"Main_material","pbrMetallicRoughness":{"baseColorFactor":[1,1,1,1],"baseColorTexture":{"index":0,"texCoord":0},"metallicFactor":0.400000005960464,"roughnessFactor":0.272165536880493}}],"meshes":[{"name":"river_03","primitives":[{"attributes":{"NORMAL":2,"POSITION":1,"TEXCOORD_0":3},"indices":0,"material":0,"mode":4}]}],"nodes":[{"mesh":0,"name":"river_03","rotation":[0,0,0,1],"scale":[1,1,1],"translation":[218.968933105469,0,38.5891036987305]}],"samplers":[{}],"scene":0,"scenes":[{"name":"Root Scene","nodes":[0]}],"textures":[{"name":"base_color_texture","sampler":0,"source":0}]}