{"accessors":[{"bufferView":0,"byteOffset":0,"componentType":5123,"count":672,"type":"SCALAR"},{"bufferView":1,"byteOffset":0,"componentType":5126,"count":672,"max":[8.00152778625488,4.16351175308228,7.99581527709961],"min":[-7.99847078323364,1.15468883514404,-8.00418472290039],"type":"VEC3"},{"bufferView":2,"byteOffset":0,"componentType":5126,"count":672,"type":"VEC3"},{"bufferView":3,"byteOffset":0,"componentType":5126,"count":672,"type":"VEC2"}],"asset":{"generator":"FBX2glTF v0.13.1","version":"2.0"},"bufferViews":[{"buffer":0,"byteLength":1344,"byteOffset":0,"target":34963},{"buffer":0,"byteLength":8064,"byteOffset":1344,"target":34962},{"buffer":0,"byteLength":8064,"byteOffset":9408,"target":34962},{"buffer":0,"byteLength":5376,"byteOffset":17472,"target":34962}],"buffers":[{"byteLength":22848,"uri":"SM_river_01.bin"}],"images":[{"name":"Polygon_Texture_vol2","uri":"Polygon_Texture_vol2.png"}],"materials":[{"alphaMode":"OPAQUE","doubleSided":false,"extras":{"fromFBX":{"isTruePBR":false,"shadingModel":"Phong"}},"name":"Main_material","pbrMetallicRoughness":{"baseColorFactor":[1,1,1,1],"baseColorTexture":{"index":0,"texCoord":0},"metallicFactor":0.400000005960464,"roughnessFactor":0.272165536880493}}],"meshes":[{"name":"river_01","primitives":[{"attributes":{"NORMAL":2,"POSITION":1,"TEXCOORD_0":3},"indices":0,"material":0,"mode":4}]}],"nodes":[{"mesh":0,"name":"river_01","rotation":[0,0,0,1],"scale":[1,1,1],"translation":[200.329620361328,0,47.433895111084]}],"samplers":[{}],"scene":0,"scenes":[{"name":"Root Scene","nodes":[0]}],"textures":[{"name":"base_color_texture","sampler":0,"source":0}]}