{"accessors":[{"bufferView":0,"byteOffset":0,"componentType":5123,"count":963,"type":"SCALAR"},{"bufferView":1,"byteOffset":0,"componentType":5126,"count":953,"max":[7.99827671051025,4.0294828414917,9.33577442169189],"min":[-8.00172328948975,1.11077833175659,-6.66422510147095],"type":"VEC3"},{"bufferView":2,"byteOffset":0,"componentType":5126,"count":953,"type":"VEC3"},{"bufferView":3,"byteOffset":0,"componentType":5126,"count":953,"type":"VEC2"}],"asset":{"generator":"FBX2glTF v0.13.1","version":"2.0"},"bufferViews":[{"buffer":0,"byteLength":1926,"byteOffset":0,"target":34963},{"buffer":0,"byteLength":11436,"byteOffset":1928,"target":34962},{"buffer":0,"byteLength":11436,"byteOffset":13364,"target":34962},{"buffer":0,"byteLength":7624,"byteOffset":24800,"target":34962}],"buffers":[{"byteLength":32424,"uri":"SM_river_04.bin"}],"images":[{"name":"Polygon_Texture_vol2","uri":"Polygon_Texture_vol2.png"}],"materials":[{"alphaMode":"OPAQUE","doubleSided":false,"extras":{"fromFBX":{"isTruePBR":false,"shadingModel":"Phong"}},"name":"Main_material","pbrMetallicRoughness":{"baseColorFactor":[1,1,1,1],"baseColorTexture":{"index":0,"texCoord":0},"metallicFactor":0.400000005960464,"roughnessFactor":0.272165536880493}}],"meshes":[{"name":"river_04","primitives":[{"attributes":{"NORMAL":2,"POSITION":1,"TEXCOORD_0":3},"indices":0,"material":0,"mode":4}]}],"nodes":[{"mesh":0,"name":"river_04","rotation":[0,0,0,1],"scale":[1,1,1],"translation":[200.332870483398,0,29.4000988006592]}],"samplers":[{}],"scene":0,"scenes":[{"name":"Root Scene","nodes":[0]}],"textures":[{"name":"base_color_texture","sampler":0,"source":0}]}