{"accessors":[{"bufferView":0,"byteOffset":0,"componentType":5123,"count":720,"type":"SCALAR"},{"bufferView":1,"byteOffset":0,"componentType":5126,"count":704,"max":[6.21854257583618,4.10596466064453,9.77146911621094],"min":[-9.78145790100098,1.12710571289062,-6.22853088378906],"type":"VEC3"},{"bufferView":2,"byteOffset":0,"componentType":5126,"count":704,"type":"VEC3"},{"bufferView":3,"byteOffset":0,"componentType":5126,"count":704,"type":"VEC2"}],"asset":{"generator":"FBX2glTF v0.13.1","version":"2.0"},"bufferViews":[{"buffer":0,"byteLength":1440,"byteOffset":0,"target":34963},{"buffer":0,"byteLength":8448,"byteOffset":1440,"target":34962},{"buffer":0,"byteLength":8448,"byteOffset":9888,"target":34962},{"buffer":0,"byteLength":5632,"byteOffset":18336,"target":34962}],"buffers":[{"byteLength":23968,"uri":"SM_river_02.bin"}],"images":[{"name":"Polygon_Texture_vol2","uri":"Polygon_Texture_vol2.png"}],"materials":[{"alphaMode":"OPAQUE","doubleSided":false,"extras":{"fromFBX":{"isTruePBR":false,"shadingModel":"Phong"}},"name":"Main_material","pbrMetallicRoughness":{"baseColorFactor":[1,1,1,1],"baseColorTexture":{"index":0,"texCoord":0},"metallicFactor":0.400000005960464,"roughnessFactor":0.272165536880493}}],"meshes":[{"name":"river_02","primitives":[{"attributes":{"NORMAL":2,"POSITION":1,"TEXCOORD_0":3},"indices":0,"material":0,"mode":4}]}],"nodes":[{"mesh":0,"name":"river_02","rotation":[0,0,0,1],"scale":[1,1,1],"translation":[202.112609863281,0,62.6374397277832]}],"samplers":[{}],"scene":0,"scenes":[{"name":"Root Scene","nodes":[0]}],"textures":[{"name":"base_color_texture","sampler":0,"source":0}]}