{"accessors":[{"bufferView":0,"byteOffset":0,"componentType":5123,"count":747,"type":"SCALAR"},{"bufferView":1,"byteOffset":0,"componentType":5126,"count":447,"max":[4.61762428283691,6,4.09413814544678],"min":[-5.38237524032593,0,-3.9058620929718],"type":"VEC3"},{"bufferView":2,"byteOffset":0,"componentType":5126,"count":447,"type":"VEC3"},{"bufferView":3,"byteOffset":0,"componentType":5126,"count":447,"type":"VEC2"}],"asset":{"generator":"FBX2glTF v0.13.1","version":"2.0"},"bufferViews":[{"buffer":0,"byteLength":1494,"byteOffset":0,"target":34963},{"buffer":0,"byteLength":5364,"byteOffset":1496,"target":34962},{"buffer":0,"byteLength":5364,"byteOffset":6860,"target":34962},{"buffer":0,"byteLength":3576,"byteOffset":12224,"target":34962}],"buffers":[{"byteLength":15800,"uri":"SM_rock_02.bin"}],"images":[{"name":"Polygon_Texture_vol2","uri":"Polygon_Texture_vol2.png"}],"materials":[{"alphaMode":"OPAQUE","doubleSided":false,"extras":{"fromFBX":{"isTruePBR":false,"shadingModel":"Phong"}},"name":"Main_material","pbrMetallicRoughness":{"baseColorFactor":[1,1,1,1],"baseColorTexture":{"index":0,"texCoord":0},"metallicFactor":0.400000005960464,"roughnessFactor":0.272165536880493}}],"meshes":[{"name":"rock_02","primitives":[{"attributes":{"NORMAL":2,"POSITION":1,"TEXCOORD_0":3},"indices":0,"material":0,"mode":4}]}],"nodes":[{"mesh":0,"name":"rock_02","rotation":[0,0,0,1],"scale":[1,1,1],"translation":[234.447982788086,0.00569343566894531,16.5072746276855]}],"samplers":[{}],"scene":0,"scenes":[{"name":"Root Scene","nodes":[0]}],"textures":[{"name":"base_color_texture","sampler":0,"source":0}]}