{"accessors":[{"bufferView":0,"byteOffset":0,"componentType":5123,"count":648,"type":"SCALAR"},{"bufferView":1,"byteOffset":0,"componentType":5126,"count":398,"max":[3.49992203712463,6.38489055633545,2.40500211715698],"min":[-3.29308032989502,0,-3.56854724884033],"type":"VEC3"},{"bufferView":2,"byteOffset":0,"componentType":5126,"count":398,"type":"VEC3"},{"bufferView":3,"byteOffset":0,"componentType":5126,"count":398,"type":"VEC2"}],"asset":{"generator":"FBX2glTF v0.13.1","version":"2.0"},"bufferViews":[{"buffer":0,"byteLength":1296,"byteOffset":0,"target":34963},{"buffer":0,"byteLength":4776,"byteOffset":1296,"target":34962},{"buffer":0,"byteLength":4776,"byteOffset":6072,"target":34962},{"buffer":0,"byteLength":3184,"byteOffset":10848,"target":34962}],"buffers":[{"byteLength":14032,"uri":"SM_rock_03.bin"}],"images":[{"name":"Polygon_Texture_vol2","uri":"Polygon_Texture_vol2.png"}],"materials":[{"alphaMode":"OPAQUE","doubleSided":false,"extras":{"fromFBX":{"isTruePBR":false,"shadingModel":"Phong"}},"name":"Main_material","pbrMetallicRoughness":{"baseColorFactor":[1,1,1,1],"baseColorTexture":{"index":0,"texCoord":0},"metallicFactor":0.400000005960464,"roughnessFactor":0.272165536880493}}],"meshes":[{"name":"rock_03","primitives":[{"attributes":{"NORMAL":2,"POSITION":1,"TEXCOORD_0":3},"indices":0,"material":0,"mode":4}]}],"nodes":[{"mesh":0,"name":"rock_03","rotation":[0,0,0,1],"scale":[1,1,1],"translation":[243.283645629883,0,16.647741317749]}],"samplers":[{}],"scene":0,"scenes":[{"name":"Root Scene","nodes":[0]}],"textures":[{"name":"base_color_texture","sampler":0,"source":0}]}