{"accessors":[{"bufferView":0,"byteOffset":0,"componentType":5123,"count":1740,"type":"SCALAR"},{"bufferView":1,"byteOffset":0,"componentType":5126,"count":1692,"max":[1.02341508865356,2.77455997467041,0.301398485898972],"min":[-0.3042722940445,-0.01006565894932,-0.30032566189766],"type":"VEC3"},{"bufferView":2,"byteOffset":0,"componentType":5126,"count":1692,"type":"VEC3"},{"bufferView":3,"byteOffset":0,"componentType":5126,"count":1692,"type":"VEC2"}],"asset":{"generator":"FBX2glTF v0.13.1","version":"2.0"},"bufferViews":[{"buffer":0,"byteLength":3480,"byteOffset":0,"target":34963},{"buffer":0,"byteLength":20304,"byteOffset":3480,"target":34962},{"buffer":0,"byteLength":20304,"byteOffset":23784,"target":34962},{"buffer":0,"byteLength":13536,"byteOffset":44088,"target":34962}],"buffers":[{"byteLength":57624,"uri":"SM_small_tree_03.bin"}],"images":[{"name":"Polygon_Texture_vol2","uri":"Polygon_Texture_vol2.png"}],"materials":[{"alphaMode":"OPAQUE","doubleSided":false,"extras":{"fromFBX":{"isTruePBR":false,"shadingModel":"Phong"}},"name":"Main_material","pbrMetallicRoughness":{"baseColorFactor":[1,1,1,1],"baseColorTexture":{"index":0,"texCoord":0},"metallicFactor":0.400000005960464,"roughnessFactor":0.272165536880493}}],"meshes":[{"name":"small_tree_03","primitives":[{"attributes":{"NORMAL":2,"POSITION":1,"TEXCOORD_0":3},"indices":0,"material":0,"mode":4}]}],"nodes":[{"mesh":0,"name":"small_tree_03","rotation":[0,0,0,1],"scale":[1,1,1],"translation":[185.778274536133,0,5.61437368392944]}],"samplers":[{}],"scene":0,"scenes":[{"name":"Root Scene","nodes":[0]}],"textures":[{"name":"base_color_texture","sampler":0,"source":0}]}