{"accessors":[{"bufferView":0,"byteOffset":0,"componentType":5123,"count":312,"type":"SCALAR"},{"bufferView":1,"byteOffset":0,"componentType":5126,"count":208,"max":[1.98477232456207,1.40816962718964,2.0292854309082],"min":[-2.01522755622864,0,-1.97071468830109],"type":"VEC3"},{"bufferView":2,"byteOffset":0,"componentType":5126,"count":208,"type":"VEC3"},{"bufferView":3,"byteOffset":0,"componentType":5126,"count":208,"type":"VEC2"}],"asset":{"generator":"FBX2glTF v0.13.1","version":"2.0"},"bufferViews":[{"buffer":0,"byteLength":624,"byteOffset":0,"target":34963},{"buffer":0,"byteLength":2496,"byteOffset":624,"target":34962},{"buffer":0,"byteLength":2496,"byteOffset":3120,"target":34962},{"buffer":0,"byteLength":1664,"byteOffset":5616,"target":34962}],"buffers":[{"byteLength":7280,"uri":"SM_stone_03.bin"}],"images":[{"name":"Polygon_Texture_vol2","uri":"Polygon_Texture_vol2.png"}],"materials":[{"alphaMode":"OPAQUE","doubleSided":false,"extras":{"fromFBX":{"isTruePBR":false,"shadingModel":"Phong"}},"name":"Main_material","pbrMetallicRoughness":{"baseColorFactor":[1,1,1,1],"baseColorTexture":{"index":0,"texCoord":0},"metallicFactor":0.400000005960464,"roughnessFactor":0.272165536880493}}],"meshes":[{"name":"stone_03","primitives":[{"attributes":{"NORMAL":2,"POSITION":1,"TEXCOORD_0":3},"indices":0,"material":0,"mode":4}]}],"nodes":[{"mesh":0,"name":"stone_03","rotation":[0,0,0,1],"scale":[1,1,1],"translation":[257.917541503906,0,16.1125392913818]}],"samplers":[{}],"scene":0,"scenes":[{"name":"Root Scene","nodes":[0]}],"textures":[{"name":"base_color_texture","sampler":0,"source":0}]}