{"accessors":[{"bufferView":0,"byteOffset":0,"componentType":5123,"count":306,"type":"SCALAR"},{"bufferView":1,"byteOffset":0,"componentType":5126,"count":208,"max":[0.427002310752869,2.19790101051331,0.427002310752869],"min":[-1.61566340923309,0,-1.47883462905884],"type":"VEC3"},{"bufferView":2,"byteOffset":0,"componentType":5126,"count":208,"type":"VEC3"},{"bufferView":3,"byteOffset":0,"componentType":5126,"count":208,"type":"VEC2"}],"asset":{"generator":"FBX2glTF v0.13.1","version":"2.0"},"bufferViews":[{"buffer":0,"byteLength":612,"byteOffset":0,"target":34963},{"buffer":0,"byteLength":2496,"byteOffset":612,"target":34962},{"buffer":0,"byteLength":2496,"byteOffset":3108,"target":34962},{"buffer":0,"byteLength":1664,"byteOffset":5604,"target":34962}],"buffers":[{"byteLength":7268,"uri":"SM_stone_01.bin"}],"images":[{"name":"Polygon_Texture_vol2","uri":"Polygon_Texture_vol2.png"}],"materials":[{"alphaMode":"OPAQUE","doubleSided":false,"extras":{"fromFBX":{"isTruePBR":false,"shadingModel":"Phong"}},"name":"Main_material","pbrMetallicRoughness":{"baseColorFactor":[1,1,1,1],"baseColorTexture":{"index":0,"texCoord":0},"metallicFactor":0.400000005960464,"roughnessFactor":0.272165536880493}}],"meshes":[{"name":"stone_01","primitives":[{"attributes":{"NORMAL":2,"POSITION":1,"TEXCOORD_0":3},"indices":0,"material":0,"mode":4}]}],"nodes":[{"mesh":0,"name":"stone_01","rotation":[0,0,0,1],"scale":[1,1,1],"translation":[248.855010986328,0,16.6475353240967]}],"samplers":[{}],"scene":0,"scenes":[{"name":"Root Scene","nodes":[0]}],"textures":[{"name":"base_color_texture","sampler":0,"source":0}]}