{"accessors":[{"bufferView":0,"byteOffset":0,"componentType":5123,"count":1188,"type":"SCALAR"},{"bufferView":1,"byteOffset":0,"componentType":5126,"count":860,"max":[0.567989349365234,3.21129202842712,0.718919515609741],"min":[-0.93430614471436,-0.00000000034972,-0.72602117061615],"type":"VEC3"},{"bufferView":2,"byteOffset":0,"componentType":5126,"count":860,"type":"VEC3"},{"bufferView":3,"byteOffset":0,"componentType":5126,"count":860,"type":"VEC2"}],"asset":{"generator":"FBX2glTF v0.13.1","version":"2.0"},"bufferViews":[{"buffer":0,"byteLength":2376,"byteOffset":0,"target":34963},{"buffer":0,"byteLength":10320,"byteOffset":2376,"target":34962},{"buffer":0,"byteLength":10320,"byteOffset":12696,"target":34962},{"buffer":0,"byteLength":6880,"byteOffset":23016,"target":34962}],"buffers":[{"byteLength":29896,"uri":"SM_small_tree_05.bin"}],"images":[{"name":"Polygon_Texture_vol2","uri":"Polygon_Texture_vol2.png"}],"materials":[{"alphaMode":"OPAQUE","doubleSided":false,"extras":{"fromFBX":{"isTruePBR":false,"shadingModel":"Phong"}},"name":"Main_material","pbrMetallicRoughness":{"baseColorFactor":[1,1,1,1],"baseColorTexture":{"index":0,"texCoord":0},"metallicFactor":0.400000005960464,"roughnessFactor":0.272165536880493}}],"meshes":[{"name":"small_tree_05","primitives":[{"attributes":{"NORMAL":2,"POSITION":1,"TEXCOORD_0":3},"indices":0,"material":0,"mode":4}]}],"nodes":[{"mesh":0,"name":"small_tree_05","rotation":[0,0,0,1],"scale":[1,1,1],"translation":[188.619522094727,-0.00375735829584,5.66221714019775]}],"samplers":[{}],"scene":0,"scenes":[{"name":"Root Scene","nodes":[0]}],"textures":[{"name":"base_color_texture","sampler":0,"source":0}]}