{"accessors":[{"bufferView":0,"byteOffset":0,"componentType":5123,"count":1080,"type":"SCALAR"},{"bufferView":1,"byteOffset":0,"componentType":5126,"count":712,"max":[0.232324078679085,2.81429958343506,0.23233599960804],"min":[-0.23234765231609,0,-0.23233599960804],"type":"VEC3"},{"bufferView":2,"byteOffset":0,"componentType":5126,"count":712,"type":"VEC3"},{"bufferView":3,"byteOffset":0,"componentType":5126,"count":712,"type":"VEC2"}],"asset":{"generator":"FBX2glTF v0.13.1","version":"2.0"},"bufferViews":[{"buffer":0,"byteLength":2160,"byteOffset":0,"target":34963},{"buffer":0,"byteLength":8544,"byteOffset":2160,"target":34962},{"buffer":0,"byteLength":8544,"byteOffset":10704,"target":34962},{"buffer":0,"byteLength":5696,"byteOffset":19248,"target":34962}],"buffers":[{"byteLength":24944,"uri":"SM_small_tree_02.bin"}],"images":[{"name":"Polygon_Texture_vol2","uri":"Polygon_Texture_vol2.png"}],"materials":[{"alphaMode":"OPAQUE","doubleSided":false,"extras":{"fromFBX":{"isTruePBR":false,"shadingModel":"Phong"}},"name":"Material","pbrMetallicRoughness":{"baseColorFactor":[1,1,1,1],"baseColorTexture":{"index":0,"texCoord":0},"metallicFactor":0.400000005960464,"roughnessFactor":0.272165536880493}}],"meshes":[{"name":"small_tree_02","primitives":[{"attributes":{"NORMAL":2,"POSITION":1,"TEXCOORD_0":3},"indices":0,"material":0,"mode":4}]}],"nodes":[{"mesh":0,"name":"small_tree_02","rotation":[0,0,0,1],"scale":[1,1,1],"translation":[184.736846923828,0,5.61437368392944]}],"samplers":[{}],"scene":0,"scenes":[{"name":"Root Scene","nodes":[0]}],"textures":[{"name":"base_color_texture","sampler":0,"source":0}]}