{"accessors":[{"bufferView":0,"byteOffset":0,"componentType":5123,"count":600,"type":"SCALAR"},{"bufferView":1,"byteOffset":0,"componentType":5126,"count":588,"max":[0.284037292003632,2.80278277397156,0.283656775951385],"min":[-0.26491594314575,0,-0.27810591459274],"type":"VEC3"},{"bufferView":2,"byteOffset":0,"componentType":5126,"count":588,"type":"VEC3"},{"bufferView":3,"byteOffset":0,"componentType":5126,"count":588,"type":"VEC2"}],"asset":{"generator":"FBX2glTF v0.13.1","version":"2.0"},"bufferViews":[{"buffer":0,"byteLength":1200,"byteOffset":0,"target":34963},{"buffer":0,"byteLength":7056,"byteOffset":1200,"target":34962},{"buffer":0,"byteLength":7056,"byteOffset":8256,"target":34962},{"buffer":0,"byteLength":4704,"byteOffset":15312,"target":34962}],"buffers":[{"byteLength":20016,"uri":"SM_small_tree_01.bin"}],"images":[{"name":"Polygon_Texture_vol2","uri":"Polygon_Texture_vol2.png"}],"materials":[{"alphaMode":"OPAQUE","doubleSided":false,"extras":{"fromFBX":{"isTruePBR":false,"shadingModel":"Phong"}},"name":"Main_material","pbrMetallicRoughness":{"baseColorFactor":[1,1,1,1],"baseColorTexture":{"index":0,"texCoord":0},"metallicFactor":0.400000005960464,"roughnessFactor":0.272165536880493}}],"meshes":[{"name":"small_tree_01","primitives":[{"attributes":{"NORMAL":2,"POSITION":1,"TEXCOORD_0":3},"indices":0,"material":0,"mode":4}]}],"nodes":[{"mesh":0,"name":"small_tree_01","rotation":[0,0,0,1],"scale":[1,1,1],"translation":[183.687393188477,0,5.61437368392944]}],"samplers":[{}],"scene":0,"scenes":[{"name":"Root Scene","nodes":[0]}],"textures":[{"name":"base_color_texture","sampler":0,"source":0}]}