{"accessors":[{"bufferView":0,"byteOffset":0,"componentType":5123,"count":756,"type":"SCALAR"},{"bufferView":1,"byteOffset":0,"componentType":5126,"count":744,"max":[0.43265226483345,2.77394700050354,0.481011420488358],"min":[-0.41937100887299,0,-0.40744569897652],"type":"VEC3"},{"bufferView":2,"byteOffset":0,"componentType":5126,"count":744,"type":"VEC3"},{"bufferView":3,"byteOffset":0,"componentType":5126,"count":744,"type":"VEC2"}],"asset":{"generator":"FBX2glTF v0.13.1","version":"2.0"},"bufferViews":[{"buffer":0,"byteLength":1512,"byteOffset":0,"target":34963},{"buffer":0,"byteLength":8928,"byteOffset":1512,"target":34962},{"buffer":0,"byteLength":8928,"byteOffset":10440,"target":34962},{"buffer":0,"byteLength":5952,"byteOffset":19368,"target":34962}],"buffers":[{"byteLength":25320,"uri":"SM_small_tree_04.bin"}],"images":[{"name":"Polygon_Texture_vol2","uri":"Polygon_Texture_vol2.png"}],"materials":[{"alphaMode":"OPAQUE","doubleSided":false,"extras":{"fromFBX":{"isTruePBR":false,"shadingModel":"Phong"}},"name":"Main_material","pbrMetallicRoughness":{"baseColorFactor":[1,1,1,1],"baseColorTexture":{"index":0,"texCoord":0},"metallicFactor":0.400000005960464,"roughnessFactor":0.272165536880493}}],"meshes":[{"name":"small_tree_04","primitives":[{"attributes":{"NORMAL":2,"POSITION":1,"TEXCOORD_0":3},"indices":0,"material":0,"mode":4}]}],"nodes":[{"mesh":0,"name":"small_tree_04","rotation":[0,0,0,1],"scale":[1,1,1],"translation":[187.322082519531,-0.00533015374094,5.66221714019775]}],"samplers":[{}],"scene":0,"scenes":[{"name":"Root Scene","nodes":[0]}],"textures":[{"name":"base_color_texture","sampler":0,"source":0}]}