{"accessors":[{"bufferView":0,"byteOffset":0,"componentType":5123,"count":594,"type":"SCALAR"},{"bufferView":1,"byteOffset":0,"componentType":5126,"count":396,"max":[0.438593059778214,2.64425492286682,0.28989976644516],"min":[-0.29287067055702,0,-0.29069295525551],"type":"VEC3"},{"bufferView":2,"byteOffset":0,"componentType":5126,"count":396,"type":"VEC3"},{"bufferView":3,"byteOffset":0,"componentType":5126,"count":396,"type":"VEC2"}],"asset":{"generator":"FBX2glTF v0.13.1","version":"2.0"},"bufferViews":[{"buffer":0,"byteLength":1188,"byteOffset":0,"target":34963},{"buffer":0,"byteLength":4752,"byteOffset":1188,"target":34962},{"buffer":0,"byteLength":4752,"byteOffset":5940,"target":34962},{"buffer":0,"byteLength":3168,"byteOffset":10692,"target":34962}],"buffers":[{"byteLength":13860,"uri":"SM_small_tee_06.bin"}],"images":[{"name":"Polygon_Texture_vol2","uri":"Polygon_Texture_vol2.png"}],"materials":[{"alphaMode":"OPAQUE","doubleSided":false,"extras":{"fromFBX":{"isTruePBR":false,"shadingModel":"Phong"}},"name":"Main_material","pbrMetallicRoughness":{"baseColorFactor":[1,1,1,1],"baseColorTexture":{"index":0,"texCoord":0},"metallicFactor":0.400000005960464,"roughnessFactor":0.272165536880493}}],"meshes":[{"name":"small_tee_06","primitives":[{"attributes":{"NORMAL":2,"POSITION":1,"TEXCOORD_0":3},"indices":0,"material":0,"mode":4}]}],"nodes":[{"mesh":0,"name":"small_tee_06","rotation":[0,0,0,1],"scale":[1,1,1],"translation":[190.384979248047,-0.00375747680664,5.7807297706604]}],"samplers":[{}],"scene":0,"scenes":[{"name":"Root Scene","nodes":[0]}],"textures":[{"name":"base_color_texture","sampler":0,"source":0}]}