{"accessors":[{"bufferView":0,"byteOffset":0,"componentType":5123,"count":147,"type":"SCALAR"},{"bufferView":1,"byteOffset":0,"componentType":5126,"count":103,"max":[0.946055889129639,1.34925973415375,0.996632277965546],"min":[-1.03264820575714,0,-1.19365096092224],"type":"VEC3"},{"bufferView":2,"byteOffset":0,"componentType":5126,"count":103,"type":"VEC3"},{"bufferView":3,"byteOffset":0,"componentType":5126,"count":103,"type":"VEC2"}],"asset":{"generator":"FBX2glTF v0.13.1","version":"2.0"},"bufferViews":[{"buffer":0,"byteLength":294,"byteOffset":0,"target":34963},{"buffer":0,"byteLength":1236,"byteOffset":296,"target":34962},{"buffer":0,"byteLength":1236,"byteOffset":1532,"target":34962},{"buffer":0,"byteLength":824,"byteOffset":2768,"target":34962}],"buffers":[{"byteLength":3592,"uri":"SM_stone_04.bin"}],"images":[{"name":"Polygon_Texture_vol2","uri":"Polygon_Texture_vol2.png"}],"materials":[{"alphaMode":"OPAQUE","doubleSided":false,"extras":{"fromFBX":{"isTruePBR":false,"shadingModel":"Phong"}},"name":"Main_material","pbrMetallicRoughness":{"baseColorFactor":[1,1,1,1],"baseColorTexture":{"index":0,"texCoord":0},"metallicFactor":0.400000005960464,"roughnessFactor":0.272165536880493}}],"meshes":[{"name":"stone_04","primitives":[{"attributes":{"NORMAL":2,"POSITION":1,"TEXCOORD_0":3},"indices":0,"material":0,"mode":4}]}],"nodes":[{"mesh":0,"name":"stone_04","rotation":[0,0,0,1],"scale":[1,1,1],"translation":[261.912445068359,0,16.0225715637207]}],"samplers":[{}],"scene":0,"scenes":[{"name":"Root Scene","nodes":[0]}],"textures":[{"name":"base_color_texture","sampler":0,"source":0}]}