{"accessors":[{"bufferView":0,"byteOffset":0,"componentType":5123,"count":4188,"type":"SCALAR"},{"bufferView":1,"byteOffset":0,"componentType":5126,"count":2792,"max":[0.186344042420387,0.885237276554108,0.14377036690712],"min":[-0.17141862213612,-0.00003370033664,-0.17603331804275],"type":"VEC3"},{"bufferView":2,"byteOffset":0,"componentType":5126,"count":2792,"type":"VEC3"},{"bufferView":3,"byteOffset":0,"componentType":5126,"count":2792,"type":"VEC2"}],"asset":{"generator":"FBX2glTF v0.13.1","version":"2.0"},"bufferViews":[{"buffer":0,"byteLength":8376,"byteOffset":0,"target":34963},{"buffer":0,"byteLength":33504,"byteOffset":8376,"target":34962},{"buffer":0,"byteLength":33504,"byteOffset":41880,"target":34962},{"buffer":0,"byteLength":22336,"byteOffset":75384,"target":34962}],"buffers":[{"byteLength":97720,"uri":"SM_tall_plant_01.bin"}],"images":[{"name":"Polygon_Texture_vol2","uri":"Polygon_Texture_vol2.png"}],"materials":[{"alphaMode":"OPAQUE","doubleSided":false,"extras":{"fromFBX":{"isTruePBR":false,"shadingModel":"Phong"}},"name":"Main_material","pbrMetallicRoughness":{"baseColorFactor":[1,1,1,1],"baseColorTexture":{"index":0,"texCoord":0},"metallicFactor":0.400000005960464,"roughnessFactor":0.272165536880493}}],"meshes":[{"name":"tall_plant_01","primitives":[{"attributes":{"NORMAL":2,"POSITION":1,"TEXCOORD_0":3},"indices":0,"material":0,"mode":4}]}],"nodes":[{"mesh":0,"name":"tall_plant_01","rotation":[0,0,0,1],"scale":[1,1,1],"translation":[203.238235473633,0,11.0028858184814]}],"samplers":[{}],"scene":0,"scenes":[{"name":"Root Scene","nodes":[0]}],"textures":[{"name":"base_color_texture","sampler":0,"source":0}]}