{"accessors":[{"bufferView":0,"byteOffset":0,"componentType":5123,"count":2346,"type":"SCALAR"},{"bufferView":1,"byteOffset":0,"componentType":5126,"count":1598,"max":[0.446237057447433,0.467313230037689,0.432673662900925],"min":[-0.40842697024345,-0.00046968460083,-0.4399965107441],"type":"VEC3"},{"bufferView":2,"byteOffset":0,"componentType":5126,"count":1598,"type":"VEC3"},{"bufferView":3,"byteOffset":0,"componentType":5126,"count":1598,"type":"VEC2"}],"asset":{"generator":"FBX2glTF v0.13.1","version":"2.0"},"bufferViews":[{"buffer":0,"byteLength":4692,"byteOffset":0,"target":34963},{"buffer":0,"byteLength":19176,"byteOffset":4692,"target":34962},{"buffer":0,"byteLength":19176,"byteOffset":23868,"target":34962},{"buffer":0,"byteLength":12784,"byteOffset":43044,"target":34962}],"buffers":[{"byteLength":55828,"uri":"SM_tall_plant_02.bin"}],"images":[{"name":"Polygon_Texture_vol2","uri":"Polygon_Texture_vol2.png"}],"materials":[{"alphaMode":"OPAQUE","doubleSided":false,"extras":{"fromFBX":{"isTruePBR":false,"shadingModel":"Phong"}},"name":"Main_material","pbrMetallicRoughness":{"baseColorFactor":[1,1,1,1],"baseColorTexture":{"index":0,"texCoord":0},"metallicFactor":0.400000005960464,"roughnessFactor":0.272165536880493}}],"meshes":[{"name":"tall_plant_02","primitives":[{"attributes":{"NORMAL":2,"POSITION":1,"TEXCOORD_0":3},"indices":0,"material":0,"mode":4}]}],"nodes":[{"mesh":0,"name":"tall_plant_02","rotation":[0,0,0,1],"scale":[1,1,1],"translation":[203.811050415039,0,10.9991626739502]}],"samplers":[{}],"scene":0,"scenes":[{"name":"Root Scene","nodes":[0]}],"textures":[{"name":"base_color_texture","sampler":0,"source":0}]}