{"accessors":[{"bufferView":0,"byteOffset":0,"componentType":5123,"count":1452,"type":"SCALAR"},{"bufferView":1,"byteOffset":0,"componentType":5126,"count":976,"max":[0.223772466182709,1.03909063339233,0.170563325285912],"min":[-0.22700898349285,0,-0.22700707614422],"type":"VEC3"},{"bufferView":2,"byteOffset":0,"componentType":5126,"count":976,"type":"VEC3"},{"bufferView":3,"byteOffset":0,"componentType":5126,"count":976,"type":"VEC2"}],"asset":{"generator":"FBX2glTF v0.13.1","version":"2.0"},"bufferViews":[{"buffer":0,"byteLength":2904,"byteOffset":0,"target":34963},{"buffer":0,"byteLength":11712,"byteOffset":2904,"target":34962},{"buffer":0,"byteLength":11712,"byteOffset":14616,"target":34962},{"buffer":0,"byteLength":7808,"byteOffset":26328,"target":34962}],"buffers":[{"byteLength":34136,"uri":"SM_tall_plant_04.bin"}],"images":[{"name":"Polygon_Texture_vol2","uri":"Polygon_Texture_vol2.png"}],"materials":[{"alphaMode":"OPAQUE","doubleSided":false,"extras":{"fromFBX":{"isTruePBR":false,"shadingModel":"Phong"}},"name":"Main_material","pbrMetallicRoughness":{"baseColorFactor":[1,1,1,1],"baseColorTexture":{"index":0,"texCoord":0},"metallicFactor":0.400000005960464,"roughnessFactor":0.272165536880493}}],"meshes":[{"name":"tall_plant_04","primitives":[{"attributes":{"NORMAL":2,"POSITION":1,"TEXCOORD_0":3},"indices":0,"material":0,"mode":4}]}],"nodes":[{"mesh":0,"name":"tall_plant_04","rotation":[0,0,0,1],"scale":[1,1,1],"translation":[205.80046081543,0,10.9995183944702]}],"samplers":[{}],"scene":0,"scenes":[{"name":"Root Scene","nodes":[0]}],"textures":[{"name":"base_color_texture","sampler":0,"source":0}]}