{"accessors":[{"bufferView":0,"byteOffset":0,"componentType":5123,"count":2280,"type":"SCALAR"},{"bufferView":1,"byteOffset":0,"componentType":5126,"count":1390,"max":[0.539838850498199,0.301717013120651,0.471293777227402],"min":[-0.46941035985947,0,-0.4693897664547],"type":"VEC3"},{"bufferView":2,"byteOffset":0,"componentType":5126,"count":1390,"type":"VEC3"},{"bufferView":3,"byteOffset":0,"componentType":5126,"count":1390,"type":"VEC2"}],"asset":{"generator":"FBX2glTF v0.13.1","version":"2.0"},"bufferViews":[{"buffer":0,"byteLength":4560,"byteOffset":0,"target":34963},{"buffer":0,"byteLength":16680,"byteOffset":4560,"target":34962},{"buffer":0,"byteLength":16680,"byteOffset":21240,"target":34962},{"buffer":0,"byteLength":11120,"byteOffset":37920,"target":34962}],"buffers":[{"byteLength":49040,"uri":"SM_tall_plant_03.bin"}],"images":[{"name":"Polygon_Texture_vol2","uri":"Polygon_Texture_vol2.png"}],"materials":[{"alphaMode":"OPAQUE","doubleSided":false,"extras":{"fromFBX":{"isTruePBR":false,"shadingModel":"Phong"}},"name":"Main_material","pbrMetallicRoughness":{"baseColorFactor":[1,1,1,1],"baseColorTexture":{"index":0,"texCoord":0},"metallicFactor":0.400000005960464,"roughnessFactor":0.272165536880493}}],"meshes":[{"name":"tall_plant_03","primitives":[{"attributes":{"NORMAL":2,"POSITION":1,"TEXCOORD_0":3},"indices":0,"material":0,"mode":4}]}],"nodes":[{"mesh":0,"name":"tall_plant_03","rotation":[0,0,0,1],"scale":[1,1,1],"translation":[204.782119750977,0.00371172744780779,10.998405456543]}],"samplers":[{}],"scene":0,"scenes":[{"name":"Root Scene","nodes":[0]}],"textures":[{"name":"base_color_texture","sampler":0,"source":0}]}