{"accessors":[{"bufferView":0,"byteOffset":0,"componentType":5123,"count":696,"type":"SCALAR"},{"bufferView":1,"byteOffset":0,"componentType":5126,"count":444,"max":[0.1622693836689,0.0514671541750431,0.162269353866577],"min":[-0.16226935386658,0.0105195408686996,-0.16226935386658],"type":"VEC3"},{"bufferView":2,"byteOffset":0,"componentType":5126,"count":444,"type":"VEC3"},{"bufferView":3,"byteOffset":0,"componentType":5126,"count":444,"type":"VEC2"}],"asset":{"generator":"FBX2glTF v0.13.1","version":"2.0"},"bufferViews":[{"buffer":0,"byteLength":1392,"byteOffset":0,"target":34963},{"buffer":0,"byteLength":5328,"byteOffset":1392,"target":34962},{"buffer":0,"byteLength":5328,"byteOffset":6720,"target":34962},{"buffer":0,"byteLength":3552,"byteOffset":12048,"target":34962}],"buffers":[{"byteLength":15600,"uri":"SM_water_lily.bin"}],"images":[{"name":"Polygon_Texture_vol2","uri":"Polygon_Texture_vol2.png"}],"materials":[{"alphaMode":"OPAQUE","doubleSided":false,"extras":{"fromFBX":{"isTruePBR":false,"shadingModel":"Phong"}},"name":"Main_material","pbrMetallicRoughness":{"baseColorFactor":[1,1,1,1],"baseColorTexture":{"index":0,"texCoord":0},"metallicFactor":0.400000005960464,"roughnessFactor":0.272165536880493}}],"meshes":[{"name":"water_lily","primitives":[{"attributes":{"NORMAL":2,"POSITION":1,"TEXCOORD_0":3},"indices":0,"material":0,"mode":4}]}],"nodes":[{"mesh":0,"name":"water_lily","rotation":[0,0,0,1],"scale":[1,1,1],"translation":[201.990539550781,0,11.0813083648682]}],"samplers":[{}],"scene":0,"scenes":[{"name":"Root Scene","nodes":[0]}],"textures":[{"name":"base_color_texture","sampler":0,"source":0}]}