{"accessors":[{"bufferView":0,"byteOffset":0,"componentType":5123,"count":2268,"type":"SCALAR"},{"bufferView":1,"byteOffset":0,"componentType":5126,"count":1480,"max":[2.82030415534973,1.91834330558777,4.00000095367432],"min":[-2.82030415534973,-0.23708263039589,-3.99999904632568],"type":"VEC3"},{"bufferView":2,"byteOffset":0,"componentType":5126,"count":1480,"type":"VEC3"},{"bufferView":3,"byteOffset":0,"componentType":5126,"count":1480,"type":"VEC2"}],"asset":{"generator":"FBX2glTF v0.13.1","version":"2.0"},"bufferViews":[{"buffer":0,"byteLength":4536,"byteOffset":0,"target":34963},{"buffer":0,"byteLength":17760,"byteOffset":4536,"target":34962},{"buffer":0,"byteLength":17760,"byteOffset":22296,"target":34962},{"buffer":0,"byteLength":11840,"byteOffset":40056,"target":34962}],"buffers":[{"byteLength":51896,"uri":"SM_Brige_02.bin"}],"images":[{"name":"Polygon_Texture_vol2","uri":"Polygon_Texture_vol2.png"}],"materials":[{"alphaMode":"OPAQUE","doubleSided":false,"extras":{"fromFBX":{"isTruePBR":false,"shadingModel":"Phong"}},"name":"Material","pbrMetallicRoughness":{"baseColorFactor":[1,1,1,1],"baseColorTexture":{"index":0,"texCoord":0},"metallicFactor":0.400000005960464,"roughnessFactor":0.229415729641914}}],"meshes":[{"name":"Brige_02","primitives":[{"attributes":{"NORMAL":2,"POSITION":1,"TEXCOORD_0":3},"indices":0,"material":0,"mode":4}]}],"nodes":[{"mesh":0,"name":"Brige_02","rotation":[0,0,0,1],"scale":[1,1,1],"translation":[18.3385944366455,-0.23708263039589,30.459379196167]}],"samplers":[{}],"scene":0,"scenes":[{"name":"Root Scene","nodes":[0]}],"textures":[{"name":"base_color_texture","sampler":0,"source":0}]}