{"accessors":[{"bufferView":0,"byteOffset":0,"componentType":5123,"count":2124,"type":"SCALAR"},{"bufferView":1,"byteOffset":0,"componentType":5126,"count":1416,"max":[2.82030415534973,1.914834856987,3.93305349349976],"min":[-2.82030415534973,-0.2346874922514,-4.17959403991699],"type":"VEC3"},{"bufferView":2,"byteOffset":0,"componentType":5126,"count":1416,"type":"VEC3"},{"bufferView":3,"byteOffset":0,"componentType":5126,"count":1416,"type":"VEC2"}],"asset":{"generator":"FBX2glTF v0.13.1","version":"2.0"},"bufferViews":[{"buffer":0,"byteLength":4248,"byteOffset":0,"target":34963},{"buffer":0,"byteLength":16992,"byteOffset":4248,"target":34962},{"buffer":0,"byteLength":16992,"byteOffset":21240,"target":34962},{"buffer":0,"byteLength":11328,"byteOffset":38232,"target":34962}],"buffers":[{"byteLength":49560,"uri":"SM_Brige_03.bin"}],"images":[{"name":"Polygon_Texture_vol2","uri":"Polygon_Texture_vol2.png"}],"materials":[{"alphaMode":"OPAQUE","doubleSided":false,"extras":{"fromFBX":{"isTruePBR":false,"shadingModel":"Phong"}},"name":"Material","pbrMetallicRoughness":{"baseColorFactor":[1,1,1,1],"baseColorTexture":{"index":0,"texCoord":0},"metallicFactor":0.400000005960464,"roughnessFactor":0.229415729641914}}],"meshes":[{"name":"Brige_03","primitives":[{"attributes":{"NORMAL":2,"POSITION":1,"TEXCOORD_0":3},"indices":0,"material":0,"mode":4}]}],"nodes":[{"mesh":0,"name":"Brige_03","rotation":[0.026176955550909,0,0,0.999657332897186],"scale":[1,0.999999940395355,0.999999940395355],"translation":[18.3385944366455,-0.45264688134193,40.2425994873047]}],"samplers":[{}],"scene":0,"scenes":[{"name":"Root Scene","nodes":[0]}],"textures":[{"name":"base_color_texture","sampler":0,"source":0}]}