{"accessors":[{"bufferView":0,"byteOffset":0,"componentType":5123,"count":14562,"type":"SCALAR"},{"bufferView":1,"byteOffset":0,"componentType":5126,"count":8212,"max":[11.1968488693237,7.32568597793579,10.8348302841187],"min":[-8.77536582946777,-0.00000007164645,-7.16516971588135],"type":"VEC3"},{"bufferView":2,"byteOffset":0,"componentType":5126,"count":8212,"type":"VEC3"},{"bufferView":3,"byteOffset":0,"componentType":5126,"count":8212,"type":"VEC2"},{"bufferView":4,"byteOffset":0,"componentType":5123,"count":444,"type":"SCALAR"},{"bufferView":5,"byteOffset":0,"componentType":5126,"count":296,"max":[10.8716430664062,5.74787473678589,10.7024621963501],"min":[-8.73575019836426,0.0982344448566437,-5.79561376571655],"type":"VEC3"},{"bufferView":6,"byteOffset":0,"componentType":5126,"count":296,"type":"VEC3"},{"bufferView":7,"byteOffset":0,"componentType":5126,"count":296,"type":"VEC2"}],"asset":{"generator":"FBX2glTF v0.13.1","version":"2.0"},"bufferViews":[{"buffer":0,"byteLength":29124,"byteOffset":0,"target":34963},{"buffer":0,"byteLength":98544,"byteOffset":29124,"target":34962},{"buffer":0,"byteLength":98544,"byteOffset":127668,"target":34962},{"buffer":0,"byteLength":65696,"byteOffset":226212,"target":34962},{"buffer":0,"byteLength":888,"byteOffset":291908,"target":34963},{"buffer":0,"byteLength":3552,"byteOffset":292796,"target":34962},{"buffer":0,"byteLength":3552,"byteOffset":296348,"target":34962},{"buffer":0,"byteLength":2368,"byteOffset":299900,"target":34962}],"buffers":[{"byteLength":302268,"uri":"SM_depot.bin"}],"images":[{"name":"Polygon_Texture_vol2","uri":"Polygon_Texture_vol2.png"}],"materials":[{"alphaMode":"OPAQUE","doubleSided":false,"extras":{"fromFBX":{"isTruePBR":false,"shadingModel":"Phong"}},"name":"Material","pbrMetallicRoughness":{"baseColorFactor":[1,1,1,1],"baseColorTexture":{"index":0,"texCoord":0},"metallicFactor":0.400000005960464,"roughnessFactor":0.229415729641914}},{"alphaMode":"OPAQUE","doubleSided":false,"extras":{"fromFBX":{"isTruePBR":false,"shadingModel":"Phong"}},"name":"Material.001","pbrMetallicRoughness":{"baseColorFactor":[0.800000071525574,0,0.00911247916519642,1],"metallicFactor":0.400000005960464,"roughnessFactor":0.272165536880493}}],"meshes":[{"name":"depot","primitives":[{"attributes":{"NORMAL":2,"POSITION":1,"TEXCOORD_0":3},"indices":0,"material":0,"mode":4},{"attributes":{"NORMAL":6,"POSITION":5,"TEXCOORD_0":7},"indices":4,"material":1,"mode":4}]}],"nodes":[{"mesh":0,"name":"depot","rotation":[0,0,0,1],"scale":[1,1,1],"translation":[9.22264862060547,0,4.0101318359375]}],"samplers":[{}],"scene":0,"scenes":[{"name":"Root Scene","nodes":[0]}],"textures":[{"name":"base_color_texture","sampler":0,"source":0}]}