{"accessors":[{"bufferView":0,"byteOffset":0,"componentType":5123,"count":174,"type":"SCALAR"},{"bufferView":1,"byteOffset":0,"componentType":5126,"count":96,"max":[-3.13682889938354,-1.83646249771118,5.61227416992188],"min":[-5.13682842254639,-3.99612903594971,4.00000762939453],"type":"VEC3"},{"bufferView":2,"byteOffset":0,"componentType":5126,"count":96,"type":"VEC3"},{"bufferView":3,"byteOffset":0,"componentType":5126,"count":96,"type":"VEC2"}],"asset":{"generator":"FBX2glTF v0.13.1","version":"2.0"},"bufferViews":[{"buffer":0,"byteLength":348,"byteOffset":0,"target":34963},{"buffer":0,"byteLength":1152,"byteOffset":348,"target":34962},{"buffer":0,"byteLength":1152,"byteOffset":1500,"target":34962},{"buffer":0,"byteLength":768,"byteOffset":2652,"target":34962}],"buffers":[{"byteLength":3420,"uri":"SM_elevator_02.bin"}],"images":[{"name":"Polygon_Texture_vol2","uri":"Polygon_Texture_vol2.png"}],"materials":[{"alphaMode":"OPAQUE","doubleSided":false,"extras":{"fromFBX":{"isTruePBR":false,"shadingModel":"Phong"}},"name":"Material","pbrMetallicRoughness":{"baseColorFactor":[1,1,1,1],"baseColorTexture":{"index":0,"texCoord":0},"metallicFactor":0.400000005960464,"roughnessFactor":0.229415729641914}}],"meshes":[{"name":"elevator_02","primitives":[{"attributes":{"NORMAL":2,"POSITION":1,"TEXCOORD_0":3},"indices":0,"material":0,"mode":4}]}],"nodes":[{"mesh":0,"name":"elevator_02","rotation":[0,0,0,1],"scale":[1,1,1],"translation":[-0.2330493927002,2.99760794639587,46.9325180053711]}],"samplers":[{}],"scene":0,"scenes":[{"name":"Root Scene","nodes":[0]}],"textures":[{"name":"base_color_texture","sampler":0,"source":0}]}