{"accessors":[{"bufferView":0,"byteOffset":0,"componentType":5123,"count":1836,"type":"SCALAR"},{"bufferView":1,"byteOffset":0,"componentType":5126,"count":1160,"max":[2.38587403297424,2.5771324634552,0.0719267800450325],"min":[-0.07192588597536,0,-0.07192677259445],"type":"VEC3"},{"bufferView":2,"byteOffset":0,"componentType":5126,"count":1160,"type":"VEC3"},{"bufferView":3,"byteOffset":0,"componentType":5126,"count":1160,"type":"VEC2"}],"asset":{"generator":"FBX2glTF v0.13.1","version":"2.0"},"bufferViews":[{"buffer":0,"byteLength":3672,"byteOffset":0,"target":34963},{"buffer":0,"byteLength":13920,"byteOffset":3672,"target":34962},{"buffer":0,"byteLength":13920,"byteOffset":17592,"target":34962},{"buffer":0,"byteLength":9280,"byteOffset":31512,"target":34962}],"buffers":[{"byteLength":40792,"uri":"SM_electric_pole_01.bin"}],"images":[{"name":"Polygon_Texture_vol2","uri":"Polygon_Texture_vol2.png"}],"materials":[{"alphaMode":"OPAQUE","doubleSided":false,"extras":{"fromFBX":{"isTruePBR":false,"shadingModel":"Phong"}},"name":"Material","pbrMetallicRoughness":{"baseColorFactor":[1,1,1,1],"baseColorTexture":{"index":0,"texCoord":0},"metallicFactor":0.400000005960464,"roughnessFactor":0.229415729641914}}],"meshes":[{"name":"electric_pole_01","primitives":[{"attributes":{"NORMAL":2,"POSITION":1,"TEXCOORD_0":3},"indices":0,"material":0,"mode":4}]}],"nodes":[{"mesh":0,"name":"electric_pole_01","rotation":[0,0,0,1],"scale":[1,1,1],"translation":[5.0080738067627,0,14.9858808517456]}],"samplers":[{}],"scene":0,"scenes":[{"name":"Root Scene","nodes":[0]}],"textures":[{"name":"base_color_texture","sampler":0,"source":0}]}