{"accessors":[{"bufferView":0,"byteOffset":0,"componentType":5123,"count":9930,"type":"SCALAR"},{"bufferView":1,"byteOffset":0,"componentType":5126,"count":5884,"max":[0.957285523414612,1.95782685279846,2.05406451225281],"min":[-0.78037708997726,-0.00000005960464,-2.05406069755554],"type":"VEC3"},{"bufferView":2,"byteOffset":0,"componentType":5126,"count":5884,"type":"VEC3"},{"bufferView":3,"byteOffset":0,"componentType":5126,"count":5884,"type":"VEC2"},{"bufferView":4,"byteOffset":0,"componentType":5123,"count":144,"type":"SCALAR"},{"bufferView":5,"byteOffset":0,"componentType":5126,"count":80,"max":[0.755957305431366,1.69484925270081,1.86803543567657],"min":[-0.75595825910568,0.602754175662994,-1.03791546821594],"type":"VEC3"},{"bufferView":6,"byteOffset":0,"componentType":5126,"count":80,"type":"VEC3"},{"bufferView":7,"byteOffset":0,"componentType":5126,"count":80,"type":"VEC2"}],"asset":{"generator":"FBX2glTF v0.13.1","version":"2.0"},"bufferViews":[{"buffer":0,"byteLength":19860,"byteOffset":0,"target":34963},{"buffer":0,"byteLength":70608,"byteOffset":19860,"target":34962},{"buffer":0,"byteLength":70608,"byteOffset":90468,"target":34962},{"buffer":0,"byteLength":47072,"byteOffset":161076,"target":34962},{"buffer":0,"byteLength":288,"byteOffset":208148,"target":34963},{"buffer":0,"byteLength":960,"byteOffset":208436,"target":34962},{"buffer":0,"byteLength":960,"byteOffset":209396,"target":34962},{"buffer":0,"byteLength":640,"byteOffset":210356,"target":34962}],"buffers":[{"byteLength":210996,"uri":"SM_freight_train_01.bin"}],"images":[{"name":"Polygon_Texture_vol2","uri":"Polygon_Texture_vol2.png"}],"materials":[{"alphaMode":"OPAQUE","doubleSided":false,"extras":{"fromFBX":{"isTruePBR":false,"shadingModel":"Phong"}},"name":"Material","pbrMetallicRoughness":{"baseColorFactor":[1,1,1,1],"baseColorTexture":{"index":0,"texCoord":0},"metallicFactor":0.400000005960464,"roughnessFactor":0.229415729641914}},{"alphaMode":"OPAQUE","doubleSided":false,"extras":{"fromFBX":{"isTruePBR":false,"shadingModel":"Phong"}},"name":"Material.001","pbrMetallicRoughness":{"baseColorFactor":[0.800000071525574,0,0.00911247916519642,1],"metallicFactor":0.400000005960464,"roughnessFactor":0.272165536880493}}],"meshes":[{"name":"freight_train_01","primitives":[{"attributes":{"NORMAL":2,"POSITION":1,"TEXCOORD_0":3},"indices":0,"material":0,"mode":4},{"attributes":{"NORMAL":6,"POSITION":5,"TEXCOORD_0":7},"indices":4,"material":1,"mode":4}]}],"nodes":[{"mesh":0,"name":"freight_train_01","rotation":[0,0,0,1],"scale":[1,1,1],"translation":[9.32046508789062,0.0474855899810791,21.671443939209]}],"samplers":[{}],"scene":0,"scenes":[{"name":"Root Scene","nodes":[0]}],"textures":[{"name":"base_color_texture","sampler":0,"source":0}]}