{"accessors":[{"bufferView":0,"byteOffset":0,"componentType":5123,"count":636,"type":"SCALAR"},{"bufferView":1,"byteOffset":0,"componentType":5126,"count":396,"max":[1.67516732215881,0.102601677179337,3.62281918525696],"min":[-2.18224549293518,-0.22170853614807,-3.44826531410217],"type":"VEC3"},{"bufferView":2,"byteOffset":0,"componentType":5126,"count":396,"type":"VEC3"},{"bufferView":3,"byteOffset":0,"componentType":5126,"count":396,"type":"VEC2"}],"asset":{"generator":"FBX2glTF v0.13.1","version":"2.0"},"bufferViews":[{"buffer":0,"byteLength":1272,"byteOffset":0,"target":34963},{"buffer":0,"byteLength":4752,"byteOffset":1272,"target":34962},{"buffer":0,"byteLength":4752,"byteOffset":6024,"target":34962},{"buffer":0,"byteLength":3168,"byteOffset":10776,"target":34962}],"buffers":[{"byteLength":13944,"uri":"SM_monorail_tracks_04.bin"}],"images":[{"name":"Polygon_Texture_vol2","uri":"Polygon_Texture_vol2.png"}],"materials":[{"alphaMode":"OPAQUE","doubleSided":false,"extras":{"fromFBX":{"isTruePBR":false,"shadingModel":"Phong"}},"name":"Material","pbrMetallicRoughness":{"baseColorFactor":[1,1,1,1],"baseColorTexture":{"index":0,"texCoord":0},"metallicFactor":0.400000005960464,"roughnessFactor":0.229415729641914}}],"meshes":[{"name":"monorail_tracks_04","primitives":[{"attributes":{"NORMAL":2,"POSITION":1,"TEXCOORD_0":3},"indices":0,"material":0,"mode":4}]}],"nodes":[{"mesh":0,"name":"monorail_tracks_04","rotation":[0,0,0,1],"scale":[1,1,1],"translation":[-2.88302183151245,0.221708565950394,37.9706039428711]}],"samplers":[{}],"scene":0,"scenes":[{"name":"Root Scene","nodes":[0]}],"textures":[{"name":"base_color_texture","sampler":0,"source":0}]}