{"accessors":[{"bufferView":0,"byteOffset":0,"componentType":5123,"count":2256,"type":"SCALAR"},{"bufferView":1,"byteOffset":0,"componentType":5126,"count":1458,"max":[10.0000038146973,0.102601677179337,4.34668159484863],"min":[-10.0000314712524,-0.22170856595039,-5.65335607528687],"type":"VEC3"},{"bufferView":2,"byteOffset":0,"componentType":5126,"count":1458,"type":"VEC3"},{"bufferView":3,"byteOffset":0,"componentType":5126,"count":1458,"type":"VEC2"}],"asset":{"generator":"FBX2glTF v0.13.1","version":"2.0"},"bufferViews":[{"buffer":0,"byteLength":4512,"byteOffset":0,"target":34963},{"buffer":0,"byteLength":17496,"byteOffset":4512,"target":34962},{"buffer":0,"byteLength":17496,"byteOffset":22008,"target":34962},{"buffer":0,"byteLength":11664,"byteOffset":39504,"target":34962}],"buffers":[{"byteLength":51168,"uri":"SM_monorail_tracks_02.bin"}],"images":[{"name":"Polygon_Texture_vol2","uri":"Polygon_Texture_vol2.png"}],"materials":[{"alphaMode":"OPAQUE","doubleSided":false,"extras":{"fromFBX":{"isTruePBR":false,"shadingModel":"Phong"}},"name":"Material","pbrMetallicRoughness":{"baseColorFactor":[1,1,1,1],"baseColorTexture":{"index":0,"texCoord":0},"metallicFactor":0.400000005960464,"roughnessFactor":0.229415729641914}}],"meshes":[{"name":"monorail_tracks_02","primitives":[{"attributes":{"NORMAL":2,"POSITION":1,"TEXCOORD_0":3},"indices":0,"material":0,"mode":4}]}],"nodes":[{"mesh":0,"name":"monorail_tracks_02","rotation":[0,0,0,1],"scale":[1,1,1],"translation":[-11.207857131958,0.221708565950394,29.0920600891113]}],"samplers":[{}],"scene":0,"scenes":[{"name":"Root Scene","nodes":[0]}],"textures":[{"name":"base_color_texture","sampler":0,"source":0}]}