{"accessors":[{"bufferView":0,"byteOffset":0,"componentType":5123,"count":3036,"type":"SCALAR"},{"bufferView":1,"byteOffset":0,"componentType":5126,"count":1720,"max":[0.814999997615814,2.0411593914032,2],"min":[-0.81499999761581,-0.41264882683754,-2],"type":"VEC3"},{"bufferView":2,"byteOffset":0,"componentType":5126,"count":1720,"type":"VEC3"},{"bufferView":3,"byteOffset":0,"componentType":5126,"count":1720,"type":"VEC2"},{"bufferView":4,"byteOffset":0,"componentType":5123,"count":84,"type":"SCALAR"},{"bufferView":5,"byteOffset":0,"componentType":5126,"count":56,"max":[0.79981255531311,1.59224951267242,1.84927713871002],"min":[-0.79981255531311,0.713073492050171,-1.84927713871002],"type":"VEC3"},{"bufferView":6,"byteOffset":0,"componentType":5126,"count":56,"type":"VEC3"},{"bufferView":7,"byteOffset":0,"componentType":5126,"count":56,"type":"VEC2"}],"asset":{"generator":"FBX2glTF v0.13.1","version":"2.0"},"bufferViews":[{"buffer":0,"byteLength":6072,"byteOffset":0,"target":34963},{"buffer":0,"byteLength":20640,"byteOffset":6072,"target":34962},{"buffer":0,"byteLength":20640,"byteOffset":26712,"target":34962},{"buffer":0,"byteLength":13760,"byteOffset":47352,"target":34962},{"buffer":0,"byteLength":168,"byteOffset":61112,"target":34963},{"buffer":0,"byteLength":672,"byteOffset":61280,"target":34962},{"buffer":0,"byteLength":672,"byteOffset":61952,"target":34962},{"buffer":0,"byteLength":448,"byteOffset":62624,"target":34962}],"buffers":[{"byteLength":63072,"uri":"SM_monorail_02.bin"}],"images":[{"name":"Polygon_Texture_vol2","uri":"Polygon_Texture_vol2.png"}],"materials":[{"alphaMode":"OPAQUE","doubleSided":false,"extras":{"fromFBX":{"isTruePBR":false,"shadingModel":"Phong"}},"name":"Material","pbrMetallicRoughness":{"baseColorFactor":[1,1,1,1],"baseColorTexture":{"index":0,"texCoord":0},"metallicFactor":0.400000005960464,"roughnessFactor":0.229415729641914}},{"alphaMode":"OPAQUE","doubleSided":false,"extras":{"fromFBX":{"isTruePBR":false,"shadingModel":"Phong"}},"name":"Material.001","pbrMetallicRoughness":{"baseColorFactor":[0.800000071525574,0,0.00911247916519642,1],"metallicFactor":0.400000005960464,"roughnessFactor":0.272165536880493}}],"meshes":[{"name":"monorail_02","primitives":[{"attributes":{"NORMAL":2,"POSITION":1,"TEXCOORD_0":3},"indices":0,"material":0,"mode":4},{"attributes":{"NORMAL":6,"POSITION":5,"TEXCOORD_0":7},"indices":4,"material":1,"mode":4}]}],"nodes":[{"mesh":0,"name":"monorail_02","rotation":[0,0,0,1],"scale":[1,1,1],"translation":[1.53226268291473,0.41264882683754,16.7085247039795]}],"samplers":[{}],"scene":0,"scenes":[{"name":"Root Scene","nodes":[0]}],"textures":[{"name":"base_color_texture","sampler":0,"source":0}]}