{"accessors":[{"bufferView":0,"byteOffset":0,"componentType":5123,"count":4032,"type":"SCALAR"},{"bufferView":1,"byteOffset":0,"componentType":5126,"count":2254,"max":[0.817657291889191,2.0411593914032,3.44438076019287],"min":[-0.81765729188919,-0.41264882683754,-2.00327897071838],"type":"VEC3"},{"bufferView":2,"byteOffset":0,"componentType":5126,"count":2254,"type":"VEC3"},{"bufferView":3,"byteOffset":0,"componentType":5126,"count":2254,"type":"VEC2"},{"bufferView":4,"byteOffset":0,"componentType":5123,"count":114,"type":"SCALAR"},{"bufferView":5,"byteOffset":0,"componentType":5126,"count":72,"max":[0.79981255531311,1.59224951267242,3.26591539382935],"min":[-0.79981255531311,0.664319455623627,-1.85114252567291],"type":"VEC3"},{"bufferView":6,"byteOffset":0,"componentType":5126,"count":72,"type":"VEC3"},{"bufferView":7,"byteOffset":0,"componentType":5126,"count":72,"type":"VEC2"}],"asset":{"generator":"FBX2glTF v0.13.1","version":"2.0"},"bufferViews":[{"buffer":0,"byteLength":8064,"byteOffset":0,"target":34963},{"buffer":0,"byteLength":27048,"byteOffset":8064,"target":34962},{"buffer":0,"byteLength":27048,"byteOffset":35112,"target":34962},{"buffer":0,"byteLength":18032,"byteOffset":62160,"target":34962},{"buffer":0,"byteLength":228,"byteOffset":80192,"target":34963},{"buffer":0,"byteLength":864,"byteOffset":80420,"target":34962},{"buffer":0,"byteLength":864,"byteOffset":81284,"target":34962},{"buffer":0,"byteLength":576,"byteOffset":82148,"target":34962}],"buffers":[{"byteLength":82724,"uri":"SM_monorail_01.bin"}],"images":[{"name":"Polygon_Texture_vol2","uri":"Polygon_Texture_vol2.png"}],"materials":[{"alphaMode":"OPAQUE","doubleSided":false,"extras":{"fromFBX":{"isTruePBR":false,"shadingModel":"Phong"}},"name":"Material","pbrMetallicRoughness":{"baseColorFactor":[1,1,1,1],"baseColorTexture":{"index":0,"texCoord":0},"metallicFactor":0.400000005960464,"roughnessFactor":0.229415729641914}},{"alphaMode":"OPAQUE","doubleSided":false,"extras":{"fromFBX":{"isTruePBR":false,"shadingModel":"Phong"}},"name":"Material.001","pbrMetallicRoughness":{"baseColorFactor":[0.800000071525574,0,0.00911247916519642,1],"metallicFactor":0.400000005960464,"roughnessFactor":0.272165536880493}}],"meshes":[{"name":"monorail_01","primitives":[{"attributes":{"NORMAL":2,"POSITION":1,"TEXCOORD_0":3},"indices":0,"material":0,"mode":4},{"attributes":{"NORMAL":6,"POSITION":5,"TEXCOORD_0":7},"indices":4,"material":1,"mode":4}]}],"nodes":[{"mesh":0,"name":"monorail_01","rotation":[0,0,0,1],"scale":[1,1,1],"translation":[0,0.41264882683754,21.3545722961426]}],"samplers":[{}],"scene":0,"scenes":[{"name":"Root Scene","nodes":[0]}],"textures":[{"name":"base_color_texture","sampler":0,"source":0}]}