{"accessors":[{"bufferView":0,"byteOffset":0,"componentType":5123,"count":1836,"type":"SCALAR"},{"bufferView":1,"byteOffset":0,"componentType":5126,"count":1166,"max":[-0.55725437402725,4.12279415130615,-4.42854976654053],"min":[-5.55725383758545,-0.87720531225205,-12.4285497665405],"type":"VEC3"},{"bufferView":2,"byteOffset":0,"componentType":5126,"count":1166,"type":"VEC3"},{"bufferView":3,"byteOffset":0,"componentType":5126,"count":1166,"type":"VEC2"},{"bufferView":4,"byteOffset":0,"componentType":5123,"count":144,"type":"SCALAR"},{"bufferView":5,"byteOffset":0,"componentType":5126,"count":96,"max":[-0.59205996990204,2.94065022468567,-4.52939748764038],"min":[-5.46298837661743,1.23754012584686,-12.3277015686035],"type":"VEC3"},{"bufferView":6,"byteOffset":0,"componentType":5126,"count":96,"type":"VEC3"},{"bufferView":7,"byteOffset":0,"componentType":5126,"count":96,"type":"VEC2"}],"asset":{"generator":"FBX2glTF v0.13.1","version":"2.0"},"bufferViews":[{"buffer":0,"byteLength":3672,"byteOffset":0,"target":34963},{"buffer":0,"byteLength":13992,"byteOffset":3672,"target":34962},{"buffer":0,"byteLength":13992,"byteOffset":17664,"target":34962},{"buffer":0,"byteLength":9328,"byteOffset":31656,"target":34962},{"buffer":0,"byteLength":288,"byteOffset":40984,"target":34963},{"buffer":0,"byteLength":1152,"byteOffset":41272,"target":34962},{"buffer":0,"byteLength":1152,"byteOffset":42424,"target":34962},{"buffer":0,"byteLength":768,"byteOffset":43576,"target":34962}],"buffers":[{"byteLength":44344,"uri":"SM_monorail_station_02.bin"}],"images":[{"name":"Polygon_Texture_vol2","uri":"Polygon_Texture_vol2.png"}],"materials":[{"alphaMode":"OPAQUE","doubleSided":false,"extras":{"fromFBX":{"isTruePBR":false,"shadingModel":"Phong"}},"name":"Material","pbrMetallicRoughness":{"baseColorFactor":[1,1,1,1],"baseColorTexture":{"index":0,"texCoord":0},"metallicFactor":0.400000005960464,"roughnessFactor":0.229415729641914}},{"alphaMode":"OPAQUE","doubleSided":false,"extras":{"fromFBX":{"isTruePBR":false,"shadingModel":"Phong"}},"name":"Material.001","pbrMetallicRoughness":{"baseColorFactor":[0.800000071525574,0,0.00911247916519642,1],"metallicFactor":0.400000005960464,"roughnessFactor":0.272165536880493}}],"meshes":[{"name":"monorail_station_02","primitives":[{"attributes":{"NORMAL":2,"POSITION":1,"TEXCOORD_0":3},"indices":0,"material":0,"mode":4},{"attributes":{"NORMAL":6,"POSITION":5,"TEXCOORD_0":7},"indices":4,"material":1,"mode":4}]}],"nodes":[{"mesh":0,"name":"monorail_station_02","rotation":[0,0,0,1],"scale":[1,1,1],"translation":[-0.2330493927002,2.99760794639587,46.9325180053711]}],"samplers":[{}],"scene":0,"scenes":[{"name":"Root Scene","nodes":[0]}],"textures":[{"name":"base_color_texture","sampler":0,"source":0}]}