{"accessors":[{"bufferView":0,"byteOffset":0,"componentType":5123,"count":10212,"type":"SCALAR"},{"bufferView":1,"byteOffset":0,"componentType":5126,"count":6118,"max":[6.11673879623413,9.5738410949707,12.6920185089111],"min":[-6.11673879623413,-0.00029260248994,-12.0418796539307],"type":"VEC3"},{"bufferView":2,"byteOffset":0,"componentType":5126,"count":6118,"type":"VEC3"},{"bufferView":3,"byteOffset":0,"componentType":5126,"count":6118,"type":"VEC2"},{"bufferView":4,"byteOffset":0,"componentType":5123,"count":234,"type":"SCALAR"},{"bufferView":5,"byteOffset":0,"componentType":5126,"count":154,"max":[5.94534206390381,9.28422546386719,11.6697759628296],"min":[-5.94534206390381,1.0622763633728,-11.5017242431641],"type":"VEC3"},{"bufferView":6,"byteOffset":0,"componentType":5126,"count":154,"type":"VEC3"},{"bufferView":7,"byteOffset":0,"componentType":5126,"count":154,"type":"VEC2"},{"bufferView":8,"byteOffset":0,"componentType":5123,"count":144,"type":"SCALAR"},{"bufferView":9,"byteOffset":0,"componentType":5126,"count":96,"max":[3.42524933815002,6.15300273895264,12.7380952835083],"min":[-3.11944031715393,3.04504227638245,8.8223705291748],"type":"VEC3"},{"bufferView":10,"byteOffset":0,"componentType":5126,"count":96,"type":"VEC3"},{"bufferView":11,"byteOffset":0,"componentType":5126,"count":96,"type":"VEC2"}],"asset":{"generator":"FBX2glTF v0.13.1","version":"2.0"},"bufferViews":[{"buffer":0,"byteLength":20424,"byteOffset":0,"target":34963},{"buffer":0,"byteLength":73416,"byteOffset":20424,"target":34962},{"buffer":0,"byteLength":73416,"byteOffset":93840,"target":34962},{"buffer":0,"byteLength":48944,"byteOffset":167256,"target":34962},{"buffer":0,"byteLength":468,"byteOffset":216200,"target":34963},{"buffer":0,"byteLength":1848,"byteOffset":216668,"target":34962},{"buffer":0,"byteLength":1848,"byteOffset":218516,"target":34962},{"buffer":0,"byteLength":1232,"byteOffset":220364,"target":34962},{"buffer":0,"byteLength":288,"byteOffset":221596,"target":34963},{"buffer":0,"byteLength":1152,"byteOffset":221884,"target":34962},{"buffer":0,"byteLength":1152,"byteOffset":223036,"target":34962},{"buffer":0,"byteLength":768,"byteOffset":224188,"target":34962}],"buffers":[{"byteLength":224956,"uri":"SM_monorai_depot_01.bin"}],"images":[{"name":"Polygon_Texture_vol2","uri":"Polygon_Texture_vol2.png"}],"materials":[{"alphaMode":"OPAQUE","doubleSided":false,"extras":{"fromFBX":{"isTruePBR":false,"shadingModel":"Phong"}},"name":"Material","pbrMetallicRoughness":{"baseColorFactor":[1,1,1,1],"baseColorTexture":{"index":0,"texCoord":0},"metallicFactor":0.400000005960464,"roughnessFactor":0.229415729641914}},{"alphaMode":"OPAQUE","doubleSided":false,"extras":{"fromFBX":{"isTruePBR":false,"shadingModel":"Phong"}},"name":"Material.001","pbrMetallicRoughness":{"baseColorFactor":[0.800000071525574,0,0.00911247916519642,1],"metallicFactor":0.400000005960464,"roughnessFactor":0.272165536880493}},{"alphaMode":"OPAQUE","doubleSided":false,"extras":{"fromFBX":{"isTruePBR":false,"shadingModel":"Phong"}},"name":"Material.002","pbrMetallicRoughness":{"baseColorFactor":[0.800000011920929,0.800000011920929,0.800000011920929,1],"metallicFactor":0.400000005960464,"roughnessFactor":0.272165536880493}}],"meshes":[{"name":"monorai_depot_01","primitives":[{"attributes":{"NORMAL":2,"POSITION":1,"TEXCOORD_0":3},"indices":0,"material":0,"mode":4},{"attributes":{"NORMAL":6,"POSITION":5,"TEXCOORD_0":7},"indices":4,"material":1,"mode":4},{"attributes":{"NORMAL":10,"POSITION":9,"TEXCOORD_0":11},"indices":8,"material":2,"mode":4}]}],"nodes":[{"mesh":0,"name":"monorai_depot_01","rotation":[0,0,0,1],"scale":[1,1,1],"translation":[-7.06724643707275,0,0]}],"samplers":[{}],"scene":0,"scenes":[{"name":"Root Scene","nodes":[0]}],"textures":[{"name":"base_color_texture","sampler":0,"source":0}]}