{"accessors":[{"bufferView":0,"byteOffset":0,"componentType":5123,"count":1176,"type":"SCALAR"},{"bufferView":1,"byteOffset":0,"componentType":5126,"count":742,"max":[4.17893123626709,0.102601677179337,4.17895841598511],"min":[-5.82106351852417,-0.22170856595039,-5.82107830047607],"type":"VEC3"},{"bufferView":2,"byteOffset":0,"componentType":5126,"count":742,"type":"VEC3"},{"bufferView":3,"byteOffset":0,"componentType":5126,"count":742,"type":"VEC2"}],"asset":{"generator":"FBX2glTF v0.13.1","version":"2.0"},"bufferViews":[{"buffer":0,"byteLength":2352,"byteOffset":0,"target":34963},{"buffer":0,"byteLength":8904,"byteOffset":2352,"target":34962},{"buffer":0,"byteLength":8904,"byteOffset":11256,"target":34962},{"buffer":0,"byteLength":5936,"byteOffset":20160,"target":34962}],"buffers":[{"byteLength":26096,"uri":"SM_monorail_tracks_03.bin"}],"images":[{"name":"Polygon_Texture_vol2","uri":"Polygon_Texture_vol2.png"}],"materials":[{"alphaMode":"OPAQUE","doubleSided":false,"extras":{"fromFBX":{"isTruePBR":false,"shadingModel":"Phong"}},"name":"Material","pbrMetallicRoughness":{"baseColorFactor":[1,1,1,1],"baseColorTexture":{"index":0,"texCoord":0},"metallicFactor":0.400000005960464,"roughnessFactor":0.229415729641914}}],"meshes":[{"name":"monorail_tracks_03","primitives":[{"attributes":{"NORMAL":2,"POSITION":1,"TEXCOORD_0":3},"indices":0,"material":0,"mode":4}]}],"nodes":[{"mesh":0,"name":"monorail_tracks_03","rotation":[0,0,0,1],"scale":[1,1,1],"translation":[-5.38678503036499,0.221708565950394,34.8029594421387]}],"samplers":[{}],"scene":0,"scenes":[{"name":"Root Scene","nodes":[0]}],"textures":[{"name":"base_color_texture","sampler":0,"source":0}]}