{"accessors":[{"bufferView":0,"byteOffset":0,"componentType":5123,"count":312,"type":"SCALAR"},{"bufferView":1,"byteOffset":0,"componentType":5126,"count":180,"max":[0.656544506549835,0.445454657077789,5.00457239151001],"min":[-0.65654408931732,-0.57486736774445,-3.99325060844421],"type":"VEC3"},{"bufferView":2,"byteOffset":0,"componentType":5126,"count":180,"type":"VEC3"},{"bufferView":3,"byteOffset":0,"componentType":5126,"count":180,"type":"VEC2"}],"asset":{"generator":"FBX2glTF v0.13.1","version":"2.0"},"bufferViews":[{"buffer":0,"byteLength":624,"byteOffset":0,"target":34963},{"buffer":0,"byteLength":2160,"byteOffset":624,"target":34962},{"buffer":0,"byteLength":2160,"byteOffset":2784,"target":34962},{"buffer":0,"byteLength":1440,"byteOffset":4944,"target":34962}],"buffers":[{"byteLength":6384,"uri":"SM_monorail_tracks_01_E.bin"}],"images":[{"name":"Polygon_Texture_vol2","uri":"Polygon_Texture_vol2.png"}],"materials":[{"alphaMode":"OPAQUE","doubleSided":false,"extras":{"fromFBX":{"isTruePBR":false,"shadingModel":"Phong"}},"name":"Material","pbrMetallicRoughness":{"baseColorFactor":[1,1,1,1],"baseColorTexture":{"index":0,"texCoord":0},"metallicFactor":0.400000005960464,"roughnessFactor":0.229415729641914}}],"meshes":[{"name":"monorail_tracks_01_E","primitives":[{"attributes":{"NORMAL":2,"POSITION":1,"TEXCOORD_0":3},"indices":0,"material":0,"mode":4}]}],"nodes":[{"mesh":0,"name":"monorail_tracks_01_E","rotation":[0,0,0,1],"scale":[1,1,1],"translation":[-11.7466316223145,0.227108627557755,18.1239147186279]}],"samplers":[{}],"scene":0,"scenes":[{"name":"Root Scene","nodes":[0]}],"textures":[{"name":"base_color_texture","sampler":0,"source":0}]}