{"accessors":[{"bufferView":0,"byteOffset":0,"componentType":5123,"count":96,"type":"SCALAR"},{"bufferView":1,"byteOffset":0,"componentType":5126,"count":64,"max":[0.48707515001297,0,0.279448866844177],"min":[-0.48707526922226,-1,-0.27944886684418],"type":"VEC3"},{"bufferView":2,"byteOffset":0,"componentType":5126,"count":64,"type":"VEC3"},{"bufferView":3,"byteOffset":0,"componentType":5126,"count":64,"type":"VEC2"}],"asset":{"generator":"FBX2glTF v0.13.1","version":"2.0"},"bufferViews":[{"buffer":0,"byteLength":192,"byteOffset":0,"target":34963},{"buffer":0,"byteLength":768,"byteOffset":192,"target":34962},{"buffer":0,"byteLength":768,"byteOffset":960,"target":34962},{"buffer":0,"byteLength":512,"byteOffset":1728,"target":34962}],"buffers":[{"byteLength":2240,"uri":"SM_pillar_03.bin"}],"images":[{"name":"Polygon_Texture_vol2","uri":"Polygon_Texture_vol2.png"}],"materials":[{"alphaMode":"OPAQUE","doubleSided":false,"extras":{"fromFBX":{"isTruePBR":false,"shadingModel":"Phong"}},"name":"Material","pbrMetallicRoughness":{"baseColorFactor":[1,1,1,1],"baseColorTexture":{"index":0,"texCoord":0},"metallicFactor":0.400000005960464,"roughnessFactor":0.229415729641914}}],"meshes":[{"name":"pillar_03","primitives":[{"attributes":{"NORMAL":2,"POSITION":1,"TEXCOORD_0":3},"indices":0,"material":0,"mode":4}]}],"nodes":[{"mesh":0,"name":"pillar_03","rotation":[0,0,0,1],"scale":[1,1,1],"translation":[-3.14834809303284,3.3567750453949,18.1239147186279]}],"samplers":[{}],"scene":0,"scenes":[{"name":"Root Scene","nodes":[0]}],"textures":[{"name":"base_color_texture","sampler":0,"source":0}]}