{"accessors":[{"bufferView":0,"byteOffset":0,"componentType":5123,"count":102,"type":"SCALAR"},{"bufferView":1,"byteOffset":0,"componentType":5126,"count":68,"max":[1.41480052471161,0.819053649902344,4.00000047683716],"min":[-1.41723465919495,-1.58996331691742,-4.00000047683716],"type":"VEC3"},{"bufferView":2,"byteOffset":0,"componentType":5126,"count":68,"type":"VEC3"},{"bufferView":3,"byteOffset":0,"componentType":5126,"count":68,"type":"VEC2"}],"asset":{"generator":"FBX2glTF v0.13.1","version":"2.0"},"bufferViews":[{"buffer":0,"byteLength":204,"byteOffset":0,"target":34963},{"buffer":0,"byteLength":816,"byteOffset":204,"target":34962},{"buffer":0,"byteLength":816,"byteOffset":1020,"target":34962},{"buffer":0,"byteLength":544,"byteOffset":1836,"target":34962}],"buffers":[{"byteLength":2380,"uri":"SM_pillar_for_monorail_station_01.bin"}],"images":[{"name":"Polygon_Texture_vol2","uri":"Polygon_Texture_vol2.png"}],"materials":[{"alphaMode":"OPAQUE","doubleSided":false,"extras":{"fromFBX":{"isTruePBR":false,"shadingModel":"Phong"}},"name":"Material","pbrMetallicRoughness":{"baseColorFactor":[1,1,1,1],"baseColorTexture":{"index":0,"texCoord":0},"metallicFactor":0.400000005960464,"roughnessFactor":0.229415729641914}}],"meshes":[{"name":"pillar_for_monorail_station_01","primitives":[{"attributes":{"NORMAL":2,"POSITION":1,"TEXCOORD_0":3},"indices":0,"material":0,"mode":4}]}],"nodes":[{"mesh":0,"name":"pillar_for_monorail_station_01","rotation":[0,0,0,1],"scale":[1,1,0.138978123664856],"translation":[-3.27873778343201,1.68996345996857,46.9325180053711]}],"samplers":[{}],"scene":0,"scenes":[{"name":"Root Scene","nodes":[0]}],"textures":[{"name":"base_color_texture","sampler":0,"source":0}]}