{"accessors":[{"bufferView":0,"byteOffset":0,"componentType":5123,"count":72,"type":"SCALAR"},{"bufferView":1,"byteOffset":0,"componentType":5126,"count":40,"max":[-1.94967758655548,-6.023756980896,1.22456288337708],"min":[-4.13859748840332,-7.023756980896,-1.22456252574921],"type":"VEC3"},{"bufferView":2,"byteOffset":0,"componentType":5126,"count":40,"type":"VEC3"},{"bufferView":3,"byteOffset":0,"componentType":5126,"count":40,"type":"VEC2"}],"asset":{"generator":"FBX2glTF v0.13.1","version":"2.0"},"bufferViews":[{"buffer":0,"byteLength":144,"byteOffset":0,"target":34963},{"buffer":0,"byteLength":480,"byteOffset":144,"target":34962},{"buffer":0,"byteLength":480,"byteOffset":624,"target":34962},{"buffer":0,"byteLength":320,"byteOffset":1104,"target":34962}],"buffers":[{"byteLength":1424,"uri":"SM_pillar_for_monorail_station_03.bin"}],"images":[{"name":"Polygon_Texture_vol2","uri":"Polygon_Texture_vol2.png"}],"materials":[{"alphaMode":"OPAQUE","doubleSided":false,"extras":{"fromFBX":{"isTruePBR":false,"shadingModel":"Phong"}},"name":"Material","pbrMetallicRoughness":{"baseColorFactor":[1,1,1,1],"baseColorTexture":{"index":0,"texCoord":0},"metallicFactor":0.400000005960464,"roughnessFactor":0.229415729641914}}],"meshes":[{"name":"pillar_for_monorail_station_03","primitives":[{"attributes":{"NORMAL":2,"POSITION":1,"TEXCOORD_0":3},"indices":0,"material":0,"mode":4}]}],"nodes":[{"mesh":0,"name":"pillar_for_monorail_station_03","rotation":[0,0,0,1],"scale":[1,1,1],"translation":[-0.2330493927002,2.99760794639587,46.9325180053711]}],"samplers":[{}],"scene":0,"scenes":[{"name":"Root Scene","nodes":[0]}],"textures":[{"name":"base_color_texture","sampler":0,"source":0}]}