{"accessors":[{"bufferView":0,"byteOffset":0,"componentType":5123,"count":5712,"type":"SCALAR"},{"bufferView":1,"byteOffset":0,"componentType":5126,"count":3374,"max":[0.767532765865326,1.90119552612305,2.05406260490417],"min":[-0.76753377914429,-0.00000005960464,-2.05406260490417],"type":"VEC3"},{"bufferView":2,"byteOffset":0,"componentType":5126,"count":3374,"type":"VEC3"},{"bufferView":3,"byteOffset":0,"componentType":5126,"count":3374,"type":"VEC2"}],"asset":{"generator":"FBX2glTF v0.13.1","version":"2.0"},"bufferViews":[{"buffer":0,"byteLength":11424,"byteOffset":0,"target":34963},{"buffer":0,"byteLength":40488,"byteOffset":11424,"target":34962},{"buffer":0,"byteLength":40488,"byteOffset":51912,"target":34962},{"buffer":0,"byteLength":26992,"byteOffset":92400,"target":34962}],"buffers":[{"byteLength":119392,"uri":"SM_railway_carriage_02.bin"}],"images":[{"name":"Polygon_Texture_vol2","uri":"Polygon_Texture_vol2.png"}],"materials":[{"alphaMode":"OPAQUE","doubleSided":false,"extras":{"fromFBX":{"isTruePBR":false,"shadingModel":"Phong"}},"name":"Material","pbrMetallicRoughness":{"baseColorFactor":[1,1,1,1],"baseColorTexture":{"index":0,"texCoord":0},"metallicFactor":0.400000005960464,"roughnessFactor":0.229415729641914}}],"meshes":[{"name":"railway_carriage_02","primitives":[{"attributes":{"NORMAL":2,"POSITION":1,"TEXCOORD_0":3},"indices":0,"material":0,"mode":4}]}],"nodes":[{"mesh":0,"name":"railway_carriage_02","rotation":[0,0,0,1],"scale":[1,1,1],"translation":[9.32046508789062,0.0474855899810791,13.2376937866211]}],"samplers":[{}],"scene":0,"scenes":[{"name":"Root Scene","nodes":[0]}],"textures":[{"name":"base_color_texture","sampler":0,"source":0}]}