{"accessors":[{"bufferView":0,"byteOffset":0,"componentType":5123,"count":888,"type":"SCALAR"},{"bufferView":1,"byteOffset":0,"componentType":5126,"count":590,"max":[2.77912521362305,0.0673171058297157,6.64902687072754],"min":[-0.75000011920929,-0.07277504354715,-0.16480922698975],"type":"VEC3"},{"bufferView":2,"byteOffset":0,"componentType":5126,"count":590,"type":"VEC3"},{"bufferView":3,"byteOffset":0,"componentType":5126,"count":590,"type":"VEC2"}],"asset":{"generator":"FBX2glTF v0.13.1","version":"2.0"},"bufferViews":[{"buffer":0,"byteLength":1776,"byteOffset":0,"target":34963},{"buffer":0,"byteLength":7080,"byteOffset":1776,"target":34962},{"buffer":0,"byteLength":7080,"byteOffset":8856,"target":34962},{"buffer":0,"byteLength":4720,"byteOffset":15936,"target":34962}],"buffers":[{"byteLength":20656,"uri":"SM_rails_05.bin"}],"images":[{"name":"Polygon_Texture_vol2","uri":"Polygon_Texture_vol2.png"}],"materials":[{"alphaMode":"OPAQUE","doubleSided":false,"extras":{"fromFBX":{"isTruePBR":false,"shadingModel":"Phong"}},"name":"Material","pbrMetallicRoughness":{"baseColorFactor":[1,1,1,1],"baseColorTexture":{"index":0,"texCoord":0},"metallicFactor":0.400000005960464,"roughnessFactor":0.229415729641914}}],"meshes":[{"name":"rails_05","primitives":[{"attributes":{"NORMAL":2,"POSITION":1,"TEXCOORD_0":3},"indices":0,"material":0,"mode":4}]}],"nodes":[{"mesh":0,"name":"rails_05","rotation":[0,0,0,1],"scale":[1,1,1],"translation":[24.2799415588379,0.0727750435471535,25.2204971313477]}],"samplers":[{}],"scene":0,"scenes":[{"name":"Root Scene","nodes":[0]}],"textures":[{"name":"base_color_texture","sampler":0,"source":0}]}