{"accessors":[{"bufferView":0,"byteOffset":0,"componentType":5123,"count":4311,"type":"SCALAR"},{"bufferView":1,"byteOffset":0,"componentType":5126,"count":2517,"max":[8.30612277984619,8.03372383117676,5.86433410644531],"min":[-8.30612277984619,-0.00000000000003,-5.86433458328247],"type":"VEC3"},{"bufferView":2,"byteOffset":0,"componentType":5126,"count":2517,"type":"VEC3"},{"bufferView":3,"byteOffset":0,"componentType":5126,"count":2517,"type":"VEC2"}],"asset":{"generator":"FBX2glTF v0.13.1","version":"2.0"},"bufferViews":[{"buffer":0,"byteLength":8622,"byteOffset":0,"target":34963},{"buffer":0,"byteLength":30204,"byteOffset":8624,"target":34962},{"buffer":0,"byteLength":30204,"byteOffset":38828,"target":34962},{"buffer":0,"byteLength":20136,"byteOffset":69032,"target":34962}],"buffers":[{"byteLength":89168,"uri":"SM_railway_station_01.bin"}],"images":[{"name":"Polygon_Texture_vol2","uri":"Polygon_Texture_vol2.png"}],"materials":[{"alphaMode":"OPAQUE","doubleSided":false,"extras":{"fromFBX":{"isTruePBR":false,"shadingModel":"Phong"}},"name":"Material","pbrMetallicRoughness":{"baseColorFactor":[1,1,1,1],"baseColorTexture":{"index":0,"texCoord":0},"metallicFactor":0.400000005960464,"roughnessFactor":0.229415729641914}}],"meshes":[{"name":"railway_station_01","primitives":[{"attributes":{"NORMAL":2,"POSITION":1,"TEXCOORD_0":3},"indices":0,"material":0,"mode":4}]}],"nodes":[{"mesh":0,"name":"railway_station_01","rotation":[0,0,0,1],"scale":[1,1,1],"translation":[10.0025024414062,0,-13.6080760955811]}],"samplers":[{}],"scene":0,"scenes":[{"name":"Root Scene","nodes":[0]}],"textures":[{"name":"base_color_texture","sampler":0,"source":0}]}