{"accessors":[{"bufferView":0,"byteOffset":0,"componentType":5123,"count":7143,"type":"SCALAR"},{"bufferView":1,"byteOffset":0,"componentType":5126,"count":3648,"max":[2.95816802978516,0.140092149376869,7.55368900299072],"min":[-2.9581663608551,0,-8.44631195068359],"type":"VEC3"},{"bufferView":2,"byteOffset":0,"componentType":5126,"count":3648,"type":"VEC3"},{"bufferView":3,"byteOffset":0,"componentType":5126,"count":3648,"type":"VEC2"}],"asset":{"generator":"FBX2glTF v0.13.1","version":"2.0"},"bufferViews":[{"buffer":0,"byteLength":14286,"byteOffset":0,"target":34963},{"buffer":0,"byteLength":43776,"byteOffset":14288,"target":34962},{"buffer":0,"byteLength":43776,"byteOffset":58064,"target":34962},{"buffer":0,"byteLength":29184,"byteOffset":101840,"target":34962}],"buffers":[{"byteLength":131024,"uri":"SM_rails_07.bin"}],"images":[{"name":"Polygon_Texture_vol2","uri":"Polygon_Texture_vol2.png"}],"materials":[{"alphaMode":"OPAQUE","doubleSided":false,"extras":{"fromFBX":{"isTruePBR":false,"shadingModel":"Phong"}},"name":"Material","pbrMetallicRoughness":{"baseColorFactor":[1,1,1,1],"baseColorTexture":{"index":0,"texCoord":0},"metallicFactor":0.400000005960464,"roughnessFactor":0.229415729641914}}],"meshes":[{"name":"rails_07","primitives":[{"attributes":{"NORMAL":2,"POSITION":1,"TEXCOORD_0":3},"indices":0,"material":0,"mode":4}]}],"nodes":[{"mesh":0,"name":"rails_07","rotation":[0,0,0,1],"scale":[1,1,1],"translation":[38.2825775146484,0,30.4264717102051]}],"samplers":[{}],"scene":0,"scenes":[{"name":"Root Scene","nodes":[0]}],"textures":[{"name":"base_color_texture","sampler":0,"source":0}]}