{"accessors":[{"bufferView":0,"byteOffset":0,"componentType":5123,"count":918,"type":"SCALAR"},{"bufferView":1,"byteOffset":0,"componentType":5126,"count":562,"max":[0.141867607831955,2,0.198435246944427],"min":[-0.14186570048332,0,-0.03164851665497],"type":"VEC3"},{"bufferView":2,"byteOffset":0,"componentType":5126,"count":562,"type":"VEC3"},{"bufferView":3,"byteOffset":0,"componentType":5126,"count":562,"type":"VEC2"}],"asset":{"generator":"FBX2glTF v0.13.1","version":"2.0"},"bufferViews":[{"buffer":0,"byteLength":1836,"byteOffset":0,"target":34963},{"buffer":0,"byteLength":6744,"byteOffset":1836,"target":34962},{"buffer":0,"byteLength":6744,"byteOffset":8580,"target":34962},{"buffer":0,"byteLength":4496,"byteOffset":15324,"target":34962}],"buffers":[{"byteLength":19820,"uri":"SM_railway_traffic_light_01.bin"}],"images":[{"name":"Polygon_Texture_vol2","uri":"Polygon_Texture_vol2.png"}],"materials":[{"alphaMode":"OPAQUE","doubleSided":false,"extras":{"fromFBX":{"isTruePBR":false,"shadingModel":"Phong"}},"name":"Material","pbrMetallicRoughness":{"baseColorFactor":[1,1,1,1],"baseColorTexture":{"index":0,"texCoord":0},"metallicFactor":0.400000005960464,"roughnessFactor":0.229415729641914}}],"meshes":[{"name":"railway_traffic_light_01","primitives":[{"attributes":{"NORMAL":2,"POSITION":1,"TEXCOORD_0":3},"indices":0,"material":0,"mode":4}]}],"nodes":[{"mesh":0,"name":"railway_traffic_light_01","rotation":[0,0,0,1],"scale":[1,1,1],"translation":[12.0141534805298,0,17.9341411590576]}],"samplers":[{}],"scene":0,"scenes":[{"name":"Root Scene","nodes":[0]}],"textures":[{"name":"base_color_texture","sampler":0,"source":0}]}