{"accessors":[{"bufferView":0,"byteOffset":0,"componentType":5123,"count":6516,"type":"SCALAR"},{"bufferView":1,"byteOffset":0,"componentType":5126,"count":3900,"max":[0.767532765865326,1.83272302150726,2.05406451225281],"min":[-0.76753377914429,-0.00000005960464,-2.05406069755554],"type":"VEC3"},{"bufferView":2,"byteOffset":0,"componentType":5126,"count":3900,"type":"VEC3"},{"bufferView":3,"byteOffset":0,"componentType":5126,"count":3900,"type":"VEC2"}],"asset":{"generator":"FBX2glTF v0.13.1","version":"2.0"},"bufferViews":[{"buffer":0,"byteLength":13032,"byteOffset":0,"target":34963},{"buffer":0,"byteLength":46800,"byteOffset":13032,"target":34962},{"buffer":0,"byteLength":46800,"byteOffset":59832,"target":34962},{"buffer":0,"byteLength":31200,"byteOffset":106632,"target":34962}],"buffers":[{"byteLength":137832,"uri":"SM_railway_carriage_01.bin"}],"images":[{"name":"Polygon_Texture_vol2","uri":"Polygon_Texture_vol2.png"}],"materials":[{"alphaMode":"OPAQUE","doubleSided":false,"extras":{"fromFBX":{"isTruePBR":false,"shadingModel":"Phong"}},"name":"Material","pbrMetallicRoughness":{"baseColorFactor":[1,1,1,1],"baseColorTexture":{"index":0,"texCoord":0},"metallicFactor":0.400000005960464,"roughnessFactor":0.229415729641914}}],"meshes":[{"name":"railway_carriage_01","primitives":[{"attributes":{"NORMAL":2,"POSITION":1,"TEXCOORD_0":3},"indices":0,"material":0,"mode":4}]}],"nodes":[{"mesh":0,"name":"railway_carriage_01","rotation":[0,0,0,1],"scale":[1,1,1],"translation":[9.32046508789062,0.0474855899810791,17.4671726226807]}],"samplers":[{}],"scene":0,"scenes":[{"name":"Root Scene","nodes":[0]}],"textures":[{"name":"base_color_texture","sampler":0,"source":0}]}