{"accessors":[{"bufferView":0,"byteOffset":0,"componentType":5123,"count":4566,"type":"SCALAR"},{"bufferView":1,"byteOffset":0,"componentType":5126,"count":2150,"max":[2.77912521362305,0.140092149376869,4.00000095367432],"min":[-0.75000011920929,0,-3.99999904632568],"type":"VEC3"},{"bufferView":2,"byteOffset":0,"componentType":5126,"count":2150,"type":"VEC3"},{"bufferView":3,"byteOffset":0,"componentType":5126,"count":2150,"type":"VEC2"}],"asset":{"generator":"FBX2glTF v0.13.1","version":"2.0"},"bufferViews":[{"buffer":0,"byteLength":9132,"byteOffset":0,"target":34963},{"buffer":0,"byteLength":25800,"byteOffset":9132,"target":34962},{"buffer":0,"byteLength":25800,"byteOffset":34932,"target":34962},{"buffer":0,"byteLength":17200,"byteOffset":60732,"target":34962}],"buffers":[{"byteLength":77932,"uri":"SM_rails_08.bin"}],"images":[{"name":"Polygon_Texture_vol2","uri":"Polygon_Texture_vol2.png"}],"materials":[{"alphaMode":"OPAQUE","doubleSided":false,"extras":{"fromFBX":{"isTruePBR":false,"shadingModel":"Phong"}},"name":"Material","pbrMetallicRoughness":{"baseColorFactor":[1,1,1,1],"baseColorTexture":{"index":0,"texCoord":0},"metallicFactor":0.400000005960464,"roughnessFactor":0.229415729641914}}],"meshes":[{"name":"rails_08","primitives":[{"attributes":{"NORMAL":2,"POSITION":1,"TEXCOORD_0":3},"indices":0,"material":0,"mode":4}]}],"nodes":[{"mesh":0,"name":"rails_08","rotation":[0,0,0,1],"scale":[1,1,1],"translation":[31.5651359558105,0,33.6788558959961]}],"samplers":[{}],"scene":0,"scenes":[{"name":"Root Scene","nodes":[0]}],"textures":[{"name":"base_color_texture","sampler":0,"source":0}]}