{"accessors":[{"bufferView":0,"byteOffset":0,"componentType":5123,"count":600,"type":"SCALAR"},{"bufferView":1,"byteOffset":0,"componentType":5126,"count":400,"max":[0.75,0.140092149376869,4.00000095367432],"min":[-0.75000011920929,0,-3.99999904632568],"type":"VEC3"},{"bufferView":2,"byteOffset":0,"componentType":5126,"count":400,"type":"VEC3"},{"bufferView":3,"byteOffset":0,"componentType":5126,"count":400,"type":"VEC2"}],"asset":{"generator":"FBX2glTF v0.13.1","version":"2.0"},"bufferViews":[{"buffer":0,"byteLength":1200,"byteOffset":0,"target":34963},{"buffer":0,"byteLength":4800,"byteOffset":1200,"target":34962},{"buffer":0,"byteLength":4800,"byteOffset":6000,"target":34962},{"buffer":0,"byteLength":3200,"byteOffset":10800,"target":34962}],"buffers":[{"byteLength":14000,"uri":"SM_rails_01.bin"}],"images":[{"name":"Polygon_Texture_vol2","uri":"Polygon_Texture_vol2.png"}],"materials":[{"alphaMode":"OPAQUE","doubleSided":false,"extras":{"fromFBX":{"isTruePBR":false,"shadingModel":"Phong"}},"name":"Material","pbrMetallicRoughness":{"baseColorFactor":[1,1,1,1],"baseColorTexture":{"index":0,"texCoord":0},"metallicFactor":0.400000005960464,"roughnessFactor":0.229415729641914}}],"meshes":[{"name":"rails_01","primitives":[{"attributes":{"NORMAL":2,"POSITION":1,"TEXCOORD_0":3},"indices":0,"material":0,"mode":4}]}],"nodes":[{"mesh":0,"name":"rails_01","rotation":[0,0,0,1],"scale":[1,1,1],"translation":[24.2799415588379,0,4.42274475097656]}],"samplers":[{}],"scene":0,"scenes":[{"name":"Root Scene","nodes":[0]}],"textures":[{"name":"base_color_texture","sampler":0,"source":0}]}