{"accessors":[{"bufferView":0,"byteOffset":0,"componentType":5123,"count":7806,"type":"SCALAR"},{"bufferView":1,"byteOffset":0,"componentType":5126,"count":4834,"max":[0.817015290260315,2.1099545955658,2.88871765136719],"min":[-0.81701511144638,0,-2.00000023841858],"type":"VEC3"},{"bufferView":2,"byteOffset":0,"componentType":5126,"count":4834,"type":"VEC3"},{"bufferView":3,"byteOffset":0,"componentType":5126,"count":4834,"type":"VEC2"},{"bufferView":4,"byteOffset":0,"componentType":5123,"count":132,"type":"SCALAR"},{"bufferView":5,"byteOffset":0,"componentType":5126,"count":80,"max":[0.746337413787842,1.57866716384888,2.83001112937927],"min":[-0.74633723497391,0.68705689907074,-1.93670988082886],"type":"VEC3"},{"bufferView":6,"byteOffset":0,"componentType":5126,"count":80,"type":"VEC3"},{"bufferView":7,"byteOffset":0,"componentType":5126,"count":80,"type":"VEC2"}],"asset":{"generator":"FBX2glTF v0.13.1","version":"2.0"},"bufferViews":[{"buffer":0,"byteLength":15612,"byteOffset":0,"target":34963},{"buffer":0,"byteLength":58008,"byteOffset":15612,"target":34962},{"buffer":0,"byteLength":58008,"byteOffset":73620,"target":34962},{"buffer":0,"byteLength":38672,"byteOffset":131628,"target":34962},{"buffer":0,"byteLength":264,"byteOffset":170300,"target":34963},{"buffer":0,"byteLength":960,"byteOffset":170564,"target":34962},{"buffer":0,"byteLength":960,"byteOffset":171524,"target":34962},{"buffer":0,"byteLength":640,"byteOffset":172484,"target":34962}],"buffers":[{"byteLength":173124,"uri":"SM_suburban_electric_train_01.bin"}],"images":[{"name":"Polygon_Texture_vol2","uri":"Polygon_Texture_vol2.png"}],"materials":[{"alphaMode":"OPAQUE","doubleSided":false,"extras":{"fromFBX":{"isTruePBR":false,"shadingModel":"Phong"}},"name":"Material","pbrMetallicRoughness":{"baseColorFactor":[1,1,1,1],"baseColorTexture":{"index":0,"texCoord":0},"metallicFactor":0.400000005960464,"roughnessFactor":0.229415729641914}},{"alphaMode":"OPAQUE","doubleSided":false,"extras":{"fromFBX":{"isTruePBR":false,"shadingModel":"Phong"}},"name":"Material.001","pbrMetallicRoughness":{"baseColorFactor":[0.800000071525574,0,0.00911247916519642,1],"metallicFactor":0.400000005960464,"roughnessFactor":0.272165536880493}}],"meshes":[{"name":"suburban_electric_train_01","primitives":[{"attributes":{"NORMAL":2,"POSITION":1,"TEXCOORD_0":3},"indices":0,"material":0,"mode":4},{"attributes":{"NORMAL":6,"POSITION":5,"TEXCOORD_0":7},"indices":4,"material":1,"mode":4}]}],"nodes":[{"mesh":0,"name":"suburban_electric_train_01","rotation":[0,0,0,1],"scale":[1,1,1],"translation":[6.49551296234131,0.0531532764434814,18.3813037872314]}],"samplers":[{}],"scene":0,"scenes":[{"name":"Root Scene","nodes":[0]}],"textures":[{"name":"base_color_texture","sampler":0,"source":0}]}