{"accessors":[{"bufferView":0,"byteOffset":0,"componentType":5123,"count":3828,"type":"SCALAR"},{"bufferView":1,"byteOffset":0,"componentType":5126,"count":2181,"max":[10.8425140380859,10.045581817627,1.26824903488159],"min":[-11.1574840545654,-0.00000000001722,-14.7317504882812],"type":"VEC3"},{"bufferView":2,"byteOffset":0,"componentType":5126,"count":2181,"type":"VEC3"},{"bufferView":3,"byteOffset":0,"componentType":5126,"count":2181,"type":"VEC2"},{"bufferView":4,"byteOffset":0,"componentType":5123,"count":258,"type":"SCALAR"},{"bufferView":5,"byteOffset":0,"componentType":5126,"count":172,"max":[10.7785692214966,6.52743816375732,1.23240637779236],"min":[-10.3692245483398,0.0810760110616684,-13.37073802948],"type":"VEC3"},{"bufferView":6,"byteOffset":0,"componentType":5126,"count":172,"type":"VEC3"},{"bufferView":7,"byteOffset":0,"componentType":5126,"count":172,"type":"VEC2"}],"asset":{"generator":"FBX2glTF v0.13.1","version":"2.0"},"bufferViews":[{"buffer":0,"byteLength":7656,"byteOffset":0,"target":34963},{"buffer":0,"byteLength":26172,"byteOffset":7656,"target":34962},{"buffer":0,"byteLength":26172,"byteOffset":33828,"target":34962},{"buffer":0,"byteLength":17448,"byteOffset":60000,"target":34962},{"buffer":0,"byteLength":516,"byteOffset":77448,"target":34963},{"buffer":0,"byteLength":2064,"byteOffset":77964,"target":34962},{"buffer":0,"byteLength":2064,"byteOffset":80028,"target":34962},{"buffer":0,"byteLength":1376,"byteOffset":82092,"target":34962}],"buffers":[{"byteLength":83468,"uri":"SM_tram_depot_01.bin"}],"images":[{"name":"Polygon_Texture_vol2","uri":"Polygon_Texture_vol2.png"}],"materials":[{"alphaMode":"OPAQUE","doubleSided":false,"extras":{"fromFBX":{"isTruePBR":false,"shadingModel":"Phong"}},"name":"Material","pbrMetallicRoughness":{"baseColorFactor":[1,1,1,1],"baseColorTexture":{"index":0,"texCoord":0},"metallicFactor":0.400000005960464,"roughnessFactor":0.229415729641914}},{"alphaMode":"OPAQUE","doubleSided":false,"extras":{"fromFBX":{"isTruePBR":false,"shadingModel":"Phong"}},"name":"Material.001","pbrMetallicRoughness":{"baseColorFactor":[0.800000071525574,0,0.00911247916519642,1],"metallicFactor":0.400000005960464,"roughnessFactor":0.272165536880493}}],"meshes":[{"name":"tram_depot_01","primitives":[{"attributes":{"NORMAL":2,"POSITION":1,"TEXCOORD_0":3},"indices":0,"material":0,"mode":4},{"attributes":{"NORMAL":6,"POSITION":5,"TEXCOORD_0":7},"indices":4,"material":1,"mode":4}]}],"nodes":[{"mesh":0,"name":"tram_depot_01","rotation":[0,0,0,1],"scale":[1,1,1],"translation":[54.7133865356445,0.0000000000172249350199882,6.88076639175415]}],"samplers":[{}],"scene":0,"scenes":[{"name":"Root Scene","nodes":[0]}],"textures":[{"name":"base_color_texture","sampler":0,"source":0}]}