{"accessors":[{"bufferView":0,"byteOffset":0,"componentType":5123,"count":825,"type":"SCALAR"},{"bufferView":1,"byteOffset":0,"componentType":5126,"count":487,"max":[3.25268054008484,0.0350379310548306,4.18687343597412],"min":[-3.24995684623718,-0.04107314348221,-2.88419389724731],"type":"VEC3"},{"bufferView":2,"byteOffset":0,"componentType":5126,"count":487,"type":"VEC3"},{"bufferView":3,"byteOffset":0,"componentType":5126,"count":487,"type":"VEC2"}],"asset":{"generator":"FBX2glTF v0.13.1","version":"2.0"},"bufferViews":[{"buffer":0,"byteLength":1650,"byteOffset":0,"target":34963},{"buffer":0,"byteLength":5844,"byteOffset":1652,"target":34962},{"buffer":0,"byteLength":5844,"byteOffset":7496,"target":34962},{"buffer":0,"byteLength":3896,"byteOffset":13340,"target":34962}],"buffers":[{"byteLength":17236,"uri":"SM_tram_rails_06.bin"}],"images":[{"name":"Polygon_Texture_vol2","uri":"Polygon_Texture_vol2.png"}],"materials":[{"alphaMode":"OPAQUE","doubleSided":false,"extras":{"fromFBX":{"isTruePBR":false,"shadingModel":"Phong"}},"name":"Material","pbrMetallicRoughness":{"baseColorFactor":[1,1,1,1],"baseColorTexture":{"index":0,"texCoord":0},"metallicFactor":0.400000005960464,"roughnessFactor":0.229415729641914}}],"meshes":[{"name":"tram_rails_06","primitives":[{"attributes":{"NORMAL":2,"POSITION":1,"TEXCOORD_0":3},"indices":0,"material":0,"mode":4}]}],"nodes":[{"mesh":0,"name":"tram_rails_06","rotation":[0,0,0,1],"scale":[1,1,1],"translation":[61.4645881652832,0.0845532938838005,36.1814651489258]}],"samplers":[{}],"scene":0,"scenes":[{"name":"Root Scene","nodes":[0]}],"textures":[{"name":"base_color_texture","sampler":0,"source":0}]}