{"accessors":[{"bufferView":0,"byteOffset":0,"componentType":5123,"count":612,"type":"SCALAR"},{"bufferView":1,"byteOffset":0,"componentType":5126,"count":326,"max":[3.25131678581238,0.0380555391311646,3.99999904632568],"min":[-0.77832937240601,-0.03805553913116,-4.00000095367432],"type":"VEC3"},{"bufferView":2,"byteOffset":0,"componentType":5126,"count":326,"type":"VEC3"},{"bufferView":3,"byteOffset":0,"componentType":5126,"count":326,"type":"VEC2"}],"asset":{"generator":"FBX2glTF v0.13.1","version":"2.0"},"bufferViews":[{"buffer":0,"byteLength":1224,"byteOffset":0,"target":34963},{"buffer":0,"byteLength":3912,"byteOffset":1224,"target":34962},{"buffer":0,"byteLength":3912,"byteOffset":5136,"target":34962},{"buffer":0,"byteLength":2608,"byteOffset":9048,"target":34962}],"buffers":[{"byteLength":11656,"uri":"SM_tram_rails_07.bin"}],"images":[{"name":"Polygon_Texture_vol2","uri":"Polygon_Texture_vol2.png"}],"materials":[{"alphaMode":"OPAQUE","doubleSided":false,"extras":{"fromFBX":{"isTruePBR":false,"shadingModel":"Phong"}},"name":"Material","pbrMetallicRoughness":{"baseColorFactor":[1,1,1,1],"baseColorTexture":{"index":0,"texCoord":0},"metallicFactor":0.400000005960464,"roughnessFactor":0.229415729641914}}],"meshes":[{"name":"tram_rails_07","primitives":[{"attributes":{"NORMAL":2,"POSITION":1,"TEXCOORD_0":3},"indices":0,"material":0,"mode":4}]}],"nodes":[{"mesh":0,"name":"tram_rails_07","rotation":[0,0,0,1],"scale":[1,1,1],"translation":[66.6873397827148,0.0815356969833374,36.3995895385742]}],"samplers":[{}],"scene":0,"scenes":[{"name":"Root Scene","nodes":[0]}],"textures":[{"name":"base_color_texture","sampler":0,"source":0}]}