{"accessors":[{"bufferView":0,"byteOffset":0,"componentType":5123,"count":3372,"type":"SCALAR"},{"bufferView":1,"byteOffset":0,"componentType":5126,"count":2120,"max":[0.80780041217804,-0.06104385852814,2.94329380989075],"min":[-0.81917470693588,-1.8804087638855,-2.00000095367432],"type":"VEC3"},{"bufferView":2,"byteOffset":0,"componentType":5126,"count":2120,"type":"VEC3"},{"bufferView":3,"byteOffset":0,"componentType":5126,"count":2120,"type":"VEC2"},{"bufferView":4,"byteOffset":0,"componentType":5123,"count":246,"type":"SCALAR"},{"bufferView":5,"byteOffset":0,"componentType":5126,"count":156,"max":[0.798030853271484,-0.0859816595912,2.87303185462952],"min":[-0.80399715900421,-1.24158334732056,-1.75605392456055],"type":"VEC3"},{"bufferView":6,"byteOffset":0,"componentType":5126,"count":156,"type":"VEC3"},{"bufferView":7,"byteOffset":0,"componentType":5126,"count":156,"type":"VEC2"}],"asset":{"generator":"FBX2glTF v0.13.1","version":"2.0"},"bufferViews":[{"buffer":0,"byteLength":6744,"byteOffset":0,"target":34963},{"buffer":0,"byteLength":25440,"byteOffset":6744,"target":34962},{"buffer":0,"byteLength":25440,"byteOffset":32184,"target":34962},{"buffer":0,"byteLength":16960,"byteOffset":57624,"target":34962},{"buffer":0,"byteLength":492,"byteOffset":74584,"target":34963},{"buffer":0,"byteLength":1872,"byteOffset":75076,"target":34962},{"buffer":0,"byteLength":1872,"byteOffset":76948,"target":34962},{"buffer":0,"byteLength":1248,"byteOffset":78820,"target":34962}],"buffers":[{"byteLength":80068,"uri":"SM_tram_01.bin"}],"images":[{"name":"Polygon_Texture_vol2","uri":"Polygon_Texture_vol2.png"}],"materials":[{"alphaMode":"OPAQUE","doubleSided":false,"extras":{"fromFBX":{"isTruePBR":false,"shadingModel":"Phong"}},"name":"Material","pbrMetallicRoughness":{"baseColorFactor":[1,1,1,1],"baseColorTexture":{"index":0,"texCoord":0},"metallicFactor":0.400000005960464,"roughnessFactor":0.229415729641914}},{"alphaMode":"OPAQUE","doubleSided":false,"extras":{"fromFBX":{"isTruePBR":false,"shadingModel":"Phong"}},"name":"Material.001","pbrMetallicRoughness":{"baseColorFactor":[0.800000071525574,0,0.00911247916519642,1],"metallicFactor":0.400000005960464,"roughnessFactor":0.272165536880493}}],"meshes":[{"name":"tram_01","primitives":[{"attributes":{"NORMAL":2,"POSITION":1,"TEXCOORD_0":3},"indices":0,"material":0,"mode":4},{"attributes":{"NORMAL":6,"POSITION":5,"TEXCOORD_0":7},"indices":4,"material":1,"mode":4}]}],"nodes":[{"mesh":0,"name":"tram_01","rotation":[0,0,0,1],"scale":[1,1,1],"translation":[46.2836647033691,2,19.3915252685547]}],"samplers":[{}],"scene":0,"scenes":[{"name":"Root Scene","nodes":[0]}],"textures":[{"name":"base_color_texture","sampler":0,"source":0}]}