{"accessors":[{"bufferView":0,"byteOffset":0,"componentType":5123,"count":414,"type":"SCALAR"},{"bufferView":1,"byteOffset":0,"componentType":5126,"count":250,"max":[2.24596858024597,0.0428124815225601,3.66775679588318],"min":[-1.78367745876312,-0.03329859673977,-3.4033100605011],"type":"VEC3"},{"bufferView":2,"byteOffset":0,"componentType":5126,"count":250,"type":"VEC3"},{"bufferView":3,"byteOffset":0,"componentType":5126,"count":250,"type":"VEC2"}],"asset":{"generator":"FBX2glTF v0.13.1","version":"2.0"},"bufferViews":[{"buffer":0,"byteLength":828,"byteOffset":0,"target":34963},{"buffer":0,"byteLength":3000,"byteOffset":828,"target":34962},{"buffer":0,"byteLength":3000,"byteOffset":3828,"target":34962},{"buffer":0,"byteLength":2000,"byteOffset":6828,"target":34962}],"buffers":[{"byteLength":8828,"uri":"SM_tram_rails_04.bin"}],"images":[{"name":"Polygon_Texture_vol2","uri":"Polygon_Texture_vol2.png"}],"materials":[{"alphaMode":"OPAQUE","doubleSided":false,"extras":{"fromFBX":{"isTruePBR":false,"shadingModel":"Phong"}},"name":"Material","pbrMetallicRoughness":{"baseColorFactor":[1,1,1,1],"baseColorTexture":{"index":0,"texCoord":0},"metallicFactor":0.400000005960464,"roughnessFactor":0.229415729641914}}],"meshes":[{"name":"tram_rails_04","primitives":[{"attributes":{"NORMAL":2,"POSITION":1,"TEXCOORD_0":3},"indices":0,"material":0,"mode":4}]}],"nodes":[{"mesh":0,"name":"tram_rails_04","rotation":[0,0,0,1],"scale":[1,1,1],"translation":[49.8068656921387,0.0767787545919418,37.8471946716309]}],"samplers":[{}],"scene":0,"scenes":[{"name":"Root Scene","nodes":[0]}],"textures":[{"name":"base_color_texture","sampler":0,"source":0}]}