{"accessors":[{"bufferView":0,"byteOffset":0,"componentType":5123,"count":150,"type":"SCALAR"},{"bufferView":1,"byteOffset":0,"componentType":5126,"count":76,"max":[0.778326392173767,0.0380555391311646,3.99999904632568],"min":[-0.77832639217377,-0.03805553913116,-4.00000095367432],"type":"VEC3"},{"bufferView":2,"byteOffset":0,"componentType":5126,"count":76,"type":"VEC3"},{"bufferView":3,"byteOffset":0,"componentType":5126,"count":76,"type":"VEC2"}],"asset":{"generator":"FBX2glTF v0.13.1","version":"2.0"},"bufferViews":[{"buffer":0,"byteLength":300,"byteOffset":0,"target":34963},{"buffer":0,"byteLength":912,"byteOffset":300,"target":34962},{"buffer":0,"byteLength":912,"byteOffset":1212,"target":34962},{"buffer":0,"byteLength":608,"byteOffset":2124,"target":34962}],"buffers":[{"byteLength":2732,"uri":"SM_tram_rails_01.bin"}],"images":[{"name":"Polygon_Texture_vol2","uri":"Polygon_Texture_vol2.png"}],"materials":[{"alphaMode":"OPAQUE","doubleSided":false,"extras":{"fromFBX":{"isTruePBR":false,"shadingModel":"Phong"}},"name":"Material","pbrMetallicRoughness":{"baseColorFactor":[1,1,1,1],"baseColorTexture":{"index":0,"texCoord":0},"metallicFactor":0.400000005960464,"roughnessFactor":0.229415729641914}}],"meshes":[{"name":"tram_rails_01","primitives":[{"attributes":{"NORMAL":2,"POSITION":1,"TEXCOORD_0":3},"indices":0,"material":0,"mode":4}]}],"nodes":[{"mesh":0,"name":"tram_rails_01","rotation":[0,0,0,1],"scale":[1,1,1],"translation":[48.801513671875,0.0815356969833374,14.911111831665]}],"samplers":[{}],"scene":0,"scenes":[{"name":"Root Scene","nodes":[0]}],"textures":[{"name":"base_color_texture","sampler":0,"source":0}]}