{"accessors":[{"bufferView":0,"byteOffset":0,"componentType":5123,"count":1404,"type":"SCALAR"},{"bufferView":1,"byteOffset":0,"componentType":5126,"count":900,"max":[10.0000066757202,0.0428124815225601,4.42036199569702],"min":[-9.99999237060547,-0.03329859673977,-5.57964086532593],"type":"VEC3"},{"bufferView":2,"byteOffset":0,"componentType":5126,"count":900,"type":"VEC3"},{"bufferView":3,"byteOffset":0,"componentType":5126,"count":900,"type":"VEC2"}],"asset":{"generator":"FBX2glTF v0.13.1","version":"2.0"},"bufferViews":[{"buffer":0,"byteLength":2808,"byteOffset":0,"target":34963},{"buffer":0,"byteLength":10800,"byteOffset":2808,"target":34962},{"buffer":0,"byteLength":10800,"byteOffset":13608,"target":34962},{"buffer":0,"byteLength":7200,"byteOffset":24408,"target":34962}],"buffers":[{"byteLength":31608,"uri":"SM_tram_rails_09.bin"}],"images":[{"name":"Polygon_Texture_vol2","uri":"Polygon_Texture_vol2.png"}],"materials":[{"alphaMode":"OPAQUE","doubleSided":false,"extras":{"fromFBX":{"isTruePBR":false,"shadingModel":"Phong"}},"name":"Material","pbrMetallicRoughness":{"baseColorFactor":[1,1,1,1],"baseColorTexture":{"index":0,"texCoord":0},"metallicFactor":0.400000005960464,"roughnessFactor":0.229415729641914}}],"meshes":[{"name":"tram_rails_09","primitives":[{"attributes":{"NORMAL":2,"POSITION":1,"TEXCOORD_0":3},"indices":0,"material":0,"mode":4}]}],"nodes":[{"mesh":0,"name":"tram_rails_09","rotation":[0,0,0,1],"scale":[1,1,1],"translation":[58.0231781005859,0.0767787545919418,25.3856945037842]}],"samplers":[{}],"scene":0,"scenes":[{"name":"Root Scene","nodes":[0]}],"textures":[{"name":"base_color_texture","sampler":0,"source":0}]}