{"accessors":[{"bufferView":0,"byteOffset":0,"componentType":5123,"count":1074,"type":"SCALAR"},{"bufferView":1,"byteOffset":0,"componentType":5126,"count":584,"max":[3.47927141189575,0.0380555391311646,7.44963932037354],"min":[-3.47929525375366,-0.03805553913116,-7.44963932037354],"type":"VEC3"},{"bufferView":2,"byteOffset":0,"componentType":5126,"count":584,"type":"VEC3"},{"bufferView":3,"byteOffset":0,"componentType":5126,"count":584,"type":"VEC2"}],"asset":{"generator":"FBX2glTF v0.13.1","version":"2.0"},"bufferViews":[{"buffer":0,"byteLength":2148,"byteOffset":0,"target":34963},{"buffer":0,"byteLength":7008,"byteOffset":2148,"target":34962},{"buffer":0,"byteLength":7008,"byteOffset":9156,"target":34962},{"buffer":0,"byteLength":4672,"byteOffset":16164,"target":34962}],"buffers":[{"byteLength":20836,"uri":"SM_tram_rails_08.bin"}],"images":[{"name":"Polygon_Texture_vol2","uri":"Polygon_Texture_vol2.png"}],"materials":[{"alphaMode":"OPAQUE","doubleSided":false,"extras":{"fromFBX":{"isTruePBR":false,"shadingModel":"Phong"}},"name":"Material","pbrMetallicRoughness":{"baseColorFactor":[1,1,1,1],"baseColorTexture":{"index":0,"texCoord":0},"metallicFactor":0.400000005960464,"roughnessFactor":0.229415729641914}}],"meshes":[{"name":"tram_rails_08","primitives":[{"attributes":{"NORMAL":2,"POSITION":1,"TEXCOORD_0":3},"indices":0,"material":0,"mode":4}]}],"nodes":[{"mesh":0,"name":"tram_rails_08","rotation":[0,0,0,1],"scale":[1,1,1],"translation":[74.276969909668,0.0815356969833374,39.8492279052734]}],"samplers":[{}],"scene":0,"scenes":[{"name":"Root Scene","nodes":[0]}],"textures":[{"name":"base_color_texture","sampler":0,"source":0}]}