{"accessors":[{"bufferView":0,"byteOffset":0,"componentType":5123,"count":3228,"type":"SCALAR"},{"bufferView":1,"byteOffset":0,"componentType":5126,"count":2144,"max":[0.520610153675079,1.73753321170807,0.11817666888237],"min":[-1.03784322738647,-0.0000000002651,-0.11817666888237],"type":"VEC3"},{"bufferView":2,"byteOffset":0,"componentType":5126,"count":2144,"type":"VEC3"},{"bufferView":3,"byteOffset":0,"componentType":5126,"count":2144,"type":"VEC2"}],"asset":{"generator":"FBX2glTF v0.13.1","version":"2.0"},"bufferViews":[{"buffer":0,"byteLength":6456,"byteOffset":0,"target":34963},{"buffer":0,"byteLength":25728,"byteOffset":6456,"target":34962},{"buffer":0,"byteLength":25728,"byteOffset":32184,"target":34962},{"buffer":0,"byteLength":17152,"byteOffset":57912,"target":34962}],"buffers":[{"byteLength":75064,"uri":"SM_anchor.bin"}],"images":[{"name":"Polygon_Texture_vol2","uri":"Polygon_Texture_vol2.png"}],"materials":[{"alphaMode":"OPAQUE","doubleSided":false,"extras":{"fromFBX":{"isTruePBR":false,"shadingModel":"Phong"}},"name":"Material","pbrMetallicRoughness":{"baseColorFactor":[1,1,1,1],"baseColorTexture":{"index":0,"texCoord":0},"metallicFactor":0.400000005960464,"roughnessFactor":0.229415729641914}}],"meshes":[{"name":"anchor","primitives":[{"attributes":{"NORMAL":2,"POSITION":1,"TEXCOORD_0":3},"indices":0,"material":0,"mode":4}]}],"nodes":[{"mesh":0,"name":"anchor","rotation":[0,0,0,1],"scale":[1,1,1],"translation":[21.4331493377686,-0.00724402070045,0.00000322609344038938]}],"samplers":[{}],"scene":0,"scenes":[{"name":"Root Scene","nodes":[0]}],"textures":[{"name":"base_color_texture","sampler":0,"source":0}]}