{"accessors":[{"bufferView":0,"byteOffset":0,"componentType":5123,"count":7590,"type":"SCALAR"},{"bufferView":1,"byteOffset":0,"componentType":5126,"count":4755,"max":[3.3618528842926,2.26248979568481,2.8555748462677],"min":[-3.3618528842926,-2.01675367355347,-4.35271739959717],"type":"VEC3"},{"bufferView":2,"byteOffset":0,"componentType":5126,"count":4755,"type":"VEC3"},{"bufferView":3,"byteOffset":0,"componentType":5126,"count":4755,"type":"VEC2"},{"bufferView":4,"byteOffset":0,"componentType":5123,"count":318,"type":"SCALAR"},{"bufferView":5,"byteOffset":0,"componentType":5126,"count":214,"max":[1.9318516254425,1.90064644813538,2],"min":[-1.9318516254425,-1.00000011920929,-2.28377628326416],"type":"VEC3"},{"bufferView":6,"byteOffset":0,"componentType":5126,"count":214,"type":"VEC3"},{"bufferView":7,"byteOffset":0,"componentType":5126,"count":214,"type":"VEC2"},{"bufferView":8,"byteOffset":0,"componentType":5123,"count":48,"type":"SCALAR"},{"bufferView":9,"byteOffset":0,"componentType":5126,"count":32,"max":[2.17087435722351,-0.98631757497787,2.81264305114746],"min":[-2.17087435722351,-1.24104654788971,2.49558067321777],"type":"VEC3"},{"bufferView":10,"byteOffset":0,"componentType":5126,"count":32,"type":"VEC3"},{"bufferView":11,"byteOffset":0,"componentType":5126,"count":32,"type":"VEC2"}],"asset":{"generator":"FBX2glTF v0.13.1","version":"2.0"},"bufferViews":[{"buffer":0,"byteLength":15180,"byteOffset":0,"target":34963},{"buffer":0,"byteLength":57060,"byteOffset":15180,"target":34962},{"buffer":0,"byteLength":57060,"byteOffset":72240,"target":34962},{"buffer":0,"byteLength":38040,"byteOffset":129300,"target":34962},{"buffer":0,"byteLength":636,"byteOffset":167340,"target":34963},{"buffer":0,"byteLength":2568,"byteOffset":167976,"target":34962},{"buffer":0,"byteLength":2568,"byteOffset":170544,"target":34962},{"buffer":0,"byteLength":1712,"byteOffset":173112,"target":34962},{"buffer":0,"byteLength":96,"byteOffset":174824,"target":34963},{"buffer":0,"byteLength":384,"byteOffset":174920,"target":34962},{"buffer":0,"byteLength":384,"byteOffset":175304,"target":34962},{"buffer":0,"byteLength":256,"byteOffset":175688,"target":34962}],"buffers":[{"byteLength":175944,"uri":"SM_bathyscaphe.bin"}],"images":[{"name":"Polygon_Texture_vol2","uri":"Polygon_Texture_vol2.png"}],"materials":[{"alphaMode":"OPAQUE","doubleSided":false,"extras":{"fromFBX":{"isTruePBR":false,"shadingModel":"Phong"}},"name":"Window","pbrMetallicRoughness":{"baseColorFactor":[0.800000011920929,0.800000011920929,0.800000011920929,1],"metallicFactor":0.400000005960464,"roughnessFactor":0.272165536880493}},{"alphaMode":"OPAQUE","doubleSided":false,"extras":{"fromFBX":{"isTruePBR":false,"shadingModel":"Phong"}},"name":"Material","pbrMetallicRoughness":{"baseColorFactor":[1,1,1,1],"baseColorTexture":{"index":0,"texCoord":0},"metallicFactor":0.400000005960464,"roughnessFactor":0.229415729641914}},{"alphaMode":"OPAQUE","doubleSided":false,"extras":{"fromFBX":{"isTruePBR":false,"shadingModel":"Phong"}},"name":"Yellow","pbrMetallicRoughness":{"baseColorFactor":[0.800000011920929,0.800000011920929,0.800000011920929,1],"metallicFactor":0.400000005960464,"roughnessFactor":0.272165536880493}}],"meshes":[{"name":"bathyscaphe","primitives":[{"attributes":{"NORMAL":2,"POSITION":1,"TEXCOORD_0":3},"indices":0,"material":1,"mode":4},{"attributes":{"NORMAL":6,"POSITION":5,"TEXCOORD_0":7},"indices":4,"material":0,"mode":4},{"attributes":{"NORMAL":10,"POSITION":9,"TEXCOORD_0":11},"indices":8,"material":2,"mode":4}]}],"nodes":[{"mesh":0,"name":"bathyscaphe","rotation":[0,0,0,1],"scale":[1,1,1],"translation":[13.181022644043,0,0]}],"samplers":[{}],"scene":0,"scenes":[{"name":"Root Scene","nodes":[0]}],"textures":[{"name":"base_color_texture","sampler":0,"source":0}]}