{"accessors":[{"bufferView":0,"byteOffset":0,"componentType":5123,"count":588,"type":"SCALAR"},{"bufferView":1,"byteOffset":0,"componentType":5126,"count":380,"max":[0.485798597335815,0.472870409488678,0.572793245315552],"min":[-0.57612746953964,0,-0.48020067811012],"type":"VEC3"},{"bufferView":2,"byteOffset":0,"componentType":5126,"count":380,"type":"VEC3"},{"bufferView":3,"byteOffset":0,"componentType":5126,"count":380,"type":"VEC2"}],"asset":{"generator":"FBX2glTF v0.13.1","version":"2.0"},"bufferViews":[{"buffer":0,"byteLength":1176,"byteOffset":0,"target":34963},{"buffer":0,"byteLength":4560,"byteOffset":1176,"target":34962},{"buffer":0,"byteLength":4560,"byteOffset":5736,"target":34962},{"buffer":0,"byteLength":3040,"byteOffset":10296,"target":34962}],"buffers":[{"byteLength":13336,"uri":"SM_coral_06.bin"}],"images":[{"name":"Polygon_Texture_vol2","uri":"Polygon_Texture_vol2.png"}],"materials":[{"alphaMode":"OPAQUE","doubleSided":false,"extras":{"fromFBX":{"isTruePBR":false,"shadingModel":"Phong"}},"name":"Material","pbrMetallicRoughness":{"baseColorFactor":[1,1,1,1],"baseColorTexture":{"index":0,"texCoord":0},"metallicFactor":0.400000005960464,"roughnessFactor":0.229415729641914}}],"meshes":[{"name":"coral_06","primitives":[{"attributes":{"NORMAL":2,"POSITION":1,"TEXCOORD_0":3},"indices":0,"material":0,"mode":4}]}],"nodes":[{"mesh":0,"name":"coral_06","rotation":[0,0,0,1],"scale":[1,1,1],"translation":[22.958646774292,0,-2.79010677337646]}],"samplers":[{}],"scene":0,"scenes":[{"name":"Root Scene","nodes":[0]}],"textures":[{"name":"base_color_texture","sampler":0,"source":0}]}