{"accessors":[{"bufferView":0,"byteOffset":0,"componentType":5123,"count":2472,"type":"SCALAR"},{"bufferView":1,"byteOffset":0,"componentType":5126,"count":1921,"max":[0.30589634180069,0.632744073867798,0.0276023242622614],"min":[-0.25148010253906,0,-0.02760232426226],"type":"VEC3"},{"bufferView":2,"byteOffset":0,"componentType":5126,"count":1921,"type":"VEC3"},{"bufferView":3,"byteOffset":0,"componentType":5126,"count":1921,"type":"VEC2"}],"asset":{"generator":"FBX2glTF v0.13.1","version":"2.0"},"bufferViews":[{"buffer":0,"byteLength":4944,"byteOffset":0,"target":34963},{"buffer":0,"byteLength":23052,"byteOffset":4944,"target":34962},{"buffer":0,"byteLength":23052,"byteOffset":27996,"target":34962},{"buffer":0,"byteLength":15368,"byteOffset":51048,"target":34962}],"buffers":[{"byteLength":66416,"uri":"SM_coral_03.bin"}],"images":[{"name":"Polygon_Texture_vol2","uri":"Polygon_Texture_vol2.png"}],"materials":[{"alphaMode":"OPAQUE","doubleSided":false,"extras":{"fromFBX":{"isTruePBR":false,"shadingModel":"Phong"}},"name":"Material","pbrMetallicRoughness":{"baseColorFactor":[1,1,1,1],"baseColorTexture":{"index":0,"texCoord":0},"metallicFactor":0.400000005960464,"roughnessFactor":0.229415729641914}}],"meshes":[{"name":"coral_03","primitives":[{"attributes":{"NORMAL":2,"POSITION":1,"TEXCOORD_0":3},"indices":0,"material":0,"mode":4}]}],"nodes":[{"mesh":0,"name":"coral_03","rotation":[0,0,0,1],"scale":[1,1,1],"translation":[22.9866008758545,0,-5.22150421142578]}],"samplers":[{}],"scene":0,"scenes":[{"name":"Root Scene","nodes":[0]}],"textures":[{"name":"base_color_texture","sampler":0,"source":0}]}