{"accessors":[{"bufferView":0,"byteOffset":0,"componentType":5123,"count":14781,"type":"SCALAR"},{"bufferView":1,"byteOffset":0,"componentType":5126,"count":11435,"max":[0.360400468111038,0.651578724384308,0.34301570057869],"min":[-0.35342243313789,-0.00246106483974,-0.37076631188393],"type":"VEC3"},{"bufferView":2,"byteOffset":0,"componentType":5126,"count":11435,"type":"VEC3"},{"bufferView":3,"byteOffset":0,"componentType":5126,"count":11435,"type":"VEC2"}],"asset":{"generator":"FBX2glTF v0.13.1","version":"2.0"},"bufferViews":[{"buffer":0,"byteLength":29562,"byteOffset":0,"target":34963},{"buffer":0,"byteLength":137220,"byteOffset":29564,"target":34962},{"buffer":0,"byteLength":137220,"byteOffset":166784,"target":34962},{"buffer":0,"byteLength":91480,"byteOffset":304004,"target":34962}],"buffers":[{"byteLength":395484,"uri":"SM_coral_04.bin"}],"images":[{"name":"Polygon_Texture_vol2","uri":"Polygon_Texture_vol2.png"}],"materials":[{"alphaMode":"OPAQUE","doubleSided":false,"extras":{"fromFBX":{"isTruePBR":false,"shadingModel":"Phong"}},"name":"Material","pbrMetallicRoughness":{"baseColorFactor":[1,1,1,1],"baseColorTexture":{"index":0,"texCoord":0},"metallicFactor":0.400000005960464,"roughnessFactor":0.229415729641914}}],"meshes":[{"name":"coral_04","primitives":[{"attributes":{"NORMAL":2,"POSITION":1,"TEXCOORD_0":3},"indices":0,"material":0,"mode":4}]}],"nodes":[{"mesh":0,"name":"coral_04","rotation":[0,0,0,1],"scale":[1,1,1],"translation":[23.0283317565918,0,-4.82030010223389]}],"samplers":[{}],"scene":0,"scenes":[{"name":"Root Scene","nodes":[0]}],"textures":[{"name":"base_color_texture","sampler":0,"source":0}]}