{"accessors":[{"bufferView":0,"byteOffset":0,"componentType":5123,"count":4854,"type":"SCALAR"},{"bufferView":1,"byteOffset":0,"componentType":5126,"count":3046,"max":[0.186157390475273,0.23031884431839,0.202722102403641],"min":[-0.18626706302166,-0.00113862659782,-0.20205593109131],"type":"VEC3"},{"bufferView":2,"byteOffset":0,"componentType":5126,"count":3046,"type":"VEC3"},{"bufferView":3,"byteOffset":0,"componentType":5126,"count":3046,"type":"VEC2"}],"asset":{"generator":"FBX2glTF v0.13.1","version":"2.0"},"bufferViews":[{"buffer":0,"byteLength":9708,"byteOffset":0,"target":34963},{"buffer":0,"byteLength":36552,"byteOffset":9708,"target":34962},{"buffer":0,"byteLength":36552,"byteOffset":46260,"target":34962},{"buffer":0,"byteLength":24368,"byteOffset":82812,"target":34962}],"buffers":[{"byteLength":107180,"uri":"SM_coral_07.bin"}],"images":[{"name":"Polygon_Texture_vol2","uri":"Polygon_Texture_vol2.png"}],"materials":[{"alphaMode":"OPAQUE","doubleSided":false,"extras":{"fromFBX":{"isTruePBR":false,"shadingModel":"Phong"}},"name":"Material","pbrMetallicRoughness":{"baseColorFactor":[1,1,1,1],"baseColorTexture":{"index":0,"texCoord":0},"metallicFactor":0.400000005960464,"roughnessFactor":0.229415729641914}}],"meshes":[{"name":"coral_07","primitives":[{"attributes":{"NORMAL":2,"POSITION":1,"TEXCOORD_0":3},"indices":0,"material":0,"mode":4}]}],"nodes":[{"mesh":0,"name":"coral_07","rotation":[0,0,0,1],"scale":[1,1,1],"translation":[22.9648208618164,0,-3.70276474952698]}],"samplers":[{}],"scene":0,"scenes":[{"name":"Root Scene","nodes":[0]}],"textures":[{"name":"base_color_texture","sampler":0,"source":0}]}