{"accessors":[{"bufferView":0,"byteOffset":0,"componentType":5123,"count":5559,"type":"SCALAR"},{"bufferView":1,"byteOffset":0,"componentType":5126,"count":4350,"max":[0.291082412004471,0.620834589004517,0.268691867589951],"min":[-0.28603425621986,-0.00050314626424,-0.28107535839081],"type":"VEC3"},{"bufferView":2,"byteOffset":0,"componentType":5126,"count":4350,"type":"VEC3"},{"bufferView":3,"byteOffset":0,"componentType":5126,"count":4350,"type":"VEC2"}],"asset":{"generator":"FBX2glTF v0.13.1","version":"2.0"},"bufferViews":[{"buffer":0,"byteLength":11118,"byteOffset":0,"target":34963},{"buffer":0,"byteLength":52200,"byteOffset":11120,"target":34962},{"buffer":0,"byteLength":52200,"byteOffset":63320,"target":34962},{"buffer":0,"byteLength":34800,"byteOffset":115520,"target":34962}],"buffers":[{"byteLength":150320,"uri":"SM_coral_05.bin"}],"images":[{"name":"Polygon_Texture_vol2","uri":"Polygon_Texture_vol2.png"}],"materials":[{"alphaMode":"OPAQUE","doubleSided":false,"extras":{"fromFBX":{"isTruePBR":false,"shadingModel":"Phong"}},"name":"Material","pbrMetallicRoughness":{"baseColorFactor":[1,1,1,1],"baseColorTexture":{"index":0,"texCoord":0},"metallicFactor":0.400000005960464,"roughnessFactor":0.229415729641914}}],"meshes":[{"name":"coral_05","primitives":[{"attributes":{"NORMAL":2,"POSITION":1,"TEXCOORD_0":3},"indices":0,"material":0,"mode":4}]}],"nodes":[{"mesh":0,"name":"coral_05","rotation":[0,0,0,1],"scale":[1,1,1],"translation":[23.0888805389404,0,-4.21562528610229]}],"samplers":[{}],"scene":0,"scenes":[{"name":"Root Scene","nodes":[0]}],"textures":[{"name":"base_color_texture","sampler":0,"source":0}]}