{"accessors":[{"bufferView":0,"byteOffset":0,"componentType":5123,"count":4182,"type":"SCALAR"},{"bufferView":1,"byteOffset":0,"componentType":5126,"count":2840,"max":[0.320280522108078,4.26310157775879,0.342998653650284],"min":[-0.42362120747566,-0.01169371791184,-0.34525701403618],"type":"VEC3"},{"bufferView":2,"byteOffset":0,"componentType":5126,"count":2840,"type":"VEC3"},{"bufferView":3,"byteOffset":0,"componentType":5126,"count":2840,"type":"VEC2"}],"asset":{"generator":"FBX2glTF v0.13.1","version":"2.0"},"bufferViews":[{"buffer":0,"byteLength":8364,"byteOffset":0,"target":34963},{"buffer":0,"byteLength":34080,"byteOffset":8364,"target":34962},{"buffer":0,"byteLength":34080,"byteOffset":42444,"target":34962},{"buffer":0,"byteLength":22720,"byteOffset":76524,"target":34962}],"buffers":[{"byteLength":99244,"uri":"SM_coral_09.bin"}],"images":[{"name":"Polygon_Texture_vol2","uri":"Polygon_Texture_vol2.png"}],"materials":[{"alphaMode":"OPAQUE","doubleSided":false,"extras":{"fromFBX":{"isTruePBR":false,"shadingModel":"Phong"}},"name":"Material","pbrMetallicRoughness":{"baseColorFactor":[1,1,1,1],"baseColorTexture":{"index":0,"texCoord":0},"metallicFactor":0.400000005960464,"roughnessFactor":0.229415729641914}}],"meshes":[{"name":"coral_09","primitives":[{"attributes":{"NORMAL":2,"POSITION":1,"TEXCOORD_0":3},"indices":0,"material":0,"mode":4}]}],"nodes":[{"mesh":0,"name":"coral_09","rotation":[0,0,0,1],"scale":[1,1,1],"translation":[22.958646774292,0.0183248519897461,-0.93041568994522]}],"samplers":[{}],"scene":0,"scenes":[{"name":"Root Scene","nodes":[0]}],"textures":[{"name":"base_color_texture","sampler":0,"source":0}]}