{"accessors":[{"bufferView":0,"byteOffset":0,"componentType":5123,"count":1719,"type":"SCALAR"},{"bufferView":1,"byteOffset":0,"componentType":5126,"count":1719,"max":[32.0076522827148,0.365691125392914,16.0161209106445],"min":[-32.0240249633789,-16.1401615142822,-16.0256843566895],"type":"VEC3"},{"bufferView":2,"byteOffset":0,"componentType":5126,"count":1719,"type":"VEC3"},{"bufferView":3,"byteOffset":0,"componentType":5126,"count":1719,"type":"VEC2"}],"asset":{"generator":"FBX2glTF v0.13.1","version":"2.0"},"bufferViews":[{"buffer":0,"byteLength":3438,"byteOffset":0,"target":34963},{"buffer":0,"byteLength":20628,"byteOffset":3440,"target":34962},{"buffer":0,"byteLength":20628,"byteOffset":24068,"target":34962},{"buffer":0,"byteLength":13752,"byteOffset":44696,"target":34962}],"buffers":[{"byteLength":58448,"uri":"SM_deep_water_chute_02.bin"}],"images":[{"name":"Polygon_Texture_vol2","uri":"Polygon_Texture_vol2.png"}],"materials":[{"alphaMode":"OPAQUE","doubleSided":false,"extras":{"fromFBX":{"isTruePBR":false,"shadingModel":"Phong"}},"name":"Material","pbrMetallicRoughness":{"baseColorFactor":[1,1,1,1],"baseColorTexture":{"index":0,"texCoord":0},"metallicFactor":0.400000005960464,"roughnessFactor":0.229415729641914}}],"meshes":[{"name":"deep_water_chute_02","primitives":[{"attributes":{"NORMAL":2,"POSITION":1,"TEXCOORD_0":3},"indices":0,"material":0,"mode":4}]}],"nodes":[{"mesh":0,"name":"deep_water_chute_02","rotation":[0,0,0,1],"scale":[1,1,1],"translation":[56.8059005737305,0,0]}],"samplers":[{}],"scene":0,"scenes":[{"name":"Root Scene","nodes":[0]}],"textures":[{"name":"base_color_texture","sampler":0,"source":0}]}