{"accessors":[{"bufferView":0,"byteOffset":0,"componentType":5123,"count":1434,"type":"SCALAR"},{"bufferView":1,"byteOffset":0,"componentType":5126,"count":1434,"max":[15.9995784759521,1.92775642871857,16.0000095367432],"min":[-16.0025157928467,-10.1529722213745,-16.001184463501],"type":"VEC3"},{"bufferView":2,"byteOffset":0,"componentType":5126,"count":1434,"type":"VEC3"},{"bufferView":3,"byteOffset":0,"componentType":5126,"count":1434,"type":"VEC2"}],"asset":{"generator":"FBX2glTF v0.13.1","version":"2.0"},"bufferViews":[{"buffer":0,"byteLength":2868,"byteOffset":0,"target":34963},{"buffer":0,"byteLength":17208,"byteOffset":2868,"target":34962},{"buffer":0,"byteLength":17208,"byteOffset":20076,"target":34962},{"buffer":0,"byteLength":11472,"byteOffset":37284,"target":34962}],"buffers":[{"byteLength":48756,"uri":"SM_deep_water_chute_01.bin"}],"images":[{"name":"Polygon_Texture_vol2","uri":"Polygon_Texture_vol2.png"}],"materials":[{"alphaMode":"OPAQUE","doubleSided":false,"extras":{"fromFBX":{"isTruePBR":false,"shadingModel":"Phong"}},"name":"Material","pbrMetallicRoughness":{"baseColorFactor":[1,1,1,1],"baseColorTexture":{"index":0,"texCoord":0},"metallicFactor":0.400000005960464,"roughnessFactor":0.229415729641914}}],"meshes":[{"name":"deep_water_chute_01","primitives":[{"attributes":{"NORMAL":2,"POSITION":1,"TEXCOORD_0":3},"indices":0,"material":0,"mode":4}]}],"nodes":[{"mesh":0,"name":"deep_water_chute_01","rotation":[0,0,0,1],"scale":[1,1,1],"translation":[107.181015014648,0,0]}],"samplers":[{}],"scene":0,"scenes":[{"name":"Root Scene","nodes":[0]}],"textures":[{"name":"base_color_texture","sampler":0,"source":0}]}