{"accessors":[{"bufferView":0,"byteOffset":0,"componentType":5123,"count":27,"type":"SCALAR"},{"bufferView":1,"byteOffset":0,"componentType":5126,"count":27,"max":[2.00046300888062,0.0899206697940826,-0.00000023841858],"min":[-0.00481986999512,-0.13952249288559,-2.00180673599243],"type":"VEC3"},{"bufferView":2,"byteOffset":0,"componentType":5126,"count":27,"type":"VEC3"},{"bufferView":3,"byteOffset":0,"componentType":5126,"count":27,"type":"VEC2"}],"asset":{"generator":"FBX2glTF v0.13.1","version":"2.0"},"bufferViews":[{"buffer":0,"byteLength":54,"byteOffset":0,"target":34963},{"buffer":0,"byteLength":324,"byteOffset":56,"target":34962},{"buffer":0,"byteLength":324,"byteOffset":380,"target":34962},{"buffer":0,"byteLength":216,"byteOffset":704,"target":34962}],"buffers":[{"byteLength":920,"uri":"SM_ground_03.bin"}],"images":[{"name":"Polygon_Texture_vol2","uri":"Polygon_Texture_vol2.png"}],"materials":[{"alphaMode":"OPAQUE","doubleSided":false,"extras":{"fromFBX":{"isTruePBR":false,"shadingModel":"Phong"}},"name":"Material","pbrMetallicRoughness":{"baseColorFactor":[1,1,1,1],"baseColorTexture":{"index":0,"texCoord":0},"metallicFactor":0.400000005960464,"roughnessFactor":0.229415729641914}}],"meshes":[{"name":"ground_03","primitives":[{"attributes":{"NORMAL":2,"POSITION":1,"TEXCOORD_0":3},"indices":0,"material":0,"mode":4}]}],"nodes":[{"mesh":0,"name":"ground_03","rotation":[0,0,0,1],"scale":[1,1,1],"translation":[42.1823425292969,-0.00694693438709,-36.9994163513184]}],"samplers":[{}],"scene":0,"scenes":[{"name":"Root Scene","nodes":[0]}],"textures":[{"name":"base_color_texture","sampler":0,"source":0}]}