{"accessors":[{"bufferView":0,"byteOffset":0,"componentType":5123,"count":1710,"type":"SCALAR"},{"bufferView":1,"byteOffset":0,"componentType":5126,"count":1252,"max":[12.0012512207031,3.52619290351868,0.00350236892700195],"min":[-0.00134658813477,-0.51875782012939,-12.0004510879517],"type":"VEC3"},{"bufferView":2,"byteOffset":0,"componentType":5126,"count":1252,"type":"VEC3"},{"bufferView":3,"byteOffset":0,"componentType":5126,"count":1252,"type":"VEC2"}],"asset":{"generator":"FBX2glTF v0.13.1","version":"2.0"},"bufferViews":[{"buffer":0,"byteLength":3420,"byteOffset":0,"target":34963},{"buffer":0,"byteLength":15024,"byteOffset":3420,"target":34962},{"buffer":0,"byteLength":15024,"byteOffset":18444,"target":34962},{"buffer":0,"byteLength":10016,"byteOffset":33468,"target":34962}],"buffers":[{"byteLength":43484,"uri":"SM_geysers_01.bin"}],"images":[{"name":"Polygon_Texture_vol2","uri":"Polygon_Texture_vol2.png"}],"materials":[{"alphaMode":"OPAQUE","doubleSided":false,"extras":{"fromFBX":{"isTruePBR":false,"shadingModel":"Phong"}},"name":"Material","pbrMetallicRoughness":{"baseColorFactor":[1,1,1,1],"baseColorTexture":{"index":0,"texCoord":0},"metallicFactor":0.400000005960464,"roughnessFactor":0.229415729641914}}],"meshes":[{"name":"geysers_01","primitives":[{"attributes":{"NORMAL":2,"POSITION":1,"TEXCOORD_0":3},"indices":0,"material":0,"mode":4}]}],"nodes":[{"mesh":0,"name":"geysers_01","rotation":[0,0,0,1],"scale":[1,1,1],"translation":[48.1110382080078,-0.01646972447634,-20.001579284668]}],"samplers":[{}],"scene":0,"scenes":[{"name":"Root Scene","nodes":[0]}],"textures":[{"name":"base_color_texture","sampler":0,"source":0}]}