{"accessors":[{"bufferView":0,"byteOffset":0,"componentType":5123,"count":399,"type":"SCALAR"},{"bufferView":1,"byteOffset":0,"componentType":5126,"count":399,"max":[8.00087547302246,0.178978532552719,0],"min":[-0.00193309783936,-0.18744389712811,-8.00860214233398],"type":"VEC3"},{"bufferView":2,"byteOffset":0,"componentType":5126,"count":399,"type":"VEC3"},{"bufferView":3,"byteOffset":0,"componentType":5126,"count":399,"type":"VEC2"}],"asset":{"generator":"FBX2glTF v0.13.1","version":"2.0"},"bufferViews":[{"buffer":0,"byteLength":798,"byteOffset":0,"target":34963},{"buffer":0,"byteLength":4788,"byteOffset":800,"target":34962},{"buffer":0,"byteLength":4788,"byteOffset":5588,"target":34962},{"buffer":0,"byteLength":3192,"byteOffset":10376,"target":34962}],"buffers":[{"byteLength":13568,"uri":"SM_ground_02.bin"}],"images":[{"name":"Polygon_Texture_vol2","uri":"Polygon_Texture_vol2.png"}],"materials":[{"alphaMode":"OPAQUE","doubleSided":false,"extras":{"fromFBX":{"isTruePBR":false,"shadingModel":"Phong"}},"name":"Material","pbrMetallicRoughness":{"baseColorFactor":[1,1,1,1],"baseColorTexture":{"index":0,"texCoord":0},"metallicFactor":0.400000005960464,"roughnessFactor":0.229415729641914}}],"meshes":[{"name":"ground_02","primitives":[{"attributes":{"NORMAL":2,"POSITION":1,"TEXCOORD_0":3},"indices":0,"material":0,"mode":4}]}],"nodes":[{"mesh":0,"name":"ground_02","rotation":[0,0,0,1],"scale":[1,1,1],"translation":[51.2861557006836,0.013898097909987,-33.9993896484375]}],"samplers":[{}],"scene":0,"scenes":[{"name":"Root Scene","nodes":[0]}],"textures":[{"name":"base_color_texture","sampler":0,"source":0}]}