{"accessors":[{"bufferView":0,"byteOffset":0,"componentType":5123,"count":99,"type":"SCALAR"},{"bufferView":1,"byteOffset":0,"componentType":5126,"count":99,"max":[7.99983024597168,1.1185507774353,0.0041656494140625],"min":[-0.00040197372437,-0.12722098827362,-7.99991989135742],"type":"VEC3"},{"bufferView":2,"byteOffset":0,"componentType":5126,"count":99,"type":"VEC3"},{"bufferView":3,"byteOffset":0,"componentType":5126,"count":99,"type":"VEC2"}],"asset":{"generator":"FBX2glTF v0.13.1","version":"2.0"},"bufferViews":[{"buffer":0,"byteLength":198,"byteOffset":0,"target":34963},{"buffer":0,"byteLength":1188,"byteOffset":200,"target":34962},{"buffer":0,"byteLength":1188,"byteOffset":1388,"target":34962},{"buffer":0,"byteLength":792,"byteOffset":2576,"target":34962}],"buffers":[{"byteLength":3368,"uri":"SM_ground_06.bin"}],"images":[{"name":"Polygon_Texture_vol2","uri":"Polygon_Texture_vol2.png"}],"materials":[{"alphaMode":"OPAQUE","doubleSided":false,"extras":{"fromFBX":{"isTruePBR":false,"shadingModel":"Phong"}},"name":"Material","pbrMetallicRoughness":{"baseColorFactor":[1,1,1,1],"baseColorTexture":{"index":0,"texCoord":0},"metallicFactor":0.400000005960464,"roughnessFactor":0.229415729641914}}],"meshes":[{"name":"ground_06","primitives":[{"attributes":{"NORMAL":2,"POSITION":1,"TEXCOORD_0":3},"indices":0,"material":0,"mode":4}]}],"nodes":[{"mesh":0,"name":"ground_06","rotation":[0,0,0,1],"scale":[1,1,1],"translation":[77.7854766845703,0.00516927242279053,-34.0040626525879]}],"samplers":[{}],"scene":0,"scenes":[{"name":"Root Scene","nodes":[0]}],"textures":[{"name":"base_color_texture","sampler":0,"source":0}]}