{"accessors":[{"bufferView":0,"byteOffset":0,"componentType":5123,"count":8196,"type":"SCALAR"},{"bufferView":1,"byteOffset":0,"componentType":5126,"count":5446,"max":[1.31581735610962,1.01956295967102,1.80630767345428],"min":[-0.77562564611435,-1.37768816947937,-1.72537851333618],"type":"VEC3"},{"bufferView":2,"byteOffset":0,"componentType":5126,"count":5446,"type":"VEC3"},{"bufferView":3,"byteOffset":0,"componentType":5126,"count":5446,"type":"VEC2"}],"asset":{"generator":"FBX2glTF v0.13.1","version":"2.0"},"bufferViews":[{"buffer":0,"byteLength":16392,"byteOffset":0,"target":34963},{"buffer":0,"byteLength":65352,"byteOffset":16392,"target":34962},{"buffer":0,"byteLength":65352,"byteOffset":81744,"target":34962},{"buffer":0,"byteLength":43568,"byteOffset":147096,"target":34962}],"buffers":[{"byteLength":190664,"uri":"SM_skeleton.bin"}],"images":[{"name":"Polygon_Texture_vol2","uri":"Polygon_Texture_vol2.png"}],"materials":[{"alphaMode":"OPAQUE","doubleSided":false,"extras":{"fromFBX":{"isTruePBR":false,"shadingModel":"Phong"}},"name":"Material","pbrMetallicRoughness":{"baseColorFactor":[1,1,1,1],"baseColorTexture":{"index":0,"texCoord":0},"metallicFactor":0.400000005960464,"roughnessFactor":0.229415729641914}}],"meshes":[{"name":"skeleton","primitives":[{"attributes":{"NORMAL":2,"POSITION":1,"TEXCOORD_0":3},"indices":0,"material":0,"mode":4}]}],"nodes":[{"mesh":0,"name":"skeleton","rotation":[0,0,0,1],"scale":[1,1,1],"translation":[19.0439052581787,0.170389503240585,0.0000000228933334511794]}],"samplers":[{}],"scene":0,"scenes":[{"name":"Root Scene","nodes":[0]}],"textures":[{"name":"base_color_texture","sampler":0,"source":0}]}