{"accessors":[{"bufferView":0,"byteOffset":0,"componentType":5123,"count":7674,"type":"SCALAR"},{"bufferView":1,"byteOffset":0,"componentType":5126,"count":5016,"max":[0.214430421590805,2.93204188346863,1.40170788764954],"min":[-27.7292594909668,-4.39348983764648,-21.5298709869385],"type":"VEC3"},{"bufferView":2,"byteOffset":0,"componentType":5126,"count":5016,"type":"VEC3"},{"bufferView":3,"byteOffset":0,"componentType":5126,"count":5016,"type":"VEC2"}],"asset":{"generator":"FBX2glTF v0.13.1","version":"2.0"},"bufferViews":[{"buffer":0,"byteLength":15348,"byteOffset":0,"target":34963},{"buffer":0,"byteLength":60192,"byteOffset":15348,"target":34962},{"buffer":0,"byteLength":60192,"byteOffset":75540,"target":34962},{"buffer":0,"byteLength":40128,"byteOffset":135732,"target":34962}],"buffers":[{"byteLength":175860,"uri":"SM_sunken_ship.bin"}],"images":[{"name":"Polygon_Texture_vol2","uri":"Polygon_Texture_vol2.png"}],"materials":[{"alphaMode":"OPAQUE","doubleSided":false,"extras":{"fromFBX":{"isTruePBR":false,"shadingModel":"Phong"}},"name":"Material","pbrMetallicRoughness":{"baseColorFactor":[1,1,1,1],"baseColorTexture":{"index":0,"texCoord":0},"metallicFactor":0.400000005960464,"roughnessFactor":0.229415729641914}}],"meshes":[{"name":"sunken_ship","primitives":[{"attributes":{"NORMAL":2,"POSITION":1,"TEXCOORD_0":3},"indices":0,"material":0,"mode":4}]}],"nodes":[{"mesh":0,"name":"sunken_ship","rotation":[0,0,0,1],"scale":[1,1,1],"translation":[4.90017604827881,3.78984546661377,4.07240200042725]}],"samplers":[{}],"scene":0,"scenes":[{"name":"Root Scene","nodes":[0]}],"textures":[{"name":"base_color_texture","sampler":0,"source":0}]}