{"accessors":[{"bufferView":0,"byteOffset":0,"componentType":5123,"count":7914,"type":"SCALAR"},{"bufferView":1,"byteOffset":0,"componentType":5126,"count":5035,"max":[1.05369865894318,1.0584614276886,0.815297901630402],"min":[-1.05369865894318,-0.21375077962875,-4.0011830329895],"type":"VEC3"},{"bufferView":2,"byteOffset":0,"componentType":5126,"count":5035,"type":"VEC3"},{"bufferView":3,"byteOffset":0,"componentType":5126,"count":5035,"type":"VEC2"},{"bufferView":4,"byteOffset":0,"componentType":5123,"count":3588,"type":"SCALAR"},{"bufferView":5,"byteOffset":0,"componentType":5126,"count":2314,"max":[0.126900255680084,0.344597667455673,0.344591945409775],"min":[-0.18802428245544,-0.34458929300308,-0.34459486603737],"type":"VEC3"},{"bufferView":6,"byteOffset":0,"componentType":5126,"count":2314,"type":"VEC3"},{"bufferView":7,"byteOffset":0,"componentType":5126,"count":2314,"type":"VEC2"},{"bufferView":8,"byteOffset":0,"componentType":5123,"count":3588,"type":"SCALAR"},{"bufferView":9,"byteOffset":0,"componentType":5126,"count":2314,"max":[0.126899167895317,0.344598293304443,0.344591468572617],"min":[-0.18802537024021,-0.34458866715431,-0.34459543228149],"type":"VEC3"},{"bufferView":10,"byteOffset":0,"componentType":5126,"count":2314,"type":"VEC3"},{"bufferView":11,"byteOffset":0,"componentType":5126,"count":2314,"type":"VEC2"},{"bufferView":12,"byteOffset":0,"componentType":5123,"count":3588,"type":"SCALAR"},{"bufferView":13,"byteOffset":0,"componentType":5126,"count":2328,"max":[0.188025370240211,0.344598293304443,0.344591468572617],"min":[-0.12689915299416,-0.34458866715431,-0.34459543228149],"type":"VEC3"},{"bufferView":14,"byteOffset":0,"componentType":5126,"count":2328,"type":"VEC3"},{"bufferView":15,"byteOffset":0,"componentType":5126,"count":2328,"type":"VEC2"},{"bufferView":16,"byteOffset":0,"componentType":5123,"count":3588,"type":"SCALAR"},{"bufferView":17,"byteOffset":0,"componentType":5126,"count":2314,"max":[0.188023924827576,0.344597667455673,0.344591975212097],"min":[-0.12690061330795,-0.34458929300308,-0.34459483623505],"type":"VEC3"},{"bufferView":18,"byteOffset":0,"componentType":5126,"count":2314,"type":"VEC3"},{"bufferView":19,"byteOffset":0,"componentType":5126,"count":2314,"type":"VEC2"},{"bufferView":20,"byteOffset":0,"componentType":5123,"count":312,"type":"SCALAR"},{"bufferView":21,"byteOffset":0,"componentType":5126,"count":208,"max":[1.04610657691956,0.941584348678589,-0.56939017772675],"min":[-1.04610657691956,0.570748925209045,-3.33639526367188],"type":"VEC3"},{"bufferView":22,"byteOffset":0,"componentType":5126,"count":208,"type":"VEC3"},{"bufferView":23,"byteOffset":0,"componentType":5126,"count":208,"type":"VEC2"},{"bufferView":24,"byteOffset":0,"componentType":5123,"count":30,"type":"SCALAR"},{"bufferView":25,"byteOffset":0,"componentType":5126,"count":18,"max":[0.863763511180878,0.388148605823517,0.631927609443665],"min":[-0.86376351118088,0.204827606678009,0.453160464763641],"type":"VEC3"},{"bufferView":26,"byteOffset":0,"componentType":5126,"count":18,"type":"VEC3"},{"bufferView":27,"byteOffset":0,"componentType":5126,"count":18,"type":"VEC2"},{"bufferView":28,"byteOffset":0,"componentType":5123,"count":36,"type":"SCALAR"},{"bufferView":29,"byteOffset":0,"componentType":5126,"count":16,"max":[0.84959751367569,0.0304632652550936,0.649600803852081],"min":[-0.84959751367569,-0.0886268094182,0.513089120388031],"type":"VEC3"},{"bufferView":30,"byteOffset":0,"componentType":5126,"count":16,"type":"VEC3"},{"bufferView":31,"byteOffset":0,"componentType":5126,"count":16,"type":"VEC2"},{"bufferView":32,"byteOffset":0,"componentType":5123,"count":24,"type":"SCALAR"},{"bufferView":33,"byteOffset":0,"componentType":5126,"count":16,"max":[0.707355260848999,0.458091348409653,-3.64111018180847],"min":[-0.707355260849,0.347907781600952,-3.82235217094421],"type":"VEC3"},{"bufferView":34,"byteOffset":0,"componentType":5126,"count":16,"type":"VEC3"},{"bufferView":35,"byteOffset":0,"componentType":5126,"count":16,"type":"VEC2"}],"asset":{"generator":"FBX2glTF v0.13.1","version":"2.0"},"bufferViews":[{"buffer":0,"byteLength":15828,"byteOffset":0,"target":34963},{"buffer":0,"byteLength":60420,"byteOffset":15828,"target":34962},{"buffer":0,"byteLength":60420,"byteOffset":76248,"target":34962},{"buffer":0,"byteLength":40280,"byteOffset":136668,"target":34962},{"buffer":0,"byteLength":7176,"byteOffset":176948,"target":34963},{"buffer":0,"byteLength":27768,"byteOffset":184124,"target":34962},{"buffer":0,"byteLength":27768,"byteOffset":211892,"target":34962},{"buffer":0,"byteLength":18512,"byteOffset":239660,"target":34962},{"buffer":0,"byteLength":7176,"byteOffset":258172,"target":34963},{"buffer":0,"byteLength":27768,"byteOffset":265348,"target":34962},{"buffer":0,"byteLength":27768,"byteOffset":293116,"target":34962},{"buffer":0,"byteLength":18512,"byteOffset":320884,"target":34962},{"buffer":0,"byteLength":7176,"byteOffset":339396,"target":34963},{"buffer":0,"byteLength":27936,"byteOffset":346572,"target":34962},{"buffer":0,"byteLength":27936,"byteOffset":374508,"target":34962},{"buffer":0,"byteLength":18624,"byteOffset":402444,"target":34962},{"buffer":0,"byteLength":7176,"byteOffset":421068,"target":34963},{"buffer":0,"byteLength":27768,"byteOffset":428244,"target":34962},{"buffer":0,"byteLength":27768,"byteOffset":456012,"target":34962},{"buffer":0,"byteLength":18512,"byteOffset":483780,"target":34962},{"buffer":0,"byteLength":624,"byteOffset":502292,"target":34963},{"buffer":0,"byteLength":2496,"byteOffset":502916,"target":34962},{"buffer":0,"byteLength":2496,"byteOffset":505412,"target":34962},{"buffer":0,"byteLength":1664,"byteOffset":507908,"target":34962},{"buffer":0,"byteLength":60,"byteOffset":509572,"target":34963},{"buffer":0,"byteLength":216,"byteOffset":509632,"target":34962},{"buffer":0,"byteLength":216,"byteOffset":509848,"target":34962},{"buffer":0,"byteLength":144,"byteOffset":510064,"target":34962},{"buffer":0,"byteLength":72,"byteOffset":510208,"target":34963},{"buffer":0,"byteLength":192,"byteOffset":510280,"target":34962},{"buffer":0,"byteLength":192,"byteOffset":510472,"target":34962},{"buffer":0,"byteLength":128,"byteOffset":510664,"target":34962},{"buffer":0,"byteLength":48,"byteOffset":510792,"target":34963},{"buffer":0,"byteLength":192,"byteOffset":510840,"target":34962},{"buffer":0,"byteLength":192,"byteOffset":511032,"target":34962},{"buffer":0,"byteLength":128,"byteOffset":511224,"target":34962}],"buffers":[{"byteLength":511352,"uri":"SM_car_02.bin"}],"images":[{"name":"Polygon_Texture_vol2","uri":"Polygon_Texture_vol2.png"}],"materials":[{"alphaMode":"OPAQUE","doubleSided":false,"extras":{"fromFBX":{"isTruePBR":false,"shadingModel":"Phong"}},"name":"Material","pbrMetallicRoughness":{"baseColorFactor":[1,1,1,1],"baseColorTexture":{"index":0,"texCoord":0},"metallicFactor":0.400000005960464,"roughnessFactor":0.272165536880493}},{"alphaMode":"OPAQUE","doubleSided":false,"extras":{"fromFBX":{"isTruePBR":false,"shadingModel":"Phong"}},"name":"Material.001","pbrMetallicRoughness":{"baseColorFactor":[0.800000011920929,0.800000011920929,0.800000011920929,1],"metallicFactor":0.400000005960464,"roughnessFactor":0.272165536880493}},{"alphaMode":"OPAQUE","doubleSided":false,"extras":{"fromFBX":{"isTruePBR":false,"shadingModel":"Phong"}},"name":"Material.002","pbrMetallicRoughness":{"baseColorFactor":[0.800000011920929,0.800000011920929,0.800000011920929,1],"metallicFactor":0.400000005960464,"roughnessFactor":0.272165536880493}},{"alphaMode":"OPAQUE","doubleSided":false,"extras":{"fromFBX":{"isTruePBR":false,"shadingModel":"Phong"}},"name":"Material.003","pbrMetallicRoughness":{"baseColorFactor":[0.800000011920929,0.800000011920929,0.800000011920929,1],"metallicFactor":0.400000005960464,"roughnessFactor":0.272165536880493}},{"alphaMode":"OPAQUE","doubleSided":false,"extras":{"fromFBX":{"isTruePBR":false,"shadingModel":"Phong"}},"name":"Material.004","pbrMetallicRoughness":{"baseColorFactor":[0.800000011920929,0.800000011920929,0.800000011920929,1],"metallicFactor":0.400000005960464,"roughnessFactor":0.272165536880493}}],"meshes":[{"name":"car_02","primitives":[{"attributes":{"NORMAL":2,"POSITION":1,"TEXCOORD_0":3},"indices":0,"material":0,"mode":4},{"attributes":{"NORMAL":22,"POSITION":21,"TEXCOORD_0":23},"indices":20,"material":1,"mode":4},{"attributes":{"NORMAL":26,"POSITION":25,"TEXCOORD_0":27},"indices":24,"material":2,"mode":4},{"attributes":{"NORMAL":30,"POSITION":29,"TEXCOORD_0":31},"indices":28,"material":3,"mode":4},{"attributes":{"NORMAL":34,"POSITION":33,"TEXCOORD_0":35},"indices":32,"material":4,"mode":4}]},{"name":"wheel_07","primitives":[{"attributes":{"NORMAL":6,"POSITION":5,"TEXCOORD_0":7},"indices":4,"material":0,"mode":4}]},{"name":"wheel_05","primitives":[{"attributes":{"NORMAL":10,"POSITION":9,"TEXCOORD_0":11},"indices":8,"material":0,"mode":4}]},{"name":"wheel_06","primitives":[{"attributes":{"NORMAL":14,"POSITION":13,"TEXCOORD_0":15},"indices":12,"material":0,"mode":4}]},{"name":"wheel_07.001","primitives":[{"attributes":{"NORMAL":18,"POSITION":17,"TEXCOORD_0":19},"indices":16,"material":0,"mode":4}]}],"nodes":[{"children":[1,2,3,4],"mesh":0,"name":"car_02","rotation":[0,0,0,1],"scale":[1,1,1],"translation":[85.6680526733398,0.336379528045654,0.0611691474914551]},{"mesh":1,"name":"wheel_07","rotation":[0,0,0,1],"scale":[1,1,1],"translation":[-0.81591796875,-0.01701915636659,-2.84570956230164]},{"mesh":2,"name":"wheel_05","rotation":[0,0,0,1],"scale":[1,1,1],"translation":[-0.81591796875,-0.0170198250562,0.0155190508812666]},{"mesh":3,"name":"wheel_06","rotation":[0,0,0,1],"scale":[1,1,1],"translation":[0.815908193588257,-0.0170198250562,0.0155190657824278]},{"mesh":4,"name":"wheel_07.001","rotation":[0,0,0,1],"scale":[1,1,1],"translation":[0.815898418426514,-0.01701915636659,-2.84570956230164]}],"samplers":[{}],"scene":0,"scenes":[{"name":"Root Scene","nodes":[0]}],"textures":[{"name":"base_color_texture","sampler":0,"source":0}]}