{"accessors":[{"bufferView":0,"byteOffset":0,"componentType":5123,"count":6870,"type":"SCALAR"},{"bufferView":1,"byteOffset":0,"componentType":5126,"count":4377,"max":[0.994309663772583,1.16114437580109,1.41758859157562],"min":[-0.99430966377258,-0.0246212426573,-3.9504189491272],"type":"VEC3"},{"bufferView":2,"byteOffset":0,"componentType":5126,"count":4377,"type":"VEC3"},{"bufferView":3,"byteOffset":0,"componentType":5126,"count":4377,"type":"VEC2"},{"bufferView":4,"byteOffset":0,"componentType":5123,"count":1404,"type":"SCALAR"},{"bufferView":5,"byteOffset":0,"componentType":5126,"count":887,"max":[0.115373723208904,0.359108567237854,0.359108507633209],"min":[-0.13623785972595,-0.35910844802856,-0.35910859704018],"type":"VEC3"},{"bufferView":6,"byteOffset":0,"componentType":5126,"count":887,"type":"VEC3"},{"bufferView":7,"byteOffset":0,"componentType":5126,"count":887,"type":"VEC2"},{"bufferView":8,"byteOffset":0,"componentType":5123,"count":1404,"type":"SCALAR"},{"bufferView":9,"byteOffset":0,"componentType":5126,"count":867,"max":[0.136237621307373,0.359108567237854,0.359108507633209],"min":[-0.115373916924,-0.35910850763321,-0.35910850763321],"type":"VEC3"},{"bufferView":10,"byteOffset":0,"componentType":5126,"count":867,"type":"VEC3"},{"bufferView":11,"byteOffset":0,"componentType":5126,"count":867,"type":"VEC2"},{"bufferView":12,"byteOffset":0,"componentType":5123,"count":1404,"type":"SCALAR"},{"bufferView":13,"byteOffset":0,"componentType":5126,"count":886,"max":[0.115373827517033,0.359108567237854,0.359108507633209],"min":[-0.13623771071434,-0.35910844802856,-0.35910850763321],"type":"VEC3"},{"bufferView":14,"byteOffset":0,"componentType":5126,"count":886,"type":"VEC3"},{"bufferView":15,"byteOffset":0,"componentType":5126,"count":886,"type":"VEC2"},{"bufferView":16,"byteOffset":0,"componentType":5123,"count":1404,"type":"SCALAR"},{"bufferView":17,"byteOffset":0,"componentType":5126,"count":853,"max":[0.13623771071434,0.359108567237854,0.359108507633209],"min":[-0.11537381261587,-0.35910850763321,-0.35910859704018],"type":"VEC3"},{"bufferView":18,"byteOffset":0,"componentType":5126,"count":853,"type":"VEC3"},{"bufferView":19,"byteOffset":0,"componentType":5126,"count":853,"type":"VEC2"},{"bufferView":20,"byteOffset":0,"componentType":5123,"count":144,"type":"SCALAR"},{"bufferView":21,"byteOffset":0,"componentType":5126,"count":95,"max":[0.919903934001923,0.493282407522202,1.16668725013733],"min":[-0.91990393400192,0.339496076107025,1.15290629863739],"type":"VEC3"},{"bufferView":22,"byteOffset":0,"componentType":5126,"count":95,"type":"VEC3"},{"bufferView":23,"byteOffset":0,"componentType":5126,"count":95,"type":"VEC2"},{"bufferView":24,"byteOffset":0,"componentType":5123,"count":228,"type":"SCALAR"},{"bufferView":25,"byteOffset":0,"componentType":5126,"count":152,"max":[0.980740666389465,1.08362126350403,-0.51204216480255],"min":[-0.98074066638947,0.652037799358368,-3.19267749786377],"type":"VEC3"},{"bufferView":26,"byteOffset":0,"componentType":5126,"count":152,"type":"VEC3"},{"bufferView":27,"byteOffset":0,"componentType":5126,"count":152,"type":"VEC2"},{"bufferView":28,"byteOffset":0,"componentType":5123,"count":228,"type":"SCALAR"},{"bufferView":29,"byteOffset":0,"componentType":5126,"count":144,"max":[0.776329159736633,0.539283871650696,-3.87252283096313],"min":[-0.77632915973663,0.39323103427887,-3.91884136199951],"type":"VEC3"},{"bufferView":30,"byteOffset":0,"componentType":5126,"count":144,"type":"VEC3"},{"bufferView":31,"byteOffset":0,"componentType":5126,"count":144,"type":"VEC2"}],"asset":{"generator":"FBX2glTF v0.13.1","version":"2.0"},"bufferViews":[{"buffer":0,"byteLength":13740,"byteOffset":0,"target":34963},{"buffer":0,"byteLength":52524,"byteOffset":13740,"target":34962},{"buffer":0,"byteLength":52524,"byteOffset":66264,"target":34962},{"buffer":0,"byteLength":35016,"byteOffset":118788,"target":34962},{"buffer":0,"byteLength":2808,"byteOffset":153804,"target":34963},{"buffer":0,"byteLength":10644,"byteOffset":156612,"target":34962},{"buffer":0,"byteLength":10644,"byteOffset":167256,"target":34962},{"buffer":0,"byteLength":7096,"byteOffset":177900,"target":34962},{"buffer":0,"byteLength":2808,"byteOffset":184996,"target":34963},{"buffer":0,"byteLength":10404,"byteOffset":187804,"target":34962},{"buffer":0,"byteLength":10404,"byteOffset":198208,"target":34962},{"buffer":0,"byteLength":6936,"byteOffset":208612,"target":34962},{"buffer":0,"byteLength":2808,"byteOffset":215548,"target":34963},{"buffer":0,"byteLength":10632,"byteOffset":218356,"target":34962},{"buffer":0,"byteLength":10632,"byteOffset":228988,"target":34962},{"buffer":0,"byteLength":7088,"byteOffset":239620,"target":34962},{"buffer":0,"byteLength":2808,"byteOffset":246708,"target":34963},{"buffer":0,"byteLength":10236,"byteOffset":249516,"target":34962},{"buffer":0,"byteLength":10236,"byteOffset":259752,"target":34962},{"buffer":0,"byteLength":6824,"byteOffset":269988,"target":34962},{"buffer":0,"byteLength":288,"byteOffset":276812,"target":34963},{"buffer":0,"byteLength":1140,"byteOffset":277100,"target":34962},{"buffer":0,"byteLength":1140,"byteOffset":278240,"target":34962},{"buffer":0,"byteLength":760,"byteOffset":279380,"target":34962},{"buffer":0,"byteLength":456,"byteOffset":280140,"target":34963},{"buffer":0,"byteLength":1824,"byteOffset":280596,"target":34962},{"buffer":0,"byteLength":1824,"byteOffset":282420,"target":34962},{"buffer":0,"byteLength":1216,"byteOffset":284244,"target":34962},{"buffer":0,"byteLength":456,"byteOffset":285460,"target":34963},{"buffer":0,"byteLength":1728,"byteOffset":285916,"target":34962},{"buffer":0,"byteLength":1728,"byteOffset":287644,"target":34962},{"buffer":0,"byteLength":1152,"byteOffset":289372,"target":34962}],"buffers":[{"byteLength":290524,"uri":"SM_car_01.bin"}],"images":[{"name":"Polygon_Texture_vol2","uri":"Polygon_Texture_vol2.png"}],"materials":[{"alphaMode":"OPAQUE","doubleSided":false,"extras":{"fromFBX":{"isTruePBR":false,"shadingModel":"Phong"}},"name":"Material","pbrMetallicRoughness":{"baseColorFactor":[1,1,1,1],"baseColorTexture":{"index":0,"texCoord":0},"metallicFactor":0.400000005960464,"roughnessFactor":0.272165536880493}},{"alphaMode":"OPAQUE","doubleSided":false,"extras":{"fromFBX":{"isTruePBR":false,"shadingModel":"Phong"}},"name":"Material.002","pbrMetallicRoughness":{"baseColorFactor":[0.800000011920929,0.800000011920929,0.800000011920929,1],"metallicFactor":0.400000005960464,"roughnessFactor":0.272165536880493}},{"alphaMode":"OPAQUE","doubleSided":false,"extras":{"fromFBX":{"isTruePBR":false,"shadingModel":"Phong"}},"name":"Material.001","pbrMetallicRoughness":{"baseColorFactor":[0.800000011920929,0.800000011920929,0.800000011920929,1],"metallicFactor":0.400000005960464,"roughnessFactor":0.272165536880493}},{"alphaMode":"OPAQUE","doubleSided":false,"extras":{"fromFBX":{"isTruePBR":false,"shadingModel":"Phong"}},"name":"Material.003","pbrMetallicRoughness":{"baseColorFactor":[0.800000011920929,0.800000011920929,0.800000011920929,1],"metallicFactor":0.400000005960464,"roughnessFactor":0.272165536880493}}],"meshes":[{"name":"car_01","primitives":[{"attributes":{"NORMAL":2,"POSITION":1,"TEXCOORD_0":3},"indices":0,"material":0,"mode":4},{"attributes":{"NORMAL":22,"POSITION":21,"TEXCOORD_0":23},"indices":20,"material":1,"mode":4},{"attributes":{"NORMAL":26,"POSITION":25,"TEXCOORD_0":27},"indices":24,"material":2,"mode":4},{"attributes":{"NORMAL":30,"POSITION":29,"TEXCOORD_0":31},"indices":28,"material":3,"mode":4}]},{"name":"wheel_01","primitives":[{"attributes":{"NORMAL":6,"POSITION":5,"TEXCOORD_0":7},"indices":4,"material":0,"mode":4}]},{"name":"wheel_02","primitives":[{"attributes":{"NORMAL":10,"POSITION":9,"TEXCOORD_0":11},"indices":8,"material":0,"mode":4}]},{"name":"wheel_03","primitives":[{"attributes":{"NORMAL":14,"POSITION":13,"TEXCOORD_0":15},"indices":12,"material":0,"mode":4}]},{"name":"wheel_01.001","primitives":[{"attributes":{"NORMAL":18,"POSITION":17,"TEXCOORD_0":19},"indices":16,"material":0,"mode":4}]}],"nodes":[{"children":[1,2,3,4],"mesh":0,"name":"car_01","rotation":[0,0,0,1],"scale":[1,1,1],"translation":[88.5900344848633,0.359272062778473,1.0523134469986]},{"mesh":1,"name":"wheel_01","rotation":[0,0,0,1],"scale":[1,1,1],"translation":[-0.8042870759964,-0.0073682400398,-2.74365186691284]},{"mesh":2,"name":"wheel_02","rotation":[0,0,0,1],"scale":[1,1,1],"translation":[0.804296851158142,-0.00736820185557,0.357786238193512]},{"mesh":3,"name":"wheel_03","rotation":[0,0,0,1],"scale":[1,1,1],"translation":[-0.80427730083466,-0.0073682400398,0.357786238193512]},{"mesh":4,"name":"wheel_01.001","rotation":[0.908353090286255,0,0,-0.41820412874222],"scale":[1,0.999999940395355,0.999999940395355],"translation":[0.804287075996399,-0.00736820185557,-2.74365234375]}],"samplers":[{}],"scene":0,"scenes":[{"name":"Root Scene","nodes":[0]}],"textures":[{"name":"base_color_texture","sampler":0,"source":0}]}