{"accessors":[{"bufferView":0,"byteOffset":0,"componentType":5123,"count":8730,"type":"SCALAR"},{"bufferView":1,"byteOffset":0,"componentType":5126,"count":5726,"max":[1.0427405834198,0.686071515083313,2.21858978271484],"min":[-1.0427405834198,-0.54402637481689,-2.61396670341492],"type":"VEC3"},{"bufferView":2,"byteOffset":0,"componentType":5126,"count":5726,"type":"VEC3"},{"bufferView":3,"byteOffset":0,"componentType":5126,"count":5726,"type":"VEC2"},{"bufferView":4,"byteOffset":0,"componentType":5123,"count":1860,"type":"SCALAR"},{"bufferView":5,"byteOffset":0,"componentType":5126,"count":1163,"max":[0.132751613855362,0.348559230566025,0.34855929017067],"min":[-0.18379534780979,-0.34855926036835,-0.34855923056603],"type":"VEC3"},{"bufferView":6,"byteOffset":0,"componentType":5126,"count":1163,"type":"VEC3"},{"bufferView":7,"byteOffset":0,"componentType":5126,"count":1163,"type":"VEC2"},{"bufferView":8,"byteOffset":0,"componentType":5123,"count":1860,"type":"SCALAR"},{"bufferView":9,"byteOffset":0,"componentType":5126,"count":1117,"max":[0.132751166820526,0.348559230566025,0.348559230566025],"min":[-0.18379580974579,-0.34855926036835,-0.34855929017067],"type":"VEC3"},{"bufferView":10,"byteOffset":0,"componentType":5126,"count":1117,"type":"VEC3"},{"bufferView":11,"byteOffset":0,"componentType":5126,"count":1117,"type":"VEC2"},{"bufferView":12,"byteOffset":0,"componentType":5123,"count":1860,"type":"SCALAR"},{"bufferView":13,"byteOffset":0,"componentType":5126,"count":1130,"max":[0.183795347809792,0.348559230566025,0.34855929017067],"min":[-0.13275161385536,-0.34855926036835,-0.34855923056603],"type":"VEC3"},{"bufferView":14,"byteOffset":0,"componentType":5126,"count":1130,"type":"VEC3"},{"bufferView":15,"byteOffset":0,"componentType":5126,"count":1130,"type":"VEC2"},{"bufferView":16,"byteOffset":0,"componentType":5123,"count":1860,"type":"SCALAR"},{"bufferView":17,"byteOffset":0,"componentType":5126,"count":1158,"max":[0.183795511722565,0.348559230566025,0.348559230566025],"min":[-0.13275146484375,-0.34855926036835,-0.34855929017067],"type":"VEC3"},{"bufferView":18,"byteOffset":0,"componentType":5126,"count":1158,"type":"VEC3"},{"bufferView":19,"byteOffset":0,"componentType":5126,"count":1158,"type":"VEC2"},{"bufferView":20,"byteOffset":0,"componentType":5123,"count":336,"type":"SCALAR"},{"bufferView":21,"byteOffset":0,"componentType":5126,"count":224,"max":[1.03633105754852,0.596641182899475,0.677898764610291],"min":[-1.03633105754852,0.259824007749557,-1.89248144626617],"type":"VEC3"},{"bufferView":22,"byteOffset":0,"componentType":5126,"count":224,"type":"VEC3"},{"bufferView":23,"byteOffset":0,"componentType":5126,"count":224,"type":"VEC2"},{"bufferView":24,"byteOffset":0,"componentType":5123,"count":72,"type":"SCALAR"},{"bufferView":25,"byteOffset":0,"componentType":5126,"count":48,"max":[0.782538115978241,0.253227889537811,-2.4195032119751],"min":[-0.78253811597824,0.0675692558288574,-2.55525207519531],"type":"VEC3"},{"bufferView":26,"byteOffset":0,"componentType":5126,"count":48,"type":"VEC3"},{"bufferView":27,"byteOffset":0,"componentType":5126,"count":48,"type":"VEC2"},{"bufferView":28,"byteOffset":0,"componentType":5123,"count":114,"type":"SCALAR"},{"bufferView":29,"byteOffset":0,"componentType":5126,"count":78,"max":[0.860977590084076,0.13041353225708,2.13101005554199],"min":[-0.86097759008408,-0.11690168827772,1.80199217796326],"type":"VEC3"},{"bufferView":30,"byteOffset":0,"componentType":5126,"count":78,"type":"VEC3"},{"bufferView":31,"byteOffset":0,"componentType":5126,"count":78,"type":"VEC2"}],"asset":{"generator":"FBX2glTF v0.13.1","version":"2.0"},"bufferViews":[{"buffer":0,"byteLength":17460,"byteOffset":0,"target":34963},{"buffer":0,"byteLength":68712,"byteOffset":17460,"target":34962},{"buffer":0,"byteLength":68712,"byteOffset":86172,"target":34962},{"buffer":0,"byteLength":45808,"byteOffset":154884,"target":34962},{"buffer":0,"byteLength":3720,"byteOffset":200692,"target":34963},{"buffer":0,"byteLength":13956,"byteOffset":204412,"target":34962},{"buffer":0,"byteLength":13956,"byteOffset":218368,"target":34962},{"buffer":0,"byteLength":9304,"byteOffset":232324,"target":34962},{"buffer":0,"byteLength":3720,"byteOffset":241628,"target":34963},{"buffer":0,"byteLength":13404,"byteOffset":245348,"target":34962},{"buffer":0,"byteLength":13404,"byteOffset":258752,"target":34962},{"buffer":0,"byteLength":8936,"byteOffset":272156,"target":34962},{"buffer":0,"byteLength":3720,"byteOffset":281092,"target":34963},{"buffer":0,"byteLength":13560,"byteOffset":284812,"target":34962},{"buffer":0,"byteLength":13560,"byteOffset":298372,"target":34962},{"buffer":0,"byteLength":9040,"byteOffset":311932,"target":34962},{"buffer":0,"byteLength":3720,"byteOffset":320972,"target":34963},{"buffer":0,"byteLength":13896,"byteOffset":324692,"target":34962},{"buffer":0,"byteLength":13896,"byteOffset":338588,"target":34962},{"buffer":0,"byteLength":9264,"byteOffset":352484,"target":34962},{"buffer":0,"byteLength":672,"byteOffset":361748,"target":34963},{"buffer":0,"byteLength":2688,"byteOffset":362420,"target":34962},{"buffer":0,"byteLength":2688,"byteOffset":365108,"target":34962},{"buffer":0,"byteLength":1792,"byteOffset":367796,"target":34962},{"buffer":0,"byteLength":144,"byteOffset":369588,"target":34963},{"buffer":0,"byteLength":576,"byteOffset":369732,"target":34962},{"buffer":0,"byteLength":576,"byteOffset":370308,"target":34962},{"buffer":0,"byteLength":384,"byteOffset":370884,"target":34962},{"buffer":0,"byteLength":228,"byteOffset":371268,"target":34963},{"buffer":0,"byteLength":936,"byteOffset":371496,"target":34962},{"buffer":0,"byteLength":936,"byteOffset":372432,"target":34962},{"buffer":0,"byteLength":624,"byteOffset":373368,"target":34962}],"buffers":[{"byteLength":373992,"uri":"SM_car_03.bin"}],"images":[{"name":"Polygon_Texture_vol2","uri":"Polygon_Texture_vol2.png"}],"materials":[{"alphaMode":"OPAQUE","doubleSided":false,"extras":{"fromFBX":{"isTruePBR":false,"shadingModel":"Phong"}},"name":"Material","pbrMetallicRoughness":{"baseColorFactor":[1,1,1,1],"baseColorTexture":{"index":0,"texCoord":0},"metallicFactor":0.400000005960464,"roughnessFactor":0.272165536880493}},{"alphaMode":"OPAQUE","doubleSided":false,"extras":{"fromFBX":{"isTruePBR":false,"shadingModel":"Phong"}},"name":"Material.001","pbrMetallicRoughness":{"baseColorFactor":[0.800000011920929,0.800000011920929,0.800000011920929,1],"metallicFactor":0.400000005960464,"roughnessFactor":0.272165536880493}},{"alphaMode":"OPAQUE","doubleSided":false,"extras":{"fromFBX":{"isTruePBR":false,"shadingModel":"Phong"}},"name":"Material.003","pbrMetallicRoughness":{"baseColorFactor":[0.800000011920929,0.800000011920929,0.800000011920929,1],"metallicFactor":0.400000005960464,"roughnessFactor":0.272165536880493}},{"alphaMode":"OPAQUE","doubleSided":false,"extras":{"fromFBX":{"isTruePBR":false,"shadingModel":"Phong"}},"name":"Material.002","pbrMetallicRoughness":{"baseColorFactor":[0.800000011920929,0.800000011920929,0.800000011920929,1],"metallicFactor":0.400000005960464,"roughnessFactor":0.272165536880493}}],"meshes":[{"name":"car_03","primitives":[{"attributes":{"NORMAL":2,"POSITION":1,"TEXCOORD_0":3},"indices":0,"material":0,"mode":4},{"attributes":{"NORMAL":22,"POSITION":21,"TEXCOORD_0":23},"indices":20,"material":1,"mode":4},{"attributes":{"NORMAL":26,"POSITION":25,"TEXCOORD_0":27},"indices":24,"material":2,"mode":4},{"attributes":{"NORMAL":30,"POSITION":29,"TEXCOORD_0":31},"indices":28,"material":3,"mode":4}]},{"name":"wheel_010","primitives":[{"attributes":{"NORMAL":6,"POSITION":5,"TEXCOORD_0":7},"indices":4,"material":0,"mode":4}]},{"name":"wheel_08","primitives":[{"attributes":{"NORMAL":10,"POSITION":9,"TEXCOORD_0":11},"indices":8,"material":0,"mode":4}]},{"name":"wheel_09","primitives":[{"attributes":{"NORMAL":14,"POSITION":13,"TEXCOORD_0":15},"indices":12,"material":0,"mode":4}]},{"name":"wheel_08.001","primitives":[{"attributes":{"NORMAL":18,"POSITION":17,"TEXCOORD_0":19},"indices":16,"material":0,"mode":4}]}],"nodes":[{"children":[1,2,3,4],"mesh":0,"name":"car_03","rotation":[0,0,0,1],"scale":[1,1,1],"translation":[82.9980239868164,0.71799099445343,-1.2674024105072]},{"mesh":1,"name":"wheel_010","rotation":[0,0,0,1],"scale":[1,1,1],"translation":[-0.77641600370407,-0.36060518026352,1.2416182756424]},{"mesh":2,"name":"wheel_08","rotation":[0,0,0,1],"scale":[1,1,1],"translation":[-0.77640622854233,-0.36060518026352,-1.58193564414978]},{"mesh":3,"name":"wheel_09","rotation":[0.140612974762917,0,0,0.99006462097168],"scale":[1,1,1],"translation":[0.776406228542328,-0.36060518026352,1.2416182756424]},{"mesh":4,"name":"wheel_08.001","rotation":[-0.29980009794235,-0,0,0.954002022743225],"scale":[1,1,1],"translation":[0.776396453380585,-0.36060518026352,-1.58193564414978]}],"samplers":[{}],"scene":0,"scenes":[{"name":"Root Scene","nodes":[0]}],"textures":[{"name":"base_color_texture","sampler":0,"source":0}]}