{"accessors":[{"bufferView":0,"byteOffset":0,"componentType":5123,"count":978,"type":"SCALAR"},{"bufferView":1,"byteOffset":0,"componentType":5126,"count":640,"max":[12.4640483856201,0.126685321331024,12.4835939407349],"min":[-7.58251571655273,-0.12668530642986,-7.58076143264771],"type":"VEC3"},{"bufferView":2,"byteOffset":0,"componentType":5126,"count":640,"type":"VEC3"},{"bufferView":3,"byteOffset":0,"componentType":5126,"count":640,"type":"VEC2"}],"asset":{"generator":"FBX2glTF v0.13.1","version":"2.0"},"bufferViews":[{"buffer":0,"byteLength":1956,"byteOffset":0,"target":34963},{"buffer":0,"byteLength":7680,"byteOffset":1956,"target":34962},{"buffer":0,"byteLength":7680,"byteOffset":9636,"target":34962},{"buffer":0,"byteLength":5120,"byteOffset":17316,"target":34962}],"buffers":[{"byteLength":22436,"uri":"SM_fencing_03_A.bin"}],"images":[{"name":"Polygon_Camping_Texture","uri":"Polygon_Camping_Texture.psd"}],"materials":[{"alphaMode":"OPAQUE","doubleSided":false,"extras":{"fromFBX":{"isTruePBR":false,"shadingModel":"Phong"}},"name":"Material","pbrMetallicRoughness":{"baseColorFactor":[1,1,1,1],"baseColorTexture":{"index":0,"texCoord":0},"metallicFactor":0.400000005960464,"roughnessFactor":0.272165536880493}}],"meshes":[{"name":"fencing_03_A","primitives":[{"attributes":{"NORMAL":2,"POSITION":1,"TEXCOORD_0":3},"indices":0,"material":0,"mode":4}]}],"nodes":[{"mesh":0,"name":"fencing_03_A","rotation":[0,0,0,1],"scale":[1,1,1],"translation":[46.8224601745605,0.126685306429863,-13.015435218811]}],"samplers":[{}],"scene":0,"scenes":[{"name":"Root Scene","nodes":[0]}],"textures":[{"name":"base_color_texture","sampler":0,"source":0}]}