{"accessors":[{"bufferView":0,"byteOffset":0,"componentType":5123,"count":8454,"type":"SCALAR"},{"bufferView":1,"byteOffset":0,"componentType":5126,"count":5309,"max":[0.831342697143555,0.886001408100128,2.89105105400085],"min":[-0.83134412765503,-0.3827340900898,-2.53760576248169],"type":"VEC3"},{"bufferView":2,"byteOffset":0,"componentType":5126,"count":5309,"type":"VEC3"},{"bufferView":3,"byteOffset":0,"componentType":5126,"count":5309,"type":"VEC2"},{"bufferView":4,"byteOffset":0,"componentType":5123,"count":5316,"type":"SCALAR"},{"bufferView":5,"byteOffset":0,"componentType":5126,"count":3329,"max":[0.262092888355255,0.38920322060585,0.389203011989594],"min":[-0.25500965118408,-0.38920307159424,-0.38920310139656],"type":"VEC3"},{"bufferView":6,"byteOffset":0,"componentType":5126,"count":3329,"type":"VEC3"},{"bufferView":7,"byteOffset":0,"componentType":5126,"count":3329,"type":"VEC2"},{"bufferView":8,"byteOffset":0,"componentType":5123,"count":5316,"type":"SCALAR"},{"bufferView":9,"byteOffset":0,"componentType":5126,"count":3277,"max":[0.229726135730743,0.389203131198883,0.389203131198883],"min":[-0.21905997395515,-0.38920313119888,-0.38920319080353],"type":"VEC3"},{"bufferView":10,"byteOffset":0,"componentType":5126,"count":3277,"type":"VEC3"},{"bufferView":11,"byteOffset":0,"componentType":5126,"count":3277,"type":"VEC2"},{"bufferView":12,"byteOffset":0,"componentType":5123,"count":5316,"type":"SCALAR"},{"bufferView":13,"byteOffset":0,"componentType":5126,"count":3417,"max":[0.219059973955154,0.389203131198883,0.389203131198883],"min":[-0.22972613573074,-0.38920313119888,-0.38920319080353],"type":"VEC3"},{"bufferView":14,"byteOffset":0,"componentType":5126,"count":3417,"type":"VEC3"},{"bufferView":15,"byteOffset":0,"componentType":5126,"count":3417,"type":"VEC2"},{"bufferView":16,"byteOffset":0,"componentType":5123,"count":5316,"type":"SCALAR"},{"bufferView":17,"byteOffset":0,"componentType":5126,"count":3437,"max":[0.255009829998016,0.38920322060585,0.389202982187271],"min":[-0.26209279894829,-0.38920307159424,-0.38920313119888],"type":"VEC3"},{"bufferView":18,"byteOffset":0,"componentType":5126,"count":3437,"type":"VEC3"},{"bufferView":19,"byteOffset":0,"componentType":5126,"count":3437,"type":"VEC2"},{"bufferView":20,"byteOffset":0,"componentType":5123,"count":12,"type":"SCALAR"},{"bufferView":21,"byteOffset":0,"componentType":5126,"count":8,"max":[0.416605323553085,0.390597879886627,0.520354866981506],"min":[-0.41660568118095,0.353473335504532,0.520354568958282],"type":"VEC3"},{"bufferView":22,"byteOffset":0,"componentType":5126,"count":8,"type":"VEC3"},{"bufferView":23,"byteOffset":0,"componentType":5126,"count":8,"type":"VEC2"}],"asset":{"generator":"FBX2glTF v0.13.1","version":"2.0"},"bufferViews":[{"buffer":0,"byteLength":16908,"byteOffset":0,"target":34963},{"buffer":0,"byteLength":63708,"byteOffset":16908,"target":34962},{"buffer":0,"byteLength":63708,"byteOffset":80616,"target":34962},{"buffer":0,"byteLength":42472,"byteOffset":144324,"target":34962},{"buffer":0,"byteLength":10632,"byteOffset":186796,"target":34963},{"buffer":0,"byteLength":39948,"byteOffset":197428,"target":34962},{"buffer":0,"byteLength":39948,"byteOffset":237376,"target":34962},{"buffer":0,"byteLength":26632,"byteOffset":277324,"target":34962},{"buffer":0,"byteLength":10632,"byteOffset":303956,"target":34963},{"buffer":0,"byteLength":39324,"byteOffset":314588,"target":34962},{"buffer":0,"byteLength":39324,"byteOffset":353912,"target":34962},{"buffer":0,"byteLength":26216,"byteOffset":393236,"target":34962},{"buffer":0,"byteLength":10632,"byteOffset":419452,"target":34963},{"buffer":0,"byteLength":41004,"byteOffset":430084,"target":34962},{"buffer":0,"byteLength":41004,"byteOffset":471088,"target":34962},{"buffer":0,"byteLength":27336,"byteOffset":512092,"target":34962},{"buffer":0,"byteLength":10632,"byteOffset":539428,"target":34963},{"buffer":0,"byteLength":41244,"byteOffset":550060,"target":34962},{"buffer":0,"byteLength":41244,"byteOffset":591304,"target":34962},{"buffer":0,"byteLength":27496,"byteOffset":632548,"target":34962},{"buffer":0,"byteLength":24,"byteOffset":660044,"target":34963},{"buffer":0,"byteLength":96,"byteOffset":660068,"target":34962},{"buffer":0,"byteLength":96,"byteOffset":660164,"target":34962},{"buffer":0,"byteLength":64,"byteOffset":660260,"target":34962}],"buffers":[{"byteLength":660324,"uri":"SM_formula_one.bin"}],"images":[{"name":"Polygon_Texture_vol2","uri":"Polygon_Texture_vol2.png"}],"materials":[{"alphaMode":"OPAQUE","doubleSided":false,"extras":{"fromFBX":{"isTruePBR":false,"shadingModel":"Phong"}},"name":"Material","pbrMetallicRoughness":{"baseColorFactor":[1,1,1,1],"baseColorTexture":{"index":0,"texCoord":0},"metallicFactor":0.400000005960464,"roughnessFactor":0.272165536880493}},{"alphaMode":"OPAQUE","doubleSided":false,"extras":{"fromFBX":{"isTruePBR":false,"shadingModel":"Phong"}},"name":"Material.001","pbrMetallicRoughness":{"baseColorFactor":[0.800000011920929,0.800000011920929,0.800000011920929,1],"metallicFactor":0.400000005960464,"roughnessFactor":0.272165536880493}}],"meshes":[{"name":"formula_one","primitives":[{"attributes":{"NORMAL":2,"POSITION":1,"TEXCOORD_0":3},"indices":0,"material":0,"mode":4},{"attributes":{"NORMAL":22,"POSITION":21,"TEXCOORD_0":23},"indices":20,"material":1,"mode":4}]},{"name":"wheel_011","primitives":[{"attributes":{"NORMAL":6,"POSITION":5,"TEXCOORD_0":7},"indices":4,"material":0,"mode":4}]},{"name":"wheel_013","primitives":[{"attributes":{"NORMAL":10,"POSITION":9,"TEXCOORD_0":11},"indices":8,"material":0,"mode":4}]},{"name":"whell_012","primitives":[{"attributes":{"NORMAL":14,"POSITION":13,"TEXCOORD_0":15},"indices":12,"material":0,"mode":4}]},{"name":"wheel_011.001","primitives":[{"attributes":{"NORMAL":18,"POSITION":17,"TEXCOORD_0":19},"indices":16,"material":0,"mode":4}]}],"nodes":[{"children":[1,2,3,4],"mesh":0,"name":"formula_one","rotation":[0,0,0,1],"scale":[1,1,1],"translation":[80.5393905639648,0.466457217931747,-3.74850392341614]},{"mesh":1,"name":"wheel_011","rotation":[0.0000000000000000612323293943686,1,0.0000000000000000612323293943686,0.000000194707183709397],"scale":[1,1,1],"translation":[0.845649421215057,-0.07828979194164,-1.81121027469635]},{"mesh":2,"name":"wheel_013","rotation":[0.000000107537189819595,0.830234050750732,0.557414889335632,0.000000163135595698805],"scale":[1,1,1],"translation":[0.85670405626297,-0.07828971743584,1.4630571603775]},{"mesh":3,"name":"whell_012","rotation":[0.000000292005438495835,0.276591837406158,0.960987508296967,-0.00000000548231],"scale":[1,0.999999940395355,0.999999940395355],"translation":[-0.85670405626297,-0.07828971743584,1.46305680274963]},{"mesh":4,"name":"wheel_011.001","rotation":[0.0000000000000000612323293943686,1,0.0000000000000000612323293943686,0.000000194707183709397],"scale":[1,1,1],"translation":[-0.84564942121506,-0.07828979194164,-1.81121146678925]}],"samplers":[{}],"scene":0,"scenes":[{"name":"Root Scene","nodes":[0]}],"textures":[{"name":"base_color_texture","sampler":0,"source":0}]}