{"accessors":[{"bufferView":0,"byteOffset":0,"componentType":5123,"count":708,"type":"SCALAR"},{"bufferView":1,"byteOffset":0,"componentType":5126,"count":456,"max":[0.249969482421875,0.608440697193146,0.250000059604645],"min":[-0.25003054738045,0,-0.24999994039536],"type":"VEC3"},{"bufferView":2,"byteOffset":0,"componentType":5126,"count":456,"type":"VEC3"},{"bufferView":3,"byteOffset":0,"componentType":5126,"count":456,"type":"VEC2"}],"asset":{"generator":"FBX2glTF v0.13.1","version":"2.0"},"bufferViews":[{"buffer":0,"byteLength":1416,"byteOffset":0,"target":34963},{"buffer":0,"byteLength":5472,"byteOffset":1416,"target":34962},{"buffer":0,"byteLength":5472,"byteOffset":6888,"target":34962},{"buffer":0,"byteLength":3648,"byteOffset":12360,"target":34962}],"buffers":[{"byteLength":16008,"uri":"SM_fencing_01.bin"}],"images":[{"name":"Polygon_Camping_Texture","uri":"Polygon_Camping_Texture.psd"}],"materials":[{"alphaMode":"OPAQUE","doubleSided":false,"extras":{"fromFBX":{"isTruePBR":false,"shadingModel":"Phong"}},"name":"Material","pbrMetallicRoughness":{"baseColorFactor":[1,1,1,1],"baseColorTexture":{"index":0,"texCoord":0},"metallicFactor":0.400000005960464,"roughnessFactor":0.272165536880493}}],"meshes":[{"name":"fencing_01","primitives":[{"attributes":{"NORMAL":2,"POSITION":1,"TEXCOORD_0":3},"indices":0,"material":0,"mode":4}]}],"nodes":[{"mesh":0,"name":"fencing_01","rotation":[0,0,0,1],"scale":[1,1,1],"translation":[77.2611694335938,0,-0.2274969369173]}],"samplers":[{}],"scene":0,"scenes":[{"name":"Root Scene","nodes":[0]}],"textures":[{"name":"base_color_texture","sampler":0,"source":0}]}