{"accessors":[{"bufferView":0,"byteOffset":0,"componentType":5123,"count":348,"type":"SCALAR"},{"bufferView":1,"byteOffset":0,"componentType":5126,"count":220,"max":[1.36206948757172,0.126685336232185,4.60764932632446],"min":[-0.8916706442833,-0.1266852915287,-4.48461055755615],"type":"VEC3"},{"bufferView":2,"byteOffset":0,"componentType":5126,"count":220,"type":"VEC3"},{"bufferView":3,"byteOffset":0,"componentType":5126,"count":220,"type":"VEC2"}],"asset":{"generator":"FBX2glTF v0.13.1","version":"2.0"},"bufferViews":[{"buffer":0,"byteLength":696,"byteOffset":0,"target":34963},{"buffer":0,"byteLength":2640,"byteOffset":696,"target":34962},{"buffer":0,"byteLength":2640,"byteOffset":3336,"target":34962},{"buffer":0,"byteLength":1760,"byteOffset":5976,"target":34962}],"buffers":[{"byteLength":7736,"uri":"SM_fencing_03_B.bin"}],"images":[{"name":"Polygon_Camping_Texture","uri":"Polygon_Camping_Texture.psd"}],"materials":[{"alphaMode":"OPAQUE","doubleSided":false,"extras":{"fromFBX":{"isTruePBR":false,"shadingModel":"Phong"}},"name":"Material","pbrMetallicRoughness":{"baseColorFactor":[1,1,1,1],"baseColorTexture":{"index":0,"texCoord":0},"metallicFactor":0.400000005960464,"roughnessFactor":0.272165536880493}}],"meshes":[{"name":"fencing_03_B","primitives":[{"attributes":{"NORMAL":2,"POSITION":1,"TEXCOORD_0":3},"indices":0,"material":0,"mode":4}]}],"nodes":[{"mesh":0,"name":"fencing_03_B","rotation":[0,0,0,1],"scale":[1,1,1],"translation":[46.5128746032715,0.126685291528702,-7.12671422958374]}],"samplers":[{}],"scene":0,"scenes":[{"name":"Root Scene","nodes":[0]}],"textures":[{"name":"base_color_texture","sampler":0,"source":0}]}