{"accessors":[{"bufferView":0,"byteOffset":0,"componentType":5123,"count":1332,"type":"SCALAR"},{"bufferView":1,"byteOffset":0,"componentType":5126,"count":841,"max":[1.01133143901825,3.35889649391174,0.0999999940395355],"min":[-1.01133143901825,0,-0.36299446225166],"type":"VEC3"},{"bufferView":2,"byteOffset":0,"componentType":5126,"count":841,"type":"VEC3"},{"bufferView":3,"byteOffset":0,"componentType":5126,"count":841,"type":"VEC2"}],"asset":{"generator":"FBX2glTF v0.13.1","version":"2.0"},"bufferViews":[{"buffer":0,"byteLength":2664,"byteOffset":0,"target":34963},{"buffer":0,"byteLength":10092,"byteOffset":2664,"target":34962},{"buffer":0,"byteLength":10092,"byteOffset":12756,"target":34962},{"buffer":0,"byteLength":6728,"byteOffset":22848,"target":34962}],"buffers":[{"byteLength":29576,"uri":"SM_fencing_04.bin"}],"images":[{"name":"Polygon_Camping_Texture","uri":"Polygon_Camping_Texture.psd"}],"materials":[{"alphaMode":"OPAQUE","doubleSided":false,"extras":{"fromFBX":{"isTruePBR":false,"shadingModel":"Phong"}},"name":"Material","pbrMetallicRoughness":{"baseColorFactor":[1,1,1,1],"baseColorTexture":{"index":0,"texCoord":0},"metallicFactor":0.400000005960464,"roughnessFactor":0.272165536880493}}],"meshes":[{"name":"fencing_04","primitives":[{"attributes":{"NORMAL":2,"POSITION":1,"TEXCOORD_0":3},"indices":0,"material":0,"mode":4}]}],"nodes":[{"mesh":0,"name":"fencing_04","rotation":[0,0,0,1],"scale":[1,1,1],"translation":[73.3210220336914,0,-0.01077461242676]}],"samplers":[{}],"scene":0,"scenes":[{"name":"Root Scene","nodes":[0]}],"textures":[{"name":"base_color_texture","sampler":0,"source":0}]}