{"accessors":[{"bufferView":0,"byteOffset":0,"componentType":5123,"count":1878,"type":"SCALAR"},{"bufferView":1,"byteOffset":0,"componentType":5126,"count":1240,"max":[20.0569343566895,0.261167228221893,9.16019916534424],"min":[-20.0595779418945,0.00779660558328032,-10.9123468399048],"type":"VEC3"},{"bufferView":2,"byteOffset":0,"componentType":5126,"count":1240,"type":"VEC3"},{"bufferView":3,"byteOffset":0,"componentType":5126,"count":1240,"type":"VEC2"}],"asset":{"generator":"FBX2glTF v0.13.1","version":"2.0"},"bufferViews":[{"buffer":0,"byteLength":3756,"byteOffset":0,"target":34963},{"buffer":0,"byteLength":14880,"byteOffset":3756,"target":34962},{"buffer":0,"byteLength":14880,"byteOffset":18636,"target":34962},{"buffer":0,"byteLength":9920,"byteOffset":33516,"target":34962}],"buffers":[{"byteLength":43436,"uri":"SM_fencing_03.bin"}],"images":[{"name":"Polygon_Camping_Texture","uri":"Polygon_Camping_Texture.psd"}],"materials":[{"alphaMode":"OPAQUE","doubleSided":false,"extras":{"fromFBX":{"isTruePBR":false,"shadingModel":"Phong"}},"name":"Material","pbrMetallicRoughness":{"baseColorFactor":[1,1,1,1],"baseColorTexture":{"index":0,"texCoord":0},"metallicFactor":0.400000005960464,"roughnessFactor":0.272165536880493}}],"meshes":[{"name":"fencing_03","primitives":[{"attributes":{"NORMAL":2,"POSITION":1,"TEXCOORD_0":3},"indices":0,"material":0,"mode":4}]}],"nodes":[{"mesh":0,"name":"fencing_03","rotation":[0,0,0,1],"scale":[1,1,1],"translation":[57.646785736084,-0.00779660558328,-11.5688648223877]}],"samplers":[{}],"scene":0,"scenes":[{"name":"Root Scene","nodes":[0]}],"textures":[{"name":"base_color_texture","sampler":0,"source":0}]}