{"accessors":[{"bufferView":0,"byteOffset":0,"componentType":5123,"count":288,"type":"SCALAR"},{"bufferView":1,"byteOffset":0,"componentType":5126,"count":160,"max":[0.879992723464966,0.700000047683716,0.150000005960464],"min":[-0.52000737190247,0.0000000298023223876953,-0.15000000596046],"type":"VEC3"},{"bufferView":2,"byteOffset":0,"componentType":5126,"count":160,"type":"VEC3"},{"bufferView":3,"byteOffset":0,"componentType":5126,"count":160,"type":"VEC2"}],"asset":{"generator":"FBX2glTF v0.13.1","version":"2.0"},"bufferViews":[{"buffer":0,"byteLength":576,"byteOffset":0,"target":34963},{"buffer":0,"byteLength":1920,"byteOffset":576,"target":34962},{"buffer":0,"byteLength":1920,"byteOffset":2496,"target":34962},{"buffer":0,"byteLength":1280,"byteOffset":4416,"target":34962}],"buffers":[{"byteLength":5696,"uri":"SM_fencing_02.bin"}],"images":[{"name":"Polygon_Camping_Texture","uri":"Polygon_Camping_Texture.psd"}],"materials":[{"alphaMode":"OPAQUE","doubleSided":false,"extras":{"fromFBX":{"isTruePBR":false,"shadingModel":"Phong"}},"name":"Material","pbrMetallicRoughness":{"baseColorFactor":[1,1,1,1],"baseColorTexture":{"index":0,"texCoord":0},"metallicFactor":0.400000005960464,"roughnessFactor":0.272165536880493}}],"meshes":[{"name":"fencing_02","primitives":[{"attributes":{"NORMAL":2,"POSITION":1,"TEXCOORD_0":3},"indices":0,"material":0,"mode":4}]}],"nodes":[{"mesh":0,"name":"fencing_02","rotation":[0,0,0,1],"scale":[1,1,1],"translation":[75.4273376464844,0.174618482589722,-0.01065692305565]}],"samplers":[{}],"scene":0,"scenes":[{"name":"Root Scene","nodes":[0]}],"textures":[{"name":"base_color_texture","sampler":0,"source":0}]}