{"accessors":[{"bufferView":0,"byteOffset":0,"componentType":5123,"count":618,"type":"SCALAR"},{"bufferView":1,"byteOffset":0,"componentType":5126,"count":400,"max":[5.21825695037842,0.126685351133347,8.65590381622314],"min":[-3.08841705322266,-0.12668527662754,-7.5639328956604],"type":"VEC3"},{"bufferView":2,"byteOffset":0,"componentType":5126,"count":400,"type":"VEC3"},{"bufferView":3,"byteOffset":0,"componentType":5126,"count":400,"type":"VEC2"}],"asset":{"generator":"FBX2glTF v0.13.1","version":"2.0"},"bufferViews":[{"buffer":0,"byteLength":1236,"byteOffset":0,"target":34963},{"buffer":0,"byteLength":4800,"byteOffset":1236,"target":34962},{"buffer":0,"byteLength":4800,"byteOffset":6036,"target":34962},{"buffer":0,"byteLength":3200,"byteOffset":10836,"target":34962}],"buffers":[{"byteLength":14036,"uri":"SM_fencing_03_C.bin"}],"images":[{"name":"Polygon_Camping_Texture","uri":"Polygon_Camping_Texture.psd"}],"materials":[{"alphaMode":"OPAQUE","doubleSided":false,"extras":{"fromFBX":{"isTruePBR":false,"shadingModel":"Phong"}},"name":"Material","pbrMetallicRoughness":{"baseColorFactor":[1,1,1,1],"baseColorTexture":{"index":0,"texCoord":0},"metallicFactor":0.400000005960464,"roughnessFactor":0.272165536880493}}],"meshes":[{"name":"fencing_03_C","primitives":[{"attributes":{"NORMAL":2,"POSITION":1,"TEXCOORD_0":3},"indices":0,"material":0,"mode":4}]}],"nodes":[{"mesh":0,"name":"fencing_03_C","rotation":[0,0,0,1],"scale":[1,1,1],"translation":[45.1599884033203,0.126685276627541,-9.0773458480835]}],"samplers":[{}],"scene":0,"scenes":[{"name":"Root Scene","nodes":[0]}],"textures":[{"name":"base_color_texture","sampler":0,"source":0}]}