{"accessors":[{"bufferView":0,"byteOffset":0,"componentType":5123,"count":13548,"type":"SCALAR"},{"bufferView":1,"byteOffset":0,"componentType":5126,"count":7941,"max":[50.3365898132324,23.6995258331299,18.3298225402832],"min":[-50.3366546630859,-0.1032338142395,-10.2174301147461],"type":"VEC3"},{"bufferView":2,"byteOffset":0,"componentType":5126,"count":7941,"type":"VEC3"},{"bufferView":3,"byteOffset":0,"componentType":5126,"count":7941,"type":"VEC2"},{"bufferView":4,"byteOffset":0,"componentType":5123,"count":318,"type":"SCALAR"},{"bufferView":5,"byteOffset":0,"componentType":5126,"count":206,"max":[49.9791107177734,20.0296859741211,7.64969968795776],"min":[-49.9791679382324,0.0573992729187012,-9.56510925292969],"type":"VEC3"},{"bufferView":6,"byteOffset":0,"componentType":5126,"count":206,"type":"VEC3"},{"bufferView":7,"byteOffset":0,"componentType":5126,"count":206,"type":"VEC2"}],"asset":{"generator":"FBX2glTF v0.13.1","version":"2.0"},"bufferViews":[{"buffer":0,"byteLength":27096,"byteOffset":0,"target":34963},{"buffer":0,"byteLength":95292,"byteOffset":27096,"target":34962},{"buffer":0,"byteLength":95292,"byteOffset":122388,"target":34962},{"buffer":0,"byteLength":63528,"byteOffset":217680,"target":34962},{"buffer":0,"byteLength":636,"byteOffset":281208,"target":34963},{"buffer":0,"byteLength":2472,"byteOffset":281844,"target":34962},{"buffer":0,"byteLength":2472,"byteOffset":284316,"target":34962},{"buffer":0,"byteLength":1648,"byteOffset":286788,"target":34962}],"buffers":[{"byteLength":288436,"uri":"SM_tribunes.bin"}],"images":[{"name":"Polygon_Texture_vol2","uri":"Polygon_Texture_vol2.png"}],"materials":[{"alphaMode":"OPAQUE","doubleSided":false,"extras":{"fromFBX":{"isTruePBR":false,"shadingModel":"Phong"}},"name":"Material","pbrMetallicRoughness":{"baseColorFactor":[1,1,1,1],"baseColorTexture":{"index":0,"texCoord":0},"metallicFactor":0.400000005960464,"roughnessFactor":0.272165536880493}},{"alphaMode":"OPAQUE","doubleSided":false,"extras":{"fromFBX":{"isTruePBR":false,"shadingModel":"Phong"}},"name":"Material.001","pbrMetallicRoughness":{"baseColorFactor":[0.800000011920929,0.800000011920929,0.800000011920929,1],"metallicFactor":0.400000005960464,"roughnessFactor":0.272165536880493}}],"meshes":[{"name":"tribunes","primitives":[{"attributes":{"NORMAL":2,"POSITION":1,"TEXCOORD_0":3},"indices":0,"material":0,"mode":4},{"attributes":{"NORMAL":6,"POSITION":5,"TEXCOORD_0":7},"indices":4,"material":1,"mode":4}]}],"nodes":[{"mesh":0,"name":"tribunes","rotation":[0,0,0,1],"scale":[0.993312537670135,1,0.980829894542694],"translation":[141.909103393555,-1.02999949455261,-45.2729339599609]}],"samplers":[{}],"scene":0,"scenes":[{"name":"Root Scene","nodes":[0]}],"textures":[{"name":"base_color_texture","sampler":0,"source":0}]}