{"accessors":[{"bufferView":0,"byteOffset":0,"componentType":5123,"count":108,"type":"SCALAR"},{"bufferView":1,"byteOffset":0,"componentType":5126,"count":60,"max":[4.62694120407104,0.0149999996647239,3.6777663230896],"min":[-4.68100166320801,-0.01499999966472,-5.40204334259033],"type":"VEC3"},{"bufferView":2,"byteOffset":0,"componentType":5126,"count":60,"type":"VEC3"},{"bufferView":3,"byteOffset":0,"componentType":5126,"count":60,"type":"VEC2"}],"asset":{"generator":"FBX2glTF v0.13.1","version":"2.0"},"bufferViews":[{"buffer":0,"byteLength":216,"byteOffset":0,"target":34963},{"buffer":0,"byteLength":720,"byteOffset":216,"target":34962},{"buffer":0,"byteLength":720,"byteOffset":936,"target":34962},{"buffer":0,"byteLength":480,"byteOffset":1656,"target":34962}],"buffers":[{"byteLength":2136,"uri":"SM_track_02.bin"}],"images":[{"name":"Polygon_Camping_Texture","uri":"Polygon_Camping_Texture.psd"}],"materials":[{"alphaMode":"OPAQUE","doubleSided":false,"extras":{"fromFBX":{"isTruePBR":false,"shadingModel":"Phong"}},"name":"Material","pbrMetallicRoughness":{"baseColorFactor":[1,1,1,1],"baseColorTexture":{"index":0,"texCoord":0},"metallicFactor":0.400000005960464,"roughnessFactor":0.272165536880493}}],"meshes":[{"name":"track_02","primitives":[{"attributes":{"NORMAL":2,"POSITION":1,"TEXCOORD_0":3},"indices":0,"material":0,"mode":4}]}],"nodes":[{"mesh":0,"name":"track_02","rotation":[0,0,0,1],"scale":[1,1,1],"translation":[212.939270019531,-0.01499999966472,-3.67776298522949]}],"samplers":[{}],"scene":0,"scenes":[{"name":"Root Scene","nodes":[0]}],"textures":[{"name":"base_color_texture","sampler":0,"source":0}]}