{"accessors":[{"bufferView":0,"byteOffset":0,"componentType":5123,"count":2082,"type":"SCALAR"},{"bufferView":1,"byteOffset":0,"componentType":5126,"count":1110,"max":[19.9999866485596,0.0149999996647239,33.6809425354004],"min":[-24.0001220703125,-0.01499999966472,-10.3190851211548],"type":"VEC3"},{"bufferView":2,"byteOffset":0,"componentType":5126,"count":1110,"type":"VEC3"},{"bufferView":3,"byteOffset":0,"componentType":5126,"count":1110,"type":"VEC2"}],"asset":{"generator":"FBX2glTF v0.13.1","version":"2.0"},"bufferViews":[{"buffer":0,"byteLength":4164,"byteOffset":0,"target":34963},{"buffer":0,"byteLength":13320,"byteOffset":4164,"target":34962},{"buffer":0,"byteLength":13320,"byteOffset":17484,"target":34962},{"buffer":0,"byteLength":8880,"byteOffset":30804,"target":34962}],"buffers":[{"byteLength":39684,"uri":"SM_track_07.bin"}],"images":[{"name":"Polygon_Camping_Texture","uri":"Polygon_Camping_Texture.psd"}],"materials":[{"alphaMode":"OPAQUE","doubleSided":false,"extras":{"fromFBX":{"isTruePBR":false,"shadingModel":"Phong"}},"name":"Material","pbrMetallicRoughness":{"baseColorFactor":[1,1,1,1],"baseColorTexture":{"index":0,"texCoord":0},"metallicFactor":0.400000005960464,"roughnessFactor":0.272165536880493}}],"meshes":[{"name":"track_07","primitives":[{"attributes":{"NORMAL":2,"POSITION":1,"TEXCOORD_0":3},"indices":0,"material":0,"mode":4}]}],"nodes":[{"mesh":0,"name":"track_07","rotation":[0,0,0,1],"scale":[1,1,1],"translation":[343.998352050781,-0.01499999966472,-28.57883644104]}],"samplers":[{}],"scene":0,"scenes":[{"name":"Root Scene","nodes":[0]}],"textures":[{"name":"base_color_texture","sampler":0,"source":0}]}