{"accessors":[{"bufferView":0,"byteOffset":0,"componentType":5123,"count":1482,"type":"SCALAR"},{"bufferView":1,"byteOffset":0,"componentType":5126,"count":892,"max":[27.9999771118164,0.00826855655759573,18.1337471008301],"min":[-28.0000133514404,-0.02173144370317,-17.8662204742432],"type":"VEC3"},{"bufferView":2,"byteOffset":0,"componentType":5126,"count":892,"type":"VEC3"},{"bufferView":3,"byteOffset":0,"componentType":5126,"count":892,"type":"VEC2"}],"asset":{"generator":"FBX2glTF v0.13.1","version":"2.0"},"bufferViews":[{"buffer":0,"byteLength":2964,"byteOffset":0,"target":34963},{"buffer":0,"byteLength":10704,"byteOffset":2964,"target":34962},{"buffer":0,"byteLength":10704,"byteOffset":13668,"target":34962},{"buffer":0,"byteLength":7136,"byteOffset":24372,"target":34962}],"buffers":[{"byteLength":31508,"uri":"SM_track_08.bin"}],"images":[{"name":"Polygon_Camping_Texture","uri":"Polygon_Camping_Texture.psd"}],"materials":[{"alphaMode":"OPAQUE","doubleSided":false,"extras":{"fromFBX":{"isTruePBR":false,"shadingModel":"Phong"}},"name":"Material","pbrMetallicRoughness":{"baseColorFactor":[1,1,1,1],"baseColorTexture":{"index":0,"texCoord":0},"metallicFactor":0.400000005960464,"roughnessFactor":0.272165536880493}}],"meshes":[{"name":"track_08","primitives":[{"attributes":{"NORMAL":2,"POSITION":1,"TEXCOORD_0":3},"indices":0,"material":0,"mode":4}]}],"nodes":[{"mesh":0,"name":"track_08","rotation":[0,0,0,1],"scale":[1,1,1],"translation":[397.182922363281,-0.0082685565576,-18.5958786010742]}],"samplers":[{}],"scene":0,"scenes":[{"name":"Root Scene","nodes":[0]}],"textures":[{"name":"base_color_texture","sampler":0,"source":0}]}