{"accessors":[{"bufferView":0,"byteOffset":0,"componentType":5123,"count":2082,"type":"SCALAR"},{"bufferView":1,"byteOffset":0,"componentType":5126,"count":1290,"max":[40.6483840942383,0.00852867681533098,27.0221176147461],"min":[-39.3516311645508,-0.02147132344544,-24.977933883667],"type":"VEC3"},{"bufferView":2,"byteOffset":0,"componentType":5126,"count":1290,"type":"VEC3"},{"bufferView":3,"byteOffset":0,"componentType":5126,"count":1290,"type":"VEC2"}],"asset":{"generator":"FBX2glTF v0.13.1","version":"2.0"},"bufferViews":[{"buffer":0,"byteLength":4164,"byteOffset":0,"target":34963},{"buffer":0,"byteLength":15480,"byteOffset":4164,"target":34962},{"buffer":0,"byteLength":15480,"byteOffset":19644,"target":34962},{"buffer":0,"byteLength":10320,"byteOffset":35124,"target":34962}],"buffers":[{"byteLength":45444,"uri":"SM_track_09.bin"}],"images":[{"name":"Polygon_Camping_Texture","uri":"Polygon_Camping_Texture.psd"}],"materials":[{"alphaMode":"OPAQUE","doubleSided":false,"extras":{"fromFBX":{"isTruePBR":false,"shadingModel":"Phong"}},"name":"Material","pbrMetallicRoughness":{"baseColorFactor":[1,1,1,1],"baseColorTexture":{"index":0,"texCoord":0},"metallicFactor":0.400000005960464,"roughnessFactor":0.272165536880493}}],"meshes":[{"name":"track_09","primitives":[{"attributes":{"NORMAL":2,"POSITION":1,"TEXCOORD_0":3},"indices":0,"material":0,"mode":4}]}],"nodes":[{"mesh":0,"name":"track_09","rotation":[0,0,0,1],"scale":[1,1,1],"translation":[467.057373046875,-0.00852867681533,-11.0900802612305]}],"samplers":[{}],"scene":0,"scenes":[{"name":"Root Scene","nodes":[0]}],"textures":[{"name":"base_color_texture","sampler":0,"source":0}]}