{"accessors":[{"bufferView":0,"byteOffset":0,"componentType":5123,"count":600,"type":"SCALAR"},{"bufferView":1,"byteOffset":0,"componentType":5126,"count":332,"max":[9.96815872192383,0.0149999996647239,9.96813774108887],"min":[-10.0318975448608,-0.01499999966472,-10.0318307876587],"type":"VEC3"},{"bufferView":2,"byteOffset":0,"componentType":5126,"count":332,"type":"VEC3"},{"bufferView":3,"byteOffset":0,"componentType":5126,"count":332,"type":"VEC2"}],"asset":{"generator":"FBX2glTF v0.13.1","version":"2.0"},"bufferViews":[{"buffer":0,"byteLength":1200,"byteOffset":0,"target":34963},{"buffer":0,"byteLength":3984,"byteOffset":1200,"target":34962},{"buffer":0,"byteLength":3984,"byteOffset":5184,"target":34962},{"buffer":0,"byteLength":2656,"byteOffset":9168,"target":34962}],"buffers":[{"byteLength":11824,"uri":"SM_track_04.bin"}],"images":[{"name":"Polygon_Camping_Texture","uri":"Polygon_Camping_Texture.psd"}],"materials":[{"alphaMode":"OPAQUE","doubleSided":false,"extras":{"fromFBX":{"isTruePBR":false,"shadingModel":"Phong"}},"name":"Material","pbrMetallicRoughness":{"baseColorFactor":[1,1,1,1],"baseColorTexture":{"index":0,"texCoord":0},"metallicFactor":0.400000005960464,"roughnessFactor":0.272165536880493}}],"meshes":[{"name":"track_04","primitives":[{"attributes":{"NORMAL":2,"POSITION":1,"TEXCOORD_0":3},"indices":0,"material":0,"mode":4}]}],"nodes":[{"mesh":0,"name":"track_04","rotation":[0,0,0,1],"scale":[1,1,1],"translation":[244.492828369141,-0.01499999966472,-9.9681339263916]}],"samplers":[{}],"scene":0,"scenes":[{"name":"Root Scene","nodes":[0]}],"textures":[{"name":"base_color_texture","sampler":0,"source":0}]}