{"accessors":[{"bufferView":0,"byteOffset":0,"componentType":5123,"count":342,"type":"SCALAR"},{"bufferView":1,"byteOffset":0,"componentType":5126,"count":208,"max":[8.2161283493042,0.0091525437310338,8.21613025665283],"min":[-7.78386211395264,-0.02084745280445,-7.78386402130127],"type":"VEC3"},{"bufferView":2,"byteOffset":0,"componentType":5126,"count":208,"type":"VEC3"},{"bufferView":3,"byteOffset":0,"componentType":5126,"count":208,"type":"VEC2"}],"asset":{"generator":"FBX2glTF v0.13.1","version":"2.0"},"bufferViews":[{"buffer":0,"byteLength":684,"byteOffset":0,"target":34963},{"buffer":0,"byteLength":2496,"byteOffset":684,"target":34962},{"buffer":0,"byteLength":2496,"byteOffset":3180,"target":34962},{"buffer":0,"byteLength":1664,"byteOffset":5676,"target":34962}],"buffers":[{"byteLength":7340,"uri":"SM_track_05.bin"}],"images":[{"name":"Polygon_Camping_Texture","uri":"Polygon_Camping_Texture.psd"}],"materials":[{"alphaMode":"OPAQUE","doubleSided":false,"extras":{"fromFBX":{"isTruePBR":false,"shadingModel":"Phong"}},"name":"Material","pbrMetallicRoughness":{"baseColorFactor":[1,1,1,1],"baseColorTexture":{"index":0,"texCoord":0},"metallicFactor":0.400000005960464,"roughnessFactor":0.272165536880493}}],"meshes":[{"name":"track_05","primitives":[{"attributes":{"NORMAL":2,"POSITION":1,"TEXCOORD_0":3},"indices":0,"material":0,"mode":4}]}],"nodes":[{"mesh":0,"name":"track_05","rotation":[0,0,0,1],"scale":[1,1,1],"translation":[264.165252685547,-0.00915254373103,-8.21612548828125]}],"samplers":[{}],"scene":0,"scenes":[{"name":"Root Scene","nodes":[0]}],"textures":[{"name":"base_color_texture","sampler":0,"source":0}]}