{"accessors":[{"bufferView":0,"byteOffset":0,"componentType":5123,"count":408,"type":"SCALAR"},{"bufferView":1,"byteOffset":0,"componentType":5126,"count":236,"max":[7.32744169235229,0.0149999996647239,7.82871007919312],"min":[-7.22471618652344,-0.01499999966472,-9.99140739440918],"type":"VEC3"},{"bufferView":2,"byteOffset":0,"componentType":5126,"count":236,"type":"VEC3"},{"bufferView":3,"byteOffset":0,"componentType":5126,"count":236,"type":"VEC2"}],"asset":{"generator":"FBX2glTF v0.13.1","version":"2.0"},"bufferViews":[{"buffer":0,"byteLength":816,"byteOffset":0,"target":34963},{"buffer":0,"byteLength":2832,"byteOffset":816,"target":34962},{"buffer":0,"byteLength":2832,"byteOffset":3648,"target":34962},{"buffer":0,"byteLength":1888,"byteOffset":6480,"target":34962}],"buffers":[{"byteLength":8368,"uri":"SM_track_03.bin"}],"images":[{"name":"Polygon_Camping_Texture","uri":"Polygon_Camping_Texture.psd"}],"materials":[{"alphaMode":"OPAQUE","doubleSided":false,"extras":{"fromFBX":{"isTruePBR":false,"shadingModel":"Phong"}},"name":"Material","pbrMetallicRoughness":{"baseColorFactor":[1,1,1,1],"baseColorTexture":{"index":0,"texCoord":0},"metallicFactor":0.400000005960464,"roughnessFactor":0.272165536880493}}],"meshes":[{"name":"track_03","primitives":[{"attributes":{"NORMAL":2,"POSITION":1,"TEXCOORD_0":3},"indices":0,"material":0,"mode":4}]}],"nodes":[{"mesh":0,"name":"track_03","rotation":[0,0,0,1],"scale":[1,1,1],"translation":[226.899826049805,-0.01499999966472,-7.82870626449585]}],"samplers":[{}],"scene":0,"scenes":[{"name":"Root Scene","nodes":[0]}],"textures":[{"name":"base_color_texture","sampler":0,"source":0}]}