{"accessors":[{"bufferView":0,"byteOffset":0,"componentType":5123,"count":16602,"type":"SCALAR"},{"bufferView":1,"byteOffset":0,"componentType":5126,"count":8859,"max":[47.9824371337891,12.7293853759766,8.24110412597656],"min":[-47.9824485778809,-0.00000001676381,-13.7588958740234],"type":"VEC3"},{"bufferView":2,"byteOffset":0,"componentType":5126,"count":8859,"type":"VEC3"},{"bufferView":3,"byteOffset":0,"componentType":5126,"count":8859,"type":"VEC2"}],"asset":{"generator":"FBX2glTF v0.13.1","version":"2.0"},"bufferViews":[{"buffer":0,"byteLength":33204,"byteOffset":0,"target":34963},{"buffer":0,"byteLength":106308,"byteOffset":33204,"target":34962},{"buffer":0,"byteLength":106308,"byteOffset":139512,"target":34962},{"buffer":0,"byteLength":70872,"byteOffset":245820,"target":34962}],"buffers":[{"byteLength":316692,"uri":"SM_track_start_finish.bin"}],"images":[{"name":"Polygon_Camping_Texture","uri":"Polygon_Camping_Texture.psd"}],"materials":[{"alphaMode":"OPAQUE","doubleSided":false,"extras":{"fromFBX":{"isTruePBR":false,"shadingModel":"Phong"}},"name":"Material","pbrMetallicRoughness":{"baseColorFactor":[1,1,1,1],"baseColorTexture":{"index":0,"texCoord":0},"metallicFactor":0.400000005960464,"roughnessFactor":0.272165536880493}}],"meshes":[{"name":"track_start_finish","primitives":[{"attributes":{"NORMAL":2,"POSITION":1,"TEXCOORD_0":3},"indices":0,"material":0,"mode":4}]}],"nodes":[{"mesh":0,"name":"track_start_finish","rotation":[0,0,0,1],"scale":[1,1,1],"translation":[141.909072875977,-0.02999998256564,-8.89580535888672]}],"samplers":[{}],"scene":0,"scenes":[{"name":"Root Scene","nodes":[0]}],"textures":[{"name":"base_color_texture","sampler":0,"source":0}]}