{"accessors":[{"bufferView":0,"byteOffset":0,"componentType":5123,"count":942,"type":"SCALAR"},{"bufferView":1,"byteOffset":0,"componentType":5126,"count":547,"max":[19.9999866485596,0.0149999996647239,9.68097305297852],"min":[-20.000036239624,-0.01499999966472,-10.3190851211548],"type":"VEC3"},{"bufferView":2,"byteOffset":0,"componentType":5126,"count":547,"type":"VEC3"},{"bufferView":3,"byteOffset":0,"componentType":5126,"count":547,"type":"VEC2"}],"asset":{"generator":"FBX2glTF v0.13.1","version":"2.0"},"bufferViews":[{"buffer":0,"byteLength":1884,"byteOffset":0,"target":34963},{"buffer":0,"byteLength":6564,"byteOffset":1884,"target":34962},{"buffer":0,"byteLength":6564,"byteOffset":8448,"target":34962},{"buffer":0,"byteLength":4376,"byteOffset":15012,"target":34962}],"buffers":[{"byteLength":19388,"uri":"SM_track_06.bin"}],"images":[{"name":"Polygon_Camping_Texture","uri":"Polygon_Camping_Texture.psd"}],"materials":[{"alphaMode":"OPAQUE","doubleSided":false,"extras":{"fromFBX":{"isTruePBR":false,"shadingModel":"Phong"}},"name":"Material","pbrMetallicRoughness":{"baseColorFactor":[1,1,1,1],"baseColorTexture":{"index":0,"texCoord":0},"metallicFactor":0.400000005960464,"roughnessFactor":0.272165536880493}}],"meshes":[{"name":"track_06","primitives":[{"attributes":{"NORMAL":2,"POSITION":1,"TEXCOORD_0":3},"indices":0,"material":0,"mode":4}]}],"nodes":[{"mesh":0,"name":"track_06","rotation":[0,0,0,1],"scale":[1,1,1],"translation":[297.083374023438,-0.01499999966472,-9.68087959289551]}],"samplers":[{}],"scene":0,"scenes":[{"name":"Root Scene","nodes":[0]}],"textures":[{"name":"base_color_texture","sampler":0,"source":0}]}