{"accessors":[{"bufferView":0,"byteOffset":0,"componentType":5123,"count":7194,"type":"SCALAR"},{"bufferView":1,"byteOffset":0,"componentType":5126,"count":4263,"max":[6.6651554107666,9.30000019073486,8.56554698944092],"min":[-5.33484411239624,0,-7.43445253372192],"type":"VEC3"},{"bufferView":2,"byteOffset":0,"componentType":5126,"count":4263,"type":"VEC3"},{"bufferView":3,"byteOffset":0,"componentType":5126,"count":4263,"type":"VEC2"},{"bufferView":4,"byteOffset":0,"componentType":5123,"count":168,"type":"SCALAR"},{"bufferView":5,"byteOffset":0,"componentType":5126,"count":110,"max":[4.59262180328369,8.98989295959473,7.71693515777588],"min":[-3.05654501914978,2.42634510993958,-0.21961234509945],"type":"VEC3"},{"bufferView":6,"byteOffset":0,"componentType":5126,"count":110,"type":"VEC3"},{"bufferView":7,"byteOffset":0,"componentType":5126,"count":110,"type":"VEC2"}],"asset":{"generator":"FBX2glTF v0.13.1","version":"2.0"},"bufferViews":[{"buffer":0,"byteLength":14388,"byteOffset":0,"target":34963},{"buffer":0,"byteLength":51156,"byteOffset":14388,"target":34962},{"buffer":0,"byteLength":51156,"byteOffset":65544,"target":34962},{"buffer":0,"byteLength":34104,"byteOffset":116700,"target":34962},{"buffer":0,"byteLength":336,"byteOffset":150804,"target":34963},{"buffer":0,"byteLength":1320,"byteOffset":151140,"target":34962},{"buffer":0,"byteLength":1320,"byteOffset":152460,"target":34962},{"buffer":0,"byteLength":880,"byteOffset":153780,"target":34962}],"buffers":[{"byteLength":154660,"uri":"SM_cottage_03.bin"}],"images":[{"name":"Polygon_Texture_vol2","uri":"Polygon_Texture_vol2.png"}],"materials":[{"alphaMode":"OPAQUE","doubleSided":false,"extras":{"fromFBX":{"isTruePBR":false,"shadingModel":"Phong"}},"name":"Material","pbrMetallicRoughness":{"baseColorFactor":[1,1,1,1],"baseColorTexture":{"index":0,"texCoord":0},"metallicFactor":0.400000005960464,"roughnessFactor":0.229415729641914}},{"alphaMode":"OPAQUE","doubleSided":false,"extras":{"fromFBX":{"isTruePBR":false,"shadingModel":"Phong"}},"name":"Material.001","pbrMetallicRoughness":{"baseColorFactor":[0.800000071525574,0,0.00387099361978471,1],"metallicFactor":0.400000005960464,"roughnessFactor":0.272165536880493}}],"meshes":[{"name":"cottage_03","primitives":[{"attributes":{"NORMAL":2,"POSITION":1,"TEXCOORD_0":3},"indices":0,"material":0,"mode":4},{"attributes":{"NORMAL":6,"POSITION":5,"TEXCOORD_0":7},"indices":4,"material":1,"mode":4}]}],"nodes":[{"mesh":0,"name":"cottage_03","rotation":[0,0,0,1],"scale":[1,1,1],"translation":[55.1868591308594,0,-136.242126464844]}],"samplers":[{}],"scene":0,"scenes":[{"name":"Root Scene","nodes":[0]}],"textures":[{"name":"base_color_texture","sampler":0,"source":0}]}