{"accessors":[{"bufferView":0,"byteOffset":0,"componentType":5123,"count":5250,"type":"SCALAR"},{"bufferView":1,"byteOffset":0,"componentType":5126,"count":2857,"max":[7.7246208190918,10.4056158065796,9.67156028747559],"min":[-10.2753791809082,0,-8.32844066619873],"type":"VEC3"},{"bufferView":2,"byteOffset":0,"componentType":5126,"count":2857,"type":"VEC3"},{"bufferView":3,"byteOffset":0,"componentType":5126,"count":2857,"type":"VEC2"},{"bufferView":4,"byteOffset":0,"componentType":5123,"count":210,"type":"SCALAR"},{"bufferView":5,"byteOffset":0,"componentType":5126,"count":140,"max":[6.92450857162476,6.34639739990234,5.63872718811035],"min":[-10.0118970870972,0.566009342670441,-8.01302242279053],"type":"VEC3"},{"bufferView":6,"byteOffset":0,"componentType":5126,"count":140,"type":"VEC3"},{"bufferView":7,"byteOffset":0,"componentType":5126,"count":140,"type":"VEC2"}],"asset":{"generator":"FBX2glTF v0.13.1","version":"2.0"},"bufferViews":[{"buffer":0,"byteLength":10500,"byteOffset":0,"target":34963},{"buffer":0,"byteLength":34284,"byteOffset":10500,"target":34962},{"buffer":0,"byteLength":34284,"byteOffset":44784,"target":34962},{"buffer":0,"byteLength":22856,"byteOffset":79068,"target":34962},{"buffer":0,"byteLength":420,"byteOffset":101924,"target":34963},{"buffer":0,"byteLength":1680,"byteOffset":102344,"target":34962},{"buffer":0,"byteLength":1680,"byteOffset":104024,"target":34962},{"buffer":0,"byteLength":1120,"byteOffset":105704,"target":34962}],"buffers":[{"byteLength":106824,"uri":"SM_cottage_04.bin"}],"images":[{"name":"Polygon_Texture_vol2","uri":"Polygon_Texture_vol2.png"}],"materials":[{"alphaMode":"OPAQUE","doubleSided":false,"extras":{"fromFBX":{"isTruePBR":false,"shadingModel":"Phong"}},"name":"Material","pbrMetallicRoughness":{"baseColorFactor":[1,1,1,1],"baseColorTexture":{"index":0,"texCoord":0},"metallicFactor":0.400000005960464,"roughnessFactor":0.229415729641914}},{"alphaMode":"OPAQUE","doubleSided":false,"extras":{"fromFBX":{"isTruePBR":false,"shadingModel":"Phong"}},"name":"Material.001","pbrMetallicRoughness":{"baseColorFactor":[0.800000071525574,0,0.00387099361978471,1],"metallicFactor":0.400000005960464,"roughnessFactor":0.272165536880493}}],"meshes":[{"name":"cottage_04","primitives":[{"attributes":{"NORMAL":2,"POSITION":1,"TEXCOORD_0":3},"indices":0,"material":0,"mode":4},{"attributes":{"NORMAL":6,"POSITION":5,"TEXCOORD_0":7},"indices":4,"material":1,"mode":4}]}],"nodes":[{"mesh":0,"name":"cottage_04","rotation":[0,0,0,1],"scale":[1,1,1],"translation":[38.2859039306641,0,-137.34814453125]}],"samplers":[{}],"scene":0,"scenes":[{"name":"Root Scene","nodes":[0]}],"textures":[{"name":"base_color_texture","sampler":0,"source":0}]}