{"accessors":[{"bufferView":0,"byteOffset":0,"componentType":5123,"count":9684,"type":"SCALAR"},{"bufferView":1,"byteOffset":0,"componentType":5126,"count":5694,"max":[5.72352457046509,7.18728446960449,6.93400192260742],"min":[-6.27647590637207,0,-7.06599760055542],"type":"VEC3"},{"bufferView":2,"byteOffset":0,"componentType":5126,"count":5694,"type":"VEC3"},{"bufferView":3,"byteOffset":0,"componentType":5126,"count":5694,"type":"VEC2"},{"bufferView":4,"byteOffset":0,"componentType":5123,"count":204,"type":"SCALAR"},{"bufferView":5,"byteOffset":0,"componentType":5126,"count":136,"max":[5.52919244766235,6.87718057632446,5.47286510467529],"min":[-6.14339351654053,0.5,-6.91370391845703],"type":"VEC3"},{"bufferView":6,"byteOffset":0,"componentType":5126,"count":136,"type":"VEC3"},{"bufferView":7,"byteOffset":0,"componentType":5126,"count":136,"type":"VEC2"},{"bufferView":8,"byteOffset":0,"componentType":5123,"count":132,"type":"SCALAR"},{"bufferView":9,"byteOffset":0,"componentType":5126,"count":80,"max":[4.57794857025146,3.42664480209351,4.4288444519043],"min":[3.17466306686401,3.39835739135742,3.99102520942688],"type":"VEC3"},{"bufferView":10,"byteOffset":0,"componentType":5126,"count":80,"type":"VEC3"},{"bufferView":11,"byteOffset":0,"componentType":5126,"count":80,"type":"VEC2"}],"asset":{"generator":"FBX2glTF v0.13.1","version":"2.0"},"bufferViews":[{"buffer":0,"byteLength":19368,"byteOffset":0,"target":34963},{"buffer":0,"byteLength":68328,"byteOffset":19368,"target":34962},{"buffer":0,"byteLength":68328,"byteOffset":87696,"target":34962},{"buffer":0,"byteLength":45552,"byteOffset":156024,"target":34962},{"buffer":0,"byteLength":408,"byteOffset":201576,"target":34963},{"buffer":0,"byteLength":1632,"byteOffset":201984,"target":34962},{"buffer":0,"byteLength":1632,"byteOffset":203616,"target":34962},{"buffer":0,"byteLength":1088,"byteOffset":205248,"target":34962},{"buffer":0,"byteLength":264,"byteOffset":206336,"target":34963},{"buffer":0,"byteLength":960,"byteOffset":206600,"target":34962},{"buffer":0,"byteLength":960,"byteOffset":207560,"target":34962},{"buffer":0,"byteLength":640,"byteOffset":208520,"target":34962}],"buffers":[{"byteLength":209160,"uri":"SM_cottage_01.bin"}],"images":[{"name":"Polygon_Texture_vol2","uri":"Polygon_Texture_vol2.png"}],"materials":[{"alphaMode":"OPAQUE","doubleSided":false,"extras":{"fromFBX":{"isTruePBR":false,"shadingModel":"Phong"}},"name":"Material","pbrMetallicRoughness":{"baseColorFactor":[1,1,1,1],"baseColorTexture":{"index":0,"texCoord":0},"metallicFactor":0.400000005960464,"roughnessFactor":0.229415729641914}},{"alphaMode":"OPAQUE","doubleSided":false,"extras":{"fromFBX":{"isTruePBR":false,"shadingModel":"Phong"}},"name":"Material.001","pbrMetallicRoughness":{"baseColorFactor":[0.800000071525574,0,0.00387099361978471,1],"metallicFactor":0.400000005960464,"roughnessFactor":0.272165536880493}},{"alphaMode":"OPAQUE","doubleSided":false,"extras":{"fromFBX":{"isTruePBR":false,"shadingModel":"Phong"}},"name":"Material.002","pbrMetallicRoughness":{"baseColorFactor":[0.0607280805706978,0,0.800000071525574,1],"metallicFactor":0.400000005960464,"roughnessFactor":0.272165536880493}}],"meshes":[{"name":"cottage_01","primitives":[{"attributes":{"NORMAL":2,"POSITION":1,"TEXCOORD_0":3},"indices":0,"material":0,"mode":4},{"attributes":{"NORMAL":6,"POSITION":5,"TEXCOORD_0":7},"indices":4,"material":1,"mode":4},{"attributes":{"NORMAL":10,"POSITION":9,"TEXCOORD_0":11},"indices":8,"material":2,"mode":4}]}],"nodes":[{"mesh":0,"name":"cottage_01","rotation":[0,0,0,1],"scale":[1,1,1],"translation":[97.2212982177734,0,-134.611877441406]}],"samplers":[{}],"scene":0,"scenes":[{"name":"Root Scene","nodes":[0]}],"textures":[{"name":"base_color_texture","sampler":0,"source":0}]}