{"accessors":[{"bufferView":0,"byteOffset":0,"componentType":5123,"count":8577,"type":"SCALAR"},{"bufferView":1,"byteOffset":0,"componentType":5126,"count":5137,"max":[10.0362777709961,9.85591411590576,7.57521390914917],"min":[-11.9637212753296,-0.00000000076416,-8.42478561401367],"type":"VEC3"},{"bufferView":2,"byteOffset":0,"componentType":5126,"count":5137,"type":"VEC3"},{"bufferView":3,"byteOffset":0,"componentType":5126,"count":5137,"type":"VEC2"},{"bufferView":4,"byteOffset":0,"componentType":5123,"count":372,"type":"SCALAR"},{"bufferView":5,"byteOffset":0,"componentType":5126,"count":248,"max":[9.4421911239624,9.37291812896729,6.93797826766968],"min":[-10.4446668624878,0.0836767256259918,-8.03338813781738],"type":"VEC3"},{"bufferView":6,"byteOffset":0,"componentType":5126,"count":248,"type":"VEC3"},{"bufferView":7,"byteOffset":0,"componentType":5126,"count":248,"type":"VEC2"}],"asset":{"generator":"FBX2glTF v0.13.1","version":"2.0"},"bufferViews":[{"buffer":0,"byteLength":17154,"byteOffset":0,"target":34963},{"buffer":0,"byteLength":61644,"byteOffset":17156,"target":34962},{"buffer":0,"byteLength":61644,"byteOffset":78800,"target":34962},{"buffer":0,"byteLength":41096,"byteOffset":140444,"target":34962},{"buffer":0,"byteLength":744,"byteOffset":181540,"target":34963},{"buffer":0,"byteLength":2976,"byteOffset":182284,"target":34962},{"buffer":0,"byteLength":2976,"byteOffset":185260,"target":34962},{"buffer":0,"byteLength":1984,"byteOffset":188236,"target":34962}],"buffers":[{"byteLength":190220,"uri":"SM_cottage_02.bin"}],"images":[{"name":"Polygon_Texture_vol2","uri":"Polygon_Texture_vol2.png"}],"materials":[{"alphaMode":"OPAQUE","doubleSided":false,"extras":{"fromFBX":{"isTruePBR":false,"shadingModel":"Phong"}},"name":"Material","pbrMetallicRoughness":{"baseColorFactor":[1,1,1,1],"baseColorTexture":{"index":0,"texCoord":0},"metallicFactor":0.400000005960464,"roughnessFactor":0.229415729641914}},{"alphaMode":"OPAQUE","doubleSided":false,"extras":{"fromFBX":{"isTruePBR":false,"shadingModel":"Phong"}},"name":"Material.001","pbrMetallicRoughness":{"baseColorFactor":[0.800000071525574,0,0.00387099361978471,1],"metallicFactor":0.400000005960464,"roughnessFactor":0.272165536880493}}],"meshes":[{"name":"cottage_02","primitives":[{"attributes":{"NORMAL":2,"POSITION":1,"TEXCOORD_0":3},"indices":0,"material":0,"mode":4},{"attributes":{"NORMAL":6,"POSITION":5,"TEXCOORD_0":7},"indices":4,"material":1,"mode":4}]}],"nodes":[{"mesh":0,"name":"cottage_02","rotation":[0,0,0,1],"scale":[1,1,1],"translation":[77.649169921875,0.000000000764162122468548,-135.251800537109]}],"samplers":[{}],"scene":0,"scenes":[{"name":"Root Scene","nodes":[0]}],"textures":[{"name":"base_color_texture","sampler":0,"source":0}]}