{"accessors":[{"bufferView":0,"byteOffset":0,"componentType":5123,"count":8589,"type":"SCALAR"},{"bufferView":1,"byteOffset":0,"componentType":5126,"count":4917,"max":[9.0601863861084,8,7.48348426818848],"min":[-8.93981456756592,0,-6.51725196838379],"type":"VEC3"},{"bufferView":2,"byteOffset":0,"componentType":5126,"count":4917,"type":"VEC3"},{"bufferView":3,"byteOffset":0,"componentType":5126,"count":4917,"type":"VEC2"},{"bufferView":4,"byteOffset":0,"componentType":5123,"count":348,"type":"SCALAR"},{"bufferView":5,"byteOffset":0,"componentType":5126,"count":236,"max":[8.92445182800293,7.23637008666992,7.43260192871094],"min":[-6.5756139755249,0.138510212302208,-5.33524942398071],"type":"VEC3"},{"bufferView":6,"byteOffset":0,"componentType":5126,"count":236,"type":"VEC3"},{"bufferView":7,"byteOffset":0,"componentType":5126,"count":236,"type":"VEC2"},{"bufferView":8,"byteOffset":0,"componentType":5123,"count":138,"type":"SCALAR"},{"bufferView":9,"byteOffset":0,"componentType":5126,"count":74,"max":[8.71295070648193,4.09999990463257,7.40897274017334],"min":[-0.59257984161377,0.0999999046325684,-6.44920349121094],"type":"VEC3"},{"bufferView":10,"byteOffset":0,"componentType":5126,"count":74,"type":"VEC3"},{"bufferView":11,"byteOffset":0,"componentType":5126,"count":74,"type":"VEC2"}],"asset":{"generator":"FBX2glTF v0.13.1","version":"2.0"},"bufferViews":[{"buffer":0,"byteLength":17178,"byteOffset":0,"target":34963},{"buffer":0,"byteLength":59004,"byteOffset":17180,"target":34962},{"buffer":0,"byteLength":59004,"byteOffset":76184,"target":34962},{"buffer":0,"byteLength":39336,"byteOffset":135188,"target":34962},{"buffer":0,"byteLength":696,"byteOffset":174524,"target":34963},{"buffer":0,"byteLength":2832,"byteOffset":175220,"target":34962},{"buffer":0,"byteLength":2832,"byteOffset":178052,"target":34962},{"buffer":0,"byteLength":1888,"byteOffset":180884,"target":34962},{"buffer":0,"byteLength":276,"byteOffset":182772,"target":34963},{"buffer":0,"byteLength":888,"byteOffset":183048,"target":34962},{"buffer":0,"byteLength":888,"byteOffset":183936,"target":34962},{"buffer":0,"byteLength":592,"byteOffset":184824,"target":34962}],"buffers":[{"byteLength":185416,"uri":"SM_cottage_05.bin"}],"images":[{"name":"Polygon_Texture_vol2","uri":"Polygon_Texture_vol2.png"}],"materials":[{"alphaMode":"OPAQUE","doubleSided":false,"extras":{"fromFBX":{"isTruePBR":false,"shadingModel":"Phong"}},"name":"Material","pbrMetallicRoughness":{"baseColorFactor":[1,1,1,1],"baseColorTexture":{"index":0,"texCoord":0},"metallicFactor":0.400000005960464,"roughnessFactor":0.229415729641914}},{"alphaMode":"OPAQUE","doubleSided":false,"extras":{"fromFBX":{"isTruePBR":false,"shadingModel":"Phong"}},"name":"Material.001","pbrMetallicRoughness":{"baseColorFactor":[0.800000071525574,0,0.00387099361978471,1],"metallicFactor":0.400000005960464,"roughnessFactor":0.272165536880493}},{"alphaMode":"OPAQUE","doubleSided":false,"extras":{"fromFBX":{"isTruePBR":false,"shadingModel":"Phong"}},"name":"Material.002","pbrMetallicRoughness":{"baseColorFactor":[0.0607280805706978,0,0.800000071525574,1],"metallicFactor":0.400000005960464,"roughnessFactor":0.272165536880493}}],"meshes":[{"name":"cottage_05","primitives":[{"attributes":{"NORMAL":2,"POSITION":1,"TEXCOORD_0":3},"indices":0,"material":0,"mode":4},{"attributes":{"NORMAL":6,"POSITION":5,"TEXCOORD_0":7},"indices":4,"material":1,"mode":4},{"attributes":{"NORMAL":10,"POSITION":9,"TEXCOORD_0":11},"indices":8,"material":2,"mode":4}]}],"nodes":[{"mesh":0,"name":"cottage_05","rotation":[0,0,0,1],"scale":[1,1,1],"translation":[15.7356414794922,0,-138.765106201172]}],"samplers":[{}],"scene":0,"scenes":[{"name":"Root Scene","nodes":[0]}],"textures":[{"name":"base_color_texture","sampler":0,"source":0}]}