{"accessors":[{"bufferView":0,"byteOffset":0,"componentType":5123,"count":23352,"type":"SCALAR"},{"bufferView":1,"byteOffset":0,"componentType":5126,"count":12435,"max":[18,33.1606788635254,11],"min":[-16,0,-9],"type":"VEC3"},{"bufferView":2,"byteOffset":0,"componentType":5126,"count":12435,"type":"VEC3"},{"bufferView":3,"byteOffset":0,"componentType":5126,"count":12435,"type":"VEC2"},{"bufferView":4,"byteOffset":0,"componentType":5123,"count":1785,"type":"SCALAR"},{"bufferView":5,"byteOffset":0,"componentType":5126,"count":1189,"max":[17.8553123474121,31.4045543670654,10.8210229873657],"min":[-15.8210229873657,0.0355253480374813,-8.82102298736572],"type":"VEC3"},{"bufferView":6,"byteOffset":0,"componentType":5126,"count":1189,"type":"VEC3"},{"bufferView":7,"byteOffset":0,"componentType":5126,"count":1189,"type":"VEC2"}],"asset":{"generator":"FBX2glTF v0.13.1","version":"2.0"},"bufferViews":[{"buffer":0,"byteLength":46704,"byteOffset":0,"target":34963},{"buffer":0,"byteLength":149220,"byteOffset":46704,"target":34962},{"buffer":0,"byteLength":149220,"byteOffset":195924,"target":34962},{"buffer":0,"byteLength":99480,"byteOffset":345144,"target":34962},{"buffer":0,"byteLength":3570,"byteOffset":444624,"target":34963},{"buffer":0,"byteLength":14268,"byteOffset":448196,"target":34962},{"buffer":0,"byteLength":14268,"byteOffset":462464,"target":34962},{"buffer":0,"byteLength":9512,"byteOffset":476732,"target":34962}],"buffers":[{"byteLength":486244,"uri":"SM_House_01.bin"}],"images":[{"name":"Polygon_Texture_vol2","uri":"Polygon_Texture_vol2.png"}],"materials":[{"alphaMode":"OPAQUE","doubleSided":false,"extras":{"fromFBX":{"isTruePBR":false,"shadingModel":"Phong"}},"name":"Material","pbrMetallicRoughness":{"baseColorFactor":[1,1,1,1],"baseColorTexture":{"index":0,"texCoord":0},"metallicFactor":0.400000005960464,"roughnessFactor":0.229415729641914}},{"alphaMode":"OPAQUE","doubleSided":false,"extras":{"fromFBX":{"isTruePBR":false,"shadingModel":"Phong"}},"name":"Material.001","pbrMetallicRoughness":{"baseColorFactor":[0.800000071525574,0,0.00387099361978471,1],"metallicFactor":0.400000005960464,"roughnessFactor":0.272165536880493}}],"meshes":[{"name":"House_01","primitives":[{"attributes":{"NORMAL":2,"POSITION":1,"TEXCOORD_0":3},"indices":0,"material":0,"mode":4},{"attributes":{"NORMAL":6,"POSITION":5,"TEXCOORD_0":7},"indices":4,"material":1,"mode":4}]}],"nodes":[{"mesh":0,"name":"House_01","rotation":[0,0,0,1],"scale":[1,1,1],"translation":[322.493835449219,0,-61.3883666992188]}],"samplers":[{}],"scene":0,"scenes":[{"name":"Root Scene","nodes":[0]}],"textures":[{"name":"base_color_texture","sampler":0,"source":0}]}