{"accessors":[{"bufferView":0,"byteOffset":0,"componentType":5123,"count":34329,"type":"SCALAR"},{"bufferView":1,"byteOffset":0,"componentType":5126,"count":18140,"max":[13.0215063095093,24.5968837738037,7.53846168518066],"min":[-13.0218868255615,0,-6.46153926849365],"type":"VEC3"},{"bufferView":2,"byteOffset":0,"componentType":5126,"count":18140,"type":"VEC3"},{"bufferView":3,"byteOffset":0,"componentType":5126,"count":18140,"type":"VEC2"},{"bufferView":4,"byteOffset":0,"componentType":5123,"count":2904,"type":"SCALAR"},{"bufferView":5,"byteOffset":0,"componentType":5126,"count":1936,"max":[11.8543043136597,24.1661491394043,7.35335302352905],"min":[-12.850001335144,0.0504137426614761,-6.30463647842407],"type":"VEC3"},{"bufferView":6,"byteOffset":0,"componentType":5126,"count":1936,"type":"VEC3"},{"bufferView":7,"byteOffset":0,"componentType":5126,"count":1936,"type":"VEC2"},{"bufferView":8,"byteOffset":0,"componentType":5123,"count":660,"type":"SCALAR"},{"bufferView":9,"byteOffset":0,"componentType":5126,"count":330,"max":[13.0031805038452,20.5905361175537,1.09465026855469],"min":[-13.0035619735718,5.12807178497314,-5.98573112487793],"type":"VEC3"},{"bufferView":10,"byteOffset":0,"componentType":5126,"count":330,"type":"VEC3"},{"bufferView":11,"byteOffset":0,"componentType":5126,"count":330,"type":"VEC2"}],"asset":{"generator":"FBX2glTF v0.13.1","version":"2.0"},"bufferViews":[{"buffer":0,"byteLength":68658,"byteOffset":0,"target":34963},{"buffer":0,"byteLength":217680,"byteOffset":68660,"target":34962},{"buffer":0,"byteLength":217680,"byteOffset":286340,"target":34962},{"buffer":0,"byteLength":145120,"byteOffset":504020,"target":34962},{"buffer":0,"byteLength":5808,"byteOffset":649140,"target":34963},{"buffer":0,"byteLength":23232,"byteOffset":654948,"target":34962},{"buffer":0,"byteLength":23232,"byteOffset":678180,"target":34962},{"buffer":0,"byteLength":15488,"byteOffset":701412,"target":34962},{"buffer":0,"byteLength":1320,"byteOffset":716900,"target":34963},{"buffer":0,"byteLength":3960,"byteOffset":718220,"target":34962},{"buffer":0,"byteLength":3960,"byteOffset":722180,"target":34962},{"buffer":0,"byteLength":2640,"byteOffset":726140,"target":34962}],"buffers":[{"byteLength":728780,"uri":"SM_House_06.bin"}],"images":[{"name":"Polygon_Texture_vol2","uri":"Polygon_Texture_vol2.png"}],"materials":[{"alphaMode":"OPAQUE","doubleSided":false,"extras":{"fromFBX":{"isTruePBR":false,"shadingModel":"Phong"}},"name":"Material","pbrMetallicRoughness":{"baseColorFactor":[1,1,1,1],"baseColorTexture":{"index":0,"texCoord":0},"metallicFactor":0.400000005960464,"roughnessFactor":0.229415729641914}},{"alphaMode":"OPAQUE","doubleSided":false,"extras":{"fromFBX":{"isTruePBR":false,"shadingModel":"Phong"}},"name":"Material.001","pbrMetallicRoughness":{"baseColorFactor":[0.800000071525574,0,0.00387099361978471,1],"metallicFactor":0.400000005960464,"roughnessFactor":0.272165536880493}},{"alphaMode":"OPAQUE","doubleSided":false,"extras":{"fromFBX":{"isTruePBR":false,"shadingModel":"Phong"}},"name":"Material.002","pbrMetallicRoughness":{"baseColorFactor":[0.0607280805706978,0,0.800000071525574,1],"metallicFactor":0.400000005960464,"roughnessFactor":0.272165536880493}}],"meshes":[{"name":"House_06","primitives":[{"attributes":{"NORMAL":2,"POSITION":1,"TEXCOORD_0":3},"indices":0,"material":0,"mode":4},{"attributes":{"NORMAL":6,"POSITION":5,"TEXCOORD_0":7},"indices":4,"material":1,"mode":4},{"attributes":{"NORMAL":10,"POSITION":9,"TEXCOORD_0":11},"indices":8,"material":2,"mode":4}]}],"nodes":[{"mesh":0,"name":"House_06","rotation":[0,0,0,1],"scale":[1,1,1],"translation":[138.935592651367,0,-61.220832824707]}],"samplers":[{}],"scene":0,"scenes":[{"name":"Root Scene","nodes":[0]}],"textures":[{"name":"base_color_texture","sampler":0,"source":0}]}