{"accessors":[{"bufferView":0,"byteOffset":0,"componentType":5123,"count":19491,"type":"SCALAR"},{"bufferView":1,"byteOffset":0,"componentType":5126,"count":11821,"max":[39.5944633483887,25.1294727325439,32.2104606628418],"min":[-30.4055347442627,-0.00000001260597,-31.7895412445068],"type":"VEC3"},{"bufferView":2,"byteOffset":0,"componentType":5126,"count":11821,"type":"VEC3"},{"bufferView":3,"byteOffset":0,"componentType":5126,"count":11821,"type":"VEC2"},{"bufferView":4,"byteOffset":0,"componentType":5123,"count":1488,"type":"SCALAR"},{"bufferView":5,"byteOffset":0,"componentType":5126,"count":992,"max":[37.0875244140625,20.8425235748291,32.1277809143066],"min":[-29.3456630706787,0.0973432511091232,-31.289623260498],"type":"VEC3"},{"bufferView":6,"byteOffset":0,"componentType":5126,"count":992,"type":"VEC3"},{"bufferView":7,"byteOffset":0,"componentType":5126,"count":992,"type":"VEC2"}],"asset":{"generator":"FBX2glTF v0.13.1","version":"2.0"},"bufferViews":[{"buffer":0,"byteLength":38982,"byteOffset":0,"target":34963},{"buffer":0,"byteLength":141852,"byteOffset":38984,"target":34962},{"buffer":0,"byteLength":141852,"byteOffset":180836,"target":34962},{"buffer":0,"byteLength":94568,"byteOffset":322688,"target":34962},{"buffer":0,"byteLength":2976,"byteOffset":417256,"target":34963},{"buffer":0,"byteLength":11904,"byteOffset":420232,"target":34962},{"buffer":0,"byteLength":11904,"byteOffset":432136,"target":34962},{"buffer":0,"byteLength":7936,"byteOffset":444040,"target":34962}],"buffers":[{"byteLength":451976,"uri":"SM_House_07.bin"}],"images":[{"name":"Polygon_Texture_vol2","uri":"Polygon_Texture_vol2.png"}],"materials":[{"alphaMode":"OPAQUE","doubleSided":false,"extras":{"fromFBX":{"isTruePBR":false,"shadingModel":"Phong"}},"name":"Material","pbrMetallicRoughness":{"baseColorFactor":[1,1,1,1],"baseColorTexture":{"index":0,"texCoord":0},"metallicFactor":0.400000005960464,"roughnessFactor":0.229415729641914}},{"alphaMode":"OPAQUE","doubleSided":false,"extras":{"fromFBX":{"isTruePBR":false,"shadingModel":"Phong"}},"name":"Material.001","pbrMetallicRoughness":{"baseColorFactor":[0.800000071525574,0,0.00387099361978471,1],"metallicFactor":0.400000005960464,"roughnessFactor":0.272165536880493}}],"meshes":[{"name":"House_07","primitives":[{"attributes":{"NORMAL":2,"POSITION":1,"TEXCOORD_0":3},"indices":0,"material":0,"mode":4},{"attributes":{"NORMAL":6,"POSITION":5,"TEXCOORD_0":7},"indices":4,"material":1,"mode":4}]}],"nodes":[{"mesh":0,"name":"House_07","rotation":[0,0,0,1],"scale":[1,1,1],"translation":[80.5358428955078,-3,-55.588508605957]}],"samplers":[{}],"scene":0,"scenes":[{"name":"Root Scene","nodes":[0]}],"textures":[{"name":"base_color_texture","sampler":0,"source":0}]}