{"accessors":[{"bufferView":0,"byteOffset":0,"componentType":5123,"count":17100,"type":"SCALAR"},{"bufferView":1,"byteOffset":0,"componentType":5126,"count":9265,"max":[18.5,18.9999694824219,10.088812828064],"min":[-18.5,-0.0120683060959,-10.088812828064],"type":"VEC3"},{"bufferView":2,"byteOffset":0,"componentType":5126,"count":9265,"type":"VEC3"},{"bufferView":3,"byteOffset":0,"componentType":5126,"count":9265,"type":"VEC2"},{"bufferView":4,"byteOffset":0,"componentType":5123,"count":1176,"type":"SCALAR"},{"bufferView":5,"byteOffset":0,"componentType":5126,"count":784,"max":[17.9121112823486,17.412088394165,8.66381168365479],"min":[-17.9121112823486,0,-8.66381168365479],"type":"VEC3"},{"bufferView":6,"byteOffset":0,"componentType":5126,"count":784,"type":"VEC3"},{"bufferView":7,"byteOffset":0,"componentType":5126,"count":784,"type":"VEC2"}],"asset":{"generator":"FBX2glTF v0.13.1","version":"2.0"},"bufferViews":[{"buffer":0,"byteLength":34200,"byteOffset":0,"target":34963},{"buffer":0,"byteLength":111180,"byteOffset":34200,"target":34962},{"buffer":0,"byteLength":111180,"byteOffset":145380,"target":34962},{"buffer":0,"byteLength":74120,"byteOffset":256560,"target":34962},{"buffer":0,"byteLength":2352,"byteOffset":330680,"target":34963},{"buffer":0,"byteLength":9408,"byteOffset":333032,"target":34962},{"buffer":0,"byteLength":9408,"byteOffset":342440,"target":34962},{"buffer":0,"byteLength":6272,"byteOffset":351848,"target":34962}],"buffers":[{"byteLength":358120,"uri":"SM_House_08.bin"}],"images":[{"name":"Polygon_Texture_vol2","uri":"Polygon_Texture_vol2.png"}],"materials":[{"alphaMode":"OPAQUE","doubleSided":false,"extras":{"fromFBX":{"isTruePBR":false,"shadingModel":"Phong"}},"name":"Material","pbrMetallicRoughness":{"baseColorFactor":[1,1,1,1],"baseColorTexture":{"index":0,"texCoord":0},"metallicFactor":0.400000005960464,"roughnessFactor":0.229415729641914}},{"alphaMode":"OPAQUE","doubleSided":false,"extras":{"fromFBX":{"isTruePBR":false,"shadingModel":"Phong"}},"name":"Material.001","pbrMetallicRoughness":{"baseColorFactor":[0.800000071525574,0,0.00387099361978471,1],"metallicFactor":0.400000005960464,"roughnessFactor":0.272165536880493}}],"meshes":[{"name":"House_08","primitives":[{"attributes":{"NORMAL":2,"POSITION":1,"TEXCOORD_0":3},"indices":0,"material":0,"mode":4},{"attributes":{"NORMAL":6,"POSITION":5,"TEXCOORD_0":7},"indices":4,"material":1,"mode":4}]}],"nodes":[{"mesh":0,"name":"House_08","rotation":[0,0,0,1],"scale":[1,1,1],"translation":[29.8628063201904,0,-61.220832824707]}],"samplers":[{}],"scene":0,"scenes":[{"name":"Root Scene","nodes":[0]}],"textures":[{"name":"base_color_texture","sampler":0,"source":0}]}