{"accessors":[{"bufferView":0,"byteOffset":0,"componentType":5123,"count":14364,"type":"SCALAR"},{"bufferView":1,"byteOffset":0,"componentType":5126,"count":8286,"max":[26.0801525115967,23,8],"min":[-22.1998767852783,-0.00000000745058,-8.03825378417969],"type":"VEC3"},{"bufferView":2,"byteOffset":0,"componentType":5126,"count":8286,"type":"VEC3"},{"bufferView":3,"byteOffset":0,"componentType":5126,"count":8286,"type":"VEC2"},{"bufferView":4,"byteOffset":0,"componentType":5123,"count":1152,"type":"SCALAR"},{"bufferView":5,"byteOffset":0,"componentType":5126,"count":768,"max":[25.8536338806152,20.7734813690186,7.8761887550354],"min":[-21.948392868042,0.0457365550100803,-7.93311929702759],"type":"VEC3"},{"bufferView":6,"byteOffset":0,"componentType":5126,"count":768,"type":"VEC3"},{"bufferView":7,"byteOffset":0,"componentType":5126,"count":768,"type":"VEC2"}],"asset":{"generator":"FBX2glTF v0.13.1","version":"2.0"},"bufferViews":[{"buffer":0,"byteLength":28728,"byteOffset":0,"target":34963},{"buffer":0,"byteLength":99432,"byteOffset":28728,"target":34962},{"buffer":0,"byteLength":99432,"byteOffset":128160,"target":34962},{"buffer":0,"byteLength":66288,"byteOffset":227592,"target":34962},{"buffer":0,"byteLength":2304,"byteOffset":293880,"target":34963},{"buffer":0,"byteLength":9216,"byteOffset":296184,"target":34962},{"buffer":0,"byteLength":9216,"byteOffset":305400,"target":34962},{"buffer":0,"byteLength":6144,"byteOffset":314616,"target":34962}],"buffers":[{"byteLength":320760,"uri":"SM_House_05.bin"}],"images":[{"name":"Polygon_Texture_vol2","uri":"Polygon_Texture_vol2.png"}],"materials":[{"alphaMode":"OPAQUE","doubleSided":false,"extras":{"fromFBX":{"isTruePBR":false,"shadingModel":"Phong"}},"name":"Material","pbrMetallicRoughness":{"baseColorFactor":[1,1,1,1],"baseColorTexture":{"index":0,"texCoord":0},"metallicFactor":0.400000005960464,"roughnessFactor":0.229415729641914}},{"alphaMode":"OPAQUE","doubleSided":false,"extras":{"fromFBX":{"isTruePBR":false,"shadingModel":"Phong"}},"name":"Material.001","pbrMetallicRoughness":{"baseColorFactor":[0.800000071525574,0,0.00387099361978471,1],"metallicFactor":0.400000005960464,"roughnessFactor":0.272165536880493}}],"meshes":[{"name":"House_05","primitives":[{"attributes":{"NORMAL":2,"POSITION":1,"TEXCOORD_0":3},"indices":0,"material":0,"mode":4},{"attributes":{"NORMAL":6,"POSITION":5,"TEXCOORD_0":7},"indices":4,"material":1,"mode":4}]}],"nodes":[{"mesh":0,"name":"House_05","rotation":[0,0,0,1],"scale":[1,1,1],"translation":[176.465209960938,0,-61.3883666992188]}],"samplers":[{}],"scene":0,"scenes":[{"name":"Root Scene","nodes":[0]}],"textures":[{"name":"base_color_texture","sampler":0,"source":0}]}