{"accessors":[{"bufferView":0,"byteOffset":0,"componentType":5123,"count":26454,"type":"SCALAR"},{"bufferView":1,"byteOffset":0,"componentType":5126,"count":14113,"max":[16.1743717193604,21.904935836792,17.612813949585],"min":[-16.1743717193604,0,-9.25129699707031],"type":"VEC3"},{"bufferView":2,"byteOffset":0,"componentType":5126,"count":14113,"type":"VEC3"},{"bufferView":3,"byteOffset":0,"componentType":5126,"count":14113,"type":"VEC2"},{"bufferView":4,"byteOffset":0,"componentType":5123,"count":1608,"type":"SCALAR"},{"bufferView":5,"byteOffset":0,"componentType":5126,"count":1072,"max":[15.8787822723389,20.9265327453613,14.7842712402344],"min":[-15.7692823410034,0.290711671113968,-8.92231464385986],"type":"VEC3"},{"bufferView":6,"byteOffset":0,"componentType":5126,"count":1072,"type":"VEC3"},{"bufferView":7,"byteOffset":0,"componentType":5126,"count":1072,"type":"VEC2"},{"bufferView":8,"byteOffset":0,"componentType":5123,"count":60,"type":"SCALAR"},{"bufferView":9,"byteOffset":0,"componentType":5126,"count":40,"max":[4.54088115692139,19.127815246582,14.8911962509155],"min":[-2.21270871162415,3.72781491279602,14.8685541152954],"type":"VEC3"},{"bufferView":10,"byteOffset":0,"componentType":5126,"count":40,"type":"VEC3"},{"bufferView":11,"byteOffset":0,"componentType":5126,"count":40,"type":"VEC2"}],"asset":{"generator":"FBX2glTF v0.13.1","version":"2.0"},"bufferViews":[{"buffer":0,"byteLength":52908,"byteOffset":0,"target":34963},{"buffer":0,"byteLength":169356,"byteOffset":52908,"target":34962},{"buffer":0,"byteLength":169356,"byteOffset":222264,"target":34962},{"buffer":0,"byteLength":112904,"byteOffset":391620,"target":34962},{"buffer":0,"byteLength":3216,"byteOffset":504524,"target":34963},{"buffer":0,"byteLength":12864,"byteOffset":507740,"target":34962},{"buffer":0,"byteLength":12864,"byteOffset":520604,"target":34962},{"buffer":0,"byteLength":8576,"byteOffset":533468,"target":34962},{"buffer":0,"byteLength":120,"byteOffset":542044,"target":34963},{"buffer":0,"byteLength":480,"byteOffset":542164,"target":34962},{"buffer":0,"byteLength":480,"byteOffset":542644,"target":34962},{"buffer":0,"byteLength":320,"byteOffset":543124,"target":34962}],"buffers":[{"byteLength":543444,"uri":"SM_House_02.bin"}],"images":[{"name":"Polygon_Texture_vol2","uri":"Polygon_Texture_vol2.png"}],"materials":[{"alphaMode":"OPAQUE","doubleSided":false,"extras":{"fromFBX":{"isTruePBR":false,"shadingModel":"Phong"}},"name":"Material","pbrMetallicRoughness":{"baseColorFactor":[1,1,1,1],"baseColorTexture":{"index":0,"texCoord":0},"metallicFactor":0.400000005960464,"roughnessFactor":0.229415729641914}},{"alphaMode":"OPAQUE","doubleSided":false,"extras":{"fromFBX":{"isTruePBR":false,"shadingModel":"Phong"}},"name":"Material.001","pbrMetallicRoughness":{"baseColorFactor":[0.800000071525574,0,0.00387099361978471,1],"metallicFactor":0.400000005960464,"roughnessFactor":0.272165536880493}},{"alphaMode":"OPAQUE","doubleSided":false,"extras":{"fromFBX":{"isTruePBR":false,"shadingModel":"Phong"}},"name":"Material.002","pbrMetallicRoughness":{"baseColorFactor":[0.0607280805706978,0,0.800000071525574,1],"metallicFactor":0.400000005960464,"roughnessFactor":0.272165536880493}}],"meshes":[{"name":"House_02","primitives":[{"attributes":{"NORMAL":2,"POSITION":1,"TEXCOORD_0":3},"indices":0,"material":0,"mode":4},{"attributes":{"NORMAL":6,"POSITION":5,"TEXCOORD_0":7},"indices":4,"material":1,"mode":4},{"attributes":{"NORMAL":10,"POSITION":9,"TEXCOORD_0":11},"indices":8,"material":2,"mode":4}]}],"nodes":[{"mesh":0,"name":"House_02","rotation":[0,0,0,1],"scale":[1,1,1],"translation":[285.8076171875,0,-61.3883666992188]}],"samplers":[{}],"scene":0,"scenes":[{"name":"Root Scene","nodes":[0]}],"textures":[{"name":"base_color_texture","sampler":0,"source":0}]}