{"accessors":[{"bufferView":0,"byteOffset":0,"componentType":5123,"count":7575,"type":"SCALAR"},{"bufferView":1,"byteOffset":0,"componentType":5126,"count":4255,"max":[14,33,12],"min":[-12.0000038146973,0,-8.00000095367432],"type":"VEC3"},{"bufferView":2,"byteOffset":0,"componentType":5126,"count":4255,"type":"VEC3"},{"bufferView":3,"byteOffset":0,"componentType":5126,"count":4255,"type":"VEC2"},{"bufferView":4,"byteOffset":0,"componentType":5123,"count":498,"type":"SCALAR"},{"bufferView":5,"byteOffset":0,"componentType":5126,"count":332,"max":[11.9518213272095,8.9413366317749,9.91364097595215],"min":[-11.8744773864746,0.0316135436296463,-7.90221929550171],"type":"VEC3"},{"bufferView":6,"byteOffset":0,"componentType":5126,"count":332,"type":"VEC3"},{"bufferView":7,"byteOffset":0,"componentType":5126,"count":332,"type":"VEC2"}],"asset":{"generator":"FBX2glTF v0.13.1","version":"2.0"},"bufferViews":[{"buffer":0,"byteLength":15150,"byteOffset":0,"target":34963},{"buffer":0,"byteLength":51060,"byteOffset":15152,"target":34962},{"buffer":0,"byteLength":51060,"byteOffset":66212,"target":34962},{"buffer":0,"byteLength":34040,"byteOffset":117272,"target":34962},{"buffer":0,"byteLength":996,"byteOffset":151312,"target":34963},{"buffer":0,"byteLength":3984,"byteOffset":152308,"target":34962},{"buffer":0,"byteLength":3984,"byteOffset":156292,"target":34962},{"buffer":0,"byteLength":2656,"byteOffset":160276,"target":34962}],"buffers":[{"byteLength":162932,"uri":"SM_House_04.bin"}],"images":[{"name":"Polygon_Texture_vol2","uri":"Polygon_Texture_vol2.png"}],"materials":[{"alphaMode":"OPAQUE","doubleSided":false,"extras":{"fromFBX":{"isTruePBR":false,"shadingModel":"Phong"}},"name":"Material","pbrMetallicRoughness":{"baseColorFactor":[1,1,1,1],"baseColorTexture":{"index":0,"texCoord":0},"metallicFactor":0.400000005960464,"roughnessFactor":0.229415729641914}},{"alphaMode":"OPAQUE","doubleSided":false,"extras":{"fromFBX":{"isTruePBR":false,"shadingModel":"Phong"}},"name":"Material.001","pbrMetallicRoughness":{"baseColorFactor":[0.800000071525574,0,0.00387099361978471,1],"metallicFactor":0.400000005960464,"roughnessFactor":0.272165536880493}}],"meshes":[{"name":"House_04","primitives":[{"attributes":{"NORMAL":2,"POSITION":1,"TEXCOORD_0":3},"indices":0,"material":0,"mode":4},{"attributes":{"NORMAL":6,"POSITION":5,"TEXCOORD_0":7},"indices":4,"material":1,"mode":4}]}],"nodes":[{"mesh":0,"name":"House_04","rotation":[0,0,0,1],"scale":[1,1,1],"translation":[223.304748535156,0,-61.3883666992188]}],"samplers":[{}],"scene":0,"scenes":[{"name":"Root Scene","nodes":[0]}],"textures":[{"name":"base_color_texture","sampler":0,"source":0}]}