{"accessors":[{"bufferView":0,"byteOffset":0,"componentType":5123,"count":4500,"type":"SCALAR"},{"bufferView":1,"byteOffset":0,"componentType":5126,"count":2784,"max":[24.3293399810791,12.3000001907349,38.5111694335938],"min":[-21.6706619262695,-0.00034034252167,-37.4888305664062],"type":"VEC3"},{"bufferView":2,"byteOffset":0,"componentType":5126,"count":2784,"type":"VEC3"},{"bufferView":3,"byteOffset":0,"componentType":5126,"count":2784,"type":"VEC2"},{"bufferView":4,"byteOffset":0,"componentType":5123,"count":258,"type":"SCALAR"},{"bufferView":5,"byteOffset":0,"componentType":5126,"count":164,"max":[18.7194232940674,12.1322650909424,33.1657600402832],"min":[-17.4778518676758,0.300000101327896,-33.0490417480469],"type":"VEC3"},{"bufferView":6,"byteOffset":0,"componentType":5126,"count":164,"type":"VEC3"},{"bufferView":7,"byteOffset":0,"componentType":5126,"count":164,"type":"VEC2"},{"bufferView":8,"byteOffset":0,"componentType":5123,"count":90,"type":"SCALAR"},{"bufferView":9,"byteOffset":0,"componentType":5126,"count":56,"max":[21.6378726959229,5.69999980926514,6.52359294891357],"min":[19.5114593505859,4.30000019073486,-6.33596706390381],"type":"VEC3"},{"bufferView":10,"byteOffset":0,"componentType":5126,"count":56,"type":"VEC3"},{"bufferView":11,"byteOffset":0,"componentType":5126,"count":56,"type":"VEC2"}],"asset":{"generator":"FBX2glTF v0.13.1","version":"2.0"},"bufferViews":[{"buffer":0,"byteLength":9000,"byteOffset":0,"target":34963},{"buffer":0,"byteLength":33408,"byteOffset":9000,"target":34962},{"buffer":0,"byteLength":33408,"byteOffset":42408,"target":34962},{"buffer":0,"byteLength":22272,"byteOffset":75816,"target":34962},{"buffer":0,"byteLength":516,"byteOffset":98088,"target":34963},{"buffer":0,"byteLength":1968,"byteOffset":98604,"target":34962},{"buffer":0,"byteLength":1968,"byteOffset":100572,"target":34962},{"buffer":0,"byteLength":1312,"byteOffset":102540,"target":34962},{"buffer":0,"byteLength":180,"byteOffset":103852,"target":34963},{"buffer":0,"byteLength":672,"byteOffset":104032,"target":34962},{"buffer":0,"byteLength":672,"byteOffset":104704,"target":34962},{"buffer":0,"byteLength":448,"byteOffset":105376,"target":34962}],"buffers":[{"byteLength":105824,"uri":"SM_infrastructure_buildings_019.bin"}],"images":[{"name":"Polygon_Texture_vol2","uri":"Polygon_Texture_vol2.png"}],"materials":[{"alphaMode":"OPAQUE","doubleSided":false,"extras":{"fromFBX":{"isTruePBR":false,"shadingModel":"Phong"}},"name":"Material","pbrMetallicRoughness":{"baseColorFactor":[1,1,1,1],"baseColorTexture":{"index":0,"texCoord":0},"metallicFactor":0.400000005960464,"roughnessFactor":0.229415729641914}},{"alphaMode":"OPAQUE","doubleSided":false,"extras":{"fromFBX":{"isTruePBR":false,"shadingModel":"Phong"}},"name":"Material.001","pbrMetallicRoughness":{"baseColorFactor":[0.800000071525574,0,0.00387099361978471,1],"metallicFactor":0.400000005960464,"roughnessFactor":0.272165536880493}},{"alphaMode":"OPAQUE","doubleSided":false,"extras":{"fromFBX":{"isTruePBR":false,"shadingModel":"Phong"}},"name":"Material.002","pbrMetallicRoughness":{"baseColorFactor":[0.0607280805706978,0,0.800000071525574,1],"metallicFactor":0.400000005960464,"roughnessFactor":0.272165536880493}}],"meshes":[{"name":"infrastructure_buildings_019","primitives":[{"attributes":{"NORMAL":2,"POSITION":1,"TEXCOORD_0":3},"indices":0,"material":0,"mode":4},{"attributes":{"NORMAL":6,"POSITION":5,"TEXCOORD_0":7},"indices":4,"material":1,"mode":4},{"attributes":{"NORMAL":10,"POSITION":9,"TEXCOORD_0":11},"indices":8,"material":2,"mode":4}]}],"nodes":[{"mesh":0,"name":"infrastructure_buildings_019","rotation":[0,0,0,1],"scale":[1,1,1],"translation":[3.08308911323547,-0.3000001013279,57.8388175964355]}],"samplers":[{}],"scene":0,"scenes":[{"name":"Root Scene","nodes":[0]}],"textures":[{"name":"base_color_texture","sampler":0,"source":0}]}