{"accessors":[{"bufferView":0,"byteOffset":0,"componentType":5123,"count":14139,"type":"SCALAR"},{"bufferView":1,"byteOffset":0,"componentType":5126,"count":9231,"max":[54.0935821533203,31,14.8424425125122],"min":[-29.9064159393311,0,-9.15755844116211],"type":"VEC3"},{"bufferView":2,"byteOffset":0,"componentType":5126,"count":9231,"type":"VEC3"},{"bufferView":3,"byteOffset":0,"componentType":5126,"count":9231,"type":"VEC2"},{"bufferView":4,"byteOffset":0,"componentType":5123,"count":1572,"type":"SCALAR"},{"bufferView":5,"byteOffset":0,"componentType":5126,"count":1048,"max":[53.2664337158203,28.8216991424561,14.0266942977905],"min":[-29.3038330078125,0.0731178894639015,-8.69956493377686],"type":"VEC3"},{"bufferView":6,"byteOffset":0,"componentType":5126,"count":1048,"type":"VEC3"},{"bufferView":7,"byteOffset":0,"componentType":5126,"count":1048,"type":"VEC2"}],"asset":{"generator":"FBX2glTF v0.13.1","version":"2.0"},"bufferViews":[{"buffer":0,"byteLength":28278,"byteOffset":0,"target":34963},{"buffer":0,"byteLength":110772,"byteOffset":28280,"target":34962},{"buffer":0,"byteLength":110772,"byteOffset":139052,"target":34962},{"buffer":0,"byteLength":73848,"byteOffset":249824,"target":34962},{"buffer":0,"byteLength":3144,"byteOffset":323672,"target":34963},{"buffer":0,"byteLength":12576,"byteOffset":326816,"target":34962},{"buffer":0,"byteLength":12576,"byteOffset":339392,"target":34962},{"buffer":0,"byteLength":8384,"byteOffset":351968,"target":34962}],"buffers":[{"byteLength":360352,"uri":"SM_infrastructure_buildings_02.bin"}],"images":[{"name":"Polygon_Texture_vol2","uri":"Polygon_Texture_vol2.png"}],"materials":[{"alphaMode":"OPAQUE","doubleSided":false,"extras":{"fromFBX":{"isTruePBR":false,"shadingModel":"Phong"}},"name":"Material","pbrMetallicRoughness":{"baseColorFactor":[1,1,1,1],"baseColorTexture":{"index":0,"texCoord":0},"metallicFactor":0.400000005960464,"roughnessFactor":0.229415729641914}},{"alphaMode":"OPAQUE","doubleSided":false,"extras":{"fromFBX":{"isTruePBR":false,"shadingModel":"Phong"}},"name":"Material.001","pbrMetallicRoughness":{"baseColorFactor":[0.800000071525574,0,0.00387099361978471,1],"metallicFactor":0.400000005960464,"roughnessFactor":0.272165536880493}}],"meshes":[{"name":"infrastructure_buildings_02","primitives":[{"attributes":{"NORMAL":2,"POSITION":1,"TEXCOORD_0":3},"indices":0,"material":0,"mode":4},{"attributes":{"NORMAL":6,"POSITION":5,"TEXCOORD_0":7},"indices":4,"material":1,"mode":4}]}],"nodes":[{"mesh":0,"name":"infrastructure_buildings_02","rotation":[0,0,0,1],"scale":[1,1,1],"translation":[753.840698242188,-5,46.8088111877441]}],"samplers":[{}],"scene":0,"scenes":[{"name":"Root Scene","nodes":[0]}],"textures":[{"name":"base_color_texture","sampler":0,"source":0}]}