{"accessors":[{"bufferView":0,"byteOffset":0,"componentType":5123,"count":14061,"type":"SCALAR"},{"bufferView":1,"byteOffset":0,"componentType":5126,"count":8251,"max":[29.8963756561279,29,13.2328424453735],"min":[-30.1036167144775,-0.00000000252166,-4.76715612411499],"type":"VEC3"},{"bufferView":2,"byteOffset":0,"componentType":5126,"count":8251,"type":"VEC3"},{"bufferView":3,"byteOffset":0,"componentType":5126,"count":8251,"type":"VEC2"},{"bufferView":4,"byteOffset":0,"componentType":5123,"count":1536,"type":"SCALAR"},{"bufferView":5,"byteOffset":0,"componentType":5126,"count":1024,"max":[29.106803894043,26.8316497802734,10.5064268112183],"min":[-28.0376110076904,6.16834926605225,-4.02692794799805],"type":"VEC3"},{"bufferView":6,"byteOffset":0,"componentType":5126,"count":1024,"type":"VEC3"},{"bufferView":7,"byteOffset":0,"componentType":5126,"count":1024,"type":"VEC2"}],"asset":{"generator":"FBX2glTF v0.13.1","version":"2.0"},"bufferViews":[{"buffer":0,"byteLength":28122,"byteOffset":0,"target":34963},{"buffer":0,"byteLength":99012,"byteOffset":28124,"target":34962},{"buffer":0,"byteLength":99012,"byteOffset":127136,"target":34962},{"buffer":0,"byteLength":66008,"byteOffset":226148,"target":34962},{"buffer":0,"byteLength":3072,"byteOffset":292156,"target":34963},{"buffer":0,"byteLength":12288,"byteOffset":295228,"target":34962},{"buffer":0,"byteLength":12288,"byteOffset":307516,"target":34962},{"buffer":0,"byteLength":8192,"byteOffset":319804,"target":34962}],"buffers":[{"byteLength":327996,"uri":"SM_infrastructure_buildings_06.bin"}],"images":[{"name":"Polygon_Texture_vol2","uri":"Polygon_Texture_vol2.png"}],"materials":[{"alphaMode":"OPAQUE","doubleSided":false,"extras":{"fromFBX":{"isTruePBR":false,"shadingModel":"Phong"}},"name":"Material","pbrMetallicRoughness":{"baseColorFactor":[1,1,1,1],"baseColorTexture":{"index":0,"texCoord":0},"metallicFactor":0.400000005960464,"roughnessFactor":0.229415729641914}},{"alphaMode":"OPAQUE","doubleSided":false,"extras":{"fromFBX":{"isTruePBR":false,"shadingModel":"Phong"}},"name":"Material.001","pbrMetallicRoughness":{"baseColorFactor":[0.800000071525574,0,0.00387099361978471,1],"metallicFactor":0.400000005960464,"roughnessFactor":0.272165536880493}}],"meshes":[{"name":"infrastructure_buildings_06","primitives":[{"attributes":{"NORMAL":2,"POSITION":1,"TEXCOORD_0":3},"indices":0,"material":0,"mode":4},{"attributes":{"NORMAL":6,"POSITION":5,"TEXCOORD_0":7},"indices":4,"material":1,"mode":4}]}],"nodes":[{"mesh":0,"name":"infrastructure_buildings_06","rotation":[0,0,0,1],"scale":[1,1,1],"translation":[573.648803710938,0,58.611629486084]}],"samplers":[{}],"scene":0,"scenes":[{"name":"Root Scene","nodes":[0]}],"textures":[{"name":"base_color_texture","sampler":0,"source":0}]}