{"accessors":[{"bufferView":0,"byteOffset":0,"componentType":5123,"count":29649,"type":"SCALAR"},{"bufferView":1,"byteOffset":0,"componentType":5126,"count":14591,"max":[17.5,26,7.49999904632568],"min":[-17.5,0,-7.5],"type":"VEC3"},{"bufferView":2,"byteOffset":0,"componentType":5126,"count":14591,"type":"VEC3"},{"bufferView":3,"byteOffset":0,"componentType":5126,"count":14591,"type":"VEC2"},{"bufferView":4,"byteOffset":0,"componentType":5123,"count":2490,"type":"SCALAR"},{"bufferView":5,"byteOffset":0,"componentType":5126,"count":1660,"max":[16.0695877075195,21.8095817565918,6],"min":[-15.9101753234863,0,-5.91017484664917],"type":"VEC3"},{"bufferView":6,"byteOffset":0,"componentType":5126,"count":1660,"type":"VEC3"},{"bufferView":7,"byteOffset":0,"componentType":5126,"count":1660,"type":"VEC2"}],"asset":{"generator":"FBX2glTF v0.13.1","version":"2.0"},"bufferViews":[{"buffer":0,"byteLength":59298,"byteOffset":0,"target":34963},{"buffer":0,"byteLength":175092,"byteOffset":59300,"target":34962},{"buffer":0,"byteLength":175092,"byteOffset":234392,"target":34962},{"buffer":0,"byteLength":116728,"byteOffset":409484,"target":34962},{"buffer":0,"byteLength":4980,"byteOffset":526212,"target":34963},{"buffer":0,"byteLength":19920,"byteOffset":531192,"target":34962},{"buffer":0,"byteLength":19920,"byteOffset":551112,"target":34962},{"buffer":0,"byteLength":13280,"byteOffset":571032,"target":34962}],"buffers":[{"byteLength":584312,"uri":"SM_infrastructure_buildings_015.bin"}],"images":[{"name":"Polygon_Texture_vol2","uri":"Polygon_Texture_vol2.png"}],"materials":[{"alphaMode":"OPAQUE","doubleSided":false,"extras":{"fromFBX":{"isTruePBR":false,"shadingModel":"Phong"}},"name":"Material","pbrMetallicRoughness":{"baseColorFactor":[1,1,1,1],"baseColorTexture":{"index":0,"texCoord":0},"metallicFactor":0.400000005960464,"roughnessFactor":0.229415729641914}},{"alphaMode":"OPAQUE","doubleSided":false,"extras":{"fromFBX":{"isTruePBR":false,"shadingModel":"Phong"}},"name":"Material.001","pbrMetallicRoughness":{"baseColorFactor":[0.800000071525574,0,0.00387099361978471,1],"metallicFactor":0.400000005960464,"roughnessFactor":0.272165536880493}}],"meshes":[{"name":"infrastructure_buildings_015","primitives":[{"attributes":{"NORMAL":2,"POSITION":1,"TEXCOORD_0":3},"indices":0,"material":0,"mode":4},{"attributes":{"NORMAL":6,"POSITION":5,"TEXCOORD_0":7},"indices":4,"material":1,"mode":4}]}],"nodes":[{"mesh":0,"name":"infrastructure_buildings_015","rotation":[0,0,0,1],"scale":[1,1,1],"translation":[233.497970581055,0,58.611629486084]}],"samplers":[{}],"scene":0,"scenes":[{"name":"Root Scene","nodes":[0]}],"textures":[{"name":"base_color_texture","sampler":0,"source":0}]}