{"accessors":[{"bufferView":0,"byteOffset":0,"componentType":5123,"count":16794,"type":"SCALAR"},{"bufferView":1,"byteOffset":0,"componentType":5126,"count":9630,"max":[20,18.2000007629395,20],"min":[-16,0,-16],"type":"VEC3"},{"bufferView":2,"byteOffset":0,"componentType":5126,"count":9630,"type":"VEC3"},{"bufferView":3,"byteOffset":0,"componentType":5126,"count":9630,"type":"VEC2"},{"bufferView":4,"byteOffset":0,"componentType":5123,"count":1320,"type":"SCALAR"},{"bufferView":5,"byteOffset":0,"componentType":5126,"count":866,"max":[20,15.8217706680298,16.1797370910645],"min":[-15.4219379425049,0.0382052883505821,-16],"type":"VEC3"},{"bufferView":6,"byteOffset":0,"componentType":5126,"count":866,"type":"VEC3"},{"bufferView":7,"byteOffset":0,"componentType":5126,"count":866,"type":"VEC2"}],"asset":{"generator":"FBX2glTF v0.13.1","version":"2.0"},"bufferViews":[{"buffer":0,"byteLength":33588,"byteOffset":0,"target":34963},{"buffer":0,"byteLength":115560,"byteOffset":33588,"target":34962},{"buffer":0,"byteLength":115560,"byteOffset":149148,"target":34962},{"buffer":0,"byteLength":77040,"byteOffset":264708,"target":34962},{"buffer":0,"byteLength":2640,"byteOffset":341748,"target":34963},{"buffer":0,"byteLength":10392,"byteOffset":344388,"target":34962},{"buffer":0,"byteLength":10392,"byteOffset":354780,"target":34962},{"buffer":0,"byteLength":6928,"byteOffset":365172,"target":34962}],"buffers":[{"byteLength":372100,"uri":"SM_infrastructure_buildings_013.bin"}],"images":[{"name":"Polygon_Texture_vol2","uri":"Polygon_Texture_vol2.png"}],"materials":[{"alphaMode":"OPAQUE","doubleSided":false,"extras":{"fromFBX":{"isTruePBR":false,"shadingModel":"Phong"}},"name":"Material","pbrMetallicRoughness":{"baseColorFactor":[1,1,1,1],"baseColorTexture":{"index":0,"texCoord":0},"metallicFactor":0.400000005960464,"roughnessFactor":0.229415729641914}},{"alphaMode":"OPAQUE","doubleSided":false,"extras":{"fromFBX":{"isTruePBR":false,"shadingModel":"Phong"}},"name":"Material.001","pbrMetallicRoughness":{"baseColorFactor":[0.800000071525574,0,0.00387099361978471,1],"metallicFactor":0.400000005960464,"roughnessFactor":0.272165536880493}}],"meshes":[{"name":"infrastructure_buildings_013","primitives":[{"attributes":{"NORMAL":2,"POSITION":1,"TEXCOORD_0":3},"indices":0,"material":0,"mode":4},{"attributes":{"NORMAL":6,"POSITION":5,"TEXCOORD_0":7},"indices":4,"material":1,"mode":4}]}],"nodes":[{"mesh":0,"name":"infrastructure_buildings_013","rotation":[0,0,0,1],"scale":[1,1,1],"translation":[305.078857421875,0,56.9203681945801]}],"samplers":[{}],"scene":0,"scenes":[{"name":"Root Scene","nodes":[0]}],"textures":[{"name":"base_color_texture","sampler":0,"source":0}]}