{"accessors":[{"bufferView":0,"byteOffset":0,"componentType":5123,"count":12909,"type":"SCALAR"},{"bufferView":1,"byteOffset":0,"componentType":5126,"count":7606,"max":[24.3915958404541,21.428165435791,12.9311609268188],"min":[-21.6084060668945,-0.00000059604645,-13.0688400268555],"type":"VEC3"},{"bufferView":2,"byteOffset":0,"componentType":5126,"count":7606,"type":"VEC3"},{"bufferView":3,"byteOffset":0,"componentType":5126,"count":7606,"type":"VEC2"},{"bufferView":4,"byteOffset":0,"componentType":5123,"count":462,"type":"SCALAR"},{"bufferView":5,"byteOffset":0,"componentType":5126,"count":308,"max":[23.6124382019043,19.0842361450195,11.9275531768799],"min":[-19.407829284668,0.0239146985113621,-12.716007232666],"type":"VEC3"},{"bufferView":6,"byteOffset":0,"componentType":5126,"count":308,"type":"VEC3"},{"bufferView":7,"byteOffset":0,"componentType":5126,"count":308,"type":"VEC2"}],"asset":{"generator":"FBX2glTF v0.13.1","version":"2.0"},"bufferViews":[{"buffer":0,"byteLength":25818,"byteOffset":0,"target":34963},{"buffer":0,"byteLength":91272,"byteOffset":25820,"target":34962},{"buffer":0,"byteLength":91272,"byteOffset":117092,"target":34962},{"buffer":0,"byteLength":60848,"byteOffset":208364,"target":34962},{"buffer":0,"byteLength":924,"byteOffset":269212,"target":34963},{"buffer":0,"byteLength":3696,"byteOffset":270136,"target":34962},{"buffer":0,"byteLength":3696,"byteOffset":273832,"target":34962},{"buffer":0,"byteLength":2464,"byteOffset":277528,"target":34962}],"buffers":[{"byteLength":279992,"uri":"SM_infrastructure_buildings_07.bin"}],"images":[{"name":"Polygon_Texture_vol2","uri":"Polygon_Texture_vol2.png"}],"materials":[{"alphaMode":"OPAQUE","doubleSided":false,"extras":{"fromFBX":{"isTruePBR":false,"shadingModel":"Phong"}},"name":"Material","pbrMetallicRoughness":{"baseColorFactor":[1,1,1,1],"baseColorTexture":{"index":0,"texCoord":0},"metallicFactor":0.400000005960464,"roughnessFactor":0.229415729641914}},{"alphaMode":"OPAQUE","doubleSided":false,"extras":{"fromFBX":{"isTruePBR":false,"shadingModel":"Phong"}},"name":"Material.001","pbrMetallicRoughness":{"baseColorFactor":[0.800000071525574,0,0.00387099361978471,1],"metallicFactor":0.400000005960464,"roughnessFactor":0.272165536880493}}],"meshes":[{"name":"infrastructure_buildings_07","primitives":[{"attributes":{"NORMAL":2,"POSITION":1,"TEXCOORD_0":3},"indices":0,"material":0,"mode":4},{"attributes":{"NORMAL":6,"POSITION":5,"TEXCOORD_0":7},"indices":4,"material":1,"mode":4}]}],"nodes":[{"mesh":0,"name":"infrastructure_buildings_07","rotation":[0,0,0,1],"scale":[1,1,1],"translation":[515.564331054688,0,56.7109527587891]}],"samplers":[{}],"scene":0,"scenes":[{"name":"Root Scene","nodes":[0]}],"textures":[{"name":"base_color_texture","sampler":0,"source":0}]}