{"accessors":[{"bufferView":0,"byteOffset":0,"componentType":5123,"count":18159,"type":"SCALAR"},{"bufferView":1,"byteOffset":0,"componentType":5126,"count":9962,"max":[9.79291725158691,18.351879119873,22.7959117889404],"min":[-30.2070827484131,0,-5.20408630371094],"type":"VEC3"},{"bufferView":2,"byteOffset":0,"componentType":5126,"count":9962,"type":"VEC3"},{"bufferView":3,"byteOffset":0,"componentType":5126,"count":9962,"type":"VEC2"},{"bufferView":4,"byteOffset":0,"componentType":5123,"count":1224,"type":"SCALAR"},{"bufferView":5,"byteOffset":0,"componentType":5126,"count":814,"max":[9.13041496276855,5.43073415756226,22.7893600463867],"min":[-28.8830261230469,0,-5.12040901184082],"type":"VEC3"},{"bufferView":6,"byteOffset":0,"componentType":5126,"count":814,"type":"VEC3"},{"bufferView":7,"byteOffset":0,"componentType":5126,"count":814,"type":"VEC2"}],"asset":{"generator":"FBX2glTF v0.13.1","version":"2.0"},"bufferViews":[{"buffer":0,"byteLength":36318,"byteOffset":0,"target":34963},{"buffer":0,"byteLength":119544,"byteOffset":36320,"target":34962},{"buffer":0,"byteLength":119544,"byteOffset":155864,"target":34962},{"buffer":0,"byteLength":79696,"byteOffset":275408,"target":34962},{"buffer":0,"byteLength":2448,"byteOffset":355104,"target":34963},{"buffer":0,"byteLength":9768,"byteOffset":357552,"target":34962},{"buffer":0,"byteLength":9768,"byteOffset":367320,"target":34962},{"buffer":0,"byteLength":6512,"byteOffset":377088,"target":34962}],"buffers":[{"byteLength":383600,"uri":"SM_infrastructure_buildings_09.bin"}],"images":[{"name":"Polygon_Texture_vol2","uri":"Polygon_Texture_vol2.png"}],"materials":[{"alphaMode":"OPAQUE","doubleSided":false,"extras":{"fromFBX":{"isTruePBR":false,"shadingModel":"Phong"}},"name":"Material","pbrMetallicRoughness":{"baseColorFactor":[1,1,1,1],"baseColorTexture":{"index":0,"texCoord":0},"metallicFactor":0.400000005960464,"roughnessFactor":0.229415729641914}},{"alphaMode":"OPAQUE","doubleSided":false,"extras":{"fromFBX":{"isTruePBR":false,"shadingModel":"Phong"}},"name":"Material.001","pbrMetallicRoughness":{"baseColorFactor":[0.800000071525574,0,0.00387099361978471,1],"metallicFactor":0.400000005960464,"roughnessFactor":0.272165536880493}}],"meshes":[{"name":"infrastructure_buildings_09","primitives":[{"attributes":{"NORMAL":2,"POSITION":1,"TEXCOORD_0":3},"indices":0,"material":0,"mode":4},{"attributes":{"NORMAL":6,"POSITION":5,"TEXCOORD_0":7},"indices":4,"material":1,"mode":4}]}],"nodes":[{"mesh":0,"name":"infrastructure_buildings_09","rotation":[0,0,0,1],"scale":[1,1,1],"translation":[468.076782226562,0,58.611629486084]}],"samplers":[{}],"scene":0,"scenes":[{"name":"Root Scene","nodes":[0]}],"textures":[{"name":"base_color_texture","sampler":0,"source":0}]}