{"accessors":[{"bufferView":0,"byteOffset":0,"componentType":5123,"count":19158,"type":"SCALAR"},{"bufferView":1,"byteOffset":0,"componentType":5126,"count":10251,"max":[18,47.7279815673828,8],"min":[-18,-0.00000000000003,-12],"type":"VEC3"},{"bufferView":2,"byteOffset":0,"componentType":5126,"count":10251,"type":"VEC3"},{"bufferView":3,"byteOffset":0,"componentType":5126,"count":10251,"type":"VEC2"},{"bufferView":4,"byteOffset":0,"componentType":5123,"count":1200,"type":"SCALAR"},{"bufferView":5,"byteOffset":0,"componentType":5126,"count":800,"max":[15.8713045120239,33.9724311828613,4.92632532119751],"min":[-15.8713045120239,1.52391290664673,-10.57923412323],"type":"VEC3"},{"bufferView":6,"byteOffset":0,"componentType":5126,"count":800,"type":"VEC3"},{"bufferView":7,"byteOffset":0,"componentType":5126,"count":800,"type":"VEC2"}],"asset":{"generator":"FBX2glTF v0.13.1","version":"2.0"},"bufferViews":[{"buffer":0,"byteLength":38316,"byteOffset":0,"target":34963},{"buffer":0,"byteLength":123012,"byteOffset":38316,"target":34962},{"buffer":0,"byteLength":123012,"byteOffset":161328,"target":34962},{"buffer":0,"byteLength":82008,"byteOffset":284340,"target":34962},{"buffer":0,"byteLength":2400,"byteOffset":366348,"target":34963},{"buffer":0,"byteLength":9600,"byteOffset":368748,"target":34962},{"buffer":0,"byteLength":9600,"byteOffset":378348,"target":34962},{"buffer":0,"byteLength":6400,"byteOffset":387948,"target":34962}],"buffers":[{"byteLength":394348,"uri":"SM_infrastructure_buildings_010.bin"}],"images":[{"name":"Polygon_Texture_vol2","uri":"Polygon_Texture_vol2.png"}],"materials":[{"alphaMode":"OPAQUE","doubleSided":false,"extras":{"fromFBX":{"isTruePBR":false,"shadingModel":"Phong"}},"name":"Material","pbrMetallicRoughness":{"baseColorFactor":[1,1,1,1],"baseColorTexture":{"index":0,"texCoord":0},"metallicFactor":0.400000005960464,"roughnessFactor":0.229415729641914}},{"alphaMode":"OPAQUE","doubleSided":false,"extras":{"fromFBX":{"isTruePBR":false,"shadingModel":"Phong"}},"name":"Material.001","pbrMetallicRoughness":{"baseColorFactor":[0.800000071525574,0,0.00387099361978471,1],"metallicFactor":0.400000005960464,"roughnessFactor":0.272165536880493}}],"meshes":[{"name":"infrastructure_buildings_010","primitives":[{"attributes":{"NORMAL":2,"POSITION":1,"TEXCOORD_0":3},"indices":0,"material":0,"mode":4},{"attributes":{"NORMAL":6,"POSITION":5,"TEXCOORD_0":7},"indices":4,"material":1,"mode":4}]}],"nodes":[{"mesh":0,"name":"infrastructure_buildings_010","rotation":[0,0,0,1],"scale":[1,1,1],"translation":[408.435882568359,0,69.0459213256836]}],"samplers":[{}],"scene":0,"scenes":[{"name":"Root Scene","nodes":[0]}],"textures":[{"name":"base_color_texture","sampler":0,"source":0}]}