{"accessors":[{"bufferView":0,"byteOffset":0,"componentType":5123,"count":7581,"type":"SCALAR"},{"bufferView":1,"byteOffset":0,"componentType":5126,"count":4654,"max":[18.6169681549072,17.6939926147461,4.92602777481079],"min":[-15.3830289840698,0,-7.07397270202637],"type":"VEC3"},{"bufferView":2,"byteOffset":0,"componentType":5126,"count":4654,"type":"VEC3"},{"bufferView":3,"byteOffset":0,"componentType":5126,"count":4654,"type":"VEC2"},{"bufferView":4,"byteOffset":0,"componentType":5123,"count":756,"type":"SCALAR"},{"bufferView":5,"byteOffset":0,"componentType":5126,"count":512,"max":[17.468936920166,15.8480701446533,3.01663756370544],"min":[-14.2349996566772,0.033085610717535,-6.09540510177612],"type":"VEC3"},{"bufferView":6,"byteOffset":0,"componentType":5126,"count":512,"type":"VEC3"},{"bufferView":7,"byteOffset":0,"componentType":5126,"count":512,"type":"VEC2"}],"asset":{"generator":"FBX2glTF v0.13.1","version":"2.0"},"bufferViews":[{"buffer":0,"byteLength":15162,"byteOffset":0,"target":34963},{"buffer":0,"byteLength":55848,"byteOffset":15164,"target":34962},{"buffer":0,"byteLength":55848,"byteOffset":71012,"target":34962},{"buffer":0,"byteLength":37232,"byteOffset":126860,"target":34962},{"buffer":0,"byteLength":1512,"byteOffset":164092,"target":34963},{"buffer":0,"byteLength":6144,"byteOffset":165604,"target":34962},{"buffer":0,"byteLength":6144,"byteOffset":171748,"target":34962},{"buffer":0,"byteLength":4096,"byteOffset":177892,"target":34962}],"buffers":[{"byteLength":181988,"uri":"SM_infrastructure_buildings_01.bin"}],"images":[{"name":"Polygon_Texture_vol2","uri":"Polygon_Texture_vol2.png"}],"materials":[{"alphaMode":"OPAQUE","doubleSided":false,"extras":{"fromFBX":{"isTruePBR":false,"shadingModel":"Phong"}},"name":"Material","pbrMetallicRoughness":{"baseColorFactor":[1,1,1,1],"baseColorTexture":{"index":0,"texCoord":0},"metallicFactor":0.400000005960464,"roughnessFactor":0.229415729641914}},{"alphaMode":"OPAQUE","doubleSided":false,"extras":{"fromFBX":{"isTruePBR":false,"shadingModel":"Phong"}},"name":"Material.001","pbrMetallicRoughness":{"baseColorFactor":[0.800000071525574,0,0.00387099361978471,1],"metallicFactor":0.400000005960464,"roughnessFactor":0.272165536880493}}],"meshes":[{"name":"infrastructure_buildings_01","primitives":[{"attributes":{"NORMAL":2,"POSITION":1,"TEXCOORD_0":3},"indices":0,"material":0,"mode":4},{"attributes":{"NORMAL":6,"POSITION":5,"TEXCOORD_0":7},"indices":4,"material":1,"mode":4}]}],"nodes":[{"mesh":0,"name":"infrastructure_buildings_01","rotation":[0,0,0,1],"scale":[1,1,1],"translation":[830.813720703125,0,60.2782936096191]}],"samplers":[{}],"scene":0,"scenes":[{"name":"Root Scene","nodes":[0]}],"textures":[{"name":"base_color_texture","sampler":0,"source":0}]}