{"accessors":[{"bufferView":0,"byteOffset":0,"componentType":5123,"count":22377,"type":"SCALAR"},{"bufferView":1,"byteOffset":0,"componentType":5126,"count":13384,"max":[8,79.2903900146484,9.99894332885742],"min":[-8,0,-8.00105762481689],"type":"VEC3"},{"bufferView":2,"byteOffset":0,"componentType":5126,"count":13384,"type":"VEC3"},{"bufferView":3,"byteOffset":0,"componentType":5126,"count":13384,"type":"VEC2"},{"bufferView":4,"byteOffset":0,"componentType":5123,"count":1842,"type":"SCALAR"},{"bufferView":5,"byteOffset":0,"componentType":5126,"count":1228,"max":[7.7329158782959,76.4330139160156,7.73393774032593],"min":[-7.7329158782959,0.0381681770086288,-7.73393774032593],"type":"VEC3"},{"bufferView":6,"byteOffset":0,"componentType":5126,"count":1228,"type":"VEC3"},{"bufferView":7,"byteOffset":0,"componentType":5126,"count":1228,"type":"VEC2"}],"asset":{"generator":"FBX2glTF v0.13.1","version":"2.0"},"bufferViews":[{"buffer":0,"byteLength":44754,"byteOffset":0,"target":34963},{"buffer":0,"byteLength":160608,"byteOffset":44756,"target":34962},{"buffer":0,"byteLength":160608,"byteOffset":205364,"target":34962},{"buffer":0,"byteLength":107072,"byteOffset":365972,"target":34962},{"buffer":0,"byteLength":3684,"byteOffset":473044,"target":34963},{"buffer":0,"byteLength":14736,"byteOffset":476728,"target":34962},{"buffer":0,"byteLength":14736,"byteOffset":491464,"target":34962},{"buffer":0,"byteLength":9824,"byteOffset":506200,"target":34962}],"buffers":[{"byteLength":516024,"uri":"SM_infrastructure_buildings_05.bin"}],"images":[{"name":"Polygon_Texture_vol2","uri":"Polygon_Texture_vol2.png"}],"materials":[{"alphaMode":"OPAQUE","doubleSided":false,"extras":{"fromFBX":{"isTruePBR":false,"shadingModel":"Phong"}},"name":"Material","pbrMetallicRoughness":{"baseColorFactor":[1,1,1,1],"baseColorTexture":{"index":0,"texCoord":0},"metallicFactor":0.400000005960464,"roughnessFactor":0.229415729641914}},{"alphaMode":"OPAQUE","doubleSided":false,"extras":{"fromFBX":{"isTruePBR":false,"shadingModel":"Phong"}},"name":"Material.001","pbrMetallicRoughness":{"baseColorFactor":[0.800000071525574,0,0.00387099361978471,1],"metallicFactor":0.400000005960464,"roughnessFactor":0.272165536880493}}],"meshes":[{"name":"infrastructure_buildings_05","primitives":[{"attributes":{"NORMAL":2,"POSITION":1,"TEXCOORD_0":3},"indices":0,"material":0,"mode":4},{"attributes":{"NORMAL":6,"POSITION":5,"TEXCOORD_0":7},"indices":4,"material":1,"mode":4}]}],"nodes":[{"mesh":0,"name":"infrastructure_buildings_05","rotation":[0,0,0,1],"scale":[1,1,1],"translation":[617.836059570312,0,58.611629486084]}],"samplers":[{}],"scene":0,"scenes":[{"name":"Root Scene","nodes":[0]}],"textures":[{"name":"base_color_texture","sampler":0,"source":0}]}