{"accessors":[{"bufferView":0,"byteOffset":0,"componentType":5123,"count":16341,"type":"SCALAR"},{"bufferView":1,"byteOffset":0,"componentType":5126,"count":10193,"max":[18.1591148376465,37,10.2503938674927],"min":[-13.8408832550049,0,-11.749605178833],"type":"VEC3"},{"bufferView":2,"byteOffset":0,"componentType":5126,"count":10193,"type":"VEC3"},{"bufferView":3,"byteOffset":0,"componentType":5126,"count":10193,"type":"VEC2"},{"bufferView":4,"byteOffset":0,"componentType":5123,"count":1314,"type":"SCALAR"},{"bufferView":5,"byteOffset":0,"componentType":5126,"count":874,"max":[17.4523620605469,37,8.41702938079834],"min":[-11.9298877716064,0.0524325743317604,-11.1052398681641],"type":"VEC3"},{"bufferView":6,"byteOffset":0,"componentType":5126,"count":874,"type":"VEC3"},{"bufferView":7,"byteOffset":0,"componentType":5126,"count":874,"type":"VEC2"}],"asset":{"generator":"FBX2glTF v0.13.1","version":"2.0"},"bufferViews":[{"buffer":0,"byteLength":32682,"byteOffset":0,"target":34963},{"buffer":0,"byteLength":122316,"byteOffset":32684,"target":34962},{"buffer":0,"byteLength":122316,"byteOffset":155000,"target":34962},{"buffer":0,"byteLength":81544,"byteOffset":277316,"target":34962},{"buffer":0,"byteLength":2628,"byteOffset":358860,"target":34963},{"buffer":0,"byteLength":10488,"byteOffset":361488,"target":34962},{"buffer":0,"byteLength":10488,"byteOffset":371976,"target":34962},{"buffer":0,"byteLength":6992,"byteOffset":382464,"target":34962}],"buffers":[{"byteLength":389456,"uri":"SM_infrastructure_buildings_04.bin"}],"images":[{"name":"Polygon_Texture_vol2","uri":"Polygon_Texture_vol2.png"}],"materials":[{"alphaMode":"OPAQUE","doubleSided":false,"extras":{"fromFBX":{"isTruePBR":false,"shadingModel":"Phong"}},"name":"Material","pbrMetallicRoughness":{"baseColorFactor":[1,1,1,1],"baseColorTexture":{"index":0,"texCoord":0},"metallicFactor":0.400000005960464,"roughnessFactor":0.229415729641914}},{"alphaMode":"OPAQUE","doubleSided":false,"extras":{"fromFBX":{"isTruePBR":false,"shadingModel":"Phong"}},"name":"Material.001","pbrMetallicRoughness":{"baseColorFactor":[0.800000071525574,0,0.00387099361978471,1],"metallicFactor":0.400000005960464,"roughnessFactor":0.272165536880493}}],"meshes":[{"name":"infrastructure_buildings_04","primitives":[{"attributes":{"NORMAL":2,"POSITION":1,"TEXCOORD_0":3},"indices":0,"material":0,"mode":4},{"attributes":{"NORMAL":6,"POSITION":5,"TEXCOORD_0":7},"indices":4,"material":1,"mode":4}]}],"nodes":[{"mesh":0,"name":"infrastructure_buildings_04","rotation":[0,0,0,1],"scale":[1,1,1],"translation":[648.800659179688,0,55.6988372802734]}],"samplers":[{}],"scene":0,"scenes":[{"name":"Root Scene","nodes":[0]}],"textures":[{"name":"base_color_texture","sampler":0,"source":0}]}