{"accessors":[{"bufferView":0,"byteOffset":0,"componentType":5123,"count":2514,"type":"SCALAR"},{"bufferView":1,"byteOffset":0,"componentType":5126,"count":1374,"max":[16,20.4753131866455,13.1275873184204],"min":[-16,0,-12],"type":"VEC3"},{"bufferView":2,"byteOffset":0,"componentType":5126,"count":1374,"type":"VEC3"},{"bufferView":3,"byteOffset":0,"componentType":5126,"count":1374,"type":"VEC2"},{"bufferView":4,"byteOffset":0,"componentType":5123,"count":54,"type":"SCALAR"},{"bufferView":5,"byteOffset":0,"componentType":5126,"count":30,"max":[15.1326322555542,17,11.5232305526733],"min":[-15.1326322555542,1.78088235855103,10.4768085479736],"type":"VEC3"},{"bufferView":6,"byteOffset":0,"componentType":5126,"count":30,"type":"VEC3"},{"bufferView":7,"byteOffset":0,"componentType":5126,"count":30,"type":"VEC2"}],"asset":{"generator":"FBX2glTF v0.13.1","version":"2.0"},"bufferViews":[{"buffer":0,"byteLength":5028,"byteOffset":0,"target":34963},{"buffer":0,"byteLength":16488,"byteOffset":5028,"target":34962},{"buffer":0,"byteLength":16488,"byteOffset":21516,"target":34962},{"buffer":0,"byteLength":10992,"byteOffset":38004,"target":34962},{"buffer":0,"byteLength":108,"byteOffset":48996,"target":34963},{"buffer":0,"byteLength":360,"byteOffset":49104,"target":34962},{"buffer":0,"byteLength":360,"byteOffset":49464,"target":34962},{"buffer":0,"byteLength":240,"byteOffset":49824,"target":34962}],"buffers":[{"byteLength":50064,"uri":"SM_infrastructure_buildings_018.bin"}],"images":[{"name":"Polygon_Texture_vol2","uri":"Polygon_Texture_vol2.png"}],"materials":[{"alphaMode":"OPAQUE","doubleSided":false,"extras":{"fromFBX":{"isTruePBR":false,"shadingModel":"Phong"}},"name":"Material","pbrMetallicRoughness":{"baseColorFactor":[1,1,1,1],"baseColorTexture":{"index":0,"texCoord":0},"metallicFactor":0.400000005960464,"roughnessFactor":0.229415729641914}},{"alphaMode":"OPAQUE","doubleSided":false,"extras":{"fromFBX":{"isTruePBR":false,"shadingModel":"Phong"}},"name":"Material.001","pbrMetallicRoughness":{"baseColorFactor":[0.800000071525574,0,0.00387099361978471,1],"metallicFactor":0.400000005960464,"roughnessFactor":0.272165536880493}}],"meshes":[{"name":"infrastructure_buildings_018","primitives":[{"attributes":{"NORMAL":2,"POSITION":1,"TEXCOORD_0":3},"indices":0,"material":0,"mode":4},{"attributes":{"NORMAL":6,"POSITION":5,"TEXCOORD_0":7},"indices":4,"material":1,"mode":4}]}],"nodes":[{"mesh":0,"name":"infrastructure_buildings_018","rotation":[0,0,0,1],"scale":[1,1,1],"translation":[59.663818359375,0,58.611629486084]}],"samplers":[{}],"scene":0,"scenes":[{"name":"Root Scene","nodes":[0]}],"textures":[{"name":"base_color_texture","sampler":0,"source":0}]}