{"accessors":[{"bufferView":0,"byteOffset":0,"componentType":5123,"count":16578,"type":"SCALAR"},{"bufferView":1,"byteOffset":0,"componentType":5126,"count":9827,"max":[20.6543998718262,15.1064119338989,17.4491176605225],"min":[-9.34559917449951,0,-12.5508813858032],"type":"VEC3"},{"bufferView":2,"byteOffset":0,"componentType":5126,"count":9827,"type":"VEC3"},{"bufferView":3,"byteOffset":0,"componentType":5126,"count":9827,"type":"VEC2"},{"bufferView":4,"byteOffset":0,"componentType":5123,"count":804,"type":"SCALAR"},{"bufferView":5,"byteOffset":0,"componentType":5126,"count":536,"max":[20.6543998718262,13.1990118026733,16.3082084655762],"min":[-9.34559917449951,0.0786446034908295,-12.5508813858032],"type":"VEC3"},{"bufferView":6,"byteOffset":0,"componentType":5126,"count":536,"type":"VEC3"},{"bufferView":7,"byteOffset":0,"componentType":5126,"count":536,"type":"VEC2"}],"asset":{"generator":"FBX2glTF v0.13.1","version":"2.0"},"bufferViews":[{"buffer":0,"byteLength":33156,"byteOffset":0,"target":34963},{"buffer":0,"byteLength":117924,"byteOffset":33156,"target":34962},{"buffer":0,"byteLength":117924,"byteOffset":151080,"target":34962},{"buffer":0,"byteLength":78616,"byteOffset":269004,"target":34962},{"buffer":0,"byteLength":1608,"byteOffset":347620,"target":34963},{"buffer":0,"byteLength":6432,"byteOffset":349228,"target":34962},{"buffer":0,"byteLength":6432,"byteOffset":355660,"target":34962},{"buffer":0,"byteLength":4288,"byteOffset":362092,"target":34962}],"buffers":[{"byteLength":366380,"uri":"SM_infrastructure_buildings_014.bin"}],"images":[{"name":"Polygon_Texture_vol2","uri":"Polygon_Texture_vol2.png"}],"materials":[{"alphaMode":"OPAQUE","doubleSided":false,"extras":{"fromFBX":{"isTruePBR":false,"shadingModel":"Phong"}},"name":"Material","pbrMetallicRoughness":{"baseColorFactor":[1,1,1,1],"baseColorTexture":{"index":0,"texCoord":0},"metallicFactor":0.400000005960464,"roughnessFactor":0.229415729641914}},{"alphaMode":"OPAQUE","doubleSided":false,"extras":{"fromFBX":{"isTruePBR":false,"shadingModel":"Phong"}},"name":"Material.001","pbrMetallicRoughness":{"baseColorFactor":[0.800000071525574,0,0.00387099361978471,1],"metallicFactor":0.400000005960464,"roughnessFactor":0.272165536880493}}],"meshes":[{"name":"infrastructure_buildings_014","primitives":[{"attributes":{"NORMAL":2,"POSITION":1,"TEXCOORD_0":3},"indices":0,"material":0,"mode":4},{"attributes":{"NORMAL":6,"POSITION":5,"TEXCOORD_0":7},"indices":4,"material":1,"mode":4}]}],"nodes":[{"mesh":0,"name":"infrastructure_buildings_014","rotation":[0,0,0,1],"scale":[1,1,1],"translation":[264.895446777344,0,58.611629486084]}],"samplers":[{}],"scene":0,"scenes":[{"name":"Root Scene","nodes":[0]}],"textures":[{"name":"base_color_texture","sampler":0,"source":0}]}