{"accessors":[{"bufferView":0,"byteOffset":0,"componentType":5123,"count":31302,"type":"SCALAR"},{"bufferView":1,"byteOffset":0,"componentType":5126,"count":16648,"max":[40.9999923706055,37.1219215393066,31],"min":[-40.9999923706055,0,-31],"type":"VEC3"},{"bufferView":2,"byteOffset":0,"componentType":5126,"count":16648,"type":"VEC3"},{"bufferView":3,"byteOffset":0,"componentType":5126,"count":16648,"type":"VEC2"},{"bufferView":4,"byteOffset":0,"componentType":5123,"count":2400,"type":"SCALAR"},{"bufferView":5,"byteOffset":0,"componentType":5126,"count":1600,"max":[40.3726272583008,25.385498046875,29.9303798675537],"min":[-40.3726272583008,0.0699394717812538,-29.9303798675537],"type":"VEC3"},{"bufferView":6,"byteOffset":0,"componentType":5126,"count":1600,"type":"VEC3"},{"bufferView":7,"byteOffset":0,"componentType":5126,"count":1600,"type":"VEC2"},{"bufferView":8,"byteOffset":0,"componentType":5123,"count":768,"type":"SCALAR"},{"bufferView":9,"byteOffset":0,"componentType":5126,"count":512,"max":[37.1696319580078,36.8621940612793,24.6983413696289],"min":[-37.1696319580078,33.0072898864746,-24.6983413696289],"type":"VEC3"},{"bufferView":10,"byteOffset":0,"componentType":5126,"count":512,"type":"VEC3"},{"bufferView":11,"byteOffset":0,"componentType":5126,"count":512,"type":"VEC2"}],"asset":{"generator":"FBX2glTF v0.13.1","version":"2.0"},"bufferViews":[{"buffer":0,"byteLength":62604,"byteOffset":0,"target":34963},{"buffer":0,"byteLength":199776,"byteOffset":62604,"target":34962},{"buffer":0,"byteLength":199776,"byteOffset":262380,"target":34962},{"buffer":0,"byteLength":133184,"byteOffset":462156,"target":34962},{"buffer":0,"byteLength":4800,"byteOffset":595340,"target":34963},{"buffer":0,"byteLength":19200,"byteOffset":600140,"target":34962},{"buffer":0,"byteLength":19200,"byteOffset":619340,"target":34962},{"buffer":0,"byteLength":12800,"byteOffset":638540,"target":34962},{"buffer":0,"byteLength":1536,"byteOffset":651340,"target":34963},{"buffer":0,"byteLength":6144,"byteOffset":652876,"target":34962},{"buffer":0,"byteLength":6144,"byteOffset":659020,"target":34962},{"buffer":0,"byteLength":4096,"byteOffset":665164,"target":34962}],"buffers":[{"byteLength":669260,"uri":"SM_infrastructure_buildings_017.bin"}],"images":[{"name":"Polygon_Texture_vol2","uri":"Polygon_Texture_vol2.png"}],"materials":[{"alphaMode":"OPAQUE","doubleSided":false,"extras":{"fromFBX":{"isTruePBR":false,"shadingModel":"Phong"}},"name":"Material","pbrMetallicRoughness":{"baseColorFactor":[1,1,1,1],"baseColorTexture":{"index":0,"texCoord":0},"metallicFactor":0.400000005960464,"roughnessFactor":0.229415729641914}},{"alphaMode":"OPAQUE","doubleSided":false,"extras":{"fromFBX":{"isTruePBR":false,"shadingModel":"Phong"}},"name":"Material.001","pbrMetallicRoughness":{"baseColorFactor":[0.800000071525574,0,0.00387099361978471,1],"metallicFactor":0.400000005960464,"roughnessFactor":0.272165536880493}},{"alphaMode":"OPAQUE","doubleSided":false,"extras":{"fromFBX":{"isTruePBR":false,"shadingModel":"Phong"}},"name":"Material.002","pbrMetallicRoughness":{"baseColorFactor":[0.0607280805706978,0,0.800000071525574,1],"metallicFactor":0.400000005960464,"roughnessFactor":0.272165536880493}}],"meshes":[{"name":"infrastructure_buildings_017","primitives":[{"attributes":{"NORMAL":2,"POSITION":1,"TEXCOORD_0":3},"indices":0,"material":0,"mode":4},{"attributes":{"NORMAL":6,"POSITION":5,"TEXCOORD_0":7},"indices":4,"material":1,"mode":4},{"attributes":{"NORMAL":10,"POSITION":9,"TEXCOORD_0":11},"indices":8,"material":2,"mode":4}]}],"nodes":[{"mesh":0,"name":"infrastructure_buildings_017","rotation":[0,0,0,1],"scale":[1,1,1],"translation":[124.796226501465,0,58.611629486084]}],"samplers":[{}],"scene":0,"scenes":[{"name":"Root Scene","nodes":[0]}],"textures":[{"name":"base_color_texture","sampler":0,"source":0}]}