{"accessors":[{"bufferView":0,"byteOffset":0,"componentType":5123,"count":35055,"type":"SCALAR"},{"bufferView":1,"byteOffset":0,"componentType":5126,"count":20448,"max":[28,46.6256828308105,9],"min":[-8,-0.00000044077652,-9],"type":"VEC3"},{"bufferView":2,"byteOffset":0,"componentType":5126,"count":20448,"type":"VEC3"},{"bufferView":3,"byteOffset":0,"componentType":5126,"count":20448,"type":"VEC2"},{"bufferView":4,"byteOffset":0,"componentType":5123,"count":2526,"type":"SCALAR"},{"bufferView":5,"byteOffset":0,"componentType":5126,"count":1686,"max":[27.7127418518066,43.9385719299316,8.71234035491943],"min":[-7.79938268661499,0.0500011630356312,-8.79938316345215],"type":"VEC3"},{"bufferView":6,"byteOffset":0,"componentType":5126,"count":1686,"type":"VEC3"},{"bufferView":7,"byteOffset":0,"componentType":5126,"count":1686,"type":"VEC2"}],"asset":{"generator":"FBX2glTF v0.13.1","version":"2.0"},"bufferViews":[{"buffer":0,"byteLength":70110,"byteOffset":0,"target":34963},{"buffer":0,"byteLength":245376,"byteOffset":70112,"target":34962},{"buffer":0,"byteLength":245376,"byteOffset":315488,"target":34962},{"buffer":0,"byteLength":163584,"byteOffset":560864,"target":34962},{"buffer":0,"byteLength":5052,"byteOffset":724448,"target":34963},{"buffer":0,"byteLength":20232,"byteOffset":729500,"target":34962},{"buffer":0,"byteLength":20232,"byteOffset":749732,"target":34962},{"buffer":0,"byteLength":13488,"byteOffset":769964,"target":34962}],"buffers":[{"byteLength":783452,"uri":"SM_infrastructure_buildings_03.bin"}],"images":[{"name":"Polygon_Texture_vol2","uri":"Polygon_Texture_vol2.png"}],"materials":[{"alphaMode":"OPAQUE","doubleSided":false,"extras":{"fromFBX":{"isTruePBR":false,"shadingModel":"Phong"}},"name":"Material","pbrMetallicRoughness":{"baseColorFactor":[1,1,1,1],"baseColorTexture":{"index":0,"texCoord":0},"metallicFactor":0.400000005960464,"roughnessFactor":0.229415729641914}},{"alphaMode":"OPAQUE","doubleSided":false,"extras":{"fromFBX":{"isTruePBR":false,"shadingModel":"Phong"}},"name":"Material.001","pbrMetallicRoughness":{"baseColorFactor":[0.800000071525574,0,0.00387099361978471,1],"metallicFactor":0.400000005960464,"roughnessFactor":0.272165536880493}}],"meshes":[{"name":"infrastructure_buildings_03","primitives":[{"attributes":{"NORMAL":2,"POSITION":1,"TEXCOORD_0":3},"indices":0,"material":0,"mode":4},{"attributes":{"NORMAL":6,"POSITION":5,"TEXCOORD_0":7},"indices":4,"material":1,"mode":4}]}],"nodes":[{"mesh":0,"name":"infrastructure_buildings_03","rotation":[0,0,0,1],"scale":[1,1,1],"translation":[691.321228027344,0,58.611629486084]}],"samplers":[{}],"scene":0,"scenes":[{"name":"Root Scene","nodes":[0]}],"textures":[{"name":"base_color_texture","sampler":0,"source":0}]}