{"accessors":[{"bufferView":0,"byteOffset":0,"componentType":5123,"count":5067,"type":"SCALAR"},{"bufferView":1,"byteOffset":0,"componentType":5126,"count":2793,"max":[8,10,6],"min":[-8,0,-30],"type":"VEC3"},{"bufferView":2,"byteOffset":0,"componentType":5126,"count":2793,"type":"VEC3"},{"bufferView":3,"byteOffset":0,"componentType":5126,"count":2793,"type":"VEC2"},{"bufferView":4,"byteOffset":0,"componentType":5123,"count":282,"type":"SCALAR"},{"bufferView":5,"byteOffset":0,"componentType":5126,"count":188,"max":[7.80206823348999,9.61773777008057,5.88239431381226],"min":[-7.80206823348999,0.0750148966908455,-29.0791664123535],"type":"VEC3"},{"bufferView":6,"byteOffset":0,"componentType":5126,"count":188,"type":"VEC3"},{"bufferView":7,"byteOffset":0,"componentType":5126,"count":188,"type":"VEC2"}],"asset":{"generator":"FBX2glTF v0.13.1","version":"2.0"},"bufferViews":[{"buffer":0,"byteLength":10134,"byteOffset":0,"target":34963},{"buffer":0,"byteLength":33516,"byteOffset":10136,"target":34962},{"buffer":0,"byteLength":33516,"byteOffset":43652,"target":34962},{"buffer":0,"byteLength":22344,"byteOffset":77168,"target":34962},{"buffer":0,"byteLength":564,"byteOffset":99512,"target":34963},{"buffer":0,"byteLength":2256,"byteOffset":100076,"target":34962},{"buffer":0,"byteLength":2256,"byteOffset":102332,"target":34962},{"buffer":0,"byteLength":1504,"byteOffset":104588,"target":34962}],"buffers":[{"byteLength":106092,"uri":"SM_infrastructure_buildings_012.bin"}],"images":[{"name":"Polygon_Texture_vol2","uri":"Polygon_Texture_vol2.png"}],"materials":[{"alphaMode":"OPAQUE","doubleSided":false,"extras":{"fromFBX":{"isTruePBR":false,"shadingModel":"Phong"}},"name":"Material","pbrMetallicRoughness":{"baseColorFactor":[1,1,1,1],"baseColorTexture":{"index":0,"texCoord":0},"metallicFactor":0.400000005960464,"roughnessFactor":0.229415729641914}},{"alphaMode":"OPAQUE","doubleSided":false,"extras":{"fromFBX":{"isTruePBR":false,"shadingModel":"Phong"}},"name":"Material.001","pbrMetallicRoughness":{"baseColorFactor":[0.800000071525574,0,0.00387099361978471,1],"metallicFactor":0.400000005960464,"roughnessFactor":0.272165536880493}}],"meshes":[{"name":"infrastructure_buildings_012","primitives":[{"attributes":{"NORMAL":2,"POSITION":1,"TEXCOORD_0":3},"indices":0,"material":0,"mode":4},{"attributes":{"NORMAL":6,"POSITION":5,"TEXCOORD_0":7},"indices":4,"material":1,"mode":4}]}],"nodes":[{"mesh":0,"name":"infrastructure_buildings_012","rotation":[0,0,0,1],"scale":[1,1,1],"translation":[336.003814697266,0,69.0459213256836]}],"samplers":[{}],"scene":0,"scenes":[{"name":"Root Scene","nodes":[0]}],"textures":[{"name":"base_color_texture","sampler":0,"source":0}]}