{"accessors":[{"bufferView":0,"byteOffset":0,"componentType":5123,"count":13512,"type":"SCALAR"},{"bufferView":1,"byteOffset":0,"componentType":5126,"count":7521,"max":[18,15.8513374328613,18.8530902862549],"min":[-18,0,-13.1469078063965],"type":"VEC3"},{"bufferView":2,"byteOffset":0,"componentType":5126,"count":7521,"type":"VEC3"},{"bufferView":3,"byteOffset":0,"componentType":5126,"count":7521,"type":"VEC2"},{"bufferView":4,"byteOffset":0,"componentType":5123,"count":720,"type":"SCALAR"},{"bufferView":5,"byteOffset":0,"componentType":5126,"count":478,"max":[15.4582614898682,13.6589889526367,12.0183773040771],"min":[-15.4582614898682,2.35963606834412,-11.5467891693115],"type":"VEC3"},{"bufferView":6,"byteOffset":0,"componentType":5126,"count":478,"type":"VEC3"},{"bufferView":7,"byteOffset":0,"componentType":5126,"count":478,"type":"VEC2"}],"asset":{"generator":"FBX2glTF v0.13.1","version":"2.0"},"bufferViews":[{"buffer":0,"byteLength":27024,"byteOffset":0,"target":34963},{"buffer":0,"byteLength":90252,"byteOffset":27024,"target":34962},{"buffer":0,"byteLength":90252,"byteOffset":117276,"target":34962},{"buffer":0,"byteLength":60168,"byteOffset":207528,"target":34962},{"buffer":0,"byteLength":1440,"byteOffset":267696,"target":34963},{"buffer":0,"byteLength":5736,"byteOffset":269136,"target":34962},{"buffer":0,"byteLength":5736,"byteOffset":274872,"target":34962},{"buffer":0,"byteLength":3824,"byteOffset":280608,"target":34962}],"buffers":[{"byteLength":284432,"uri":"SM_infrastructure_buildings_016.bin"}],"images":[{"name":"Polygon_Texture_vol2","uri":"Polygon_Texture_vol2.png"}],"materials":[{"alphaMode":"OPAQUE","doubleSided":false,"extras":{"fromFBX":{"isTruePBR":false,"shadingModel":"Phong"}},"name":"Material","pbrMetallicRoughness":{"baseColorFactor":[1,1,1,1],"baseColorTexture":{"index":0,"texCoord":0},"metallicFactor":0.400000005960464,"roughnessFactor":0.229415729641914}},{"alphaMode":"OPAQUE","doubleSided":false,"extras":{"fromFBX":{"isTruePBR":false,"shadingModel":"Phong"}},"name":"Material.001","pbrMetallicRoughness":{"baseColorFactor":[0.800000071525574,0,0.00387099361978471,1],"metallicFactor":0.400000005960464,"roughnessFactor":0.272165536880493}}],"meshes":[{"name":"infrastructure_buildings_016","primitives":[{"attributes":{"NORMAL":2,"POSITION":1,"TEXCOORD_0":3},"indices":0,"material":0,"mode":4},{"attributes":{"NORMAL":6,"POSITION":5,"TEXCOORD_0":7},"indices":4,"material":1,"mode":4}]}],"nodes":[{"mesh":0,"name":"infrastructure_buildings_016","rotation":[0,0,0,1],"scale":[1,1,1],"translation":[193.066360473633,0,58.611629486084]}],"samplers":[{}],"scene":0,"scenes":[{"name":"Root Scene","nodes":[0]}],"textures":[{"name":"base_color_texture","sampler":0,"source":0}]}