{"accessors":[{"bufferView":0,"byteOffset":0,"componentType":5123,"count":11739,"type":"SCALAR"},{"bufferView":1,"byteOffset":0,"componentType":5126,"count":6762,"max":[18.3056392669678,23.349666595459,17.7112522125244],"min":[-19.6943626403809,0,-16.2887477874756],"type":"VEC3"},{"bufferView":2,"byteOffset":0,"componentType":5126,"count":6762,"type":"VEC3"},{"bufferView":3,"byteOffset":0,"componentType":5126,"count":6762,"type":"VEC2"},{"bufferView":4,"byteOffset":0,"componentType":5123,"count":600,"type":"SCALAR"},{"bufferView":5,"byteOffset":0,"componentType":5126,"count":400,"max":[17.6282348632812,19.3410453796387,15.7045650482178],"min":[-17.8784656524658,0.0372898168861866,-16.0059852600098],"type":"VEC3"},{"bufferView":6,"byteOffset":0,"componentType":5126,"count":400,"type":"VEC3"},{"bufferView":7,"byteOffset":0,"componentType":5126,"count":400,"type":"VEC2"}],"asset":{"generator":"FBX2glTF v0.13.1","version":"2.0"},"bufferViews":[{"buffer":0,"byteLength":23478,"byteOffset":0,"target":34963},{"buffer":0,"byteLength":81144,"byteOffset":23480,"target":34962},{"buffer":0,"byteLength":81144,"byteOffset":104624,"target":34962},{"buffer":0,"byteLength":54096,"byteOffset":185768,"target":34962},{"buffer":0,"byteLength":1200,"byteOffset":239864,"target":34963},{"buffer":0,"byteLength":4800,"byteOffset":241064,"target":34962},{"buffer":0,"byteLength":4800,"byteOffset":245864,"target":34962},{"buffer":0,"byteLength":3200,"byteOffset":250664,"target":34962}],"buffers":[{"byteLength":253864,"uri":"SM_infrastructure_buildings_011.bin"}],"images":[{"name":"Polygon_Texture_vol2","uri":"Polygon_Texture_vol2.png"}],"materials":[{"alphaMode":"OPAQUE","doubleSided":false,"extras":{"fromFBX":{"isTruePBR":false,"shadingModel":"Phong"}},"name":"Material","pbrMetallicRoughness":{"baseColorFactor":[1,1,1,1],"baseColorTexture":{"index":0,"texCoord":0},"metallicFactor":0.400000005960464,"roughnessFactor":0.229415729641914}},{"alphaMode":"OPAQUE","doubleSided":false,"extras":{"fromFBX":{"isTruePBR":false,"shadingModel":"Phong"}},"name":"Material.001","pbrMetallicRoughness":{"baseColorFactor":[0.800000071525574,0,0.00387099361978471,1],"metallicFactor":0.400000005960464,"roughnessFactor":0.272165536880493}}],"meshes":[{"name":"infrastructure_buildings_011","primitives":[{"attributes":{"NORMAL":2,"POSITION":1,"TEXCOORD_0":3},"indices":0,"material":0,"mode":4},{"attributes":{"NORMAL":6,"POSITION":5,"TEXCOORD_0":7},"indices":4,"material":1,"mode":4}]}],"nodes":[{"mesh":0,"name":"infrastructure_buildings_011","rotation":[0,0,0,1],"scale":[1,1,1],"translation":[368.413970947266,0,62.2196807861328]}],"samplers":[{}],"scene":0,"scenes":[{"name":"Root Scene","nodes":[0]}],"textures":[{"name":"base_color_texture","sampler":0,"source":0}]}