{"accessors":[{"bufferView":0,"byteOffset":0,"componentType":5123,"count":7719,"type":"SCALAR"},{"bufferView":1,"byteOffset":0,"componentType":5126,"count":4419,"max":[3.34303426742554,9.21830177307129,8.18427181243896],"min":[-6.6569652557373,0,-7.81572723388672],"type":"VEC3"},{"bufferView":2,"byteOffset":0,"componentType":5126,"count":4419,"type":"VEC3"},{"bufferView":3,"byteOffset":0,"componentType":5126,"count":4419,"type":"VEC2"},{"bufferView":4,"byteOffset":0,"componentType":5123,"count":300,"type":"SCALAR"},{"bufferView":5,"byteOffset":0,"componentType":5126,"count":200,"max":[2.92673420906067,5.33666849136353,6.71695423126221],"min":[-2.52353572845459,0.953338980674744,-6.67560768127441],"type":"VEC3"},{"bufferView":6,"byteOffset":0,"componentType":5126,"count":200,"type":"VEC3"},{"bufferView":7,"byteOffset":0,"componentType":5126,"count":200,"type":"VEC2"}],"asset":{"generator":"FBX2glTF v0.13.1","version":"2.0"},"bufferViews":[{"buffer":0,"byteLength":15438,"byteOffset":0,"target":34963},{"buffer":0,"byteLength":53028,"byteOffset":15440,"target":34962},{"buffer":0,"byteLength":53028,"byteOffset":68468,"target":34962},{"buffer":0,"byteLength":35352,"byteOffset":121496,"target":34962},{"buffer":0,"byteLength":600,"byteOffset":156848,"target":34963},{"buffer":0,"byteLength":2400,"byteOffset":157448,"target":34962},{"buffer":0,"byteLength":2400,"byteOffset":159848,"target":34962},{"buffer":0,"byteLength":1600,"byteOffset":162248,"target":34962}],"buffers":[{"byteLength":163848,"uri":"SM_ordinary_houses_04.bin"}],"images":[{"name":"Polygon_Texture_vol2","uri":"Polygon_Texture_vol2.png"}],"materials":[{"alphaMode":"OPAQUE","doubleSided":false,"extras":{"fromFBX":{"isTruePBR":false,"shadingModel":"Phong"}},"name":"Material","pbrMetallicRoughness":{"baseColorFactor":[1,1,1,1],"baseColorTexture":{"index":0,"texCoord":0},"metallicFactor":0.400000005960464,"roughnessFactor":0.229415729641914}},{"alphaMode":"OPAQUE","doubleSided":false,"extras":{"fromFBX":{"isTruePBR":false,"shadingModel":"Phong"}},"name":"Material.001","pbrMetallicRoughness":{"baseColorFactor":[0.800000071525574,0,0.00387099361978471,1],"metallicFactor":0.400000005960464,"roughnessFactor":0.272165536880493}}],"meshes":[{"name":"ordinary_houses_04","primitives":[{"attributes":{"NORMAL":2,"POSITION":1,"TEXCOORD_0":3},"indices":0,"material":0,"mode":4},{"attributes":{"NORMAL":6,"POSITION":5,"TEXCOORD_0":7},"indices":4,"material":1,"mode":4}]}],"nodes":[{"mesh":0,"name":"ordinary_houses_04","rotation":[0,0,0,1],"scale":[1,1,1],"translation":[44.7657318115234,0,-101.388366699219]}],"samplers":[{}],"scene":0,"scenes":[{"name":"Root Scene","nodes":[0]}],"textures":[{"name":"base_color_texture","sampler":0,"source":0}]}