{"accessors":[{"bufferView":0,"byteOffset":0,"componentType":5123,"count":7461,"type":"SCALAR"},{"bufferView":1,"byteOffset":0,"componentType":5126,"count":4121,"max":[8.16969585418701,11.3760938644409,6.98261404037476],"min":[-7.83030366897583,0,-7.01738500595093],"type":"VEC3"},{"bufferView":2,"byteOffset":0,"componentType":5126,"count":4121,"type":"VEC3"},{"bufferView":3,"byteOffset":0,"componentType":5126,"count":4121,"type":"VEC2"},{"bufferView":4,"byteOffset":0,"componentType":5123,"count":354,"type":"SCALAR"},{"bufferView":5,"byteOffset":0,"componentType":5126,"count":234,"max":[5.19221258163452,5.24091005325317,5.36639070510864],"min":[-5.18545055389404,0.224175453186035,-5.25519323348999],"type":"VEC3"},{"bufferView":6,"byteOffset":0,"componentType":5126,"count":234,"type":"VEC3"},{"bufferView":7,"byteOffset":0,"componentType":5126,"count":234,"type":"VEC2"}],"asset":{"generator":"FBX2glTF v0.13.1","version":"2.0"},"bufferViews":[{"buffer":0,"byteLength":14922,"byteOffset":0,"target":34963},{"buffer":0,"byteLength":49452,"byteOffset":14924,"target":34962},{"buffer":0,"byteLength":49452,"byteOffset":64376,"target":34962},{"buffer":0,"byteLength":32968,"byteOffset":113828,"target":34962},{"buffer":0,"byteLength":708,"byteOffset":146796,"target":34963},{"buffer":0,"byteLength":2808,"byteOffset":147504,"target":34962},{"buffer":0,"byteLength":2808,"byteOffset":150312,"target":34962},{"buffer":0,"byteLength":1872,"byteOffset":153120,"target":34962}],"buffers":[{"byteLength":154992,"uri":"SM_ordinary_houses_03.bin"}],"images":[{"name":"Polygon_Texture_vol2","uri":"Polygon_Texture_vol2.png"}],"materials":[{"alphaMode":"OPAQUE","doubleSided":false,"extras":{"fromFBX":{"isTruePBR":false,"shadingModel":"Phong"}},"name":"Material","pbrMetallicRoughness":{"baseColorFactor":[1,1,1,1],"baseColorTexture":{"index":0,"texCoord":0},"metallicFactor":0.400000005960464,"roughnessFactor":0.229415729641914}},{"alphaMode":"OPAQUE","doubleSided":false,"extras":{"fromFBX":{"isTruePBR":false,"shadingModel":"Phong"}},"name":"Material.001","pbrMetallicRoughness":{"baseColorFactor":[0.800000071525574,0,0.00387099361978471,1],"metallicFactor":0.400000005960464,"roughnessFactor":0.272165536880493}}],"meshes":[{"name":"ordinary_houses_03","primitives":[{"attributes":{"NORMAL":2,"POSITION":1,"TEXCOORD_0":3},"indices":0,"material":0,"mode":4},{"attributes":{"NORMAL":6,"POSITION":5,"TEXCOORD_0":7},"indices":4,"material":1,"mode":4}]}],"nodes":[{"mesh":0,"name":"ordinary_houses_03","rotation":[0,0,0,1],"scale":[1,1,1],"translation":[60.2913360595703,0,-101.388366699219]}],"samplers":[{}],"scene":0,"scenes":[{"name":"Root Scene","nodes":[0]}],"textures":[{"name":"base_color_texture","sampler":0,"source":0}]}