{"accessors":[{"bufferView":0,"byteOffset":0,"componentType":5123,"count":9423,"type":"SCALAR"},{"bufferView":1,"byteOffset":0,"componentType":5126,"count":5626,"max":[6,11.9948472976685,9.97162818908691],"min":[-6,0,-6.02837133407593],"type":"VEC3"},{"bufferView":2,"byteOffset":0,"componentType":5126,"count":5626,"type":"VEC3"},{"bufferView":3,"byteOffset":0,"componentType":5126,"count":5626,"type":"VEC2"},{"bufferView":4,"byteOffset":0,"componentType":5123,"count":348,"type":"SCALAR"},{"bufferView":5,"byteOffset":0,"componentType":5126,"count":232,"max":[5.70394277572632,8.84894180297852,5.69165372848511],"min":[-5.63456296920776,0.559450685977936,-5.55294466018677],"type":"VEC3"},{"bufferView":6,"byteOffset":0,"componentType":5126,"count":232,"type":"VEC3"},{"bufferView":7,"byteOffset":0,"componentType":5126,"count":232,"type":"VEC2"}],"asset":{"generator":"FBX2glTF v0.13.1","version":"2.0"},"bufferViews":[{"buffer":0,"byteLength":18846,"byteOffset":0,"target":34963},{"buffer":0,"byteLength":67512,"byteOffset":18848,"target":34962},{"buffer":0,"byteLength":67512,"byteOffset":86360,"target":34962},{"buffer":0,"byteLength":45008,"byteOffset":153872,"target":34962},{"buffer":0,"byteLength":696,"byteOffset":198880,"target":34963},{"buffer":0,"byteLength":2784,"byteOffset":199576,"target":34962},{"buffer":0,"byteLength":2784,"byteOffset":202360,"target":34962},{"buffer":0,"byteLength":1856,"byteOffset":205144,"target":34962}],"buffers":[{"byteLength":207000,"uri":"SM_ordinary_houses_01.bin"}],"images":[{"name":"Polygon_Texture_vol2","uri":"Polygon_Texture_vol2.png"}],"materials":[{"alphaMode":"OPAQUE","doubleSided":false,"extras":{"fromFBX":{"isTruePBR":false,"shadingModel":"Phong"}},"name":"Material","pbrMetallicRoughness":{"baseColorFactor":[1,1,1,1],"baseColorTexture":{"index":0,"texCoord":0},"metallicFactor":0.400000005960464,"roughnessFactor":0.229415729641914}},{"alphaMode":"OPAQUE","doubleSided":false,"extras":{"fromFBX":{"isTruePBR":false,"shadingModel":"Phong"}},"name":"Material.001","pbrMetallicRoughness":{"baseColorFactor":[0.800000071525574,0,0.00387099361978471,1],"metallicFactor":0.400000005960464,"roughnessFactor":0.272165536880493}}],"meshes":[{"name":"ordinary_houses_01","primitives":[{"attributes":{"NORMAL":2,"POSITION":1,"TEXCOORD_0":3},"indices":0,"material":0,"mode":4},{"attributes":{"NORMAL":6,"POSITION":5,"TEXCOORD_0":7},"indices":4,"material":1,"mode":4}]}],"nodes":[{"mesh":0,"name":"ordinary_houses_01","rotation":[0,0,0,1],"scale":[1,1,1],"translation":[96.6294708251953,0,-101.388366699219]}],"samplers":[{}],"scene":0,"scenes":[{"name":"Root Scene","nodes":[0]}],"textures":[{"name":"base_color_texture","sampler":0,"source":0}]}