{"accessors":[{"bufferView":0,"byteOffset":0,"componentType":5123,"count":7704,"type":"SCALAR"},{"bufferView":1,"byteOffset":0,"componentType":5126,"count":4500,"max":[5.99271106719971,7.55044174194336,5.77698230743408],"min":[-6.00728845596313,0,-4.22301721572876],"type":"VEC3"},{"bufferView":2,"byteOffset":0,"componentType":5126,"count":4500,"type":"VEC3"},{"bufferView":3,"byteOffset":0,"componentType":5126,"count":4500,"type":"VEC2"},{"bufferView":4,"byteOffset":0,"componentType":5123,"count":252,"type":"SCALAR"},{"bufferView":5,"byteOffset":0,"componentType":5126,"count":168,"max":[5.65102338790894,2.49080991744995,5.10977697372437],"min":[-5.65102338790894,1.35388255119324,-4.02697706222534],"type":"VEC3"},{"bufferView":6,"byteOffset":0,"componentType":5126,"count":168,"type":"VEC3"},{"bufferView":7,"byteOffset":0,"componentType":5126,"count":168,"type":"VEC2"}],"asset":{"generator":"FBX2glTF v0.13.1","version":"2.0"},"bufferViews":[{"buffer":0,"byteLength":15408,"byteOffset":0,"target":34963},{"buffer":0,"byteLength":54000,"byteOffset":15408,"target":34962},{"buffer":0,"byteLength":54000,"byteOffset":69408,"target":34962},{"buffer":0,"byteLength":36000,"byteOffset":123408,"target":34962},{"buffer":0,"byteLength":504,"byteOffset":159408,"target":34963},{"buffer":0,"byteLength":2016,"byteOffset":159912,"target":34962},{"buffer":0,"byteLength":2016,"byteOffset":161928,"target":34962},{"buffer":0,"byteLength":1344,"byteOffset":163944,"target":34962}],"buffers":[{"byteLength":165288,"uri":"SM_ordinary_houses_05.bin"}],"images":[{"name":"Polygon_Texture_vol2","uri":"Polygon_Texture_vol2.png"}],"materials":[{"alphaMode":"OPAQUE","doubleSided":false,"extras":{"fromFBX":{"isTruePBR":false,"shadingModel":"Phong"}},"name":"Material","pbrMetallicRoughness":{"baseColorFactor":[1,1,1,1],"baseColorTexture":{"index":0,"texCoord":0},"metallicFactor":0.400000005960464,"roughnessFactor":0.229415729641914}},{"alphaMode":"OPAQUE","doubleSided":false,"extras":{"fromFBX":{"isTruePBR":false,"shadingModel":"Phong"}},"name":"Material.001","pbrMetallicRoughness":{"baseColorFactor":[0.800000071525574,0,0.00387099361978471,1],"metallicFactor":0.400000005960464,"roughnessFactor":0.272165536880493}}],"meshes":[{"name":"ordinary_houses_05","primitives":[{"attributes":{"NORMAL":2,"POSITION":1,"TEXCOORD_0":3},"indices":0,"material":0,"mode":4},{"attributes":{"NORMAL":6,"POSITION":5,"TEXCOORD_0":7},"indices":4,"material":1,"mode":4}]}],"nodes":[{"mesh":0,"name":"ordinary_houses_05","rotation":[0,0,0,1],"scale":[1,1,1],"translation":[29.8860607147217,0,-101.388366699219]}],"samplers":[{}],"scene":0,"scenes":[{"name":"Root Scene","nodes":[0]}],"textures":[{"name":"base_color_texture","sampler":0,"source":0}]}