{"accessors":[{"bufferView":0,"byteOffset":0,"componentType":5123,"count":7791,"type":"SCALAR"},{"bufferView":1,"byteOffset":0,"componentType":5126,"count":4305,"max":[4.29749917984009,9.75128650665283,9.3357982635498],"min":[-13.7025012969971,-0.00000017881393,-6.66420078277588],"type":"VEC3"},{"bufferView":2,"byteOffset":0,"componentType":5126,"count":4305,"type":"VEC3"},{"bufferView":3,"byteOffset":0,"componentType":5126,"count":4305,"type":"VEC2"},{"bufferView":4,"byteOffset":0,"componentType":5123,"count":348,"type":"SCALAR"},{"bufferView":5,"byteOffset":0,"componentType":5126,"count":232,"max":[3.86100244522095,6.17117547988892,6.29977893829346],"min":[-11.5189361572266,1.42223525047302,-6.29977893829346],"type":"VEC3"},{"bufferView":6,"byteOffset":0,"componentType":5126,"count":232,"type":"VEC3"},{"bufferView":7,"byteOffset":0,"componentType":5126,"count":232,"type":"VEC2"}],"asset":{"generator":"FBX2glTF v0.13.1","version":"2.0"},"bufferViews":[{"buffer":0,"byteLength":15582,"byteOffset":0,"target":34963},{"buffer":0,"byteLength":51660,"byteOffset":15584,"target":34962},{"buffer":0,"byteLength":51660,"byteOffset":67244,"target":34962},{"buffer":0,"byteLength":34440,"byteOffset":118904,"target":34962},{"buffer":0,"byteLength":696,"byteOffset":153344,"target":34963},{"buffer":0,"byteLength":2784,"byteOffset":154040,"target":34962},{"buffer":0,"byteLength":2784,"byteOffset":156824,"target":34962},{"buffer":0,"byteLength":1856,"byteOffset":159608,"target":34962}],"buffers":[{"byteLength":161464,"uri":"SM_ordinary_houses_02.bin"}],"images":[{"name":"Polygon_Texture_vol2","uri":"Polygon_Texture_vol2.png"}],"materials":[{"alphaMode":"OPAQUE","doubleSided":false,"extras":{"fromFBX":{"isTruePBR":false,"shadingModel":"Phong"}},"name":"Material","pbrMetallicRoughness":{"baseColorFactor":[1,1,1,1],"baseColorTexture":{"index":0,"texCoord":0},"metallicFactor":0.400000005960464,"roughnessFactor":0.229415729641914}},{"alphaMode":"OPAQUE","doubleSided":false,"extras":{"fromFBX":{"isTruePBR":false,"shadingModel":"Phong"}},"name":"Material.001","pbrMetallicRoughness":{"baseColorFactor":[0.800000071525574,0,0.00387099361978471,1],"metallicFactor":0.400000005960464,"roughnessFactor":0.272165536880493}}],"meshes":[{"name":"ordinary_houses_02","primitives":[{"attributes":{"NORMAL":2,"POSITION":1,"TEXCOORD_0":3},"indices":0,"material":0,"mode":4},{"attributes":{"NORMAL":6,"POSITION":5,"TEXCOORD_0":7},"indices":4,"material":1,"mode":4}]}],"nodes":[{"mesh":0,"name":"ordinary_houses_02","rotation":[0,0,0,1],"scale":[1,1,1],"translation":[82.8724517822266,0,-101.388366699219]}],"samplers":[{}],"scene":0,"scenes":[{"name":"Root Scene","nodes":[0]}],"textures":[{"name":"base_color_texture","sampler":0,"source":0}]}