{"accessors":[{"bufferView":0,"byteOffset":0,"componentType":5123,"count":40950,"type":"SCALAR"},{"bufferView":1,"byteOffset":0,"componentType":5126,"count":22928,"max":[13,80.8122711181641,13.3498010635376],"min":[-13,-0.00000022000245,-12.6501998901367],"type":"VEC3"},{"bufferView":2,"byteOffset":0,"componentType":5126,"count":22928,"type":"VEC3"},{"bufferView":3,"byteOffset":0,"componentType":5126,"count":22928,"type":"VEC2"},{"bufferView":4,"byteOffset":0,"componentType":5123,"count":4131,"type":"SCALAR"},{"bufferView":5,"byteOffset":0,"componentType":5126,"count":2753,"max":[12.3517370223999,80.1355514526367,12.9519319534302],"min":[-12.3517370223999,0.0473310872912407,-12.019380569458],"type":"VEC3"},{"bufferView":6,"byteOffset":0,"componentType":5126,"count":2753,"type":"VEC3"},{"bufferView":7,"byteOffset":0,"componentType":5126,"count":2753,"type":"VEC2"}],"asset":{"generator":"FBX2glTF v0.13.1","version":"2.0"},"bufferViews":[{"buffer":0,"byteLength":81900,"byteOffset":0,"target":34963},{"buffer":0,"byteLength":275136,"byteOffset":81900,"target":34962},{"buffer":0,"byteLength":275136,"byteOffset":357036,"target":34962},{"buffer":0,"byteLength":183424,"byteOffset":632172,"target":34962},{"buffer":0,"byteLength":8262,"byteOffset":815596,"target":34963},{"buffer":0,"byteLength":33036,"byteOffset":823860,"target":34962},{"buffer":0,"byteLength":33036,"byteOffset":856896,"target":34962},{"buffer":0,"byteLength":22024,"byteOffset":889932,"target":34962}],"buffers":[{"byteLength":911956,"uri":"SM_skyscraper_06.bin"}],"images":[{"name":"Polygon_Texture_vol2","uri":"Polygon_Texture_vol2.png"}],"materials":[{"alphaMode":"OPAQUE","doubleSided":false,"extras":{"fromFBX":{"isTruePBR":false,"shadingModel":"Phong"}},"name":"Material","pbrMetallicRoughness":{"baseColorFactor":[1,1,1,1],"baseColorTexture":{"index":0,"texCoord":0},"metallicFactor":0.400000005960464,"roughnessFactor":0.229415729641914}},{"alphaMode":"OPAQUE","doubleSided":false,"extras":{"fromFBX":{"isTruePBR":false,"shadingModel":"Phong"}},"name":"Material.001","pbrMetallicRoughness":{"baseColorFactor":[0.800000071525574,0,0.00387099361978471,1],"metallicFactor":0.400000005960464,"roughnessFactor":0.272165536880493}}],"meshes":[{"name":"skyscraper_06","primitives":[{"attributes":{"NORMAL":2,"POSITION":1,"TEXCOORD_0":3},"indices":0,"material":0,"mode":4},{"attributes":{"NORMAL":6,"POSITION":5,"TEXCOORD_0":7},"indices":4,"material":1,"mode":4}]}],"nodes":[{"mesh":0,"name":"skyscraper_06","rotation":[0,0,0,1],"scale":[1,1,1],"translation":[566.877624511719,0,-47.8065223693848]}],"samplers":[{}],"scene":0,"scenes":[{"name":"Root Scene","nodes":[0]}],"textures":[{"name":"base_color_texture","sampler":0,"source":0}]}