{"accessors":[{"bufferView":0,"byteOffset":0,"componentType":5123,"count":14301,"type":"SCALAR"},{"bufferView":1,"byteOffset":0,"componentType":5126,"count":8127,"max":[11,96.3243713378906,14.0493144989014],"min":[-24.0341739654541,0,-14.0493144989014],"type":"VEC3"},{"bufferView":2,"byteOffset":0,"componentType":5126,"count":8127,"type":"VEC3"},{"bufferView":3,"byteOffset":0,"componentType":5126,"count":8127,"type":"VEC2"},{"bufferView":4,"byteOffset":0,"componentType":5123,"count":3612,"type":"SCALAR"},{"bufferView":5,"byteOffset":0,"componentType":5126,"count":2394,"max":[10,92.0458297729492,14],"min":[-24,0,-14],"type":"VEC3"},{"bufferView":6,"byteOffset":0,"componentType":5126,"count":2394,"type":"VEC3"},{"bufferView":7,"byteOffset":0,"componentType":5126,"count":2394,"type":"VEC2"},{"bufferView":8,"byteOffset":0,"componentType":5123,"count":306,"type":"SCALAR"},{"bufferView":9,"byteOffset":0,"componentType":5126,"count":200,"max":[8.44997215270996,100.176147460938,0.204376086592674],"min":[8.04120445251465,96.3243713378906,-0.2043759226799],"type":"VEC3"},{"bufferView":10,"byteOffset":0,"componentType":5126,"count":200,"type":"VEC3"},{"bufferView":11,"byteOffset":0,"componentType":5126,"count":200,"type":"VEC2"}],"asset":{"generator":"FBX2glTF v0.13.1","version":"2.0"},"bufferViews":[{"buffer":0,"byteLength":28602,"byteOffset":0,"target":34963},{"buffer":0,"byteLength":97524,"byteOffset":28604,"target":34962},{"buffer":0,"byteLength":97524,"byteOffset":126128,"target":34962},{"buffer":0,"byteLength":65016,"byteOffset":223652,"target":34962},{"buffer":0,"byteLength":7224,"byteOffset":288668,"target":34963},{"buffer":0,"byteLength":28728,"byteOffset":295892,"target":34962},{"buffer":0,"byteLength":28728,"byteOffset":324620,"target":34962},{"buffer":0,"byteLength":19152,"byteOffset":353348,"target":34962},{"buffer":0,"byteLength":612,"byteOffset":372500,"target":34963},{"buffer":0,"byteLength":2400,"byteOffset":373112,"target":34962},{"buffer":0,"byteLength":2400,"byteOffset":375512,"target":34962},{"buffer":0,"byteLength":1600,"byteOffset":377912,"target":34962}],"buffers":[{"byteLength":379512,"uri":"SM_skyscraper_07.bin"}],"images":[{"name":"Polygon_Texture_vol2","uri":"Polygon_Texture_vol2.png"}],"materials":[{"alphaMode":"OPAQUE","doubleSided":false,"extras":{"fromFBX":{"isTruePBR":false,"shadingModel":"Phong"}},"name":"Material.001","pbrMetallicRoughness":{"baseColorFactor":[0.800000071525574,0,0.00387099361978471,1],"metallicFactor":0.400000005960464,"roughnessFactor":0.272165536880493}},{"alphaMode":"OPAQUE","doubleSided":false,"extras":{"fromFBX":{"isTruePBR":false,"shadingModel":"Phong"}},"name":"Material","pbrMetallicRoughness":{"baseColorFactor":[1,1,1,1],"baseColorTexture":{"index":0,"texCoord":0},"metallicFactor":0.400000005960464,"roughnessFactor":0.229415729641914}},{"alphaMode":"OPAQUE","doubleSided":false,"extras":{"fromFBX":{"isTruePBR":false,"shadingModel":"Phong"}},"name":"Material.002","pbrMetallicRoughness":{"baseColorFactor":[0.0607280805706978,0,0.800000071525574,1],"metallicFactor":0.400000005960464,"roughnessFactor":0.272165536880493}}],"meshes":[{"name":"skyscraper_07","primitives":[{"attributes":{"NORMAL":2,"POSITION":1,"TEXCOORD_0":3},"indices":0,"material":1,"mode":4},{"attributes":{"NORMAL":6,"POSITION":5,"TEXCOORD_0":7},"indices":4,"material":0,"mode":4},{"attributes":{"NORMAL":10,"POSITION":9,"TEXCOORD_0":11},"indices":8,"material":2,"mode":4}]}],"nodes":[{"mesh":0,"name":"skyscraper_07","rotation":[0,0,0,1],"scale":[1,1,1],"translation":[529.382995605469,0,-47.8065223693848]}],"samplers":[{}],"scene":0,"scenes":[{"name":"Root Scene","nodes":[0]}],"textures":[{"name":"base_color_texture","sampler":0,"source":0}]}