{"accessors":[{"bufferView":0,"byteOffset":0,"componentType":5123,"count":2208,"type":"SCALAR"},{"bufferView":1,"byteOffset":0,"componentType":5126,"count":1448,"max":[12.4140167236328,73.884147644043,5.96641826629639],"min":[-14.5839710235596,1,-20.0335807800293],"type":"VEC3"},{"bufferView":2,"byteOffset":0,"componentType":5126,"count":1448,"type":"VEC3"},{"bufferView":3,"byteOffset":0,"componentType":5126,"count":1448,"type":"VEC2"},{"bufferView":4,"byteOffset":0,"componentType":5123,"count":519,"type":"SCALAR"},{"bufferView":5,"byteOffset":0,"componentType":5126,"count":335,"max":[11.5086116790771,86.1151809692383,5.71322631835938],"min":[-14.3327226638794,1.38809287548065,-19.7861576080322],"type":"VEC3"},{"bufferView":6,"byteOffset":0,"componentType":5126,"count":335,"type":"VEC3"},{"bufferView":7,"byteOffset":0,"componentType":5126,"count":335,"type":"VEC2"},{"bufferView":8,"byteOffset":0,"componentType":5123,"count":228,"type":"SCALAR"},{"bufferView":9,"byteOffset":0,"componentType":5126,"count":144,"max":[17.4160289764404,5.97588300704956,4.01873826980591],"min":[3.28788089752197,4.52816152572632,-19.3802890777588],"type":"VEC3"},{"bufferView":10,"byteOffset":0,"componentType":5126,"count":144,"type":"VEC3"},{"bufferView":11,"byteOffset":0,"componentType":5126,"count":144,"type":"VEC2"}],"asset":{"generator":"FBX2glTF v0.13.1","version":"2.0"},"bufferViews":[{"buffer":0,"byteLength":4416,"byteOffset":0,"target":34963},{"buffer":0,"byteLength":17376,"byteOffset":4416,"target":34962},{"buffer":0,"byteLength":17376,"byteOffset":21792,"target":34962},{"buffer":0,"byteLength":11584,"byteOffset":39168,"target":34962},{"buffer":0,"byteLength":1038,"byteOffset":50752,"target":34963},{"buffer":0,"byteLength":4020,"byteOffset":51792,"target":34962},{"buffer":0,"byteLength":4020,"byteOffset":55812,"target":34962},{"buffer":0,"byteLength":2680,"byteOffset":59832,"target":34962},{"buffer":0,"byteLength":456,"byteOffset":62512,"target":34963},{"buffer":0,"byteLength":1728,"byteOffset":62968,"target":34962},{"buffer":0,"byteLength":1728,"byteOffset":64696,"target":34962},{"buffer":0,"byteLength":1152,"byteOffset":66424,"target":34962}],"buffers":[{"byteLength":67576,"uri":"SM_skyscraper_01.bin"}],"images":[{"name":"Polygon_Texture_vol2","uri":"Polygon_Texture_vol2.png"}],"materials":[{"alphaMode":"OPAQUE","doubleSided":false,"extras":{"fromFBX":{"isTruePBR":false,"shadingModel":"Phong"}},"name":"Material.001","pbrMetallicRoughness":{"baseColorFactor":[0.800000071525574,0,0.00387099361978471,1],"metallicFactor":0.400000005960464,"roughnessFactor":0.272165536880493}},{"alphaMode":"OPAQUE","doubleSided":false,"extras":{"fromFBX":{"isTruePBR":false,"shadingModel":"Phong"}},"name":"Material","pbrMetallicRoughness":{"baseColorFactor":[1,1,1,1],"baseColorTexture":{"index":0,"texCoord":0},"metallicFactor":0.400000005960464,"roughnessFactor":0.229415729641914}},{"alphaMode":"OPAQUE","doubleSided":false,"extras":{"fromFBX":{"isTruePBR":false,"shadingModel":"Phong"}},"name":"Material.002","pbrMetallicRoughness":{"baseColorFactor":[0.0607280805706978,0,0.800000071525574,1],"metallicFactor":0.400000005960464,"roughnessFactor":0.272165536880493}}],"meshes":[{"name":"skyscraper_01","primitives":[{"attributes":{"NORMAL":2,"POSITION":1,"TEXCOORD_0":3},"indices":0,"material":1,"mode":4},{"attributes":{"NORMAL":6,"POSITION":5,"TEXCOORD_0":7},"indices":4,"material":0,"mode":4},{"attributes":{"NORMAL":10,"POSITION":9,"TEXCOORD_0":11},"indices":8,"material":2,"mode":4}]}],"nodes":[{"mesh":0,"name":"skyscraper_01","rotation":[0,0,0,1],"scale":[1,1,1],"translation":[413.686004638672,0,-43.9035720825195]}],"samplers":[{}],"scene":0,"scenes":[{"name":"Root Scene","nodes":[0]}],"textures":[{"name":"base_color_texture","sampler":0,"source":0}]}