{"accessors":[{"bufferView":0,"byteOffset":0,"componentType":5123,"count":21336,"type":"SCALAR"},{"bufferView":1,"byteOffset":0,"componentType":5126,"count":13576,"max":[16,80,14.0636577606201],"min":[-16,-0.06641817092896,-11.9363412857056],"type":"VEC3"},{"bufferView":2,"byteOffset":0,"componentType":5126,"count":13576,"type":"VEC3"},{"bufferView":3,"byteOffset":0,"componentType":5126,"count":13576,"type":"VEC2"},{"bufferView":4,"byteOffset":0,"componentType":5123,"count":1734,"type":"SCALAR"},{"bufferView":5,"byteOffset":0,"componentType":5126,"count":1156,"max":[13.9981956481934,78,11.5397090911865],"min":[-13.9981966018677,0.042480543255806,-8.07462882995605],"type":"VEC3"},{"bufferView":6,"byteOffset":0,"componentType":5126,"count":1156,"type":"VEC3"},{"bufferView":7,"byteOffset":0,"componentType":5126,"count":1156,"type":"VEC2"}],"asset":{"generator":"FBX2glTF v0.13.1","version":"2.0"},"bufferViews":[{"buffer":0,"byteLength":42672,"byteOffset":0,"target":34963},{"buffer":0,"byteLength":162912,"byteOffset":42672,"target":34962},{"buffer":0,"byteLength":162912,"byteOffset":205584,"target":34962},{"buffer":0,"byteLength":108608,"byteOffset":368496,"target":34962},{"buffer":0,"byteLength":3468,"byteOffset":477104,"target":34963},{"buffer":0,"byteLength":13872,"byteOffset":480572,"target":34962},{"buffer":0,"byteLength":13872,"byteOffset":494444,"target":34962},{"buffer":0,"byteLength":9248,"byteOffset":508316,"target":34962}],"buffers":[{"byteLength":517564,"uri":"SM_skyscraper_02.bin"}],"images":[{"name":"Polygon_Texture_vol2","uri":"Polygon_Texture_vol2.png"}],"materials":[{"alphaMode":"OPAQUE","doubleSided":false,"extras":{"fromFBX":{"isTruePBR":false,"shadingModel":"Phong"}},"name":"Material","pbrMetallicRoughness":{"baseColorFactor":[1,1,1,1],"baseColorTexture":{"index":0,"texCoord":0},"metallicFactor":0.400000005960464,"roughnessFactor":0.229415729641914}},{"alphaMode":"OPAQUE","doubleSided":false,"extras":{"fromFBX":{"isTruePBR":false,"shadingModel":"Phong"}},"name":"Material.001","pbrMetallicRoughness":{"baseColorFactor":[0.800000071525574,0,0.00387099361978471,1],"metallicFactor":0.400000005960464,"roughnessFactor":0.272165536880493}}],"meshes":[{"name":"skyscraper_02","primitives":[{"attributes":{"NORMAL":2,"POSITION":1,"TEXCOORD_0":3},"indices":0,"material":0,"mode":4},{"attributes":{"NORMAL":6,"POSITION":5,"TEXCOORD_0":7},"indices":4,"material":1,"mode":4}]}],"nodes":[{"mesh":0,"name":"skyscraper_02","rotation":[0,0,0,1],"scale":[1,1,1],"translation":[372.590118408203,0,-53.1419563293457]}],"samplers":[{}],"scene":0,"scenes":[{"name":"Root Scene","nodes":[0]}],"textures":[{"name":"base_color_texture","sampler":0,"source":0}]}