{"accessors":[{"bufferView":0,"byteOffset":0,"componentType":5123,"count":12006,"type":"SCALAR"},{"bufferView":1,"byteOffset":0,"componentType":5126,"count":7129,"max":[14,83.0475311279297,14],"min":[-14,0,-14],"type":"VEC3"},{"bufferView":2,"byteOffset":0,"componentType":5126,"count":7129,"type":"VEC3"},{"bufferView":3,"byteOffset":0,"componentType":5126,"count":7129,"type":"VEC2"},{"bufferView":4,"byteOffset":0,"componentType":5123,"count":480,"type":"SCALAR"},{"bufferView":5,"byteOffset":0,"componentType":5126,"count":328,"max":[11.8441257476807,81.5407867431641,11.8441257476807],"min":[-11.8441257476807,0.0302419494837523,-11.8441257476807],"type":"VEC3"},{"bufferView":6,"byteOffset":0,"componentType":5126,"count":328,"type":"VEC3"},{"bufferView":7,"byteOffset":0,"componentType":5126,"count":328,"type":"VEC2"}],"asset":{"generator":"FBX2glTF v0.13.1","version":"2.0"},"bufferViews":[{"buffer":0,"byteLength":24012,"byteOffset":0,"target":34963},{"buffer":0,"byteLength":85548,"byteOffset":24012,"target":34962},{"buffer":0,"byteLength":85548,"byteOffset":109560,"target":34962},{"buffer":0,"byteLength":57032,"byteOffset":195108,"target":34962},{"buffer":0,"byteLength":960,"byteOffset":252140,"target":34963},{"buffer":0,"byteLength":3936,"byteOffset":253100,"target":34962},{"buffer":0,"byteLength":3936,"byteOffset":257036,"target":34962},{"buffer":0,"byteLength":2624,"byteOffset":260972,"target":34962}],"buffers":[{"byteLength":263596,"uri":"SM_skyscraper_04.bin"}],"images":[{"name":"Polygon_Texture_vol2","uri":"Polygon_Texture_vol2.png"}],"materials":[{"alphaMode":"OPAQUE","doubleSided":false,"extras":{"fromFBX":{"isTruePBR":false,"shadingModel":"Phong"}},"name":"Material","pbrMetallicRoughness":{"baseColorFactor":[1,1,1,1],"baseColorTexture":{"index":0,"texCoord":0},"metallicFactor":0.400000005960464,"roughnessFactor":0.229415729641914}},{"alphaMode":"OPAQUE","doubleSided":false,"extras":{"fromFBX":{"isTruePBR":false,"shadingModel":"Phong"}},"name":"Material.001","pbrMetallicRoughness":{"baseColorFactor":[0.800000071525574,0,0.00387099361978471,1],"metallicFactor":0.400000005960464,"roughnessFactor":0.272165536880493}}],"meshes":[{"name":"skyscraper_04","primitives":[{"attributes":{"NORMAL":2,"POSITION":1,"TEXCOORD_0":3},"indices":0,"material":0,"mode":4},{"attributes":{"NORMAL":6,"POSITION":5,"TEXCOORD_0":7},"indices":4,"material":1,"mode":4}]}],"nodes":[{"mesh":0,"name":"skyscraper_04","rotation":[0,0,0,1],"scale":[1,1,1],"translation":[643.436279296875,0,-49.1948852539062]}],"samplers":[{}],"scene":0,"scenes":[{"name":"Root Scene","nodes":[0]}],"textures":[{"name":"base_color_texture","sampler":0,"source":0}]}