{"accessors":[{"bufferView":0,"byteOffset":0,"componentType":5123,"count":17052,"type":"SCALAR"},{"bufferView":1,"byteOffset":0,"componentType":5126,"count":11088,"max":[28.0000019073486,73,13.1318206787109],"min":[-28.0000019073486,-0.00000008665577,-6.86817932128906],"type":"VEC3"},{"bufferView":2,"byteOffset":0,"componentType":5126,"count":11088,"type":"VEC3"},{"bufferView":3,"byteOffset":0,"componentType":5126,"count":11088,"type":"VEC2"},{"bufferView":4,"byteOffset":0,"componentType":5123,"count":5808,"type":"SCALAR"},{"bufferView":5,"byteOffset":0,"componentType":5126,"count":3864,"max":[27.7543869018555,71.4832534790039,12.8702745437622],"min":[-27.7543869018555,0.0661242008209229,-6.60439920425415],"type":"VEC3"},{"bufferView":6,"byteOffset":0,"componentType":5126,"count":3864,"type":"VEC3"},{"bufferView":7,"byteOffset":0,"componentType":5126,"count":3864,"type":"VEC2"}],"asset":{"generator":"FBX2glTF v0.13.1","version":"2.0"},"bufferViews":[{"buffer":0,"byteLength":34104,"byteOffset":0,"target":34963},{"buffer":0,"byteLength":133056,"byteOffset":34104,"target":34962},{"buffer":0,"byteLength":133056,"byteOffset":167160,"target":34962},{"buffer":0,"byteLength":88704,"byteOffset":300216,"target":34962},{"buffer":0,"byteLength":11616,"byteOffset":388920,"target":34963},{"buffer":0,"byteLength":46368,"byteOffset":400536,"target":34962},{"buffer":0,"byteLength":46368,"byteOffset":446904,"target":34962},{"buffer":0,"byteLength":30912,"byteOffset":493272,"target":34962}],"buffers":[{"byteLength":524184,"uri":"SM_skyscraper_03.bin"}],"images":[{"name":"Polygon_Texture_vol2","uri":"Polygon_Texture_vol2.png"}],"materials":[{"alphaMode":"OPAQUE","doubleSided":false,"extras":{"fromFBX":{"isTruePBR":false,"shadingModel":"Phong"}},"name":"Material","pbrMetallicRoughness":{"baseColorFactor":[1,1,1,1],"baseColorTexture":{"index":0,"texCoord":0},"metallicFactor":0.400000005960464,"roughnessFactor":0.229415729641914}},{"alphaMode":"OPAQUE","doubleSided":false,"extras":{"fromFBX":{"isTruePBR":false,"shadingModel":"Phong"}},"name":"Material.001","pbrMetallicRoughness":{"baseColorFactor":[0.800000071525574,0,0.00387099361978471,1],"metallicFactor":0.400000005960464,"roughnessFactor":0.272165536880493}}],"meshes":[{"name":"skyscraper_03","primitives":[{"attributes":{"NORMAL":2,"POSITION":1,"TEXCOORD_0":3},"indices":0,"material":0,"mode":4},{"attributes":{"NORMAL":6,"POSITION":5,"TEXCOORD_0":7},"indices":4,"material":1,"mode":4}]}],"nodes":[{"mesh":0,"name":"skyscraper_03","rotation":[0,0,0,1],"scale":[1,1,1],"translation":[469.343536376953,0,-49.1948852539062]}],"samplers":[{}],"scene":0,"scenes":[{"name":"Root Scene","nodes":[0]}],"textures":[{"name":"base_color_texture","sampler":0,"source":0}]}