{"accessors":[{"bufferView":0,"byteOffset":0,"componentType":5123,"count":17298,"type":"SCALAR"},{"bufferView":1,"byteOffset":0,"componentType":5126,"count":10928,"max":[15,96.6597671508789,15],"min":[-15.0000009536743,-0.00614249985665,-15.0000009536743],"type":"VEC3"},{"bufferView":2,"byteOffset":0,"componentType":5126,"count":10928,"type":"VEC3"},{"bufferView":3,"byteOffset":0,"componentType":5126,"count":10928,"type":"VEC2"},{"bufferView":4,"byteOffset":0,"componentType":5123,"count":1224,"type":"SCALAR"},{"bufferView":5,"byteOffset":0,"componentType":5126,"count":816,"max":[14.3818111419678,89.7730941772461,14.3818111419678],"min":[-14.3818111419678,0.0286311022937298,-14.3818111419678],"type":"VEC3"},{"bufferView":6,"byteOffset":0,"componentType":5126,"count":816,"type":"VEC3"},{"bufferView":7,"byteOffset":0,"componentType":5126,"count":816,"type":"VEC2"}],"asset":{"generator":"FBX2glTF v0.13.1","version":"2.0"},"bufferViews":[{"buffer":0,"byteLength":34596,"byteOffset":0,"target":34963},{"buffer":0,"byteLength":131136,"byteOffset":34596,"target":34962},{"buffer":0,"byteLength":131136,"byteOffset":165732,"target":34962},{"buffer":0,"byteLength":87424,"byteOffset":296868,"target":34962},{"buffer":0,"byteLength":2448,"byteOffset":384292,"target":34963},{"buffer":0,"byteLength":9792,"byteOffset":386740,"target":34962},{"buffer":0,"byteLength":9792,"byteOffset":396532,"target":34962},{"buffer":0,"byteLength":6528,"byteOffset":406324,"target":34962}],"buffers":[{"byteLength":412852,"uri":"SM_skyscraper_05.bin"}],"images":[{"name":"Polygon_Texture_vol2","uri":"Polygon_Texture_vol2.png"}],"materials":[{"alphaMode":"OPAQUE","doubleSided":false,"extras":{"fromFBX":{"isTruePBR":false,"shadingModel":"Phong"}},"name":"Material","pbrMetallicRoughness":{"baseColorFactor":[1,1,1,1],"baseColorTexture":{"index":0,"texCoord":0},"metallicFactor":0.400000005960464,"roughnessFactor":0.229415729641914}},{"alphaMode":"OPAQUE","doubleSided":false,"extras":{"fromFBX":{"isTruePBR":false,"shadingModel":"Phong"}},"name":"Material.001","pbrMetallicRoughness":{"baseColorFactor":[0.800000071525574,0,0.00387099361978471,1],"metallicFactor":0.400000005960464,"roughnessFactor":0.272165536880493}}],"meshes":[{"name":"skyscraper_05","primitives":[{"attributes":{"NORMAL":2,"POSITION":1,"TEXCOORD_0":3},"indices":0,"material":0,"mode":4},{"attributes":{"NORMAL":6,"POSITION":5,"TEXCOORD_0":7},"indices":4,"material":1,"mode":4}]}],"nodes":[{"mesh":0,"name":"skyscraper_05","rotation":[0,0,0,1],"scale":[1,1,1],"translation":[605.976196289062,0,-49.1948852539062]}],"samplers":[{}],"scene":0,"scenes":[{"name":"Root Scene","nodes":[0]}],"textures":[{"name":"base_color_texture","sampler":0,"source":0}]}