{"accessors":[{"bufferView":0,"byteOffset":0,"componentType":5123,"count":5478,"type":"SCALAR"},{"bufferView":1,"byteOffset":0,"componentType":5126,"count":3513,"max":[19.2912464141846,12.7085313796997,12.8492879867554],"min":[-19.2912464141846,-0.89749664068222,-21.4589061737061],"type":"VEC3"},{"bufferView":2,"byteOffset":0,"componentType":5126,"count":3513,"type":"VEC3"},{"bufferView":3,"byteOffset":0,"componentType":5126,"count":3513,"type":"VEC2"},{"bufferView":4,"byteOffset":0,"componentType":5123,"count":2100,"type":"SCALAR"},{"bufferView":5,"byteOffset":0,"componentType":5126,"count":1144,"max":[1.13531816005707,0.129863977432251,7.58279848098755],"min":[-1.12378215789795,-1.01458048820496,-2.31404209136963],"type":"VEC3"},{"bufferView":6,"byteOffset":0,"componentType":5126,"count":1144,"type":"VEC3"},{"bufferView":7,"byteOffset":0,"componentType":5126,"count":1144,"type":"VEC2"}],"asset":{"generator":"FBX2glTF v0.13.1","version":"2.0"},"bufferViews":[{"buffer":0,"byteLength":10956,"byteOffset":0,"target":34963},{"buffer":0,"byteLength":42156,"byteOffset":10956,"target":34962},{"buffer":0,"byteLength":42156,"byteOffset":53112,"target":34962},{"buffer":0,"byteLength":28104,"byteOffset":95268,"target":34962},{"buffer":0,"byteLength":4200,"byteOffset":123372,"target":34963},{"buffer":0,"byteLength":13728,"byteOffset":127572,"target":34962},{"buffer":0,"byteLength":13728,"byteOffset":141300,"target":34962},{"buffer":0,"byteLength":9152,"byteOffset":155028,"target":34962}],"buffers":[{"byteLength":164180,"uri":"SM_airplane_01.bin"}],"images":[{"name":"Polygon_Camping_Texture_vol2.0","uri":"Polygon_Camping_Texture_vol2.0.jpg"}],"materials":[{"alphaMode":"OPAQUE","doubleSided":false,"extras":{"fromFBX":{"isTruePBR":false,"shadingModel":"Phong"}},"name":"Material","pbrMetallicRoughness":{"baseColorFactor":[1,1,1,1],"baseColorTexture":{"index":0,"texCoord":0},"metallicFactor":0.400000005960464,"roughnessFactor":0.229415729641914}}],"meshes":[{"name":"airplane_01","primitives":[{"attributes":{"NORMAL":2,"POSITION":1,"TEXCOORD_0":3},"indices":0,"material":0,"mode":4}]},{"name":"airplane_01.001","primitives":[{"attributes":{"NORMAL":6,"POSITION":5,"TEXCOORD_0":7},"indices":4,"material":0,"mode":4}]}],"nodes":[{"children":[1],"mesh":0,"name":"airplane_01","rotation":[0,0,0,1],"scale":[1.477747797966,1.477747797966,1.477747797966],"translation":[85.140251159668,1.49929404258728,-162.737030029297]},{"mesh":1,"name":"airplane_01.001","rotation":[0,0,0,1],"scale":[0.99999988079071,0.99999988079071,0.99999988079071],"translation":[-0.00000488281239,-0.00000022888183,0.00000976562478172127]}],"samplers":[{}],"scene":0,"scenes":[{"name":"Root Scene","nodes":[0]}],"textures":[{"name":"base_color_texture","sampler":0,"source":0}]}