{"accessors":[{"bufferView":0,"byteOffset":0,"componentType":5123,"count":12048,"type":"SCALAR"},{"bufferView":1,"byteOffset":0,"componentType":5126,"count":7338,"max":[15.0100069046021,8.17262649536133,10.9210290908813],"min":[-15.0100069046021,-0.20558898150921,-17.0478534698486],"type":"VEC3"},{"bufferView":2,"byteOffset":0,"componentType":5126,"count":7338,"type":"VEC3"},{"bufferView":3,"byteOffset":0,"componentType":5126,"count":7338,"type":"VEC2"},{"bufferView":4,"byteOffset":0,"componentType":5123,"count":756,"type":"SCALAR"},{"bufferView":5,"byteOffset":0,"componentType":5126,"count":496,"max":[14.0743598937988,7.25565052032471,4.32958602905273],"min":[-14.0743598937988,-0.00000001862645,-16.9987506866455],"type":"VEC3"},{"bufferView":6,"byteOffset":0,"componentType":5126,"count":496,"type":"VEC3"},{"bufferView":7,"byteOffset":0,"componentType":5126,"count":496,"type":"VEC2"}],"asset":{"generator":"FBX2glTF v0.13.1","version":"2.0"},"bufferViews":[{"buffer":0,"byteLength":24096,"byteOffset":0,"target":34963},{"buffer":0,"byteLength":88056,"byteOffset":24096,"target":34962},{"buffer":0,"byteLength":88056,"byteOffset":112152,"target":34962},{"buffer":0,"byteLength":58704,"byteOffset":200208,"target":34962},{"buffer":0,"byteLength":1512,"byteOffset":258912,"target":34963},{"buffer":0,"byteLength":5952,"byteOffset":260424,"target":34962},{"buffer":0,"byteLength":5952,"byteOffset":266376,"target":34962},{"buffer":0,"byteLength":3968,"byteOffset":272328,"target":34962}],"buffers":[{"byteLength":276296,"uri":"SM_airport_building_01.bin"}],"images":[{"name":"Polygon_Texture_vol2","uri":"Polygon_Texture_vol2.png"}],"materials":[{"alphaMode":"OPAQUE","doubleSided":false,"extras":{"fromFBX":{"isTruePBR":false,"shadingModel":"Phong"}},"name":"Material","pbrMetallicRoughness":{"baseColorFactor":[1,1,1,1],"baseColorTexture":{"index":0,"texCoord":0},"metallicFactor":0.400000005960464,"roughnessFactor":0.229415729641914}},{"alphaMode":"OPAQUE","doubleSided":false,"extras":{"fromFBX":{"isTruePBR":false,"shadingModel":"Phong"}},"name":"Material.001","pbrMetallicRoughness":{"baseColorFactor":[0.800000011920929,0.800000011920929,0.800000011920929,1],"metallicFactor":0.400000005960464,"roughnessFactor":0.272165536880493}}],"meshes":[{"name":"airport_building_01","primitives":[{"attributes":{"NORMAL":2,"POSITION":1,"TEXCOORD_0":3},"indices":0,"material":0,"mode":4},{"attributes":{"NORMAL":6,"POSITION":5,"TEXCOORD_0":7},"indices":4,"material":1,"mode":4}]}],"nodes":[{"mesh":0,"name":"airport_building_01","rotation":[0,0,0,1],"scale":[4.27482128143311,4.27482128143311,4.27482128143311],"translation":[93.5038070678711,0,-80.0222930908203]}],"samplers":[{}],"scene":0,"scenes":[{"name":"Root Scene","nodes":[0]}],"textures":[{"name":"base_color_texture","sampler":0,"source":0}]}