{"accessors":[{"bufferView":0,"byteOffset":0,"componentType":5123,"count":4152,"type":"SCALAR"},{"bufferView":1,"byteOffset":0,"componentType":5126,"count":2439,"max":[9.29111099243164,5.87731838226318,5.06626319885254],"min":[-7.33805322647095,0.000000357627868652344,-5.2888011932373],"type":"VEC3"},{"bufferView":2,"byteOffset":0,"componentType":5126,"count":2439,"type":"VEC3"},{"bufferView":3,"byteOffset":0,"componentType":5126,"count":2439,"type":"VEC2"},{"bufferView":4,"byteOffset":0,"componentType":5123,"count":174,"type":"SCALAR"},{"bufferView":5,"byteOffset":0,"componentType":5126,"count":116,"max":[8.98923397064209,4.79878568649292,0.907333552837372],"min":[-7.10046672821045,2.06845760345459,-1.75523316860199],"type":"VEC3"},{"bufferView":6,"byteOffset":0,"componentType":5126,"count":116,"type":"VEC3"},{"bufferView":7,"byteOffset":0,"componentType":5126,"count":116,"type":"VEC2"}],"asset":{"generator":"FBX2glTF v0.13.1","version":"2.0"},"bufferViews":[{"buffer":0,"byteLength":8304,"byteOffset":0,"target":34963},{"buffer":0,"byteLength":29268,"byteOffset":8304,"target":34962},{"buffer":0,"byteLength":29268,"byteOffset":37572,"target":34962},{"buffer":0,"byteLength":19512,"byteOffset":66840,"target":34962},{"buffer":0,"byteLength":348,"byteOffset":86352,"target":34963},{"buffer":0,"byteLength":1392,"byteOffset":86700,"target":34962},{"buffer":0,"byteLength":1392,"byteOffset":88092,"target":34962},{"buffer":0,"byteLength":928,"byteOffset":89484,"target":34962}],"buffers":[{"byteLength":90412,"uri":"SM_airport_building_02.bin"}],"images":[{"name":"Polygon_Texture_vol2","uri":"Polygon_Texture_vol2.png"}],"materials":[{"alphaMode":"OPAQUE","doubleSided":false,"extras":{"fromFBX":{"isTruePBR":false,"shadingModel":"Phong"}},"name":"Material","pbrMetallicRoughness":{"baseColorFactor":[1,1,1,1],"baseColorTexture":{"index":0,"texCoord":0},"metallicFactor":0.400000005960464,"roughnessFactor":0.229415729641914}},{"alphaMode":"OPAQUE","doubleSided":false,"extras":{"fromFBX":{"isTruePBR":false,"shadingModel":"Phong"}},"name":"Material.001","pbrMetallicRoughness":{"baseColorFactor":[0.800000011920929,0.800000011920929,0.800000011920929,1],"metallicFactor":0.400000005960464,"roughnessFactor":0.272165536880493}}],"meshes":[{"name":"airport_building_02","primitives":[{"attributes":{"NORMAL":2,"POSITION":1,"TEXCOORD_0":3},"indices":0,"material":0,"mode":4},{"attributes":{"NORMAL":6,"POSITION":5,"TEXCOORD_0":7},"indices":4,"material":1,"mode":4}]}],"nodes":[{"mesh":0,"name":"airport_building_02","rotation":[0,0,0,1],"scale":[1,1,1],"translation":[115.17830657959,0,-3.9526379108429]}],"samplers":[{}],"scene":0,"scenes":[{"name":"Root Scene","nodes":[0]}],"textures":[{"name":"base_color_texture","sampler":0,"source":0}]}