{"accessors":[{"bufferView":0,"byteOffset":0,"componentType":5123,"count":9216,"type":"SCALAR"},{"bufferView":1,"byteOffset":0,"componentType":5126,"count":5484,"max":[1.83665883541107,3.98289656639099,6.21963357925415],"min":[-1.83665823936462,0,-6.070472240448],"type":"VEC3"},{"bufferView":2,"byteOffset":0,"componentType":5126,"count":5484,"type":"VEC3"},{"bufferView":3,"byteOffset":0,"componentType":5126,"count":5484,"type":"VEC2"},{"bufferView":4,"byteOffset":0,"componentType":5123,"count":948,"type":"SCALAR"},{"bufferView":5,"byteOffset":0,"componentType":5126,"count":600,"max":[0.0694289207458496,0.795912384986877,0.795912027359009],"min":[-0.43210744857788,-0.79591244459152,-0.79591298103332],"type":"VEC3"},{"bufferView":6,"byteOffset":0,"componentType":5126,"count":600,"type":"VEC3"},{"bufferView":7,"byteOffset":0,"componentType":5126,"count":600,"type":"VEC2"},{"bufferView":8,"byteOffset":0,"componentType":5123,"count":948,"type":"SCALAR"},{"bufferView":9,"byteOffset":0,"componentType":5126,"count":604,"max":[0.432108372449875,0.795912444591522,0.795912444591522],"min":[-0.06942796707153,-0.79591244459152,-0.79591244459152],"type":"VEC3"},{"bufferView":10,"byteOffset":0,"componentType":5126,"count":604,"type":"VEC3"},{"bufferView":11,"byteOffset":0,"componentType":5126,"count":604,"type":"VEC2"},{"bufferView":12,"byteOffset":0,"componentType":5123,"count":948,"type":"SCALAR"},{"bufferView":13,"byteOffset":0,"componentType":5126,"count":604,"max":[0.0694279670715332,0.795912444591522,0.795912444591522],"min":[-0.43210837244987,-0.79591244459152,-0.79591244459152],"type":"VEC3"},{"bufferView":14,"byteOffset":0,"componentType":5126,"count":604,"type":"VEC3"},{"bufferView":15,"byteOffset":0,"componentType":5126,"count":604,"type":"VEC2"},{"bufferView":16,"byteOffset":0,"componentType":5123,"count":948,"type":"SCALAR"},{"bufferView":17,"byteOffset":0,"componentType":5126,"count":600,"max":[0.432108372449875,0.795912444591522,0.795912444591522],"min":[-0.06942796707153,-0.79591244459152,-0.79591244459152],"type":"VEC3"},{"bufferView":18,"byteOffset":0,"componentType":5126,"count":600,"type":"VEC3"},{"bufferView":19,"byteOffset":0,"componentType":5126,"count":600,"type":"VEC2"},{"bufferView":20,"byteOffset":0,"componentType":5123,"count":264,"type":"SCALAR"},{"bufferView":21,"byteOffset":0,"componentType":5126,"count":154,"max":[1.80699837207794,3.59695482254028,6.11910486221313],"min":[-1.80004906654358,0.110121488571167,-5.98265171051025],"type":"VEC3"},{"bufferView":22,"byteOffset":0,"componentType":5126,"count":154,"type":"VEC3"},{"bufferView":23,"byteOffset":0,"componentType":5126,"count":154,"type":"VEC2"}],"asset":{"generator":"FBX2glTF v0.13.1","version":"2.0"},"bufferViews":[{"buffer":0,"byteLength":18432,"byteOffset":0,"target":34963},{"buffer":0,"byteLength":65808,"byteOffset":18432,"target":34962},{"buffer":0,"byteLength":65808,"byteOffset":84240,"target":34962},{"buffer":0,"byteLength":43872,"byteOffset":150048,"target":34962},{"buffer":0,"byteLength":1896,"byteOffset":193920,"target":34963},{"buffer":0,"byteLength":7200,"byteOffset":195816,"target":34962},{"buffer":0,"byteLength":7200,"byteOffset":203016,"target":34962},{"buffer":0,"byteLength":4800,"byteOffset":210216,"target":34962},{"buffer":0,"byteLength":1896,"byteOffset":215016,"target":34963},{"buffer":0,"byteLength":7248,"byteOffset":216912,"target":34962},{"buffer":0,"byteLength":7248,"byteOffset":224160,"target":34962},{"buffer":0,"byteLength":4832,"byteOffset":231408,"target":34962},{"buffer":0,"byteLength":1896,"byteOffset":236240,"target":34963},{"buffer":0,"byteLength":7248,"byteOffset":238136,"target":34962},{"buffer":0,"byteLength":7248,"byteOffset":245384,"target":34962},{"buffer":0,"byteLength":4832,"byteOffset":252632,"target":34962},{"buffer":0,"byteLength":1896,"byteOffset":257464,"target":34963},{"buffer":0,"byteLength":7200,"byteOffset":259360,"target":34962},{"buffer":0,"byteLength":7200,"byteOffset":266560,"target":34962},{"buffer":0,"byteLength":4800,"byteOffset":273760,"target":34962},{"buffer":0,"byteLength":528,"byteOffset":278560,"target":34963},{"buffer":0,"byteLength":1848,"byteOffset":279088,"target":34962},{"buffer":0,"byteLength":1848,"byteOffset":280936,"target":34962},{"buffer":0,"byteLength":1232,"byteOffset":282784,"target":34962}],"buffers":[{"byteLength":284016,"uri":"SM_airport_bus_01.bin"}],"images":[{"name":"Polygon_Texture_vol2","uri":"Polygon_Texture_vol2.png"}],"materials":[{"alphaMode":"OPAQUE","doubleSided":false,"extras":{"fromFBX":{"isTruePBR":false,"shadingModel":"Phong"}},"name":"Material","pbrMetallicRoughness":{"baseColorFactor":[1,1,1,1],"baseColorTexture":{"index":0,"texCoord":0},"metallicFactor":0.400000005960464,"roughnessFactor":0.229415729641914}},{"alphaMode":"OPAQUE","doubleSided":false,"extras":{"fromFBX":{"isTruePBR":false,"shadingModel":"Phong"}},"name":"Material.001","pbrMetallicRoughness":{"baseColorFactor":[0.800000011920929,0.800000011920929,0.800000011920929,1],"metallicFactor":0.400000005960464,"roughnessFactor":0.272165536880493}}],"meshes":[{"name":"airport_bus_01","primitives":[{"attributes":{"NORMAL":2,"POSITION":1,"TEXCOORD_0":3},"indices":0,"material":0,"mode":4},{"attributes":{"NORMAL":22,"POSITION":21,"TEXCOORD_0":23},"indices":20,"material":1,"mode":4}]},{"name":"Cylinder","primitives":[{"attributes":{"NORMAL":6,"POSITION":5,"TEXCOORD_0":7},"indices":4,"material":0,"mode":4}]},{"name":"Cylinder.001","primitives":[{"attributes":{"NORMAL":10,"POSITION":9,"TEXCOORD_0":11},"indices":8,"material":0,"mode":4}]},{"name":"Cylinder.002","primitives":[{"attributes":{"NORMAL":14,"POSITION":13,"TEXCOORD_0":15},"indices":12,"material":0,"mode":4}]},{"name":"Cylinder.003","primitives":[{"attributes":{"NORMAL":18,"POSITION":17,"TEXCOORD_0":19},"indices":16,"material":0,"mode":4}]}],"nodes":[{"children":[1,2,3,4],"mesh":0,"name":"airport_bus_01","rotation":[0,0,0,1],"scale":[1,1,1],"translation":[93.6424942016602,0.316702097654343,-7.04664611816406]},{"mesh":1,"name":"Cylinder","rotation":[0,0,0,1],"scale":[1,1,1],"translation":[1.73703122138977,0.457947224378586,1.8019927740097]},{"mesh":2,"name":"Cylinder.001","rotation":[0,0,0,1],"scale":[1,1,1],"translation":[-1.73702144622803,0.457947224378586,1.80199158191681]},{"mesh":3,"name":"Cylinder.002","rotation":[0,0,0,1],"scale":[1,1,1],"translation":[1.73704099655151,0.457947224378586,-2.85868406295776]},{"mesh":4,"name":"Cylinder.003","rotation":[0,0,0,1],"scale":[1,1,1],"translation":[-1.73702144622803,0.457947224378586,-2.85868406295776]}],"samplers":[{}],"scene":0,"scenes":[{"name":"Root Scene","nodes":[0]}],"textures":[{"name":"base_color_texture","sampler":0,"source":0}]}