{"accessors":[{"bufferView":0,"byteOffset":0,"componentType":5123,"count":5592,"type":"SCALAR"},{"bufferView":1,"byteOffset":0,"componentType":5126,"count":3115,"max":[2.09426498413086,4.10848426818848,3.98483657836914],"min":[-2.09426498413086,0.402570724487305,-4.59102392196655],"type":"VEC3"},{"bufferView":2,"byteOffset":0,"componentType":5126,"count":3115,"type":"VEC3"},{"bufferView":3,"byteOffset":0,"componentType":5126,"count":3115,"type":"VEC2"},{"bufferView":4,"byteOffset":0,"componentType":5123,"count":780,"type":"SCALAR"},{"bufferView":5,"byteOffset":0,"componentType":5126,"count":448,"max":[0.0793739557266235,0.445424288511276,0.445424407720566],"min":[-0.19625860452652,-0.44542467594147,-0.44542428851128],"type":"VEC3"},{"bufferView":6,"byteOffset":0,"componentType":5126,"count":448,"type":"VEC3"},{"bufferView":7,"byteOffset":0,"componentType":5126,"count":448,"type":"VEC2"},{"bufferView":8,"byteOffset":0,"componentType":5123,"count":780,"type":"SCALAR"},{"bufferView":9,"byteOffset":0,"componentType":5126,"count":500,"max":[0.196258842945099,0.445424437522888,0.445424556732178],"min":[-0.07937371730804,-0.44542452692986,-0.44542407989502],"type":"VEC3"},{"bufferView":10,"byteOffset":0,"componentType":5126,"count":500,"type":"VEC3"},{"bufferView":11,"byteOffset":0,"componentType":5126,"count":500,"type":"VEC2"},{"bufferView":12,"byteOffset":0,"componentType":5123,"count":780,"type":"SCALAR"},{"bufferView":13,"byteOffset":0,"componentType":5126,"count":464,"max":[0.19625860452652,0.445424437522888,0.44542384147644],"min":[-0.07937395572662,-0.44542452692986,-0.44542491436005],"type":"VEC3"},{"bufferView":14,"byteOffset":0,"componentType":5126,"count":464,"type":"VEC3"},{"bufferView":15,"byteOffset":0,"componentType":5126,"count":464,"type":"VEC2"},{"bufferView":16,"byteOffset":0,"componentType":5123,"count":780,"type":"SCALAR"},{"bufferView":17,"byteOffset":0,"componentType":5126,"count":490,"max":[0.0793737173080444,0.445424437522888,0.445424556732178],"min":[-0.1962588429451,-0.44542452692986,-0.44542407989502],"type":"VEC3"},{"bufferView":18,"byteOffset":0,"componentType":5126,"count":490,"type":"VEC3"},{"bufferView":19,"byteOffset":0,"componentType":5126,"count":490,"type":"VEC2"},{"bufferView":20,"byteOffset":0,"componentType":5123,"count":24,"type":"SCALAR"},{"bufferView":21,"byteOffset":0,"componentType":5126,"count":14,"max":[1.12794864177704,2.47282218933105,3.8831901550293],"min":[-1.12794864177704,1.17140316963196,2.22735929489136],"type":"VEC3"},{"bufferView":22,"byteOffset":0,"componentType":5126,"count":14,"type":"VEC3"},{"bufferView":23,"byteOffset":0,"componentType":5126,"count":14,"type":"VEC2"}],"asset":{"generator":"FBX2glTF v0.13.1","version":"2.0"},"bufferViews":[{"buffer":0,"byteLength":11184,"byteOffset":0,"target":34963},{"buffer":0,"byteLength":37380,"byteOffset":11184,"target":34962},{"buffer":0,"byteLength":37380,"byteOffset":48564,"target":34962},{"buffer":0,"byteLength":24920,"byteOffset":85944,"target":34962},{"buffer":0,"byteLength":1560,"byteOffset":110864,"target":34963},{"buffer":0,"byteLength":5376,"byteOffset":112424,"target":34962},{"buffer":0,"byteLength":5376,"byteOffset":117800,"target":34962},{"buffer":0,"byteLength":3584,"byteOffset":123176,"target":34962},{"buffer":0,"byteLength":1560,"byteOffset":126760,"target":34963},{"buffer":0,"byteLength":6000,"byteOffset":128320,"target":34962},{"buffer":0,"byteLength":6000,"byteOffset":134320,"target":34962},{"buffer":0,"byteLength":4000,"byteOffset":140320,"target":34962},{"buffer":0,"byteLength":1560,"byteOffset":144320,"target":34963},{"buffer":0,"byteLength":5568,"byteOffset":145880,"target":34962},{"buffer":0,"byteLength":5568,"byteOffset":151448,"target":34962},{"buffer":0,"byteLength":3712,"byteOffset":157016,"target":34962},{"buffer":0,"byteLength":1560,"byteOffset":160728,"target":34963},{"buffer":0,"byteLength":5880,"byteOffset":162288,"target":34962},{"buffer":0,"byteLength":5880,"byteOffset":168168,"target":34962},{"buffer":0,"byteLength":3920,"byteOffset":174048,"target":34962},{"buffer":0,"byteLength":48,"byteOffset":177968,"target":34963},{"buffer":0,"byteLength":168,"byteOffset":178016,"target":34962},{"buffer":0,"byteLength":168,"byteOffset":178184,"target":34962},{"buffer":0,"byteLength":112,"byteOffset":178352,"target":34962}],"buffers":[{"byteLength":178464,"uri":"SM_boarding_ladder_01.bin"}],"images":[{"name":"Polygon_Texture_vol2","uri":"Polygon_Texture_vol2.png"}],"materials":[{"alphaMode":"OPAQUE","doubleSided":false,"extras":{"fromFBX":{"isTruePBR":false,"shadingModel":"Phong"}},"name":"Material","pbrMetallicRoughness":{"baseColorFactor":[1,1,1,1],"baseColorTexture":{"index":0,"texCoord":0},"metallicFactor":0.400000005960464,"roughnessFactor":0.229415729641914}},{"alphaMode":"OPAQUE","doubleSided":false,"extras":{"fromFBX":{"isTruePBR":false,"shadingModel":"Phong"}},"name":"Material.001","pbrMetallicRoughness":{"baseColorFactor":[0.800000011920929,0.800000011920929,0.800000011920929,1],"metallicFactor":0.400000005960464,"roughnessFactor":0.272165536880493}}],"meshes":[{"name":"boarding_ladder_01","primitives":[{"attributes":{"NORMAL":2,"POSITION":1,"TEXCOORD_0":3},"indices":0,"material":0,"mode":4},{"attributes":{"NORMAL":22,"POSITION":21,"TEXCOORD_0":23},"indices":20,"material":1,"mode":4}]},{"name":"boarding_ladder_01.001","primitives":[{"attributes":{"NORMAL":6,"POSITION":5,"TEXCOORD_0":7},"indices":4,"material":0,"mode":4}]},{"name":"boarding_ladder_01.002","primitives":[{"attributes":{"NORMAL":10,"POSITION":9,"TEXCOORD_0":11},"indices":8,"material":0,"mode":4}]},{"name":"boarding_ladder_01.003","primitives":[{"attributes":{"NORMAL":14,"POSITION":13,"TEXCOORD_0":15},"indices":12,"material":0,"mode":4}]},{"name":"boarding_ladder_01.004","primitives":[{"attributes":{"NORMAL":18,"POSITION":17,"TEXCOORD_0":19},"indices":16,"material":0,"mode":4}]}],"nodes":[{"children":[1,2,3,4],"mesh":0,"name":"boarding_ladder_01","rotation":[0,0,0,1],"scale":[1,1,1],"translation":[89.6617813110352,0,4.60395050048828]},{"mesh":1,"name":"boarding_ladder_01.001","rotation":[0,0,0,1],"scale":[1,1,1],"translation":[1.12854492664337,0.415587067604065,1.29792106151581]},{"mesh":2,"name":"boarding_ladder_01.002","rotation":[0,0,0,1],"scale":[1,1,1],"translation":[-1.12853515148163,0.415586918592453,-1.29791986942291]},{"mesh":3,"name":"boarding_ladder_01.003","rotation":[0,0,0,1],"scale":[1,1,1],"translation":[-1.12853515148163,0.415586918592453,1.29792177677155]},{"mesh":4,"name":"boarding_ladder_01.004","rotation":[0,0,0,1],"scale":[1,1,1],"translation":[1.12854492664337,0.415586918592453,-1.29791986942291]}],"samplers":[{}],"scene":0,"scenes":[{"name":"Root Scene","nodes":[0]}],"textures":[{"name":"base_color_texture","sampler":0,"source":0}]}