{"accessors":[{"bufferView":0,"byteOffset":0,"componentType":5123,"count":2211,"type":"SCALAR"},{"bufferView":1,"byteOffset":0,"componentType":5126,"count":1367,"max":[5.44021511077881,2.64857625961304,2.98196768760681],"min":[-5.44021511077881,0,-6.19421911239624],"type":"VEC3"},{"bufferView":2,"byteOffset":0,"componentType":5126,"count":1367,"type":"VEC3"},{"bufferView":3,"byteOffset":0,"componentType":5126,"count":1367,"type":"VEC2"},{"bufferView":4,"byteOffset":0,"componentType":5123,"count":252,"type":"SCALAR"},{"bufferView":5,"byteOffset":0,"componentType":5126,"count":150,"max":[0.418502271175385,0.378279209136963,0.00440037250518799],"min":[-0.23937296867371,-0.3745348751545,-0.00439977645874],"type":"VEC3"},{"bufferView":6,"byteOffset":0,"componentType":5126,"count":150,"type":"VEC3"},{"bufferView":7,"byteOffset":0,"componentType":5126,"count":150,"type":"VEC2"},{"bufferView":8,"byteOffset":0,"componentType":5123,"count":636,"type":"SCALAR"},{"bufferView":9,"byteOffset":0,"componentType":5126,"count":360,"max":[1.8480361700058,0.399587541818619,1.75522804260254],"min":[-1.8480361700058,-0.29580336809158,-0.35518252849579],"type":"VEC3"},{"bufferView":10,"byteOffset":0,"componentType":5126,"count":360,"type":"VEC3"},{"bufferView":11,"byteOffset":0,"componentType":5126,"count":360,"type":"VEC2"},{"bufferView":12,"byteOffset":0,"componentType":5123,"count":144,"type":"SCALAR"},{"bufferView":13,"byteOffset":0,"componentType":5126,"count":100,"max":[0.480547487735748,2.07516193389893,1.07173216342926],"min":[-0.48054748773575,1.42972135543823,-1.71124541759491],"type":"VEC3"},{"bufferView":14,"byteOffset":0,"componentType":5126,"count":100,"type":"VEC3"},{"bufferView":15,"byteOffset":0,"componentType":5126,"count":100,"type":"VEC2"}],"asset":{"generator":"FBX2glTF v0.13.1","version":"2.0"},"bufferViews":[{"buffer":0,"byteLength":4422,"byteOffset":0,"target":34963},{"buffer":0,"byteLength":16404,"byteOffset":4424,"target":34962},{"buffer":0,"byteLength":16404,"byteOffset":20828,"target":34962},{"buffer":0,"byteLength":10936,"byteOffset":37232,"target":34962},{"buffer":0,"byteLength":504,"byteOffset":48168,"target":34963},{"buffer":0,"byteLength":1800,"byteOffset":48672,"target":34962},{"buffer":0,"byteLength":1800,"byteOffset":50472,"target":34962},{"buffer":0,"byteLength":1200,"byteOffset":52272,"target":34962},{"buffer":0,"byteLength":1272,"byteOffset":53472,"target":34963},{"buffer":0,"byteLength":4320,"byteOffset":54744,"target":34962},{"buffer":0,"byteLength":4320,"byteOffset":59064,"target":34962},{"buffer":0,"byteLength":2880,"byteOffset":63384,"target":34962},{"buffer":0,"byteLength":288,"byteOffset":66264,"target":34963},{"buffer":0,"byteLength":1200,"byteOffset":66552,"target":34962},{"buffer":0,"byteLength":1200,"byteOffset":67752,"target":34962},{"buffer":0,"byteLength":800,"byteOffset":68952,"target":34962}],"buffers":[{"byteLength":69752,"uri":"SM_biplane_01.bin"}],"images":[{"name":"Polygon_Texture_vol2","uri":"Polygon_Texture_vol2.png"}],"materials":[{"alphaMode":"OPAQUE","doubleSided":false,"extras":{"fromFBX":{"isTruePBR":false,"shadingModel":"Phong"}},"name":"Material","pbrMetallicRoughness":{"baseColorFactor":[1,1,1,1],"baseColorTexture":{"index":0,"texCoord":0},"metallicFactor":0.400000005960464,"roughnessFactor":0.229415729641914}},{"alphaMode":"OPAQUE","doubleSided":false,"extras":{"fromFBX":{"isTruePBR":false,"shadingModel":"Phong"}},"name":"Material.001","pbrMetallicRoughness":{"baseColorFactor":[0.800000011920929,0.800000011920929,0.800000011920929,1],"metallicFactor":0.400000005960464,"roughnessFactor":0.272165536880493}}],"meshes":[{"name":"biplane_01","primitives":[{"attributes":{"NORMAL":2,"POSITION":1,"TEXCOORD_0":3},"indices":0,"material":0,"mode":4},{"attributes":{"NORMAL":14,"POSITION":13,"TEXCOORD_0":15},"indices":12,"material":1,"mode":4}]},{"name":"biplane.001","primitives":[{"attributes":{"NORMAL":6,"POSITION":5,"TEXCOORD_0":7},"indices":4,"material":0,"mode":4}]},{"name":"biplane_01.001","primitives":[{"attributes":{"NORMAL":10,"POSITION":9,"TEXCOORD_0":11},"indices":8,"material":0,"mode":4}]}],"nodes":[{"children":[1,2],"mesh":0,"name":"biplane_01","rotation":[0,0,0,1],"scale":[1,1,1],"translation":[141.0986328125,0,0.390567004680634]},{"mesh":1,"name":"biplane.001","rotation":[0,0,0,1],"scale":[3.06383013725281,3.06383013725281,3.06383013725281],"translation":[0.00430664047598839,0.690476357936859,2.57098293304443]},{"mesh":2,"name":"biplane_01.001","rotation":[0,0,0,1],"scale":[1,1,1],"translation":[0,0,0]}],"samplers":[{}],"scene":0,"scenes":[{"name":"Root Scene","nodes":[0]}],"textures":[{"name":"base_color_texture","sampler":0,"source":0}]}