{"accessors":[{"bufferView":0,"byteOffset":0,"componentType":5123,"count":3534,"type":"SCALAR"},{"bufferView":1,"byteOffset":0,"componentType":5126,"count":2066,"max":[2.99999833106995,6.6427640914917,4.73088264465332],"min":[-3.00000214576721,0,-3.2691171169281],"type":"VEC3"},{"bufferView":2,"byteOffset":0,"componentType":5126,"count":2066,"type":"VEC3"},{"bufferView":3,"byteOffset":0,"componentType":5126,"count":2066,"type":"VEC2"},{"bufferView":4,"byteOffset":0,"componentType":5123,"count":78,"type":"SCALAR"},{"bufferView":5,"byteOffset":0,"componentType":5126,"count":52,"max":[1.83836650848389,6.01897859573364,2.03498530387878],"min":[-1.83837032318115,5.0209321975708,-2.00328016281128],"type":"VEC3"},{"bufferView":6,"byteOffset":0,"componentType":5126,"count":52,"type":"VEC3"},{"bufferView":7,"byteOffset":0,"componentType":5126,"count":52,"type":"VEC2"}],"asset":{"generator":"FBX2glTF v0.13.1","version":"2.0"},"bufferViews":[{"buffer":0,"byteLength":7068,"byteOffset":0,"target":34963},{"buffer":0,"byteLength":24792,"byteOffset":7068,"target":34962},{"buffer":0,"byteLength":24792,"byteOffset":31860,"target":34962},{"buffer":0,"byteLength":16528,"byteOffset":56652,"target":34962},{"buffer":0,"byteLength":156,"byteOffset":73180,"target":34963},{"buffer":0,"byteLength":624,"byteOffset":73336,"target":34962},{"buffer":0,"byteLength":624,"byteOffset":73960,"target":34962},{"buffer":0,"byteLength":416,"byteOffset":74584,"target":34962}],"buffers":[{"byteLength":75000,"uri":"SM_control_tower_02.bin"}],"images":[{"name":"Polygon_Texture_vol2","uri":"Polygon_Texture_vol2.png"}],"materials":[{"alphaMode":"OPAQUE","doubleSided":false,"extras":{"fromFBX":{"isTruePBR":false,"shadingModel":"Phong"}},"name":"Material","pbrMetallicRoughness":{"baseColorFactor":[1,1,1,1],"baseColorTexture":{"index":0,"texCoord":0},"metallicFactor":0.400000005960464,"roughnessFactor":0.229415729641914}},{"alphaMode":"OPAQUE","doubleSided":false,"extras":{"fromFBX":{"isTruePBR":false,"shadingModel":"Phong"}},"name":"Material.001","pbrMetallicRoughness":{"baseColorFactor":[0.800000011920929,0.800000011920929,0.800000011920929,1],"metallicFactor":0.400000005960464,"roughnessFactor":0.272165536880493}}],"meshes":[{"name":"control_tower_02","primitives":[{"attributes":{"NORMAL":2,"POSITION":1,"TEXCOORD_0":3},"indices":0,"material":0,"mode":4},{"attributes":{"NORMAL":6,"POSITION":5,"TEXCOORD_0":7},"indices":4,"material":1,"mode":4}]}],"nodes":[{"mesh":0,"name":"control_tower_02","rotation":[0,0,0,1],"scale":[1,1,1],"translation":[131.938461303711,-0.01080417633057,-0.00000008940697]}],"samplers":[{}],"scene":0,"scenes":[{"name":"Root Scene","nodes":[0]}],"textures":[{"name":"base_color_texture","sampler":0,"source":0}]}