{"accessors":[{"bufferView":0,"byteOffset":0,"componentType":5123,"count":5496,"type":"SCALAR"},{"bufferView":1,"byteOffset":0,"componentType":5126,"count":3470,"max":[3.80640745162964,23.6042919158936,3.8064079284668],"min":[-3.80640840530396,0,-3.8064079284668],"type":"VEC3"},{"bufferView":2,"byteOffset":0,"componentType":5126,"count":3470,"type":"VEC3"},{"bufferView":3,"byteOffset":0,"componentType":5126,"count":3470,"type":"VEC2"},{"bufferView":4,"byteOffset":0,"componentType":5123,"count":522,"type":"SCALAR"},{"bufferView":5,"byteOffset":0,"componentType":5126,"count":348,"max":[3.61365008354187,22.8139743804932,3.61365032196045],"min":[-3.61365103721619,2.52596926689148,-3.61365032196045],"type":"VEC3"},{"bufferView":6,"byteOffset":0,"componentType":5126,"count":348,"type":"VEC3"},{"bufferView":7,"byteOffset":0,"componentType":5126,"count":348,"type":"VEC2"}],"asset":{"generator":"FBX2glTF v0.13.1","version":"2.0"},"bufferViews":[{"buffer":0,"byteLength":10992,"byteOffset":0,"target":34963},{"buffer":0,"byteLength":41640,"byteOffset":10992,"target":34962},{"buffer":0,"byteLength":41640,"byteOffset":52632,"target":34962},{"buffer":0,"byteLength":27760,"byteOffset":94272,"target":34962},{"buffer":0,"byteLength":1044,"byteOffset":122032,"target":34963},{"buffer":0,"byteLength":4176,"byteOffset":123076,"target":34962},{"buffer":0,"byteLength":4176,"byteOffset":127252,"target":34962},{"buffer":0,"byteLength":2784,"byteOffset":131428,"target":34962}],"buffers":[{"byteLength":134212,"uri":"SM_control_tower_01.bin"}],"images":[{"name":"Polygon_Texture_vol2","uri":"Polygon_Texture_vol2.png"}],"materials":[{"alphaMode":"OPAQUE","doubleSided":false,"extras":{"fromFBX":{"isTruePBR":false,"shadingModel":"Phong"}},"name":"Material","pbrMetallicRoughness":{"baseColorFactor":[1,1,1,1],"baseColorTexture":{"index":0,"texCoord":0},"metallicFactor":0.400000005960464,"roughnessFactor":0.229415729641914}},{"alphaMode":"OPAQUE","doubleSided":false,"extras":{"fromFBX":{"isTruePBR":false,"shadingModel":"Phong"}},"name":"Material.001","pbrMetallicRoughness":{"baseColorFactor":[0.800000011920929,0.800000011920929,0.800000011920929,1],"metallicFactor":0.400000005960464,"roughnessFactor":0.272165536880493}}],"meshes":[{"name":"control_tower_01","primitives":[{"attributes":{"NORMAL":2,"POSITION":1,"TEXCOORD_0":3},"indices":0,"material":0,"mode":4},{"attributes":{"NORMAL":6,"POSITION":5,"TEXCOORD_0":7},"indices":4,"material":1,"mode":4}]}],"nodes":[{"mesh":0,"name":"control_tower_01","rotation":[0,0,0,1],"scale":[3.7005558013916,3.7005558013916,3.7005558013916],"translation":[175.484893798828,0,-102.101524353027]}],"samplers":[{}],"scene":0,"scenes":[{"name":"Root Scene","nodes":[0]}],"textures":[{"name":"base_color_texture","sampler":0,"source":0}]}