{"accessors":[{"bufferView":0,"byteOffset":0,"componentType":5123,"count":3132,"type":"SCALAR"},{"bufferView":1,"byteOffset":0,"componentType":5126,"count":1891,"max":[16.509204864502,9.26777744293213,15.948052406311],"min":[-16.4751396179199,0,-15.948052406311],"type":"VEC3"},{"bufferView":2,"byteOffset":0,"componentType":5126,"count":1891,"type":"VEC3"},{"bufferView":3,"byteOffset":0,"componentType":5126,"count":1891,"type":"VEC2"},{"bufferView":4,"byteOffset":0,"componentType":5123,"count":288,"type":"SCALAR"},{"bufferView":5,"byteOffset":0,"componentType":5126,"count":192,"max":[15.9632453918457,4.35728883743286,13.3129539489746],"min":[-15.9632453918457,3.24543046951294,-13.3129539489746],"type":"VEC3"},{"bufferView":6,"byteOffset":0,"componentType":5126,"count":192,"type":"VEC3"},{"bufferView":7,"byteOffset":0,"componentType":5126,"count":192,"type":"VEC2"}],"asset":{"generator":"FBX2glTF v0.13.1","version":"2.0"},"bufferViews":[{"buffer":0,"byteLength":6264,"byteOffset":0,"target":34963},{"buffer":0,"byteLength":22692,"byteOffset":6264,"target":34962},{"buffer":0,"byteLength":22692,"byteOffset":28956,"target":34962},{"buffer":0,"byteLength":15128,"byteOffset":51648,"target":34962},{"buffer":0,"byteLength":576,"byteOffset":66776,"target":34963},{"buffer":0,"byteLength":2304,"byteOffset":67352,"target":34962},{"buffer":0,"byteLength":2304,"byteOffset":69656,"target":34962},{"buffer":0,"byteLength":1536,"byteOffset":71960,"target":34962}],"buffers":[{"byteLength":73496,"uri":"SM_hangar_01.bin"}],"images":[{"name":"Polygon_Texture_vol2","uri":"Polygon_Texture_vol2.png"}],"materials":[{"alphaMode":"OPAQUE","doubleSided":false,"extras":{"fromFBX":{"isTruePBR":false,"shadingModel":"Phong"}},"name":"Material","pbrMetallicRoughness":{"baseColorFactor":[1,1,1,1],"baseColorTexture":{"index":0,"texCoord":0},"metallicFactor":0.400000005960464,"roughnessFactor":0.229415729641914}},{"alphaMode":"OPAQUE","doubleSided":false,"extras":{"fromFBX":{"isTruePBR":false,"shadingModel":"Phong"}},"name":"Material.001","pbrMetallicRoughness":{"baseColorFactor":[0.800000011920929,0.800000011920929,0.800000011920929,1],"metallicFactor":0.400000005960464,"roughnessFactor":0.272165536880493}}],"meshes":[{"name":"hangar_01","primitives":[{"attributes":{"NORMAL":2,"POSITION":1,"TEXCOORD_0":3},"indices":0,"material":0,"mode":4},{"attributes":{"NORMAL":6,"POSITION":5,"TEXCOORD_0":7},"indices":4,"material":1,"mode":4}]}],"nodes":[{"mesh":0,"name":"hangar_01","rotation":[0,0,0,1],"scale":[1,1,1],"translation":[66.3558578491211,0,0]}],"samplers":[{}],"scene":0,"scenes":[{"name":"Root Scene","nodes":[0]}],"textures":[{"name":"base_color_texture","sampler":0,"source":0}]}