{"accessors":[{"bufferView":0,"byteOffset":0,"componentType":5123,"count":3141,"type":"SCALAR"},{"bufferView":1,"byteOffset":0,"componentType":5126,"count":1974,"max":[0.971834480762482,2.93414688110352,2.08009099960327],"min":[-0.97184354066849,-0.00000011920929,-7.94947576522827],"type":"VEC3"},{"bufferView":2,"byteOffset":0,"componentType":5126,"count":1974,"type":"VEC3"},{"bufferView":3,"byteOffset":0,"componentType":5126,"count":1974,"type":"VEC2"},{"bufferView":4,"byteOffset":0,"componentType":5123,"count":372,"type":"SCALAR"},{"bufferView":5,"byteOffset":0,"componentType":5126,"count":240,"max":[1.38834619522095,0.0120906829833984,1.38834571838379],"min":[-1.38834607601166,-0.03027540445328,-1.38834595680237],"type":"VEC3"},{"bufferView":6,"byteOffset":0,"componentType":5126,"count":240,"type":"VEC3"},{"bufferView":7,"byteOffset":0,"componentType":5126,"count":240,"type":"VEC2"},{"bufferView":8,"byteOffset":0,"componentType":5123,"count":420,"type":"SCALAR"},{"bufferView":9,"byteOffset":0,"componentType":5126,"count":264,"max":[0.0125951822847128,0.192463293671608,0.192463502287865],"min":[-0.01259518135339,-0.19246315956116,-0.19246314466],"type":"VEC3"},{"bufferView":10,"byteOffset":0,"componentType":5126,"count":264,"type":"VEC3"},{"bufferView":11,"byteOffset":0,"componentType":5126,"count":264,"type":"VEC2"},{"bufferView":12,"byteOffset":0,"componentType":5123,"count":174,"type":"SCALAR"},{"bufferView":13,"byteOffset":0,"componentType":5126,"count":118,"max":[0.946062743663788,2.4876856803894,1.91555917263031],"min":[-0.94607174396515,1.00902771949768,-0.90614902973175],"type":"VEC3"},{"bufferView":14,"byteOffset":0,"componentType":5126,"count":118,"type":"VEC3"},{"bufferView":15,"byteOffset":0,"componentType":5126,"count":118,"type":"VEC2"}],"asset":{"generator":"FBX2glTF v0.13.1","version":"2.0"},"bufferViews":[{"buffer":0,"byteLength":6282,"byteOffset":0,"target":34963},{"buffer":0,"byteLength":23688,"byteOffset":6284,"target":34962},{"buffer":0,"byteLength":23688,"byteOffset":29972,"target":34962},{"buffer":0,"byteLength":15792,"byteOffset":53660,"target":34962},{"buffer":0,"byteLength":744,"byteOffset":69452,"target":34963},{"buffer":0,"byteLength":2880,"byteOffset":70196,"target":34962},{"buffer":0,"byteLength":2880,"byteOffset":73076,"target":34962},{"buffer":0,"byteLength":1920,"byteOffset":75956,"target":34962},{"buffer":0,"byteLength":840,"byteOffset":77876,"target":34963},{"buffer":0,"byteLength":3168,"byteOffset":78716,"target":34962},{"buffer":0,"byteLength":3168,"byteOffset":81884,"target":34962},{"buffer":0,"byteLength":2112,"byteOffset":85052,"target":34962},{"buffer":0,"byteLength":348,"byteOffset":87164,"target":34963},{"buffer":0,"byteLength":1416,"byteOffset":87512,"target":34962},{"buffer":0,"byteLength":1416,"byteOffset":88928,"target":34962},{"buffer":0,"byteLength":944,"byteOffset":90344,"target":34962}],"buffers":[{"byteLength":91288,"uri":"SM_helicopter_01.bin"}],"images":[{"name":"Polygon_Texture_vol2","uri":"Polygon_Texture_vol2.png"}],"materials":[{"alphaMode":"OPAQUE","doubleSided":false,"extras":{"fromFBX":{"isTruePBR":false,"shadingModel":"Phong"}},"name":"Material","pbrMetallicRoughness":{"baseColorFactor":[1,1,1,1],"baseColorTexture":{"index":0,"texCoord":0},"metallicFactor":0.400000005960464,"roughnessFactor":0.229415729641914}},{"alphaMode":"OPAQUE","doubleSided":false,"extras":{"fromFBX":{"isTruePBR":false,"shadingModel":"Phong"}},"name":"Material.001","pbrMetallicRoughness":{"baseColorFactor":[0.800000011920929,0.800000011920929,0.800000011920929,1],"metallicFactor":0.400000005960464,"roughnessFactor":0.272165536880493}}],"meshes":[{"name":"helicopter_01","primitives":[{"attributes":{"NORMAL":2,"POSITION":1,"TEXCOORD_0":3},"indices":0,"material":0,"mode":4},{"attributes":{"NORMAL":14,"POSITION":13,"TEXCOORD_0":15},"indices":12,"material":1,"mode":4}]},{"name":"Sphere.002","primitives":[{"attributes":{"NORMAL":6,"POSITION":5,"TEXCOORD_0":7},"indices":4,"material":0,"mode":4}]},{"name":"Sphere.003","primitives":[{"attributes":{"NORMAL":10,"POSITION":9,"TEXCOORD_0":11},"indices":8,"material":0,"mode":4}]}],"nodes":[{"children":[1,2],"mesh":0,"name":"helicopter_01","rotation":[0,0,0,1],"scale":[1,1,1],"translation":[151.861709594727,0,0.577760756015778]},{"mesh":1,"name":"Sphere.002","rotation":[0,0,0,1],"scale":[3.15529036521912,3.15529036521912,3.15529036521912],"translation":[0.00000976562478172127,2.875084400177,-0.66410142183304]},{"mesh":2,"name":"Sphere.003","rotation":[0,0,0,1],"scale":[3.15529036521912,3.15529036521912,3.15529036521912],"translation":[0.00106445315759629,1.76305794715881,-6.80657148361206]}],"samplers":[{}],"scene":0,"scenes":[{"name":"Root Scene","nodes":[0]}],"textures":[{"name":"base_color_texture","sampler":0,"source":0}]}