{"accessors":[{"bufferView":0,"byteOffset":0,"componentType":5123,"count":2700,"type":"SCALAR"},{"bufferView":1,"byteOffset":0,"componentType":5126,"count":1653,"max":[29.6675720214844,41.8204383850098,-174.587326049805],"min":[-52.7194976806641,0,-241.759994506836],"type":"VEC3"},{"bufferView":2,"byteOffset":0,"componentType":5126,"count":1653,"type":"VEC3"},{"bufferView":3,"byteOffset":0,"componentType":5126,"count":1653,"type":"VEC2"},{"bufferView":4,"byteOffset":0,"componentType":5123,"count":276,"type":"SCALAR"},{"bufferView":5,"byteOffset":0,"componentType":5126,"count":196,"max":[27.195255279541,39.2603874206543,-176.001480102539],"min":[-50.2471809387207,21.4750747680664,-240.345840454102],"type":"VEC3"},{"bufferView":6,"byteOffset":0,"componentType":5126,"count":196,"type":"VEC3"},{"bufferView":7,"byteOffset":0,"componentType":5126,"count":196,"type":"VEC2"}],"asset":{"generator":"FBX2glTF v0.13.1","version":"2.0"},"bufferViews":[{"buffer":0,"byteLength":5400,"byteOffset":0,"target":34963},{"buffer":0,"byteLength":19836,"byteOffset":5400,"target":34962},{"buffer":0,"byteLength":19836,"byteOffset":25236,"target":34962},{"buffer":0,"byteLength":13224,"byteOffset":45072,"target":34962},{"buffer":0,"byteLength":552,"byteOffset":58296,"target":34963},{"buffer":0,"byteLength":2352,"byteOffset":58848,"target":34962},{"buffer":0,"byteLength":2352,"byteOffset":61200,"target":34962},{"buffer":0,"byteLength":1568,"byteOffset":63552,"target":34962}],"buffers":[{"byteLength":65120,"uri":"SM_Hangar_02.bin"}],"images":[{"name":"Polygon_Texture_vol2","uri":"Polygon_Texture_vol2.png"}],"materials":[{"alphaMode":"OPAQUE","doubleSided":false,"extras":{"fromFBX":{"isTruePBR":false,"shadingModel":"Phong"}},"name":"Material","pbrMetallicRoughness":{"baseColorFactor":[1,1,1,1],"baseColorTexture":{"index":0,"texCoord":0},"metallicFactor":0.400000005960464,"roughnessFactor":0.229415729641914}},{"alphaMode":"OPAQUE","doubleSided":false,"extras":{"fromFBX":{"isTruePBR":false,"shadingModel":"Phong"}},"name":"Material.001","pbrMetallicRoughness":{"baseColorFactor":[0.800000011920929,0.800000011920929,0.800000011920929,1],"metallicFactor":0.400000005960464,"roughnessFactor":0.272165536880493}}],"meshes":[{"name":"Hangar_02","primitives":[{"attributes":{"NORMAL":2,"POSITION":1,"TEXCOORD_0":3},"indices":0,"material":0,"mode":4},{"attributes":{"NORMAL":6,"POSITION":5,"TEXCOORD_0":7},"indices":4,"material":1,"mode":4}]}],"nodes":[{"mesh":0,"name":"Hangar_02","rotation":[0,0,0,1],"scale":[1,1,1],"translation":[0,0,214.751358032227]}],"samplers":[{}],"scene":0,"scenes":[{"name":"Root Scene","nodes":[0]}],"textures":[{"name":"base_color_texture","sampler":0,"source":0}]}