{"accessors":[{"bufferView":0,"byteOffset":0,"componentType":5123,"count":438,"type":"SCALAR"},{"bufferView":1,"byteOffset":0,"componentType":5126,"count":256,"max":[6.28221559524536,0.304581582546234,6.28221607208252],"min":[-6.28221559524536,0,-6.28221559524536],"type":"VEC3"},{"bufferView":2,"byteOffset":0,"componentType":5126,"count":256,"type":"VEC3"},{"bufferView":3,"byteOffset":0,"componentType":5126,"count":256,"type":"VEC2"},{"bufferView":4,"byteOffset":0,"componentType":5123,"count":312,"type":"SCALAR"},{"bufferView":5,"byteOffset":0,"componentType":5126,"count":192,"max":[6.03615236282349,0.434254825115204,6.01092147827148],"min":[-6.03618288040161,0.304581582546234,-6.01092147827148],"type":"VEC3"},{"bufferView":6,"byteOffset":0,"componentType":5126,"count":192,"type":"VEC3"},{"bufferView":7,"byteOffset":0,"componentType":5126,"count":192,"type":"VEC2"}],"asset":{"generator":"FBX2glTF v0.13.1","version":"2.0"},"bufferViews":[{"buffer":0,"byteLength":876,"byteOffset":0,"target":34963},{"buffer":0,"byteLength":3072,"byteOffset":876,"target":34962},{"buffer":0,"byteLength":3072,"byteOffset":3948,"target":34962},{"buffer":0,"byteLength":2048,"byteOffset":7020,"target":34962},{"buffer":0,"byteLength":624,"byteOffset":9068,"target":34963},{"buffer":0,"byteLength":2304,"byteOffset":9692,"target":34962},{"buffer":0,"byteLength":2304,"byteOffset":11996,"target":34962},{"buffer":0,"byteLength":1536,"byteOffset":14300,"target":34962}],"buffers":[{"byteLength":15836,"uri":"SM_helicopter_place.bin"}],"images":[{"name":"Polygon_Texture_vol2","uri":"Polygon_Texture_vol2.png"}],"materials":[{"alphaMode":"OPAQUE","doubleSided":false,"extras":{"fromFBX":{"isTruePBR":false,"shadingModel":"Phong"}},"name":"Material","pbrMetallicRoughness":{"baseColorFactor":[1,1,1,1],"baseColorTexture":{"index":0,"texCoord":0},"metallicFactor":0.400000005960464,"roughnessFactor":0.229415729641914}},{"alphaMode":"OPAQUE","doubleSided":false,"extras":{"fromFBX":{"isTruePBR":false,"shadingModel":"Phong"}},"name":"Material.001","pbrMetallicRoughness":{"baseColorFactor":[0.800000011920929,0.800000011920929,0.800000011920929,1],"metallicFactor":0.400000005960464,"roughnessFactor":0.272165536880493}}],"meshes":[{"name":"helicopter_place","primitives":[{"attributes":{"NORMAL":2,"POSITION":1,"TEXCOORD_0":3},"indices":0,"material":0,"mode":4},{"attributes":{"NORMAL":6,"POSITION":5,"TEXCOORD_0":7},"indices":4,"material":1,"mode":4}]}],"nodes":[{"mesh":0,"name":"helicopter_place","rotation":[0,0,0,1],"scale":[1,1,1],"translation":[151.861709594727,-0.09999999403954,11.1405811309814]}],"samplers":[{}],"scene":0,"scenes":[{"name":"Root Scene","nodes":[0]}],"textures":[{"name":"base_color_texture","sampler":0,"source":0}]}