{"accessors":[{"bufferView":0,"byteOffset":0,"componentType":5123,"count":732,"type":"SCALAR"},{"bufferView":1,"byteOffset":0,"componentType":5126,"count":408,"max":[2.2051990032196,3.20043420791626,0.0424995981156826],"min":[1.30245554447174,0,-0.04249959811568],"type":"VEC3"},{"bufferView":2,"byteOffset":0,"componentType":5126,"count":408,"type":"VEC3"},{"bufferView":3,"byteOffset":0,"componentType":5126,"count":408,"type":"VEC2"}],"asset":{"generator":"FBX2glTF v0.13.1","version":"2.0"},"bufferViews":[{"buffer":0,"byteLength":1464,"byteOffset":0,"target":34963},{"buffer":0,"byteLength":4896,"byteOffset":1464,"target":34962},{"buffer":0,"byteLength":4896,"byteOffset":6360,"target":34962},{"buffer":0,"byteLength":3264,"byteOffset":11256,"target":34962}],"buffers":[{"byteLength":14520,"uri":"SM_Light_04.bin"}],"images":[{"name":"Polygon_Texture_vol2","uri":"Polygon_Texture_vol2.png"}],"materials":[{"alphaMode":"OPAQUE","doubleSided":false,"extras":{"fromFBX":{"isTruePBR":false,"shadingModel":"Phong"}},"name":"Material","pbrMetallicRoughness":{"baseColorFactor":[1,1,1,1],"baseColorTexture":{"index":0,"texCoord":0},"metallicFactor":0.400000005960464,"roughnessFactor":0.229415729641914}}],"meshes":[{"name":"Light_04","primitives":[{"attributes":{"NORMAL":2,"POSITION":1,"TEXCOORD_0":3},"indices":0,"material":0,"mode":4}]}],"nodes":[{"mesh":0,"name":"Light_04","rotation":[0,0,0,1],"scale":[1,1,1],"translation":[218.155166625977,0,0.00184309482574463]}],"samplers":[{}],"scene":0,"scenes":[{"name":"Root Scene","nodes":[0]}],"textures":[{"name":"base_color_texture","sampler":0,"source":0}]}