{"accessors":[{"bufferView":0,"byteOffset":0,"componentType":5123,"count":222,"type":"SCALAR"},{"bufferView":1,"byteOffset":0,"componentType":5126,"count":136,"max":[0.217178344726562,0.70588743686676,0.217171296477318],"min":[-0.2171630859375,0,-0.21717129647732],"type":"VEC3"},{"bufferView":2,"byteOffset":0,"componentType":5126,"count":136,"type":"VEC3"},{"bufferView":3,"byteOffset":0,"componentType":5126,"count":136,"type":"VEC2"},{"bufferView":4,"byteOffset":0,"componentType":5123,"count":48,"type":"SCALAR"},{"bufferView":5,"byteOffset":0,"componentType":5126,"count":32,"max":[0.0794219970703125,0.682560324668884,0.0794179663062096],"min":[-0.07940673828125,0.45017221570015,-0.07941797375679],"type":"VEC3"},{"bufferView":6,"byteOffset":0,"componentType":5126,"count":32,"type":"VEC3"},{"bufferView":7,"byteOffset":0,"componentType":5126,"count":32,"type":"VEC2"}],"asset":{"generator":"FBX2glTF v0.13.1","version":"2.0"},"bufferViews":[{"buffer":0,"byteLength":444,"byteOffset":0,"target":34963},{"buffer":0,"byteLength":1632,"byteOffset":444,"target":34962},{"buffer":0,"byteLength":1632,"byteOffset":2076,"target":34962},{"buffer":0,"byteLength":1088,"byteOffset":3708,"target":34962},{"buffer":0,"byteLength":96,"byteOffset":4796,"target":34963},{"buffer":0,"byteLength":384,"byteOffset":4892,"target":34962},{"buffer":0,"byteLength":384,"byteOffset":5276,"target":34962},{"buffer":0,"byteLength":256,"byteOffset":5660,"target":34962}],"buffers":[{"byteLength":5916,"uri":"SM_Light_01.bin"}],"images":[{"name":"Polygon_Texture_vol2","uri":"Polygon_Texture_vol2.png"}],"materials":[{"alphaMode":"OPAQUE","doubleSided":false,"extras":{"fromFBX":{"isTruePBR":false,"shadingModel":"Phong"}},"name":"Material","pbrMetallicRoughness":{"baseColorFactor":[1,1,1,1],"baseColorTexture":{"index":0,"texCoord":0},"metallicFactor":0.400000005960464,"roughnessFactor":0.229415729641914}},{"alphaMode":"OPAQUE","doubleSided":false,"extras":{"fromFBX":{"isTruePBR":false,"shadingModel":"Phong"}},"name":"Material.001","pbrMetallicRoughness":{"baseColorFactor":[0.800000011920929,0.800000011920929,0.800000011920929,1],"metallicFactor":0.400000005960464,"roughnessFactor":0.272165536880493}}],"meshes":[{"name":"Light_01","primitives":[{"attributes":{"NORMAL":2,"POSITION":1,"TEXCOORD_0":3},"indices":0,"material":0,"mode":4},{"attributes":{"NORMAL":6,"POSITION":5,"TEXCOORD_0":7},"indices":4,"material":1,"mode":4}]}],"nodes":[{"mesh":0,"name":"Light_01","rotation":[0,0,0,1],"scale":[1,1,1],"translation":[216.801620483398,-0.03000508993864,0.0198708176612854]}],"samplers":[{}],"scene":0,"scenes":[{"name":"Root Scene","nodes":[0]}],"textures":[{"name":"base_color_texture","sampler":0,"source":0}]}