{"accessors":[{"bufferView":0,"byteOffset":0,"componentType":5123,"count":1260,"type":"SCALAR"},{"bufferView":1,"byteOffset":0,"componentType":5126,"count":684,"max":[0.945925354957581,1.6563047170639,0.0879615098237991],"min":[-0.94592535495758,0,-0.0879615098238],"type":"VEC3"},{"bufferView":2,"byteOffset":0,"componentType":5126,"count":684,"type":"VEC3"},{"bufferView":3,"byteOffset":0,"componentType":5126,"count":684,"type":"VEC2"},{"bufferView":4,"byteOffset":0,"componentType":5123,"count":144,"type":"SCALAR"},{"bufferView":5,"byteOffset":0,"componentType":5126,"count":96,"max":[0.9313685297966,1.64267694950104,0.0840474665164948],"min":[-0.9313685297966,1.49913263320923,0.0747363045811653],"type":"VEC3"},{"bufferView":6,"byteOffset":0,"componentType":5126,"count":96,"type":"VEC3"},{"bufferView":7,"byteOffset":0,"componentType":5126,"count":96,"type":"VEC2"}],"asset":{"generator":"FBX2glTF v0.13.1","version":"2.0"},"bufferViews":[{"buffer":0,"byteLength":2520,"byteOffset":0,"target":34963},{"buffer":0,"byteLength":8208,"byteOffset":2520,"target":34962},{"buffer":0,"byteLength":8208,"byteOffset":10728,"target":34962},{"buffer":0,"byteLength":5472,"byteOffset":18936,"target":34962},{"buffer":0,"byteLength":288,"byteOffset":24408,"target":34963},{"buffer":0,"byteLength":1152,"byteOffset":24696,"target":34962},{"buffer":0,"byteLength":1152,"byteOffset":25848,"target":34962},{"buffer":0,"byteLength":768,"byteOffset":27000,"target":34962}],"buffers":[{"byteLength":27768,"uri":"SM_Light_03.bin"}],"images":[{"name":"Polygon_Texture_vol2","uri":"Polygon_Texture_vol2.png"}],"materials":[{"alphaMode":"OPAQUE","doubleSided":false,"extras":{"fromFBX":{"isTruePBR":false,"shadingModel":"Phong"}},"name":"Material","pbrMetallicRoughness":{"baseColorFactor":[1,1,1,1],"baseColorTexture":{"index":0,"texCoord":0},"metallicFactor":0.400000005960464,"roughnessFactor":0.229415729641914}},{"alphaMode":"OPAQUE","doubleSided":false,"extras":{"fromFBX":{"isTruePBR":false,"shadingModel":"Phong"}},"name":"Material.001","pbrMetallicRoughness":{"baseColorFactor":[0.800000011920929,0.800000011920929,0.800000011920929,1],"metallicFactor":0.400000005960464,"roughnessFactor":0.272165536880493}}],"meshes":[{"name":"Light_03","primitives":[{"attributes":{"NORMAL":2,"POSITION":1,"TEXCOORD_0":3},"indices":0,"material":0,"mode":4},{"attributes":{"NORMAL":6,"POSITION":5,"TEXCOORD_0":7},"indices":4,"material":1,"mode":4}]}],"nodes":[{"mesh":0,"name":"Light_03","rotation":[0,0,0,1],"scale":[1,1,1],"translation":[218.155166625977,0,0.00184309482574463]}],"samplers":[{}],"scene":0,"scenes":[{"name":"Root Scene","nodes":[0]}],"textures":[{"name":"base_color_texture","sampler":0,"source":0}]}