{"accessors":[{"bufferView":0,"byteOffset":0,"componentType":5123,"count":666,"type":"SCALAR"},{"bufferView":1,"byteOffset":0,"componentType":5126,"count":344,"max":[0.278782844543457,0.767376482486725,0.1611208319664],"min":[-0.27878284454346,-0.03000508993864,-0.1611208319664],"type":"VEC3"},{"bufferView":2,"byteOffset":0,"componentType":5126,"count":344,"type":"VEC3"},{"bufferView":3,"byteOffset":0,"componentType":5126,"count":344,"type":"VEC2"},{"bufferView":4,"byteOffset":0,"componentType":5123,"count":144,"type":"SCALAR"},{"bufferView":5,"byteOffset":0,"componentType":5126,"count":88,"max":[0.26810947060585,0.756703078746796,0.0824688449501991],"min":[-0.26810944080353,0.635271489620209,0.0725998803973198],"type":"VEC3"},{"bufferView":6,"byteOffset":0,"componentType":5126,"count":88,"type":"VEC3"},{"bufferView":7,"byteOffset":0,"componentType":5126,"count":88,"type":"VEC2"}],"asset":{"generator":"FBX2glTF v0.13.1","version":"2.0"},"bufferViews":[{"buffer":0,"byteLength":1332,"byteOffset":0,"target":34963},{"buffer":0,"byteLength":4128,"byteOffset":1332,"target":34962},{"buffer":0,"byteLength":4128,"byteOffset":5460,"target":34962},{"buffer":0,"byteLength":2752,"byteOffset":9588,"target":34962},{"buffer":0,"byteLength":288,"byteOffset":12340,"target":34963},{"buffer":0,"byteLength":1056,"byteOffset":12628,"target":34962},{"buffer":0,"byteLength":1056,"byteOffset":13684,"target":34962},{"buffer":0,"byteLength":704,"byteOffset":14740,"target":34962}],"buffers":[{"byteLength":15444,"uri":"SM_Light_02.bin"}],"images":[{"name":"Polygon_Texture_vol2","uri":"Polygon_Texture_vol2.png"}],"materials":[{"alphaMode":"OPAQUE","doubleSided":false,"extras":{"fromFBX":{"isTruePBR":false,"shadingModel":"Phong"}},"name":"Material","pbrMetallicRoughness":{"baseColorFactor":[1,1,1,1],"baseColorTexture":{"index":0,"texCoord":0},"metallicFactor":0.400000005960464,"roughnessFactor":0.229415729641914}},{"alphaMode":"OPAQUE","doubleSided":false,"extras":{"fromFBX":{"isTruePBR":false,"shadingModel":"Phong"}},"name":"Material.001","pbrMetallicRoughness":{"baseColorFactor":[0.800000011920929,0.800000011920929,0.800000011920929,1],"metallicFactor":0.400000005960464,"roughnessFactor":0.272165536880493}}],"meshes":[{"name":"Light_02","primitives":[{"attributes":{"NORMAL":2,"POSITION":1,"TEXCOORD_0":3},"indices":0,"material":0,"mode":4},{"attributes":{"NORMAL":6,"POSITION":5,"TEXCOORD_0":7},"indices":4,"material":1,"mode":4}]}],"nodes":[{"mesh":0,"name":"Light_02","rotation":[0,0,0,1],"scale":[1,1,1],"translation":[217.410736083984,0,0.0174458920955658]}],"samplers":[{}],"scene":0,"scenes":[{"name":"Root Scene","nodes":[0]}],"textures":[{"name":"base_color_texture","sampler":0,"source":0}]}