{"accessors":[{"bufferView":0,"byteOffset":0,"componentType":5123,"count":7056,"type":"SCALAR"},{"bufferView":1,"byteOffset":0,"componentType":5126,"count":4357,"max":[2.22525548934937,2.62128019332886,0.897026300430298],"min":[-2.22525548934937,-1.75588929653168,-6.4185266494751],"type":"VEC3"},{"bufferView":2,"byteOffset":0,"componentType":5126,"count":4357,"type":"VEC3"},{"bufferView":3,"byteOffset":0,"componentType":5126,"count":4357,"type":"VEC2"},{"bufferView":4,"byteOffset":0,"componentType":5123,"count":1044,"type":"SCALAR"},{"bufferView":5,"byteOffset":0,"componentType":5126,"count":630,"max":[0.0683757066726685,0.606610178947449,0.606610536575317],"min":[-0.24647675454616,-0.60661035776138,-0.606609582901],"type":"VEC3"},{"bufferView":6,"byteOffset":0,"componentType":5126,"count":630,"type":"VEC3"},{"bufferView":7,"byteOffset":0,"componentType":5126,"count":630,"type":"VEC2"},{"bufferView":8,"byteOffset":0,"componentType":5123,"count":1044,"type":"SCALAR"},{"bufferView":9,"byteOffset":0,"componentType":5126,"count":636,"max":[0.0683748722076416,0.606610178947449,0.606609582901001],"min":[-0.24647760391235,-0.60661035776138,-0.60661053657532],"type":"VEC3"},{"bufferView":10,"byteOffset":0,"componentType":5126,"count":636,"type":"VEC3"},{"bufferView":11,"byteOffset":0,"componentType":5126,"count":636,"type":"VEC2"},{"bufferView":12,"byteOffset":0,"componentType":5123,"count":1044,"type":"SCALAR"},{"bufferView":13,"byteOffset":0,"componentType":5126,"count":644,"max":[0.246477007865906,0.606610178947449,0.60660994052887],"min":[-0.06837546825409,-0.60661035776138,-0.60661017894745],"type":"VEC3"},{"bufferView":14,"byteOffset":0,"componentType":5126,"count":644,"type":"VEC3"},{"bufferView":15,"byteOffset":0,"componentType":5126,"count":644,"type":"VEC2"},{"bufferView":16,"byteOffset":0,"componentType":5123,"count":1044,"type":"SCALAR"},{"bufferView":17,"byteOffset":0,"componentType":5126,"count":644,"max":[0.246477007865906,0.606610178947449,0.606609582901001],"min":[-0.06837546825409,-0.60661035776138,-0.60661053657532],"type":"VEC3"},{"bufferView":18,"byteOffset":0,"componentType":5126,"count":644,"type":"VEC3"},{"bufferView":19,"byteOffset":0,"componentType":5126,"count":644,"type":"VEC2"},{"bufferView":20,"byteOffset":0,"componentType":5123,"count":42,"type":"SCALAR"},{"bufferView":21,"byteOffset":0,"componentType":5126,"count":26,"max":[1.81539821624756,1.42502546310425,0.754027605056763],"min":[-1.81539821624756,0.355498045682907,-0.76747208833695],"type":"VEC3"},{"bufferView":22,"byteOffset":0,"componentType":5126,"count":26,"type":"VEC3"},{"bufferView":23,"byteOffset":0,"componentType":5126,"count":26,"type":"VEC2"}],"asset":{"generator":"FBX2glTF v0.13.1","version":"2.0"},"bufferViews":[{"buffer":0,"byteLength":14112,"byteOffset":0,"target":34963},{"buffer":0,"byteLength":52284,"byteOffset":14112,"target":34962},{"buffer":0,"byteLength":52284,"byteOffset":66396,"target":34962},{"buffer":0,"byteLength":34856,"byteOffset":118680,"target":34962},{"buffer":0,"byteLength":2088,"byteOffset":153536,"target":34963},{"buffer":0,"byteLength":7560,"byteOffset":155624,"target":34962},{"buffer":0,"byteLength":7560,"byteOffset":163184,"target":34962},{"buffer":0,"byteLength":5040,"byteOffset":170744,"target":34962},{"buffer":0,"byteLength":2088,"byteOffset":175784,"target":34963},{"buffer":0,"byteLength":7632,"byteOffset":177872,"target":34962},{"buffer":0,"byteLength":7632,"byteOffset":185504,"target":34962},{"buffer":0,"byteLength":5088,"byteOffset":193136,"target":34962},{"buffer":0,"byteLength":2088,"byteOffset":198224,"target":34963},{"buffer":0,"byteLength":7728,"byteOffset":200312,"target":34962},{"buffer":0,"byteLength":7728,"byteOffset":208040,"target":34962},{"buffer":0,"byteLength":5152,"byteOffset":215768,"target":34962},{"buffer":0,"byteLength":2088,"byteOffset":220920,"target":34963},{"buffer":0,"byteLength":7728,"byteOffset":223008,"target":34962},{"buffer":0,"byteLength":7728,"byteOffset":230736,"target":34962},{"buffer":0,"byteLength":5152,"byteOffset":238464,"target":34962},{"buffer":0,"byteLength":84,"byteOffset":243616,"target":34963},{"buffer":0,"byteLength":312,"byteOffset":243700,"target":34962},{"buffer":0,"byteLength":312,"byteOffset":244012,"target":34962},{"buffer":0,"byteLength":208,"byteOffset":244324,"target":34962}],"buffers":[{"byteLength":244532,"uri":"SM_loader_01.bin"}],"images":[{"name":"Polygon_Texture_vol2","uri":"Polygon_Texture_vol2.png"}],"materials":[{"alphaMode":"OPAQUE","doubleSided":false,"extras":{"fromFBX":{"isTruePBR":false,"shadingModel":"Phong"}},"name":"Material","pbrMetallicRoughness":{"baseColorFactor":[1,1,1,1],"baseColorTexture":{"index":0,"texCoord":0},"metallicFactor":0.400000005960464,"roughnessFactor":0.229415729641914}},{"alphaMode":"OPAQUE","doubleSided":false,"extras":{"fromFBX":{"isTruePBR":false,"shadingModel":"Phong"}},"name":"Material.001","pbrMetallicRoughness":{"baseColorFactor":[0.800000011920929,0.800000011920929,0.800000011920929,1],"metallicFactor":0.400000005960464,"roughnessFactor":0.272165536880493}}],"meshes":[{"name":"loader_01","primitives":[{"attributes":{"NORMAL":2,"POSITION":1,"TEXCOORD_0":3},"indices":0,"material":0,"mode":4},{"attributes":{"NORMAL":22,"POSITION":21,"TEXCOORD_0":23},"indices":20,"material":1,"mode":4}]},{"name":"Cube.001","primitives":[{"attributes":{"NORMAL":6,"POSITION":5,"TEXCOORD_0":7},"indices":4,"material":0,"mode":4}]},{"name":"Cube.002","primitives":[{"attributes":{"NORMAL":10,"POSITION":9,"TEXCOORD_0":11},"indices":8,"material":0,"mode":4}]},{"name":"Cube.003","primitives":[{"attributes":{"NORMAL":14,"POSITION":13,"TEXCOORD_0":15},"indices":12,"material":0,"mode":4}]},{"name":"Cube.004","primitives":[{"attributes":{"NORMAL":18,"POSITION":17,"TEXCOORD_0":19},"indices":16,"material":0,"mode":4}]}],"nodes":[{"children":[1,2,3,4],"mesh":0,"name":"loader_01","rotation":[0,0,0,1],"scale":[1,1,1],"translation":[101.337028503418,2.08723950386047,-1.74334955215454]},{"mesh":1,"name":"Cube.001","rotation":[0,0,0,1],"scale":[1,1,1],"translation":[1.72923827171326,-1.4476410150528,-0.8493195772171]},{"mesh":2,"name":"Cube.002","rotation":[0,0,0,1],"scale":[1,1,1],"translation":[1.72923827171326,-1.4476410150528,-4.71548318862915]},{"mesh":3,"name":"Cube.003","rotation":[0,0,0,1],"scale":[1,1,1],"translation":[-1.72922849655151,-1.4476410150528,-0.84931898117065]},{"mesh":4,"name":"Cube.004","rotation":[0,0,0,1],"scale":[1,1,1],"translation":[-1.72922849655151,-1.4476410150528,-4.71548318862915]}],"samplers":[{}],"scene":0,"scenes":[{"name":"Root Scene","nodes":[0]}],"textures":[{"name":"base_color_texture","sampler":0,"source":0}]}