{"accessors":[{"bufferView":0,"byteOffset":0,"componentType":5123,"count":102,"type":"SCALAR"},{"bufferView":1,"byteOffset":0,"componentType":5126,"count":68,"max":[1.59848701953888,0.0423873066902161,2.18240070343018],"min":[-1.80290675163269,-0.06061270087957,-2.50266575813293],"type":"VEC3"},{"bufferView":2,"byteOffset":0,"componentType":5126,"count":68,"type":"VEC3"},{"bufferView":3,"byteOffset":0,"componentType":5126,"count":68,"type":"VEC2"}],"asset":{"generator":"FBX2glTF v0.13.1","version":"2.0"},"bufferViews":[{"buffer":0,"byteLength":204,"byteOffset":0,"target":34963},{"buffer":0,"byteLength":816,"byteOffset":204,"target":34962},{"buffer":0,"byteLength":816,"byteOffset":1020,"target":34962},{"buffer":0,"byteLength":544,"byteOffset":1836,"target":34962}],"buffers":[{"byteLength":2380,"uri":"SM_runway_strip_08.bin"}],"images":[{"name":"Polygon_Camping_Texture_vol2.0","uri":"Polygon_Camping_Texture_vol2.0.jpg"}],"materials":[{"alphaMode":"OPAQUE","doubleSided":false,"extras":{"fromFBX":{"isTruePBR":false,"shadingModel":"Phong"}},"name":"Material","pbrMetallicRoughness":{"baseColorFactor":[1,1,1,1],"baseColorTexture":{"index":0,"texCoord":0},"metallicFactor":0.400000005960464,"roughnessFactor":0.229415729641914}}],"meshes":[{"name":"runway_strip_08","primitives":[{"attributes":{"NORMAL":2,"POSITION":1,"TEXCOORD_0":3},"indices":0,"material":0,"mode":4}]}],"nodes":[{"mesh":0,"name":"runway_strip_08","rotation":[0,0,0,1],"scale":[1,1,1],"translation":[189.196655273438,0.160612687468529,-42.5798568725586]}],"samplers":[{}],"scene":0,"scenes":[{"name":"Root Scene","nodes":[0]}],"textures":[{"name":"base_color_texture","sampler":0,"source":0}]}