{"accessors":[{"bufferView":0,"byteOffset":0,"componentType":5123,"count":504,"type":"SCALAR"},{"bufferView":1,"byteOffset":0,"componentType":5126,"count":464,"max":[2.98547744750977,0.187673762440681,16.6393489837646],"min":[-3.02320575714111,-0.12210009247065,-15.3625860214233],"type":"VEC3"},{"bufferView":2,"byteOffset":0,"componentType":5126,"count":464,"type":"VEC3"},{"bufferView":3,"byteOffset":0,"componentType":5126,"count":464,"type":"VEC2"}],"asset":{"generator":"FBX2glTF v0.13.1","version":"2.0"},"bufferViews":[{"buffer":0,"byteLength":1008,"byteOffset":0,"target":34963},{"buffer":0,"byteLength":5568,"byteOffset":1008,"target":34962},{"buffer":0,"byteLength":5568,"byteOffset":6576,"target":34962},{"buffer":0,"byteLength":3712,"byteOffset":12144,"target":34962}],"buffers":[{"byteLength":15856,"uri":"SM_runway_strip_gravel_01.bin"}],"images":[{"name":"Polygon_Camping_Texture_vol2.0","uri":"Polygon_Camping_Texture_vol2.0.jpg"}],"materials":[{"alphaMode":"OPAQUE","doubleSided":false,"extras":{"fromFBX":{"isTruePBR":false,"shadingModel":"Phong"}},"name":"Material","pbrMetallicRoughness":{"baseColorFactor":[1,1,1,1],"baseColorTexture":{"index":0,"texCoord":0},"metallicFactor":0.400000005960464,"roughnessFactor":0.229415729641914}}],"meshes":[{"name":"runway_strip_gravel_01","primitives":[{"attributes":{"NORMAL":2,"POSITION":1,"TEXCOORD_0":3},"indices":0,"material":0,"mode":4}]}],"nodes":[{"mesh":0,"name":"runway_strip_gravel_01","rotation":[0,0,0,1],"scale":[1,1,1],"translation":[211.541458129883,0.165362522006035,-17.9920921325684]}],"samplers":[{}],"scene":0,"scenes":[{"name":"Root Scene","nodes":[0]}],"textures":[{"name":"base_color_texture","sampler":0,"source":0}]}