{"accessors":[{"bufferView":0,"byteOffset":0,"componentType":5123,"count":66,"type":"SCALAR"},{"bufferView":1,"byteOffset":0,"componentType":5126,"count":40,"max":[2.67025327682495,0.0408216789364815,1.71254026889801],"min":[-2.72884798049927,-0.05917831137776,-2.68843984603882],"type":"VEC3"},{"bufferView":2,"byteOffset":0,"componentType":5126,"count":40,"type":"VEC3"},{"bufferView":3,"byteOffset":0,"componentType":5126,"count":40,"type":"VEC2"}],"asset":{"generator":"FBX2glTF v0.13.1","version":"2.0"},"bufferViews":[{"buffer":0,"byteLength":132,"byteOffset":0,"target":34963},{"buffer":0,"byteLength":480,"byteOffset":132,"target":34962},{"buffer":0,"byteLength":480,"byteOffset":612,"target":34962},{"buffer":0,"byteLength":320,"byteOffset":1092,"target":34962}],"buffers":[{"byteLength":1412,"uri":"SM_runway_strip_10.bin"}],"images":[{"name":"Polygon_Camping_Texture_vol2.0","uri":"Polygon_Camping_Texture_vol2.0.jpg"}],"materials":[{"alphaMode":"OPAQUE","doubleSided":false,"extras":{"fromFBX":{"isTruePBR":false,"shadingModel":"Phong"}},"name":"Material","pbrMetallicRoughness":{"baseColorFactor":[1,1,1,1],"baseColorTexture":{"index":0,"texCoord":0},"metallicFactor":0.400000005960464,"roughnessFactor":0.229415729641914}}],"meshes":[{"name":"runway_strip_10","primitives":[{"attributes":{"NORMAL":2,"POSITION":1,"TEXCOORD_0":3},"indices":0,"material":0,"mode":4}]}],"nodes":[{"mesh":0,"name":"runway_strip_10","rotation":[0,0,0,1],"scale":[1,1,1],"translation":[199.203399658203,0.15917831659317,-43.5011024475098]}],"samplers":[{}],"scene":0,"scenes":[{"name":"Root Scene","nodes":[0]}],"textures":[{"name":"base_color_texture","sampler":0,"source":0}]}