{"accessors":[{"bufferView":0,"byteOffset":0,"componentType":5123,"count":30,"type":"SCALAR"},{"bufferView":1,"byteOffset":0,"componentType":5126,"count":20,"max":[1,0.0412499979138374,16],"min":[-1,-0.05874999240041,-16],"type":"VEC3"},{"bufferView":2,"byteOffset":0,"componentType":5126,"count":20,"type":"VEC3"},{"bufferView":3,"byteOffset":0,"componentType":5126,"count":20,"type":"VEC2"}],"asset":{"generator":"FBX2glTF v0.13.1","version":"2.0"},"bufferViews":[{"buffer":0,"byteLength":60,"byteOffset":0,"target":34963},{"buffer":0,"byteLength":240,"byteOffset":60,"target":34962},{"buffer":0,"byteLength":240,"byteOffset":300,"target":34962},{"buffer":0,"byteLength":160,"byteOffset":540,"target":34962}],"buffers":[{"byteLength":700,"uri":"SM_runway_strip_02.bin"}],"images":[{"name":"Polygon_Camping_Texture_vol2.0","uri":"Polygon_Camping_Texture_vol2.0.jpg"}],"materials":[{"alphaMode":"OPAQUE","doubleSided":false,"extras":{"fromFBX":{"isTruePBR":false,"shadingModel":"Phong"}},"name":"Material","pbrMetallicRoughness":{"baseColorFactor":[1,1,1,1],"baseColorTexture":{"index":0,"texCoord":0},"metallicFactor":0.400000005960464,"roughnessFactor":0.229415729641914}}],"meshes":[{"name":"runway_strip_02","primitives":[{"attributes":{"NORMAL":2,"POSITION":1,"TEXCOORD_0":3},"indices":0,"material":0,"mode":4}]}],"nodes":[{"mesh":0,"name":"runway_strip_02","rotation":[0,0,0,1],"scale":[1,1,1],"translation":[172.63444519043,0.158749997615814,-17.3547306060791]}],"samplers":[{}],"scene":0,"scenes":[{"name":"Root Scene","nodes":[0]}],"textures":[{"name":"base_color_texture","sampler":0,"source":0}]}