{"accessors":[{"bufferView":0,"byteOffset":0,"componentType":5123,"count":84,"type":"SCALAR"},{"bufferView":1,"byteOffset":0,"componentType":5126,"count":56,"max":[1.59137916564941,0.0424722656607628,1.5728200674057],"min":[-1.85175883769989,-0.06052774935961,-1.82857370376587],"type":"VEC3"},{"bufferView":2,"byteOffset":0,"componentType":5126,"count":56,"type":"VEC3"},{"bufferView":3,"byteOffset":0,"componentType":5126,"count":56,"type":"VEC2"}],"asset":{"generator":"FBX2glTF v0.13.1","version":"2.0"},"bufferViews":[{"buffer":0,"byteLength":168,"byteOffset":0,"target":34963},{"buffer":0,"byteLength":672,"byteOffset":168,"target":34962},{"buffer":0,"byteLength":672,"byteOffset":840,"target":34962},{"buffer":0,"byteLength":448,"byteOffset":1512,"target":34962}],"buffers":[{"byteLength":1960,"uri":"SM_runway_strip_05.bin"}],"images":[{"name":"Polygon_Camping_Texture_vol2.0","uri":"Polygon_Camping_Texture_vol2.0.jpg"}],"materials":[{"alphaMode":"OPAQUE","doubleSided":false,"extras":{"fromFBX":{"isTruePBR":false,"shadingModel":"Phong"}},"name":"Material","pbrMetallicRoughness":{"baseColorFactor":[1,1,1,1],"baseColorTexture":{"index":0,"texCoord":0},"metallicFactor":0.400000005960464,"roughnessFactor":0.229415729641914}}],"meshes":[{"name":"runway_strip_05","primitives":[{"attributes":{"NORMAL":2,"POSITION":1,"TEXCOORD_0":3},"indices":0,"material":0,"mode":4}]}],"nodes":[{"mesh":0,"name":"runway_strip_05","rotation":[0,0,0,1],"scale":[1,1,1],"translation":[173.486221313477,0.160527735948563,-39.2408218383789]}],"samplers":[{}],"scene":0,"scenes":[{"name":"Root Scene","nodes":[0]}],"textures":[{"name":"base_color_texture","sampler":0,"source":0}]}