{"accessors":[{"bufferView":0,"byteOffset":0,"componentType":5123,"count":66,"type":"SCALAR"},{"bufferView":1,"byteOffset":0,"componentType":5126,"count":34,"max":[3.00000047683716,0.0408216752111912,16.5036392211914],"min":[-2.99999928474426,-0.05917831882834,-15.4963607788086],"type":"VEC3"},{"bufferView":2,"byteOffset":0,"componentType":5126,"count":34,"type":"VEC3"},{"bufferView":3,"byteOffset":0,"componentType":5126,"count":34,"type":"VEC2"}],"asset":{"generator":"FBX2glTF v0.13.1","version":"2.0"},"bufferViews":[{"buffer":0,"byteLength":132,"byteOffset":0,"target":34963},{"buffer":0,"byteLength":408,"byteOffset":132,"target":34962},{"buffer":0,"byteLength":408,"byteOffset":540,"target":34962},{"buffer":0,"byteLength":272,"byteOffset":948,"target":34962}],"buffers":[{"byteLength":1220,"uri":"SM_runway_strip_01.bin"}],"images":[{"name":"Polygon_Camping_Texture_vol2.0","uri":"Polygon_Camping_Texture_vol2.0.jpg"}],"materials":[{"alphaMode":"OPAQUE","doubleSided":false,"extras":{"fromFBX":{"isTruePBR":false,"shadingModel":"Phong"}},"name":"Material","pbrMetallicRoughness":{"baseColorFactor":[1,1,1,1],"baseColorTexture":{"index":0,"texCoord":0},"metallicFactor":0.400000005960464,"roughnessFactor":0.229415729641914}}],"meshes":[{"name":"runway_strip_01","primitives":[{"attributes":{"NORMAL":2,"POSITION":1,"TEXCOORD_0":3},"indices":0,"material":0,"mode":4}]}],"nodes":[{"mesh":0,"name":"runway_strip_01","rotation":[0,0,0,1],"scale":[1,1,1],"translation":[166.592636108398,0.15917831659317,-17.8583717346191]}],"samplers":[{}],"scene":0,"scenes":[{"name":"Root Scene","nodes":[0]}],"textures":[{"name":"base_color_texture","sampler":0,"source":0}]}