{"accessors":[{"bufferView":0,"byteOffset":0,"componentType":5123,"count":90,"type":"SCALAR"},{"bufferView":1,"byteOffset":0,"componentType":5126,"count":56,"max":[2.79191827774048,0.0404761917889118,2.46762108802795],"min":[-2.2489447593689,-0.0595238097012,-2.85283255577087],"type":"VEC3"},{"bufferView":2,"byteOffset":0,"componentType":5126,"count":56,"type":"VEC3"},{"bufferView":3,"byteOffset":0,"componentType":5126,"count":56,"type":"VEC2"}],"asset":{"generator":"FBX2glTF v0.13.1","version":"2.0"},"bufferViews":[{"buffer":0,"byteLength":180,"byteOffset":0,"target":34963},{"buffer":0,"byteLength":672,"byteOffset":180,"target":34962},{"buffer":0,"byteLength":672,"byteOffset":852,"target":34962},{"buffer":0,"byteLength":448,"byteOffset":1524,"target":34962}],"buffers":[{"byteLength":1972,"uri":"SM_runway_strip_11.bin"}],"images":[{"name":"Polygon_Camping_Texture_vol2.0","uri":"Polygon_Camping_Texture_vol2.0.jpg"}],"materials":[{"alphaMode":"OPAQUE","doubleSided":false,"extras":{"fromFBX":{"isTruePBR":false,"shadingModel":"Phong"}},"name":"Material","pbrMetallicRoughness":{"baseColorFactor":[1,1,1,1],"baseColorTexture":{"index":0,"texCoord":0},"metallicFactor":0.400000005960464,"roughnessFactor":0.229415729641914}}],"meshes":[{"name":"runway_strip_11","primitives":[{"attributes":{"NORMAL":2,"POSITION":1,"TEXCOORD_0":3},"indices":0,"material":0,"mode":4}]}],"nodes":[{"mesh":0,"name":"runway_strip_11","rotation":[0,0,0,1],"scale":[1,1,1],"translation":[194.094924926758,0.159523814916611,-38.4079475402832]}],"samplers":[{}],"scene":0,"scenes":[{"name":"Root Scene","nodes":[0]}],"textures":[{"name":"base_color_texture","sampler":0,"source":0}]}