{"accessors":[{"bufferView":0,"byteOffset":0,"componentType":5123,"count":156,"type":"SCALAR"},{"bufferView":1,"byteOffset":0,"componentType":5126,"count":90,"max":[2.14220643043518,0.0412499979138374,1.73178398609161],"min":[-1.59811568260193,-0.05875000357628,-2.11101245880127],"type":"VEC3"},{"bufferView":2,"byteOffset":0,"componentType":5126,"count":90,"type":"VEC3"},{"bufferView":3,"byteOffset":0,"componentType":5126,"count":90,"type":"VEC2"}],"asset":{"generator":"FBX2glTF v0.13.1","version":"2.0"},"bufferViews":[{"buffer":0,"byteLength":312,"byteOffset":0,"target":34963},{"buffer":0,"byteLength":1080,"byteOffset":312,"target":34962},{"buffer":0,"byteLength":1080,"byteOffset":1392,"target":34962},{"buffer":0,"byteLength":720,"byteOffset":2472,"target":34962}],"buffers":[{"byteLength":3192,"uri":"SM_runway_strip_06.bin"}],"images":[{"name":"Polygon_Camping_Texture_vol2.0","uri":"Polygon_Camping_Texture_vol2.0.jpg"}],"materials":[{"alphaMode":"OPAQUE","doubleSided":false,"extras":{"fromFBX":{"isTruePBR":false,"shadingModel":"Phong"}},"name":"Material","pbrMetallicRoughness":{"baseColorFactor":[1,1,1,1],"baseColorTexture":{"index":0,"texCoord":0},"metallicFactor":0.400000005960464,"roughnessFactor":0.229415729641914}}],"meshes":[{"name":"runway_strip_06","primitives":[{"attributes":{"NORMAL":2,"POSITION":1,"TEXCOORD_0":3},"indices":0,"material":0,"mode":4}]}],"nodes":[{"mesh":0,"name":"runway_strip_06","rotation":[0,0,0,1],"scale":[1,1,1],"translation":[178.392395019531,0.158749997615814,-36.0927658081055]}],"samplers":[{}],"scene":0,"scenes":[{"name":"Root Scene","nodes":[0]}],"textures":[{"name":"base_color_texture","sampler":0,"source":0}]}