{"accessors":[{"bufferView":0,"byteOffset":0,"componentType":5123,"count":1314,"type":"SCALAR"},{"bufferView":1,"byteOffset":0,"componentType":5126,"count":792,"max":[1.67509436607361,6.97006940841675,1.67509758472443],"min":[-1.67510187625885,-0.00000166893005,-1.67509865760803],"type":"VEC3"},{"bufferView":2,"byteOffset":0,"componentType":5126,"count":792,"type":"VEC3"},{"bufferView":3,"byteOffset":0,"componentType":5126,"count":792,"type":"VEC2"}],"asset":{"generator":"FBX2glTF v0.13.1","version":"2.0"},"bufferViews":[{"buffer":0,"byteLength":2628,"byteOffset":0,"target":34963},{"buffer":0,"byteLength":9504,"byteOffset":2628,"target":34962},{"buffer":0,"byteLength":9504,"byteOffset":12132,"target":34962},{"buffer":0,"byteLength":6336,"byteOffset":21636,"target":34962}],"buffers":[{"byteLength":27972,"uri":"SM_water_tower_01.bin"}],"images":[{"name":"Polygon_Camping_Texture_vol2.0","uri":"Polygon_Camping_Texture_vol2.0.jpg"}],"materials":[{"alphaMode":"OPAQUE","doubleSided":false,"extras":{"fromFBX":{"isTruePBR":false,"shadingModel":"Phong"}},"name":"Material","pbrMetallicRoughness":{"baseColorFactor":[1,1,1,1],"baseColorTexture":{"index":0,"texCoord":0},"metallicFactor":0.400000005960464,"roughnessFactor":0.229415729641914}}],"meshes":[{"name":"water_tower_01","primitives":[{"attributes":{"NORMAL":2,"POSITION":1,"TEXCOORD_0":3},"indices":0,"material":0,"mode":4}]}],"nodes":[{"mesh":0,"name":"water_tower_01","rotation":[0,-0.08715575188398,0,0.99619472026825],"scale":[0.99999988079071,1,0.99999988079071],"translation":[126.180908203125,0,0.00000042219957663292]}],"samplers":[{}],"scene":0,"scenes":[{"name":"Root Scene","nodes":[0]}],"textures":[{"name":"base_color_texture","sampler":0,"source":0}]}