{"accessors":[{"bufferView":0,"byteOffset":0,"componentType":5123,"count":846,"type":"SCALAR"},{"bufferView":1,"byteOffset":0,"componentType":5126,"count":508,"max":[0.543606758117676,1.55772149562836,0.736754357814789],"min":[-0.54360675811768,0,-0.63433915376663],"type":"VEC3"},{"bufferView":2,"byteOffset":0,"componentType":5126,"count":508,"type":"VEC3"},{"bufferView":3,"byteOffset":0,"componentType":5126,"count":508,"type":"VEC2"}],"asset":{"generator":"FBX2glTF v0.13.1","version":"2.0"},"bufferViews":[{"buffer":0,"byteLength":1692,"byteOffset":0,"target":34963},{"buffer":0,"byteLength":6096,"byteOffset":1692,"target":34962},{"buffer":0,"byteLength":6096,"byteOffset":7788,"target":34962},{"buffer":0,"byteLength":4064,"byteOffset":13884,"target":34962}],"buffers":[{"byteLength":17948,"uri":"SM_chicken_coop.bin"}],"images":[{"name":"Polygon_Camping_Texture_vol2.0","uri":"Polygon_Camping_Texture_vol2.0.jpg"}],"materials":[{"alphaMode":"OPAQUE","doubleSided":false,"extras":{"fromFBX":{"isTruePBR":false,"shadingModel":"Phong"}},"name":"Material","pbrMetallicRoughness":{"baseColorFactor":[1,1,1,1],"baseColorTexture":{"index":0,"texCoord":0},"metallicFactor":0.400000005960464,"roughnessFactor":0.254953622817993}}],"meshes":[{"name":"chicken_coop","primitives":[{"attributes":{"NORMAL":2,"POSITION":1,"TEXCOORD_0":3},"indices":0,"material":0,"mode":4}]}],"nodes":[{"mesh":0,"name":"chicken_coop","rotation":[0,0,0,1],"scale":[1,1,1],"translation":[85.0355453491211,0,0.0920942947268486]}],"samplers":[{}],"scene":0,"scenes":[{"name":"Root Scene","nodes":[0]}],"textures":[{"name":"base_color_texture","sampler":0,"source":0}]}