{"accessors":[{"bufferView":0,"byteOffset":0,"componentType":5123,"count":3771,"type":"SCALAR"},{"bufferView":1,"byteOffset":0,"componentType":5126,"count":2218,"max":[4.35764408111572,7.4146580696106,8],"min":[-9.64235496520996,0,-8],"type":"VEC3"},{"bufferView":2,"byteOffset":0,"componentType":5126,"count":2218,"type":"VEC3"},{"bufferView":3,"byteOffset":0,"componentType":5126,"count":2218,"type":"VEC2"},{"bufferView":4,"byteOffset":0,"componentType":5123,"count":132,"type":"SCALAR"},{"bufferView":5,"byteOffset":0,"componentType":5126,"count":92,"max":[4.33519124984741,5.98556327819824,7.71175813674927],"min":[-5.45140361785889,1.64813232421875,-7.71175813674927],"type":"VEC3"},{"bufferView":6,"byteOffset":0,"componentType":5126,"count":92,"type":"VEC3"},{"bufferView":7,"byteOffset":0,"componentType":5126,"count":92,"type":"VEC2"}],"asset":{"generator":"FBX2glTF v0.13.1","version":"2.0"},"bufferViews":[{"buffer":0,"byteLength":7542,"byteOffset":0,"target":34963},{"buffer":0,"byteLength":26616,"byteOffset":7544,"target":34962},{"buffer":0,"byteLength":26616,"byteOffset":34160,"target":34962},{"buffer":0,"byteLength":17744,"byteOffset":60776,"target":34962},{"buffer":0,"byteLength":264,"byteOffset":78520,"target":34963},{"buffer":0,"byteLength":1104,"byteOffset":78784,"target":34962},{"buffer":0,"byteLength":1104,"byteOffset":79888,"target":34962},{"buffer":0,"byteLength":736,"byteOffset":80992,"target":34962}],"buffers":[{"byteLength":81728,"uri":"SM_cowshed.bin"}],"images":[{"name":"Polygon_Texture_vol2","uri":"Polygon_Texture_vol2.png"}],"materials":[{"alphaMode":"OPAQUE","doubleSided":false,"extras":{"fromFBX":{"isTruePBR":false,"shadingModel":"Phong"}},"name":"Material","pbrMetallicRoughness":{"baseColorFactor":[1,1,1,1],"baseColorTexture":{"index":0,"texCoord":0},"metallicFactor":0.400000005960464,"roughnessFactor":0.254953622817993}},{"alphaMode":"OPAQUE","doubleSided":false,"extras":{"fromFBX":{"isTruePBR":false,"shadingModel":"Phong"}},"name":"Material.001","pbrMetallicRoughness":{"baseColorFactor":[0.800000011920929,0.800000011920929,0.800000011920929,1],"metallicFactor":0.400000005960464,"roughnessFactor":0.272165536880493}}],"meshes":[{"name":"cowshed","primitives":[{"attributes":{"NORMAL":2,"POSITION":1,"TEXCOORD_0":3},"indices":0,"material":0,"mode":4},{"attributes":{"NORMAL":6,"POSITION":5,"TEXCOORD_0":7},"indices":4,"material":1,"mode":4}]}],"nodes":[{"mesh":0,"name":"cowshed","rotation":[0,0,0,1],"scale":[1,1,1],"translation":[80.0247039794922,0.000000476837158203125,-4.90790462493896]}],"samplers":[{}],"scene":0,"scenes":[{"name":"Root Scene","nodes":[0]}],"textures":[{"name":"base_color_texture","sampler":0,"source":0}]}