{"accessors":[{"bufferView":0,"byteOffset":0,"componentType":5123,"count":456,"type":"SCALAR"},{"bufferView":1,"byteOffset":0,"componentType":5126,"count":280,"max":[1.1955304145813,2.847247838974,2.151038646698],"min":[-1.1955304145813,0,-2.151038646698],"type":"VEC3"},{"bufferView":2,"byteOffset":0,"componentType":5126,"count":280,"type":"VEC3"},{"bufferView":3,"byteOffset":0,"componentType":5126,"count":280,"type":"VEC2"}],"asset":{"generator":"FBX2glTF v0.13.1","version":"2.0"},"bufferViews":[{"buffer":0,"byteLength":912,"byteOffset":0,"target":34963},{"buffer":0,"byteLength":3360,"byteOffset":912,"target":34962},{"buffer":0,"byteLength":3360,"byteOffset":4272,"target":34962},{"buffer":0,"byteLength":2240,"byteOffset":7632,"target":34962}],"buffers":[{"byteLength":9872,"uri":"SM_canopy.bin"}],"images":[{"name":"Polygon_Camping_Texture_vol2.0","uri":"Polygon_Camping_Texture_vol2.0.jpg"}],"materials":[{"alphaMode":"OPAQUE","doubleSided":false,"extras":{"fromFBX":{"isTruePBR":false,"shadingModel":"Phong"}},"name":"Material","pbrMetallicRoughness":{"baseColorFactor":[1,1,1,1],"baseColorTexture":{"index":0,"texCoord":0},"metallicFactor":0.400000005960464,"roughnessFactor":0.254953622817993}}],"meshes":[{"name":"canopy","primitives":[{"attributes":{"NORMAL":2,"POSITION":1,"TEXCOORD_0":3},"indices":0,"material":0,"mode":4}]}],"nodes":[{"mesh":0,"name":"canopy","rotation":[0,0,0,1],"scale":[1,1,1],"translation":[87.201171875,0,0]}],"samplers":[{}],"scene":0,"scenes":[{"name":"Root Scene","nodes":[0]}],"textures":[{"name":"base_color_texture","sampler":0,"source":0}]}