{"accessors":[{"bufferView":0,"byteOffset":0,"componentType":5123,"count":1050,"type":"SCALAR"},{"bufferView":1,"byteOffset":0,"componentType":5126,"count":706,"max":[0.195443585515022,0.306921482086182,0.193817436695099],"min":[-0.19495502114296,0,-0.18745179474354],"type":"VEC3"},{"bufferView":2,"byteOffset":0,"componentType":5126,"count":706,"type":"VEC3"},{"bufferView":3,"byteOffset":0,"componentType":5126,"count":706,"type":"VEC2"}],"asset":{"generator":"FBX2glTF v0.13.1","version":"2.0"},"bufferViews":[{"buffer":0,"byteLength":2100,"byteOffset":0,"target":34963},{"buffer":0,"byteLength":8472,"byteOffset":2100,"target":34962},{"buffer":0,"byteLength":8472,"byteOffset":10572,"target":34962},{"buffer":0,"byteLength":5648,"byteOffset":19044,"target":34962}],"buffers":[{"byteLength":24692,"uri":"SM_cabbage.bin"}],"images":[{"name":"Polygon_Camping_Texture_vol2.0","uri":"Polygon_Camping_Texture_vol2.0.jpg"}],"materials":[{"alphaMode":"OPAQUE","doubleSided":false,"extras":{"fromFBX":{"isTruePBR":false,"shadingModel":"Phong"}},"name":"Material","pbrMetallicRoughness":{"baseColorFactor":[1,1,1,1],"baseColorTexture":{"index":0,"texCoord":0},"metallicFactor":0.400000005960464,"roughnessFactor":0.254953622817993}}],"meshes":[{"name":"cabbage","primitives":[{"attributes":{"NORMAL":2,"POSITION":1,"TEXCOORD_0":3},"indices":0,"material":0,"mode":4}]}],"nodes":[{"mesh":0,"name":"cabbage","rotation":[0,0,0,1],"scale":[1,1,1],"translation":[48.7506141662598,0,0.0000000134159643394582]}],"samplers":[{}],"scene":0,"scenes":[{"name":"Root Scene","nodes":[0]}],"textures":[{"name":"base_color_texture","sampler":0,"source":0}]}