{"accessors":[{"bufferView":0,"byteOffset":0,"componentType":5123,"count":240,"type":"SCALAR"},{"bufferView":1,"byteOffset":0,"componentType":5126,"count":152,"max":[0.5,0.537287175655365,0.025381475687027],"min":[-0.5,0.000041864812374115,-0.02095217257738],"type":"VEC3"},{"bufferView":2,"byteOffset":0,"componentType":5126,"count":152,"type":"VEC3"},{"bufferView":3,"byteOffset":0,"componentType":5126,"count":152,"type":"VEC2"}],"asset":{"generator":"FBX2glTF v0.13.1","version":"2.0"},"bufferViews":[{"buffer":0,"byteLength":480,"byteOffset":0,"target":34963},{"buffer":0,"byteLength":1824,"byteOffset":480,"target":34962},{"buffer":0,"byteLength":1824,"byteOffset":2304,"target":34962},{"buffer":0,"byteLength":1216,"byteOffset":4128,"target":34962}],"buffers":[{"byteLength":5344,"uri":"SM_fence_02.bin"}],"images":[{"name":"Polygon_Camping_Texture_vol2.0","uri":"Polygon_Camping_Texture_vol2.0.jpg"}],"materials":[{"alphaMode":"OPAQUE","doubleSided":false,"extras":{"fromFBX":{"isTruePBR":false,"shadingModel":"Phong"}},"name":"Material","pbrMetallicRoughness":{"baseColorFactor":[1,1,1,1],"baseColorTexture":{"index":0,"texCoord":0},"metallicFactor":0.400000005960464,"roughnessFactor":0.254953622817993}}],"meshes":[{"name":"fence_02","primitives":[{"attributes":{"NORMAL":2,"POSITION":1,"TEXCOORD_0":3},"indices":0,"material":0,"mode":4}]}],"nodes":[{"mesh":0,"name":"fence_02","rotation":[0,0,0,1],"scale":[1,1,1],"translation":[32.8794097900391,0,-4.25585651397705]}],"samplers":[{}],"scene":0,"scenes":[{"name":"Root Scene","nodes":[0]}],"textures":[{"name":"base_color_texture","sampler":0,"source":0}]}