{"accessors":[{"bufferView":0,"byteOffset":0,"componentType":5123,"count":1956,"type":"SCALAR"},{"bufferView":1,"byteOffset":0,"componentType":5126,"count":1808,"max":[4,0.388938695192337,12],"min":[-4,0,-12],"type":"VEC3"},{"bufferView":2,"byteOffset":0,"componentType":5126,"count":1808,"type":"VEC3"},{"bufferView":3,"byteOffset":0,"componentType":5126,"count":1808,"type":"VEC2"}],"asset":{"generator":"FBX2glTF v0.13.1","version":"2.0"},"bufferViews":[{"buffer":0,"byteLength":3912,"byteOffset":0,"target":34963},{"buffer":0,"byteLength":21696,"byteOffset":3912,"target":34962},{"buffer":0,"byteLength":21696,"byteOffset":25608,"target":34962},{"buffer":0,"byteLength":14464,"byteOffset":47304,"target":34962}],"buffers":[{"byteLength":61768,"uri":"SM_fields_01.bin"}],"images":[{"name":"Polygon_Camping_Texture_vol2.0","uri":"Polygon_Camping_Texture_vol2.0.jpg"}],"materials":[{"alphaMode":"OPAQUE","doubleSided":false,"extras":{"fromFBX":{"isTruePBR":false,"shadingModel":"Phong"}},"name":"Material","pbrMetallicRoughness":{"baseColorFactor":[1,1,1,1],"baseColorTexture":{"index":0,"texCoord":0},"metallicFactor":0.400000005960464,"roughnessFactor":0.254953622817993}}],"meshes":[{"name":"fields_01","primitives":[{"attributes":{"NORMAL":2,"POSITION":1,"TEXCOORD_0":3},"indices":0,"material":0,"mode":4}]}],"nodes":[{"mesh":0,"name":"fields_01","rotation":[0,0,0,1],"scale":[1,1,1],"translation":[65.6567230224609,0,0]}],"samplers":[{}],"scene":0,"scenes":[{"name":"Root Scene","nodes":[0]}],"textures":[{"name":"base_color_texture","sampler":0,"source":0}]}