{"accessors":[{"bufferView":0,"byteOffset":0,"componentType":5123,"count":7998,"type":"SCALAR"},{"bufferView":1,"byteOffset":0,"componentType":5126,"count":4359,"max":[6,5.99999904632568,8.88527488708496],"min":[-6,0,-5.11472415924072],"type":"VEC3"},{"bufferView":2,"byteOffset":0,"componentType":5126,"count":4359,"type":"VEC3"},{"bufferView":3,"byteOffset":0,"componentType":5126,"count":4359,"type":"VEC2"},{"bufferView":4,"byteOffset":0,"componentType":5123,"count":732,"type":"SCALAR"},{"bufferView":5,"byteOffset":0,"componentType":5126,"count":488,"max":[5.80011653900146,4.93209743499756,8.77631950378418],"min":[-5.80011653900146,0.624818801879883,-4.85842370986938],"type":"VEC3"},{"bufferView":6,"byteOffset":0,"componentType":5126,"count":488,"type":"VEC3"},{"bufferView":7,"byteOffset":0,"componentType":5126,"count":488,"type":"VEC2"}],"asset":{"generator":"FBX2glTF v0.13.1","version":"2.0"},"bufferViews":[{"buffer":0,"byteLength":15996,"byteOffset":0,"target":34963},{"buffer":0,"byteLength":52308,"byteOffset":15996,"target":34962},{"buffer":0,"byteLength":52308,"byteOffset":68304,"target":34962},{"buffer":0,"byteLength":34872,"byteOffset":120612,"target":34962},{"buffer":0,"byteLength":1464,"byteOffset":155484,"target":34963},{"buffer":0,"byteLength":5856,"byteOffset":156948,"target":34962},{"buffer":0,"byteLength":5856,"byteOffset":162804,"target":34962},{"buffer":0,"byteLength":3904,"byteOffset":168660,"target":34962}],"buffers":[{"byteLength":172564,"uri":"SM_farm_hous.bin"}],"images":[{"name":"Polygon_Texture_vol2","uri":"Polygon_Texture_vol2.png"}],"materials":[{"alphaMode":"OPAQUE","doubleSided":false,"extras":{"fromFBX":{"isTruePBR":false,"shadingModel":"Phong"}},"name":"Material","pbrMetallicRoughness":{"baseColorFactor":[1,1,1,1],"baseColorTexture":{"index":0,"texCoord":0},"metallicFactor":0.400000005960464,"roughnessFactor":0.254953622817993}},{"alphaMode":"OPAQUE","doubleSided":false,"extras":{"fromFBX":{"isTruePBR":false,"shadingModel":"Phong"}},"name":"Material.001","pbrMetallicRoughness":{"baseColorFactor":[0.800000011920929,0.800000011920929,0.800000011920929,1],"metallicFactor":0.400000005960464,"roughnessFactor":0.272165536880493}}],"meshes":[{"name":"farm_hous","primitives":[{"attributes":{"NORMAL":2,"POSITION":1,"TEXCOORD_0":3},"indices":0,"material":0,"mode":4},{"attributes":{"NORMAL":6,"POSITION":5,"TEXCOORD_0":7},"indices":4,"material":1,"mode":4}]}],"nodes":[{"mesh":0,"name":"farm_hous","rotation":[0,0,0,1],"scale":[1,1,1],"translation":[111.340171813965,0,0]}],"samplers":[{}],"scene":0,"scenes":[{"name":"Root Scene","nodes":[0]}],"textures":[{"name":"base_color_texture","sampler":0,"source":0}]}