{"accessors":[{"bufferView":0,"byteOffset":0,"componentType":5123,"count":204,"type":"SCALAR"},{"bufferView":1,"byteOffset":0,"componentType":5126,"count":136,"max":[0.550000011920929,0.699999988079071,0.0499999970197678],"min":[-0.55000001192093,0,-0.04999999701977],"type":"VEC3"},{"bufferView":2,"byteOffset":0,"componentType":5126,"count":136,"type":"VEC3"},{"bufferView":3,"byteOffset":0,"componentType":5126,"count":136,"type":"VEC2"}],"asset":{"generator":"FBX2glTF v0.13.1","version":"2.0"},"bufferViews":[{"buffer":0,"byteLength":408,"byteOffset":0,"target":34963},{"buffer":0,"byteLength":1632,"byteOffset":408,"target":34962},{"buffer":0,"byteLength":1632,"byteOffset":2040,"target":34962},{"buffer":0,"byteLength":1088,"byteOffset":3672,"target":34962}],"buffers":[{"byteLength":4760,"uri":"SM_fence_01.bin"}],"images":[{"name":"Polygon_Camping_Texture_vol2.0","uri":"Polygon_Camping_Texture_vol2.0.jpg"}],"materials":[{"alphaMode":"OPAQUE","doubleSided":false,"extras":{"fromFBX":{"isTruePBR":false,"shadingModel":"Phong"}},"name":"Material","pbrMetallicRoughness":{"baseColorFactor":[1,1,1,1],"baseColorTexture":{"index":0,"texCoord":0},"metallicFactor":0.400000005960464,"roughnessFactor":0.254953622817993}}],"meshes":[{"name":"fence_01","primitives":[{"attributes":{"NORMAL":2,"POSITION":1,"TEXCOORD_0":3},"indices":0,"material":0,"mode":4}]}],"nodes":[{"mesh":0,"name":"fence_01","rotation":[0,0,0,1],"scale":[1,1,1],"translation":[34.1226768493652,0,-4.25585651397705]}],"samplers":[{}],"scene":0,"scenes":[{"name":"Root Scene","nodes":[0]}],"textures":[{"name":"base_color_texture","sampler":0,"source":0}]}