{"accessors":[{"bufferView":0,"byteOffset":0,"componentType":5123,"count":516,"type":"SCALAR"},{"bufferView":1,"byteOffset":0,"componentType":5126,"count":320,"max":[1.01047599315643,0.501242101192474,0.0358575657010078],"min":[-0.03585755825043,-0.03600313514471,-1.01047599315643],"type":"VEC3"},{"bufferView":2,"byteOffset":0,"componentType":5126,"count":320,"type":"VEC3"},{"bufferView":3,"byteOffset":0,"componentType":5126,"count":320,"type":"VEC2"}],"asset":{"generator":"FBX2glTF v0.13.1","version":"2.0"},"bufferViews":[{"buffer":0,"byteLength":1032,"byteOffset":0,"target":34963},{"buffer":0,"byteLength":3840,"byteOffset":1032,"target":34962},{"buffer":0,"byteLength":3840,"byteOffset":4872,"target":34962},{"buffer":0,"byteLength":2560,"byteOffset":8712,"target":34962}],"buffers":[{"byteLength":11272,"uri":"SM_fence_03.bin"}],"images":[{"name":"Polygon_Camping_Texture_vol2.0","uri":"Polygon_Camping_Texture_vol2.0.jpg"}],"materials":[{"alphaMode":"OPAQUE","doubleSided":false,"extras":{"fromFBX":{"isTruePBR":false,"shadingModel":"Phong"}},"name":"Material","pbrMetallicRoughness":{"baseColorFactor":[1,1,1,1],"baseColorTexture":{"index":0,"texCoord":0},"metallicFactor":0.400000005960464,"roughnessFactor":0.254953622817993}}],"meshes":[{"name":"fence_03","primitives":[{"attributes":{"NORMAL":2,"POSITION":1,"TEXCOORD_0":3},"indices":0,"material":0,"mode":4}]}],"nodes":[{"mesh":0,"name":"fence_03","rotation":[0,0,0,1],"scale":[1,1,1],"translation":[31.2168445587158,0.0360449999570847,-4.26633262634277]}],"samplers":[{}],"scene":0,"scenes":[{"name":"Root Scene","nodes":[0]}],"textures":[{"name":"base_color_texture","sampler":0,"source":0}]}