{"accessors":[{"bufferView":0,"byteOffset":0,"componentType":5123,"count":651,"type":"SCALAR"},{"bufferView":1,"byteOffset":0,"componentType":5126,"count":553,"max":[3.56894564628601,0.121000580489635,4.03205585479736],"min":[-4.43105459213257,-0.11751073598862,-3.96794462203979],"type":"VEC3"},{"bufferView":2,"byteOffset":0,"componentType":5126,"count":553,"type":"VEC3"},{"bufferView":3,"byteOffset":0,"componentType":5126,"count":553,"type":"VEC2"}],"asset":{"generator":"FBX2glTF v0.13.1","version":"2.0"},"bufferViews":[{"buffer":0,"byteLength":1302,"byteOffset":0,"target":34963},{"buffer":0,"byteLength":6636,"byteOffset":1304,"target":34962},{"buffer":0,"byteLength":6636,"byteOffset":7940,"target":34962},{"buffer":0,"byteLength":4424,"byteOffset":14576,"target":34962}],"buffers":[{"byteLength":19000,"uri":"SM_fields_02.bin"}],"images":[{"name":"Polygon_Camping_Texture_vol2.0","uri":"Polygon_Camping_Texture_vol2.0.jpg"}],"materials":[{"alphaMode":"OPAQUE","doubleSided":false,"extras":{"fromFBX":{"isTruePBR":false,"shadingModel":"Phong"}},"name":"Material","pbrMetallicRoughness":{"baseColorFactor":[1,1,1,1],"baseColorTexture":{"index":0,"texCoord":0},"metallicFactor":0.400000005960464,"roughnessFactor":0.254953622817993}}],"meshes":[{"name":"fields_02","primitives":[{"attributes":{"NORMAL":2,"POSITION":1,"TEXCOORD_0":3},"indices":0,"material":0,"mode":4}]}],"nodes":[{"mesh":0,"name":"fields_02","rotation":[0,0,0,1],"scale":[1,1,1],"translation":[57.9808006286621,0,0]}],"samplers":[{}],"scene":0,"scenes":[{"name":"Root Scene","nodes":[0]}],"textures":[{"name":"base_color_texture","sampler":0,"source":0}]}