{"accessors":[{"bufferView":0,"byteOffset":0,"componentType":5123,"count":2475,"type":"SCALAR"},{"bufferView":1,"byteOffset":0,"componentType":5126,"count":1301,"max":[5,4.6160192489624,2.99999952316284],"min":[-5,0,-2.99999952316284],"type":"VEC3"},{"bufferView":2,"byteOffset":0,"componentType":5126,"count":1301,"type":"VEC3"},{"bufferView":3,"byteOffset":0,"componentType":5126,"count":1301,"type":"VEC2"},{"bufferView":4,"byteOffset":0,"componentType":5123,"count":216,"type":"SCALAR"},{"bufferView":5,"byteOffset":0,"componentType":5126,"count":144,"max":[-3.09477877616882,2.1156153678894,2.79568958282471],"min":[-4.52511358261108,1.0783064365387,-2.78200554847717],"type":"VEC3"},{"bufferView":6,"byteOffset":0,"componentType":5126,"count":144,"type":"VEC3"},{"bufferView":7,"byteOffset":0,"componentType":5126,"count":144,"type":"VEC2"}],"asset":{"generator":"FBX2glTF v0.13.1","version":"2.0"},"bufferViews":[{"buffer":0,"byteLength":4950,"byteOffset":0,"target":34963},{"buffer":0,"byteLength":15612,"byteOffset":4952,"target":34962},{"buffer":0,"byteLength":15612,"byteOffset":20564,"target":34962},{"buffer":0,"byteLength":10408,"byteOffset":36176,"target":34962},{"buffer":0,"byteLength":432,"byteOffset":46584,"target":34963},{"buffer":0,"byteLength":1728,"byteOffset":47016,"target":34962},{"buffer":0,"byteLength":1728,"byteOffset":48744,"target":34962},{"buffer":0,"byteLength":1152,"byteOffset":50472,"target":34962}],"buffers":[{"byteLength":51624,"uri":"SM_garage.bin"}],"images":[{"name":"Polygon_Texture_vol2","uri":"Polygon_Texture_vol2.png"}],"materials":[{"alphaMode":"OPAQUE","doubleSided":false,"extras":{"fromFBX":{"isTruePBR":false,"shadingModel":"Phong"}},"name":"Material","pbrMetallicRoughness":{"baseColorFactor":[1,1,1,1],"baseColorTexture":{"index":0,"texCoord":0},"metallicFactor":0.400000005960464,"roughnessFactor":0.254953622817993}},{"alphaMode":"OPAQUE","doubleSided":false,"extras":{"fromFBX":{"isTruePBR":false,"shadingModel":"Phong"}},"name":"Material.001","pbrMetallicRoughness":{"baseColorFactor":[0.800000011920929,0.800000011920929,0.800000011920929,1],"metallicFactor":0.400000005960464,"roughnessFactor":0.272165536880493}}],"meshes":[{"name":"garage","primitives":[{"attributes":{"NORMAL":2,"POSITION":1,"TEXCOORD_0":3},"indices":0,"material":0,"mode":4},{"attributes":{"NORMAL":6,"POSITION":5,"TEXCOORD_0":7},"indices":4,"material":1,"mode":4}]}],"nodes":[{"mesh":0,"name":"garage","rotation":[0,0,0,1],"scale":[1,1,1],"translation":[124.460800170898,0,0]}],"samplers":[{}],"scene":0,"scenes":[{"name":"Root Scene","nodes":[0]}],"textures":[{"name":"base_color_texture","sampler":0,"source":0}]}