{"accessors":[{"bufferView":0,"byteOffset":0,"componentType":5123,"count":504,"type":"SCALAR"},{"bufferView":1,"byteOffset":0,"componentType":5126,"count":308,"max":[1.0793125629425,6.77741670608521,1.07931244373322],"min":[-1.07931244373322,0,-1.0793125629425],"type":"VEC3"},{"bufferView":2,"byteOffset":0,"componentType":5126,"count":308,"type":"VEC3"},{"bufferView":3,"byteOffset":0,"componentType":5126,"count":308,"type":"VEC2"}],"asset":{"generator":"FBX2glTF v0.13.1","version":"2.0"},"bufferViews":[{"buffer":0,"byteLength":1008,"byteOffset":0,"target":34963},{"buffer":0,"byteLength":3696,"byteOffset":1008,"target":34962},{"buffer":0,"byteLength":3696,"byteOffset":4704,"target":34962},{"buffer":0,"byteLength":2464,"byteOffset":8400,"target":34962}],"buffers":[{"byteLength":10864,"uri":"SM_granary.bin"}],"images":[{"name":"Polygon_Camping_Texture_vol2.0","uri":"Polygon_Camping_Texture_vol2.0.jpg"}],"materials":[{"alphaMode":"OPAQUE","doubleSided":false,"extras":{"fromFBX":{"isTruePBR":false,"shadingModel":"Phong"}},"name":"Material","pbrMetallicRoughness":{"baseColorFactor":[1,1,1,1],"baseColorTexture":{"index":0,"texCoord":0},"metallicFactor":0.400000005960464,"roughnessFactor":0.254953622817993}}],"meshes":[{"name":"granary","primitives":[{"attributes":{"NORMAL":2,"POSITION":1,"TEXCOORD_0":3},"indices":0,"material":0,"mode":4}]}],"nodes":[{"mesh":0,"name":"granary","rotation":[0,0,0,1],"scale":[1,1,1],"translation":[89.9358444213867,0,-0.04512442648411]}],"samplers":[{}],"scene":0,"scenes":[{"name":"Root Scene","nodes":[0]}],"textures":[{"name":"base_color_texture","sampler":0,"source":0}]}