{"accessors":[{"bufferView":0,"byteOffset":0,"componentType":5123,"count":2238,"type":"SCALAR"},{"bufferView":1,"byteOffset":0,"componentType":5126,"count":1404,"max":[2,2.99999952316284,2.00940990447998],"min":[-2,-0.00000017672177,-1.99058985710144],"type":"VEC3"},{"bufferView":2,"byteOffset":0,"componentType":5126,"count":1404,"type":"VEC3"},{"bufferView":3,"byteOffset":0,"componentType":5126,"count":1404,"type":"VEC2"}],"asset":{"generator":"FBX2glTF v0.13.1","version":"2.0"},"bufferViews":[{"buffer":0,"byteLength":4476,"byteOffset":0,"target":34963},{"buffer":0,"byteLength":16848,"byteOffset":4476,"target":34962},{"buffer":0,"byteLength":16848,"byteOffset":21324,"target":34962},{"buffer":0,"byteLength":11232,"byteOffset":38172,"target":34962}],"buffers":[{"byteLength":49404,"uri":"SM_greenhous.bin"}],"images":[{"name":"Polygon_Camping_Texture_vol2.0","uri":"Polygon_Camping_Texture_vol2.0.jpg"}],"materials":[{"alphaMode":"OPAQUE","doubleSided":false,"extras":{"fromFBX":{"isTruePBR":false,"shadingModel":"Phong"}},"name":"Material","pbrMetallicRoughness":{"baseColorFactor":[1,1,1,1],"baseColorTexture":{"index":0,"texCoord":0},"metallicFactor":0.400000005960464,"roughnessFactor":0.254953622817993}}],"meshes":[{"name":"greenhous","primitives":[{"attributes":{"NORMAL":2,"POSITION":1,"TEXCOORD_0":3},"indices":0,"material":0,"mode":4}]}],"nodes":[{"mesh":0,"name":"greenhous","rotation":[0,0,0,1],"scale":[1,1,1],"translation":[101.777282714844,0,0]}],"samplers":[{}],"scene":0,"scenes":[{"name":"Root Scene","nodes":[0]}],"textures":[{"name":"base_color_texture","sampler":0,"source":0}]}