{"accessors":[{"bufferView":0,"byteOffset":0,"componentType":5123,"count":240,"type":"SCALAR"},{"bufferView":1,"byteOffset":0,"componentType":5126,"count":240,"max":[1.24564385414124,0.287422358989716,2.31930208206177],"min":[-1.3696311712265,-0.00163625634741,-2.27630758285522],"type":"VEC3"},{"bufferView":2,"byteOffset":0,"componentType":5126,"count":240,"type":"VEC3"},{"bufferView":3,"byteOffset":0,"componentType":5126,"count":240,"type":"VEC2"}],"asset":{"generator":"FBX2glTF v0.13.1","version":"2.0"},"bufferViews":[{"buffer":0,"byteLength":480,"byteOffset":0,"target":34963},{"buffer":0,"byteLength":2880,"byteOffset":480,"target":34962},{"buffer":0,"byteLength":2880,"byteOffset":3360,"target":34962},{"buffer":0,"byteLength":1920,"byteOffset":6240,"target":34962}],"buffers":[{"byteLength":8160,"uri":"SM_haystack_03.bin"}],"images":[{"name":"Polygon_Camping_Texture_vol2.0","uri":"Polygon_Camping_Texture_vol2.0.jpg"}],"materials":[{"alphaMode":"OPAQUE","doubleSided":false,"extras":{"fromFBX":{"isTruePBR":false,"shadingModel":"Phong"}},"name":"Material","pbrMetallicRoughness":{"baseColorFactor":[1,1,1,1],"baseColorTexture":{"index":0,"texCoord":0},"metallicFactor":0.400000005960464,"roughnessFactor":0.254953622817993}}],"meshes":[{"name":"haystack_03","primitives":[{"attributes":{"NORMAL":2,"POSITION":1,"TEXCOORD_0":3},"indices":0,"material":0,"mode":4}]}],"nodes":[{"mesh":0,"name":"haystack_03","rotation":[0,0,0,1],"scale":[1,1,1],"translation":[40.8463668823242,0,0]}],"samplers":[{}],"scene":0,"scenes":[{"name":"Root Scene","nodes":[0]}],"textures":[{"name":"base_color_texture","sampler":0,"source":0}]}