{"accessors":[{"bufferView":0,"byteOffset":0,"componentType":5123,"count":8226,"type":"SCALAR"},{"bufferView":1,"byteOffset":0,"componentType":5126,"count":4908,"max":[3.50824785232544,1.65324449539185,6.83525371551514],"min":[-3.50824785232544,-1.71982383728027,-3.98395323753357],"type":"VEC3"},{"bufferView":2,"byteOffset":0,"componentType":5126,"count":4908,"type":"VEC3"},{"bufferView":3,"byteOffset":0,"componentType":5126,"count":4908,"type":"VEC2"},{"bufferView":4,"byteOffset":0,"componentType":5123,"count":4272,"type":"SCALAR"},{"bufferView":5,"byteOffset":0,"componentType":5126,"count":2868,"max":[0.319838106632233,0.678932845592499,0.68540745973587],"min":[-0.32037848234177,-0.68840527534485,-0.68543553352356],"type":"VEC3"},{"bufferView":6,"byteOffset":0,"componentType":5126,"count":2868,"type":"VEC3"},{"bufferView":7,"byteOffset":0,"componentType":5126,"count":2868,"type":"VEC2"},{"bufferView":8,"byteOffset":0,"componentType":5123,"count":4272,"type":"SCALAR"},{"bufferView":9,"byteOffset":0,"componentType":5126,"count":2856,"max":[0.232340276241302,0.492366939783096,0.497060298919678],"min":[-0.231948107481,-0.49923413991928,-0.49708235263825],"type":"VEC3"},{"bufferView":10,"byteOffset":0,"componentType":5126,"count":2856,"type":"VEC3"},{"bufferView":11,"byteOffset":0,"componentType":5126,"count":2856,"type":"VEC2"},{"bufferView":12,"byteOffset":0,"componentType":5123,"count":4272,"type":"SCALAR"},{"bufferView":13,"byteOffset":0,"componentType":5126,"count":2856,"max":[0.231948107481003,0.492366939783096,0.497060298919678],"min":[-0.2323402762413,-0.49923413991928,-0.49708235263825],"type":"VEC3"},{"bufferView":14,"byteOffset":0,"componentType":5126,"count":2856,"type":"VEC3"},{"bufferView":15,"byteOffset":0,"componentType":5126,"count":2856,"type":"VEC2"},{"bufferView":16,"byteOffset":0,"componentType":5123,"count":4272,"type":"SCALAR"},{"bufferView":17,"byteOffset":0,"componentType":5126,"count":2868,"max":[0.320378482341766,0.678932845592499,0.68540745973587],"min":[-0.31983810663223,-0.68840527534485,-0.68543553352356],"type":"VEC3"},{"bufferView":18,"byteOffset":0,"componentType":5126,"count":2868,"type":"VEC3"},{"bufferView":19,"byteOffset":0,"componentType":5126,"count":2868,"type":"VEC2"},{"bufferView":20,"byteOffset":0,"componentType":5123,"count":42,"type":"SCALAR"},{"bufferView":21,"byteOffset":0,"componentType":5126,"count":28,"max":[2.00016355514526,1.37838447093964,4.22620820999146],"min":[-2.00016355514526,-0.24662984907627,2.65987229347229],"type":"VEC3"},{"bufferView":22,"byteOffset":0,"componentType":5126,"count":28,"type":"VEC3"},{"bufferView":23,"byteOffset":0,"componentType":5126,"count":28,"type":"VEC2"},{"bufferView":24,"byteOffset":0,"componentType":5123,"count":840,"type":"SCALAR"},{"bufferView":25,"byteOffset":0,"componentType":5126,"count":536,"max":[1.17001295089722,1.77750146389008,4.04167747497559],"min":[-1.17001295089722,-0.49797773361206,3.50000691413879],"type":"VEC3"},{"bufferView":26,"byteOffset":0,"componentType":5126,"count":536,"type":"VEC3"},{"bufferView":27,"byteOffset":0,"componentType":5126,"count":536,"type":"VEC2"}],"asset":{"generator":"FBX2glTF v0.13.1","version":"2.0"},"bufferViews":[{"buffer":0,"byteLength":16452,"byteOffset":0,"target":34963},{"buffer":0,"byteLength":58896,"byteOffset":16452,"target":34962},{"buffer":0,"byteLength":58896,"byteOffset":75348,"target":34962},{"buffer":0,"byteLength":39264,"byteOffset":134244,"target":34962},{"buffer":0,"byteLength":8544,"byteOffset":173508,"target":34963},{"buffer":0,"byteLength":34416,"byteOffset":182052,"target":34962},{"buffer":0,"byteLength":34416,"byteOffset":216468,"target":34962},{"buffer":0,"byteLength":22944,"byteOffset":250884,"target":34962},{"buffer":0,"byteLength":8544,"byteOffset":273828,"target":34963},{"buffer":0,"byteLength":34272,"byteOffset":282372,"target":34962},{"buffer":0,"byteLength":34272,"byteOffset":316644,"target":34962},{"buffer":0,"byteLength":22848,"byteOffset":350916,"target":34962},{"buffer":0,"byteLength":8544,"byteOffset":373764,"target":34963},{"buffer":0,"byteLength":34272,"byteOffset":382308,"target":34962},{"buffer":0,"byteLength":34272,"byteOffset":416580,"target":34962},{"buffer":0,"byteLength":22848,"byteOffset":450852,"target":34962},{"buffer":0,"byteLength":8544,"byteOffset":473700,"target":34963},{"buffer":0,"byteLength":34416,"byteOffset":482244,"target":34962},{"buffer":0,"byteLength":34416,"byteOffset":516660,"target":34962},{"buffer":0,"byteLength":22944,"byteOffset":551076,"target":34962},{"buffer":0,"byteLength":84,"byteOffset":574020,"target":34963},{"buffer":0,"byteLength":336,"byteOffset":574104,"target":34962},{"buffer":0,"byteLength":336,"byteOffset":574440,"target":34962},{"buffer":0,"byteLength":224,"byteOffset":574776,"target":34962},{"buffer":0,"byteLength":1680,"byteOffset":575000,"target":34963},{"buffer":0,"byteLength":6432,"byteOffset":576680,"target":34962},{"buffer":0,"byteLength":6432,"byteOffset":583112,"target":34962},{"buffer":0,"byteLength":4288,"byteOffset":589544,"target":34962}],"buffers":[{"byteLength":593832,"uri":"SM_harvester.bin"}],"images":[{"name":"Polygon_Texture_vol2","uri":"Polygon_Texture_vol2.png"}],"materials":[{"alphaMode":"OPAQUE","doubleSided":false,"extras":{"fromFBX":{"isTruePBR":false,"shadingModel":"Phong"}},"name":"Material","pbrMetallicRoughness":{"baseColorFactor":[1,1,1,1],"baseColorTexture":{"index":0,"texCoord":0},"metallicFactor":0.400000005960464,"roughnessFactor":0.254953622817993}},{"alphaMode":"OPAQUE","doubleSided":false,"extras":{"fromFBX":{"isTruePBR":false,"shadingModel":"Phong"}},"name":"Material.001","pbrMetallicRoughness":{"baseColorFactor":[0.800000011920929,0.800000011920929,0.800000011920929,1],"metallicFactor":0.400000005960464,"roughnessFactor":0.272165536880493}},{"alphaMode":"OPAQUE","doubleSided":false,"extras":{"fromFBX":{"isTruePBR":false,"shadingModel":"Phong"}},"name":"Material.002","pbrMetallicRoughness":{"baseColorFactor":[0.800000011920929,0.800000011920929,0.800000011920929,1],"metallicFactor":0.400000005960464,"roughnessFactor":0.272165536880493}}],"meshes":[{"name":"harvester","primitives":[{"attributes":{"NORMAL":2,"POSITION":1,"TEXCOORD_0":3},"indices":0,"material":0,"mode":4},{"attributes":{"NORMAL":22,"POSITION":21,"TEXCOORD_0":23},"indices":20,"material":1,"mode":4},{"attributes":{"NORMAL":26,"POSITION":25,"TEXCOORD_0":27},"indices":24,"material":2,"mode":4}]},{"name":"wheel_05","primitives":[{"attributes":{"NORMAL":6,"POSITION":5,"TEXCOORD_0":7},"indices":4,"material":0,"mode":4}]},{"name":"wheel_06","primitives":[{"attributes":{"NORMAL":10,"POSITION":9,"TEXCOORD_0":11},"indices":8,"material":0,"mode":4}]},{"name":"wheel_07","primitives":[{"attributes":{"NORMAL":14,"POSITION":13,"TEXCOORD_0":15},"indices":12,"material":0,"mode":4}]},{"name":"wheel_04","primitives":[{"attributes":{"NORMAL":18,"POSITION":17,"TEXCOORD_0":19},"indices":16,"material":0,"mode":4}]}],"nodes":[{"children":[1,2,3,4],"mesh":0,"name":"harvester","rotation":[0,0,0,1],"scale":[1,1,1],"translation":[11.57799243927,1.93218302726746,-5.42085456848145]},{"mesh":1,"name":"wheel_05","rotation":[0,0,0,1],"scale":[1,1,1],"translation":[-1.097132563591,-1.20539963245392,2.74131011962891]},{"mesh":2,"name":"wheel_06","rotation":[0,0,0,1],"scale":[1,1,1],"translation":[1.02712035179138,-1.36675071716309,-1.33959650993347]},{"mesh":3,"name":"wheel_07","rotation":[0,0,0,1],"scale":[1,1,1],"translation":[-1.02709472179413,-1.36675071716309,-1.33959650993347]},{"mesh":4,"name":"wheel_04","rotation":[0,0,0,1],"scale":[1,1,1],"translation":[1.09715819358826,-1.20539963245392,2.74131011962891]}],"samplers":[{}],"scene":0,"scenes":[{"name":"Root Scene","nodes":[0]}],"textures":[{"name":"base_color_texture","sampler":0,"source":0}]}