{"accessors":[{"bufferView":0,"byteOffset":0,"componentType":5123,"count":3642,"type":"SCALAR"},{"bufferView":1,"byteOffset":0,"componentType":5126,"count":2113,"max":[5,6.76221418380737,5.98408126831055],"min":[-5,0,-6.01591825485229],"type":"VEC3"},{"bufferView":2,"byteOffset":0,"componentType":5126,"count":2113,"type":"VEC3"},{"bufferView":3,"byteOffset":0,"componentType":5126,"count":2113,"type":"VEC2"},{"bufferView":4,"byteOffset":0,"componentType":5123,"count":216,"type":"SCALAR"},{"bufferView":5,"byteOffset":0,"componentType":5126,"count":144,"max":[4.69879627227783,2.24019765853882,-1.97789835929871],"min":[-4.69879627227783,1.01487994194031,-4.97406101226807],"type":"VEC3"},{"bufferView":6,"byteOffset":0,"componentType":5126,"count":144,"type":"VEC3"},{"bufferView":7,"byteOffset":0,"componentType":5126,"count":144,"type":"VEC2"}],"asset":{"generator":"FBX2glTF v0.13.1","version":"2.0"},"bufferViews":[{"buffer":0,"byteLength":7284,"byteOffset":0,"target":34963},{"buffer":0,"byteLength":25356,"byteOffset":7284,"target":34962},{"buffer":0,"byteLength":25356,"byteOffset":32640,"target":34962},{"buffer":0,"byteLength":16904,"byteOffset":57996,"target":34962},{"buffer":0,"byteLength":432,"byteOffset":74900,"target":34963},{"buffer":0,"byteLength":1728,"byteOffset":75332,"target":34962},{"buffer":0,"byteLength":1728,"byteOffset":77060,"target":34962},{"buffer":0,"byteLength":1152,"byteOffset":78788,"target":34962}],"buffers":[{"byteLength":79940,"uri":"SM_hangar.bin"}],"images":[{"name":"Polygon_Texture_vol2","uri":"Polygon_Texture_vol2.png"}],"materials":[{"alphaMode":"OPAQUE","doubleSided":false,"extras":{"fromFBX":{"isTruePBR":false,"shadingModel":"Phong"}},"name":"Material","pbrMetallicRoughness":{"baseColorFactor":[1,1,1,1],"baseColorTexture":{"index":0,"texCoord":0},"metallicFactor":0.400000005960464,"roughnessFactor":0.254953622817993}},{"alphaMode":"OPAQUE","doubleSided":false,"extras":{"fromFBX":{"isTruePBR":false,"shadingModel":"Phong"}},"name":"Material.001","pbrMetallicRoughness":{"baseColorFactor":[0.800000011920929,0.800000011920929,0.800000011920929,1],"metallicFactor":0.400000005960464,"roughnessFactor":0.272165536880493}}],"meshes":[{"name":"hangar","primitives":[{"attributes":{"NORMAL":2,"POSITION":1,"TEXCOORD_0":3},"indices":0,"material":0,"mode":4},{"attributes":{"NORMAL":6,"POSITION":5,"TEXCOORD_0":7},"indices":4,"material":1,"mode":4}]}],"nodes":[{"mesh":0,"name":"hangar","rotation":[0,0,0,1],"scale":[1,1,1],"translation":[139.545288085938,0,0]}],"samplers":[{}],"scene":0,"scenes":[{"name":"Root Scene","nodes":[0]}],"textures":[{"name":"base_color_texture","sampler":0,"source":0}]}