{"accessors":[{"bufferView":0,"byteOffset":0,"componentType":5123,"count":126,"type":"SCALAR"},{"bufferView":1,"byteOffset":0,"componentType":5126,"count":126,"max":[0.888516366481781,1.2615373134613,1.04726946353912],"min":[-0.90644818544388,-0.01566705480218,-0.95244634151459],"type":"VEC3"},{"bufferView":2,"byteOffset":0,"componentType":5126,"count":126,"type":"VEC3"},{"bufferView":3,"byteOffset":0,"componentType":5126,"count":126,"type":"VEC2"}],"asset":{"generator":"FBX2glTF v0.13.1","version":"2.0"},"bufferViews":[{"buffer":0,"byteLength":252,"byteOffset":0,"target":34963},{"buffer":0,"byteLength":1512,"byteOffset":252,"target":34962},{"buffer":0,"byteLength":1512,"byteOffset":1764,"target":34962},{"buffer":0,"byteLength":1008,"byteOffset":3276,"target":34962}],"buffers":[{"byteLength":4284,"uri":"SM_haystack_02.bin"}],"images":[{"name":"Polygon_Camping_Texture_vol2.0","uri":"Polygon_Camping_Texture_vol2.0.jpg"}],"materials":[{"alphaMode":"OPAQUE","doubleSided":false,"extras":{"fromFBX":{"isTruePBR":false,"shadingModel":"Phong"}},"name":"Material","pbrMetallicRoughness":{"baseColorFactor":[1,1,1,1],"baseColorTexture":{"index":0,"texCoord":0},"metallicFactor":0.400000005960464,"roughnessFactor":0.254953622817993}}],"meshes":[{"name":"haystack_02","primitives":[{"attributes":{"NORMAL":2,"POSITION":1,"TEXCOORD_0":3},"indices":0,"material":0,"mode":4}]}],"nodes":[{"mesh":0,"name":"haystack_02","rotation":[0,0,0,1],"scale":[1,1,1],"translation":[43.7102584838867,0,0]}],"samplers":[{}],"scene":0,"scenes":[{"name":"Root Scene","nodes":[0]}],"textures":[{"name":"base_color_texture","sampler":0,"source":0}]}