{"accessors":[{"bufferView":0,"byteOffset":0,"componentType":5123,"count":558,"type":"SCALAR"},{"bufferView":1,"byteOffset":0,"componentType":5126,"count":525,"max":[0.5,0.158760234713554,1],"min":[-0.5,-0.09999999403954,-1.00403022766113],"type":"VEC3"},{"bufferView":2,"byteOffset":0,"componentType":5126,"count":525,"type":"VEC3"},{"bufferView":3,"byteOffset":0,"componentType":5126,"count":525,"type":"VEC2"}],"asset":{"generator":"FBX2glTF v0.13.1","version":"2.0"},"bufferViews":[{"buffer":0,"byteLength":1116,"byteOffset":0,"target":34963},{"buffer":0,"byteLength":6300,"byteOffset":1116,"target":34962},{"buffer":0,"byteLength":6300,"byteOffset":7416,"target":34962},{"buffer":0,"byteLength":4200,"byteOffset":13716,"target":34962}],"buffers":[{"byteLength":17916,"uri":"SM_other_crops.bin"}],"images":[{"name":"Polygon_Camping_Texture_vol2.0","uri":"Polygon_Camping_Texture_vol2.0.jpg"}],"materials":[{"alphaMode":"OPAQUE","doubleSided":false,"extras":{"fromFBX":{"isTruePBR":false,"shadingModel":"Phong"}},"name":"Material","pbrMetallicRoughness":{"baseColorFactor":[1,1,1,1],"baseColorTexture":{"index":0,"texCoord":0},"metallicFactor":0.400000005960464,"roughnessFactor":0.254953622817993}}],"meshes":[{"name":"other_crops","primitives":[{"attributes":{"NORMAL":2,"POSITION":1,"TEXCOORD_0":3},"indices":0,"material":0,"mode":4}]}],"nodes":[{"mesh":0,"name":"other_crops","rotation":[0,0,0,1],"scale":[1,1,1],"translation":[48.0542755126953,0,0]}],"samplers":[{}],"scene":0,"scenes":[{"name":"Root Scene","nodes":[0]}],"textures":[{"name":"base_color_texture","sampler":0,"source":0}]}