{"accessors":[{"bufferView":0,"byteOffset":0,"componentType":5123,"count":3876,"type":"SCALAR"},{"bufferView":1,"byteOffset":0,"componentType":5126,"count":2384,"max":[1.15395903587341,0.340789943933487,2.13066935539246],"min":[-1.12843537330627,-1.04433965682983,-0.62394177913666],"type":"VEC3"},{"bufferView":2,"byteOffset":0,"componentType":5126,"count":2384,"type":"VEC3"},{"bufferView":3,"byteOffset":0,"componentType":5126,"count":2384,"type":"VEC2"},{"bufferView":4,"byteOffset":0,"componentType":5123,"count":636,"type":"SCALAR"},{"bufferView":5,"byteOffset":0,"componentType":5126,"count":367,"max":[-1.14119720458984,0.281447619199753,0.281446784734726],"min":[-1.38904106616974,-0.2814474105835,-0.28144815564156],"type":"VEC3"},{"bufferView":6,"byteOffset":0,"componentType":5126,"count":367,"type":"VEC3"},{"bufferView":7,"byteOffset":0,"componentType":5126,"count":367,"type":"VEC2"},{"bufferView":8,"byteOffset":0,"componentType":5123,"count":636,"type":"SCALAR"},{"bufferView":9,"byteOffset":0,"componentType":5126,"count":383,"max":[1.38904106616974,0.281447410583496,0.281448066234589],"min":[1.14119720458984,-0.28144752979279,-0.28144690394402],"type":"VEC3"},{"bufferView":10,"byteOffset":0,"componentType":5126,"count":383,"type":"VEC3"},{"bufferView":11,"byteOffset":0,"componentType":5126,"count":383,"type":"VEC2"}],"asset":{"generator":"FBX2glTF v0.13.1","version":"2.0"},"bufferViews":[{"buffer":0,"byteLength":7752,"byteOffset":0,"target":34963},{"buffer":0,"byteLength":28608,"byteOffset":7752,"target":34962},{"buffer":0,"byteLength":28608,"byteOffset":36360,"target":34962},{"buffer":0,"byteLength":19072,"byteOffset":64968,"target":34962},{"buffer":0,"byteLength":1272,"byteOffset":84040,"target":34963},{"buffer":0,"byteLength":4404,"byteOffset":85312,"target":34962},{"buffer":0,"byteLength":4404,"byteOffset":89716,"target":34962},{"buffer":0,"byteLength":2936,"byteOffset":94120,"target":34962},{"buffer":0,"byteLength":1272,"byteOffset":97056,"target":34963},{"buffer":0,"byteLength":4596,"byteOffset":98328,"target":34962},{"buffer":0,"byteLength":4596,"byteOffset":102924,"target":34962},{"buffer":0,"byteLength":3064,"byteOffset":107520,"target":34962}],"buffers":[{"byteLength":110584,"uri":"SM_plow_03.bin"}],"images":[{"name":"Polygon_Texture_vol2","uri":"Polygon_Texture_vol2.png"}],"materials":[{"alphaMode":"OPAQUE","doubleSided":false,"extras":{"fromFBX":{"isTruePBR":false,"shadingModel":"Phong"}},"name":"Material","pbrMetallicRoughness":{"baseColorFactor":[1,1,1,1],"baseColorTexture":{"index":0,"texCoord":0},"metallicFactor":0.400000005960464,"roughnessFactor":0.254953622817993}}],"meshes":[{"name":"plow_03","primitives":[{"attributes":{"NORMAL":2,"POSITION":1,"TEXCOORD_0":3},"indices":0,"material":0,"mode":4}]},{"name":"wheel_08","primitives":[{"attributes":{"NORMAL":6,"POSITION":5,"TEXCOORD_0":7},"indices":4,"material":0,"mode":4}]},{"name":"wheel_08.001","primitives":[{"attributes":{"NORMAL":10,"POSITION":9,"TEXCOORD_0":11},"indices":8,"material":0,"mode":4}]}],"nodes":[{"children":[1,2],"mesh":0,"name":"plow_03","rotation":[0,0,0,1],"scale":[1,1,1],"translation":[19.5826416015625,1.11106359958649,-1.98331391811371]},{"mesh":1,"name":"wheel_08","rotation":[0,0,0,1],"scale":[1,1,1],"translation":[0.0127636715769768,-0.82897001504898,-0.25201949477196]},{"mesh":2,"name":"wheel_08.001","rotation":[0,0,0,1],"scale":[1,1,1],"translation":[0.0127636715769768,-0.82897001504898,-0.25201949477196]}],"samplers":[{}],"scene":0,"scenes":[{"name":"Root Scene","nodes":[0]}],"textures":[{"name":"base_color_texture","sampler":0,"source":0}]}