{"accessors":[{"bufferView":0,"byteOffset":0,"componentType":5123,"count":1422,"type":"SCALAR"},{"bufferView":1,"byteOffset":0,"componentType":5126,"count":928,"max":[0.193592831492424,0.235751509666443,0.193592816591263],"min":[-0.19359275698662,-0.14987383782864,-0.19359277188778],"type":"VEC3"},{"bufferView":2,"byteOffset":0,"componentType":5126,"count":928,"type":"VEC3"},{"bufferView":3,"byteOffset":0,"componentType":5126,"count":928,"type":"VEC2"}],"asset":{"generator":"FBX2glTF v0.13.1","version":"2.0"},"bufferViews":[{"buffer":0,"byteLength":2844,"byteOffset":0,"target":34963},{"buffer":0,"byteLength":11136,"byteOffset":2844,"target":34962},{"buffer":0,"byteLength":11136,"byteOffset":13980,"target":34962},{"buffer":0,"byteLength":7424,"byteOffset":25116,"target":34962}],"buffers":[{"byteLength":32540,"uri":"SM_pumpkin.bin"}],"images":[{"name":"Polygon_Camping_Texture_vol2.0","uri":"Polygon_Camping_Texture_vol2.0.jpg"}],"materials":[{"alphaMode":"OPAQUE","doubleSided":false,"extras":{"fromFBX":{"isTruePBR":false,"shadingModel":"Phong"}},"name":"Material","pbrMetallicRoughness":{"baseColorFactor":[1,1,1,1],"baseColorTexture":{"index":0,"texCoord":0},"metallicFactor":0.400000005960464,"roughnessFactor":0.254953622817993}}],"meshes":[{"name":"pumpkin","primitives":[{"attributes":{"NORMAL":2,"POSITION":1,"TEXCOORD_0":3},"indices":0,"material":0,"mode":4}]}],"nodes":[{"mesh":0,"name":"pumpkin","rotation":[0,0,0,1],"scale":[1,1,1],"translation":[50.1634216308594,0.17409211397171,0]}],"samplers":[{}],"scene":0,"scenes":[{"name":"Root Scene","nodes":[0]}],"textures":[{"name":"base_color_texture","sampler":0,"source":0}]}