{"accessors":[{"bufferView":0,"byteOffset":0,"componentType":5123,"count":1050,"type":"SCALAR"},{"bufferView":1,"byteOffset":0,"componentType":5126,"count":630,"max":[1.99999976158142,4.32754945755005,3.1375732421875],"min":[-1.99999976158142,0,-2.86242628097534],"type":"VEC3"},{"bufferView":2,"byteOffset":0,"componentType":5126,"count":630,"type":"VEC3"},{"bufferView":3,"byteOffset":0,"componentType":5126,"count":630,"type":"VEC2"},{"bufferView":4,"byteOffset":0,"componentType":5123,"count":24,"type":"SCALAR"},{"bufferView":5,"byteOffset":0,"componentType":5126,"count":16,"max":[1.81720089912415,2.14937496185303,1.41246104240417],"min":[-1.81720089912415,1.05879878997803,-1.18671226501465],"type":"VEC3"},{"bufferView":6,"byteOffset":0,"componentType":5126,"count":16,"type":"VEC3"},{"bufferView":7,"byteOffset":0,"componentType":5126,"count":16,"type":"VEC2"}],"asset":{"generator":"FBX2glTF v0.13.1","version":"2.0"},"bufferViews":[{"buffer":0,"byteLength":2100,"byteOffset":0,"target":34963},{"buffer":0,"byteLength":7560,"byteOffset":2100,"target":34962},{"buffer":0,"byteLength":7560,"byteOffset":9660,"target":34962},{"buffer":0,"byteLength":5040,"byteOffset":17220,"target":34962},{"buffer":0,"byteLength":48,"byteOffset":22260,"target":34963},{"buffer":0,"byteLength":192,"byteOffset":22308,"target":34962},{"buffer":0,"byteLength":192,"byteOffset":22500,"target":34962},{"buffer":0,"byteLength":128,"byteOffset":22692,"target":34962}],"buffers":[{"byteLength":22820,"uri":"SM_pantry.bin"}],"images":[{"name":"Polygon_Texture_vol2","uri":"Polygon_Texture_vol2.png"}],"materials":[{"alphaMode":"OPAQUE","doubleSided":false,"extras":{"fromFBX":{"isTruePBR":false,"shadingModel":"Phong"}},"name":"Material","pbrMetallicRoughness":{"baseColorFactor":[1,1,1,1],"baseColorTexture":{"index":0,"texCoord":0},"metallicFactor":0.400000005960464,"roughnessFactor":0.254953622817993}},{"alphaMode":"OPAQUE","doubleSided":false,"extras":{"fromFBX":{"isTruePBR":false,"shadingModel":"Phong"}},"name":"Material.001","pbrMetallicRoughness":{"baseColorFactor":[0.800000011920929,0.800000011920929,0.800000011920929,1],"metallicFactor":0.400000005960464,"roughnessFactor":0.272165536880493}}],"meshes":[{"name":"pantry","primitives":[{"attributes":{"NORMAL":2,"POSITION":1,"TEXCOORD_0":3},"indices":0,"material":0,"mode":4},{"attributes":{"NORMAL":6,"POSITION":5,"TEXCOORD_0":7},"indices":4,"material":1,"mode":4}]}],"nodes":[{"mesh":0,"name":"pantry","rotation":[0,0,0,1],"scale":[1,1,1],"translation":[96.4838638305664,-0.16452729701996,0.612569689750671]}],"samplers":[{}],"scene":0,"scenes":[{"name":"Root Scene","nodes":[0]}],"textures":[{"name":"base_color_texture","sampler":0,"source":0}]}