{"accessors":[{"bufferView":0,"byteOffset":0,"componentType":5123,"count":3384,"type":"SCALAR"},{"bufferView":1,"byteOffset":0,"componentType":5126,"count":1940,"max":[1.34925210475922,0.144834503531456,0.27177831530571],"min":[-1.39539933204651,-0.82841545343399,-2.09641361236572],"type":"VEC3"},{"bufferView":2,"byteOffset":0,"componentType":5126,"count":1940,"type":"VEC3"},{"bufferView":3,"byteOffset":0,"componentType":5126,"count":1940,"type":"VEC2"},{"bufferView":4,"byteOffset":0,"componentType":5123,"count":468,"type":"SCALAR"},{"bufferView":5,"byteOffset":0,"componentType":5126,"count":256,"max":[-1.37232673168182,0.195096850395203,0.194927930831909],"min":[-1.43811058998108,-0.19509707391262,-0.1952657699585],"type":"VEC3"},{"bufferView":6,"byteOffset":0,"componentType":5126,"count":256,"type":"VEC3"},{"bufferView":7,"byteOffset":0,"componentType":5126,"count":256,"type":"VEC2"},{"bufferView":8,"byteOffset":0,"componentType":5123,"count":468,"type":"SCALAR"},{"bufferView":9,"byteOffset":0,"componentType":5126,"count":273,"max":[1.43810892105103,0.195096850395203,0.195266246795654],"min":[1.37232494354248,-0.19509707391262,-0.19492743909359],"type":"VEC3"},{"bufferView":10,"byteOffset":0,"componentType":5126,"count":273,"type":"VEC3"},{"bufferView":11,"byteOffset":0,"componentType":5126,"count":273,"type":"VEC2"}],"asset":{"generator":"FBX2glTF v0.13.1","version":"2.0"},"bufferViews":[{"buffer":0,"byteLength":6768,"byteOffset":0,"target":34963},{"buffer":0,"byteLength":23280,"byteOffset":6768,"target":34962},{"buffer":0,"byteLength":23280,"byteOffset":30048,"target":34962},{"buffer":0,"byteLength":15520,"byteOffset":53328,"target":34962},{"buffer":0,"byteLength":936,"byteOffset":68848,"target":34963},{"buffer":0,"byteLength":3072,"byteOffset":69784,"target":34962},{"buffer":0,"byteLength":3072,"byteOffset":72856,"target":34962},{"buffer":0,"byteLength":2048,"byteOffset":75928,"target":34962},{"buffer":0,"byteLength":936,"byteOffset":77976,"target":34963},{"buffer":0,"byteLength":3276,"byteOffset":78912,"target":34962},{"buffer":0,"byteLength":3276,"byteOffset":82188,"target":34962},{"buffer":0,"byteLength":2184,"byteOffset":85464,"target":34962}],"buffers":[{"byteLength":87648,"uri":"SM_plow_02.bin"}],"images":[{"name":"Polygon_Texture_vol2","uri":"Polygon_Texture_vol2.png"}],"materials":[{"alphaMode":"OPAQUE","doubleSided":false,"extras":{"fromFBX":{"isTruePBR":false,"shadingModel":"Phong"}},"name":"Material","pbrMetallicRoughness":{"baseColorFactor":[1,1,1,1],"baseColorTexture":{"index":0,"texCoord":0},"metallicFactor":0.400000005960464,"roughnessFactor":0.254953622817993}}],"meshes":[{"name":"plow_02","primitives":[{"attributes":{"NORMAL":2,"POSITION":1,"TEXCOORD_0":3},"indices":0,"material":0,"mode":4}]},{"name":"wheel_011","primitives":[{"attributes":{"NORMAL":6,"POSITION":5,"TEXCOORD_0":7},"indices":4,"material":0,"mode":4}]},{"name":"wheel_011.001","primitives":[{"attributes":{"NORMAL":10,"POSITION":9,"TEXCOORD_0":11},"indices":8,"material":0,"mode":4}]}],"nodes":[{"children":[1,2],"mesh":0,"name":"plow_02","rotation":[0,0,0,1],"scale":[1,1,1],"translation":[24.8610858917236,0.829448580741882,-0.20827887952328]},{"mesh":1,"name":"wheel_011","rotation":[0,0,0,1],"scale":[1,1,1],"translation":[-0.02307372912765,-0.62653142213821,-1.4870730638504]},{"mesh":2,"name":"wheel_011.001","rotation":[0,0,0,1],"scale":[1,1,1],"translation":[-0.02307372912765,-0.62653142213821,-1.4870730638504]}],"samplers":[{}],"scene":0,"scenes":[{"name":"Root Scene","nodes":[0]}],"textures":[{"name":"base_color_texture","sampler":0,"source":0}]}