{"accessors":[{"bufferView":0,"byteOffset":0,"componentType":5123,"count":2844,"type":"SCALAR"},{"bufferView":1,"byteOffset":0,"componentType":5126,"count":1620,"max":[1.78583228588104,0.144834503531456,0.27177831530571],"min":[-0.76962673664093,-0.82823538780212,-3.56060457229614],"type":"VEC3"},{"bufferView":2,"byteOffset":0,"componentType":5126,"count":1620,"type":"VEC3"},{"bufferView":3,"byteOffset":0,"componentType":5126,"count":1620,"type":"VEC2"},{"bufferView":4,"byteOffset":0,"componentType":5123,"count":468,"type":"SCALAR"},{"bufferView":5,"byteOffset":0,"componentType":5126,"count":274,"max":[0.0182393789291382,0.195097073912621,0.195096969604492],"min":[-0.04754447937012,-0.1950968503952,-0.19509673118591],"type":"VEC3"},{"bufferView":6,"byteOffset":0,"componentType":5126,"count":274,"type":"VEC3"},{"bufferView":7,"byteOffset":0,"componentType":5126,"count":274,"type":"VEC2"},{"bufferView":8,"byteOffset":0,"componentType":5123,"count":468,"type":"SCALAR"},{"bufferView":9,"byteOffset":0,"componentType":5126,"count":253,"max":[0.0475449562072754,0.195097073912621,0.195096850395203],"min":[-0.01823890209198,-0.1950968503952,-0.19509696960449],"type":"VEC3"},{"bufferView":10,"byteOffset":0,"componentType":5126,"count":253,"type":"VEC3"},{"bufferView":11,"byteOffset":0,"componentType":5126,"count":253,"type":"VEC2"}],"asset":{"generator":"FBX2glTF v0.13.1","version":"2.0"},"bufferViews":[{"buffer":0,"byteLength":5688,"byteOffset":0,"target":34963},{"buffer":0,"byteLength":19440,"byteOffset":5688,"target":34962},{"buffer":0,"byteLength":19440,"byteOffset":25128,"target":34962},{"buffer":0,"byteLength":12960,"byteOffset":44568,"target":34962},{"buffer":0,"byteLength":936,"byteOffset":57528,"target":34963},{"buffer":0,"byteLength":3288,"byteOffset":58464,"target":34962},{"buffer":0,"byteLength":3288,"byteOffset":61752,"target":34962},{"buffer":0,"byteLength":2192,"byteOffset":65040,"target":34962},{"buffer":0,"byteLength":936,"byteOffset":67232,"target":34963},{"buffer":0,"byteLength":3036,"byteOffset":68168,"target":34962},{"buffer":0,"byteLength":3036,"byteOffset":71204,"target":34962},{"buffer":0,"byteLength":2024,"byteOffset":74240,"target":34962}],"buffers":[{"byteLength":76264,"uri":"SM_plow_01.bin"}],"images":[{"name":"Polygon_Texture_vol2","uri":"Polygon_Texture_vol2.png"}],"materials":[{"alphaMode":"OPAQUE","doubleSided":false,"extras":{"fromFBX":{"isTruePBR":false,"shadingModel":"Phong"}},"name":"Material","pbrMetallicRoughness":{"baseColorFactor":[1,1,1,1],"baseColorTexture":{"index":0,"texCoord":0},"metallicFactor":0.400000005960464,"roughnessFactor":0.254953622817993}}],"meshes":[{"name":"plow_01","primitives":[{"attributes":{"NORMAL":2,"POSITION":1,"TEXCOORD_0":3},"indices":0,"material":0,"mode":4}]},{"name":"wheel_09","primitives":[{"attributes":{"NORMAL":6,"POSITION":5,"TEXCOORD_0":7},"indices":4,"material":0,"mode":4}]},{"name":"wheel_010","primitives":[{"attributes":{"NORMAL":10,"POSITION":9,"TEXCOORD_0":11},"indices":8,"material":0,"mode":4}]}],"nodes":[{"children":[1,2],"mesh":0,"name":"plow_01","rotation":[0,0,0,1],"scale":[1,1,1],"translation":[22.3262023925781,0.829448580741882,-0.19056987762451]},{"mesh":1,"name":"wheel_09","rotation":[0,0,0,1],"scale":[1,1,1],"translation":[1.83337640762329,-0.62653160095215,-3.05433130264282]},{"mesh":2,"name":"wheel_010","rotation":[0,0,0,1],"scale":[1,1,1],"translation":[-0.82190430164337,-0.62653160095215,-2.02739667892456]}],"samplers":[{}],"scene":0,"scenes":[{"name":"Root Scene","nodes":[0]}],"textures":[{"name":"base_color_texture","sampler":0,"source":0}]}