{"accessors":[{"bufferView":0,"byteOffset":0,"componentType":5123,"count":1350,"type":"SCALAR"},{"bufferView":1,"byteOffset":0,"componentType":5126,"count":900,"max":[0.312587261199951,1.97524762153625,0.38860023021698],"min":[-0.31258729100227,0,-0.11183255910873],"type":"VEC3"},{"bufferView":2,"byteOffset":0,"componentType":5126,"count":900,"type":"VEC3"},{"bufferView":3,"byteOffset":0,"componentType":5126,"count":900,"type":"VEC2"}],"asset":{"generator":"FBX2glTF v0.13.1","version":"2.0"},"bufferViews":[{"buffer":0,"byteLength":2700,"byteOffset":0,"target":34963},{"buffer":0,"byteLength":10800,"byteOffset":2700,"target":34962},{"buffer":0,"byteLength":10800,"byteOffset":13500,"target":34962},{"buffer":0,"byteLength":7200,"byteOffset":24300,"target":34962}],"buffers":[{"byteLength":31500,"uri":"SM_sunflower.bin"}],"images":[{"name":"Polygon_Camping_Texture_vol2.0","uri":"Polygon_Camping_Texture_vol2.0.jpg"}],"materials":[{"alphaMode":"OPAQUE","doubleSided":false,"extras":{"fromFBX":{"isTruePBR":false,"shadingModel":"Phong"}},"name":"Material","pbrMetallicRoughness":{"baseColorFactor":[1,1,1,1],"baseColorTexture":{"index":0,"texCoord":0},"metallicFactor":0.400000005960464,"roughnessFactor":0.254953622817993}}],"meshes":[{"name":"sunflower","primitives":[{"attributes":{"NORMAL":2,"POSITION":1,"TEXCOORD_0":3},"indices":0,"material":0,"mode":4}]}],"nodes":[{"mesh":0,"name":"sunflower","rotation":[0,0,0,1],"scale":[1,1,1],"translation":[49.323787689209,0,0]}],"samplers":[{}],"scene":0,"scenes":[{"name":"Root Scene","nodes":[0]}],"textures":[{"name":"base_color_texture","sampler":0,"source":0}]}