{"accessors":[{"bufferView":0,"byteOffset":0,"componentType":5123,"count":8898,"type":"SCALAR"},{"bufferView":1,"byteOffset":0,"componentType":5126,"count":5246,"max":[1.26168668270111,1.22307181358337,1.06156039237976],"min":[-1.26168668270111,-1.00602126121521,-5.19482278823853],"type":"VEC3"},{"bufferView":2,"byteOffset":0,"componentType":5126,"count":5246,"type":"VEC3"},{"bufferView":3,"byteOffset":0,"componentType":5126,"count":5246,"type":"VEC2"},{"bufferView":4,"byteOffset":0,"componentType":5123,"count":1194,"type":"SCALAR"},{"bufferView":5,"byteOffset":0,"componentType":5126,"count":737,"max":[0.152399361133575,0.476053506135941,0.476053565740585],"min":[-0.16798347234726,-0.47605377435684,-0.47605365514755],"type":"VEC3"},{"bufferView":6,"byteOffset":0,"componentType":5126,"count":737,"type":"VEC3"},{"bufferView":7,"byteOffset":0,"componentType":5126,"count":737,"type":"VEC2"},{"bufferView":8,"byteOffset":0,"componentType":5123,"count":1194,"type":"SCALAR"},{"bufferView":9,"byteOffset":0,"componentType":5126,"count":732,"max":[0.16798347234726,0.476053506135941,0.476053565740585],"min":[-0.15239936113358,-0.47605377435684,-0.47605365514755],"type":"VEC3"},{"bufferView":10,"byteOffset":0,"componentType":5126,"count":732,"type":"VEC3"},{"bufferView":11,"byteOffset":0,"componentType":5126,"count":732,"type":"VEC2"},{"bufferView":12,"byteOffset":0,"componentType":5123,"count":1194,"type":"SCALAR"},{"bufferView":13,"byteOffset":0,"componentType":5126,"count":736,"max":[1.11890423297882,0.476053833961487,0.476055145263672],"min":[0.798521399497986,-0.47605341672897,-0.47605228424072],"type":"VEC3"},{"bufferView":14,"byteOffset":0,"componentType":5126,"count":736,"type":"VEC3"},{"bufferView":15,"byteOffset":0,"componentType":5126,"count":736,"type":"VEC2"},{"bufferView":16,"byteOffset":0,"componentType":5123,"count":1194,"type":"SCALAR"},{"bufferView":17,"byteOffset":0,"componentType":5126,"count":731,"max":[-0.79852133989334,0.476053833961487,0.476055145263672],"min":[-1.11890423297882,-0.47605341672897,-0.47605228424072],"type":"VEC3"},{"bufferView":18,"byteOffset":0,"componentType":5126,"count":731,"type":"VEC3"},{"bufferView":19,"byteOffset":0,"componentType":5126,"count":731,"type":"VEC2"},{"bufferView":20,"byteOffset":0,"componentType":5123,"count":1194,"type":"SCALAR"},{"bufferView":21,"byteOffset":0,"componentType":5126,"count":736,"max":[1.11890423297882,0.476053833961487,0.476055592298508],"min":[0.798521399497986,-0.47605341672897,-0.47605177760124],"type":"VEC3"},{"bufferView":22,"byteOffset":0,"componentType":5126,"count":736,"type":"VEC3"},{"bufferView":23,"byteOffset":0,"componentType":5126,"count":736,"type":"VEC2"},{"bufferView":24,"byteOffset":0,"componentType":5123,"count":1194,"type":"SCALAR"},{"bufferView":25,"byteOffset":0,"componentType":5126,"count":731,"max":[-0.79852133989334,0.476053833961487,0.476055592298508],"min":[-1.11890423297882,-0.47605341672897,-0.47605177760124],"type":"VEC3"},{"bufferView":26,"byteOffset":0,"componentType":5126,"count":731,"type":"VEC3"},{"bufferView":27,"byteOffset":0,"componentType":5126,"count":731,"type":"VEC2"},{"bufferView":28,"byteOffset":0,"componentType":5123,"count":102,"type":"SCALAR"},{"bufferView":29,"byteOffset":0,"componentType":5126,"count":68,"max":[1.22540497779846,0.812399804592133,0.957881927490234],"min":[-1.22540497779846,0.218784362077713,-0.7486160993576],"type":"VEC3"},{"bufferView":30,"byteOffset":0,"componentType":5126,"count":68,"type":"VEC3"},{"bufferView":31,"byteOffset":0,"componentType":5126,"count":68,"type":"VEC2"},{"bufferView":32,"byteOffset":0,"componentType":5123,"count":420,"type":"SCALAR"},{"bufferView":33,"byteOffset":0,"componentType":5126,"count":248,"max":[0.657003700733185,1.06243813037872,0.660616755485535],"min":[-0.65700370073319,0.949333310127258,0.489348173141479],"type":"VEC3"},{"bufferView":34,"byteOffset":0,"componentType":5126,"count":248,"type":"VEC3"},{"bufferView":35,"byteOffset":0,"componentType":5126,"count":248,"type":"VEC2"},{"bufferView":36,"byteOffset":0,"componentType":5123,"count":24,"type":"SCALAR"},{"bufferView":37,"byteOffset":0,"componentType":5126,"count":16,"max":[0.831749081611633,-0.13329191505909,0.951370120048523],"min":[-0.83174908161163,-0.5818647146225,0.951370120048523],"type":"VEC3"},{"bufferView":38,"byteOffset":0,"componentType":5126,"count":16,"type":"VEC3"},{"bufferView":39,"byteOffset":0,"componentType":5126,"count":16,"type":"VEC2"},{"bufferView":40,"byteOffset":0,"componentType":5123,"count":84,"type":"SCALAR"},{"bufferView":41,"byteOffset":0,"componentType":5126,"count":56,"max":[0.958746910095215,-0.66631996631622,1.04151082038879],"min":[-0.95874691009521,-0.90732002258301,-5.2028226852417],"type":"VEC3"},{"bufferView":42,"byteOffset":0,"componentType":5126,"count":56,"type":"VEC3"},{"bufferView":43,"byteOffset":0,"componentType":5126,"count":56,"type":"VEC2"},{"bufferView":44,"byteOffset":0,"componentType":5123,"count":60,"type":"SCALAR"},{"bufferView":45,"byteOffset":0,"componentType":5126,"count":40,"max":[0.686497271060944,-0.80691885948181,-5.19482278823853],"min":[-0.68649727106094,-0.90732002258301,-5.2028226852417],"type":"VEC3"},{"bufferView":46,"byteOffset":0,"componentType":5126,"count":40,"type":"VEC3"},{"bufferView":47,"byteOffset":0,"componentType":5126,"count":40,"type":"VEC2"}],"asset":{"generator":"FBX2glTF v0.13.1","version":"2.0"},"bufferViews":[{"buffer":0,"byteLength":17796,"byteOffset":0,"target":34963},{"buffer":0,"byteLength":62952,"byteOffset":17796,"target":34962},{"buffer":0,"byteLength":62952,"byteOffset":80748,"target":34962},{"buffer":0,"byteLength":41968,"byteOffset":143700,"target":34962},{"buffer":0,"byteLength":2388,"byteOffset":185668,"target":34963},{"buffer":0,"byteLength":8844,"byteOffset":188056,"target":34962},{"buffer":0,"byteLength":8844,"byteOffset":196900,"target":34962},{"buffer":0,"byteLength":5896,"byteOffset":205744,"target":34962},{"buffer":0,"byteLength":2388,"byteOffset":211640,"target":34963},{"buffer":0,"byteLength":8784,"byteOffset":214028,"target":34962},{"buffer":0,"byteLength":8784,"byteOffset":222812,"target":34962},{"buffer":0,"byteLength":5856,"byteOffset":231596,"target":34962},{"buffer":0,"byteLength":2388,"byteOffset":237452,"target":34963},{"buffer":0,"byteLength":8832,"byteOffset":239840,"target":34962},{"buffer":0,"byteLength":8832,"byteOffset":248672,"target":34962},{"buffer":0,"byteLength":5888,"byteOffset":257504,"target":34962},{"buffer":0,"byteLength":2388,"byteOffset":263392,"target":34963},{"buffer":0,"byteLength":8772,"byteOffset":265780,"target":34962},{"buffer":0,"byteLength":8772,"byteOffset":274552,"target":34962},{"buffer":0,"byteLength":5848,"byteOffset":283324,"target":34962},{"buffer":0,"byteLength":2388,"byteOffset":289172,"target":34963},{"buffer":0,"byteLength":8832,"byteOffset":291560,"target":34962},{"buffer":0,"byteLength":8832,"byteOffset":300392,"target":34962},{"buffer":0,"byteLength":5888,"byteOffset":309224,"target":34962},{"buffer":0,"byteLength":2388,"byteOffset":315112,"target":34963},{"buffer":0,"byteLength":8772,"byteOffset":317500,"target":34962},{"buffer":0,"byteLength":8772,"byteOffset":326272,"target":34962},{"buffer":0,"byteLength":5848,"byteOffset":335044,"target":34962},{"buffer":0,"byteLength":204,"byteOffset":340892,"target":34963},{"buffer":0,"byteLength":816,"byteOffset":341096,"target":34962},{"buffer":0,"byteLength":816,"byteOffset":341912,"target":34962},{"buffer":0,"byteLength":544,"byteOffset":342728,"target":34962},{"buffer":0,"byteLength":840,"byteOffset":343272,"target":34963},{"buffer":0,"byteLength":2976,"byteOffset":344112,"target":34962},{"buffer":0,"byteLength":2976,"byteOffset":347088,"target":34962},{"buffer":0,"byteLength":1984,"byteOffset":350064,"target":34962},{"buffer":0,"byteLength":48,"byteOffset":352048,"target":34963},{"buffer":0,"byteLength":192,"byteOffset":352096,"target":34962},{"buffer":0,"byteLength":192,"byteOffset":352288,"target":34962},{"buffer":0,"byteLength":128,"byteOffset":352480,"target":34962},{"buffer":0,"byteLength":168,"byteOffset":352608,"target":34963},{"buffer":0,"byteLength":672,"byteOffset":352776,"target":34962},{"buffer":0,"byteLength":672,"byteOffset":353448,"target":34962},{"buffer":0,"byteLength":448,"byteOffset":354120,"target":34962},{"buffer":0,"byteLength":120,"byteOffset":354568,"target":34963},{"buffer":0,"byteLength":480,"byteOffset":354688,"target":34962},{"buffer":0,"byteLength":480,"byteOffset":355168,"target":34962},{"buffer":0,"byteLength":320,"byteOffset":355648,"target":34962}],"buffers":[{"byteLength":355968,"uri":"SM_truck.bin"}],"images":[{"name":"Polygon_Texture_vol2","uri":"Polygon_Texture_vol2.png"}],"materials":[{"alphaMode":"OPAQUE","doubleSided":false,"extras":{"fromFBX":{"isTruePBR":false,"shadingModel":"Phong"}},"name":"Material","pbrMetallicRoughness":{"baseColorFactor":[1,1,1,1],"baseColorTexture":{"index":0,"texCoord":0},"metallicFactor":0.400000005960464,"roughnessFactor":0.254953622817993}},{"alphaMode":"OPAQUE","doubleSided":false,"extras":{"fromFBX":{"isTruePBR":false,"shadingModel":"Phong"}},"name":"Material.001","pbrMetallicRoughness":{"baseColorFactor":[0.800000011920929,0.800000011920929,0.800000011920929,1],"metallicFactor":0.400000005960464,"roughnessFactor":0.272165536880493}},{"alphaMode":"OPAQUE","doubleSided":false,"extras":{"fromFBX":{"isTruePBR":false,"shadingModel":"Phong"}},"name":"Material.004","pbrMetallicRoughness":{"baseColorFactor":[0.800000011920929,0.800000011920929,0.800000011920929,1],"metallicFactor":0.400000005960464,"roughnessFactor":0.272165536880493}},{"alphaMode":"OPAQUE","doubleSided":false,"extras":{"fromFBX":{"isTruePBR":false,"shadingModel":"Phong"}},"name":"Material.002","pbrMetallicRoughness":{"baseColorFactor":[0.800000011920929,0.800000011920929,0.800000011920929,1],"metallicFactor":0.400000005960464,"roughnessFactor":0.272165536880493}},{"alphaMode":"OPAQUE","doubleSided":false,"extras":{"fromFBX":{"isTruePBR":false,"shadingModel":"Phong"}},"name":"Material.003","pbrMetallicRoughness":{"baseColorFactor":[0.800000011920929,0.800000011920929,0.800000011920929,1],"metallicFactor":0.400000005960464,"roughnessFactor":0.272165536880493}},{"alphaMode":"OPAQUE","doubleSided":false,"extras":{"fromFBX":{"isTruePBR":false,"shadingModel":"Phong"}},"name":"Material.005","pbrMetallicRoughness":{"baseColorFactor":[0.800000011920929,0.800000011920929,0.800000011920929,1],"metallicFactor":0.400000005960464,"roughnessFactor":0.272165536880493}}],"meshes":[{"name":"truck","primitives":[{"attributes":{"NORMAL":2,"POSITION":1,"TEXCOORD_0":3},"indices":0,"material":0,"mode":4},{"attributes":{"NORMAL":30,"POSITION":29,"TEXCOORD_0":31},"indices":28,"material":1,"mode":4},{"attributes":{"NORMAL":34,"POSITION":33,"TEXCOORD_0":35},"indices":32,"material":2,"mode":4},{"attributes":{"NORMAL":38,"POSITION":37,"TEXCOORD_0":39},"indices":36,"material":3,"mode":4},{"attributes":{"NORMAL":42,"POSITION":41,"TEXCOORD_0":43},"indices":40,"material":4,"mode":4},{"attributes":{"NORMAL":46,"POSITION":45,"TEXCOORD_0":47},"indices":44,"material":5,"mode":4}]},{"name":"wheel_014","primitives":[{"attributes":{"NORMAL":6,"POSITION":5,"TEXCOORD_0":7},"indices":4,"material":0,"mode":4}]},{"name":"wheel_015","primitives":[{"attributes":{"NORMAL":10,"POSITION":9,"TEXCOORD_0":11},"indices":8,"material":0,"mode":4}]},{"name":"wheel_012.001","primitives":[{"attributes":{"NORMAL":14,"POSITION":13,"TEXCOORD_0":15},"indices":12,"material":0,"mode":4}]},{"name":"wheel_012.002","primitives":[{"attributes":{"NORMAL":18,"POSITION":17,"TEXCOORD_0":19},"indices":16,"material":0,"mode":4}]},{"name":"wheel_013.001","primitives":[{"attributes":{"NORMAL":22,"POSITION":21,"TEXCOORD_0":23},"indices":20,"material":0,"mode":4}]},{"name":"wheel_013.002","primitives":[{"attributes":{"NORMAL":26,"POSITION":25,"TEXCOORD_0":27},"indices":24,"material":0,"mode":4}]}],"nodes":[{"children":[1,2,3,4,5,6],"mesh":0,"name":"truck","rotation":[0,0,0,1],"scale":[1,1,1],"translation":[16.4842624664307,1.21672415733337,-1.12818670272827]},{"mesh":1,"name":"wheel_014","rotation":[0,0,0,1],"scale":[1,1,1],"translation":[0.96650630235672,-0.71052306890488,-0.63789063692093]},{"mesh":2,"name":"wheel_015","rotation":[0,0,0,1],"scale":[1,1,1],"translation":[-0.96650385856628,-0.71052306890488,-0.63789063692093]},{"mesh":3,"name":"wheel_012.001","rotation":[0,0,0,1],"scale":[1,1,1],"translation":[0.00000122070309771516,-0.71052348613739,-4.36326360702515]},{"mesh":4,"name":"wheel_012.002","rotation":[0,0,0,1],"scale":[1,1,1],"translation":[0.00000122070309771516,-0.71052348613739,-4.36326360702515]},{"mesh":5,"name":"wheel_013.001","rotation":[0,0,0,1],"scale":[1,1,1],"translation":[0.00000122070309771516,-0.71052348613739,-3.33926343917847]},{"mesh":6,"name":"wheel_013.002","rotation":[0,0,0,1],"scale":[1,1,1],"translation":[0.00000122070309771516,-0.71052348613739,-3.33926343917847]}],"samplers":[{}],"scene":0,"scenes":[{"name":"Root Scene","nodes":[0]}],"textures":[{"name":"base_color_texture","sampler":0,"source":0}]}