{"accessors":[{"bufferView":0,"byteOffset":0,"componentType":5123,"count":7746,"type":"SCALAR"},{"bufferView":1,"byteOffset":0,"componentType":5126,"count":4691,"max":[1.18400716781616,1.63474905490875,2.04614210128784],"min":[-1.19373941421509,-0.56685036420822,-1.78732001781464],"type":"VEC3"},{"bufferView":2,"byteOffset":0,"componentType":5126,"count":4691,"type":"VEC3"},{"bufferView":3,"byteOffset":0,"componentType":5126,"count":4691,"type":"VEC2"},{"bufferView":4,"byteOffset":0,"componentType":5123,"count":5016,"type":"SCALAR"},{"bufferView":5,"byteOffset":0,"componentType":5126,"count":3186,"max":[0.209114611148834,0.607259035110474,0.610047578811646],"min":[-0.25529426336289,-0.61202681064606,-0.61130690574646],"type":"VEC3"},{"bufferView":6,"byteOffset":0,"componentType":5126,"count":3186,"type":"VEC3"},{"bufferView":7,"byteOffset":0,"componentType":5126,"count":3186,"type":"VEC2"},{"bufferView":8,"byteOffset":0,"componentType":5123,"count":5016,"type":"SCALAR"},{"bufferView":9,"byteOffset":0,"componentType":5126,"count":3083,"max":[0.255286931991577,0.607259035110474,0.610047578811646],"min":[-0.20911429822445,-0.6120268702507,-0.61130690574646],"type":"VEC3"},{"bufferView":10,"byteOffset":0,"componentType":5126,"count":3083,"type":"VEC3"},{"bufferView":11,"byteOffset":0,"componentType":5126,"count":3083,"type":"VEC2"},{"bufferView":12,"byteOffset":0,"componentType":5123,"count":5043,"type":"SCALAR"},{"bufferView":13,"byteOffset":0,"componentType":5126,"count":3122,"max":[1.26158308982849,0.823264241218567,0.827040135860443],"min":[0.748933613300323,-0.8297204375267,-0.82874912023544],"type":"VEC3"},{"bufferView":14,"byteOffset":0,"componentType":5126,"count":3122,"type":"VEC3"},{"bufferView":15,"byteOffset":0,"componentType":5126,"count":3122,"type":"VEC2"},{"bufferView":16,"byteOffset":0,"componentType":5123,"count":5043,"type":"SCALAR"},{"bufferView":17,"byteOffset":0,"componentType":5126,"count":3178,"max":[-0.74894535541534,0.823264241218567,0.827040135860443],"min":[-1.26159489154816,-0.8297204375267,-0.82874912023544],"type":"VEC3"},{"bufferView":18,"byteOffset":0,"componentType":5126,"count":3178,"type":"VEC3"},{"bufferView":19,"byteOffset":0,"componentType":5126,"count":3178,"type":"VEC2"},{"bufferView":20,"byteOffset":0,"componentType":5123,"count":66,"type":"SCALAR"},{"bufferView":21,"byteOffset":0,"componentType":5126,"count":40,"max":[0.90341329574585,1.54626381397247,0.366121292114258],"min":[-0.91314548254013,0.741146743297577,-1.08472442626953],"type":"VEC3"},{"bufferView":22,"byteOffset":0,"componentType":5126,"count":40,"type":"VEC3"},{"bufferView":23,"byteOffset":0,"componentType":5126,"count":40,"type":"VEC2"},{"bufferView":24,"byteOffset":0,"componentType":5123,"count":780,"type":"SCALAR"},{"bufferView":25,"byteOffset":0,"componentType":5126,"count":472,"max":[0.924920558929443,1.58728313446045,2.03728485107422],"min":[-0.93465274572372,0.461831569671631,-1.76954066753387],"type":"VEC3"},{"bufferView":26,"byteOffset":0,"componentType":5126,"count":472,"type":"VEC3"},{"bufferView":27,"byteOffset":0,"componentType":5126,"count":472,"type":"VEC2"},{"bufferView":28,"byteOffset":0,"componentType":5123,"count":144,"type":"SCALAR"},{"bufferView":29,"byteOffset":0,"componentType":5126,"count":96,"max":[0.900681972503662,0.671932876110077,-1.65755367279053],"min":[-0.91041415929794,0.643903315067291,-1.65923690795898],"type":"VEC3"},{"bufferView":30,"byteOffset":0,"componentType":5126,"count":96,"type":"VEC3"},{"bufferView":31,"byteOffset":0,"componentType":5126,"count":96,"type":"VEC2"}],"asset":{"generator":"FBX2glTF v0.13.1","version":"2.0"},"bufferViews":[{"buffer":0,"byteLength":15492,"byteOffset":0,"target":34963},{"buffer":0,"byteLength":56292,"byteOffset":15492,"target":34962},{"buffer":0,"byteLength":56292,"byteOffset":71784,"target":34962},{"buffer":0,"byteLength":37528,"byteOffset":128076,"target":34962},{"buffer":0,"byteLength":10032,"byteOffset":165604,"target":34963},{"buffer":0,"byteLength":38232,"byteOffset":175636,"target":34962},{"buffer":0,"byteLength":38232,"byteOffset":213868,"target":34962},{"buffer":0,"byteLength":25488,"byteOffset":252100,"target":34962},{"buffer":0,"byteLength":10032,"byteOffset":277588,"target":34963},{"buffer":0,"byteLength":36996,"byteOffset":287620,"target":34962},{"buffer":0,"byteLength":36996,"byteOffset":324616,"target":34962},{"buffer":0,"byteLength":24664,"byteOffset":361612,"target":34962},{"buffer":0,"byteLength":10086,"byteOffset":386276,"target":34963},{"buffer":0,"byteLength":37464,"byteOffset":396364,"target":34962},{"buffer":0,"byteLength":37464,"byteOffset":433828,"target":34962},{"buffer":0,"byteLength":24976,"byteOffset":471292,"target":34962},{"buffer":0,"byteLength":10086,"byteOffset":496268,"target":34963},{"buffer":0,"byteLength":38136,"byteOffset":506356,"target":34962},{"buffer":0,"byteLength":38136,"byteOffset":544492,"target":34962},{"buffer":0,"byteLength":25424,"byteOffset":582628,"target":34962},{"buffer":0,"byteLength":132,"byteOffset":608052,"target":34963},{"buffer":0,"byteLength":480,"byteOffset":608184,"target":34962},{"buffer":0,"byteLength":480,"byteOffset":608664,"target":34962},{"buffer":0,"byteLength":320,"byteOffset":609144,"target":34962},{"buffer":0,"byteLength":1560,"byteOffset":609464,"target":34963},{"buffer":0,"byteLength":5664,"byteOffset":611024,"target":34962},{"buffer":0,"byteLength":5664,"byteOffset":616688,"target":34962},{"buffer":0,"byteLength":3776,"byteOffset":622352,"target":34962},{"buffer":0,"byteLength":288,"byteOffset":626128,"target":34963},{"buffer":0,"byteLength":1152,"byteOffset":626416,"target":34962},{"buffer":0,"byteLength":1152,"byteOffset":627568,"target":34962},{"buffer":0,"byteLength":768,"byteOffset":628720,"target":34962}],"buffers":[{"byteLength":629488,"uri":"SM_tractor.bin"}],"images":[{"name":"Polygon_Texture_vol2","uri":"Polygon_Texture_vol2.png"}],"materials":[{"alphaMode":"OPAQUE","doubleSided":false,"extras":{"fromFBX":{"isTruePBR":false,"shadingModel":"Phong"}},"name":"Material","pbrMetallicRoughness":{"baseColorFactor":[1,1,1,1],"baseColorTexture":{"index":0,"texCoord":0},"metallicFactor":0.400000005960464,"roughnessFactor":0.254953622817993}},{"alphaMode":"OPAQUE","doubleSided":false,"extras":{"fromFBX":{"isTruePBR":false,"shadingModel":"Phong"}},"name":"Material.001","pbrMetallicRoughness":{"baseColorFactor":[0.800000011920929,0.800000011920929,0.800000011920929,1],"metallicFactor":0.400000005960464,"roughnessFactor":0.272165536880493}},{"alphaMode":"OPAQUE","doubleSided":false,"extras":{"fromFBX":{"isTruePBR":false,"shadingModel":"Phong"}},"name":"Material.006","pbrMetallicRoughness":{"baseColorFactor":[0.800000011920929,0.800000011920929,0.800000011920929,1],"metallicFactor":0.400000005960464,"roughnessFactor":0.272165536880493}},{"alphaMode":"OPAQUE","doubleSided":false,"extras":{"fromFBX":{"isTruePBR":false,"shadingModel":"Phong"}},"name":"Material.002","pbrMetallicRoughness":{"baseColorFactor":[0.800000011920929,0.800000011920929,0.800000011920929,1],"metallicFactor":0.400000005960464,"roughnessFactor":0.272165536880493}}],"meshes":[{"name":"tractor","primitives":[{"attributes":{"NORMAL":2,"POSITION":1,"TEXCOORD_0":3},"indices":0,"material":0,"mode":4},{"attributes":{"NORMAL":22,"POSITION":21,"TEXCOORD_0":23},"indices":20,"material":1,"mode":4},{"attributes":{"NORMAL":26,"POSITION":25,"TEXCOORD_0":27},"indices":24,"material":2,"mode":4},{"attributes":{"NORMAL":30,"POSITION":29,"TEXCOORD_0":31},"indices":28,"material":3,"mode":4}]},{"name":"wheel_03","primitives":[{"attributes":{"NORMAL":6,"POSITION":5,"TEXCOORD_0":7},"indices":4,"material":0,"mode":4}]},{"name":"wheel_02","primitives":[{"attributes":{"NORMAL":10,"POSITION":9,"TEXCOORD_0":11},"indices":8,"material":0,"mode":4}]},{"name":"wheel_01.001","primitives":[{"attributes":{"NORMAL":14,"POSITION":13,"TEXCOORD_0":15},"indices":12,"material":0,"mode":4}]},{"name":"wheel_01.002","primitives":[{"attributes":{"NORMAL":18,"POSITION":17,"TEXCOORD_0":19},"indices":16,"material":0,"mode":4}]}],"nodes":[{"children":[1,2,3,4],"mesh":0,"name":"tractor","rotation":[0,0,0,1],"scale":[1,1,1],"translation":[28.1218738555908,0.997190892696381,0]},{"mesh":1,"name":"wheel_03","rotation":[0,0,0,1],"scale":[1,1,1],"translation":[-0.77120113372803,-0.38131919503212,1.14115452766418]},{"mesh":2,"name":"wheel_02","rotation":[0,0,0,1],"scale":[1,1,1],"translation":[0.761474609375,-0.38131910562515,1.14115452766418]},{"mesh":3,"name":"wheel_01.001","rotation":[0,0,0,1],"scale":[1,1,1],"translation":[-0.0048608398065,-0.16702079772949,-1.12830495834351]},{"mesh":4,"name":"wheel_01.002","rotation":[0,0,0,1],"scale":[1,1,1],"translation":[-0.0048608398065,-0.16702079772949,-1.12830495834351]}],"samplers":[{}],"scene":0,"scenes":[{"name":"Root Scene","nodes":[0]}],"textures":[{"name":"base_color_texture","sampler":0,"source":0}]}