{"accessors":[{"bufferView":0,"byteOffset":0,"componentType":5123,"count":2748,"type":"SCALAR"},{"bufferView":1,"byteOffset":0,"componentType":5126,"count":1832,"max":[1,5.09070873260498,1],"min":[-1,0,-1],"type":"VEC3"},{"bufferView":2,"byteOffset":0,"componentType":5126,"count":1832,"type":"VEC3"},{"bufferView":3,"byteOffset":0,"componentType":5126,"count":1832,"type":"VEC2"},{"bufferView":4,"byteOffset":0,"componentType":5123,"count":558,"type":"SCALAR"},{"bufferView":5,"byteOffset":0,"componentType":5126,"count":349,"max":[0.141203299164772,0.777273833751678,0.796097457408905],"min":[-0.14120329916477,0.0907088816165924,-0.66208362579346],"type":"VEC3"},{"bufferView":6,"byteOffset":0,"componentType":5126,"count":349,"type":"VEC3"},{"bufferView":7,"byteOffset":0,"componentType":5126,"count":349,"type":"VEC2"},{"bufferView":8,"byteOffset":0,"componentType":5123,"count":2700,"type":"SCALAR"},{"bufferView":9,"byteOffset":0,"componentType":5126,"count":1760,"max":[1.49275720119476,1.49662637710571,0.0149842901155353],"min":[-1.49153518676758,-1.48418116569519,-0.01497897785157],"type":"VEC3"},{"bufferView":10,"byteOffset":0,"componentType":5126,"count":1760,"type":"VEC3"},{"bufferView":11,"byteOffset":0,"componentType":5126,"count":1760,"type":"VEC2"}],"asset":{"generator":"FBX2glTF v0.13.1","version":"2.0"},"bufferViews":[{"buffer":0,"byteLength":5496,"byteOffset":0,"target":34963},{"buffer":0,"byteLength":21984,"byteOffset":5496,"target":34962},{"buffer":0,"byteLength":21984,"byteOffset":27480,"target":34962},{"buffer":0,"byteLength":14656,"byteOffset":49464,"target":34962},{"buffer":0,"byteLength":1116,"byteOffset":64120,"target":34963},{"buffer":0,"byteLength":4188,"byteOffset":65236,"target":34962},{"buffer":0,"byteLength":4188,"byteOffset":69424,"target":34962},{"buffer":0,"byteLength":2792,"byteOffset":73612,"target":34962},{"buffer":0,"byteLength":5400,"byteOffset":76404,"target":34963},{"buffer":0,"byteLength":21120,"byteOffset":81804,"target":34962},{"buffer":0,"byteLength":21120,"byteOffset":102924,"target":34962},{"buffer":0,"byteLength":14080,"byteOffset":124044,"target":34962}],"buffers":[{"byteLength":138124,"uri":"SM_windmill.bin"}],"images":[{"name":"Polygon_Texture_vol2","uri":"Polygon_Texture_vol2.png"}],"materials":[{"alphaMode":"OPAQUE","doubleSided":false,"extras":{"fromFBX":{"isTruePBR":false,"shadingModel":"Phong"}},"name":"Material","pbrMetallicRoughness":{"baseColorFactor":[1,1,1,1],"baseColorTexture":{"index":0,"texCoord":0},"metallicFactor":0.400000005960464,"roughnessFactor":0.254953622817993}}],"meshes":[{"name":"windmill","primitives":[{"attributes":{"NORMAL":2,"POSITION":1,"TEXCOORD_0":3},"indices":0,"material":0,"mode":4}]},{"name":"blades_01","primitives":[{"attributes":{"NORMAL":6,"POSITION":5,"TEXCOORD_0":7},"indices":4,"material":0,"mode":4}]},{"name":"blades_02","primitives":[{"attributes":{"NORMAL":10,"POSITION":9,"TEXCOORD_0":11},"indices":8,"material":0,"mode":4}]}],"nodes":[{"children":[1],"mesh":0,"name":"windmill","rotation":[0,0,0,1],"scale":[1,1,1],"translation":[92.8731689453125,0,0]},{"children":[2],"mesh":1,"name":"blades_01","rotation":[0,0,0,1],"scale":[1,1,1],"translation":[0,5,-0.00000000372529]},{"mesh":2,"name":"blades_02","rotation":[0.707106828689575,0,0,0.707106709480286],"scale":[0.00999999977648258,0.00999999977648258,0.00999999977648258],"translation":[-0.0000088500974,-5.00760412216187,0.0565908849239349]}],"samplers":[{}],"scene":0,"scenes":[{"name":"Root Scene","nodes":[0]}],"textures":[{"name":"base_color_texture","sampler":0,"source":0}]}