{"accessors":[{"bufferView":0,"byteOffset":0,"componentType":5123,"count":1980,"type":"SCALAR"},{"bufferView":1,"byteOffset":0,"componentType":5126,"count":1320,"max":[0.560162127017975,0.401096135377884,0.49398136138916],"min":[-0.43983787298202,0,-0.50601863861084],"type":"VEC3"},{"bufferView":2,"byteOffset":0,"componentType":5126,"count":1320,"type":"VEC3"},{"bufferView":3,"byteOffset":0,"componentType":5126,"count":1320,"type":"VEC2"}],"asset":{"generator":"FBX2glTF v0.13.1","version":"2.0"},"bufferViews":[{"buffer":0,"byteLength":3960,"byteOffset":0,"target":34963},{"buffer":0,"byteLength":15840,"byteOffset":3960,"target":34962},{"buffer":0,"byteLength":15840,"byteOffset":19800,"target":34962},{"buffer":0,"byteLength":10560,"byteOffset":35640,"target":34962}],"buffers":[{"byteLength":46200,"uri":"SM_wheat_01.bin"}],"images":[{"name":"Polygon_Camping_Texture_vol2.0","uri":"Polygon_Camping_Texture_vol2.0.jpg"}],"materials":[{"alphaMode":"OPAQUE","doubleSided":false,"extras":{"fromFBX":{"isTruePBR":false,"shadingModel":"Phong"}},"name":"Material","pbrMetallicRoughness":{"baseColorFactor":[1,1,1,1],"baseColorTexture":{"index":0,"texCoord":0},"metallicFactor":0.400000005960464,"roughnessFactor":0.254953622817993}}],"meshes":[{"name":"wheat_01","primitives":[{"attributes":{"NORMAL":2,"POSITION":1,"TEXCOORD_0":3},"indices":0,"material":0,"mode":4}]}],"nodes":[{"mesh":0,"name":"wheat_01","rotation":[0,0,0,1],"scale":[1,1,1],"translation":[52.217170715332,0,0]}],"samplers":[{}],"scene":0,"scenes":[{"name":"Root Scene","nodes":[0]}],"textures":[{"name":"base_color_texture","sampler":0,"source":0}]}