{"accessors":[{"bufferView":0,"byteOffset":0,"componentType":5123,"count":1776,"type":"SCALAR"},{"bufferView":1,"byteOffset":0,"componentType":5126,"count":1080,"max":[0.44574710726738,1.0219122171402,0.43031507730484],"min":[-0.46117922663689,0,-0.43785163760185],"type":"VEC3"},{"bufferView":2,"byteOffset":0,"componentType":5126,"count":1080,"type":"VEC3"},{"bufferView":3,"byteOffset":0,"componentType":5126,"count":1080,"type":"VEC2"}],"asset":{"generator":"FBX2glTF v0.13.1","version":"2.0"},"bufferViews":[{"buffer":0,"byteLength":3552,"byteOffset":0,"target":34963},{"buffer":0,"byteLength":12960,"byteOffset":3552,"target":34962},{"buffer":0,"byteLength":12960,"byteOffset":16512,"target":34962},{"buffer":0,"byteLength":8640,"byteOffset":29472,"target":34962}],"buffers":[{"byteLength":38112,"uri":"SM_wheat_02.bin"}],"images":[{"name":"Polygon_Camping_Texture_vol2.0","uri":"Polygon_Camping_Texture_vol2.0.jpg"}],"materials":[{"alphaMode":"OPAQUE","doubleSided":false,"extras":{"fromFBX":{"isTruePBR":false,"shadingModel":"Phong"}},"name":"Material","pbrMetallicRoughness":{"baseColorFactor":[1,1,1,1],"baseColorTexture":{"index":0,"texCoord":0},"metallicFactor":0.400000005960464,"roughnessFactor":0.254953622817993}}],"meshes":[{"name":"wheat_02","primitives":[{"attributes":{"NORMAL":2,"POSITION":1,"TEXCOORD_0":3},"indices":0,"material":0,"mode":4}]}],"nodes":[{"mesh":0,"name":"wheat_02","rotation":[0,0,0,1],"scale":[1,1,1],"translation":[51.1888236999512,0,0]}],"samplers":[{}],"scene":0,"scenes":[{"name":"Root Scene","nodes":[0]}],"textures":[{"name":"base_color_texture","sampler":0,"source":0}]}