{"accessors":[{"bufferView":0,"byteOffset":0,"componentType":5123,"count":300,"type":"SCALAR"},{"bufferView":1,"byteOffset":0,"componentType":5126,"count":156,"max":[2.44900035858154,0.067144013941288,-2.03349900245667],"min":[1.83399999141693,-0.03708567842841,-2.73349905014038],"type":"VEC3"},{"bufferView":2,"byteOffset":0,"componentType":5126,"count":156,"type":"VEC3"},{"bufferView":3,"byteOffset":0,"componentType":5126,"count":156,"type":"VEC2"}],"asset":{"generator":"FBX2glTF v0.13.1","version":"2.0"},"bufferViews":[{"buffer":0,"byteLength":600,"byteOffset":0,"target":34963},{"buffer":0,"byteLength":1872,"byteOffset":600,"target":34962},{"buffer":0,"byteLength":1872,"byteOffset":2472,"target":34962},{"buffer":0,"byteLength":1248,"byteOffset":4344,"target":34962}],"buffers":[{"byteLength":5592,"uri":"SM_Large_C.bin"}],"images":[{"name":"Polygon_Camping_Texture_vol2.0","uri":"Polygon_Camping_Texture_vol2.0.jpg"}],"materials":[{"alphaMode":"OPAQUE","doubleSided":false,"extras":{"fromFBX":{"isTruePBR":false,"shadingModel":"Phong"}},"name":"Material","pbrMetallicRoughness":{"baseColorFactor":[1,1,1,1],"baseColorTexture":{"index":0,"texCoord":0},"metallicFactor":0.400000005960464,"roughnessFactor":0.272165536880493}}],"meshes":[{"name":"Large_C","primitives":[{"attributes":{"NORMAL":2,"POSITION":1,"TEXCOORD_0":3},"indices":0,"material":0,"mode":4}]}],"nodes":[{"mesh":0,"name":"Large_C","rotation":[0.707106828689575,0,0,0.707106709480286],"scale":[1,1,1],"translation":[0,0,0]}],"samplers":[{}],"scene":0,"scenes":[{"name":"Root Scene","nodes":[0]}],"textures":[{"name":"base_color_texture","sampler":0,"source":0}]}