{"accessors":[{"bufferView":0,"byteOffset":0,"componentType":5123,"count":96,"type":"SCALAR"},{"bufferView":1,"byteOffset":0,"componentType":5126,"count":54,"max":[22.7719974517822,0.067144013941288,-2.04249906539917],"min":[22.1679973602295,-0.03708567842841,-2.72449922561646],"type":"VEC3"},{"bufferView":2,"byteOffset":0,"componentType":5126,"count":54,"type":"VEC3"},{"bufferView":3,"byteOffset":0,"componentType":5126,"count":54,"type":"VEC2"}],"asset":{"generator":"FBX2glTF v0.13.1","version":"2.0"},"bufferViews":[{"buffer":0,"byteLength":192,"byteOffset":0,"target":34963},{"buffer":0,"byteLength":648,"byteOffset":192,"target":34962},{"buffer":0,"byteLength":648,"byteOffset":840,"target":34962},{"buffer":0,"byteLength":432,"byteOffset":1488,"target":34962}],"buffers":[{"byteLength":1920,"uri":"SM_Large_Y.bin"}],"images":[{"name":"Polygon_Camping_Texture_vol2.0","uri":"Polygon_Camping_Texture_vol2.0.jpg"}],"materials":[{"alphaMode":"OPAQUE","doubleSided":false,"extras":{"fromFBX":{"isTruePBR":false,"shadingModel":"Phong"}},"name":"Material","pbrMetallicRoughness":{"baseColorFactor":[1,1,1,1],"baseColorTexture":{"index":0,"texCoord":0},"metallicFactor":0.400000005960464,"roughnessFactor":0.272165536880493}}],"meshes":[{"name":"Large_Y","primitives":[{"attributes":{"NORMAL":2,"POSITION":1,"TEXCOORD_0":3},"indices":0,"material":0,"mode":4}]}],"nodes":[{"mesh":0,"name":"Large_Y","rotation":[0.707106828689575,0,0,0.707106709480286],"scale":[1,1,1],"translation":[0,0,0]}],"samplers":[{}],"scene":0,"scenes":[{"name":"Root Scene","nodes":[0]}],"textures":[{"name":"base_color_texture","sampler":0,"source":0}]}