{"accessors":[{"bufferView":0,"byteOffset":0,"componentType":5123,"count":324,"type":"SCALAR"},{"bufferView":1,"byteOffset":0,"componentType":5126,"count":170,"max":[3.43300032615662,0.0671438798308372,-1.03349912166595],"min":[3.02799987792969,-0.03708578646183,-1.50049912929535],"type":"VEC3"},{"bufferView":2,"byteOffset":0,"componentType":5126,"count":170,"type":"VEC3"},{"bufferView":3,"byteOffset":0,"componentType":5126,"count":170,"type":"VEC2"}],"asset":{"generator":"FBX2glTF v0.13.1","version":"2.0"},"bufferViews":[{"buffer":0,"byteLength":648,"byteOffset":0,"target":34963},{"buffer":0,"byteLength":2040,"byteOffset":648,"target":34962},{"buffer":0,"byteLength":2040,"byteOffset":2688,"target":34962},{"buffer":0,"byteLength":1360,"byteOffset":4728,"target":34962}],"buffers":[{"byteLength":6088,"uri":"SM_Small_e.bin"}],"images":[{"name":"Polygon_Camping_Texture_vol2.0","uri":"Polygon_Camping_Texture_vol2.0.jpg"}],"materials":[{"alphaMode":"OPAQUE","doubleSided":false,"extras":{"fromFBX":{"isTruePBR":false,"shadingModel":"Phong"}},"name":"Material","pbrMetallicRoughness":{"baseColorFactor":[1,1,1,1],"baseColorTexture":{"index":0,"texCoord":0},"metallicFactor":0.400000005960464,"roughnessFactor":0.272165536880493}}],"meshes":[{"name":"Small_e","primitives":[{"attributes":{"NORMAL":2,"POSITION":1,"TEXCOORD_0":3},"indices":0,"material":0,"mode":4}]}],"nodes":[{"mesh":0,"name":"Small_e","rotation":[0.707106828689575,0,0,0.707106709480286],"scale":[1,1,1],"translation":[0,0,0]}],"samplers":[{}],"scene":0,"scenes":[{"name":"Root Scene","nodes":[0]}],"textures":[{"name":"base_color_texture","sampler":0,"source":0}]}