{"accessors":[{"bufferView":0,"byteOffset":0,"componentType":5123,"count":408,"type":"SCALAR"},{"bufferView":1,"byteOffset":0,"componentType":5126,"count":210,"max":[13.2349987030029,0.0671438798308372,-1.03349912166595],"min":[12.9309978485107,-0.03708578646183,-1.50049912929535],"type":"VEC3"},{"bufferView":2,"byteOffset":0,"componentType":5126,"count":210,"type":"VEC3"},{"bufferView":3,"byteOffset":0,"componentType":5126,"count":210,"type":"VEC2"}],"asset":{"generator":"FBX2glTF v0.13.1","version":"2.0"},"bufferViews":[{"buffer":0,"byteLength":816,"byteOffset":0,"target":34963},{"buffer":0,"byteLength":2520,"byteOffset":816,"target":34962},{"buffer":0,"byteLength":2520,"byteOffset":3336,"target":34962},{"buffer":0,"byteLength":1680,"byteOffset":5856,"target":34962}],"buffers":[{"byteLength":7536,"uri":"SM_Small_s.bin"}],"images":[{"name":"Polygon_Camping_Texture_vol2.0","uri":"Polygon_Camping_Texture_vol2.0.jpg"}],"materials":[{"alphaMode":"OPAQUE","doubleSided":false,"extras":{"fromFBX":{"isTruePBR":false,"shadingModel":"Phong"}},"name":"Material","pbrMetallicRoughness":{"baseColorFactor":[1,1,1,1],"baseColorTexture":{"index":0,"texCoord":0},"metallicFactor":0.400000005960464,"roughnessFactor":0.272165536880493}}],"meshes":[{"name":"Small_s","primitives":[{"attributes":{"NORMAL":2,"POSITION":1,"TEXCOORD_0":3},"indices":0,"material":0,"mode":4}]}],"nodes":[{"mesh":0,"name":"Small_s","rotation":[0.707106828689575,0,0,0.707106709480286],"scale":[1,1,1],"translation":[0,0,0]}],"samplers":[{}],"scene":0,"scenes":[{"name":"Root Scene","nodes":[0]}],"textures":[{"name":"base_color_texture","sampler":0,"source":0}]}