{"accessors":[{"bufferView":0,"byteOffset":0,"componentType":5123,"count":816,"type":"SCALAR"},{"bufferView":1,"byteOffset":0,"componentType":5126,"count":418,"max":[4.69300031661987,0.0671438798308372,-0.81249904632568],"min":[4.27200031280518,-0.03708580881357,-1.49149894714355],"type":"VEC3"},{"bufferView":2,"byteOffset":0,"componentType":5126,"count":418,"type":"VEC3"},{"bufferView":3,"byteOffset":0,"componentType":5126,"count":418,"type":"VEC2"}],"asset":{"generator":"FBX2glTF v0.13.1","version":"2.0"},"bufferViews":[{"buffer":0,"byteLength":1632,"byteOffset":0,"target":34963},{"buffer":0,"byteLength":5016,"byteOffset":1632,"target":34962},{"buffer":0,"byteLength":5016,"byteOffset":6648,"target":34962},{"buffer":0,"byteLength":3344,"byteOffset":11664,"target":34962}],"buffers":[{"byteLength":15008,"uri":"SM_Small_g.bin"}],"images":[{"name":"Polygon_Camping_Texture_vol2.0","uri":"Polygon_Camping_Texture_vol2.0.jpg"}],"materials":[{"alphaMode":"OPAQUE","doubleSided":false,"extras":{"fromFBX":{"isTruePBR":false,"shadingModel":"Phong"}},"name":"Material","pbrMetallicRoughness":{"baseColorFactor":[1,1,1,1],"baseColorTexture":{"index":0,"texCoord":0},"metallicFactor":0.400000005960464,"roughnessFactor":0.272165536880493}}],"meshes":[{"name":"Small_g","primitives":[{"attributes":{"NORMAL":2,"POSITION":1,"TEXCOORD_0":3},"indices":0,"material":0,"mode":4}]}],"nodes":[{"mesh":0,"name":"Small_g","rotation":[0.707106828689575,0,0,0.707106709480286],"scale":[1,1,1],"translation":[0,0,0]}],"samplers":[{}],"scene":0,"scenes":[{"name":"Root Scene","nodes":[0]}],"textures":[{"name":"base_color_texture","sampler":0,"source":0}]}