{"accessors":[{"bufferView":0,"byteOffset":0,"componentType":5123,"count":276,"type":"SCALAR"},{"bufferView":1,"byteOffset":0,"componentType":5126,"count":144,"max":[4.04000043869019,0.067143902182579,-1.04249906539917],"min":[3.75300002098083,-0.03708578646183,-1.73390650749207],"type":"VEC3"},{"bufferView":2,"byteOffset":0,"componentType":5126,"count":144,"type":"VEC3"},{"bufferView":3,"byteOffset":0,"componentType":5126,"count":144,"type":"VEC2"}],"asset":{"generator":"FBX2glTF v0.13.1","version":"2.0"},"bufferViews":[{"buffer":0,"byteLength":552,"byteOffset":0,"target":34963},{"buffer":0,"byteLength":1728,"byteOffset":552,"target":34962},{"buffer":0,"byteLength":1728,"byteOffset":2280,"target":34962},{"buffer":0,"byteLength":1152,"byteOffset":4008,"target":34962}],"buffers":[{"byteLength":5160,"uri":"SM_Small_f.bin"}],"images":[{"name":"Polygon_Camping_Texture_vol2.0","uri":"Polygon_Camping_Texture_vol2.0.jpg"}],"materials":[{"alphaMode":"OPAQUE","doubleSided":false,"extras":{"fromFBX":{"isTruePBR":false,"shadingModel":"Phong"}},"name":"Material","pbrMetallicRoughness":{"baseColorFactor":[1,1,1,1],"baseColorTexture":{"index":0,"texCoord":0},"metallicFactor":0.400000005960464,"roughnessFactor":0.272165536880493}}],"meshes":[{"name":"Small_f","primitives":[{"attributes":{"NORMAL":2,"POSITION":1,"TEXCOORD_0":3},"indices":0,"material":0,"mode":4}]}],"nodes":[{"mesh":0,"name":"Small_f","rotation":[0.707106828689575,0,0,0.707106709480286],"scale":[1,1,1],"translation":[0,0,0]}],"samplers":[{}],"scene":0,"scenes":[{"name":"Root Scene","nodes":[0]}],"textures":[{"name":"base_color_texture","sampler":0,"source":0}]}