{"accessors":[{"bufferView":0,"byteOffset":0,"componentType":5123,"count":7062,"type":"SCALAR"},{"bufferView":1,"byteOffset":0,"componentType":5126,"count":4584,"max":[1.08541059494019,2.18967127799988,1.02522718906403],"min":[-1.08541059494019,0.0142870480194688,-4.78970623016357],"type":"VEC3"},{"bufferView":2,"byteOffset":0,"componentType":5126,"count":4584,"type":"VEC3"},{"bufferView":3,"byteOffset":0,"componentType":5126,"count":4584,"type":"VEC2"},{"bufferView":4,"byteOffset":0,"componentType":5123,"count":1752,"type":"SCALAR"},{"bufferView":5,"byteOffset":0,"componentType":5126,"count":1116,"max":[0.221571981906891,0.32112842798233,0.321128308773041],"min":[-0.06746333837509,-0.32112821936607,-0.32112830877304],"type":"VEC3"},{"bufferView":6,"byteOffset":0,"componentType":5126,"count":1116,"type":"VEC3"},{"bufferView":7,"byteOffset":0,"componentType":5126,"count":1116,"type":"VEC2"},{"bufferView":8,"byteOffset":0,"componentType":5123,"count":1752,"type":"SCALAR"},{"bufferView":9,"byteOffset":0,"componentType":5126,"count":1116,"max":[-0.72226589918137,0.32112842798233,0.321125745773315],"min":[-1.01130127906799,-0.32112821936607,-0.32113075256348],"type":"VEC3"},{"bufferView":10,"byteOffset":0,"componentType":5126,"count":1116,"type":"VEC3"},{"bufferView":11,"byteOffset":0,"componentType":5126,"count":1116,"type":"VEC2"},{"bufferView":12,"byteOffset":0,"componentType":5123,"count":1752,"type":"SCALAR"},{"bufferView":13,"byteOffset":0,"componentType":5126,"count":1116,"max":[0.0674633383750916,0.32112842798233,0.321128308773041],"min":[-0.22157198190689,-0.32112821936607,-0.32112830877304],"type":"VEC3"},{"bufferView":14,"byteOffset":0,"componentType":5126,"count":1116,"type":"VEC3"},{"bufferView":15,"byteOffset":0,"componentType":5126,"count":1116,"type":"VEC2"},{"bufferView":16,"byteOffset":0,"componentType":5123,"count":1752,"type":"SCALAR"},{"bufferView":17,"byteOffset":0,"componentType":5126,"count":1116,"max":[1.01130032539368,0.32112842798233,0.321125745773315],"min":[0.722265005111694,-0.32112821936607,-0.32113075256348],"type":"VEC3"},{"bufferView":18,"byteOffset":0,"componentType":5126,"count":1116,"type":"VEC3"},{"bufferView":19,"byteOffset":0,"componentType":5126,"count":1116,"type":"VEC2"},{"bufferView":20,"byteOffset":0,"componentType":5123,"count":138,"type":"SCALAR"},{"bufferView":21,"byteOffset":0,"componentType":5126,"count":90,"max":[0.886173367500305,0.980522811412811,0.898320198059082],"min":[-0.8861733675003,0.174455747008324,0.422762542963028],"type":"VEC3"},{"bufferView":22,"byteOffset":0,"componentType":5126,"count":90,"type":"VEC3"},{"bufferView":23,"byteOffset":0,"componentType":5126,"count":90,"type":"VEC2"},{"bufferView":24,"byteOffset":0,"componentType":5123,"count":420,"type":"SCALAR"},{"bufferView":25,"byteOffset":0,"componentType":5126,"count":260,"max":[1.0632084608078,1.97768425941467,0.194374457001686],"min":[-1.0632084608078,0.736908614635468,-4.7683310508728],"type":"VEC3"},{"bufferView":26,"byteOffset":0,"componentType":5126,"count":260,"type":"VEC3"},{"bufferView":27,"byteOffset":0,"componentType":5126,"count":260,"type":"VEC2"},{"bufferView":28,"byteOffset":0,"componentType":5123,"count":24,"type":"SCALAR"},{"bufferView":29,"byteOffset":0,"componentType":5126,"count":16,"max":[0.923159897327423,0.40701824426651,-4.69284868240356],"min":[-0.92315989732742,0.232095673680305,-4.75196933746338],"type":"VEC3"},{"bufferView":30,"byteOffset":0,"componentType":5126,"count":16,"type":"VEC3"},{"bufferView":31,"byteOffset":0,"componentType":5126,"count":16,"type":"VEC2"},{"bufferView":32,"byteOffset":0,"componentType":5123,"count":24,"type":"SCALAR"},{"bufferView":33,"byteOffset":0,"componentType":5126,"count":16,"max":[0.931054353713989,0.682297646999359,-4.70159387588501],"min":[-0.93105435371399,0.406483709812164,-4.75340795516968],"type":"VEC3"},{"bufferView":34,"byteOffset":0,"componentType":5126,"count":16,"type":"VEC3"},{"bufferView":35,"byteOffset":0,"componentType":5126,"count":16,"type":"VEC2"},{"bufferView":36,"byteOffset":0,"componentType":5123,"count":42,"type":"SCALAR"},{"bufferView":37,"byteOffset":0,"componentType":5126,"count":28,"max":[-0.15306404232979,2.18967127799988,-1.03663563728333],"min":[-0.512824177742,2.05003142356873,-1.31879198551178],"type":"VEC3"},{"bufferView":38,"byteOffset":0,"componentType":5126,"count":28,"type":"VEC3"},{"bufferView":39,"byteOffset":0,"componentType":5126,"count":28,"type":"VEC2"},{"bufferView":40,"byteOffset":0,"componentType":5123,"count":42,"type":"SCALAR"},{"bufferView":41,"byteOffset":0,"componentType":5126,"count":28,"max":[0.512824177742004,2.18967127799988,-1.03663563728333],"min":[0.153064042329788,2.05003142356873,-1.31879198551178],"type":"VEC3"},{"bufferView":42,"byteOffset":0,"componentType":5126,"count":28,"type":"VEC3"},{"bufferView":43,"byteOffset":0,"componentType":5126,"count":28,"type":"VEC2"}],"asset":{"generator":"FBX2glTF v0.13.1","version":"2.0"},"bufferViews":[{"buffer":0,"byteLength":14124,"byteOffset":0,"target":34963},{"buffer":0,"byteLength":55008,"byteOffset":14124,"target":34962},{"buffer":0,"byteLength":55008,"byteOffset":69132,"target":34962},{"buffer":0,"byteLength":36672,"byteOffset":124140,"target":34962},{"buffer":0,"byteLength":3504,"byteOffset":160812,"target":34963},{"buffer":0,"byteLength":13392,"byteOffset":164316,"target":34962},{"buffer":0,"byteLength":13392,"byteOffset":177708,"target":34962},{"buffer":0,"byteLength":8928,"byteOffset":191100,"target":34962},{"buffer":0,"byteLength":3504,"byteOffset":200028,"target":34963},{"buffer":0,"byteLength":13392,"byteOffset":203532,"target":34962},{"buffer":0,"byteLength":13392,"byteOffset":216924,"target":34962},{"buffer":0,"byteLength":8928,"byteOffset":230316,"target":34962},{"buffer":0,"byteLength":3504,"byteOffset":239244,"target":34963},{"buffer":0,"byteLength":13392,"byteOffset":242748,"target":34962},{"buffer":0,"byteLength":13392,"byteOffset":256140,"target":34962},{"buffer":0,"byteLength":8928,"byteOffset":269532,"target":34962},{"buffer":0,"byteLength":3504,"byteOffset":278460,"target":34963},{"buffer":0,"byteLength":13392,"byteOffset":281964,"target":34962},{"buffer":0,"byteLength":13392,"byteOffset":295356,"target":34962},{"buffer":0,"byteLength":8928,"byteOffset":308748,"target":34962},{"buffer":0,"byteLength":276,"byteOffset":317676,"target":34963},{"buffer":0,"byteLength":1080,"byteOffset":317952,"target":34962},{"buffer":0,"byteLength":1080,"byteOffset":319032,"target":34962},{"buffer":0,"byteLength":720,"byteOffset":320112,"target":34962},{"buffer":0,"byteLength":840,"byteOffset":320832,"target":34963},{"buffer":0,"byteLength":3120,"byteOffset":321672,"target":34962},{"buffer":0,"byteLength":3120,"byteOffset":324792,"target":34962},{"buffer":0,"byteLength":2080,"byteOffset":327912,"target":34962},{"buffer":0,"byteLength":48,"byteOffset":329992,"target":34963},{"buffer":0,"byteLength":192,"byteOffset":330040,"target":34962},{"buffer":0,"byteLength":192,"byteOffset":330232,"target":34962},{"buffer":0,"byteLength":128,"byteOffset":330424,"target":34962},{"buffer":0,"byteLength":48,"byteOffset":330552,"target":34963},{"buffer":0,"byteLength":192,"byteOffset":330600,"target":34962},{"buffer":0,"byteLength":192,"byteOffset":330792,"target":34962},{"buffer":0,"byteLength":128,"byteOffset":330984,"target":34962},{"buffer":0,"byteLength":84,"byteOffset":331112,"target":34963},{"buffer":0,"byteLength":336,"byteOffset":331196,"target":34962},{"buffer":0,"byteLength":336,"byteOffset":331532,"target":34962},{"buffer":0,"byteLength":224,"byteOffset":331868,"target":34962},{"buffer":0,"byteLength":84,"byteOffset":332092,"target":34963},{"buffer":0,"byteLength":336,"byteOffset":332176,"target":34962},{"buffer":0,"byteLength":336,"byteOffset":332512,"target":34962},{"buffer":0,"byteLength":224,"byteOffset":332848,"target":34962}],"buffers":[{"byteLength":333072,"uri":"SM_Ambulance.bin"}],"images":[{"name":"Polygon_Texture_vol2","uri":"Polygon_Texture_vol2.png"}],"materials":[{"alphaMode":"OPAQUE","doubleSided":false,"extras":{"fromFBX":{"isTruePBR":false,"shadingModel":"Phong"}},"name":"Material","pbrMetallicRoughness":{"baseColorFactor":[1,1,1,1],"baseColorTexture":{"index":0,"texCoord":0},"metallicFactor":0.400000005960464,"roughnessFactor":0.272165536880493}},{"alphaMode":"OPAQUE","doubleSided":false,"extras":{"fromFBX":{"isTruePBR":false,"shadingModel":"Phong"}},"name":"Material.004","pbrMetallicRoughness":{"baseColorFactor":[0.800000011920929,0.800000011920929,0.800000011920929,1],"metallicFactor":0.400000005960464,"roughnessFactor":0.272165536880493}},{"alphaMode":"OPAQUE","doubleSided":false,"extras":{"fromFBX":{"isTruePBR":false,"shadingModel":"Phong"}},"name":"Material.001","pbrMetallicRoughness":{"baseColorFactor":[0.800000011920929,0.800000011920929,0.800000011920929,1],"metallicFactor":0.400000005960464,"roughnessFactor":0.272165536880493}},{"alphaMode":"OPAQUE","doubleSided":false,"extras":{"fromFBX":{"isTruePBR":false,"shadingModel":"Phong"}},"name":"Material.006","pbrMetallicRoughness":{"baseColorFactor":[0.800000011920929,0.800000011920929,0.800000011920929,1],"metallicFactor":0.400000005960464,"roughnessFactor":0.272165536880493}},{"alphaMode":"OPAQUE","doubleSided":false,"extras":{"fromFBX":{"isTruePBR":false,"shadingModel":"Phong"}},"name":"Material.005","pbrMetallicRoughness":{"baseColorFactor":[0.800000011920929,0.800000011920929,0.800000011920929,1],"metallicFactor":0.400000005960464,"roughnessFactor":0.272165536880493}},{"alphaMode":"OPAQUE","doubleSided":false,"extras":{"fromFBX":{"isTruePBR":false,"shadingModel":"Phong"}},"name":"Material.003","pbrMetallicRoughness":{"baseColorFactor":[0.800000011920929,0.800000011920929,0.800000011920929,1],"metallicFactor":0.400000005960464,"roughnessFactor":0.272165536880493}},{"alphaMode":"OPAQUE","doubleSided":false,"extras":{"fromFBX":{"isTruePBR":false,"shadingModel":"Phong"}},"name":"Material.002","pbrMetallicRoughness":{"baseColorFactor":[0.800000011920929,0.800000011920929,0.800000011920929,1],"metallicFactor":0.400000005960464,"roughnessFactor":0.272165536880493}}],"meshes":[{"name":"Ambulance","primitives":[{"attributes":{"NORMAL":2,"POSITION":1,"TEXCOORD_0":3},"indices":0,"material":0,"mode":4},{"attributes":{"NORMAL":22,"POSITION":21,"TEXCOORD_0":23},"indices":20,"material":1,"mode":4},{"attributes":{"NORMAL":26,"POSITION":25,"TEXCOORD_0":27},"indices":24,"material":2,"mode":4},{"attributes":{"NORMAL":30,"POSITION":29,"TEXCOORD_0":31},"indices":28,"material":3,"mode":4},{"attributes":{"NORMAL":34,"POSITION":33,"TEXCOORD_0":35},"indices":32,"material":4,"mode":4},{"attributes":{"NORMAL":38,"POSITION":37,"TEXCOORD_0":39},"indices":36,"material":5,"mode":4},{"attributes":{"NORMAL":42,"POSITION":41,"TEXCOORD_0":43},"indices":40,"material":6,"mode":4}]},{"name":"Wheel_023","primitives":[{"attributes":{"NORMAL":6,"POSITION":5,"TEXCOORD_0":7},"indices":4,"material":0,"mode":4}]},{"name":"Wheel_025","primitives":[{"attributes":{"NORMAL":10,"POSITION":9,"TEXCOORD_0":11},"indices":8,"material":0,"mode":4}]},{"name":"Wheel_024","primitives":[{"attributes":{"NORMAL":14,"POSITION":13,"TEXCOORD_0":15},"indices":12,"material":0,"mode":4}]},{"name":"Wheel_025.001","primitives":[{"attributes":{"NORMAL":18,"POSITION":17,"TEXCOORD_0":19},"indices":16,"material":0,"mode":4}]}],"nodes":[{"children":[1,2,3,4],"mesh":0,"name":"Ambulance","rotation":[0,0,0,1],"scale":[1,1,1],"translation":[3.00896286964417,0.18733237683773,0]},{"mesh":1,"name":"Wheel_023","rotation":[0,0,0,1],"scale":[1,1,1],"translation":[-0.94383728504181,0.137385919690132,-0.04796958342195]},{"mesh":2,"name":"Wheel_025","rotation":[0,0,0,1],"scale":[1,1,1],"translation":[0.000000610351548857579,0.137385919690132,-3.85779738426208]},{"mesh":3,"name":"Wheel_024","rotation":[0,0,0,1],"scale":[1,1,1],"translation":[0.943837583065033,0.137385919690132,-0.04796958342195]},{"mesh":4,"name":"Wheel_025.001","rotation":[0,0,0,1],"scale":[1,1,1],"translation":[0.000000610351548857579,0.137385919690132,-3.85779738426208]}],"samplers":[{}],"scene":0,"scenes":[{"name":"Root Scene","nodes":[0]}],"textures":[{"name":"base_color_texture","sampler":0,"source":0}]}