{"accessors":[{"bufferView":0,"byteOffset":0,"componentType":5123,"count":8418,"type":"SCALAR"},{"bufferView":1,"byteOffset":0,"componentType":5126,"count":5379,"max":[1.03304731845856,0.674773693084717,2.3005633354187],"min":[-1.03304660320282,-0.63044756650925,-2.59037947654724],"type":"VEC3"},{"bufferView":2,"byteOffset":0,"componentType":5126,"count":5379,"type":"VEC3"},{"bufferView":3,"byteOffset":0,"componentType":5126,"count":5379,"type":"VEC2"},{"bufferView":4,"byteOffset":0,"componentType":5123,"count":2436,"type":"SCALAR"},{"bufferView":5,"byteOffset":0,"componentType":5126,"count":1502,"max":[0.161683619022369,0.33920830488205,0.339208036661148],"min":[-0.05158150196075,-0.33920794725418,-0.33920812606812],"type":"VEC3"},{"bufferView":6,"byteOffset":0,"componentType":5126,"count":1502,"type":"VEC3"},{"bufferView":7,"byteOffset":0,"componentType":5126,"count":1502,"type":"VEC2"},{"bufferView":8,"byteOffset":0,"componentType":5123,"count":2436,"type":"SCALAR"},{"bufferView":9,"byteOffset":0,"componentType":5126,"count":1517,"max":[0.0515815019607544,0.33920830488205,0.339208036661148],"min":[-0.16168361902237,-0.33920794725418,-0.33920812606812],"type":"VEC3"},{"bufferView":10,"byteOffset":0,"componentType":5126,"count":1517,"type":"VEC3"},{"bufferView":11,"byteOffset":0,"componentType":5126,"count":1517,"type":"VEC2"},{"bufferView":12,"byteOffset":0,"componentType":5123,"count":2436,"type":"SCALAR"},{"bufferView":13,"byteOffset":0,"componentType":5126,"count":1516,"max":[-0.69111770391464,0.368073344230652,0.368072509765625],"min":[-0.9843527674675,-0.36807268857956,-0.3680736720562],"type":"VEC3"},{"bufferView":14,"byteOffset":0,"componentType":5126,"count":1516,"type":"VEC3"},{"bufferView":15,"byteOffset":0,"componentType":5126,"count":1516,"type":"VEC2"},{"bufferView":16,"byteOffset":0,"componentType":5123,"count":2436,"type":"SCALAR"},{"bufferView":17,"byteOffset":0,"componentType":5126,"count":1523,"max":[0.984349191188812,0.368073344230652,0.368072509765625],"min":[0.691114127635956,-0.36807268857956,-0.3680736720562],"type":"VEC3"},{"bufferView":18,"byteOffset":0,"componentType":5126,"count":1523,"type":"VEC3"},{"bufferView":19,"byteOffset":0,"componentType":5126,"count":1523,"type":"VEC2"},{"bufferView":20,"byteOffset":0,"componentType":5123,"count":60,"type":"SCALAR"},{"bufferView":21,"byteOffset":0,"componentType":5126,"count":36,"max":[0.823152363300323,-0.06248819828033,2.12222719192505],"min":[-0.82315158843994,-0.24345551431179,1.801793217659],"type":"VEC3"},{"bufferView":22,"byteOffset":0,"componentType":5126,"count":36,"type":"VEC3"},{"bufferView":23,"byteOffset":0,"componentType":5126,"count":36,"type":"VEC2"},{"bufferView":24,"byteOffset":0,"componentType":5123,"count":60,"type":"SCALAR"},{"bufferView":25,"byteOffset":0,"componentType":5126,"count":32,"max":[0.597034811973572,0.252290934324265,-2.31820297241211],"min":[-0.59703409671783,0.0492843389511108,-2.42623519897461],"type":"VEC3"},{"bufferView":26,"byteOffset":0,"componentType":5126,"count":32,"type":"VEC3"},{"bufferView":27,"byteOffset":0,"componentType":5126,"count":32,"type":"VEC2"},{"bufferView":28,"byteOffset":0,"componentType":5123,"count":300,"type":"SCALAR"},{"bufferView":29,"byteOffset":0,"componentType":5126,"count":184,"max":[1.02829957008362,0.592363595962524,0.793630123138428],"min":[-1.02829885482788,0.17668890953064,-2.01426839828491],"type":"VEC3"},{"bufferView":30,"byteOffset":0,"componentType":5126,"count":184,"type":"VEC3"},{"bufferView":31,"byteOffset":0,"componentType":5126,"count":184,"type":"VEC2"}],"asset":{"generator":"FBX2glTF v0.13.1","version":"2.0"},"bufferViews":[{"buffer":0,"byteLength":16836,"byteOffset":0,"target":34963},{"buffer":0,"byteLength":64548,"byteOffset":16836,"target":34962},{"buffer":0,"byteLength":64548,"byteOffset":81384,"target":34962},{"buffer":0,"byteLength":43032,"byteOffset":145932,"target":34962},{"buffer":0,"byteLength":4872,"byteOffset":188964,"target":34963},{"buffer":0,"byteLength":18024,"byteOffset":193836,"target":34962},{"buffer":0,"byteLength":18024,"byteOffset":211860,"target":34962},{"buffer":0,"byteLength":12016,"byteOffset":229884,"target":34962},{"buffer":0,"byteLength":4872,"byteOffset":241900,"target":34963},{"buffer":0,"byteLength":18204,"byteOffset":246772,"target":34962},{"buffer":0,"byteLength":18204,"byteOffset":264976,"target":34962},{"buffer":0,"byteLength":12136,"byteOffset":283180,"target":34962},{"buffer":0,"byteLength":4872,"byteOffset":295316,"target":34963},{"buffer":0,"byteLength":18192,"byteOffset":300188,"target":34962},{"buffer":0,"byteLength":18192,"byteOffset":318380,"target":34962},{"buffer":0,"byteLength":12128,"byteOffset":336572,"target":34962},{"buffer":0,"byteLength":4872,"byteOffset":348700,"target":34963},{"buffer":0,"byteLength":18276,"byteOffset":353572,"target":34962},{"buffer":0,"byteLength":18276,"byteOffset":371848,"target":34962},{"buffer":0,"byteLength":12184,"byteOffset":390124,"target":34962},{"buffer":0,"byteLength":120,"byteOffset":402308,"target":34963},{"buffer":0,"byteLength":432,"byteOffset":402428,"target":34962},{"buffer":0,"byteLength":432,"byteOffset":402860,"target":34962},{"buffer":0,"byteLength":288,"byteOffset":403292,"target":34962},{"buffer":0,"byteLength":120,"byteOffset":403580,"target":34963},{"buffer":0,"byteLength":384,"byteOffset":403700,"target":34962},{"buffer":0,"byteLength":384,"byteOffset":404084,"target":34962},{"buffer":0,"byteLength":256,"byteOffset":404468,"target":34962},{"buffer":0,"byteLength":600,"byteOffset":404724,"target":34963},{"buffer":0,"byteLength":2208,"byteOffset":405324,"target":34962},{"buffer":0,"byteLength":2208,"byteOffset":407532,"target":34962},{"buffer":0,"byteLength":1472,"byteOffset":409740,"target":34962}],"buffers":[{"byteLength":411212,"uri":"SM_Car_01.bin"}],"images":[{"name":"Polygon_Texture_vol2","uri":"Polygon_Texture_vol2.png"}],"materials":[{"alphaMode":"OPAQUE","doubleSided":false,"extras":{"fromFBX":{"isTruePBR":false,"shadingModel":"Phong"}},"name":"Material","pbrMetallicRoughness":{"baseColorFactor":[1,1,1,1],"baseColorTexture":{"index":0,"texCoord":0},"metallicFactor":0.400000005960464,"roughnessFactor":0.272165536880493}},{"alphaMode":"OPAQUE","doubleSided":false,"extras":{"fromFBX":{"isTruePBR":false,"shadingModel":"Phong"}},"name":"Material.003","pbrMetallicRoughness":{"baseColorFactor":[0.800000011920929,0.800000011920929,0.800000011920929,1],"metallicFactor":0.400000005960464,"roughnessFactor":0.272165536880493}},{"alphaMode":"OPAQUE","doubleSided":false,"extras":{"fromFBX":{"isTruePBR":false,"shadingModel":"Phong"}},"name":"Material.002","pbrMetallicRoughness":{"baseColorFactor":[0.800000011920929,0.800000011920929,0.800000011920929,1],"metallicFactor":0.400000005960464,"roughnessFactor":0.272165536880493}},{"alphaMode":"OPAQUE","doubleSided":false,"extras":{"fromFBX":{"isTruePBR":false,"shadingModel":"Phong"}},"name":"Material.001","pbrMetallicRoughness":{"baseColorFactor":[0.800000011920929,0.800000011920929,0.800000011920929,1],"metallicFactor":0.400000005960464,"roughnessFactor":0.272165536880493}}],"meshes":[{"name":"Car_01","primitives":[{"attributes":{"NORMAL":2,"POSITION":1,"TEXCOORD_0":3},"indices":0,"material":0,"mode":4},{"attributes":{"NORMAL":22,"POSITION":21,"TEXCOORD_0":23},"indices":20,"material":1,"mode":4},{"attributes":{"NORMAL":26,"POSITION":25,"TEXCOORD_0":27},"indices":24,"material":2,"mode":4},{"attributes":{"NORMAL":30,"POSITION":29,"TEXCOORD_0":31},"indices":28,"material":3,"mode":4}]},{"name":"Wheel_013","primitives":[{"attributes":{"NORMAL":6,"POSITION":5,"TEXCOORD_0":7},"indices":4,"material":0,"mode":4}]},{"name":"Wheel_014","primitives":[{"attributes":{"NORMAL":10,"POSITION":9,"TEXCOORD_0":11},"indices":8,"material":0,"mode":4}]},{"name":"Wheel_015","primitives":[{"attributes":{"NORMAL":14,"POSITION":13,"TEXCOORD_0":15},"indices":12,"material":0,"mode":4}]},{"name":"Wheel_015.001","primitives":[{"attributes":{"NORMAL":18,"POSITION":17,"TEXCOORD_0":19},"indices":16,"material":0,"mode":4}]}],"nodes":[{"children":[1,2,3,4],"mesh":0,"name":"Car_01","rotation":[0,0,0,1],"scale":[1,1,1],"translation":[10.7570505142212,0.85271680355072,-1.23943078517914]},{"mesh":1,"name":"Wheel_013","rotation":[0,0,0,1],"scale":[1,1,1],"translation":[-0.93276852369309,-0.46358224749565,1.31804716587067]},{"mesh":2,"name":"Wheel_014","rotation":[0,0,0,1],"scale":[1,1,1],"translation":[0.932770967483521,-0.46358224749565,1.31804716587067]},{"mesh":3,"name":"Wheel_015","rotation":[0,0,0,1],"scale":[1,1,1],"translation":[0.00000244140619543032,-0.43423801660538,-1.57843089103699]},{"mesh":4,"name":"Wheel_015.001","rotation":[0,0,0,1],"scale":[1,1,1],"translation":[0.00000244140619543032,-0.43423801660538,-1.57843089103699]}],"samplers":[{}],"scene":0,"scenes":[{"name":"Root Scene","nodes":[0]}],"textures":[{"name":"base_color_texture","sampler":0,"source":0}]}