{"accessors":[{"bufferView":0,"byteOffset":0,"componentType":5123,"count":18954,"type":"SCALAR"},{"bufferView":1,"byteOffset":0,"componentType":5126,"count":11093,"max":[1.10112798213959,2.76205015182495,1.0764594078064],"min":[-1.10112798213959,0.199999988079071,-9.08783626556396],"type":"VEC3"},{"bufferView":2,"byteOffset":0,"componentType":5126,"count":11093,"type":"VEC3"},{"bufferView":3,"byteOffset":0,"componentType":5126,"count":11093,"type":"VEC2"},{"bufferView":4,"byteOffset":0,"componentType":5123,"count":3660,"type":"SCALAR"},{"bufferView":5,"byteOffset":0,"componentType":5126,"count":2242,"max":[-0.76083111763,0.373595923185349,0.373597741127014],"min":[-1.01622903347015,-0.37359514832497,-0.3735933303833],"type":"VEC3"},{"bufferView":6,"byteOffset":0,"componentType":5126,"count":2242,"type":"VEC3"},{"bufferView":7,"byteOffset":0,"componentType":5126,"count":2242,"type":"VEC2"},{"bufferView":8,"byteOffset":0,"componentType":5123,"count":3660,"type":"SCALAR"},{"bufferView":9,"byteOffset":0,"componentType":5126,"count":2232,"max":[0.0550084672868252,0.373595625162125,0.373595356941223],"min":[-0.20038938522339,-0.37359541654587,-0.37359568476677],"type":"VEC3"},{"bufferView":10,"byteOffset":0,"componentType":5126,"count":2232,"type":"VEC3"},{"bufferView":11,"byteOffset":0,"componentType":5126,"count":2232,"type":"VEC2"},{"bufferView":12,"byteOffset":0,"componentType":5123,"count":3660,"type":"SCALAR"},{"bufferView":13,"byteOffset":0,"componentType":5126,"count":2244,"max":[0.200389385223389,0.373595625162125,0.373595356941223],"min":[-0.05500846728683,-0.37359541654587,-0.37359568476677],"type":"VEC3"},{"bufferView":14,"byteOffset":0,"componentType":5126,"count":2244,"type":"VEC3"},{"bufferView":15,"byteOffset":0,"componentType":5126,"count":2244,"type":"VEC2"},{"bufferView":16,"byteOffset":0,"componentType":5123,"count":3660,"type":"SCALAR"},{"bufferView":17,"byteOffset":0,"componentType":5126,"count":2242,"max":[-0.76083111763,0.373595923185349,0.373599052429199],"min":[-1.01622903347015,-0.37359514832497,-0.37359142303467],"type":"VEC3"},{"bufferView":18,"byteOffset":0,"componentType":5126,"count":2242,"type":"VEC3"},{"bufferView":19,"byteOffset":0,"componentType":5126,"count":2242,"type":"VEC2"},{"bufferView":20,"byteOffset":0,"componentType":5123,"count":258,"type":"SCALAR"},{"bufferView":21,"byteOffset":0,"componentType":5126,"count":152,"max":[0.500701546669006,0.121922850608826,0.500701546669006],"min":[-0.50070154666901,-0.00000011937655,-0.50070154666901],"type":"VEC3"},{"bufferView":22,"byteOffset":0,"componentType":5126,"count":152,"type":"VEC3"},{"bufferView":23,"byteOffset":0,"componentType":5126,"count":152,"type":"VEC2"},{"bufferView":24,"byteOffset":0,"componentType":5123,"count":3900,"type":"SCALAR"},{"bufferView":25,"byteOffset":0,"componentType":5126,"count":2489,"max":[0.367952913045883,4.1110053062439,3.8839111328125],"min":[-0.36795291304588,-0.02330551855266,-0.38880914449692],"type":"VEC3"},{"bufferView":26,"byteOffset":0,"componentType":5126,"count":2489,"type":"VEC3"},{"bufferView":27,"byteOffset":0,"componentType":5126,"count":2489,"type":"VEC2"},{"bufferView":28,"byteOffset":0,"componentType":5123,"count":672,"type":"SCALAR"},{"bufferView":29,"byteOffset":0,"componentType":5126,"count":391,"max":[0.447273701429367,0.715967416763306,0.561449468135834],"min":[-0.44727370142937,-0.00000000432544,-0.0265493504703],"type":"VEC3"},{"bufferView":30,"byteOffset":0,"componentType":5126,"count":391,"type":"VEC3"},{"bufferView":31,"byteOffset":0,"componentType":5126,"count":391,"type":"VEC2"},{"bufferView":32,"byteOffset":0,"componentType":5123,"count":3660,"type":"SCALAR"},{"bufferView":33,"byteOffset":0,"componentType":5126,"count":2240,"max":[1.01622498035431,0.373595923185349,0.373597741127014],"min":[0.76082718372345,-0.37359514832497,-0.3735933303833],"type":"VEC3"},{"bufferView":34,"byteOffset":0,"componentType":5126,"count":2240,"type":"VEC3"},{"bufferView":35,"byteOffset":0,"componentType":5126,"count":2240,"type":"VEC2"},{"bufferView":36,"byteOffset":0,"componentType":5123,"count":3660,"type":"SCALAR"},{"bufferView":37,"byteOffset":0,"componentType":5126,"count":2240,"max":[1.01622498035431,0.373595923185349,0.373599052429199],"min":[0.76082718372345,-0.37359514832497,-0.37359142303467],"type":"VEC3"},{"bufferView":38,"byteOffset":0,"componentType":5126,"count":2240,"type":"VEC3"},{"bufferView":39,"byteOffset":0,"componentType":5126,"count":2240,"type":"VEC2"},{"bufferView":40,"byteOffset":0,"componentType":5123,"count":288,"type":"SCALAR"},{"bufferView":41,"byteOffset":0,"componentType":5126,"count":130,"max":[0.977561712265015,2.61950182914734,0.971372783184052],"min":[-0.97756171226501,1.1191965341568,-9.00417709350586],"type":"VEC3"},{"bufferView":42,"byteOffset":0,"componentType":5126,"count":130,"type":"VEC3"},{"bufferView":43,"byteOffset":0,"componentType":5126,"count":130,"type":"VEC2"},{"bufferView":44,"byteOffset":0,"componentType":5123,"count":48,"type":"SCALAR"},{"bufferView":45,"byteOffset":0,"componentType":5126,"count":32,"max":[0.871896207332611,0.831784725189209,0.990834772586823],"min":[-0.87189620733261,0.46821516752243,0.97074568271637],"type":"VEC3"},{"bufferView":46,"byteOffset":0,"componentType":5126,"count":32,"type":"VEC3"},{"bufferView":47,"byteOffset":0,"componentType":5126,"count":32,"type":"VEC2"},{"bufferView":48,"byteOffset":0,"componentType":5123,"count":132,"type":"SCALAR"},{"bufferView":49,"byteOffset":0,"componentType":5126,"count":60,"max":[0.982258498668671,0.82584285736084,1.07008445262909],"min":[-0.98225849866867,0.21036696434021,0.908121466636658],"type":"VEC3"},{"bufferView":50,"byteOffset":0,"componentType":5126,"count":60,"type":"VEC3"},{"bufferView":51,"byteOffset":0,"componentType":5126,"count":60,"type":"VEC2"},{"bufferView":52,"byteOffset":0,"componentType":5123,"count":294,"type":"SCALAR"},{"bufferView":53,"byteOffset":0,"componentType":5126,"count":190,"max":[0.859142363071442,2.11421680450439,0.531814277172089],"min":[0.286380797624588,2.01421689987183,0.0719300359487534],"type":"VEC3"},{"bufferView":54,"byteOffset":0,"componentType":5126,"count":190,"type":"VEC3"},{"bufferView":55,"byteOffset":0,"componentType":5126,"count":190,"type":"VEC2"},{"bufferView":56,"byteOffset":0,"componentType":5123,"count":294,"type":"SCALAR"},{"bufferView":57,"byteOffset":0,"componentType":5126,"count":190,"max":[-0.28638079762459,2.11421680450439,0.531814277172089],"min":[-0.85914236307144,2.01421689987183,0.0719300359487534],"type":"VEC3"},{"bufferView":58,"byteOffset":0,"componentType":5126,"count":190,"type":"VEC3"},{"bufferView":59,"byteOffset":0,"componentType":5126,"count":190,"type":"VEC2"},{"bufferView":60,"byteOffset":0,"componentType":5123,"count":60,"type":"SCALAR"},{"bufferView":61,"byteOffset":0,"componentType":5126,"count":24,"max":[0.788503170013428,0.323880910873413,-9.07931900024414],"min":[-0.78850317001343,0.256609916687012,-9.07931900024414],"type":"VEC3"},{"bufferView":62,"byteOffset":0,"componentType":5126,"count":24,"type":"VEC3"},{"bufferView":63,"byteOffset":0,"componentType":5126,"count":24,"type":"VEC2"},{"bufferView":64,"byteOffset":0,"componentType":5123,"count":36,"type":"SCALAR"},{"bufferView":65,"byteOffset":0,"componentType":5126,"count":24,"max":[0.904161870479584,0.944607436656952,-9.01960754394531],"min":[-0.90416187047958,0.397433072328568,-9.01960754394531],"type":"VEC3"},{"bufferView":66,"byteOffset":0,"componentType":5126,"count":24,"type":"VEC3"},{"bufferView":67,"byteOffset":0,"componentType":5126,"count":24,"type":"VEC2"}],"asset":{"generator":"FBX2glTF v0.13.1","version":"2.0"},"bufferViews":[{"buffer":0,"byteLength":37908,"byteOffset":0,"target":34963},{"buffer":0,"byteLength":133116,"byteOffset":37908,"target":34962},{"buffer":0,"byteLength":133116,"byteOffset":171024,"target":34962},{"buffer":0,"byteLength":88744,"byteOffset":304140,"target":34962},{"buffer":0,"byteLength":7320,"byteOffset":392884,"target":34963},{"buffer":0,"byteLength":26904,"byteOffset":400204,"target":34962},{"buffer":0,"byteLength":26904,"byteOffset":427108,"target":34962},{"buffer":0,"byteLength":17936,"byteOffset":454012,"target":34962},{"buffer":0,"byteLength":7320,"byteOffset":471948,"target":34963},{"buffer":0,"byteLength":26784,"byteOffset":479268,"target":34962},{"buffer":0,"byteLength":26784,"byteOffset":506052,"target":34962},{"buffer":0,"byteLength":17856,"byteOffset":532836,"target":34962},{"buffer":0,"byteLength":7320,"byteOffset":550692,"target":34963},{"buffer":0,"byteLength":26928,"byteOffset":558012,"target":34962},{"buffer":0,"byteLength":26928,"byteOffset":584940,"target":34962},{"buffer":0,"byteLength":17952,"byteOffset":611868,"target":34962},{"buffer":0,"byteLength":7320,"byteOffset":629820,"target":34963},{"buffer":0,"byteLength":26904,"byteOffset":637140,"target":34962},{"buffer":0,"byteLength":26904,"byteOffset":664044,"target":34962},{"buffer":0,"byteLength":17936,"byteOffset":690948,"target":34962},{"buffer":0,"byteLength":516,"byteOffset":708884,"target":34963},{"buffer":0,"byteLength":1824,"byteOffset":709400,"target":34962},{"buffer":0,"byteLength":1824,"byteOffset":711224,"target":34962},{"buffer":0,"byteLength":1216,"byteOffset":713048,"target":34962},{"buffer":0,"byteLength":7800,"byteOffset":714264,"target":34963},{"buffer":0,"byteLength":29868,"byteOffset":722064,"target":34962},{"buffer":0,"byteLength":29868,"byteOffset":751932,"target":34962},{"buffer":0,"byteLength":19912,"byteOffset":781800,"target":34962},{"buffer":0,"byteLength":1344,"byteOffset":801712,"target":34963},{"buffer":0,"byteLength":4692,"byteOffset":803056,"target":34962},{"buffer":0,"byteLength":4692,"byteOffset":807748,"target":34962},{"buffer":0,"byteLength":3128,"byteOffset":812440,"target":34962},{"buffer":0,"byteLength":7320,"byteOffset":815568,"target":34963},{"buffer":0,"byteLength":26880,"byteOffset":822888,"target":34962},{"buffer":0,"byteLength":26880,"byteOffset":849768,"target":34962},{"buffer":0,"byteLength":17920,"byteOffset":876648,"target":34962},{"buffer":0,"byteLength":7320,"byteOffset":894568,"target":34963},{"buffer":0,"byteLength":26880,"byteOffset":901888,"target":34962},{"buffer":0,"byteLength":26880,"byteOffset":928768,"target":34962},{"buffer":0,"byteLength":17920,"byteOffset":955648,"target":34962},{"buffer":0,"byteLength":576,"byteOffset":973568,"target":34963},{"buffer":0,"byteLength":1560,"byteOffset":974144,"target":34962},{"buffer":0,"byteLength":1560,"byteOffset":975704,"target":34962},{"buffer":0,"byteLength":1040,"byteOffset":977264,"target":34962},{"buffer":0,"byteLength":96,"byteOffset":978304,"target":34963},{"buffer":0,"byteLength":384,"byteOffset":978400,"target":34962},{"buffer":0,"byteLength":384,"byteOffset":978784,"target":34962},{"buffer":0,"byteLength":256,"byteOffset":979168,"target":34962},{"buffer":0,"byteLength":264,"byteOffset":979424,"target":34963},{"buffer":0,"byteLength":720,"byteOffset":979688,"target":34962},{"buffer":0,"byteLength":720,"byteOffset":980408,"target":34962},{"buffer":0,"byteLength":480,"byteOffset":981128,"target":34962},{"buffer":0,"byteLength":588,"byteOffset":981608,"target":34963},{"buffer":0,"byteLength":2280,"byteOffset":982196,"target":34962},{"buffer":0,"byteLength":2280,"byteOffset":984476,"target":34962},{"buffer":0,"byteLength":1520,"byteOffset":986756,"target":34962},{"buffer":0,"byteLength":588,"byteOffset":988276,"target":34963},{"buffer":0,"byteLength":2280,"byteOffset":988864,"target":34962},{"buffer":0,"byteLength":2280,"byteOffset":991144,"target":34962},{"buffer":0,"byteLength":1520,"byteOffset":993424,"target":34962},{"buffer":0,"byteLength":120,"byteOffset":994944,"target":34963},{"buffer":0,"byteLength":288,"byteOffset":995064,"target":34962},{"buffer":0,"byteLength":288,"byteOffset":995352,"target":34962},{"buffer":0,"byteLength":192,"byteOffset":995640,"target":34962},{"buffer":0,"byteLength":72,"byteOffset":995832,"target":34963},{"buffer":0,"byteLength":288,"byteOffset":995904,"target":34962},{"buffer":0,"byteLength":288,"byteOffset":996192,"target":34962},{"buffer":0,"byteLength":192,"byteOffset":996480,"target":34962}],"buffers":[{"byteLength":996672,"uri":"SM_Fire_Engine.bin"}],"images":[{"name":"Polygon_Texture_vol2","uri":"Polygon_Texture_vol2.png"}],"materials":[{"alphaMode":"OPAQUE","doubleSided":false,"extras":{"fromFBX":{"isTruePBR":false,"shadingModel":"Phong"}},"name":"Material","pbrMetallicRoughness":{"baseColorFactor":[1,1,1,1],"baseColorTexture":{"index":0,"texCoord":0},"metallicFactor":0.400000005960464,"roughnessFactor":0.272165536880493}},{"alphaMode":"OPAQUE","doubleSided":false,"extras":{"fromFBX":{"isTruePBR":false,"shadingModel":"Phong"}},"name":"Material.001","pbrMetallicRoughness":{"baseColorFactor":[0.800000011920929,0.800000011920929,0.800000011920929,1],"metallicFactor":0.400000005960464,"roughnessFactor":0.272165536880493}},{"alphaMode":"OPAQUE","doubleSided":false,"extras":{"fromFBX":{"isTruePBR":false,"shadingModel":"Phong"}},"name":"Material.004","pbrMetallicRoughness":{"baseColorFactor":[0.800000011920929,0.800000011920929,0.800000011920929,1],"metallicFactor":0.400000005960464,"roughnessFactor":0.272165536880493}},{"alphaMode":"OPAQUE","doubleSided":false,"extras":{"fromFBX":{"isTruePBR":false,"shadingModel":"Phong"}},"name":"Material.005","pbrMetallicRoughness":{"baseColorFactor":[0.800000011920929,0.800000011920929,0.800000011920929,1],"metallicFactor":0.400000005960464,"roughnessFactor":0.272165536880493}},{"alphaMode":"OPAQUE","doubleSided":false,"extras":{"fromFBX":{"isTruePBR":false,"shadingModel":"Phong"}},"name":"Material.002","pbrMetallicRoughness":{"baseColorFactor":[0.800000011920929,0.800000011920929,0.800000011920929,1],"metallicFactor":0.400000005960464,"roughnessFactor":0.272165536880493}},{"alphaMode":"OPAQUE","doubleSided":false,"extras":{"fromFBX":{"isTruePBR":false,"shadingModel":"Phong"}},"name":"Material.003","pbrMetallicRoughness":{"baseColorFactor":[0.800000011920929,0.800000011920929,0.800000011920929,1],"metallicFactor":0.400000005960464,"roughnessFactor":0.272165536880493}},{"alphaMode":"OPAQUE","doubleSided":false,"extras":{"fromFBX":{"isTruePBR":false,"shadingModel":"Phong"}},"name":"Material.007","pbrMetallicRoughness":{"baseColorFactor":[0.800000011920929,0.800000011920929,0.800000011920929,1],"metallicFactor":0.400000005960464,"roughnessFactor":0.272165536880493}},{"alphaMode":"OPAQUE","doubleSided":false,"extras":{"fromFBX":{"isTruePBR":false,"shadingModel":"Phong"}},"name":"Material.006","pbrMetallicRoughness":{"baseColorFactor":[0.800000011920929,0.800000011920929,0.800000011920929,1],"metallicFactor":0.400000005960464,"roughnessFactor":0.272165536880493}}],"meshes":[{"name":"Fire_Engine","primitives":[{"attributes":{"NORMAL":2,"POSITION":1,"TEXCOORD_0":3},"indices":0,"material":0,"mode":4},{"attributes":{"NORMAL":42,"POSITION":41,"TEXCOORD_0":43},"indices":40,"material":1,"mode":4},{"attributes":{"NORMAL":46,"POSITION":45,"TEXCOORD_0":47},"indices":44,"material":2,"mode":4},{"attributes":{"NORMAL":50,"POSITION":49,"TEXCOORD_0":51},"indices":48,"material":3,"mode":4},{"attributes":{"NORMAL":54,"POSITION":53,"TEXCOORD_0":55},"indices":52,"material":4,"mode":4},{"attributes":{"NORMAL":58,"POSITION":57,"TEXCOORD_0":59},"indices":56,"material":5,"mode":4},{"attributes":{"NORMAL":62,"POSITION":61,"TEXCOORD_0":63},"indices":60,"material":6,"mode":4},{"attributes":{"NORMAL":66,"POSITION":65,"TEXCOORD_0":67},"indices":64,"material":7,"mode":4}]},{"name":"Wheel_018","primitives":[{"attributes":{"NORMAL":6,"POSITION":5,"TEXCOORD_0":7},"indices":4,"material":0,"mode":4}]},{"name":"Wheel_017","primitives":[{"attributes":{"NORMAL":10,"POSITION":9,"TEXCOORD_0":11},"indices":8,"material":0,"mode":4}]},{"name":"Wheel_016","primitives":[{"attributes":{"NORMAL":14,"POSITION":13,"TEXCOORD_0":15},"indices":12,"material":0,"mode":4}]},{"name":"Wheel_019","primitives":[{"attributes":{"NORMAL":18,"POSITION":17,"TEXCOORD_0":19},"indices":16,"material":0,"mode":4}]},{"name":"Circle","primitives":[{"attributes":{"NORMAL":22,"POSITION":21,"TEXCOORD_0":23},"indices":20,"material":0,"mode":4}]},{"name":"Fire_Escape","primitives":[{"attributes":{"NORMAL":26,"POSITION":25,"TEXCOORD_0":27},"indices":24,"material":0,"mode":4}]},{"name":"Fire_Area_01","primitives":[{"attributes":{"NORMAL":30,"POSITION":29,"TEXCOORD_0":31},"indices":28,"material":0,"mode":4}]},{"name":"Wheel_018.001","primitives":[{"attributes":{"NORMAL":34,"POSITION":33,"TEXCOORD_0":35},"indices":32,"material":0,"mode":4}]},{"name":"Wheel_019.001","primitives":[{"attributes":{"NORMAL":38,"POSITION":37,"TEXCOORD_0":39},"indices":36,"material":0,"mode":4}]}],"nodes":[{"children":[1,2,3,4,5,8,9],"mesh":0,"name":"Fire_Engine","rotation":[0,0,0,1],"scale":[1,1,1],"translation":[8.06304168701172,0,0]},{"mesh":1,"name":"Wheel_018","rotation":[0,0,0,1],"scale":[1,1,1],"translation":[0.00000305175763060106,0.342396646738052,-2.36433553695679]},{"mesh":2,"name":"Wheel_017","rotation":[0,0,0,1],"scale":[1,1,1],"translation":[0.961219489574432,0.342396914958954,-0.17503049969673]},{"mesh":3,"name":"Wheel_016","rotation":[0,0,0,1],"scale":[1,1,1],"translation":[-0.96121764183044,0.342396914958954,-0.17503049969673]},{"mesh":4,"name":"Wheel_019","rotation":[0,0,0,1],"scale":[1,1,1],"translation":[0.00000305175763060106,0.342396646738052,-8.03512477874756]},{"children":[6],"mesh":5,"name":"Circle","rotation":[0,0,0,1],"scale":[1,1,1],"translation":[0.00000122070309771516,1.63312995433807,-7.62153387069702]},{"children":[7],"mesh":6,"name":"Fire_Escape","rotation":[0.707106828689575,0,0,0.707106709480286],"scale":[0.00999999977648258,0.00999999977648258,0.00999999977648258],"translation":[-0.0000012207031,-1.55587518215179,7.63819456100464]},{"mesh":7,"name":"Fire_Area_01","rotation":[0,0,0,1],"scale":[1,1,1],"translation":[0.0001220703125,-760.134826660156,-152.048889160156]},{"mesh":8,"name":"Wheel_018.001","rotation":[0,0,0,1],"scale":[1,1,1],"translation":[0.00000305175763060106,0.342396646738052,-2.36433553695679]},{"mesh":9,"name":"Wheel_019.001","rotation":[0,0,0,1],"scale":[1,1,1],"translation":[0.00000305175763060106,0.342396646738052,-8.03512477874756]}],"samplers":[{}],"scene":0,"scenes":[{"name":"Root Scene","nodes":[0]}],"textures":[{"name":"base_color_texture","sampler":0,"source":0}]}