{"accessors":[{"bufferView":0,"byteOffset":0,"componentType":5123,"count":9450,"type":"SCALAR"},{"bufferView":1,"byteOffset":0,"componentType":5126,"count":6157,"max":[0.966280937194824,0.640417873859406,2.20944976806641],"min":[-0.96628141403198,-0.49966314435005,-2.32330322265625],"type":"VEC3"},{"bufferView":2,"byteOffset":0,"componentType":5126,"count":6157,"type":"VEC3"},{"bufferView":3,"byteOffset":0,"componentType":5126,"count":6157,"type":"VEC2"},{"bufferView":4,"byteOffset":0,"componentType":5123,"count":4452,"type":"SCALAR"},{"bufferView":5,"byteOffset":0,"componentType":5126,"count":2696,"max":[0.206122756004333,0.336429387331009,0.336429357528687],"min":[-0.05088776350021,-0.3364295065403,-0.3364295065403],"type":"VEC3"},{"bufferView":6,"byteOffset":0,"componentType":5126,"count":2696,"type":"VEC3"},{"bufferView":7,"byteOffset":0,"componentType":5126,"count":2696,"type":"VEC2"},{"bufferView":8,"byteOffset":0,"componentType":5123,"count":4452,"type":"SCALAR"},{"bufferView":9,"byteOffset":0,"componentType":5126,"count":2696,"max":[0.0508877635002136,0.336429387331009,0.336429357528687],"min":[-0.20612275600433,-0.3364295065403,-0.3364295065403],"type":"VEC3"},{"bufferView":10,"byteOffset":0,"componentType":5126,"count":2696,"type":"VEC3"},{"bufferView":11,"byteOffset":0,"componentType":5126,"count":2696,"type":"VEC2"},{"bufferView":12,"byteOffset":0,"componentType":5123,"count":4380,"type":"SCALAR"},{"bufferView":13,"byteOffset":0,"componentType":5126,"count":2666,"max":[-0.5854566693306,0.369689583778381,0.369688034057617],"min":[-0.92351025342941,-0.36968889832497,-0.36969015002251],"type":"VEC3"},{"bufferView":14,"byteOffset":0,"componentType":5126,"count":2666,"type":"VEC3"},{"bufferView":15,"byteOffset":0,"componentType":5126,"count":2666,"type":"VEC2"},{"bufferView":16,"byteOffset":0,"componentType":5123,"count":4380,"type":"SCALAR"},{"bufferView":17,"byteOffset":0,"componentType":5126,"count":2660,"max":[0.923510253429413,0.369689583778381,0.369688034057617],"min":[0.585456669330597,-0.36968889832497,-0.36969015002251],"type":"VEC3"},{"bufferView":18,"byteOffset":0,"componentType":5126,"count":2660,"type":"VEC3"},{"bufferView":19,"byteOffset":0,"componentType":5126,"count":2660,"type":"VEC2"},{"bufferView":20,"byteOffset":0,"componentType":5123,"count":384,"type":"SCALAR"},{"bufferView":21,"byteOffset":0,"componentType":5126,"count":256,"max":[0.822749614715576,0.167955622076988,1.85596251487732],"min":[-0.82275009155273,-0.08338660001755,1.46255791187286],"type":"VEC3"},{"bufferView":22,"byteOffset":0,"componentType":5126,"count":256,"type":"VEC3"},{"bufferView":23,"byteOffset":0,"componentType":5126,"count":256,"type":"VEC2"},{"bufferView":24,"byteOffset":0,"componentType":5123,"count":60,"type":"SCALAR"},{"bufferView":25,"byteOffset":0,"componentType":5126,"count":40,"max":[0.642456114292145,0.165253698825836,-2.06626129150391],"min":[-0.6424565911293,0.0027620792388916,-2.21857118606567],"type":"VEC3"},{"bufferView":26,"byteOffset":0,"componentType":5126,"count":40,"type":"VEC3"},{"bufferView":27,"byteOffset":0,"componentType":5126,"count":40,"type":"VEC2"},{"bufferView":28,"byteOffset":0,"componentType":5123,"count":348,"type":"SCALAR"},{"bufferView":29,"byteOffset":0,"componentType":5126,"count":220,"max":[0.948383927345276,0.548380196094513,0.777759253978729],"min":[-0.94838440418243,0.155930876731873,-1.55499994754791],"type":"VEC3"},{"bufferView":30,"byteOffset":0,"componentType":5126,"count":220,"type":"VEC3"},{"bufferView":31,"byteOffset":0,"componentType":5126,"count":220,"type":"VEC2"},{"bufferView":32,"byteOffset":0,"componentType":5123,"count":120,"type":"SCALAR"},{"bufferView":33,"byteOffset":0,"componentType":5126,"count":80,"max":[0.850889265537262,-0.18852037191391,1.98801124095917],"min":[-0.85088974237442,-0.40842142701149,1.68625891208649],"type":"VEC3"},{"bufferView":34,"byteOffset":0,"componentType":5126,"count":80,"type":"VEC3"},{"bufferView":35,"byteOffset":0,"componentType":5126,"count":80,"type":"VEC2"}],"asset":{"generator":"FBX2glTF v0.13.1","version":"2.0"},"bufferViews":[{"buffer":0,"byteLength":18900,"byteOffset":0,"target":34963},{"buffer":0,"byteLength":73884,"byteOffset":18900,"target":34962},{"buffer":0,"byteLength":73884,"byteOffset":92784,"target":34962},{"buffer":0,"byteLength":49256,"byteOffset":166668,"target":34962},{"buffer":0,"byteLength":8904,"byteOffset":215924,"target":34963},{"buffer":0,"byteLength":32352,"byteOffset":224828,"target":34962},{"buffer":0,"byteLength":32352,"byteOffset":257180,"target":34962},{"buffer":0,"byteLength":21568,"byteOffset":289532,"target":34962},{"buffer":0,"byteLength":8904,"byteOffset":311100,"target":34963},{"buffer":0,"byteLength":32352,"byteOffset":320004,"target":34962},{"buffer":0,"byteLength":32352,"byteOffset":352356,"target":34962},{"buffer":0,"byteLength":21568,"byteOffset":384708,"target":34962},{"buffer":0,"byteLength":8760,"byteOffset":406276,"target":34963},{"buffer":0,"byteLength":31992,"byteOffset":415036,"target":34962},{"buffer":0,"byteLength":31992,"byteOffset":447028,"target":34962},{"buffer":0,"byteLength":21328,"byteOffset":479020,"target":34962},{"buffer":0,"byteLength":8760,"byteOffset":500348,"target":34963},{"buffer":0,"byteLength":31920,"byteOffset":509108,"target":34962},{"buffer":0,"byteLength":31920,"byteOffset":541028,"target":34962},{"buffer":0,"byteLength":21280,"byteOffset":572948,"target":34962},{"buffer":0,"byteLength":768,"byteOffset":594228,"target":34963},{"buffer":0,"byteLength":3072,"byteOffset":594996,"target":34962},{"buffer":0,"byteLength":3072,"byteOffset":598068,"target":34962},{"buffer":0,"byteLength":2048,"byteOffset":601140,"target":34962},{"buffer":0,"byteLength":120,"byteOffset":603188,"target":34963},{"buffer":0,"byteLength":480,"byteOffset":603308,"target":34962},{"buffer":0,"byteLength":480,"byteOffset":603788,"target":34962},{"buffer":0,"byteLength":320,"byteOffset":604268,"target":34962},{"buffer":0,"byteLength":696,"byteOffset":604588,"target":34963},{"buffer":0,"byteLength":2640,"byteOffset":605284,"target":34962},{"buffer":0,"byteLength":2640,"byteOffset":607924,"target":34962},{"buffer":0,"byteLength":1760,"byteOffset":610564,"target":34962},{"buffer":0,"byteLength":240,"byteOffset":612324,"target":34963},{"buffer":0,"byteLength":960,"byteOffset":612564,"target":34962},{"buffer":0,"byteLength":960,"byteOffset":613524,"target":34962},{"buffer":0,"byteLength":640,"byteOffset":614484,"target":34962}],"buffers":[{"byteLength":615124,"uri":"SM_Midl_Car_01.bin"}],"images":[{"name":"Polygon_Texture_vol2","uri":"Polygon_Texture_vol2.png"}],"materials":[{"alphaMode":"OPAQUE","doubleSided":false,"extras":{"fromFBX":{"isTruePBR":false,"shadingModel":"Phong"}},"name":"Material","pbrMetallicRoughness":{"baseColorFactor":[1,1,1,1],"baseColorTexture":{"index":0,"texCoord":0},"metallicFactor":0.400000005960464,"roughnessFactor":0.272165536880493}},{"alphaMode":"OPAQUE","doubleSided":false,"extras":{"fromFBX":{"isTruePBR":false,"shadingModel":"Phong"}},"name":"Material.002","pbrMetallicRoughness":{"baseColorFactor":[0.800000011920929,0.800000011920929,0.800000011920929,1],"metallicFactor":0.400000005960464,"roughnessFactor":0.272165536880493}},{"alphaMode":"OPAQUE","doubleSided":false,"extras":{"fromFBX":{"isTruePBR":false,"shadingModel":"Phong"}},"name":"Material.004","pbrMetallicRoughness":{"baseColorFactor":[0.800000011920929,0.800000011920929,0.800000011920929,1],"metallicFactor":0.400000005960464,"roughnessFactor":0.272165536880493}},{"alphaMode":"OPAQUE","doubleSided":false,"extras":{"fromFBX":{"isTruePBR":false,"shadingModel":"Phong"}},"name":"Material.001","pbrMetallicRoughness":{"baseColorFactor":[0.800000011920929,0.800000011920929,0.800000011920929,1],"metallicFactor":0.400000005960464,"roughnessFactor":0.272165536880493}},{"alphaMode":"OPAQUE","doubleSided":false,"extras":{"fromFBX":{"isTruePBR":false,"shadingModel":"Phong"}},"name":"Material.003","pbrMetallicRoughness":{"baseColorFactor":[0.800000011920929,0.800000011920929,0.800000011920929,1],"metallicFactor":0.400000005960464,"roughnessFactor":0.272165536880493}}],"meshes":[{"name":"Midl_Car_01","primitives":[{"attributes":{"NORMAL":2,"POSITION":1,"TEXCOORD_0":3},"indices":0,"material":0,"mode":4},{"attributes":{"NORMAL":22,"POSITION":21,"TEXCOORD_0":23},"indices":20,"material":1,"mode":4},{"attributes":{"NORMAL":26,"POSITION":25,"TEXCOORD_0":27},"indices":24,"material":2,"mode":4},{"attributes":{"NORMAL":30,"POSITION":29,"TEXCOORD_0":31},"indices":28,"material":3,"mode":4},{"attributes":{"NORMAL":34,"POSITION":33,"TEXCOORD_0":35},"indices":32,"material":4,"mode":4}]},{"name":"Wheel_07","primitives":[{"attributes":{"NORMAL":6,"POSITION":5,"TEXCOORD_0":7},"indices":4,"material":0,"mode":4}]},{"name":"Wheel_08","primitives":[{"attributes":{"NORMAL":10,"POSITION":9,"TEXCOORD_0":11},"indices":8,"material":0,"mode":4}]},{"name":"Wheel_09","primitives":[{"attributes":{"NORMAL":14,"POSITION":13,"TEXCOORD_0":15},"indices":12,"material":0,"mode":4}]},{"name":"Wheel_09.001","primitives":[{"attributes":{"NORMAL":18,"POSITION":17,"TEXCOORD_0":19},"indices":16,"material":0,"mode":4}]}],"nodes":[{"children":[1,2,3,4],"mesh":0,"name":"Midl_Car_01","rotation":[0,0,0,1],"scale":[1,1,1],"translation":[15.6565914154053,0.639020800590515,-1.1855970621109]},{"mesh":1,"name":"Wheel_07","rotation":[0,0,0,1],"scale":[1,1,1],"translation":[-0.86756712198257,-0.31995710730553,1.13553631305695]},{"mesh":2,"name":"Wheel_08","rotation":[0,0,0,1],"scale":[1,1,1],"translation":[0.867570757865906,-0.31995710730553,1.13553631305695]},{"mesh":3,"name":"Wheel_09","rotation":[0,0,0,1],"scale":[1,1,1],"translation":[0.00000244140619543032,-0.28949081897736,-1.25415337085724]},{"mesh":4,"name":"Wheel_09.001","rotation":[0,0,0,1],"scale":[1,1,1],"translation":[0.00000244140619543032,-0.28949081897736,-1.25415337085724]}],"samplers":[{}],"scene":0,"scenes":[{"name":"Root Scene","nodes":[0]}],"textures":[{"name":"base_color_texture","sampler":0,"source":0}]}