{"accessors":[{"bufferView":0,"byteOffset":0,"componentType":5123,"count":8658,"type":"SCALAR"},{"bufferView":1,"byteOffset":0,"componentType":5126,"count":5530,"max":[1.12606370449066,0.732466995716095,1.70063161849976],"min":[-1.12606394290924,-0.50591909885407,-3.44619035720825],"type":"VEC3"},{"bufferView":2,"byteOffset":0,"componentType":5126,"count":5530,"type":"VEC3"},{"bufferView":3,"byteOffset":0,"componentType":5126,"count":5530,"type":"VEC2"},{"bufferView":4,"byteOffset":0,"componentType":5123,"count":1860,"type":"SCALAR"},{"bufferView":5,"byteOffset":0,"componentType":5126,"count":1172,"max":[0.173117697238922,0.407822221517563,0.407822102308273],"min":[-0.0410304069519,-0.4078221321106,-0.40782222151756],"type":"VEC3"},{"bufferView":6,"byteOffset":0,"componentType":5126,"count":1172,"type":"VEC3"},{"bufferView":7,"byteOffset":0,"componentType":5126,"count":1172,"type":"VEC2"},{"bufferView":8,"byteOffset":0,"componentType":5123,"count":1860,"type":"SCALAR"},{"bufferView":9,"byteOffset":0,"componentType":5126,"count":1165,"max":[0.0410304069519043,0.407822221517563,0.407822102308273],"min":[-0.17311769723892,-0.4078221321106,-0.40782222151756],"type":"VEC3"},{"bufferView":10,"byteOffset":0,"componentType":5126,"count":1165,"type":"VEC3"},{"bufferView":11,"byteOffset":0,"componentType":5126,"count":1165,"type":"VEC2"},{"bufferView":12,"byteOffset":0,"componentType":5123,"count":1860,"type":"SCALAR"},{"bufferView":13,"byteOffset":0,"componentType":5126,"count":1173,"max":[-0.71255671977997,0.40782219171524,0.407821178436279],"min":[-0.9267048239708,-0.40782219171524,-0.40782308578491],"type":"VEC3"},{"bufferView":14,"byteOffset":0,"componentType":5126,"count":1173,"type":"VEC3"},{"bufferView":15,"byteOffset":0,"componentType":5126,"count":1173,"type":"VEC2"},{"bufferView":16,"byteOffset":0,"componentType":5123,"count":1860,"type":"SCALAR"},{"bufferView":17,"byteOffset":0,"componentType":5126,"count":1166,"max":[0.926705300807953,0.40782219171524,0.407821178436279],"min":[0.712557196617126,-0.40782219171524,-0.40782308578491],"type":"VEC3"},{"bufferView":18,"byteOffset":0,"componentType":5126,"count":1166,"type":"VEC3"},{"bufferView":19,"byteOffset":0,"componentType":5126,"count":1166,"type":"VEC2"},{"bufferView":20,"byteOffset":0,"componentType":5123,"count":222,"type":"SCALAR"},{"bufferView":21,"byteOffset":0,"componentType":5126,"count":138,"max":[1.11739492416382,0.656078994274139,0.231051132082939],"min":[-1.1173951625824,0.230525493621826,-2.75309753417969],"type":"VEC3"},{"bufferView":22,"byteOffset":0,"componentType":5126,"count":138,"type":"VEC3"},{"bufferView":23,"byteOffset":0,"componentType":5126,"count":138,"type":"VEC2"},{"bufferView":24,"byteOffset":0,"componentType":5123,"count":24,"type":"SCALAR"},{"bufferView":25,"byteOffset":0,"componentType":5126,"count":16,"max":[0.798529863357544,0.0241852402687073,1.569779753685],"min":[-0.79852992296219,-0.06672459095716,1.30676996707916],"type":"VEC3"},{"bufferView":26,"byteOffset":0,"componentType":5126,"count":16,"type":"VEC3"},{"bufferView":27,"byteOffset":0,"componentType":5126,"count":16,"type":"VEC2"},{"bufferView":28,"byteOffset":0,"componentType":5123,"count":192,"type":"SCALAR"},{"bufferView":29,"byteOffset":0,"componentType":5126,"count":128,"max":[0.634502232074738,0.161603271961212,-3.24456357955933],"min":[-0.63450229167938,0.00835371017456055,-3.33019852638245],"type":"VEC3"},{"bufferView":30,"byteOffset":0,"componentType":5126,"count":128,"type":"VEC3"},{"bufferView":31,"byteOffset":0,"componentType":5126,"count":128,"type":"VEC2"}],"asset":{"generator":"FBX2glTF v0.13.1","version":"2.0"},"bufferViews":[{"buffer":0,"byteLength":17316,"byteOffset":0,"target":34963},{"buffer":0,"byteLength":66360,"byteOffset":17316,"target":34962},{"buffer":0,"byteLength":66360,"byteOffset":83676,"target":34962},{"buffer":0,"byteLength":44240,"byteOffset":150036,"target":34962},{"buffer":0,"byteLength":3720,"byteOffset":194276,"target":34963},{"buffer":0,"byteLength":14064,"byteOffset":197996,"target":34962},{"buffer":0,"byteLength":14064,"byteOffset":212060,"target":34962},{"buffer":0,"byteLength":9376,"byteOffset":226124,"target":34962},{"buffer":0,"byteLength":3720,"byteOffset":235500,"target":34963},{"buffer":0,"byteLength":13980,"byteOffset":239220,"target":34962},{"buffer":0,"byteLength":13980,"byteOffset":253200,"target":34962},{"buffer":0,"byteLength":9320,"byteOffset":267180,"target":34962},{"buffer":0,"byteLength":3720,"byteOffset":276500,"target":34963},{"buffer":0,"byteLength":14076,"byteOffset":280220,"target":34962},{"buffer":0,"byteLength":14076,"byteOffset":294296,"target":34962},{"buffer":0,"byteLength":9384,"byteOffset":308372,"target":34962},{"buffer":0,"byteLength":3720,"byteOffset":317756,"target":34963},{"buffer":0,"byteLength":13992,"byteOffset":321476,"target":34962},{"buffer":0,"byteLength":13992,"byteOffset":335468,"target":34962},{"buffer":0,"byteLength":9328,"byteOffset":349460,"target":34962},{"buffer":0,"byteLength":444,"byteOffset":358788,"target":34963},{"buffer":0,"byteLength":1656,"byteOffset":359232,"target":34962},{"buffer":0,"byteLength":1656,"byteOffset":360888,"target":34962},{"buffer":0,"byteLength":1104,"byteOffset":362544,"target":34962},{"buffer":0,"byteLength":48,"byteOffset":363648,"target":34963},{"buffer":0,"byteLength":192,"byteOffset":363696,"target":34962},{"buffer":0,"byteLength":192,"byteOffset":363888,"target":34962},{"buffer":0,"byteLength":128,"byteOffset":364080,"target":34962},{"buffer":0,"byteLength":384,"byteOffset":364208,"target":34963},{"buffer":0,"byteLength":1536,"byteOffset":364592,"target":34962},{"buffer":0,"byteLength":1536,"byteOffset":366128,"target":34962},{"buffer":0,"byteLength":1024,"byteOffset":367664,"target":34962}],"buffers":[{"byteLength":368688,"uri":"SM_Midl_Car_02.bin"}],"images":[{"name":"Polygon_Texture_vol2","uri":"Polygon_Texture_vol2.png"}],"materials":[{"alphaMode":"OPAQUE","doubleSided":false,"extras":{"fromFBX":{"isTruePBR":false,"shadingModel":"Phong"}},"name":"Material","pbrMetallicRoughness":{"baseColorFactor":[1,1,1,1],"baseColorTexture":{"index":0,"texCoord":0},"metallicFactor":0.400000005960464,"roughnessFactor":0.272165536880493}},{"alphaMode":"OPAQUE","doubleSided":false,"extras":{"fromFBX":{"isTruePBR":false,"shadingModel":"Phong"}},"name":"Material.001","pbrMetallicRoughness":{"baseColorFactor":[0.800000011920929,0.800000011920929,0.800000011920929,1],"metallicFactor":0.400000005960464,"roughnessFactor":0.272165536880493}},{"alphaMode":"OPAQUE","doubleSided":false,"extras":{"fromFBX":{"isTruePBR":false,"shadingModel":"Phong"}},"name":"Material.003","pbrMetallicRoughness":{"baseColorFactor":[0.800000011920929,0.800000011920929,0.800000011920929,1],"metallicFactor":0.400000005960464,"roughnessFactor":0.272165536880493}},{"alphaMode":"OPAQUE","doubleSided":false,"extras":{"fromFBX":{"isTruePBR":false,"shadingModel":"Phong"}},"name":"Material.002","pbrMetallicRoughness":{"baseColorFactor":[0.800000011920929,0.800000011920929,0.800000011920929,1],"metallicFactor":0.400000005960464,"roughnessFactor":0.272165536880493}}],"meshes":[{"name":"Midl_Car_02","primitives":[{"attributes":{"NORMAL":2,"POSITION":1,"TEXCOORD_0":3},"indices":0,"material":0,"mode":4},{"attributes":{"NORMAL":22,"POSITION":21,"TEXCOORD_0":23},"indices":20,"material":1,"mode":4},{"attributes":{"NORMAL":26,"POSITION":25,"TEXCOORD_0":27},"indices":24,"material":2,"mode":4},{"attributes":{"NORMAL":30,"POSITION":29,"TEXCOORD_0":31},"indices":28,"material":3,"mode":4}]},{"name":"Wheel_010","primitives":[{"attributes":{"NORMAL":6,"POSITION":5,"TEXCOORD_0":7},"indices":4,"material":0,"mode":4}]},{"name":"Wheel_011","primitives":[{"attributes":{"NORMAL":10,"POSITION":9,"TEXCOORD_0":11},"indices":8,"material":0,"mode":4}]},{"name":"Wheel_012","primitives":[{"attributes":{"NORMAL":14,"POSITION":13,"TEXCOORD_0":15},"indices":12,"material":0,"mode":4}]},{"name":"Wheel_012.001","primitives":[{"attributes":{"NORMAL":18,"POSITION":17,"TEXCOORD_0":19},"indices":16,"material":0,"mode":4}]}],"nodes":[{"children":[1,2,3,4],"mesh":0,"name":"Midl_Car_02","rotation":[0,0,0,1],"scale":[1,1,1],"translation":[13.212963104248,0.778900384902954,-0.68710875511169]},{"mesh":1,"name":"Wheel_010","rotation":[0,0,0,1],"scale":[1,1,1],"translation":[-0.88567382097244,-0.37266534566879,0.825225651264191]},{"mesh":2,"name":"Wheel_011","rotation":[0,0,0,1],"scale":[1,1,1],"translation":[0.885675013065338,-0.37266534566879,0.825225651264191]},{"mesh":3,"name":"Wheel_012","rotation":[0,0,0,1],"scale":[1,1,1],"translation":[0,-0.37266531586647,-2.34503984451294]},{"mesh":4,"name":"Wheel_012.001","rotation":[0,0,0,1],"scale":[1,1,1],"translation":[0,-0.37266531586647,-2.34503984451294]}],"samplers":[{}],"scene":0,"scenes":[{"name":"Root Scene","nodes":[0]}],"textures":[{"name":"base_color_texture","sampler":0,"source":0}]}