{"accessors":[{"bufferView":0,"byteOffset":0,"componentType":5123,"count":10752,"type":"SCALAR"},{"bufferView":1,"byteOffset":0,"componentType":5126,"count":6948,"max":[0.946969211101532,0.469090521335602,2.45380425453186],"min":[-0.94696861505508,-0.48853334784508,-2.01246047019958],"type":"VEC3"},{"bufferView":2,"byteOffset":0,"componentType":5126,"count":6948,"type":"VEC3"},{"bufferView":3,"byteOffset":0,"componentType":5126,"count":6948,"type":"VEC2"},{"bufferView":4,"byteOffset":0,"componentType":5123,"count":2004,"type":"SCALAR"},{"bufferView":5,"byteOffset":0,"componentType":5126,"count":1290,"max":[0.171440601348877,0.314599543809891,0.314599633216858],"min":[-0.06861937046051,-0.3145996928215,-0.31459957361221],"type":"VEC3"},{"bufferView":6,"byteOffset":0,"componentType":5126,"count":1290,"type":"VEC3"},{"bufferView":7,"byteOffset":0,"componentType":5126,"count":1290,"type":"VEC2"},{"bufferView":8,"byteOffset":0,"componentType":5123,"count":2004,"type":"SCALAR"},{"bufferView":9,"byteOffset":0,"componentType":5126,"count":1270,"max":[0.0686193704605103,0.314599543809891,0.314599633216858],"min":[-0.17144060134888,-0.3145996928215,-0.31459957361221],"type":"VEC3"},{"bufferView":10,"byteOffset":0,"componentType":5126,"count":1270,"type":"VEC3"},{"bufferView":11,"byteOffset":0,"componentType":5126,"count":1270,"type":"VEC2"},{"bufferView":12,"byteOffset":0,"componentType":5123,"count":2004,"type":"SCALAR"},{"bufferView":13,"byteOffset":0,"componentType":5126,"count":1266,"max":[-0.67910861968994,0.354498654603958,0.354499816894531],"min":[-0.94961392879486,-0.35449793934822,-0.35449695587158],"type":"VEC3"},{"bufferView":14,"byteOffset":0,"componentType":5126,"count":1266,"type":"VEC3"},{"bufferView":15,"byteOffset":0,"componentType":5126,"count":1266,"type":"VEC2"},{"bufferView":16,"byteOffset":0,"componentType":5123,"count":2004,"type":"SCALAR"},{"bufferView":17,"byteOffset":0,"componentType":5126,"count":1276,"max":[0.949615597724915,0.354498654603958,0.354499816894531],"min":[0.67911034822464,-0.35449793934822,-0.35449695587158],"type":"VEC3"},{"bufferView":18,"byteOffset":0,"componentType":5126,"count":1276,"type":"VEC3"},{"bufferView":19,"byteOffset":0,"componentType":5126,"count":1276,"type":"VEC2"},{"bufferView":20,"byteOffset":0,"componentType":5123,"count":216,"type":"SCALAR"},{"bufferView":21,"byteOffset":0,"componentType":5126,"count":116,"max":[0.891639232635498,0.404947191476822,1.22886121273041],"min":[-0.89163863658905,0.0850842520594597,-0.1829712241888],"type":"VEC3"},{"bufferView":22,"byteOffset":0,"componentType":5126,"count":116,"type":"VEC3"},{"bufferView":23,"byteOffset":0,"componentType":5126,"count":116,"type":"VEC2"},{"bufferView":24,"byteOffset":0,"componentType":5123,"count":72,"type":"SCALAR"},{"bufferView":25,"byteOffset":0,"componentType":5126,"count":48,"max":[0.813994944095612,0.125678718090057,-1.71603608131409],"min":[-0.81399440765381,0.0202878713607788,-1.84978938102722],"type":"VEC3"},{"bufferView":26,"byteOffset":0,"componentType":5126,"count":48,"type":"VEC3"},{"bufferView":27,"byteOffset":0,"componentType":5126,"count":48,"type":"VEC2"},{"bufferView":28,"byteOffset":0,"componentType":5123,"count":60,"type":"SCALAR"},{"bufferView":29,"byteOffset":0,"componentType":5126,"count":32,"max":[0.791906714439392,0.035256564617157,2.01045942306519],"min":[-0.79190611839294,-0.10096859931946,1.69277262687683],"type":"VEC3"},{"bufferView":30,"byteOffset":0,"componentType":5126,"count":32,"type":"VEC3"},{"bufferView":31,"byteOffset":0,"componentType":5126,"count":32,"type":"VEC2"}],"asset":{"generator":"FBX2glTF v0.13.1","version":"2.0"},"bufferViews":[{"buffer":0,"byteLength":21504,"byteOffset":0,"target":34963},{"buffer":0,"byteLength":83376,"byteOffset":21504,"target":34962},{"buffer":0,"byteLength":83376,"byteOffset":104880,"target":34962},{"buffer":0,"byteLength":55584,"byteOffset":188256,"target":34962},{"buffer":0,"byteLength":4008,"byteOffset":243840,"target":34963},{"buffer":0,"byteLength":15480,"byteOffset":247848,"target":34962},{"buffer":0,"byteLength":15480,"byteOffset":263328,"target":34962},{"buffer":0,"byteLength":10320,"byteOffset":278808,"target":34962},{"buffer":0,"byteLength":4008,"byteOffset":289128,"target":34963},{"buffer":0,"byteLength":15240,"byteOffset":293136,"target":34962},{"buffer":0,"byteLength":15240,"byteOffset":308376,"target":34962},{"buffer":0,"byteLength":10160,"byteOffset":323616,"target":34962},{"buffer":0,"byteLength":4008,"byteOffset":333776,"target":34963},{"buffer":0,"byteLength":15192,"byteOffset":337784,"target":34962},{"buffer":0,"byteLength":15192,"byteOffset":352976,"target":34962},{"buffer":0,"byteLength":10128,"byteOffset":368168,"target":34962},{"buffer":0,"byteLength":4008,"byteOffset":378296,"target":34963},{"buffer":0,"byteLength":15312,"byteOffset":382304,"target":34962},{"buffer":0,"byteLength":15312,"byteOffset":397616,"target":34962},{"buffer":0,"byteLength":10208,"byteOffset":412928,"target":34962},{"buffer":0,"byteLength":432,"byteOffset":423136,"target":34963},{"buffer":0,"byteLength":1392,"byteOffset":423568,"target":34962},{"buffer":0,"byteLength":1392,"byteOffset":424960,"target":34962},{"buffer":0,"byteLength":928,"byteOffset":426352,"target":34962},{"buffer":0,"byteLength":144,"byteOffset":427280,"target":34963},{"buffer":0,"byteLength":576,"byteOffset":427424,"target":34962},{"buffer":0,"byteLength":576,"byteOffset":428000,"target":34962},{"buffer":0,"byteLength":384,"byteOffset":428576,"target":34962},{"buffer":0,"byteLength":120,"byteOffset":428960,"target":34963},{"buffer":0,"byteLength":384,"byteOffset":429080,"target":34962},{"buffer":0,"byteLength":384,"byteOffset":429464,"target":34962},{"buffer":0,"byteLength":256,"byteOffset":429848,"target":34962}],"buffers":[{"byteLength":430104,"uri":"SM_Premium_Car_02.bin"}],"images":[{"name":"Polygon_Texture_vol2","uri":"Polygon_Texture_vol2.png"}],"materials":[{"alphaMode":"OPAQUE","doubleSided":false,"extras":{"fromFBX":{"isTruePBR":false,"shadingModel":"Phong"}},"name":"Material","pbrMetallicRoughness":{"baseColorFactor":[1,1,1,1],"baseColorTexture":{"index":0,"texCoord":0},"metallicFactor":0.400000005960464,"roughnessFactor":0.272165536880493}},{"alphaMode":"OPAQUE","doubleSided":false,"extras":{"fromFBX":{"isTruePBR":false,"shadingModel":"Phong"}},"name":"Material.001","pbrMetallicRoughness":{"baseColorFactor":[0.800000011920929,0.800000011920929,0.800000011920929,1],"metallicFactor":0.400000005960464,"roughnessFactor":0.272165536880493}},{"alphaMode":"OPAQUE","doubleSided":false,"extras":{"fromFBX":{"isTruePBR":false,"shadingModel":"Phong"}},"name":"Material.003","pbrMetallicRoughness":{"baseColorFactor":[0.800000011920929,0.800000011920929,0.800000011920929,1],"metallicFactor":0.400000005960464,"roughnessFactor":0.272165536880493}},{"alphaMode":"OPAQUE","doubleSided":false,"extras":{"fromFBX":{"isTruePBR":false,"shadingModel":"Phong"}},"name":"Material.002","pbrMetallicRoughness":{"baseColorFactor":[0.800000011920929,0.800000011920929,0.800000011920929,1],"metallicFactor":0.400000005960464,"roughnessFactor":0.272165536880493}}],"meshes":[{"name":"Premium_Car_02","primitives":[{"attributes":{"NORMAL":2,"POSITION":1,"TEXCOORD_0":3},"indices":0,"material":0,"mode":4},{"attributes":{"NORMAL":22,"POSITION":21,"TEXCOORD_0":23},"indices":20,"material":1,"mode":4},{"attributes":{"NORMAL":26,"POSITION":25,"TEXCOORD_0":27},"indices":24,"material":2,"mode":4},{"attributes":{"NORMAL":30,"POSITION":29,"TEXCOORD_0":31},"indices":28,"material":3,"mode":4}]},{"name":"Wheel_04","primitives":[{"attributes":{"NORMAL":6,"POSITION":5,"TEXCOORD_0":7},"indices":4,"material":0,"mode":4}]},{"name":"Wheel_05","primitives":[{"attributes":{"NORMAL":10,"POSITION":9,"TEXCOORD_0":11},"indices":8,"material":0,"mode":4}]},{"name":"Wheel_06","primitives":[{"attributes":{"NORMAL":14,"POSITION":13,"TEXCOORD_0":15},"indices":12,"material":0,"mode":4}]},{"name":"Wheel_06.001","primitives":[{"attributes":{"NORMAL":18,"POSITION":17,"TEXCOORD_0":19},"indices":16,"material":0,"mode":4}]}],"nodes":[{"children":[1,2,3,4],"mesh":0,"name":"Premium_Car_02","rotation":[0,0,0,1],"scale":[1,1,1],"translation":[18,0.63443648815155,-1.11920213699341]},{"mesh":1,"name":"Wheel_04","rotation":[0,0,0,1],"scale":[1,1,1],"translation":[-0.87229245901108,-0.30572754144669,1.27106320858002]},{"mesh":2,"name":"Wheel_05","rotation":[0,0,0,1],"scale":[1,1,1],"translation":[0.872294902801514,-0.30572754144669,1.27106320858002]},{"mesh":3,"name":"Wheel_06","rotation":[0,0,0,1],"scale":[1,1,1],"translation":[0.00000122070309771516,-0.26406136155129,-1.21725976467133]},{"mesh":4,"name":"Wheel_06.001","rotation":[0,0,0,1],"scale":[1,1,1],"translation":[0.00000122070309771516,-0.26406136155129,-1.21725976467133]}],"samplers":[{}],"scene":0,"scenes":[{"name":"Root Scene","nodes":[0]}],"textures":[{"name":"base_color_texture","sampler":0,"source":0}]}