{"accessors":[{"bufferView":0,"byteOffset":0,"componentType":5123,"count":12270,"type":"SCALAR"},{"bufferView":1,"byteOffset":0,"componentType":5126,"count":7972,"max":[1.02962183952332,0.75443309545517,1.98394525051117],"min":[-1.02962183952332,-0.65543729066849,-2.4823625087738],"type":"VEC3"},{"bufferView":2,"byteOffset":0,"componentType":5126,"count":7972,"type":"VEC3"},{"bufferView":3,"byteOffset":0,"componentType":5126,"count":7972,"type":"VEC2"},{"bufferView":4,"byteOffset":0,"componentType":5123,"count":2940,"type":"SCALAR"},{"bufferView":5,"byteOffset":0,"componentType":5126,"count":1864,"max":[-0.70453953742981,0.277877599000931,0.270082950592041],"min":[-0.91352111101151,-0.27787658572197,-0.28567099571228],"type":"VEC3"},{"bufferView":6,"byteOffset":0,"componentType":5126,"count":1864,"type":"VEC3"},{"bufferView":7,"byteOffset":0,"componentType":5126,"count":1864,"type":"VEC2"},{"bufferView":8,"byteOffset":0,"componentType":5123,"count":2940,"type":"SCALAR"},{"bufferView":9,"byteOffset":0,"componentType":5126,"count":1872,"max":[0.0320051908493042,0.277877241373062,0.270084351301193],"min":[-0.17697630822659,-0.27787694334984,-0.28566974401474],"type":"VEC3"},{"bufferView":10,"byteOffset":0,"componentType":5126,"count":1872,"type":"VEC3"},{"bufferView":11,"byteOffset":0,"componentType":5126,"count":1872,"type":"VEC2"},{"bufferView":12,"byteOffset":0,"componentType":5123,"count":2940,"type":"SCALAR"},{"bufferView":13,"byteOffset":0,"componentType":5126,"count":1868,"max":[0.176976308226585,0.277877241373062,0.270084351301193],"min":[-0.0320051908493,-0.27787694334984,-0.28566974401474],"type":"VEC3"},{"bufferView":14,"byteOffset":0,"componentType":5126,"count":1868,"type":"VEC3"},{"bufferView":15,"byteOffset":0,"componentType":5126,"count":1868,"type":"VEC2"},{"bufferView":16,"byteOffset":0,"componentType":5123,"count":2940,"type":"SCALAR"},{"bufferView":17,"byteOffset":0,"componentType":5126,"count":1860,"max":[0.913521707057953,0.277877599000931,0.270082950592041],"min":[0.704540133476257,-0.27787658572197,-0.28567099571228],"type":"VEC3"},{"bufferView":18,"byteOffset":0,"componentType":5126,"count":1860,"type":"VEC3"},{"bufferView":19,"byteOffset":0,"componentType":5126,"count":1860,"type":"VEC2"},{"bufferView":20,"byteOffset":0,"componentType":5123,"count":558,"type":"SCALAR"},{"bufferView":21,"byteOffset":0,"componentType":5126,"count":358,"max":[1.00345396995544,0.610033631324768,0.847310543060303],"min":[-1.00345396995544,0.100916266441345,-2.20233297348022],"type":"VEC3"},{"bufferView":22,"byteOffset":0,"componentType":5126,"count":358,"type":"VEC3"},{"bufferView":23,"byteOffset":0,"componentType":5126,"count":358,"type":"VEC2"},{"bufferView":24,"byteOffset":0,"componentType":5123,"count":168,"type":"SCALAR"},{"bufferView":25,"byteOffset":0,"componentType":5126,"count":96,"max":[0.774564802646637,0.20307445526123,-2.01229548454285],"min":[-0.77456480264664,-0.02075600624084,-2.31309604644775],"type":"VEC3"},{"bufferView":26,"byteOffset":0,"componentType":5126,"count":96,"type":"VEC3"},{"bufferView":27,"byteOffset":0,"componentType":5126,"count":96,"type":"VEC2"},{"bufferView":28,"byteOffset":0,"componentType":5123,"count":120,"type":"SCALAR"},{"bufferView":29,"byteOffset":0,"componentType":5126,"count":62,"max":[0.614359736442566,-0.46648958325386,-2.23089218139648],"min":[-0.61435973644257,-0.6308878660202,-2.38487386703491],"type":"VEC3"},{"bufferView":30,"byteOffset":0,"componentType":5126,"count":62,"type":"VEC3"},{"bufferView":31,"byteOffset":0,"componentType":5126,"count":62,"type":"VEC2"},{"bufferView":32,"byteOffset":0,"componentType":5123,"count":72,"type":"SCALAR"},{"bufferView":33,"byteOffset":0,"componentType":5126,"count":48,"max":[0.738416135311127,-0.07476824522018,1.77919578552246],"min":[-0.73841613531113,-0.21937488019466,1.47378993034363],"type":"VEC3"},{"bufferView":34,"byteOffset":0,"componentType":5126,"count":48,"type":"VEC3"},{"bufferView":35,"byteOffset":0,"componentType":5126,"count":48,"type":"VEC2"},{"bufferView":36,"byteOffset":0,"componentType":5123,"count":72,"type":"SCALAR"},{"bufferView":37,"byteOffset":0,"componentType":5126,"count":48,"max":[0.756261050701141,-0.36262109875679,1.71928191184998],"min":[-0.75626105070114,-0.53497689962387,1.46744179725647],"type":"VEC3"},{"bufferView":38,"byteOffset":0,"componentType":5126,"count":48,"type":"VEC3"},{"bufferView":39,"byteOffset":0,"componentType":5126,"count":48,"type":"VEC2"},{"bufferView":40,"byteOffset":0,"componentType":5123,"count":252,"type":"SCALAR"},{"bufferView":41,"byteOffset":0,"componentType":5126,"count":168,"max":[0.527885854244232,0.75443309545517,1.91200220584869],"min":[0.056754931807518,-0.10508012771606,-0.27081125974655],"type":"VEC3"},{"bufferView":42,"byteOffset":0,"componentType":5126,"count":168,"type":"VEC3"},{"bufferView":43,"byteOffset":0,"componentType":5126,"count":168,"type":"VEC2"},{"bufferView":44,"byteOffset":0,"componentType":5123,"count":252,"type":"SCALAR"},{"bufferView":45,"byteOffset":0,"componentType":5126,"count":168,"max":[-0.05675493553281,0.75443309545517,1.91200220584869],"min":[-0.52788585424423,-0.10508012771606,-0.27081125974655],"type":"VEC3"},{"bufferView":46,"byteOffset":0,"componentType":5126,"count":168,"type":"VEC3"},{"bufferView":47,"byteOffset":0,"componentType":5126,"count":168,"type":"VEC2"}],"asset":{"generator":"FBX2glTF v0.13.1","version":"2.0"},"bufferViews":[{"buffer":0,"byteLength":24540,"byteOffset":0,"target":34963},{"buffer":0,"byteLength":95664,"byteOffset":24540,"target":34962},{"buffer":0,"byteLength":95664,"byteOffset":120204,"target":34962},{"buffer":0,"byteLength":63776,"byteOffset":215868,"target":34962},{"buffer":0,"byteLength":5880,"byteOffset":279644,"target":34963},{"buffer":0,"byteLength":22368,"byteOffset":285524,"target":34962},{"buffer":0,"byteLength":22368,"byteOffset":307892,"target":34962},{"buffer":0,"byteLength":14912,"byteOffset":330260,"target":34962},{"buffer":0,"byteLength":5880,"byteOffset":345172,"target":34963},{"buffer":0,"byteLength":22464,"byteOffset":351052,"target":34962},{"buffer":0,"byteLength":22464,"byteOffset":373516,"target":34962},{"buffer":0,"byteLength":14976,"byteOffset":395980,"target":34962},{"buffer":0,"byteLength":5880,"byteOffset":410956,"target":34963},{"buffer":0,"byteLength":22416,"byteOffset":416836,"target":34962},{"buffer":0,"byteLength":22416,"byteOffset":439252,"target":34962},{"buffer":0,"byteLength":14944,"byteOffset":461668,"target":34962},{"buffer":0,"byteLength":5880,"byteOffset":476612,"target":34963},{"buffer":0,"byteLength":22320,"byteOffset":482492,"target":34962},{"buffer":0,"byteLength":22320,"byteOffset":504812,"target":34962},{"buffer":0,"byteLength":14880,"byteOffset":527132,"target":34962},{"buffer":0,"byteLength":1116,"byteOffset":542012,"target":34963},{"buffer":0,"byteLength":4296,"byteOffset":543128,"target":34962},{"buffer":0,"byteLength":4296,"byteOffset":547424,"target":34962},{"buffer":0,"byteLength":2864,"byteOffset":551720,"target":34962},{"buffer":0,"byteLength":336,"byteOffset":554584,"target":34963},{"buffer":0,"byteLength":1152,"byteOffset":554920,"target":34962},{"buffer":0,"byteLength":1152,"byteOffset":556072,"target":34962},{"buffer":0,"byteLength":768,"byteOffset":557224,"target":34962},{"buffer":0,"byteLength":240,"byteOffset":557992,"target":34963},{"buffer":0,"byteLength":744,"byteOffset":558232,"target":34962},{"buffer":0,"byteLength":744,"byteOffset":558976,"target":34962},{"buffer":0,"byteLength":496,"byteOffset":559720,"target":34962},{"buffer":0,"byteLength":144,"byteOffset":560216,"target":34963},{"buffer":0,"byteLength":576,"byteOffset":560360,"target":34962},{"buffer":0,"byteLength":576,"byteOffset":560936,"target":34962},{"buffer":0,"byteLength":384,"byteOffset":561512,"target":34962},{"buffer":0,"byteLength":144,"byteOffset":561896,"target":34963},{"buffer":0,"byteLength":576,"byteOffset":562040,"target":34962},{"buffer":0,"byteLength":576,"byteOffset":562616,"target":34962},{"buffer":0,"byteLength":384,"byteOffset":563192,"target":34962},{"buffer":0,"byteLength":504,"byteOffset":563576,"target":34963},{"buffer":0,"byteLength":2016,"byteOffset":564080,"target":34962},{"buffer":0,"byteLength":2016,"byteOffset":566096,"target":34962},{"buffer":0,"byteLength":1344,"byteOffset":568112,"target":34962},{"buffer":0,"byteLength":504,"byteOffset":569456,"target":34963},{"buffer":0,"byteLength":2016,"byteOffset":569960,"target":34962},{"buffer":0,"byteLength":2016,"byteOffset":571976,"target":34962},{"buffer":0,"byteLength":1344,"byteOffset":573992,"target":34962}],"buffers":[{"byteLength":575336,"uri":"SM_Police_Car.bin"}],"images":[{"name":"Polygon_Texture_vol2","uri":"Polygon_Texture_vol2.png"}],"materials":[{"alphaMode":"OPAQUE","doubleSided":false,"extras":{"fromFBX":{"isTruePBR":false,"shadingModel":"Phong"}},"name":"Material","pbrMetallicRoughness":{"baseColorFactor":[1,1,1,1],"baseColorTexture":{"index":0,"texCoord":0},"metallicFactor":0.400000005960464,"roughnessFactor":0.272165536880493}},{"alphaMode":"OPAQUE","doubleSided":false,"extras":{"fromFBX":{"isTruePBR":false,"shadingModel":"Phong"}},"name":"Material.001","pbrMetallicRoughness":{"baseColorFactor":[0.800000011920929,0.800000011920929,0.800000011920929,1],"metallicFactor":0.400000005960464,"roughnessFactor":0.272165536880493}},{"alphaMode":"OPAQUE","doubleSided":false,"extras":{"fromFBX":{"isTruePBR":false,"shadingModel":"Phong"}},"name":"Material.006","pbrMetallicRoughness":{"baseColorFactor":[0.800000011920929,0.800000011920929,0.800000011920929,1],"metallicFactor":0.400000005960464,"roughnessFactor":0.272165536880493}},{"alphaMode":"OPAQUE","doubleSided":false,"extras":{"fromFBX":{"isTruePBR":false,"shadingModel":"Phong"}},"name":"Material.007","pbrMetallicRoughness":{"baseColorFactor":[0.800000011920929,0.800000011920929,0.800000011920929,1],"metallicFactor":0.400000005960464,"roughnessFactor":0.272165536880493}},{"alphaMode":"OPAQUE","doubleSided":false,"extras":{"fromFBX":{"isTruePBR":false,"shadingModel":"Phong"}},"name":"Material.004","pbrMetallicRoughness":{"baseColorFactor":[0.800000011920929,0.800000011920929,0.800000011920929,1],"metallicFactor":0.400000005960464,"roughnessFactor":0.272165536880493}},{"alphaMode":"OPAQUE","doubleSided":false,"extras":{"fromFBX":{"isTruePBR":false,"shadingModel":"Phong"}},"name":"Material.005","pbrMetallicRoughness":{"baseColorFactor":[0.800000011920929,0.800000011920929,0.800000011920929,1],"metallicFactor":0.400000005960464,"roughnessFactor":0.272165536880493}},{"alphaMode":"OPAQUE","doubleSided":false,"extras":{"fromFBX":{"isTruePBR":false,"shadingModel":"Phong"}},"name":"Material.003","pbrMetallicRoughness":{"baseColorFactor":[0.800000011920929,0.800000011920929,0.800000011920929,1],"metallicFactor":0.400000005960464,"roughnessFactor":0.272165536880493}},{"alphaMode":"OPAQUE","doubleSided":false,"extras":{"fromFBX":{"isTruePBR":false,"shadingModel":"Phong"}},"name":"Material.002","pbrMetallicRoughness":{"baseColorFactor":[0.800000011920929,0.800000011920929,0.800000011920929,1],"metallicFactor":0.400000005960464,"roughnessFactor":0.272165536880493}}],"meshes":[{"name":"Police_Car","primitives":[{"attributes":{"NORMAL":2,"POSITION":1,"TEXCOORD_0":3},"indices":0,"material":0,"mode":4},{"attributes":{"NORMAL":22,"POSITION":21,"TEXCOORD_0":23},"indices":20,"material":1,"mode":4},{"attributes":{"NORMAL":26,"POSITION":25,"TEXCOORD_0":27},"indices":24,"material":2,"mode":4},{"attributes":{"NORMAL":30,"POSITION":29,"TEXCOORD_0":31},"indices":28,"material":3,"mode":4},{"attributes":{"NORMAL":34,"POSITION":33,"TEXCOORD_0":35},"indices":32,"material":4,"mode":4},{"attributes":{"NORMAL":38,"POSITION":37,"TEXCOORD_0":39},"indices":36,"material":5,"mode":4},{"attributes":{"NORMAL":42,"POSITION":41,"TEXCOORD_0":43},"indices":40,"material":6,"mode":4},{"attributes":{"NORMAL":46,"POSITION":45,"TEXCOORD_0":47},"indices":44,"material":7,"mode":4}]},{"name":"Wheel_022","primitives":[{"attributes":{"NORMAL":6,"POSITION":5,"TEXCOORD_0":7},"indices":4,"material":0,"mode":4}]},{"name":"Wheel_021","primitives":[{"attributes":{"NORMAL":10,"POSITION":9,"TEXCOORD_0":11},"indices":8,"material":0,"mode":4}]},{"name":"Wheel_020","primitives":[{"attributes":{"NORMAL":14,"POSITION":13,"TEXCOORD_0":15},"indices":12,"material":0,"mode":4}]},{"name":"Wheel_022.001","primitives":[{"attributes":{"NORMAL":18,"POSITION":17,"TEXCOORD_0":19},"indices":16,"material":0,"mode":4}]}],"nodes":[{"children":[1,2,3,4],"mesh":0,"name":"Police_Car","rotation":[0,0,0,1],"scale":[1,1,1],"translation":[5.33128452301025,0.836203277111053,-0.9346404671669]},{"mesh":1,"name":"Wheel_022","rotation":[0,0,0,1],"scale":[1,1,1],"translation":[-0.00000061035155,-0.5499946475029,-1.57360076904297]},{"mesh":2,"name":"Wheel_021","rotation":[0,0,0,1],"scale":[1,1,1],"translation":[0.881516098976135,-0.54999428987503,1.01928889751434]},{"mesh":3,"name":"Wheel_020","rotation":[0,0,0,1],"scale":[1,1,1],"translation":[-0.88151669502258,-0.54999428987503,1.01928889751434]},{"mesh":4,"name":"Wheel_022.001","rotation":[0,0,0,1],"scale":[1,1,1],"translation":[-0.00000061035155,-0.5499946475029,-1.57360076904297]}],"samplers":[{}],"scene":0,"scenes":[{"name":"Root Scene","nodes":[0]}],"textures":[{"name":"base_color_texture","sampler":0,"source":0}]}