{"accessors":[{"bufferView":0,"byteOffset":0,"componentType":5123,"count":5364,"type":"SCALAR"},{"bufferView":1,"byteOffset":0,"componentType":5126,"count":3422,"max":[0.913988292217255,0.432141304016113,2.04829740524292],"min":[-0.91397285461426,-0.44909062981606,-2.19844603538513],"type":"VEC3"},{"bufferView":2,"byteOffset":0,"componentType":5126,"count":3422,"type":"VEC3"},{"bufferView":3,"byteOffset":0,"componentType":5126,"count":3422,"type":"VEC2"},{"bufferView":4,"byteOffset":0,"componentType":5123,"count":2004,"type":"SCALAR"},{"bufferView":5,"byteOffset":0,"componentType":5126,"count":1284,"max":[0.227826163172722,0.287706285715103,0.287414580583572],"min":[-0.05762213468552,-0.28688630461693,-0.28717795014381],"type":"VEC3"},{"bufferView":6,"byteOffset":0,"componentType":5126,"count":1284,"type":"VEC3"},{"bufferView":7,"byteOffset":0,"componentType":5126,"count":1284,"type":"VEC2"},{"bufferView":8,"byteOffset":0,"componentType":5123,"count":2004,"type":"SCALAR"},{"bufferView":9,"byteOffset":0,"componentType":5126,"count":1266,"max":[0.0576221346855164,0.287706285715103,0.287414580583572],"min":[-0.22782616317272,-0.28688630461693,-0.28717795014381],"type":"VEC3"},{"bufferView":10,"byteOffset":0,"componentType":5126,"count":1266,"type":"VEC3"},{"bufferView":11,"byteOffset":0,"componentType":5126,"count":1266,"type":"VEC2"},{"bufferView":12,"byteOffset":0,"componentType":5123,"count":2004,"type":"SCALAR"},{"bufferView":13,"byteOffset":0,"componentType":5126,"count":1262,"max":[-0.59024125337601,0.318000733852386,0.317678332328796],"min":[-0.90574616193771,-0.31709426641464,-0.31741678714752],"type":"VEC3"},{"bufferView":14,"byteOffset":0,"componentType":5126,"count":1262,"type":"VEC3"},{"bufferView":15,"byteOffset":0,"componentType":5126,"count":1262,"type":"VEC2"},{"bufferView":16,"byteOffset":0,"componentType":5123,"count":2004,"type":"SCALAR"},{"bufferView":17,"byteOffset":0,"componentType":5126,"count":1276,"max":[0.905743360519409,0.318000733852386,0.317678332328796],"min":[0.590238451957703,-0.31709426641464,-0.31741678714752],"type":"VEC3"},{"bufferView":18,"byteOffset":0,"componentType":5126,"count":1276,"type":"VEC3"},{"bufferView":19,"byteOffset":0,"componentType":5126,"count":1276,"type":"VEC2"},{"bufferView":20,"byteOffset":0,"componentType":5123,"count":48,"type":"SCALAR"},{"bufferView":21,"byteOffset":0,"componentType":5126,"count":32,"max":[0.759598970413208,0.150419533252716,-1.86667275428772],"min":[-0.75958341360092,0.0541295371949673,-2.03477811813354],"type":"VEC3"},{"bufferView":22,"byteOffset":0,"componentType":5126,"count":32,"type":"VEC3"},{"bufferView":23,"byteOffset":0,"componentType":5126,"count":32,"type":"VEC2"},{"bufferView":24,"byteOffset":0,"componentType":5123,"count":276,"type":"SCALAR"},{"bufferView":25,"byteOffset":0,"componentType":5126,"count":160,"max":[0.905227780342102,0.367355465888977,1.2008889913559],"min":[-0.90521228313446,0.0867031067609787,-1.52635598182678],"type":"VEC3"},{"bufferView":26,"byteOffset":0,"componentType":5126,"count":160,"type":"VEC3"},{"bufferView":27,"byteOffset":0,"componentType":5126,"count":160,"type":"VEC2"},{"bufferView":28,"byteOffset":0,"componentType":5123,"count":36,"type":"SCALAR"},{"bufferView":29,"byteOffset":0,"componentType":5126,"count":24,"max":[0.794304549694061,0.0299698505550623,-1.83240687847137],"min":[-0.79428899288178,-0.10032895207405,-2.00371384620667],"type":"VEC3"},{"bufferView":30,"byteOffset":0,"componentType":5126,"count":24,"type":"VEC3"},{"bufferView":31,"byteOffset":0,"componentType":5126,"count":24,"type":"VEC2"},{"bufferView":32,"byteOffset":0,"componentType":5123,"count":30,"type":"SCALAR"},{"bufferView":33,"byteOffset":0,"componentType":5126,"count":18,"max":[0.686038851737976,-0.02198835276067,1.76988184452057],"min":[-0.68602341413498,-0.11838133633137,1.54928874969482],"type":"VEC3"},{"bufferView":34,"byteOffset":0,"componentType":5126,"count":18,"type":"VEC3"},{"bufferView":35,"byteOffset":0,"componentType":5126,"count":18,"type":"VEC2"}],"asset":{"generator":"FBX2glTF v0.13.1","version":"2.0"},"bufferViews":[{"buffer":0,"byteLength":10728,"byteOffset":0,"target":34963},{"buffer":0,"byteLength":41064,"byteOffset":10728,"target":34962},{"buffer":0,"byteLength":41064,"byteOffset":51792,"target":34962},{"buffer":0,"byteLength":27376,"byteOffset":92856,"target":34962},{"buffer":0,"byteLength":4008,"byteOffset":120232,"target":34963},{"buffer":0,"byteLength":15408,"byteOffset":124240,"target":34962},{"buffer":0,"byteLength":15408,"byteOffset":139648,"target":34962},{"buffer":0,"byteLength":10272,"byteOffset":155056,"target":34962},{"buffer":0,"byteLength":4008,"byteOffset":165328,"target":34963},{"buffer":0,"byteLength":15192,"byteOffset":169336,"target":34962},{"buffer":0,"byteLength":15192,"byteOffset":184528,"target":34962},{"buffer":0,"byteLength":10128,"byteOffset":199720,"target":34962},{"buffer":0,"byteLength":4008,"byteOffset":209848,"target":34963},{"buffer":0,"byteLength":15144,"byteOffset":213856,"target":34962},{"buffer":0,"byteLength":15144,"byteOffset":229000,"target":34962},{"buffer":0,"byteLength":10096,"byteOffset":244144,"target":34962},{"buffer":0,"byteLength":4008,"byteOffset":254240,"target":34963},{"buffer":0,"byteLength":15312,"byteOffset":258248,"target":34962},{"buffer":0,"byteLength":15312,"byteOffset":273560,"target":34962},{"buffer":0,"byteLength":10208,"byteOffset":288872,"target":34962},{"buffer":0,"byteLength":96,"byteOffset":299080,"target":34963},{"buffer":0,"byteLength":384,"byteOffset":299176,"target":34962},{"buffer":0,"byteLength":384,"byteOffset":299560,"target":34962},{"buffer":0,"byteLength":256,"byteOffset":299944,"target":34962},{"buffer":0,"byteLength":552,"byteOffset":300200,"target":34963},{"buffer":0,"byteLength":1920,"byteOffset":300752,"target":34962},{"buffer":0,"byteLength":1920,"byteOffset":302672,"target":34962},{"buffer":0,"byteLength":1280,"byteOffset":304592,"target":34962},{"buffer":0,"byteLength":72,"byteOffset":305872,"target":34963},{"buffer":0,"byteLength":288,"byteOffset":305944,"target":34962},{"buffer":0,"byteLength":288,"byteOffset":306232,"target":34962},{"buffer":0,"byteLength":192,"byteOffset":306520,"target":34962},{"buffer":0,"byteLength":60,"byteOffset":306712,"target":34963},{"buffer":0,"byteLength":216,"byteOffset":306772,"target":34962},{"buffer":0,"byteLength":216,"byteOffset":306988,"target":34962},{"buffer":0,"byteLength":144,"byteOffset":307204,"target":34962}],"buffers":[{"byteLength":307348,"uri":"SM_Premium_Car_01.bin"}],"images":[{"name":"Polygon_Texture_vol2","uri":"Polygon_Texture_vol2.png"}],"materials":[{"alphaMode":"OPAQUE","doubleSided":false,"extras":{"fromFBX":{"isTruePBR":false,"shadingModel":"Phong"}},"name":"Material","pbrMetallicRoughness":{"baseColorFactor":[1,1,1,1],"baseColorTexture":{"index":0,"texCoord":0},"metallicFactor":0.400000005960464,"roughnessFactor":0.272165536880493}},{"alphaMode":"OPAQUE","doubleSided":false,"extras":{"fromFBX":{"isTruePBR":false,"shadingModel":"Phong"}},"name":"Material.003","pbrMetallicRoughness":{"baseColorFactor":[0.800000011920929,0.800000011920929,0.800000011920929,1],"metallicFactor":0.400000005960464,"roughnessFactor":0.272165536880493}},{"alphaMode":"OPAQUE","doubleSided":false,"extras":{"fromFBX":{"isTruePBR":false,"shadingModel":"Phong"}},"name":"Material.001","pbrMetallicRoughness":{"baseColorFactor":[0.800000011920929,0.800000011920929,0.800000011920929,1],"metallicFactor":0.400000005960464,"roughnessFactor":0.272165536880493}},{"alphaMode":"OPAQUE","doubleSided":false,"extras":{"fromFBX":{"isTruePBR":false,"shadingModel":"Phong"}},"name":"Material.004","pbrMetallicRoughness":{"baseColorFactor":[0.800000011920929,0.800000011920929,0.800000011920929,1],"metallicFactor":0.400000005960464,"roughnessFactor":0.272165536880493}},{"alphaMode":"OPAQUE","doubleSided":false,"extras":{"fromFBX":{"isTruePBR":false,"shadingModel":"Phong"}},"name":"Material.002","pbrMetallicRoughness":{"baseColorFactor":[0.800000011920929,0.800000011920929,0.800000011920929,1],"metallicFactor":0.400000005960464,"roughnessFactor":0.272165536880493}}],"meshes":[{"name":"Premium_Car_01","primitives":[{"attributes":{"NORMAL":2,"POSITION":1,"TEXCOORD_0":3},"indices":0,"material":0,"mode":4},{"attributes":{"NORMAL":22,"POSITION":21,"TEXCOORD_0":23},"indices":20,"material":1,"mode":4},{"attributes":{"NORMAL":26,"POSITION":25,"TEXCOORD_0":27},"indices":24,"material":2,"mode":4},{"attributes":{"NORMAL":30,"POSITION":29,"TEXCOORD_0":31},"indices":28,"material":3,"mode":4},{"attributes":{"NORMAL":34,"POSITION":33,"TEXCOORD_0":35},"indices":32,"material":4,"mode":4}]},{"name":"Wheel_01","primitives":[{"attributes":{"NORMAL":6,"POSITION":5,"TEXCOORD_0":7},"indices":4,"material":0,"mode":4}]},{"name":"Wheel_02","primitives":[{"attributes":{"NORMAL":10,"POSITION":9,"TEXCOORD_0":11},"indices":8,"material":0,"mode":4}]},{"name":"Wheel_03","primitives":[{"attributes":{"NORMAL":14,"POSITION":13,"TEXCOORD_0":15},"indices":12,"material":0,"mode":4}]},{"name":"Wheel_03.001","primitives":[{"attributes":{"NORMAL":18,"POSITION":17,"TEXCOORD_0":19},"indices":16,"material":0,"mode":4}]}],"nodes":[{"children":[1,2,3,4],"mesh":0,"name":"Premium_Car_01","rotation":[0,0,0,1],"scale":[1,1,1],"translation":[20.5667762756348,0.576084196567535,-1.05830585956573]},{"mesh":1,"name":"Wheel_01","rotation":[0,0,0,1],"scale":[1,1,1],"translation":[-0.84204590320587,-0.28071495890617,1.02516877651215]},{"mesh":2,"name":"Wheel_02","rotation":[0,0,0,1],"scale":[1,1,1],"translation":[0.842062950134277,-0.28071495890617,1.02516877651215]},{"mesh":3,"name":"Wheel_03","rotation":[0,0,0,1],"scale":[1,1,1],"translation":[0.00000976562478172127,-0.25073334574699,-1.33829009532928]},{"mesh":4,"name":"Wheel_03.001","rotation":[0,0,0,1],"scale":[1,1,1],"translation":[0.00000976562478172127,-0.25073334574699,-1.33829009532928]}],"samplers":[{}],"scene":0,"scenes":[{"name":"Root Scene","nodes":[0]}],"textures":[{"name":"base_color_texture","sampler":0,"source":0}]}