{"accessors":[{"bufferView":0,"byteOffset":0,"componentType":5123,"count":6654,"type":"SCALAR"},{"bufferView":1,"byteOffset":0,"componentType":5126,"count":4317,"max":[1.08541059494019,1.9953978061676,1.02522718906403],"min":[-1.08541059494019,0.0142870480194688,-4.78970623016357],"type":"VEC3"},{"bufferView":2,"byteOffset":0,"componentType":5126,"count":4317,"type":"VEC3"},{"bufferView":3,"byteOffset":0,"componentType":5126,"count":4317,"type":"VEC2"},{"bufferView":4,"byteOffset":0,"componentType":5123,"count":1752,"type":"SCALAR"},{"bufferView":5,"byteOffset":0,"componentType":5126,"count":1116,"max":[0.221571981906891,0.32112842798233,0.321128308773041],"min":[-0.06746333837509,-0.32112821936607,-0.32112830877304],"type":"VEC3"},{"bufferView":6,"byteOffset":0,"componentType":5126,"count":1116,"type":"VEC3"},{"bufferView":7,"byteOffset":0,"componentType":5126,"count":1116,"type":"VEC2"},{"bufferView":8,"byteOffset":0,"componentType":5123,"count":1752,"type":"SCALAR"},{"bufferView":9,"byteOffset":0,"componentType":5126,"count":1116,"max":[-0.72226589918137,0.32112842798233,0.321125745773315],"min":[-1.01130127906799,-0.32112821936607,-0.32113075256348],"type":"VEC3"},{"bufferView":10,"byteOffset":0,"componentType":5126,"count":1116,"type":"VEC3"},{"bufferView":11,"byteOffset":0,"componentType":5126,"count":1116,"type":"VEC2"},{"bufferView":12,"byteOffset":0,"componentType":5123,"count":1752,"type":"SCALAR"},{"bufferView":13,"byteOffset":0,"componentType":5126,"count":1116,"max":[0.0674633383750916,0.32112842798233,0.321128308773041],"min":[-0.22157198190689,-0.32112821936607,-0.32112830877304],"type":"VEC3"},{"bufferView":14,"byteOffset":0,"componentType":5126,"count":1116,"type":"VEC3"},{"bufferView":15,"byteOffset":0,"componentType":5126,"count":1116,"type":"VEC2"},{"bufferView":16,"byteOffset":0,"componentType":5123,"count":1752,"type":"SCALAR"},{"bufferView":17,"byteOffset":0,"componentType":5126,"count":1116,"max":[1.01130032539368,0.32112842798233,0.321125745773315],"min":[0.722265005111694,-0.32112821936607,-0.32113075256348],"type":"VEC3"},{"bufferView":18,"byteOffset":0,"componentType":5126,"count":1116,"type":"VEC3"},{"bufferView":19,"byteOffset":0,"componentType":5126,"count":1116,"type":"VEC2"},{"bufferView":20,"byteOffset":0,"componentType":5123,"count":138,"type":"SCALAR"},{"bufferView":21,"byteOffset":0,"componentType":5126,"count":90,"max":[0.886173367500305,0.980522811412811,0.898320198059082],"min":[-0.8861733675003,0.174455747008324,0.422762542963028],"type":"VEC3"},{"bufferView":22,"byteOffset":0,"componentType":5126,"count":90,"type":"VEC3"},{"bufferView":23,"byteOffset":0,"componentType":5126,"count":90,"type":"VEC2"},{"bufferView":24,"byteOffset":0,"componentType":5123,"count":384,"type":"SCALAR"},{"bufferView":25,"byteOffset":0,"componentType":5126,"count":240,"max":[1.0632084608078,1.77616167068481,0.194374457001686],"min":[-1.0632084608078,0.736908614635468,-4.7683310508728],"type":"VEC3"},{"bufferView":26,"byteOffset":0,"componentType":5126,"count":240,"type":"VEC3"},{"bufferView":27,"byteOffset":0,"componentType":5126,"count":240,"type":"VEC2"},{"bufferView":28,"byteOffset":0,"componentType":5123,"count":24,"type":"SCALAR"},{"bufferView":29,"byteOffset":0,"componentType":5126,"count":16,"max":[0.923159897327423,0.40701824426651,-4.69284868240356],"min":[-0.92315989732742,0.232095673680305,-4.75196933746338],"type":"VEC3"},{"bufferView":30,"byteOffset":0,"componentType":5126,"count":16,"type":"VEC3"},{"bufferView":31,"byteOffset":0,"componentType":5126,"count":16,"type":"VEC2"},{"bufferView":32,"byteOffset":0,"componentType":5123,"count":24,"type":"SCALAR"},{"bufferView":33,"byteOffset":0,"componentType":5126,"count":16,"max":[0.931054353713989,0.682297646999359,-4.70159387588501],"min":[-0.93105435371399,0.406483709812164,-4.75340795516968],"type":"VEC3"},{"bufferView":34,"byteOffset":0,"componentType":5126,"count":16,"type":"VEC3"},{"bufferView":35,"byteOffset":0,"componentType":5126,"count":16,"type":"VEC2"}],"asset":{"generator":"FBX2glTF v0.13.1","version":"2.0"},"bufferViews":[{"buffer":0,"byteLength":13308,"byteOffset":0,"target":34963},{"buffer":0,"byteLength":51804,"byteOffset":13308,"target":34962},{"buffer":0,"byteLength":51804,"byteOffset":65112,"target":34962},{"buffer":0,"byteLength":34536,"byteOffset":116916,"target":34962},{"buffer":0,"byteLength":3504,"byteOffset":151452,"target":34963},{"buffer":0,"byteLength":13392,"byteOffset":154956,"target":34962},{"buffer":0,"byteLength":13392,"byteOffset":168348,"target":34962},{"buffer":0,"byteLength":8928,"byteOffset":181740,"target":34962},{"buffer":0,"byteLength":3504,"byteOffset":190668,"target":34963},{"buffer":0,"byteLength":13392,"byteOffset":194172,"target":34962},{"buffer":0,"byteLength":13392,"byteOffset":207564,"target":34962},{"buffer":0,"byteLength":8928,"byteOffset":220956,"target":34962},{"buffer":0,"byteLength":3504,"byteOffset":229884,"target":34963},{"buffer":0,"byteLength":13392,"byteOffset":233388,"target":34962},{"buffer":0,"byteLength":13392,"byteOffset":246780,"target":34962},{"buffer":0,"byteLength":8928,"byteOffset":260172,"target":34962},{"buffer":0,"byteLength":3504,"byteOffset":269100,"target":34963},{"buffer":0,"byteLength":13392,"byteOffset":272604,"target":34962},{"buffer":0,"byteLength":13392,"byteOffset":285996,"target":34962},{"buffer":0,"byteLength":8928,"byteOffset":299388,"target":34962},{"buffer":0,"byteLength":276,"byteOffset":308316,"target":34963},{"buffer":0,"byteLength":1080,"byteOffset":308592,"target":34962},{"buffer":0,"byteLength":1080,"byteOffset":309672,"target":34962},{"buffer":0,"byteLength":720,"byteOffset":310752,"target":34962},{"buffer":0,"byteLength":768,"byteOffset":311472,"target":34963},{"buffer":0,"byteLength":2880,"byteOffset":312240,"target":34962},{"buffer":0,"byteLength":2880,"byteOffset":315120,"target":34962},{"buffer":0,"byteLength":1920,"byteOffset":318000,"target":34962},{"buffer":0,"byteLength":48,"byteOffset":319920,"target":34963},{"buffer":0,"byteLength":192,"byteOffset":319968,"target":34962},{"buffer":0,"byteLength":192,"byteOffset":320160,"target":34962},{"buffer":0,"byteLength":128,"byteOffset":320352,"target":34962},{"buffer":0,"byteLength":48,"byteOffset":320480,"target":34963},{"buffer":0,"byteLength":192,"byteOffset":320528,"target":34962},{"buffer":0,"byteLength":192,"byteOffset":320720,"target":34962},{"buffer":0,"byteLength":128,"byteOffset":320912,"target":34962}],"buffers":[{"byteLength":321040,"uri":"SM_truck.bin"}],"images":[{"name":"Polygon_Texture_vol2","uri":"Polygon_Texture_vol2.png"}],"materials":[{"alphaMode":"OPAQUE","doubleSided":false,"extras":{"fromFBX":{"isTruePBR":false,"shadingModel":"Phong"}},"name":"Material","pbrMetallicRoughness":{"baseColorFactor":[1,1,1,1],"baseColorTexture":{"index":0,"texCoord":0},"metallicFactor":0.400000005960464,"roughnessFactor":0.272165536880493}},{"alphaMode":"OPAQUE","doubleSided":false,"extras":{"fromFBX":{"isTruePBR":false,"shadingModel":"Phong"}},"name":"Material.002","pbrMetallicRoughness":{"baseColorFactor":[0.800000011920929,0.800000011920929,0.800000011920929,1],"metallicFactor":0.400000005960464,"roughnessFactor":0.272165536880493}},{"alphaMode":"OPAQUE","doubleSided":false,"extras":{"fromFBX":{"isTruePBR":false,"shadingModel":"Phong"}},"name":"Material.001","pbrMetallicRoughness":{"baseColorFactor":[0.800000011920929,0.800000011920929,0.800000011920929,1],"metallicFactor":0.400000005960464,"roughnessFactor":0.272165536880493}},{"alphaMode":"OPAQUE","doubleSided":false,"extras":{"fromFBX":{"isTruePBR":false,"shadingModel":"Phong"}},"name":"Material.004","pbrMetallicRoughness":{"baseColorFactor":[0.800000011920929,0.800000011920929,0.800000011920929,1],"metallicFactor":0.400000005960464,"roughnessFactor":0.272165536880493}},{"alphaMode":"OPAQUE","doubleSided":false,"extras":{"fromFBX":{"isTruePBR":false,"shadingModel":"Phong"}},"name":"Material.003","pbrMetallicRoughness":{"baseColorFactor":[0.800000011920929,0.800000011920929,0.800000011920929,1],"metallicFactor":0.400000005960464,"roughnessFactor":0.272165536880493}}],"meshes":[{"name":"truck","primitives":[{"attributes":{"NORMAL":2,"POSITION":1,"TEXCOORD_0":3},"indices":0,"material":0,"mode":4},{"attributes":{"NORMAL":22,"POSITION":21,"TEXCOORD_0":23},"indices":20,"material":1,"mode":4},{"attributes":{"NORMAL":26,"POSITION":25,"TEXCOORD_0":27},"indices":24,"material":2,"mode":4},{"attributes":{"NORMAL":30,"POSITION":29,"TEXCOORD_0":31},"indices":28,"material":3,"mode":4},{"attributes":{"NORMAL":34,"POSITION":33,"TEXCOORD_0":35},"indices":32,"material":4,"mode":4}]},{"name":"Wheel_026","primitives":[{"attributes":{"NORMAL":6,"POSITION":5,"TEXCOORD_0":7},"indices":4,"material":0,"mode":4}]},{"name":"Wheel_028","primitives":[{"attributes":{"NORMAL":10,"POSITION":9,"TEXCOORD_0":11},"indices":8,"material":0,"mode":4}]},{"name":"Wheel_027","primitives":[{"attributes":{"NORMAL":14,"POSITION":13,"TEXCOORD_0":15},"indices":12,"material":0,"mode":4}]},{"name":"Wheel_028.001","primitives":[{"attributes":{"NORMAL":18,"POSITION":17,"TEXCOORD_0":19},"indices":16,"material":0,"mode":4}]}],"nodes":[{"children":[1,2,3,4],"mesh":0,"name":"truck","rotation":[0,0,0,1],"scale":[1,1,1],"translation":[0.477937370538712,0.18733237683773,0]},{"mesh":1,"name":"Wheel_026","rotation":[0,0,0,1],"scale":[1,1,1],"translation":[-0.94383758306503,0.137385919690132,-0.04796958342195]},{"mesh":2,"name":"Wheel_028","rotation":[0,0,0,1],"scale":[1,1,1],"translation":[0.000000572204555737699,0.137385919690132,-3.85779738426208]},{"mesh":3,"name":"Wheel_027","rotation":[0,0,0,1],"scale":[1,1,1],"translation":[0.943837583065033,0.137385919690132,-0.04796958342195]},{"mesh":4,"name":"Wheel_028.001","rotation":[0,0,0,1],"scale":[1,1,1],"translation":[0.000000572204555737699,0.137385919690132,-3.85779738426208]}],"samplers":[{}],"scene":0,"scenes":[{"name":"Root Scene","nodes":[0]}],"textures":[{"name":"base_color_texture","sampler":0,"source":0}]}