{"accessors":[{"bufferView":0,"byteOffset":0,"componentType":5123,"count":12471,"type":"SCALAR"},{"bufferView":1,"byteOffset":0,"componentType":5126,"count":6878,"max":[8,10.3378438949585,19.2040424346924],"min":[-8,0,-12.795955657959],"type":"VEC3"},{"bufferView":2,"byteOffset":0,"componentType":5126,"count":6878,"type":"VEC3"},{"bufferView":3,"byteOffset":0,"componentType":5126,"count":6878,"type":"VEC2"},{"bufferView":4,"byteOffset":0,"componentType":5123,"count":1068,"type":"SCALAR"},{"bufferView":5,"byteOffset":0,"componentType":5126,"count":712,"max":[7.84128952026367,6.59253454208374,19.1640453338623],"min":[-7.84128952026367,0.0364019460976124,-12.6593494415283],"type":"VEC3"},{"bufferView":6,"byteOffset":0,"componentType":5126,"count":712,"type":"VEC3"},{"bufferView":7,"byteOffset":0,"componentType":5126,"count":712,"type":"VEC2"}],"asset":{"generator":"FBX2glTF v0.13.1","version":"2.0"},"bufferViews":[{"buffer":0,"byteLength":24942,"byteOffset":0,"target":34963},{"buffer":0,"byteLength":82536,"byteOffset":24944,"target":34962},{"buffer":0,"byteLength":82536,"byteOffset":107480,"target":34962},{"buffer":0,"byteLength":55024,"byteOffset":190016,"target":34962},{"buffer":0,"byteLength":2136,"byteOffset":245040,"target":34963},{"buffer":0,"byteLength":8544,"byteOffset":247176,"target":34962},{"buffer":0,"byteLength":8544,"byteOffset":255720,"target":34962},{"buffer":0,"byteLength":5696,"byteOffset":264264,"target":34962}],"buffers":[{"byteLength":269960,"uri":"SM_building_02.bin"}],"images":[{"name":"Polygon_Texture_vol2","uri":"Polygon_Texture_vol2.png"}],"materials":[{"alphaMode":"OPAQUE","doubleSided":false,"extras":{"fromFBX":{"isTruePBR":false,"shadingModel":"Phong"}},"name":"Material","pbrMetallicRoughness":{"baseColorFactor":[1,1,1,1],"baseColorTexture":{"index":0,"texCoord":0},"metallicFactor":0.400000005960464,"roughnessFactor":0.229415729641914}},{"alphaMode":"OPAQUE","doubleSided":false,"extras":{"fromFBX":{"isTruePBR":false,"shadingModel":"Phong"}},"name":"Window","pbrMetallicRoughness":{"baseColorFactor":[0.800000011920929,0.800000011920929,0.800000011920929,1],"metallicFactor":0.400000005960464,"roughnessFactor":0.272165536880493}}],"meshes":[{"name":"building_02","primitives":[{"attributes":{"NORMAL":2,"POSITION":1,"TEXCOORD_0":3},"indices":0,"material":0,"mode":4},{"attributes":{"NORMAL":6,"POSITION":5,"TEXCOORD_0":7},"indices":4,"material":1,"mode":4}]}],"nodes":[{"mesh":0,"name":"building_02","rotation":[0,0,0,1],"scale":[1,1,1],"translation":[98.2659072875977,0,0]}],"samplers":[{}],"scene":0,"scenes":[{"name":"Root Scene","nodes":[0]}],"textures":[{"name":"base_color_texture","sampler":0,"source":0}]}