{"accessors":[{"bufferView":0,"byteOffset":0,"componentType":5123,"count":4938,"type":"SCALAR"},{"bufferView":1,"byteOffset":0,"componentType":5126,"count":2504,"max":[8.43285179138184,14.3941040039062,20.3474369049072],"min":[-8.43285179138184,-0.00000001945122,-16.398567199707],"type":"VEC3"},{"bufferView":2,"byteOffset":0,"componentType":5126,"count":2504,"type":"VEC3"},{"bufferView":3,"byteOffset":0,"componentType":5126,"count":2504,"type":"VEC2"},{"bufferView":4,"byteOffset":0,"componentType":5123,"count":384,"type":"SCALAR"},{"bufferView":5,"byteOffset":0,"componentType":5126,"count":256,"max":[7.73264980316162,10.2286643981934,19.9483833312988],"min":[-7.73264980316162,2.99145436286926,-14.1843967437744],"type":"VEC3"},{"bufferView":6,"byteOffset":0,"componentType":5126,"count":256,"type":"VEC3"},{"bufferView":7,"byteOffset":0,"componentType":5126,"count":256,"type":"VEC2"}],"asset":{"generator":"FBX2glTF v0.13.1","version":"2.0"},"bufferViews":[{"buffer":0,"byteLength":9876,"byteOffset":0,"target":34963},{"buffer":0,"byteLength":30048,"byteOffset":9876,"target":34962},{"buffer":0,"byteLength":30048,"byteOffset":39924,"target":34962},{"buffer":0,"byteLength":20032,"byteOffset":69972,"target":34962},{"buffer":0,"byteLength":768,"byteOffset":90004,"target":34963},{"buffer":0,"byteLength":3072,"byteOffset":90772,"target":34962},{"buffer":0,"byteLength":3072,"byteOffset":93844,"target":34962},{"buffer":0,"byteLength":2048,"byteOffset":96916,"target":34962}],"buffers":[{"byteLength":98964,"uri":"SM_building_03.bin"}],"images":[{"name":"Polygon_Texture_vol2","uri":"Polygon_Texture_vol2.png"}],"materials":[{"alphaMode":"OPAQUE","doubleSided":false,"extras":{"fromFBX":{"isTruePBR":false,"shadingModel":"Phong"}},"name":"Material","pbrMetallicRoughness":{"baseColorFactor":[1,1,1,1],"baseColorTexture":{"index":0,"texCoord":0},"metallicFactor":0.400000005960464,"roughnessFactor":0.229415729641914}},{"alphaMode":"OPAQUE","doubleSided":false,"extras":{"fromFBX":{"isTruePBR":false,"shadingModel":"Phong"}},"name":"Window","pbrMetallicRoughness":{"baseColorFactor":[0.800000011920929,0.800000011920929,0.800000011920929,1],"metallicFactor":0.400000005960464,"roughnessFactor":0.272165536880493}}],"meshes":[{"name":"building_03","primitives":[{"attributes":{"NORMAL":2,"POSITION":1,"TEXCOORD_0":3},"indices":0,"material":0,"mode":4},{"attributes":{"NORMAL":6,"POSITION":5,"TEXCOORD_0":7},"indices":4,"material":1,"mode":4}]}],"nodes":[{"mesh":0,"name":"building_03","rotation":[0,0,0,1],"scale":[1,1,1],"translation":[78.1827392578125,0,0]}],"samplers":[{}],"scene":0,"scenes":[{"name":"Root Scene","nodes":[0]}],"textures":[{"name":"base_color_texture","sampler":0,"source":0}]}