{"accessors":[{"bufferView":0,"byteOffset":0,"componentType":5123,"count":2442,"type":"SCALAR"},{"bufferView":1,"byteOffset":0,"componentType":5126,"count":1150,"max":[4.14775991439819,5.33313083648682,6.17571258544922],"min":[-4.14775991439819,0,-6.17571258544922],"type":"VEC3"},{"bufferView":2,"byteOffset":0,"componentType":5126,"count":1150,"type":"VEC3"},{"bufferView":3,"byteOffset":0,"componentType":5126,"count":1150,"type":"VEC2"},{"bufferView":4,"byteOffset":0,"componentType":5123,"count":144,"type":"SCALAR"},{"bufferView":5,"byteOffset":0,"componentType":5126,"count":96,"max":[3.905109167099,3.30470967292786,5.58259677886963],"min":[-3.905109167099,2.5073390007019,-5.58259677886963],"type":"VEC3"},{"bufferView":6,"byteOffset":0,"componentType":5126,"count":96,"type":"VEC3"},{"bufferView":7,"byteOffset":0,"componentType":5126,"count":96,"type":"VEC2"}],"asset":{"generator":"FBX2glTF v0.13.1","version":"2.0"},"bufferViews":[{"buffer":0,"byteLength":4884,"byteOffset":0,"target":34963},{"buffer":0,"byteLength":13800,"byteOffset":4884,"target":34962},{"buffer":0,"byteLength":13800,"byteOffset":18684,"target":34962},{"buffer":0,"byteLength":9200,"byteOffset":32484,"target":34962},{"buffer":0,"byteLength":288,"byteOffset":41684,"target":34963},{"buffer":0,"byteLength":1152,"byteOffset":41972,"target":34962},{"buffer":0,"byteLength":1152,"byteOffset":43124,"target":34962},{"buffer":0,"byteLength":768,"byteOffset":44276,"target":34962}],"buffers":[{"byteLength":45044,"uri":"SM_building_01.bin"}],"images":[{"name":"Polygon_Texture_vol2","uri":"Polygon_Texture_vol2.png"}],"materials":[{"alphaMode":"OPAQUE","doubleSided":false,"extras":{"fromFBX":{"isTruePBR":false,"shadingModel":"Phong"}},"name":"Material","pbrMetallicRoughness":{"baseColorFactor":[1,1,1,1],"baseColorTexture":{"index":0,"texCoord":0},"metallicFactor":0.400000005960464,"roughnessFactor":0.229415729641914}},{"alphaMode":"OPAQUE","doubleSided":false,"extras":{"fromFBX":{"isTruePBR":false,"shadingModel":"Phong"}},"name":"Window","pbrMetallicRoughness":{"baseColorFactor":[0.800000011920929,0.800000011920929,0.800000011920929,1],"metallicFactor":0.400000005960464,"roughnessFactor":0.272165536880493}}],"meshes":[{"name":"building_01","primitives":[{"attributes":{"NORMAL":2,"POSITION":1,"TEXCOORD_0":3},"indices":0,"material":0,"mode":4},{"attributes":{"NORMAL":6,"POSITION":5,"TEXCOORD_0":7},"indices":4,"material":1,"mode":4}]}],"nodes":[{"mesh":0,"name":"building_01","rotation":[0,0,0,1],"scale":[1,1,1],"translation":[115.848747253418,0,0]}],"samplers":[{}],"scene":0,"scenes":[{"name":"Root Scene","nodes":[0]}],"textures":[{"name":"base_color_texture","sampler":0,"source":0}]}