{"accessors":[{"bufferView":0,"byteOffset":0,"componentType":5123,"count":5982,"type":"SCALAR"},{"bufferView":1,"byteOffset":0,"componentType":5126,"count":3689,"max":[0.984086453914642,2.36781644821167,1.32933723926544],"min":[-0.98408758640289,0,-2.23564529418945],"type":"VEC3"},{"bufferView":2,"byteOffset":0,"componentType":5126,"count":3689,"type":"VEC3"},{"bufferView":3,"byteOffset":0,"componentType":5126,"count":3689,"type":"VEC2"},{"bufferView":4,"byteOffset":0,"componentType":5123,"count":564,"type":"SCALAR"},{"bufferView":5,"byteOffset":0,"componentType":5126,"count":352,"max":[0.211457133293152,0.3323715031147,0.332371354103088],"min":[-0.07947691529989,-0.33237129449844,-0.33237135410309],"type":"VEC3"},{"bufferView":6,"byteOffset":0,"componentType":5126,"count":352,"type":"VEC3"},{"bufferView":7,"byteOffset":0,"componentType":5126,"count":352,"type":"VEC2"},{"bufferView":8,"byteOffset":0,"componentType":5123,"count":564,"type":"SCALAR"},{"bufferView":9,"byteOffset":0,"componentType":5126,"count":352,"max":[0.21145623922348,0.3323715031147,0.332370787858963],"min":[-0.07947780936956,-0.33237129449844,-0.33237218856812],"type":"VEC3"},{"bufferView":10,"byteOffset":0,"componentType":5126,"count":352,"type":"VEC3"},{"bufferView":11,"byteOffset":0,"componentType":5126,"count":352,"type":"VEC2"},{"bufferView":12,"byteOffset":0,"componentType":5123,"count":564,"type":"SCALAR"},{"bufferView":13,"byteOffset":0,"componentType":5126,"count":352,"max":[0.0794778093695641,0.3323715031147,0.332371592521667],"min":[-0.21145623922348,-0.33237129449844,-0.33237114548683],"type":"VEC3"},{"bufferView":14,"byteOffset":0,"componentType":5126,"count":352,"type":"VEC3"},{"bufferView":15,"byteOffset":0,"componentType":5126,"count":352,"type":"VEC2"},{"bufferView":16,"byteOffset":0,"componentType":5123,"count":564,"type":"SCALAR"},{"bufferView":17,"byteOffset":0,"componentType":5126,"count":352,"max":[0.0794778093695641,0.3323715031147,0.332370758056641],"min":[-0.21145623922348,-0.33237129449844,-0.33237218856812],"type":"VEC3"},{"bufferView":18,"byteOffset":0,"componentType":5126,"count":352,"type":"VEC3"},{"bufferView":19,"byteOffset":0,"componentType":5126,"count":352,"type":"VEC2"},{"bufferView":20,"byteOffset":0,"componentType":5123,"count":72,"type":"SCALAR"},{"bufferView":21,"byteOffset":0,"componentType":5126,"count":42,"max":[0.940159976482391,1.65763926506042,1.26829051971436],"min":[-0.94016003608704,0.932541251182556,0.281059354543686],"type":"VEC3"},{"bufferView":22,"byteOffset":0,"componentType":5126,"count":42,"type":"VEC3"},{"bufferView":23,"byteOffset":0,"componentType":5126,"count":42,"type":"VEC2"},{"bufferView":24,"byteOffset":0,"componentType":5123,"count":36,"type":"SCALAR"},{"bufferView":25,"byteOffset":0,"componentType":5126,"count":24,"max":[0.806448638439178,1.05261671543121,1.28553247451782],"min":[-0.80644881725311,0.574960291385651,1.28553247451782],"type":"VEC3"},{"bufferView":26,"byteOffset":0,"componentType":5126,"count":24,"type":"VEC3"},{"bufferView":27,"byteOffset":0,"componentType":5126,"count":24,"type":"VEC2"}],"asset":{"generator":"FBX2glTF v0.13.1","version":"2.0"},"bufferViews":[{"buffer":0,"byteLength":11964,"byteOffset":0,"target":34963},{"buffer":0,"byteLength":44268,"byteOffset":11964,"target":34962},{"buffer":0,"byteLength":44268,"byteOffset":56232,"target":34962},{"buffer":0,"byteLength":29512,"byteOffset":100500,"target":34962},{"buffer":0,"byteLength":1128,"byteOffset":130012,"target":34963},{"buffer":0,"byteLength":4224,"byteOffset":131140,"target":34962},{"buffer":0,"byteLength":4224,"byteOffset":135364,"target":34962},{"buffer":0,"byteLength":2816,"byteOffset":139588,"target":34962},{"buffer":0,"byteLength":1128,"byteOffset":142404,"target":34963},{"buffer":0,"byteLength":4224,"byteOffset":143532,"target":34962},{"buffer":0,"byteLength":4224,"byteOffset":147756,"target":34962},{"buffer":0,"byteLength":2816,"byteOffset":151980,"target":34962},{"buffer":0,"byteLength":1128,"byteOffset":154796,"target":34963},{"buffer":0,"byteLength":4224,"byteOffset":155924,"target":34962},{"buffer":0,"byteLength":4224,"byteOffset":160148,"target":34962},{"buffer":0,"byteLength":2816,"byteOffset":164372,"target":34962},{"buffer":0,"byteLength":1128,"byteOffset":167188,"target":34963},{"buffer":0,"byteLength":4224,"byteOffset":168316,"target":34962},{"buffer":0,"byteLength":4224,"byteOffset":172540,"target":34962},{"buffer":0,"byteLength":2816,"byteOffset":176764,"target":34962},{"buffer":0,"byteLength":144,"byteOffset":179580,"target":34963},{"buffer":0,"byteLength":504,"byteOffset":179724,"target":34962},{"buffer":0,"byteLength":504,"byteOffset":180228,"target":34962},{"buffer":0,"byteLength":336,"byteOffset":180732,"target":34962},{"buffer":0,"byteLength":72,"byteOffset":181068,"target":34963},{"buffer":0,"byteLength":288,"byteOffset":181140,"target":34962},{"buffer":0,"byteLength":288,"byteOffset":181428,"target":34962},{"buffer":0,"byteLength":192,"byteOffset":181716,"target":34962}],"buffers":[{"byteLength":181908,"uri":"SM_cargo_truck_01.bin"}],"images":[{"name":"Polygon_Texture_vol2","uri":"Polygon_Texture_vol2.png"}],"materials":[{"alphaMode":"OPAQUE","doubleSided":false,"extras":{"fromFBX":{"isTruePBR":false,"shadingModel":"Phong"}},"name":"Material","pbrMetallicRoughness":{"baseColorFactor":[1,1,1,1],"baseColorTexture":{"index":0,"texCoord":0},"metallicFactor":0.400000005960464,"roughnessFactor":0.229415729641914}},{"alphaMode":"OPAQUE","doubleSided":false,"extras":{"fromFBX":{"isTruePBR":false,"shadingModel":"Phong"}},"name":"Window","pbrMetallicRoughness":{"baseColorFactor":[0.800000011920929,0.800000011920929,0.800000011920929,1],"metallicFactor":0.400000005960464,"roughnessFactor":0.272165536880493}},{"alphaMode":"OPAQUE","doubleSided":false,"extras":{"fromFBX":{"isTruePBR":false,"shadingModel":"Phong"}},"name":"White","pbrMetallicRoughness":{"baseColorFactor":[0.800000011920929,0.800000011920929,0.800000011920929,1],"metallicFactor":0.400000005960464,"roughnessFactor":0.272165536880493}}],"meshes":[{"name":"cargo_truck_01","primitives":[{"attributes":{"NORMAL":2,"POSITION":1,"TEXCOORD_0":3},"indices":0,"material":0,"mode":4},{"attributes":{"NORMAL":22,"POSITION":21,"TEXCOORD_0":23},"indices":20,"material":1,"mode":4},{"attributes":{"NORMAL":26,"POSITION":25,"TEXCOORD_0":27},"indices":24,"material":2,"mode":4}]},{"name":"Cylinder.004","primitives":[{"attributes":{"NORMAL":6,"POSITION":5,"TEXCOORD_0":7},"indices":4,"material":0,"mode":4}]},{"name":"Cylinder.005","primitives":[{"attributes":{"NORMAL":10,"POSITION":9,"TEXCOORD_0":11},"indices":8,"material":0,"mode":4}]},{"name":"Cylinder.006","primitives":[{"attributes":{"NORMAL":14,"POSITION":13,"TEXCOORD_0":15},"indices":12,"material":0,"mode":4}]},{"name":"Cylinder.007","primitives":[{"attributes":{"NORMAL":18,"POSITION":17,"TEXCOORD_0":19},"indices":16,"material":0,"mode":4}]}],"nodes":[{"children":[1,2,3,4],"mesh":0,"name":"cargo_truck_01","rotation":[0,0,0,1],"scale":[1,1,1],"translation":[14.9454011917114,0,6.40248107910156]},{"mesh":1,"name":"Cylinder.004","rotation":[0,0,0,1],"scale":[1,1,1],"translation":[-0.90707761049271,0.147565513849258,0.421888411045074]},{"mesh":2,"name":"Cylinder.005","rotation":[0,0,0,1],"scale":[1,1,1],"translation":[-0.90707641839981,0.147565513849258,-1.91163086891174]},{"mesh":3,"name":"Cylinder.006","rotation":[0,0,0,1],"scale":[1,1,1],"translation":[0.907076418399811,0.147565513849258,0.421887814998627]},{"mesh":4,"name":"Cylinder.007","rotation":[0,0,0,1],"scale":[1,1,1],"translation":[0.907076418399811,0.147565513849258,-1.91163086891174]}],"samplers":[{}],"scene":0,"scenes":[{"name":"Root Scene","nodes":[0]}],"textures":[{"name":"base_color_texture","sampler":0,"source":0}]}