{"accessors":[{"bufferView":0,"byteOffset":0,"componentType":5123,"count":324,"type":"SCALAR"},{"bufferView":1,"byteOffset":0,"componentType":5126,"count":184,"max":[0.73559159040451,1.71628749370575,0.858143746852875],"min":[-0.98069590330124,0,-0.85814374685287],"type":"VEC3"},{"bufferView":2,"byteOffset":0,"componentType":5126,"count":184,"type":"VEC3"},{"bufferView":3,"byteOffset":0,"componentType":5126,"count":184,"type":"VEC2"}],"asset":{"generator":"FBX2glTF v0.13.1","version":"2.0"},"bufferViews":[{"buffer":0,"byteLength":648,"byteOffset":0,"target":34963},{"buffer":0,"byteLength":2208,"byteOffset":648,"target":34962},{"buffer":0,"byteLength":2208,"byteOffset":2856,"target":34962},{"buffer":0,"byteLength":1472,"byteOffset":5064,"target":34962}],"buffers":[{"byteLength":6536,"uri":"SM_cargo_01.bin"}],"images":[{"name":"Polygon_Texture_vol2","uri":"Polygon_Texture_vol2.png"}],"materials":[{"alphaMode":"OPAQUE","doubleSided":false,"extras":{"fromFBX":{"isTruePBR":false,"shadingModel":"Phong"}},"name":"Material","pbrMetallicRoughness":{"baseColorFactor":[1,1,1,1],"baseColorTexture":{"index":0,"texCoord":0},"metallicFactor":0.400000005960464,"roughnessFactor":0.229415729641914}}],"meshes":[{"name":"cargo_01","primitives":[{"attributes":{"NORMAL":2,"POSITION":1,"TEXCOORD_0":3},"indices":0,"material":0,"mode":4}]}],"nodes":[{"mesh":0,"name":"cargo_01","rotation":[0,0,0,1],"scale":[1,1,1],"translation":[18.5603351593018,-0.41223484277725,-2.44850444793701]}],"samplers":[{}],"scene":0,"scenes":[{"name":"Root Scene","nodes":[0]}],"textures":[{"name":"base_color_texture","sampler":0,"source":0}]}