{"accessors":[{"bufferView":0,"byteOffset":0,"componentType":5123,"count":5100,"type":"SCALAR"},{"bufferView":1,"byteOffset":0,"componentType":5126,"count":2780,"max":[5.96896028518677,8.09370231628418,2.4480185508728],"min":[-7.98218870162964,0,-2.4480185508728],"type":"VEC3"},{"bufferView":2,"byteOffset":0,"componentType":5126,"count":2780,"type":"VEC3"},{"bufferView":3,"byteOffset":0,"componentType":5126,"count":2780,"type":"VEC2"}],"asset":{"generator":"FBX2glTF v0.13.1","version":"2.0"},"bufferViews":[{"buffer":0,"byteLength":10200,"byteOffset":0,"target":34963},{"buffer":0,"byteLength":33360,"byteOffset":10200,"target":34962},{"buffer":0,"byteLength":33360,"byteOffset":43560,"target":34962},{"buffer":0,"byteLength":22240,"byteOffset":76920,"target":34962}],"buffers":[{"byteLength":99160,"uri":"SM_crane_01.bin"}],"images":[{"name":"Polygon_Texture_vol2","uri":"Polygon_Texture_vol2.png"}],"materials":[{"alphaMode":"OPAQUE","doubleSided":false,"extras":{"fromFBX":{"isTruePBR":false,"shadingModel":"Phong"}},"name":"Material","pbrMetallicRoughness":{"baseColorFactor":[1,1,1,1],"baseColorTexture":{"index":0,"texCoord":0},"metallicFactor":0.400000005960464,"roughnessFactor":0.229415729641914}}],"meshes":[{"name":"crane_01","primitives":[{"attributes":{"NORMAL":2,"POSITION":1,"TEXCOORD_0":3},"indices":0,"material":0,"mode":4}]}],"nodes":[{"mesh":0,"name":"crane_01","rotation":[0,0,0,1],"scale":[1,1,1],"translation":[47.6928787231445,0,-0.00000001490116]}],"samplers":[{}],"scene":0,"scenes":[{"name":"Root Scene","nodes":[0]}],"textures":[{"name":"base_color_texture","sampler":0,"source":0}]}