{"accessors":[{"bufferView":0,"byteOffset":0,"componentType":5123,"count":3078,"type":"SCALAR"},{"bufferView":1,"byteOffset":0,"componentType":5126,"count":1981,"max":[3,8.71331977844238,3.01220536231995],"min":[-3,0,-2.9877941608429],"type":"VEC3"},{"bufferView":2,"byteOffset":0,"componentType":5126,"count":1981,"type":"VEC3"},{"bufferView":3,"byteOffset":0,"componentType":5126,"count":1981,"type":"VEC2"}],"asset":{"generator":"FBX2glTF v0.13.1","version":"2.0"},"bufferViews":[{"buffer":0,"byteLength":6156,"byteOffset":0,"target":34963},{"buffer":0,"byteLength":23772,"byteOffset":6156,"target":34962},{"buffer":0,"byteLength":23772,"byteOffset":29928,"target":34962},{"buffer":0,"byteLength":15848,"byteOffset":53700,"target":34962}],"buffers":[{"byteLength":69548,"uri":"SM_cistern_01.bin"}],"images":[{"name":"Polygon_Texture_vol2","uri":"Polygon_Texture_vol2.png"}],"materials":[{"alphaMode":"OPAQUE","doubleSided":false,"extras":{"fromFBX":{"isTruePBR":false,"shadingModel":"Phong"}},"name":"Material","pbrMetallicRoughness":{"baseColorFactor":[1,1,1,1],"baseColorTexture":{"index":0,"texCoord":0},"metallicFactor":0.400000005960464,"roughnessFactor":0.229415729641914}}],"meshes":[{"name":"cistern_01","primitives":[{"attributes":{"NORMAL":2,"POSITION":1,"TEXCOORD_0":3},"indices":0,"material":0,"mode":4}]}],"nodes":[{"mesh":0,"name":"cistern_01","rotation":[0,0,0,1],"scale":[1,1,1],"translation":[59.0103645324707,0,0]}],"samplers":[{}],"scene":0,"scenes":[{"name":"Root Scene","nodes":[0]}],"textures":[{"name":"base_color_texture","sampler":0,"source":0}]}