{"accessors":[{"bufferView":0,"byteOffset":0,"componentType":5123,"count":1938,"type":"SCALAR"},{"bufferView":1,"byteOffset":0,"componentType":5126,"count":1044,"max":[1.05403399467468,2.68851065635681,3],"min":[-0.99999982118607,0,-3.00000023841858],"type":"VEC3"},{"bufferView":2,"byteOffset":0,"componentType":5126,"count":1044,"type":"VEC3"},{"bufferView":3,"byteOffset":0,"componentType":5126,"count":1044,"type":"VEC2"}],"asset":{"generator":"FBX2glTF v0.13.1","version":"2.0"},"bufferViews":[{"buffer":0,"byteLength":3876,"byteOffset":0,"target":34963},{"buffer":0,"byteLength":12528,"byteOffset":3876,"target":34962},{"buffer":0,"byteLength":12528,"byteOffset":16404,"target":34962},{"buffer":0,"byteLength":8352,"byteOffset":28932,"target":34962}],"buffers":[{"byteLength":37284,"uri":"SM_fuel_barrel_01.bin"}],"images":[{"name":"Polygon_Texture_vol2","uri":"Polygon_Texture_vol2.png"}],"materials":[{"alphaMode":"OPAQUE","doubleSided":false,"extras":{"fromFBX":{"isTruePBR":false,"shadingModel":"Phong"}},"name":"Material","pbrMetallicRoughness":{"baseColorFactor":[1,1,1,1],"baseColorTexture":{"index":0,"texCoord":0},"metallicFactor":0.400000005960464,"roughnessFactor":0.229415729641914}}],"meshes":[{"name":"fuel_barrel_01","primitives":[{"attributes":{"NORMAL":2,"POSITION":1,"TEXCOORD_0":3},"indices":0,"material":0,"mode":4}]}],"nodes":[{"mesh":0,"name":"fuel_barrel_01","rotation":[0,0,0,1],"scale":[1,1,1],"translation":[6.50727033615112,0,1]}],"samplers":[{}],"scene":0,"scenes":[{"name":"Root Scene","nodes":[0]}],"textures":[{"name":"base_color_texture","sampler":0,"source":0}]}