{"accessors":[{"bufferView":0,"byteOffset":0,"componentType":5123,"count":2094,"type":"SCALAR"},{"bufferView":1,"byteOffset":0,"componentType":5126,"count":1231,"max":[0.694091141223907,1.35874080657959,1.06877624988556],"min":[-0.69409114122391,-0.46716368198395,-1.14294505119324],"type":"VEC3"},{"bufferView":2,"byteOffset":0,"componentType":5126,"count":1231,"type":"VEC3"},{"bufferView":3,"byteOffset":0,"componentType":5126,"count":1231,"type":"VEC2"},{"bufferView":4,"byteOffset":0,"componentType":5123,"count":216,"type":"SCALAR"},{"bufferView":5,"byteOffset":0,"componentType":5126,"count":132,"max":[0.456919282674789,0.970556437969208,0.533379197120667],"min":[-0.45691928267479,-0.27370443940163,-0.7721803188324],"type":"VEC3"},{"bufferView":6,"byteOffset":0,"componentType":5126,"count":132,"type":"VEC3"},{"bufferView":7,"byteOffset":0,"componentType":5126,"count":132,"type":"VEC2"},{"bufferView":8,"byteOffset":0,"componentType":5123,"count":708,"type":"SCALAR"},{"bufferView":9,"byteOffset":0,"componentType":5126,"count":440,"max":[0.0360540151596069,0.374485820531845,0.3744857609272],"min":[-0.17975483834744,-0.37448555231094,-0.37448534369469],"type":"VEC3"},{"bufferView":10,"byteOffset":0,"componentType":5126,"count":440,"type":"VEC3"},{"bufferView":11,"byteOffset":0,"componentType":5126,"count":440,"type":"VEC2"},{"bufferView":12,"byteOffset":0,"componentType":5123,"count":708,"type":"SCALAR"},{"bufferView":13,"byteOffset":0,"componentType":5126,"count":434,"max":[0.0368669033050537,0.314933806657791,0.314933598041534],"min":[-0.18706899881363,-0.31493389606476,-0.3149339556694],"type":"VEC3"},{"bufferView":14,"byteOffset":0,"componentType":5126,"count":434,"type":"VEC3"},{"bufferView":15,"byteOffset":0,"componentType":5126,"count":434,"type":"VEC2"},{"bufferView":16,"byteOffset":0,"componentType":5123,"count":708,"type":"SCALAR"},{"bufferView":17,"byteOffset":0,"componentType":5126,"count":454,"max":[0.179754734039307,0.374485611915588,0.3744857609272],"min":[-0.0360541343689,-0.37448573112488,-0.37448534369469],"type":"VEC3"},{"bufferView":18,"byteOffset":0,"componentType":5126,"count":454,"type":"VEC3"},{"bufferView":19,"byteOffset":0,"componentType":5126,"count":454,"type":"VEC2"},{"bufferView":20,"byteOffset":0,"componentType":5123,"count":708,"type":"SCALAR"},{"bufferView":21,"byteOffset":0,"componentType":5126,"count":446,"max":[0.187068998813629,0.314933806657791,0.314933598041534],"min":[-0.03686690330505,-0.31493389606476,-0.3149339556694],"type":"VEC3"},{"bufferView":22,"byteOffset":0,"componentType":5126,"count":446,"type":"VEC3"},{"bufferView":23,"byteOffset":0,"componentType":5126,"count":446,"type":"VEC2"}],"asset":{"generator":"FBX2glTF v0.13.1","version":"2.0"},"bufferViews":[{"buffer":0,"byteLength":4188,"byteOffset":0,"target":34963},{"buffer":0,"byteLength":14772,"byteOffset":4188,"target":34962},{"buffer":0,"byteLength":14772,"byteOffset":18960,"target":34962},{"buffer":0,"byteLength":9848,"byteOffset":33732,"target":34962},{"buffer":0,"byteLength":432,"byteOffset":43580,"target":34963},{"buffer":0,"byteLength":1584,"byteOffset":44012,"target":34962},{"buffer":0,"byteLength":1584,"byteOffset":45596,"target":34962},{"buffer":0,"byteLength":1056,"byteOffset":47180,"target":34962},{"buffer":0,"byteLength":1416,"byteOffset":48236,"target":34963},{"buffer":0,"byteLength":5280,"byteOffset":49652,"target":34962},{"buffer":0,"byteLength":5280,"byteOffset":54932,"target":34962},{"buffer":0,"byteLength":3520,"byteOffset":60212,"target":34962},{"buffer":0,"byteLength":1416,"byteOffset":63732,"target":34963},{"buffer":0,"byteLength":5208,"byteOffset":65148,"target":34962},{"buffer":0,"byteLength":5208,"byteOffset":70356,"target":34962},{"buffer":0,"byteLength":3472,"byteOffset":75564,"target":34962},{"buffer":0,"byteLength":1416,"byteOffset":79036,"target":34963},{"buffer":0,"byteLength":5448,"byteOffset":80452,"target":34962},{"buffer":0,"byteLength":5448,"byteOffset":85900,"target":34962},{"buffer":0,"byteLength":3632,"byteOffset":91348,"target":34962},{"buffer":0,"byteLength":1416,"byteOffset":94980,"target":34963},{"buffer":0,"byteLength":5352,"byteOffset":96396,"target":34962},{"buffer":0,"byteLength":5352,"byteOffset":101748,"target":34962},{"buffer":0,"byteLength":3568,"byteOffset":107100,"target":34962}],"buffers":[{"byteLength":110668,"uri":"SM_loader_01.bin"}],"images":[{"name":"Polygon_Texture_vol2","uri":"Polygon_Texture_vol2.png"}],"materials":[{"alphaMode":"OPAQUE","doubleSided":false,"extras":{"fromFBX":{"isTruePBR":false,"shadingModel":"Phong"}},"name":"Material","pbrMetallicRoughness":{"baseColorFactor":[1,1,1,1],"baseColorTexture":{"index":0,"texCoord":0},"metallicFactor":0.400000005960464,"roughnessFactor":0.229415729641914}}],"meshes":[{"name":"loader_01","primitives":[{"attributes":{"NORMAL":2,"POSITION":1,"TEXCOORD_0":3},"indices":0,"material":0,"mode":4}]},{"name":"Cube.005","primitives":[{"attributes":{"NORMAL":6,"POSITION":5,"TEXCOORD_0":7},"indices":4,"material":0,"mode":4}]},{"name":"Cylinder","primitives":[{"attributes":{"NORMAL":10,"POSITION":9,"TEXCOORD_0":11},"indices":8,"material":0,"mode":4}]},{"name":"Cylinder.001","primitives":[{"attributes":{"NORMAL":14,"POSITION":13,"TEXCOORD_0":15},"indices":12,"material":0,"mode":4}]},{"name":"Cylinder.002","primitives":[{"attributes":{"NORMAL":18,"POSITION":17,"TEXCOORD_0":19},"indices":16,"material":0,"mode":4}]},{"name":"Cylinder.003","primitives":[{"attributes":{"NORMAL":22,"POSITION":21,"TEXCOORD_0":23},"indices":20,"material":0,"mode":4}]}],"nodes":[{"children":[1,2,3,4,5],"mesh":0,"name":"loader_01","rotation":[0,0,0,1],"scale":[1,1,1],"translation":[21.0234146118164,0,0]},{"mesh":1,"name":"Cube.005","rotation":[0,0,0,1],"scale":[1,1,1],"translation":[0,-0.25558993220329,-1.67632412910461]},{"mesh":2,"name":"Cylinder","rotation":[0,0,0,1],"scale":[1,1,1],"translation":[0.668046832084656,-0.44984084367752,-0.93183434009552]},{"mesh":3,"name":"Cylinder.001","rotation":[0,0,0,1],"scale":[1,1,1],"translation":[0.675363779067993,-0.50939249992371,0.515481293201447]},{"mesh":4,"name":"Cylinder.002","rotation":[0,0,0,1],"scale":[1,1,1],"translation":[-0.66804563999176,-0.44984066486359,-0.93183434009552]},{"mesh":5,"name":"Cylinder.003","rotation":[0,0,0,1],"scale":[1,1,1],"translation":[-0.67536008358002,-0.50939249992371,0.515481293201447]}],"samplers":[{}],"scene":0,"scenes":[{"name":"Root Scene","nodes":[0]}],"textures":[{"name":"base_color_texture","sampler":0,"source":0}]}