{"accessors":[{"bufferView":0,"byteOffset":0,"componentType":5123,"count":6378,"type":"SCALAR"},{"bufferView":1,"byteOffset":0,"componentType":5126,"count":3958,"max":[2.40748763084412,16.2645435333252,2.54592561721802],"min":[-2.40748763084412,-0.00000000372529,-2.40748739242554],"type":"VEC3"},{"bufferView":2,"byteOffset":0,"componentType":5126,"count":3958,"type":"VEC3"},{"bufferView":3,"byteOffset":0,"componentType":5126,"count":3958,"type":"VEC2"},{"bufferView":4,"byteOffset":0,"componentType":5123,"count":288,"type":"SCALAR"},{"bufferView":5,"byteOffset":0,"componentType":5126,"count":192,"max":[1.01078033447266,13.959644317627,1.01078009605408],"min":[-1.01078021526337,12.7039766311646,-1.01078021526337],"type":"VEC3"},{"bufferView":6,"byteOffset":0,"componentType":5126,"count":192,"type":"VEC3"},{"bufferView":7,"byteOffset":0,"componentType":5126,"count":192,"type":"VEC2"},{"bufferView":8,"byteOffset":0,"componentType":5123,"count":114,"type":"SCALAR"},{"bufferView":9,"byteOffset":0,"componentType":5126,"count":56,"max":[0.295391708612442,10.5596771240234,2.51087188720703],"min":[-0.29539158940315,1.24575304985046,-1.80165112018585],"type":"VEC3"},{"bufferView":10,"byteOffset":0,"componentType":5126,"count":56,"type":"VEC3"},{"bufferView":11,"byteOffset":0,"componentType":5126,"count":56,"type":"VEC2"}],"asset":{"generator":"FBX2glTF v0.13.1","version":"2.0"},"bufferViews":[{"buffer":0,"byteLength":12756,"byteOffset":0,"target":34963},{"buffer":0,"byteLength":47496,"byteOffset":12756,"target":34962},{"buffer":0,"byteLength":47496,"byteOffset":60252,"target":34962},{"buffer":0,"byteLength":31664,"byteOffset":107748,"target":34962},{"buffer":0,"byteLength":576,"byteOffset":139412,"target":34963},{"buffer":0,"byteLength":2304,"byteOffset":139988,"target":34962},{"buffer":0,"byteLength":2304,"byteOffset":142292,"target":34962},{"buffer":0,"byteLength":1536,"byteOffset":144596,"target":34962},{"buffer":0,"byteLength":228,"byteOffset":146132,"target":34963},{"buffer":0,"byteLength":672,"byteOffset":146360,"target":34962},{"buffer":0,"byteLength":672,"byteOffset":147032,"target":34962},{"buffer":0,"byteLength":448,"byteOffset":147704,"target":34962}],"buffers":[{"byteLength":148152,"uri":"SM_Lighthouse_01.bin"}],"images":[{"name":"Polygon_Texture_vol2","uri":"Polygon_Texture_vol2.png"}],"materials":[{"alphaMode":"OPAQUE","doubleSided":false,"extras":{"fromFBX":{"isTruePBR":false,"shadingModel":"Phong"}},"name":"Material","pbrMetallicRoughness":{"baseColorFactor":[1,1,1,1],"baseColorTexture":{"index":0,"texCoord":0},"metallicFactor":0.400000005960464,"roughnessFactor":0.229415729641914}},{"alphaMode":"OPAQUE","doubleSided":false,"extras":{"fromFBX":{"isTruePBR":false,"shadingModel":"Phong"}},"name":"White","pbrMetallicRoughness":{"baseColorFactor":[0.800000011920929,0.800000011920929,0.800000011920929,1],"metallicFactor":0.400000005960464,"roughnessFactor":0.272165536880493}},{"alphaMode":"OPAQUE","doubleSided":false,"extras":{"fromFBX":{"isTruePBR":false,"shadingModel":"Phong"}},"name":"Window","pbrMetallicRoughness":{"baseColorFactor":[0.800000011920929,0.800000011920929,0.800000011920929,1],"metallicFactor":0.400000005960464,"roughnessFactor":0.272165536880493}}],"meshes":[{"name":"Lighthouse_01","primitives":[{"attributes":{"NORMAL":2,"POSITION":1,"TEXCOORD_0":3},"indices":0,"material":0,"mode":4},{"attributes":{"NORMAL":6,"POSITION":5,"TEXCOORD_0":7},"indices":4,"material":1,"mode":4},{"attributes":{"NORMAL":10,"POSITION":9,"TEXCOORD_0":11},"indices":8,"material":2,"mode":4}]}],"nodes":[{"mesh":0,"name":"Lighthouse_01","rotation":[0,0,0,1],"scale":[1,1,1],"translation":[10.9106702804565,0,0]}],"samplers":[{}],"scene":0,"scenes":[{"name":"Root Scene","nodes":[0]}],"textures":[{"name":"base_color_texture","sampler":0,"source":0}]}