{"accessors":[{"bufferView":0,"byteOffset":0,"componentType":5123,"count":462,"type":"SCALAR"},{"bufferView":1,"byteOffset":0,"componentType":5126,"count":284,"max":[0.147182032465935,0.489955544471741,0.147182032465935],"min":[-0.14718203246594,0.0167094003409147,-0.14718203246594],"type":"VEC3"},{"bufferView":2,"byteOffset":0,"componentType":5126,"count":284,"type":"VEC3"},{"bufferView":3,"byteOffset":0,"componentType":5126,"count":284,"type":"VEC2"}],"asset":{"generator":"FBX2glTF v0.13.1","version":"2.0"},"bufferViews":[{"buffer":0,"byteLength":924,"byteOffset":0,"target":34963},{"buffer":0,"byteLength":3408,"byteOffset":924,"target":34962},{"buffer":0,"byteLength":3408,"byteOffset":4332,"target":34962},{"buffer":0,"byteLength":2272,"byteOffset":7740,"target":34962}],"buffers":[{"byteLength":10012,"uri":"SM_pillar_01.bin"}],"images":[{"name":"Polygon_Texture_vol2","uri":"Polygon_Texture_vol2.png"}],"materials":[{"alphaMode":"OPAQUE","doubleSided":false,"extras":{"fromFBX":{"isTruePBR":false,"shadingModel":"Phong"}},"name":"Material","pbrMetallicRoughness":{"baseColorFactor":[1,1,1,1],"baseColorTexture":{"index":0,"texCoord":0},"metallicFactor":0.400000005960464,"roughnessFactor":0.229415729641914}}],"meshes":[{"name":"pillar_01","primitives":[{"attributes":{"NORMAL":2,"POSITION":1,"TEXCOORD_0":3},"indices":0,"material":0,"mode":4}]}],"nodes":[{"mesh":0,"name":"pillar_01","rotation":[0,0,0,1],"scale":[1,1,1],"translation":[63.0973129272461,0,0]}],"samplers":[{}],"scene":0,"scenes":[{"name":"Root Scene","nodes":[0]}],"textures":[{"name":"base_color_texture","sampler":0,"source":0}]}