{"accessors":[{"bufferView":0,"byteOffset":0,"componentType":5123,"count":684,"type":"SCALAR"},{"bufferView":1,"byteOffset":0,"componentType":5126,"count":280,"max":[1,0.0859941840171814,1],"min":[-1,-0.08599418401718,-1],"type":"VEC3"},{"bufferView":2,"byteOffset":0,"componentType":5126,"count":280,"type":"VEC3"},{"bufferView":3,"byteOffset":0,"componentType":5126,"count":280,"type":"VEC2"}],"asset":{"generator":"FBX2glTF v0.13.1","version":"2.0"},"bufferViews":[{"buffer":0,"byteLength":1368,"byteOffset":0,"target":34963},{"buffer":0,"byteLength":3360,"byteOffset":1368,"target":34962},{"buffer":0,"byteLength":3360,"byteOffset":4728,"target":34962},{"buffer":0,"byteLength":2240,"byteOffset":8088,"target":34962}],"buffers":[{"byteLength":10328,"uri":"SM_pallet_01.bin"}],"images":[{"name":"Polygon_Texture_vol2","uri":"Polygon_Texture_vol2.png"}],"materials":[{"alphaMode":"OPAQUE","doubleSided":false,"extras":{"fromFBX":{"isTruePBR":false,"shadingModel":"Phong"}},"name":"Material","pbrMetallicRoughness":{"baseColorFactor":[1,1,1,1],"baseColorTexture":{"index":0,"texCoord":0},"metallicFactor":0.400000005960464,"roughnessFactor":0.229415729641914}}],"meshes":[{"name":"pallet_01","primitives":[{"attributes":{"NORMAL":2,"POSITION":1,"TEXCOORD_0":3},"indices":0,"material":0,"mode":4}]}],"nodes":[{"mesh":0,"name":"pallet_01","rotation":[0,0,0,1],"scale":[1,1,1],"translation":[21.0234146118164,-0.49822902679443,-4.62351036071777]}],"samplers":[{}],"scene":0,"scenes":[{"name":"Root Scene","nodes":[0]}],"textures":[{"name":"base_color_texture","sampler":0,"source":0}]}