{"accessors":[{"bufferView":0,"byteOffset":0,"componentType":5123,"count":3168,"type":"SCALAR"},{"bufferView":1,"byteOffset":0,"componentType":5126,"count":1721,"max":[3,7.45917272567749,12.673602104187],"min":[-3,0.586298704147339,-17.1015586853027],"type":"VEC3"},{"bufferView":2,"byteOffset":0,"componentType":5126,"count":1721,"type":"VEC3"},{"bufferView":3,"byteOffset":0,"componentType":5126,"count":1721,"type":"VEC2"},{"bufferView":4,"byteOffset":0,"componentType":5123,"count":102,"type":"SCALAR"},{"bufferView":5,"byteOffset":0,"componentType":5126,"count":68,"max":[1.46169602870941,6.69749689102173,-8.67225170135498],"min":[-1.46169602870941,4.87689828872681,-13.8999691009521],"type":"VEC3"},{"bufferView":6,"byteOffset":0,"componentType":5126,"count":68,"type":"VEC3"},{"bufferView":7,"byteOffset":0,"componentType":5126,"count":68,"type":"VEC2"}],"asset":{"generator":"FBX2glTF v0.13.1","version":"2.0"},"bufferViews":[{"buffer":0,"byteLength":6336,"byteOffset":0,"target":34963},{"buffer":0,"byteLength":20652,"byteOffset":6336,"target":34962},{"buffer":0,"byteLength":20652,"byteOffset":26988,"target":34962},{"buffer":0,"byteLength":13768,"byteOffset":47640,"target":34962},{"buffer":0,"byteLength":204,"byteOffset":61408,"target":34963},{"buffer":0,"byteLength":816,"byteOffset":61612,"target":34962},{"buffer":0,"byteLength":816,"byteOffset":62428,"target":34962},{"buffer":0,"byteLength":544,"byteOffset":63244,"target":34962}],"buffers":[{"byteLength":63788,"uri":"SM_Ships_01.bin"}],"images":[{"name":"Polygon_Texture_vol2","uri":"Polygon_Texture_vol2.png"}],"materials":[{"alphaMode":"OPAQUE","doubleSided":false,"extras":{"fromFBX":{"isTruePBR":false,"shadingModel":"Phong"}},"name":"Material","pbrMetallicRoughness":{"baseColorFactor":[1,1,1,1],"baseColorTexture":{"index":0,"texCoord":0},"metallicFactor":0.400000005960464,"roughnessFactor":0.229415729641914}},{"alphaMode":"OPAQUE","doubleSided":false,"extras":{"fromFBX":{"isTruePBR":false,"shadingModel":"Phong"}},"name":"Window","pbrMetallicRoughness":{"baseColorFactor":[0.800000011920929,0.800000011920929,0.800000011920929,1],"metallicFactor":0.400000005960464,"roughnessFactor":0.272165536880493}}],"meshes":[{"name":"Ships_01","primitives":[{"attributes":{"NORMAL":2,"POSITION":1,"TEXCOORD_0":3},"indices":0,"material":0,"mode":4},{"attributes":{"NORMAL":6,"POSITION":5,"TEXCOORD_0":7},"indices":4,"material":1,"mode":4}]}],"nodes":[{"mesh":0,"name":"Ships_01","rotation":[0,0,0,1],"scale":[1,1,1],"translation":[34.969367980957,-1.75886332988739,2.10155940055847]}],"samplers":[{}],"scene":0,"scenes":[{"name":"Root Scene","nodes":[0]}],"textures":[{"name":"base_color_texture","sampler":0,"source":0}]}