{"accessors":[{"bufferView":0,"byteOffset":0,"componentType":5123,"count":5754,"type":"SCALAR"},{"bufferView":1,"byteOffset":0,"componentType":5126,"count":3407,"max":[3,8.21541404724121,13.797682762146],"min":[-3,0,-10.3464279174805],"type":"VEC3"},{"bufferView":2,"byteOffset":0,"componentType":5126,"count":3407,"type":"VEC3"},{"bufferView":3,"byteOffset":0,"componentType":5126,"count":3407,"type":"VEC2"},{"bufferView":4,"byteOffset":0,"componentType":5123,"count":486,"type":"SCALAR"},{"bufferView":5,"byteOffset":0,"componentType":5126,"count":324,"max":[2.32596468925476,5.33288908004761,10.0735015869141],"min":[-2.32596468925476,1.8465336561203,-9.39444637298584],"type":"VEC3"},{"bufferView":6,"byteOffset":0,"componentType":5126,"count":324,"type":"VEC3"},{"bufferView":7,"byteOffset":0,"componentType":5126,"count":324,"type":"VEC2"}],"asset":{"generator":"FBX2glTF v0.13.1","version":"2.0"},"bufferViews":[{"buffer":0,"byteLength":11508,"byteOffset":0,"target":34963},{"buffer":0,"byteLength":40884,"byteOffset":11508,"target":34962},{"buffer":0,"byteLength":40884,"byteOffset":52392,"target":34962},{"buffer":0,"byteLength":27256,"byteOffset":93276,"target":34962},{"buffer":0,"byteLength":972,"byteOffset":120532,"target":34963},{"buffer":0,"byteLength":3888,"byteOffset":121504,"target":34962},{"buffer":0,"byteLength":3888,"byteOffset":125392,"target":34962},{"buffer":0,"byteLength":2592,"byteOffset":129280,"target":34962}],"buffers":[{"byteLength":131872,"uri":"SM_Ships_02.bin"}],"images":[{"name":"Polygon_Texture_vol2","uri":"Polygon_Texture_vol2.png"}],"materials":[{"alphaMode":"OPAQUE","doubleSided":false,"extras":{"fromFBX":{"isTruePBR":false,"shadingModel":"Phong"}},"name":"Material","pbrMetallicRoughness":{"baseColorFactor":[1,1,1,1],"baseColorTexture":{"index":0,"texCoord":0},"metallicFactor":0.400000005960464,"roughnessFactor":0.229415729641914}},{"alphaMode":"OPAQUE","doubleSided":false,"extras":{"fromFBX":{"isTruePBR":false,"shadingModel":"Phong"}},"name":"Window","pbrMetallicRoughness":{"baseColorFactor":[0.800000011920929,0.800000011920929,0.800000011920929,1],"metallicFactor":0.400000005960464,"roughnessFactor":0.272165536880493}}],"meshes":[{"name":"Ships_02","primitives":[{"attributes":{"NORMAL":2,"POSITION":1,"TEXCOORD_0":3},"indices":0,"material":0,"mode":4},{"attributes":{"NORMAL":6,"POSITION":5,"TEXCOORD_0":7},"indices":4,"material":1,"mode":4}]}],"nodes":[{"mesh":0,"name":"Ships_02","rotation":[0,0,0,1],"scale":[1,1,1],"translation":[26.4301071166992,0,-1.65357255935669]}],"samplers":[{}],"scene":0,"scenes":[{"name":"Root Scene","nodes":[0]}],"textures":[{"name":"base_color_texture","sampler":0,"source":0}]}