{"accessors":[{"bufferView":0,"byteOffset":0,"componentType":5123,"count":3408,"type":"SCALAR"},{"bufferView":1,"byteOffset":0,"componentType":5126,"count":2088,"max":[1.00000047683716,0.630206346511841,0.127069696784019],"min":[-1.00000023841858,0.0146696921437979,-4.60404872894287],"type":"VEC3"},{"bufferView":2,"byteOffset":0,"componentType":5126,"count":2088,"type":"VEC3"},{"bufferView":3,"byteOffset":0,"componentType":5126,"count":2088,"type":"VEC2"},{"bufferView":4,"byteOffset":0,"componentType":5123,"count":564,"type":"SCALAR"},{"bufferView":5,"byteOffset":0,"componentType":5126,"count":352,"max":[0.211455747485161,0.332371473312378,0.332371890544891],"min":[-0.07947833836079,-0.33237129449844,-0.33237117528915],"type":"VEC3"},{"bufferView":6,"byteOffset":0,"componentType":5126,"count":352,"type":"VEC3"},{"bufferView":7,"byteOffset":0,"componentType":5126,"count":352,"type":"VEC2"},{"bufferView":8,"byteOffset":0,"componentType":5123,"count":564,"type":"SCALAR"},{"bufferView":9,"byteOffset":0,"componentType":5126,"count":352,"max":[0.211455747485161,0.332371473312378,0.332371890544891],"min":[-0.07947833836079,-0.33237129449844,-0.33237117528915],"type":"VEC3"},{"bufferView":10,"byteOffset":0,"componentType":5126,"count":352,"type":"VEC3"},{"bufferView":11,"byteOffset":0,"componentType":5126,"count":352,"type":"VEC2"},{"bufferView":12,"byteOffset":0,"componentType":5123,"count":132,"type":"SCALAR"},{"bufferView":13,"byteOffset":0,"componentType":5126,"count":88,"max":[0.0384462401270866,0.00043984022340737,0.0306307580322027],"min":[-0.03977204114199,-0.68695098161697,-0.03063426725566],"type":"VEC3"},{"bufferView":14,"byteOffset":0,"componentType":5126,"count":88,"type":"VEC3"},{"bufferView":15,"byteOffset":0,"componentType":5126,"count":88,"type":"VEC2"},{"bufferView":16,"byteOffset":0,"componentType":5123,"count":564,"type":"SCALAR"},{"bufferView":17,"byteOffset":0,"componentType":5126,"count":352,"max":[0.211455747485161,0.332371473312378,0.3323715031147],"min":[-0.07947833836079,-0.33237129449844,-0.3323715031147],"type":"VEC3"},{"bufferView":18,"byteOffset":0,"componentType":5126,"count":352,"type":"VEC3"},{"bufferView":19,"byteOffset":0,"componentType":5126,"count":352,"type":"VEC2"},{"bufferView":20,"byteOffset":0,"componentType":5123,"count":564,"type":"SCALAR"},{"bufferView":21,"byteOffset":0,"componentType":5126,"count":352,"max":[0.0794783383607864,0.332371473312378,0.332371860742569],"min":[-0.21145574748516,-0.33237129449844,-0.33237120509148],"type":"VEC3"},{"bufferView":22,"byteOffset":0,"componentType":5126,"count":352,"type":"VEC3"},{"bufferView":23,"byteOffset":0,"componentType":5126,"count":352,"type":"VEC2"},{"bufferView":24,"byteOffset":0,"componentType":5123,"count":564,"type":"SCALAR"},{"bufferView":25,"byteOffset":0,"componentType":5126,"count":352,"max":[0.0794783383607864,0.332371473312378,0.332371860742569],"min":[-0.21145574748516,-0.33237129449844,-0.33237120509148],"type":"VEC3"},{"bufferView":26,"byteOffset":0,"componentType":5126,"count":352,"type":"VEC3"},{"bufferView":27,"byteOffset":0,"componentType":5126,"count":352,"type":"VEC2"},{"bufferView":28,"byteOffset":0,"componentType":5123,"count":132,"type":"SCALAR"},{"bufferView":29,"byteOffset":0,"componentType":5126,"count":88,"max":[0.0397720411419868,0.00043984022340737,0.0306307580322027],"min":[-0.03844624012709,-0.68695098161697,-0.03063426725566],"type":"VEC3"},{"bufferView":30,"byteOffset":0,"componentType":5126,"count":88,"type":"VEC3"},{"bufferView":31,"byteOffset":0,"componentType":5126,"count":88,"type":"VEC2"},{"bufferView":32,"byteOffset":0,"componentType":5123,"count":564,"type":"SCALAR"},{"bufferView":33,"byteOffset":0,"componentType":5126,"count":352,"max":[0.0794783383607864,0.332371473312378,0.332371473312378],"min":[-0.21145574748516,-0.33237129449844,-0.33237156271934],"type":"VEC3"},{"bufferView":34,"byteOffset":0,"componentType":5126,"count":352,"type":"VEC3"},{"bufferView":35,"byteOffset":0,"componentType":5126,"count":352,"type":"VEC2"},{"bufferView":36,"byteOffset":0,"componentType":5123,"count":36,"type":"SCALAR"},{"bufferView":37,"byteOffset":0,"componentType":5126,"count":24,"max":[0.984321415424347,0.6121466755867,-4.5888032913208],"min":[-0.98432105779648,0.516612112522125,-4.5888032913208],"type":"VEC3"},{"bufferView":38,"byteOffset":0,"componentType":5126,"count":24,"type":"VEC3"},{"bufferView":39,"byteOffset":0,"componentType":5126,"count":24,"type":"VEC2"}],"asset":{"generator":"FBX2glTF v0.13.1","version":"2.0"},"bufferViews":[{"buffer":0,"byteLength":6816,"byteOffset":0,"target":34963},{"buffer":0,"byteLength":25056,"byteOffset":6816,"target":34962},{"buffer":0,"byteLength":25056,"byteOffset":31872,"target":34962},{"buffer":0,"byteLength":16704,"byteOffset":56928,"target":34962},{"buffer":0,"byteLength":1128,"byteOffset":73632,"target":34963},{"buffer":0,"byteLength":4224,"byteOffset":74760,"target":34962},{"buffer":0,"byteLength":4224,"byteOffset":78984,"target":34962},{"buffer":0,"byteLength":2816,"byteOffset":83208,"target":34962},{"buffer":0,"byteLength":1128,"byteOffset":86024,"target":34963},{"buffer":0,"byteLength":4224,"byteOffset":87152,"target":34962},{"buffer":0,"byteLength":4224,"byteOffset":91376,"target":34962},{"buffer":0,"byteLength":2816,"byteOffset":95600,"target":34962},{"buffer":0,"byteLength":264,"byteOffset":98416,"target":34963},{"buffer":0,"byteLength":1056,"byteOffset":98680,"target":34962},{"buffer":0,"byteLength":1056,"byteOffset":99736,"target":34962},{"buffer":0,"byteLength":704,"byteOffset":100792,"target":34962},{"buffer":0,"byteLength":1128,"byteOffset":101496,"target":34963},{"buffer":0,"byteLength":4224,"byteOffset":102624,"target":34962},{"buffer":0,"byteLength":4224,"byteOffset":106848,"target":34962},{"buffer":0,"byteLength":2816,"byteOffset":111072,"target":34962},{"buffer":0,"byteLength":1128,"byteOffset":113888,"target":34963},{"buffer":0,"byteLength":4224,"byteOffset":115016,"target":34962},{"buffer":0,"byteLength":4224,"byteOffset":119240,"target":34962},{"buffer":0,"byteLength":2816,"byteOffset":123464,"target":34962},{"buffer":0,"byteLength":1128,"byteOffset":126280,"target":34963},{"buffer":0,"byteLength":4224,"byteOffset":127408,"target":34962},{"buffer":0,"byteLength":4224,"byteOffset":131632,"target":34962},{"buffer":0,"byteLength":2816,"byteOffset":135856,"target":34962},{"buffer":0,"byteLength":264,"byteOffset":138672,"target":34963},{"buffer":0,"byteLength":1056,"byteOffset":138936,"target":34962},{"buffer":0,"byteLength":1056,"byteOffset":139992,"target":34962},{"buffer":0,"byteLength":704,"byteOffset":141048,"target":34962},{"buffer":0,"byteLength":1128,"byteOffset":141752,"target":34963},{"buffer":0,"byteLength":4224,"byteOffset":142880,"target":34962},{"buffer":0,"byteLength":4224,"byteOffset":147104,"target":34962},{"buffer":0,"byteLength":2816,"byteOffset":151328,"target":34962},{"buffer":0,"byteLength":72,"byteOffset":154144,"target":34963},{"buffer":0,"byteLength":288,"byteOffset":154216,"target":34962},{"buffer":0,"byteLength":288,"byteOffset":154504,"target":34962},{"buffer":0,"byteLength":192,"byteOffset":154792,"target":34962}],"buffers":[{"byteLength":154984,"uri":"SM_trailer_02.bin"}],"images":[{"name":"Polygon_Texture_vol2","uri":"Polygon_Texture_vol2.png"}],"materials":[{"alphaMode":"OPAQUE","doubleSided":false,"extras":{"fromFBX":{"isTruePBR":false,"shadingModel":"Phong"}},"name":"Material","pbrMetallicRoughness":{"baseColorFactor":[1,1,1,1],"baseColorTexture":{"index":0,"texCoord":0},"metallicFactor":0.400000005960464,"roughnessFactor":0.229415729641914}},{"alphaMode":"OPAQUE","doubleSided":false,"extras":{"fromFBX":{"isTruePBR":false,"shadingModel":"Phong"}},"name":"Red","pbrMetallicRoughness":{"baseColorFactor":[0.800000011920929,0.800000011920929,0.800000011920929,1],"metallicFactor":0.400000005960464,"roughnessFactor":0.272165536880493}}],"meshes":[{"name":"trailer_02","primitives":[{"attributes":{"NORMAL":2,"POSITION":1,"TEXCOORD_0":3},"indices":0,"material":0,"mode":4},{"attributes":{"NORMAL":38,"POSITION":37,"TEXCOORD_0":39},"indices":36,"material":1,"mode":4}]},{"name":"Cube.002","primitives":[{"attributes":{"NORMAL":6,"POSITION":5,"TEXCOORD_0":7},"indices":4,"material":0,"mode":4}]},{"name":"Cube.008","primitives":[{"attributes":{"NORMAL":10,"POSITION":9,"TEXCOORD_0":11},"indices":8,"material":0,"mode":4}]},{"name":"Cube.009","primitives":[{"attributes":{"NORMAL":14,"POSITION":13,"TEXCOORD_0":15},"indices":12,"material":0,"mode":4}]},{"name":"Cube.010","primitives":[{"attributes":{"NORMAL":18,"POSITION":17,"TEXCOORD_0":19},"indices":16,"material":0,"mode":4}]},{"name":"Cube.011","primitives":[{"attributes":{"NORMAL":22,"POSITION":21,"TEXCOORD_0":23},"indices":20,"material":0,"mode":4}]},{"name":"Cube.012","primitives":[{"attributes":{"NORMAL":26,"POSITION":25,"TEXCOORD_0":27},"indices":24,"material":0,"mode":4}]},{"name":"Cube.013","primitives":[{"attributes":{"NORMAL":30,"POSITION":29,"TEXCOORD_0":31},"indices":28,"material":0,"mode":4}]},{"name":"Cube.014","primitives":[{"attributes":{"NORMAL":34,"POSITION":33,"TEXCOORD_0":35},"indices":32,"material":0,"mode":4}]}],"nodes":[{"children":[1,2,3,4,5,6,7,8],"mesh":0,"name":"trailer_02","rotation":[0,0,0,1],"scale":[1,1,1],"translation":[14.961314201355,0,-4.47175264358521]},{"mesh":1,"name":"Cube.002","rotation":[0,0,0,1],"scale":[1,1,1],"translation":[-0.90707516670227,0.147565513849258,-3.70704030990601]},{"mesh":2,"name":"Cube.008","rotation":[0,0,0,1],"scale":[1,1,1],"translation":[-0.90707516670227,0.147565513849258,-2.93463802337646]},{"mesh":3,"name":"Cube.009","rotation":[0,0,0,1],"scale":[1,1,1],"translation":[-0.57363766431809,0.501406908035278,-0.81569576263428]},{"mesh":4,"name":"Cube.010","rotation":[0,0,0,1],"scale":[1,1,1],"translation":[-0.90707516670227,0.147565513849258,-0.36821776628494]},{"mesh":5,"name":"Cube.011","rotation":[0,0,0,1],"scale":[1,1,1],"translation":[0.907076418399811,0.147565513849258,-3.70704030990601]},{"mesh":6,"name":"Cube.012","rotation":[0,0,0,1],"scale":[1,1,1],"translation":[0.907076418399811,0.147565513849258,-2.93463802337646]},{"mesh":7,"name":"Cube.013","rotation":[0,0,0,1],"scale":[1,1,1],"translation":[0.573637664318085,0.501406908035278,-0.81569576263428]},{"mesh":8,"name":"Cube.014","rotation":[0,0,0,1],"scale":[1,1,1],"translation":[0.907076418399811,0.147565513849258,-0.36821776628494]}],"samplers":[{}],"scene":0,"scenes":[{"name":"Root Scene","nodes":[0]}],"textures":[{"name":"base_color_texture","sampler":0,"source":0}]}