{"accessors":[{"bufferView":0,"byteOffset":0,"componentType":5123,"count":552,"type":"SCALAR"},{"bufferView":1,"byteOffset":0,"componentType":5126,"count":324,"max":[9,2,13],"min":[-9,0,-13],"type":"VEC3"},{"bufferView":2,"byteOffset":0,"componentType":5126,"count":324,"type":"VEC3"},{"bufferView":3,"byteOffset":0,"componentType":5126,"count":324,"type":"VEC2"},{"bufferView":4,"byteOffset":0,"componentType":5123,"count":2904,"type":"SCALAR"},{"bufferView":5,"byteOffset":0,"componentType":5126,"count":1936,"max":[7.26050043106079,1.69213449954987,11.2795581817627],"min":[-7.28651094436646,1.51693964004517,-11.2546148300171],"type":"VEC3"},{"bufferView":6,"byteOffset":0,"componentType":5126,"count":1936,"type":"VEC3"},{"bufferView":7,"byteOffset":0,"componentType":5126,"count":1936,"type":"VEC2"}],"asset":{"generator":"FBX2glTF v0.13.1","version":"2.0"},"bufferViews":[{"buffer":0,"byteLength":1104,"byteOffset":0,"target":34963},{"buffer":0,"byteLength":3888,"byteOffset":1104,"target":34962},{"buffer":0,"byteLength":3888,"byteOffset":4992,"target":34962},{"buffer":0,"byteLength":2592,"byteOffset":8880,"target":34962},{"buffer":0,"byteLength":5808,"byteOffset":11472,"target":34963},{"buffer":0,"byteLength":23232,"byteOffset":17280,"target":34962},{"buffer":0,"byteLength":23232,"byteOffset":40512,"target":34962},{"buffer":0,"byteLength":15488,"byteOffset":63744,"target":34962}],"buffers":[{"byteLength":79232,"uri":"SM_basin_01.bin"}],"images":[{"name":"Polygon_Texture_vol2","uri":"Polygon_Texture_vol2.png"}],"materials":[{"alphaMode":"OPAQUE","doubleSided":false,"extras":{"fromFBX":{"isTruePBR":false,"shadingModel":"Phong"}},"name":"Material","pbrMetallicRoughness":{"baseColorFactor":[1,1,1,1],"baseColorTexture":{"index":0,"texCoord":0},"metallicFactor":0.400000005960464,"roughnessFactor":0.229415729641914}},{"alphaMode":"OPAQUE","doubleSided":false,"extras":{"fromFBX":{"isTruePBR":false,"shadingModel":"Phong"}},"name":"Window","pbrMetallicRoughness":{"baseColorFactor":[0.800000011920929,0.800000011920929,0.800000011920929,1],"metallicFactor":0.400000005960464,"roughnessFactor":0.272165536880493}}],"meshes":[{"name":"basin_01","primitives":[{"attributes":{"NORMAL":2,"POSITION":1,"TEXCOORD_0":3},"indices":0,"material":0,"mode":4},{"attributes":{"NORMAL":6,"POSITION":5,"TEXCOORD_0":7},"indices":4,"material":1,"mode":4}]}],"nodes":[{"mesh":0,"name":"basin_01","rotation":[0,0,0,1],"scale":[1,1,1],"translation":[102.091598510742,0,0]}],"samplers":[{}],"scene":0,"scenes":[{"name":"Root Scene","nodes":[0]}],"textures":[{"name":"base_color_texture","sampler":0,"source":0}]}