{"accessors":[{"bufferView":0,"byteOffset":0,"componentType":5123,"count":1938,"type":"SCALAR"},{"bufferView":1,"byteOffset":0,"componentType":5126,"count":1170,"max":[6,2.24744582176208,8.19639492034912],"min":[-6,-0.1481431722641,-5.80360507965088],"type":"VEC3"},{"bufferView":2,"byteOffset":0,"componentType":5126,"count":1170,"type":"VEC3"},{"bufferView":3,"byteOffset":0,"componentType":5126,"count":1170,"type":"VEC2"},{"bufferView":4,"byteOffset":0,"componentType":5123,"count":1530,"type":"SCALAR"},{"bufferView":5,"byteOffset":0,"componentType":5126,"count":1020,"max":[5.24160194396973,0.949328005313873,5.07003164291382],"min":[-5.24160194396973,0.894013106822968,-5.07003164291382],"type":"VEC3"},{"bufferView":6,"byteOffset":0,"componentType":5126,"count":1020,"type":"VEC3"},{"bufferView":7,"byteOffset":0,"componentType":5126,"count":1020,"type":"VEC2"}],"asset":{"generator":"FBX2glTF v0.13.1","version":"2.0"},"bufferViews":[{"buffer":0,"byteLength":3876,"byteOffset":0,"target":34963},{"buffer":0,"byteLength":14040,"byteOffset":3876,"target":34962},{"buffer":0,"byteLength":14040,"byteOffset":17916,"target":34962},{"buffer":0,"byteLength":9360,"byteOffset":31956,"target":34962},{"buffer":0,"byteLength":3060,"byteOffset":41316,"target":34963},{"buffer":0,"byteLength":12240,"byteOffset":44376,"target":34962},{"buffer":0,"byteLength":12240,"byteOffset":56616,"target":34962},{"buffer":0,"byteLength":8160,"byteOffset":68856,"target":34962}],"buffers":[{"byteLength":77016,"uri":"SM_basin_02.bin"}],"images":[{"name":"Polygon_Texture_vol2","uri":"Polygon_Texture_vol2.png"}],"materials":[{"alphaMode":"OPAQUE","doubleSided":false,"extras":{"fromFBX":{"isTruePBR":false,"shadingModel":"Phong"}},"name":"Material","pbrMetallicRoughness":{"baseColorFactor":[1,1,1,1],"baseColorTexture":{"index":0,"texCoord":0},"metallicFactor":0.400000005960464,"roughnessFactor":0.229415729641914}},{"alphaMode":"OPAQUE","doubleSided":false,"extras":{"fromFBX":{"isTruePBR":false,"shadingModel":"Phong"}},"name":"Window","pbrMetallicRoughness":{"baseColorFactor":[0.800000011920929,0.800000011920929,0.800000011920929,1],"metallicFactor":0.400000005960464,"roughnessFactor":0.272165536880493}}],"meshes":[{"name":"basin_02","primitives":[{"attributes":{"NORMAL":2,"POSITION":1,"TEXCOORD_0":3},"indices":0,"material":0,"mode":4},{"attributes":{"NORMAL":6,"POSITION":5,"TEXCOORD_0":7},"indices":4,"material":1,"mode":4}]}],"nodes":[{"mesh":0,"name":"basin_02","rotation":[0,0,0,1],"scale":[1,1,1],"translation":[85.8631134033203,0,-0.00000005960464]}],"samplers":[{}],"scene":0,"scenes":[{"name":"Root Scene","nodes":[0]}],"textures":[{"name":"base_color_texture","sampler":0,"source":0}]}