{"accessors":[{"bufferView":0,"byteOffset":0,"componentType":5123,"count":1416,"type":"SCALAR"},{"bufferView":1,"byteOffset":0,"componentType":5126,"count":888,"max":[11,36,11],"min":[-11,-0.00000023841858,-11],"type":"VEC3"},{"bufferView":2,"byteOffset":0,"componentType":5126,"count":888,"type":"VEC3"},{"bufferView":3,"byteOffset":0,"componentType":5126,"count":888,"type":"VEC2"}],"asset":{"generator":"FBX2glTF v0.13.1","version":"2.0"},"bufferViews":[{"buffer":0,"byteLength":2832,"byteOffset":0,"target":34963},{"buffer":0,"byteLength":10656,"byteOffset":2832,"target":34962},{"buffer":0,"byteLength":10656,"byteOffset":13488,"target":34962},{"buffer":0,"byteLength":7104,"byteOffset":24144,"target":34962}],"buffers":[{"byteLength":31248,"uri":"SM_CHIMNEY_02.bin"}],"images":[{"name":"Polygon_Texture_vol2","uri":"Polygon_Texture_vol2.png"}],"materials":[{"alphaMode":"OPAQUE","doubleSided":false,"extras":{"fromFBX":{"isTruePBR":false,"shadingModel":"Phong"}},"name":"Material","pbrMetallicRoughness":{"baseColorFactor":[1,1,1,1],"baseColorTexture":{"index":0,"texCoord":0},"metallicFactor":0.400000005960464,"roughnessFactor":0.229415729641914}}],"meshes":[{"name":"CHIMNEY_02","primitives":[{"attributes":{"NORMAL":2,"POSITION":1,"TEXCOORD_0":3},"indices":0,"material":0,"mode":4}]}],"nodes":[{"mesh":0,"name":"CHIMNEY_02","rotation":[0,0,0,1],"scale":[1,1,1],"translation":[178.92546081543,0.000000238418579101562,0]}],"samplers":[{}],"scene":0,"scenes":[{"name":"Root Scene","nodes":[0]}],"textures":[{"name":"base_color_texture","sampler":0,"source":0}]}