{"accessors":[{"bufferView":0,"byteOffset":0,"componentType":5123,"count":9720,"type":"SCALAR"},{"bufferView":1,"byteOffset":0,"componentType":5126,"count":6404,"max":[3.16469287872314,34,3.16469287872314],"min":[-3.16469287872314,-0.0012264251709,-3.16469287872314],"type":"VEC3"},{"bufferView":2,"byteOffset":0,"componentType":5126,"count":6404,"type":"VEC3"},{"bufferView":3,"byteOffset":0,"componentType":5126,"count":6404,"type":"VEC2"}],"asset":{"generator":"FBX2glTF v0.13.1","version":"2.0"},"bufferViews":[{"buffer":0,"byteLength":19440,"byteOffset":0,"target":34963},{"buffer":0,"byteLength":76848,"byteOffset":19440,"target":34962},{"buffer":0,"byteLength":76848,"byteOffset":96288,"target":34962},{"buffer":0,"byteLength":51232,"byteOffset":173136,"target":34962}],"buffers":[{"byteLength":224368,"uri":"SM_CHIMNEY_01.bin"}],"images":[{"name":"Polygon_Texture_vol2","uri":"Polygon_Texture_vol2.png"}],"materials":[{"alphaMode":"OPAQUE","doubleSided":false,"extras":{"fromFBX":{"isTruePBR":false,"shadingModel":"Phong"}},"name":"Material","pbrMetallicRoughness":{"baseColorFactor":[1,1,1,1],"baseColorTexture":{"index":0,"texCoord":0},"metallicFactor":0.400000005960464,"roughnessFactor":0.229415729641914}}],"meshes":[{"name":"CHIMNEY_01","primitives":[{"attributes":{"NORMAL":2,"POSITION":1,"TEXCOORD_0":3},"indices":0,"material":0,"mode":4}]}],"nodes":[{"mesh":0,"name":"CHIMNEY_01","rotation":[0,0,0,1],"scale":[1,1,1],"translation":[193.757965087891,0,0]}],"samplers":[{}],"scene":0,"scenes":[{"name":"Root Scene","nodes":[0]}],"textures":[{"name":"base_color_texture","sampler":0,"source":0}]}