{"accessors":[{"bufferView":0,"byteOffset":0,"componentType":5123,"count":456,"type":"SCALAR"},{"bufferView":1,"byteOffset":0,"componentType":5126,"count":298,"max":[2.00000071525574,3,3.35261631011963],"min":[-2.00000071525574,0,-2.00000071525574],"type":"VEC3"},{"bufferView":2,"byteOffset":0,"componentType":5126,"count":298,"type":"VEC3"},{"bufferView":3,"byteOffset":0,"componentType":5126,"count":298,"type":"VEC2"},{"bufferView":4,"byteOffset":0,"componentType":5123,"count":12,"type":"SCALAR"},{"bufferView":5,"byteOffset":0,"componentType":5126,"count":8,"max":[1.8966623544693,2.39597344398499,1.07769477367401],"min":[-1.07769596576691,1.15598917007446,-1.8966623544693],"type":"VEC3"},{"bufferView":6,"byteOffset":0,"componentType":5126,"count":8,"type":"VEC3"},{"bufferView":7,"byteOffset":0,"componentType":5126,"count":8,"type":"VEC2"}],"asset":{"generator":"FBX2glTF v0.13.1","version":"2.0"},"bufferViews":[{"buffer":0,"byteLength":912,"byteOffset":0,"target":34963},{"buffer":0,"byteLength":3576,"byteOffset":912,"target":34962},{"buffer":0,"byteLength":3576,"byteOffset":4488,"target":34962},{"buffer":0,"byteLength":2384,"byteOffset":8064,"target":34962},{"buffer":0,"byteLength":24,"byteOffset":10448,"target":34963},{"buffer":0,"byteLength":96,"byteOffset":10472,"target":34962},{"buffer":0,"byteLength":96,"byteOffset":10568,"target":34962},{"buffer":0,"byteLength":64,"byteOffset":10664,"target":34962}],"buffers":[{"byteLength":10728,"uri":"SM_checkpoint_01.bin"}],"images":[{"name":"Polygon_Texture_vol2","uri":"Polygon_Texture_vol2.png"}],"materials":[{"alphaMode":"OPAQUE","doubleSided":false,"extras":{"fromFBX":{"isTruePBR":false,"shadingModel":"Phong"}},"name":"Material","pbrMetallicRoughness":{"baseColorFactor":[1,1,1,1],"baseColorTexture":{"index":0,"texCoord":0},"metallicFactor":0.400000005960464,"roughnessFactor":0.229415729641914}},{"alphaMode":"OPAQUE","doubleSided":false,"extras":{"fromFBX":{"isTruePBR":false,"shadingModel":"Phong"}},"name":"Window","pbrMetallicRoughness":{"baseColorFactor":[0.800000011920929,0.800000011920929,0.800000011920929,1],"metallicFactor":0.400000005960464,"roughnessFactor":0.272165536880493}}],"meshes":[{"name":"checkpoint_01","primitives":[{"attributes":{"NORMAL":2,"POSITION":1,"TEXCOORD_0":3},"indices":0,"material":0,"mode":4},{"attributes":{"NORMAL":6,"POSITION":5,"TEXCOORD_0":7},"indices":4,"material":1,"mode":4}]}],"nodes":[{"mesh":0,"name":"checkpoint_01","rotation":[0,0,0,1],"scale":[1,1,1],"translation":[72.3282012939453,0,0]}],"samplers":[{}],"scene":0,"scenes":[{"name":"Root Scene","nodes":[0]}],"textures":[{"name":"base_color_texture","sampler":0,"source":0}]}