{"accessors":[{"bufferView":0,"byteOffset":0,"componentType":5123,"count":1410,"type":"SCALAR"},{"bufferView":1,"byteOffset":0,"componentType":5126,"count":838,"max":[2.06791734695435,5.76122522354126,3],"min":[-2.06791734695435,-0.00141570356209,-4.71644306182861],"type":"VEC3"},{"bufferView":2,"byteOffset":0,"componentType":5126,"count":838,"type":"VEC3"},{"bufferView":3,"byteOffset":0,"componentType":5126,"count":838,"type":"VEC2"},{"bufferView":4,"byteOffset":0,"componentType":5123,"count":30,"type":"SCALAR"},{"bufferView":5,"byteOffset":0,"componentType":5126,"count":20,"max":[1.99999952316284,3.34139513969421,2.77873158454895],"min":[-1.99999952316284,1.46651887893677,-2.34004831314087],"type":"VEC3"},{"bufferView":6,"byteOffset":0,"componentType":5126,"count":20,"type":"VEC3"},{"bufferView":7,"byteOffset":0,"componentType":5126,"count":20,"type":"VEC2"}],"asset":{"generator":"FBX2glTF v0.13.1","version":"2.0"},"bufferViews":[{"buffer":0,"byteLength":2820,"byteOffset":0,"target":34963},{"buffer":0,"byteLength":10056,"byteOffset":2820,"target":34962},{"buffer":0,"byteLength":10056,"byteOffset":12876,"target":34962},{"buffer":0,"byteLength":6704,"byteOffset":22932,"target":34962},{"buffer":0,"byteLength":60,"byteOffset":29636,"target":34963},{"buffer":0,"byteLength":240,"byteOffset":29696,"target":34962},{"buffer":0,"byteLength":240,"byteOffset":29936,"target":34962},{"buffer":0,"byteLength":160,"byteOffset":30176,"target":34962}],"buffers":[{"byteLength":30336,"uri":"SM_distribution_point_01.bin"}],"images":[{"name":"Polygon_Texture_vol2","uri":"Polygon_Texture_vol2.png"}],"materials":[{"alphaMode":"OPAQUE","doubleSided":false,"extras":{"fromFBX":{"isTruePBR":false,"shadingModel":"Phong"}},"name":"Material","pbrMetallicRoughness":{"baseColorFactor":[1,1,1,1],"baseColorTexture":{"index":0,"texCoord":0},"metallicFactor":0.400000005960464,"roughnessFactor":0.229415729641914}},{"alphaMode":"OPAQUE","doubleSided":false,"extras":{"fromFBX":{"isTruePBR":false,"shadingModel":"Phong"}},"name":"Window","pbrMetallicRoughness":{"baseColorFactor":[0.800000011920929,0.800000011920929,0.800000011920929,1],"metallicFactor":0.400000005960464,"roughnessFactor":0.272165536880493}}],"meshes":[{"name":"distribution_point_01","primitives":[{"attributes":{"NORMAL":2,"POSITION":1,"TEXCOORD_0":3},"indices":0,"material":0,"mode":4},{"attributes":{"NORMAL":6,"POSITION":5,"TEXCOORD_0":7},"indices":4,"material":1,"mode":4}]}],"nodes":[{"mesh":0,"name":"distribution_point_01","rotation":[0,0,0,1],"scale":[1,1,1],"translation":[142.654876708984,0,0]}],"samplers":[{}],"scene":0,"scenes":[{"name":"Root Scene","nodes":[0]}],"textures":[{"name":"base_color_texture","sampler":0,"source":0}]}