{"accessors":[{"bufferView":0,"byteOffset":0,"componentType":5123,"count":6804,"type":"SCALAR"},{"bufferView":1,"byteOffset":0,"componentType":5126,"count":4486,"max":[1.14551198482513,3.93932271003723,1.2036440372467],"min":[-1.15008795261383,0,-1.16505885124207],"type":"VEC3"},{"bufferView":2,"byteOffset":0,"componentType":5126,"count":4486,"type":"VEC3"},{"bufferView":3,"byteOffset":0,"componentType":5126,"count":4486,"type":"VEC2"}],"asset":{"generator":"FBX2glTF v0.13.1","version":"2.0"},"bufferViews":[{"buffer":0,"byteLength":13608,"byteOffset":0,"target":34963},{"buffer":0,"byteLength":53832,"byteOffset":13608,"target":34962},{"buffer":0,"byteLength":53832,"byteOffset":67440,"target":34962},{"buffer":0,"byteLength":35888,"byteOffset":121272,"target":34962}],"buffers":[{"byteLength":157160,"uri":"SM_electric_coil_02.bin"}],"images":[{"name":"Polygon_Texture_vol2","uri":"Polygon_Texture_vol2.png"}],"materials":[{"alphaMode":"OPAQUE","doubleSided":false,"extras":{"fromFBX":{"isTruePBR":false,"shadingModel":"Phong"}},"name":"Material","pbrMetallicRoughness":{"baseColorFactor":[1,1,1,1],"baseColorTexture":{"index":0,"texCoord":0},"metallicFactor":0.400000005960464,"roughnessFactor":0.229415729641914}}],"meshes":[{"name":"electric_coil_02","primitives":[{"attributes":{"NORMAL":2,"POSITION":1,"TEXCOORD_0":3},"indices":0,"material":0,"mode":4}]}],"nodes":[{"mesh":0,"name":"electric_coil_02","rotation":[0,0,0,1],"scale":[1,1,1],"translation":[30.6011352539062,0,0]}],"samplers":[{}],"scene":0,"scenes":[{"name":"Root Scene","nodes":[0]}],"textures":[{"name":"base_color_texture","sampler":0,"source":0}]}