{"accessors":[{"bufferView":0,"byteOffset":0,"componentType":5123,"count":312,"type":"SCALAR"},{"bufferView":1,"byteOffset":0,"componentType":5126,"count":200,"max":[1.00000023841858,41.4164886474609,2.14135599136353],"min":[-1,0,-5.28196144104004],"type":"VEC3"},{"bufferView":2,"byteOffset":0,"componentType":5126,"count":200,"type":"VEC3"},{"bufferView":3,"byteOffset":0,"componentType":5126,"count":200,"type":"VEC2"},{"bufferView":4,"byteOffset":0,"componentType":5123,"count":360,"type":"SCALAR"},{"bufferView":5,"byteOffset":0,"componentType":5126,"count":216,"max":[10.1622076034546,13.218692779541,0.0857547745108604],"min":[-12.1488971710205,-8.69338989257812,-0.08575749397278],"type":"VEC3"},{"bufferView":6,"byteOffset":0,"componentType":5126,"count":216,"type":"VEC3"},{"bufferView":7,"byteOffset":0,"componentType":5126,"count":216,"type":"VEC2"}],"asset":{"generator":"FBX2glTF v0.13.1","version":"2.0"},"bufferViews":[{"buffer":0,"byteLength":624,"byteOffset":0,"target":34963},{"buffer":0,"byteLength":2400,"byteOffset":624,"target":34962},{"buffer":0,"byteLength":2400,"byteOffset":3024,"target":34962},{"buffer":0,"byteLength":1600,"byteOffset":5424,"target":34962},{"buffer":0,"byteLength":720,"byteOffset":7024,"target":34963},{"buffer":0,"byteLength":2592,"byteOffset":7744,"target":34962},{"buffer":0,"byteLength":2592,"byteOffset":10336,"target":34962},{"buffer":0,"byteLength":1728,"byteOffset":12928,"target":34962}],"buffers":[{"byteLength":14656,"uri":"SM_electric_wind_turbine_01.bin"}],"images":[{"name":"Polygon_Texture_vol2","uri":"Polygon_Texture_vol2.png"}],"materials":[{"alphaMode":"OPAQUE","doubleSided":false,"extras":{"fromFBX":{"isTruePBR":false,"shadingModel":"Phong"}},"name":"Material","pbrMetallicRoughness":{"baseColorFactor":[1,1,1,1],"baseColorTexture":{"index":0,"texCoord":0},"metallicFactor":0.400000005960464,"roughnessFactor":0.229415729641914}}],"meshes":[{"name":"electric_wind_turbine_01","primitives":[{"attributes":{"NORMAL":2,"POSITION":1,"TEXCOORD_0":3},"indices":0,"material":0,"mode":4}]},{"name":"Plane","primitives":[{"attributes":{"NORMAL":6,"POSITION":5,"TEXCOORD_0":7},"indices":4,"material":0,"mode":4}]}],"nodes":[{"children":[1],"mesh":0,"name":"electric_wind_turbine_01","rotation":[0,0,0,1],"scale":[1,1,1],"translation":[27.2906265258789,0,0]},{"mesh":1,"name":"Plane","rotation":[0,0,0,1],"scale":[1,1,1],"translation":[-0.02278320305049,40.4115142822266,1.89193212985992]}],"samplers":[{}],"scene":0,"scenes":[{"name":"Root Scene","nodes":[0]}],"textures":[{"name":"base_color_texture","sampler":0,"source":0}]}