{"accessors":[{"bufferView":0,"byteOffset":0,"componentType":5123,"count":8604,"type":"SCALAR"},{"bufferView":1,"byteOffset":0,"componentType":5126,"count":5564,"max":[1.36462998390198,3.87591147422791,1.90192329883575],"min":[-1.36462998390198,0,-2.66591238975525],"type":"VEC3"},{"bufferView":2,"byteOffset":0,"componentType":5126,"count":5564,"type":"VEC3"},{"bufferView":3,"byteOffset":0,"componentType":5126,"count":5564,"type":"VEC2"}],"asset":{"generator":"FBX2glTF v0.13.1","version":"2.0"},"bufferViews":[{"buffer":0,"byteLength":17208,"byteOffset":0,"target":34963},{"buffer":0,"byteLength":66768,"byteOffset":17208,"target":34962},{"buffer":0,"byteLength":66768,"byteOffset":83976,"target":34962},{"buffer":0,"byteLength":44512,"byteOffset":150744,"target":34962}],"buffers":[{"byteLength":195256,"uri":"SM_electric_coil_01.bin"}],"images":[{"name":"Polygon_Texture_vol2","uri":"Polygon_Texture_vol2.png"}],"materials":[{"alphaMode":"OPAQUE","doubleSided":false,"extras":{"fromFBX":{"isTruePBR":false,"shadingModel":"Phong"}},"name":"Material","pbrMetallicRoughness":{"baseColorFactor":[1,1,1,1],"baseColorTexture":{"index":0,"texCoord":0},"metallicFactor":0.400000005960464,"roughnessFactor":0.229415729641914}}],"meshes":[{"name":"electric_coil_01","primitives":[{"attributes":{"NORMAL":2,"POSITION":1,"TEXCOORD_0":3},"indices":0,"material":0,"mode":4}]}],"nodes":[{"mesh":0,"name":"electric_coil_01","rotation":[0,0,0,1],"scale":[1,1,1],"translation":[34.6069984436035,0,2.3813111782074]}],"samplers":[{}],"scene":0,"scenes":[{"name":"Root Scene","nodes":[0]}],"textures":[{"name":"base_color_texture","sampler":0,"source":0}]}