{"accessors":[{"bufferView":0,"byteOffset":0,"componentType":5123,"count":276,"type":"SCALAR"},{"bufferView":1,"byteOffset":0,"componentType":5126,"count":156,"max":[0.149897992610931,0.150163620710373,0.999870896339417],"min":[-0.14989796280861,-0.14963234961033,-0.99987089633942],"type":"VEC3"},{"bufferView":2,"byteOffset":0,"componentType":5126,"count":156,"type":"VEC3"},{"bufferView":3,"byteOffset":0,"componentType":5126,"count":156,"type":"VEC2"}],"asset":{"generator":"FBX2glTF v0.13.1","version":"2.0"},"bufferViews":[{"buffer":0,"byteLength":552,"byteOffset":0,"target":34963},{"buffer":0,"byteLength":1872,"byteOffset":552,"target":34962},{"buffer":0,"byteLength":1872,"byteOffset":2424,"target":34962},{"buffer":0,"byteLength":1248,"byteOffset":4296,"target":34962}],"buffers":[{"byteLength":5544,"uri":"SM_gas_pipeline_05.bin"}],"images":[{"name":"Polygon_Texture_vol2","uri":"Polygon_Texture_vol2.png"}],"materials":[{"alphaMode":"OPAQUE","doubleSided":false,"extras":{"fromFBX":{"isTruePBR":false,"shadingModel":"Phong"}},"name":"Material","pbrMetallicRoughness":{"baseColorFactor":[1,1,1,1],"baseColorTexture":{"index":0,"texCoord":0},"metallicFactor":0.400000005960464,"roughnessFactor":0.229415729641914}}],"meshes":[{"name":"gas_pipeline_05","primitives":[{"attributes":{"NORMAL":2,"POSITION":1,"TEXCOORD_0":3},"indices":0,"material":0,"mode":4}]}],"nodes":[{"mesh":0,"name":"gas_pipeline_05","rotation":[0,0,0,1],"scale":[1,1,1],"translation":[15.4499425888062,0.402546674013138,0.252726316452026]}],"samplers":[{}],"scene":0,"scenes":[{"name":"Root Scene","nodes":[0]}],"textures":[{"name":"base_color_texture","sampler":0,"source":0}]}