{"accessors":[{"bufferView":0,"byteOffset":0,"componentType":5123,"count":780,"type":"SCALAR"},{"bufferView":1,"byteOffset":0,"componentType":5126,"count":490,"max":[0.170117005705833,0.297202229499817,0.444462776184082],"min":[-0.17011664807797,-0.24777382612228,-0.21321776509285],"type":"VEC3"},{"bufferView":2,"byteOffset":0,"componentType":5126,"count":490,"type":"VEC3"},{"bufferView":3,"byteOffset":0,"componentType":5126,"count":490,"type":"VEC2"}],"asset":{"generator":"FBX2glTF v0.13.1","version":"2.0"},"bufferViews":[{"buffer":0,"byteLength":1560,"byteOffset":0,"target":34963},{"buffer":0,"byteLength":5880,"byteOffset":1560,"target":34962},{"buffer":0,"byteLength":5880,"byteOffset":7440,"target":34962},{"buffer":0,"byteLength":3920,"byteOffset":13320,"target":34962}],"buffers":[{"byteLength":17240,"uri":"SM_gas_pipeline_03.bin"}],"images":[{"name":"Polygon_Texture_vol2","uri":"Polygon_Texture_vol2.png"}],"materials":[{"alphaMode":"OPAQUE","doubleSided":false,"extras":{"fromFBX":{"isTruePBR":false,"shadingModel":"Phong"}},"name":"Material","pbrMetallicRoughness":{"baseColorFactor":[1,1,1,1],"baseColorTexture":{"index":0,"texCoord":0},"metallicFactor":0.400000005960464,"roughnessFactor":0.229415729641914}}],"meshes":[{"name":"gas_pipeline_03","primitives":[{"attributes":{"NORMAL":2,"POSITION":1,"TEXCOORD_0":3},"indices":0,"material":0,"mode":4}]}],"nodes":[{"mesh":0,"name":"gas_pipeline_03","rotation":[0,0,0,1],"scale":[1,1,1],"translation":[15.8396100997925,0.273881018161774,1.79481971263885]}],"samplers":[{}],"scene":0,"scenes":[{"name":"Root Scene","nodes":[0]}],"textures":[{"name":"base_color_texture","sampler":0,"source":0}]}