{"accessors":[{"bufferView":0,"byteOffset":0,"componentType":5123,"count":564,"type":"SCALAR"},{"bufferView":1,"byteOffset":0,"componentType":5126,"count":360,"max":[0.168270826339722,0.168549090623856,0.999874949455261],"min":[-0.16827094554901,-0.16799266636372,-0.99987500905991],"type":"VEC3"},{"bufferView":2,"byteOffset":0,"componentType":5126,"count":360,"type":"VEC3"},{"bufferView":3,"byteOffset":0,"componentType":5126,"count":360,"type":"VEC2"}],"asset":{"generator":"FBX2glTF v0.13.1","version":"2.0"},"bufferViews":[{"buffer":0,"byteLength":1128,"byteOffset":0,"target":34963},{"buffer":0,"byteLength":4320,"byteOffset":1128,"target":34962},{"buffer":0,"byteLength":4320,"byteOffset":5448,"target":34962},{"buffer":0,"byteLength":2880,"byteOffset":9768,"target":34962}],"buffers":[{"byteLength":12648,"uri":"SM_gas_pipeline_02.bin"}],"images":[{"name":"Polygon_Texture_vol2","uri":"Polygon_Texture_vol2.png"}],"materials":[{"alphaMode":"OPAQUE","doubleSided":false,"extras":{"fromFBX":{"isTruePBR":false,"shadingModel":"Phong"}},"name":"Material","pbrMetallicRoughness":{"baseColorFactor":[1,1,1,1],"baseColorTexture":{"index":0,"texCoord":0},"metallicFactor":0.400000005960464,"roughnessFactor":0.229415729641914}}],"meshes":[{"name":"gas_pipeline_02","primitives":[{"attributes":{"NORMAL":2,"POSITION":1,"TEXCOORD_0":3},"indices":0,"material":0,"mode":4}]}],"nodes":[{"mesh":0,"name":"gas_pipeline_02","rotation":[0,0,0,1],"scale":[1,1,1],"translation":[15.8020162582397,0.402534127235413,0.252725124359131]}],"samplers":[{}],"scene":0,"scenes":[{"name":"Root Scene","nodes":[0]}],"textures":[{"name":"base_color_texture","sampler":0,"source":0}]}