{"accessors":[{"bufferView":0,"byteOffset":0,"componentType":5123,"count":9564,"type":"SCALAR"},{"bufferView":1,"byteOffset":0,"componentType":5126,"count":6098,"max":[3.09147357940674,12.0455379486084,5.12156105041504],"min":[-3.09147357940674,-0.00000004784063,-3.09147357940674],"type":"VEC3"},{"bufferView":2,"byteOffset":0,"componentType":5126,"count":6098,"type":"VEC3"},{"bufferView":3,"byteOffset":0,"componentType":5126,"count":6098,"type":"VEC2"},{"bufferView":4,"byteOffset":0,"componentType":5123,"count":96,"type":"SCALAR"},{"bufferView":5,"byteOffset":0,"componentType":5126,"count":64,"max":[2.85893487930298,5.24937105178833,2.85893511772156],"min":[-2.85893511772156,2.20564293861389,-2.85893511772156],"type":"VEC3"},{"bufferView":6,"byteOffset":0,"componentType":5126,"count":64,"type":"VEC3"},{"bufferView":7,"byteOffset":0,"componentType":5126,"count":64,"type":"VEC2"}],"asset":{"generator":"FBX2glTF v0.13.1","version":"2.0"},"bufferViews":[{"buffer":0,"byteLength":19128,"byteOffset":0,"target":34963},{"buffer":0,"byteLength":73176,"byteOffset":19128,"target":34962},{"buffer":0,"byteLength":73176,"byteOffset":92304,"target":34962},{"buffer":0,"byteLength":48784,"byteOffset":165480,"target":34962},{"buffer":0,"byteLength":192,"byteOffset":214264,"target":34963},{"buffer":0,"byteLength":768,"byteOffset":214456,"target":34962},{"buffer":0,"byteLength":768,"byteOffset":215224,"target":34962},{"buffer":0,"byteLength":512,"byteOffset":215992,"target":34962}],"buffers":[{"byteLength":216504,"uri":"SM_locating_dish_01.bin"}],"images":[{"name":"Polygon_Texture_vol2","uri":"Polygon_Texture_vol2.png"}],"materials":[{"alphaMode":"OPAQUE","doubleSided":false,"extras":{"fromFBX":{"isTruePBR":false,"shadingModel":"Phong"}},"name":"Material","pbrMetallicRoughness":{"baseColorFactor":[1,1,1,1],"baseColorTexture":{"index":0,"texCoord":0},"metallicFactor":0.400000005960464,"roughnessFactor":0.229415729641914}},{"alphaMode":"OPAQUE","doubleSided":false,"extras":{"fromFBX":{"isTruePBR":false,"shadingModel":"Phong"}},"name":"Window","pbrMetallicRoughness":{"baseColorFactor":[0.800000011920929,0.800000011920929,0.800000011920929,1],"metallicFactor":0.400000005960464,"roughnessFactor":0.272165536880493}}],"meshes":[{"name":"locating_dish_01","primitives":[{"attributes":{"NORMAL":2,"POSITION":1,"TEXCOORD_0":3},"indices":0,"material":0,"mode":4},{"attributes":{"NORMAL":6,"POSITION":5,"TEXCOORD_0":7},"indices":4,"material":1,"mode":4}]}],"nodes":[{"mesh":0,"name":"locating_dish_01","rotation":[0,0,0,1],"scale":[0.970411002635956,1,0.974061250686646],"translation":[10.5544872283936,0,0]}],"samplers":[{}],"scene":0,"scenes":[{"name":"Root Scene","nodes":[0]}],"textures":[{"name":"base_color_texture","sampler":0,"source":0}]}