{"accessors":[{"bufferView":0,"byteOffset":0,"componentType":5123,"count":4230,"type":"SCALAR"},{"bufferView":1,"byteOffset":0,"componentType":5126,"count":2754,"max":[5.51839303970337,8.87878131866455,3.36626148223877],"min":[-7.30442142486572,0,-3.36626148223877],"type":"VEC3"},{"bufferView":2,"byteOffset":0,"componentType":5126,"count":2754,"type":"VEC3"},{"bufferView":3,"byteOffset":0,"componentType":5126,"count":2754,"type":"VEC2"},{"bufferView":4,"byteOffset":0,"componentType":5123,"count":36,"type":"SCALAR"},{"bufferView":5,"byteOffset":0,"componentType":5126,"count":24,"max":[4.69304084777832,4.80084228515625,2.96175765991211],"min":[-5.50368881225586,1.16776490211487,-2.33377885818481],"type":"VEC3"},{"bufferView":6,"byteOffset":0,"componentType":5126,"count":24,"type":"VEC3"},{"bufferView":7,"byteOffset":0,"componentType":5126,"count":24,"type":"VEC2"}],"asset":{"generator":"FBX2glTF v0.13.1","version":"2.0"},"bufferViews":[{"buffer":0,"byteLength":8460,"byteOffset":0,"target":34963},{"buffer":0,"byteLength":33048,"byteOffset":8460,"target":34962},{"buffer":0,"byteLength":33048,"byteOffset":41508,"target":34962},{"buffer":0,"byteLength":22032,"byteOffset":74556,"target":34962},{"buffer":0,"byteLength":72,"byteOffset":96588,"target":34963},{"buffer":0,"byteLength":288,"byteOffset":96660,"target":34962},{"buffer":0,"byteLength":288,"byteOffset":96948,"target":34962},{"buffer":0,"byteLength":192,"byteOffset":97236,"target":34962}],"buffers":[{"byteLength":97428,"uri":"SM_locating_dish_02.bin"}],"images":[{"name":"Polygon_Texture_vol2","uri":"Polygon_Texture_vol2.png"}],"materials":[{"alphaMode":"OPAQUE","doubleSided":false,"extras":{"fromFBX":{"isTruePBR":false,"shadingModel":"Phong"}},"name":"Material","pbrMetallicRoughness":{"baseColorFactor":[1,1,1,1],"baseColorTexture":{"index":0,"texCoord":0},"metallicFactor":0.400000005960464,"roughnessFactor":0.229415729641914}},{"alphaMode":"OPAQUE","doubleSided":false,"extras":{"fromFBX":{"isTruePBR":false,"shadingModel":"Phong"}},"name":"Window","pbrMetallicRoughness":{"baseColorFactor":[0.800000011920929,0.800000011920929,0.800000011920929,1],"metallicFactor":0.400000005960464,"roughnessFactor":0.272165536880493}}],"meshes":[{"name":"locating_dish_02","primitives":[{"attributes":{"NORMAL":2,"POSITION":1,"TEXCOORD_0":3},"indices":0,"material":0,"mode":4},{"attributes":{"NORMAL":6,"POSITION":5,"TEXCOORD_0":7},"indices":4,"material":1,"mode":4}]}],"nodes":[{"mesh":0,"name":"locating_dish_02","rotation":[0,0,0,1],"scale":[1,1,1],"translation":[0,0,0]}],"samplers":[{}],"scene":0,"scenes":[{"name":"Root Scene","nodes":[0]}],"textures":[{"name":"base_color_texture","sampler":0,"source":0}]}