{"accessors":[{"bufferView":0,"byteOffset":0,"componentType":5123,"count":222,"type":"SCALAR"},{"bufferView":1,"byteOffset":0,"componentType":5126,"count":124,"max":[0.531009137630463,1.06201827526093,1.59302735328674],"min":[-0.53100913763046,0,-0.53100913763046],"type":"VEC3"},{"bufferView":2,"byteOffset":0,"componentType":5126,"count":124,"type":"VEC3"},{"bufferView":3,"byteOffset":0,"componentType":5126,"count":124,"type":"VEC2"}],"asset":{"generator":"FBX2glTF v0.13.1","version":"2.0"},"bufferViews":[{"buffer":0,"byteLength":444,"byteOffset":0,"target":34963},{"buffer":0,"byteLength":1488,"byteOffset":444,"target":34962},{"buffer":0,"byteLength":1488,"byteOffset":1932,"target":34962},{"buffer":0,"byteLength":992,"byteOffset":3420,"target":34962}],"buffers":[{"byteLength":4412,"uri":"SM_piping_01.bin"}],"images":[{"name":"Polygon_Texture_vol2","uri":"Polygon_Texture_vol2.png"}],"materials":[{"alphaMode":"OPAQUE","doubleSided":false,"extras":{"fromFBX":{"isTruePBR":false,"shadingModel":"Phong"}},"name":"Material","pbrMetallicRoughness":{"baseColorFactor":[1,1,1,1],"baseColorTexture":{"index":0,"texCoord":0},"metallicFactor":0.400000005960464,"roughnessFactor":0.229415729641914}}],"meshes":[{"name":"piping_01","primitives":[{"attributes":{"NORMAL":2,"POSITION":1,"TEXCOORD_0":3},"indices":0,"material":0,"mode":4}]}],"nodes":[{"mesh":0,"name":"piping_01","rotation":[0,0,0,1],"scale":[1,1,1],"translation":[18.533504486084,-0.00000002980232,-3.67561173439026]}],"samplers":[{}],"scene":0,"scenes":[{"name":"Root Scene","nodes":[0]}],"textures":[{"name":"base_color_texture","sampler":0,"source":0}]}