{"accessors":[{"bufferView":0,"byteOffset":0,"componentType":5123,"count":210,"type":"SCALAR"},{"bufferView":1,"byteOffset":0,"componentType":5126,"count":116,"max":[0.646402478218079,1.06201827526093,1.06201875209808],"min":[-0.64640319347382,-0.00000003165061,-1.06201779842377],"type":"VEC3"},{"bufferView":2,"byteOffset":0,"componentType":5126,"count":116,"type":"VEC3"},{"bufferView":3,"byteOffset":0,"componentType":5126,"count":116,"type":"VEC2"}],"asset":{"generator":"FBX2glTF v0.13.1","version":"2.0"},"bufferViews":[{"buffer":0,"byteLength":420,"byteOffset":0,"target":34963},{"buffer":0,"byteLength":1392,"byteOffset":420,"target":34962},{"buffer":0,"byteLength":1392,"byteOffset":1812,"target":34962},{"buffer":0,"byteLength":928,"byteOffset":3204,"target":34962}],"buffers":[{"byteLength":4132,"uri":"SM_piping_03.bin"}],"images":[{"name":"Polygon_Texture_vol2","uri":"Polygon_Texture_vol2.png"}],"materials":[{"alphaMode":"OPAQUE","doubleSided":false,"extras":{"fromFBX":{"isTruePBR":false,"shadingModel":"Phong"}},"name":"Material","pbrMetallicRoughness":{"baseColorFactor":[1,1,1,1],"baseColorTexture":{"index":0,"texCoord":0},"metallicFactor":0.400000005960464,"roughnessFactor":0.229415729641914}}],"meshes":[{"name":"piping_03","primitives":[{"attributes":{"NORMAL":2,"POSITION":1,"TEXCOORD_0":3},"indices":0,"material":0,"mode":4}]}],"nodes":[{"mesh":0,"name":"piping_03","rotation":[0,0,0,1],"scale":[1,1,1],"translation":[20.1034660339355,0,-0.44537937641144]}],"samplers":[{}],"scene":0,"scenes":[{"name":"Root Scene","nodes":[0]}],"textures":[{"name":"base_color_texture","sampler":0,"source":0}]}