{"accessors":[{"bufferView":0,"byteOffset":0,"componentType":5123,"count":468,"type":"SCALAR"},{"bufferView":1,"byteOffset":0,"componentType":5126,"count":288,"max":[0.468799650669098,0.807770133018494,0.857750535011292],"min":[-0.4687996506691,-0.52823930978775,-0.61330604553223],"type":"VEC3"},{"bufferView":2,"byteOffset":0,"componentType":5126,"count":288,"type":"VEC3"},{"bufferView":3,"byteOffset":0,"componentType":5126,"count":288,"type":"VEC2"}],"asset":{"generator":"FBX2glTF v0.13.1","version":"2.0"},"bufferViews":[{"buffer":0,"byteLength":936,"byteOffset":0,"target":34963},{"buffer":0,"byteLength":3456,"byteOffset":936,"target":34962},{"buffer":0,"byteLength":3456,"byteOffset":4392,"target":34962},{"buffer":0,"byteLength":2304,"byteOffset":7848,"target":34962}],"buffers":[{"byteLength":10152,"uri":"SM_piping_04.bin"}],"images":[{"name":"Polygon_Texture_vol2","uri":"Polygon_Texture_vol2.png"}],"materials":[{"alphaMode":"OPAQUE","doubleSided":false,"extras":{"fromFBX":{"isTruePBR":false,"shadingModel":"Phong"}},"name":"Material","pbrMetallicRoughness":{"baseColorFactor":[1,1,1,1],"baseColorTexture":{"index":0,"texCoord":0},"metallicFactor":0.400000005960464,"roughnessFactor":0.229415729641914}}],"meshes":[{"name":"piping_04","primitives":[{"attributes":{"NORMAL":2,"POSITION":1,"TEXCOORD_0":3},"indices":0,"material":0,"mode":4}]}],"nodes":[{"mesh":0,"name":"piping_04","rotation":[0,0,0,1],"scale":[1,1,1],"translation":[18.533504486084,0.528239250183105,1.76782095432281]}],"samplers":[{}],"scene":0,"scenes":[{"name":"Root Scene","nodes":[0]}],"textures":[{"name":"base_color_texture","sampler":0,"source":0}]}