{"accessors":[{"bufferView":0,"byteOffset":0,"componentType":5123,"count":180,"type":"SCALAR"},{"bufferView":1,"byteOffset":0,"componentType":5126,"count":96,"max":[0.468799650669098,0.468799740076065,0.531008124351501],"min":[-0.4687996506691,-0.46879959106445,-0.53101009130478],"type":"VEC3"},{"bufferView":2,"byteOffset":0,"componentType":5126,"count":96,"type":"VEC3"},{"bufferView":3,"byteOffset":0,"componentType":5126,"count":96,"type":"VEC2"}],"asset":{"generator":"FBX2glTF v0.13.1","version":"2.0"},"bufferViews":[{"buffer":0,"byteLength":360,"byteOffset":0,"target":34963},{"buffer":0,"byteLength":1152,"byteOffset":360,"target":34962},{"buffer":0,"byteLength":1152,"byteOffset":1512,"target":34962},{"buffer":0,"byteLength":768,"byteOffset":2664,"target":34962}],"buffers":[{"byteLength":3432,"uri":"SM_piping_02.bin"}],"images":[{"name":"Polygon_Texture_vol2","uri":"Polygon_Texture_vol2.png"}],"materials":[{"alphaMode":"OPAQUE","doubleSided":false,"extras":{"fromFBX":{"isTruePBR":false,"shadingModel":"Phong"}},"name":"Material","pbrMetallicRoughness":{"baseColorFactor":[1,1,1,1],"baseColorTexture":{"index":0,"texCoord":0},"metallicFactor":0.400000005960464,"roughnessFactor":0.229415729641914}}],"meshes":[{"name":"piping_02","primitives":[{"attributes":{"NORMAL":2,"POSITION":1,"TEXCOORD_0":3},"indices":0,"material":0,"mode":4}]}],"nodes":[{"mesh":0,"name":"piping_02","rotation":[0,0,0,1],"scale":[1,1,1],"translation":[18.533504486084,0.531009078025818,-0.44537687301636]}],"samplers":[{}],"scene":0,"scenes":[{"name":"Root Scene","nodes":[0]}],"textures":[{"name":"base_color_texture","sampler":0,"source":0}]}