{"accessors":[{"bufferView":0,"byteOffset":0,"componentType":5123,"count":6549,"type":"SCALAR"},{"bufferView":1,"byteOffset":0,"componentType":5126,"count":3858,"max":[6.16828727722168,12.9910039901733,9.85107803344727],"min":[-11.8698740005493,0,-12.1489219665527],"type":"VEC3"},{"bufferView":2,"byteOffset":0,"componentType":5126,"count":3858,"type":"VEC3"},{"bufferView":3,"byteOffset":0,"componentType":5126,"count":3858,"type":"VEC2"},{"bufferView":4,"byteOffset":0,"componentType":5123,"count":150,"type":"SCALAR"},{"bufferView":5,"byteOffset":0,"componentType":5126,"count":92,"max":[6.11733484268188,10.0636835098267,9.32683277130127],"min":[-11.790078163147,1.4595263004303,-10.4807252883911],"type":"VEC3"},{"bufferView":6,"byteOffset":0,"componentType":5126,"count":92,"type":"VEC3"},{"bufferView":7,"byteOffset":0,"componentType":5126,"count":92,"type":"VEC2"}],"asset":{"generator":"FBX2glTF v0.13.1","version":"2.0"},"bufferViews":[{"buffer":0,"byteLength":13098,"byteOffset":0,"target":34963},{"buffer":0,"byteLength":46296,"byteOffset":13100,"target":34962},{"buffer":0,"byteLength":46296,"byteOffset":59396,"target":34962},{"buffer":0,"byteLength":30864,"byteOffset":105692,"target":34962},{"buffer":0,"byteLength":300,"byteOffset":136556,"target":34963},{"buffer":0,"byteLength":1104,"byteOffset":136856,"target":34962},{"buffer":0,"byteLength":1104,"byteOffset":137960,"target":34962},{"buffer":0,"byteLength":736,"byteOffset":139064,"target":34962}],"buffers":[{"byteLength":139800,"uri":"SM_RTS_01.bin"}],"images":[{"name":"Polygon_Texture_vol2","uri":"Polygon_Texture_vol2.png"}],"materials":[{"alphaMode":"OPAQUE","doubleSided":false,"extras":{"fromFBX":{"isTruePBR":false,"shadingModel":"Phong"}},"name":"Material","pbrMetallicRoughness":{"baseColorFactor":[1,1,1,1],"baseColorTexture":{"index":0,"texCoord":0},"metallicFactor":0.400000005960464,"roughnessFactor":0.229415729641914}},{"alphaMode":"OPAQUE","doubleSided":false,"extras":{"fromFBX":{"isTruePBR":false,"shadingModel":"Phong"}},"name":"Window","pbrMetallicRoughness":{"baseColorFactor":[0.800000011920929,0.800000011920929,0.800000011920929,1],"metallicFactor":0.400000005960464,"roughnessFactor":0.272165536880493}}],"meshes":[{"name":"RTS_01","primitives":[{"attributes":{"NORMAL":2,"POSITION":1,"TEXCOORD_0":3},"indices":0,"material":0,"mode":4},{"attributes":{"NORMAL":6,"POSITION":5,"TEXCOORD_0":7},"indices":4,"material":1,"mode":4}]}],"nodes":[{"mesh":0,"name":"RTS_01","rotation":[0,0,0,1],"scale":[1,1,1],"translation":[159.378631591797,0,-0.65782535076141]}],"samplers":[{}],"scene":0,"scenes":[{"name":"Root Scene","nodes":[0]}],"textures":[{"name":"base_color_texture","sampler":0,"source":0}]}