{"accessors":[{"bufferView":0,"byteOffset":0,"componentType":5123,"count":2016,"type":"SCALAR"},{"bufferView":1,"byteOffset":0,"componentType":5126,"count":1257,"max":[1.04962396621704,0.694705247879028,0.758967280387878],"min":[-1.04962396621704,-1,-0.75896728038788],"type":"VEC3"},{"bufferView":2,"byteOffset":0,"componentType":5126,"count":1257,"type":"VEC3"},{"bufferView":3,"byteOffset":0,"componentType":5126,"count":1257,"type":"VEC2"},{"bufferView":4,"byteOffset":0,"componentType":5123,"count":384,"type":"SCALAR"},{"bufferView":5,"byteOffset":0,"componentType":5126,"count":256,"max":[0.963031947612762,0.637367248535156,0.699702143669128],"min":[-0.96303188800812,-0.63394117355347,-0.69658279418945],"type":"VEC3"},{"bufferView":6,"byteOffset":0,"componentType":5126,"count":256,"type":"VEC3"},{"bufferView":7,"byteOffset":0,"componentType":5126,"count":256,"type":"VEC2"}],"asset":{"generator":"FBX2glTF v0.13.1","version":"2.0"},"bufferViews":[{"buffer":0,"byteLength":4032,"byteOffset":0,"target":34963},{"buffer":0,"byteLength":15084,"byteOffset":4032,"target":34962},{"buffer":0,"byteLength":15084,"byteOffset":19116,"target":34962},{"buffer":0,"byteLength":10056,"byteOffset":34200,"target":34962},{"buffer":0,"byteLength":768,"byteOffset":44256,"target":34963},{"buffer":0,"byteLength":3072,"byteOffset":45024,"target":34962},{"buffer":0,"byteLength":3072,"byteOffset":48096,"target":34962},{"buffer":0,"byteLength":2048,"byteOffset":51168,"target":34962}],"buffers":[{"byteLength":53216,"uri":"SM_solar_panel_02.bin"}],"images":[{"name":"Polygon_Texture_vol2","uri":"Polygon_Texture_vol2.png"}],"materials":[{"alphaMode":"OPAQUE","doubleSided":false,"extras":{"fromFBX":{"isTruePBR":false,"shadingModel":"Phong"}},"name":"Material","pbrMetallicRoughness":{"baseColorFactor":[1,1,1,1],"baseColorTexture":{"index":0,"texCoord":0},"metallicFactor":0.400000005960464,"roughnessFactor":0.229415729641914}},{"alphaMode":"OPAQUE","doubleSided":false,"extras":{"fromFBX":{"isTruePBR":false,"shadingModel":"Phong"}},"name":"Window","pbrMetallicRoughness":{"baseColorFactor":[0.800000011920929,0.800000011920929,0.800000011920929,1],"metallicFactor":0.400000005960464,"roughnessFactor":0.272165536880493}}],"meshes":[{"name":"solar_panel_02","primitives":[{"attributes":{"NORMAL":2,"POSITION":1,"TEXCOORD_0":3},"indices":0,"material":0,"mode":4},{"attributes":{"NORMAL":6,"POSITION":5,"TEXCOORD_0":7},"indices":4,"material":1,"mode":4}]}],"nodes":[{"mesh":0,"name":"solar_panel_02","rotation":[0,0,0,1],"scale":[1,1,1],"translation":[21.9591255187988,0.886030733585358,0.286251664161682]}],"samplers":[{}],"scene":0,"scenes":[{"name":"Root Scene","nodes":[0]}],"textures":[{"name":"base_color_texture","sampler":0,"source":0}]}