{"accessors":[{"bufferView":0,"byteOffset":0,"componentType":5123,"count":2622,"type":"SCALAR"},{"bufferView":1,"byteOffset":0,"componentType":5126,"count":1684,"max":[4.90813541412354,9.35377979278564,5.01777076721191],"min":[-4.90813541412354,0,-4.90813541412354],"type":"VEC3"},{"bufferView":2,"byteOffset":0,"componentType":5126,"count":1684,"type":"VEC3"},{"bufferView":3,"byteOffset":0,"componentType":5126,"count":1684,"type":"VEC2"}],"asset":{"generator":"FBX2glTF v0.13.1","version":"2.0"},"bufferViews":[{"buffer":0,"byteLength":5244,"byteOffset":0,"target":34963},{"buffer":0,"byteLength":20208,"byteOffset":5244,"target":34962},{"buffer":0,"byteLength":20208,"byteOffset":25452,"target":34962},{"buffer":0,"byteLength":13472,"byteOffset":45660,"target":34962}],"buffers":[{"byteLength":59132,"uri":"SM_storage_tank_01.bin"}],"images":[{"name":"Polygon_Texture_vol2","uri":"Polygon_Texture_vol2.png"}],"materials":[{"alphaMode":"OPAQUE","doubleSided":false,"extras":{"fromFBX":{"isTruePBR":false,"shadingModel":"Phong"}},"name":"Material","pbrMetallicRoughness":{"baseColorFactor":[1,1,1,1],"baseColorTexture":{"index":0,"texCoord":0},"metallicFactor":0.400000005960464,"roughnessFactor":0.229415729641914}}],"meshes":[{"name":"storage_tank_01","primitives":[{"attributes":{"NORMAL":2,"POSITION":1,"TEXCOORD_0":3},"indices":0,"material":0,"mode":4}]}],"nodes":[{"mesh":0,"name":"storage_tank_01","rotation":[0,0,0,1],"scale":[1,1,1],"translation":[131.533050537109,0,0]}],"samplers":[{}],"scene":0,"scenes":[{"name":"Root Scene","nodes":[0]}],"textures":[{"name":"base_color_texture","sampler":0,"source":0}]}