{"accessors":[{"bufferView":0,"byteOffset":0,"componentType":5123,"count":1026,"type":"SCALAR"},{"bufferView":1,"byteOffset":0,"componentType":5126,"count":651,"max":[0.5,0.929511308670044,0.0417592264711857],"min":[-0.5,-0.25998777151108,-1.22124266624451],"type":"VEC3"},{"bufferView":2,"byteOffset":0,"componentType":5126,"count":651,"type":"VEC3"},{"bufferView":3,"byteOffset":0,"componentType":5126,"count":651,"type":"VEC2"},{"bufferView":4,"byteOffset":0,"componentType":5123,"count":96,"type":"SCALAR"},{"bufferView":5,"byteOffset":0,"componentType":5126,"count":64,"max":[0.437633037567139,0.867217063903809,-0.02761819772422],"min":[-0.43763303756714,0.0686852633953094,-1.14730727672577],"type":"VEC3"},{"bufferView":6,"byteOffset":0,"componentType":5126,"count":64,"type":"VEC3"},{"bufferView":7,"byteOffset":0,"componentType":5126,"count":64,"type":"VEC2"}],"asset":{"generator":"FBX2glTF v0.13.1","version":"2.0"},"bufferViews":[{"buffer":0,"byteLength":2052,"byteOffset":0,"target":34963},{"buffer":0,"byteLength":7812,"byteOffset":2052,"target":34962},{"buffer":0,"byteLength":7812,"byteOffset":9864,"target":34962},{"buffer":0,"byteLength":5208,"byteOffset":17676,"target":34962},{"buffer":0,"byteLength":192,"byteOffset":22884,"target":34963},{"buffer":0,"byteLength":768,"byteOffset":23076,"target":34962},{"buffer":0,"byteLength":768,"byteOffset":23844,"target":34962},{"buffer":0,"byteLength":512,"byteOffset":24612,"target":34962}],"buffers":[{"byteLength":25124,"uri":"SM_solar_panel_01.bin"}],"images":[{"name":"Polygon_Texture_vol2","uri":"Polygon_Texture_vol2.png"}],"materials":[{"alphaMode":"OPAQUE","doubleSided":false,"extras":{"fromFBX":{"isTruePBR":false,"shadingModel":"Phong"}},"name":"Material","pbrMetallicRoughness":{"baseColorFactor":[1,1,1,1],"baseColorTexture":{"index":0,"texCoord":0},"metallicFactor":0.400000005960464,"roughnessFactor":0.229415729641914}},{"alphaMode":"OPAQUE","doubleSided":false,"extras":{"fromFBX":{"isTruePBR":false,"shadingModel":"Phong"}},"name":"Window","pbrMetallicRoughness":{"baseColorFactor":[0.800000011920929,0.800000011920929,0.800000011920929,1],"metallicFactor":0.400000005960464,"roughnessFactor":0.272165536880493}}],"meshes":[{"name":"solar_panel_01","primitives":[{"attributes":{"NORMAL":2,"POSITION":1,"TEXCOORD_0":3},"indices":0,"material":0,"mode":4},{"attributes":{"NORMAL":6,"POSITION":5,"TEXCOORD_0":7},"indices":4,"material":1,"mode":4}]}],"nodes":[{"mesh":0,"name":"solar_panel_01","rotation":[0,0,0,1],"scale":[1,1,1],"translation":[23.7105102539062,0.262742578983307,0.75]}],"samplers":[{}],"scene":0,"scenes":[{"name":"Root Scene","nodes":[0]}],"textures":[{"name":"base_color_texture","sampler":0,"source":0}]}