{"accessors":[{"bufferView":0,"byteOffset":0,"componentType":5123,"count":1965,"type":"SCALAR"},{"bufferView":1,"byteOffset":0,"componentType":5126,"count":1161,"max":[5.12729072570801,5,6.39467573165894],"min":[-4.87270927429199,0,-1.60140228271484],"type":"VEC3"},{"bufferView":2,"byteOffset":0,"componentType":5126,"count":1161,"type":"VEC3"},{"bufferView":3,"byteOffset":0,"componentType":5126,"count":1161,"type":"VEC2"},{"bufferView":4,"byteOffset":0,"componentType":5123,"count":78,"type":"SCALAR"},{"bufferView":5,"byteOffset":0,"componentType":5126,"count":52,"max":[4.99892997741699,4.53390836715698,3.73697876930237],"min":[-4.72456121444702,0.761322677135468,-1.5043957233429],"type":"VEC3"},{"bufferView":6,"byteOffset":0,"componentType":5126,"count":52,"type":"VEC3"},{"bufferView":7,"byteOffset":0,"componentType":5126,"count":52,"type":"VEC2"}],"asset":{"generator":"FBX2glTF v0.13.1","version":"2.0"},"bufferViews":[{"buffer":0,"byteLength":3930,"byteOffset":0,"target":34963},{"buffer":0,"byteLength":13932,"byteOffset":3932,"target":34962},{"buffer":0,"byteLength":13932,"byteOffset":17864,"target":34962},{"buffer":0,"byteLength":9288,"byteOffset":31796,"target":34962},{"buffer":0,"byteLength":156,"byteOffset":41084,"target":34963},{"buffer":0,"byteLength":624,"byteOffset":41240,"target":34962},{"buffer":0,"byteLength":624,"byteOffset":41864,"target":34962},{"buffer":0,"byteLength":416,"byteOffset":42488,"target":34962}],"buffers":[{"byteLength":42904,"uri":"SM_switchboard_01.bin"}],"images":[{"name":"Polygon_Texture_vol2","uri":"Polygon_Texture_vol2.png"}],"materials":[{"alphaMode":"OPAQUE","doubleSided":false,"extras":{"fromFBX":{"isTruePBR":false,"shadingModel":"Phong"}},"name":"Material","pbrMetallicRoughness":{"baseColorFactor":[1,1,1,1],"baseColorTexture":{"index":0,"texCoord":0},"metallicFactor":0.400000005960464,"roughnessFactor":0.229415729641914}},{"alphaMode":"OPAQUE","doubleSided":false,"extras":{"fromFBX":{"isTruePBR":false,"shadingModel":"Phong"}},"name":"Window","pbrMetallicRoughness":{"baseColorFactor":[0.800000011920929,0.800000011920929,0.800000011920929,1],"metallicFactor":0.400000005960464,"roughnessFactor":0.272165536880493}}],"meshes":[{"name":"switchboard_01","primitives":[{"attributes":{"NORMAL":2,"POSITION":1,"TEXCOORD_0":3},"indices":0,"material":0,"mode":4},{"attributes":{"NORMAL":6,"POSITION":5,"TEXCOORD_0":7},"indices":4,"material":1,"mode":4}]}],"nodes":[{"mesh":0,"name":"switchboard_01","rotation":[0,0,0,1],"scale":[1,1,1],"translation":[64.0324935913086,0,-1.39859771728516]}],"samplers":[{}],"scene":0,"scenes":[{"name":"Root Scene","nodes":[0]}],"textures":[{"name":"base_color_texture","sampler":0,"source":0}]}