{"accessors":[{"bufferView":0,"byteOffset":0,"componentType":5123,"count":7113,"type":"SCALAR"},{"bufferView":1,"byteOffset":0,"componentType":5126,"count":3828,"max":[12.1591100692749,20.2234077453613,15.550365447998],"min":[-19.8408889770508,0,-8.44963359832764],"type":"VEC3"},{"bufferView":2,"byteOffset":0,"componentType":5126,"count":3828,"type":"VEC3"},{"bufferView":3,"byteOffset":0,"componentType":5126,"count":3828,"type":"VEC2"},{"bufferView":4,"byteOffset":0,"componentType":5123,"count":306,"type":"SCALAR"},{"bufferView":5,"byteOffset":0,"componentType":5126,"count":204,"max":[11.997576713562,11.2737522125244,15.3801202774048],"min":[-19.7723655700684,1.03003144264221,-8.37527084350586],"type":"VEC3"},{"bufferView":6,"byteOffset":0,"componentType":5126,"count":204,"type":"VEC3"},{"bufferView":7,"byteOffset":0,"componentType":5126,"count":204,"type":"VEC2"}],"asset":{"generator":"FBX2glTF v0.13.1","version":"2.0"},"bufferViews":[{"buffer":0,"byteLength":14226,"byteOffset":0,"target":34963},{"buffer":0,"byteLength":45936,"byteOffset":14228,"target":34962},{"buffer":0,"byteLength":45936,"byteOffset":60164,"target":34962},{"buffer":0,"byteLength":30624,"byteOffset":106100,"target":34962},{"buffer":0,"byteLength":612,"byteOffset":136724,"target":34963},{"buffer":0,"byteLength":2448,"byteOffset":137336,"target":34962},{"buffer":0,"byteLength":2448,"byteOffset":139784,"target":34962},{"buffer":0,"byteLength":1632,"byteOffset":142232,"target":34962}],"buffers":[{"byteLength":143864,"uri":"SM_TEC_01.bin"}],"images":[{"name":"Polygon_Texture_vol2","uri":"Polygon_Texture_vol2.png"}],"materials":[{"alphaMode":"OPAQUE","doubleSided":false,"extras":{"fromFBX":{"isTruePBR":false,"shadingModel":"Phong"}},"name":"Material","pbrMetallicRoughness":{"baseColorFactor":[1,1,1,1],"baseColorTexture":{"index":0,"texCoord":0},"metallicFactor":0.400000005960464,"roughnessFactor":0.229415729641914}},{"alphaMode":"OPAQUE","doubleSided":false,"extras":{"fromFBX":{"isTruePBR":false,"shadingModel":"Phong"}},"name":"Window","pbrMetallicRoughness":{"baseColorFactor":[0.800000011920929,0.800000011920929,0.800000011920929,1],"metallicFactor":0.400000005960464,"roughnessFactor":0.272165536880493}}],"meshes":[{"name":"TEC_01","primitives":[{"attributes":{"NORMAL":2,"POSITION":1,"TEXCOORD_0":3},"indices":0,"material":0,"mode":4},{"attributes":{"NORMAL":6,"POSITION":5,"TEXCOORD_0":7},"indices":4,"material":1,"mode":4}]}],"nodes":[{"mesh":0,"name":"TEC_01","rotation":[0,0,0,1],"scale":[1,1,1],"translation":[220.751281738281,0,-3.55036640167236]}],"samplers":[{}],"scene":0,"scenes":[{"name":"Root Scene","nodes":[0]}],"textures":[{"name":"base_color_texture","sampler":0,"source":0}]}