{"accessors":[{"bufferView":0,"byteOffset":0,"componentType":5123,"count":1536,"type":"SCALAR"},{"bufferView":1,"byteOffset":0,"componentType":5126,"count":986,"max":[0.0123933553695679,2.0706946849823,0.0123934149742126],"min":[-2.01239395141602,0,-2.01239395141602],"type":"VEC3"},{"bufferView":2,"byteOffset":0,"componentType":5126,"count":986,"type":"VEC3"},{"bufferView":3,"byteOffset":0,"componentType":5126,"count":986,"type":"VEC2"}],"asset":{"generator":"FBX2glTF v0.13.1","version":"2.0"},"bufferViews":[{"buffer":0,"byteLength":3072,"byteOffset":0,"target":34963},{"buffer":0,"byteLength":11832,"byteOffset":3072,"target":34962},{"buffer":0,"byteLength":11832,"byteOffset":14904,"target":34962},{"buffer":0,"byteLength":7888,"byteOffset":26736,"target":34962}],"buffers":[{"byteLength":34624,"uri":"SM_fence_01_C.bin"}],"images":[{"name":"Polygon_Camping_Texture_vol2.0","uri":"Polygon_Camping_Texture_vol2.0.jpg"}],"materials":[{"alphaMode":"OPAQUE","doubleSided":false,"extras":{"fromFBX":{"isTruePBR":false,"shadingModel":"Phong"}},"name":"Material","pbrMetallicRoughness":{"baseColorFactor":[1,1,1,1],"baseColorTexture":{"index":0,"texCoord":0},"metallicFactor":0.400000005960464,"roughnessFactor":0.229415729641914}}],"meshes":[{"name":"fence_01_C","primitives":[{"attributes":{"NORMAL":2,"POSITION":1,"TEXCOORD_0":3},"indices":0,"material":0,"mode":4}]}],"nodes":[{"mesh":0,"name":"fence_01_C","rotation":[0,0,0,1],"scale":[1,1,1],"translation":[50.9085426330566,0,-0.42821618914604]}],"samplers":[{}],"scene":0,"scenes":[{"name":"Root Scene","nodes":[0]}],"textures":[{"name":"base_color_texture","sampler":0,"source":0}]}