{"accessors":[{"bufferView":0,"byteOffset":0,"componentType":5123,"count":2526,"type":"SCALAR"},{"bufferView":1,"byteOffset":0,"componentType":5126,"count":1509,"max":[0.0184468477964401,2.60118699073792,0.0157138984650373],"min":[-3.98155283927917,0,-3.98428606987],"type":"VEC3"},{"bufferView":2,"byteOffset":0,"componentType":5126,"count":1509,"type":"VEC3"},{"bufferView":3,"byteOffset":0,"componentType":5126,"count":1509,"type":"VEC2"}],"asset":{"generator":"FBX2glTF v0.13.1","version":"2.0"},"bufferViews":[{"buffer":0,"byteLength":5052,"byteOffset":0,"target":34963},{"buffer":0,"byteLength":18108,"byteOffset":5052,"target":34962},{"buffer":0,"byteLength":18108,"byteOffset":23160,"target":34962},{"buffer":0,"byteLength":12072,"byteOffset":41268,"target":34962}],"buffers":[{"byteLength":53340,"uri":"SM_fence_05_C.bin"}],"images":[{"name":"Polygon_Camping_Texture_vol2.0","uri":"Polygon_Camping_Texture_vol2.0.jpg"}],"materials":[{"alphaMode":"OPAQUE","doubleSided":false,"extras":{"fromFBX":{"isTruePBR":false,"shadingModel":"Phong"}},"name":"Material","pbrMetallicRoughness":{"baseColorFactor":[1,1,1,1],"baseColorTexture":{"index":0,"texCoord":0},"metallicFactor":0.400000005960464,"roughnessFactor":0.229415729641914}}],"meshes":[{"name":"fence_05_C","primitives":[{"attributes":{"NORMAL":2,"POSITION":1,"TEXCOORD_0":3},"indices":0,"material":0,"mode":4}]}],"nodes":[{"mesh":0,"name":"fence_05_C","rotation":[0,0,0,1],"scale":[1,1,1],"translation":[26,0,-1.3970000743866]}],"samplers":[{}],"scene":0,"scenes":[{"name":"Root Scene","nodes":[0]}],"textures":[{"name":"base_color_texture","sampler":0,"source":0}]}