{"accessors":[{"bufferView":0,"byteOffset":0,"componentType":5123,"count":708,"type":"SCALAR"},{"bufferView":1,"byteOffset":0,"componentType":5126,"count":416,"max":[0.0207123756408691,2.04062414169312,0.0207124352455139],"min":[-3.98071217536926,0,-3.98071217536926],"type":"VEC3"},{"bufferView":2,"byteOffset":0,"componentType":5126,"count":416,"type":"VEC3"},{"bufferView":3,"byteOffset":0,"componentType":5126,"count":416,"type":"VEC2"}],"asset":{"generator":"FBX2glTF v0.13.1","version":"2.0"},"bufferViews":[{"buffer":0,"byteLength":1416,"byteOffset":0,"target":34963},{"buffer":0,"byteLength":4992,"byteOffset":1416,"target":34962},{"buffer":0,"byteLength":4992,"byteOffset":6408,"target":34962},{"buffer":0,"byteLength":3328,"byteOffset":11400,"target":34962}],"buffers":[{"byteLength":14728,"uri":"SM_fence_03_C.bin"}],"images":[{"name":"Polygon_Camping_Texture_vol2.0","uri":"Polygon_Camping_Texture_vol2.0.jpg"}],"materials":[{"alphaMode":"OPAQUE","doubleSided":false,"extras":{"fromFBX":{"isTruePBR":false,"shadingModel":"Phong"}},"name":"Material","pbrMetallicRoughness":{"baseColorFactor":[1,1,1,1],"baseColorTexture":{"index":0,"texCoord":0},"metallicFactor":0.400000005960464,"roughnessFactor":0.229415729641914}}],"meshes":[{"name":"fence_03_C","primitives":[{"attributes":{"NORMAL":2,"POSITION":1,"TEXCOORD_0":3},"indices":0,"material":0,"mode":4}]}],"nodes":[{"mesh":0,"name":"fence_03_C","rotation":[0,0,0,1],"scale":[1,1,1],"translation":[39.6937637329102,0,-0.70551532506943]}],"samplers":[{}],"scene":0,"scenes":[{"name":"Root Scene","nodes":[0]}],"textures":[{"name":"base_color_texture","sampler":0,"source":0}]}