{"accessors":[{"bufferView":0,"byteOffset":0,"componentType":5123,"count":390,"type":"SCALAR"},{"bufferView":1,"byteOffset":0,"componentType":5126,"count":228,"max":[0.0207123458385468,2.04062414169312,0.0207124352455139],"min":[-3.98071217536926,0,-0.52071243524551],"type":"VEC3"},{"bufferView":2,"byteOffset":0,"componentType":5126,"count":228,"type":"VEC3"},{"bufferView":3,"byteOffset":0,"componentType":5126,"count":228,"type":"VEC2"}],"asset":{"generator":"FBX2glTF v0.13.1","version":"2.0"},"bufferViews":[{"buffer":0,"byteLength":780,"byteOffset":0,"target":34963},{"buffer":0,"byteLength":2736,"byteOffset":780,"target":34962},{"buffer":0,"byteLength":2736,"byteOffset":3516,"target":34962},{"buffer":0,"byteLength":1824,"byteOffset":6252,"target":34962}],"buffers":[{"byteLength":8076,"uri":"SM_fence_03_B.bin"}],"images":[{"name":"Polygon_Camping_Texture_vol2.0","uri":"Polygon_Camping_Texture_vol2.0.jpg"}],"materials":[{"alphaMode":"OPAQUE","doubleSided":false,"extras":{"fromFBX":{"isTruePBR":false,"shadingModel":"Phong"}},"name":"Material","pbrMetallicRoughness":{"baseColorFactor":[1,1,1,1],"baseColorTexture":{"index":0,"texCoord":0},"metallicFactor":0.400000005960464,"roughnessFactor":0.229415729641914}}],"meshes":[{"name":"fence_03_B","primitives":[{"attributes":{"NORMAL":2,"POSITION":1,"TEXCOORD_0":3},"indices":0,"material":0,"mode":4}]}],"nodes":[{"mesh":0,"name":"fence_03_B","rotation":[0,0,0,1],"scale":[1,1,1],"translation":[39.6937637329102,0,0.25]}],"samplers":[{}],"scene":0,"scenes":[{"name":"Root Scene","nodes":[0]}],"textures":[{"name":"base_color_texture","sampler":0,"source":0}]}