{"accessors":[{"bufferView":0,"byteOffset":0,"componentType":5123,"count":324,"type":"SCALAR"},{"bufferView":1,"byteOffset":0,"componentType":5126,"count":216,"max":[-0.00000002980232,1.72445034980774,0.0197210311889648],"min":[-1,0,-0.04173612594604],"type":"VEC3"},{"bufferView":2,"byteOffset":0,"componentType":5126,"count":216,"type":"VEC3"},{"bufferView":3,"byteOffset":0,"componentType":5126,"count":216,"type":"VEC2"}],"asset":{"generator":"FBX2glTF v0.13.1","version":"2.0"},"bufferViews":[{"buffer":0,"byteLength":648,"byteOffset":0,"target":34963},{"buffer":0,"byteLength":2592,"byteOffset":648,"target":34962},{"buffer":0,"byteLength":2592,"byteOffset":3240,"target":34962},{"buffer":0,"byteLength":1728,"byteOffset":5832,"target":34962}],"buffers":[{"byteLength":7560,"uri":"SM_fence_03_A.bin"}],"images":[{"name":"Polygon_Camping_Texture_vol2.0","uri":"Polygon_Camping_Texture_vol2.0.jpg"}],"materials":[{"alphaMode":"OPAQUE","doubleSided":false,"extras":{"fromFBX":{"isTruePBR":false,"shadingModel":"Phong"}},"name":"Material","pbrMetallicRoughness":{"baseColorFactor":[1,1,1,1],"baseColorTexture":{"index":0,"texCoord":0},"metallicFactor":0.400000005960464,"roughnessFactor":0.229415729641914}}],"meshes":[{"name":"fence_03_A","primitives":[{"attributes":{"NORMAL":2,"POSITION":1,"TEXCOORD_0":3},"indices":0,"material":0,"mode":4}]}],"nodes":[{"mesh":0,"name":"fence_03_A","rotation":[0,0,0,1],"scale":[1,1,1],"translation":[39.3541946411133,0.113398969173431,0.565766334533691]}],"samplers":[{}],"scene":0,"scenes":[{"name":"Root Scene","nodes":[0]}],"textures":[{"name":"base_color_texture","sampler":0,"source":0}]}