{"accessors":[{"bufferView":0,"byteOffset":0,"componentType":5123,"count":708,"type":"SCALAR"},{"bufferView":1,"byteOffset":0,"componentType":5126,"count":464,"max":[0.0146446963772178,2.45984387397766,0.214610531926155],"min":[-1.98535513877869,0,-0.08535535633564],"type":"VEC3"},{"bufferView":2,"byteOffset":0,"componentType":5126,"count":464,"type":"VEC3"},{"bufferView":3,"byteOffset":0,"componentType":5126,"count":464,"type":"VEC2"}],"asset":{"generator":"FBX2glTF v0.13.1","version":"2.0"},"bufferViews":[{"buffer":0,"byteLength":1416,"byteOffset":0,"target":34963},{"buffer":0,"byteLength":5568,"byteOffset":1416,"target":34962},{"buffer":0,"byteLength":5568,"byteOffset":6984,"target":34962},{"buffer":0,"byteLength":3712,"byteOffset":12552,"target":34962}],"buffers":[{"byteLength":16264,"uri":"SM_fence_07.bin"}],"images":[{"name":"Polygon_Camping_Texture_vol2.0","uri":"Polygon_Camping_Texture_vol2.0.jpg"}],"materials":[{"alphaMode":"OPAQUE","doubleSided":false,"extras":{"fromFBX":{"isTruePBR":false,"shadingModel":"Phong"}},"name":"Material","pbrMetallicRoughness":{"baseColorFactor":[1,1,1,1],"baseColorTexture":{"index":0,"texCoord":0},"metallicFactor":0.400000005960464,"roughnessFactor":0.229415729641914}}],"meshes":[{"name":"fence_07","primitives":[{"attributes":{"NORMAL":2,"POSITION":1,"TEXCOORD_0":3},"indices":0,"material":0,"mode":4}]}],"nodes":[{"mesh":0,"name":"fence_07","rotation":[0,0,0,1],"scale":[1,1,1],"translation":[16.085355758667,0,0.08535535633564]}],"samplers":[{}],"scene":0,"scenes":[{"name":"Root Scene","nodes":[0]}],"textures":[{"name":"base_color_texture","sampler":0,"source":0}]}