{"accessors":[{"bufferView":0,"byteOffset":0,"componentType":5123,"count":264,"type":"SCALAR"},{"bufferView":1,"byteOffset":0,"componentType":5126,"count":140,"max":[0,3.5,0],"min":[-2,0,-0.30000001192093],"type":"VEC3"},{"bufferView":2,"byteOffset":0,"componentType":5126,"count":140,"type":"VEC3"},{"bufferView":3,"byteOffset":0,"componentType":5126,"count":140,"type":"VEC2"},{"bufferView":4,"byteOffset":0,"componentType":5123,"count":852,"type":"SCALAR"},{"bufferView":5,"byteOffset":0,"componentType":5126,"count":432,"max":[0.900000035762787,2.33358001708984,0.0709472745656967],"min":[0,0,0],"type":"VEC3"},{"bufferView":6,"byteOffset":0,"componentType":5126,"count":432,"type":"VEC3"},{"bufferView":7,"byteOffset":0,"componentType":5126,"count":432,"type":"VEC2"}],"asset":{"generator":"FBX2glTF v0.13.1","version":"2.0"},"bufferViews":[{"buffer":0,"byteLength":528,"byteOffset":0,"target":34963},{"buffer":0,"byteLength":1680,"byteOffset":528,"target":34962},{"buffer":0,"byteLength":1680,"byteOffset":2208,"target":34962},{"buffer":0,"byteLength":1120,"byteOffset":3888,"target":34962},{"buffer":0,"byteLength":1704,"byteOffset":5008,"target":34963},{"buffer":0,"byteLength":5184,"byteOffset":6712,"target":34962},{"buffer":0,"byteLength":5184,"byteOffset":11896,"target":34962},{"buffer":0,"byteLength":3456,"byteOffset":17080,"target":34962}],"buffers":[{"byteLength":20536,"uri":"SM_fence_04_A.bin"}],"images":[{"name":"Polygon_Camping_Texture_vol2.0","uri":"Polygon_Camping_Texture_vol2.0.jpg"}],"materials":[{"alphaMode":"OPAQUE","doubleSided":false,"extras":{"fromFBX":{"isTruePBR":false,"shadingModel":"Phong"}},"name":"Material","pbrMetallicRoughness":{"baseColorFactor":[1,1,1,1],"baseColorTexture":{"index":0,"texCoord":0},"metallicFactor":0.400000005960464,"roughnessFactor":0.229415729641914}}],"meshes":[{"name":"fence_04_A","primitives":[{"attributes":{"NORMAL":2,"POSITION":1,"TEXCOORD_0":3},"indices":0,"material":0,"mode":4}]},{"name":"fence_04_A_Door_01","primitives":[{"attributes":{"NORMAL":6,"POSITION":5,"TEXCOORD_0":7},"indices":4,"material":0,"mode":4}]}],"nodes":[{"children":[1],"mesh":0,"name":"fence_04_A","rotation":[0,0,0,1],"scale":[1,1,1],"translation":[33,0,1.15609335899353]},{"mesh":1,"name":"fence_04_A_Door_01","rotation":[0,0,0,1],"scale":[1,1,1],"translation":[-1.24999749660492,0.0832098722457886,-0.18547363579273]}],"samplers":[{}],"scene":0,"scenes":[{"name":"Root Scene","nodes":[0]}],"textures":[{"name":"base_color_texture","sampler":0,"source":0}]}