{"accessors":[{"bufferView":0,"byteOffset":0,"componentType":5123,"count":1044,"type":"SCALAR"},{"bufferView":1,"byteOffset":0,"componentType":5126,"count":564,"max":[-0.00000002980232,1.94254648685455,0.0439388789236546],"min":[-1,-0.00000023841858,-0.01946401968598],"type":"VEC3"},{"bufferView":2,"byteOffset":0,"componentType":5126,"count":564,"type":"VEC3"},{"bufferView":3,"byteOffset":0,"componentType":5126,"count":564,"type":"VEC2"}],"asset":{"generator":"FBX2glTF v0.13.1","version":"2.0"},"bufferViews":[{"buffer":0,"byteLength":2088,"byteOffset":0,"target":34963},{"buffer":0,"byteLength":6768,"byteOffset":2088,"target":34962},{"buffer":0,"byteLength":6768,"byteOffset":8856,"target":34962},{"buffer":0,"byteLength":4512,"byteOffset":15624,"target":34962}],"buffers":[{"byteLength":20136,"uri":"SM_fence_02_A.bin"}],"images":[{"name":"Polygon_Camping_Texture_vol2.0","uri":"Polygon_Camping_Texture_vol2.0.jpg"}],"materials":[{"alphaMode":"OPAQUE","doubleSided":false,"extras":{"fromFBX":{"isTruePBR":false,"shadingModel":"Phong"}},"name":"Material","pbrMetallicRoughness":{"baseColorFactor":[1,1,1,1],"baseColorTexture":{"index":0,"texCoord":0},"metallicFactor":0.400000005960464,"roughnessFactor":0.229415729641914}}],"meshes":[{"name":"fence_02_A","primitives":[{"attributes":{"NORMAL":2,"POSITION":1,"TEXCOORD_0":3},"indices":0,"material":0,"mode":4}]}],"nodes":[{"mesh":0,"name":"fence_02_A","rotation":[0,0,0,1],"scale":[1,1,1],"translation":[46.0019226074219,0.0338059067726135,0.158029645681381]}],"samplers":[{}],"scene":0,"scenes":[{"name":"Root Scene","nodes":[0]}],"textures":[{"name":"base_color_texture","sampler":0,"source":0}]}