{"accessors":[{"bufferView":0,"byteOffset":0,"componentType":5123,"count":516,"type":"SCALAR"},{"bufferView":1,"byteOffset":0,"componentType":5126,"count":336,"max":[1,1.94235098361969,0.0725322216749191],"min":[0,0,-0.0725322291255],"type":"VEC3"},{"bufferView":2,"byteOffset":0,"componentType":5126,"count":336,"type":"VEC3"},{"bufferView":3,"byteOffset":0,"componentType":5126,"count":336,"type":"VEC2"}],"asset":{"generator":"FBX2glTF v0.13.1","version":"2.0"},"bufferViews":[{"buffer":0,"byteLength":1032,"byteOffset":0,"target":34963},{"buffer":0,"byteLength":4032,"byteOffset":1032,"target":34962},{"buffer":0,"byteLength":4032,"byteOffset":5064,"target":34962},{"buffer":0,"byteLength":2688,"byteOffset":9096,"target":34962}],"buffers":[{"byteLength":11784,"uri":"SM_fence_01_A.bin"}],"images":[{"name":"Polygon_Camping_Texture_vol2.0","uri":"Polygon_Camping_Texture_vol2.0.jpg"}],"materials":[{"alphaMode":"OPAQUE","doubleSided":false,"extras":{"fromFBX":{"isTruePBR":false,"shadingModel":"Phong"}},"name":"Material","pbrMetallicRoughness":{"baseColorFactor":[1,1,1,1],"baseColorTexture":{"index":0,"texCoord":0},"metallicFactor":0.400000005960464,"roughnessFactor":0.229415729641914}}],"meshes":[{"name":"fence_01_A","primitives":[{"attributes":{"NORMAL":2,"POSITION":1,"TEXCOORD_0":3},"indices":0,"material":0,"mode":4}]}],"nodes":[{"mesh":0,"name":"fence_01_A","rotation":[0,0,0,1],"scale":[1,1,1],"translation":[49.9209403991699,0.0421305894851685,0.399342596530914]}],"samplers":[{}],"scene":0,"scenes":[{"name":"Root Scene","nodes":[0]}],"textures":[{"name":"base_color_texture","sampler":0,"source":0}]}