{"accessors":[{"bufferView":0,"byteOffset":0,"componentType":5123,"count":1212,"type":"SCALAR"},{"bufferView":1,"byteOffset":0,"componentType":5126,"count":577,"max":[0.0000000596046447753906,2.5,0],"min":[-2,0,-2],"type":"VEC3"},{"bufferView":2,"byteOffset":0,"componentType":5126,"count":577,"type":"VEC3"},{"bufferView":3,"byteOffset":0,"componentType":5126,"count":577,"type":"VEC2"}],"asset":{"generator":"FBX2glTF v0.13.1","version":"2.0"},"bufferViews":[{"buffer":0,"byteLength":2424,"byteOffset":0,"target":34963},{"buffer":0,"byteLength":6924,"byteOffset":2424,"target":34962},{"buffer":0,"byteLength":6924,"byteOffset":9348,"target":34962},{"buffer":0,"byteLength":4616,"byteOffset":16272,"target":34962}],"buffers":[{"byteLength":20888,"uri":"SM_fence_09_B.bin"}],"images":[{"name":"Polygon_Camping_Texture_vol2.0","uri":"Polygon_Camping_Texture_vol2.0.jpg"}],"materials":[{"alphaMode":"OPAQUE","doubleSided":false,"extras":{"fromFBX":{"isTruePBR":false,"shadingModel":"Phong"}},"name":"Material","pbrMetallicRoughness":{"baseColorFactor":[1,1,1,1],"baseColorTexture":{"index":0,"texCoord":0},"metallicFactor":0.400000005960464,"roughnessFactor":0.229415729641914}}],"meshes":[{"name":"fence_09_B","primitives":[{"attributes":{"NORMAL":2,"POSITION":1,"TEXCOORD_0":3},"indices":0,"material":0,"mode":4}]}],"nodes":[{"mesh":0,"name":"fence_09_B","rotation":[0,0,0,1],"scale":[1,1,1],"translation":[7.85000038146973,0,-0.85019767284393]}],"samplers":[{}],"scene":0,"scenes":[{"name":"Root Scene","nodes":[0]}],"textures":[{"name":"base_color_texture","sampler":0,"source":0}]}