{"accessors":[{"bufferView":0,"byteOffset":0,"componentType":5123,"count":108,"type":"SCALAR"},{"bufferView":1,"byteOffset":0,"componentType":5126,"count":72,"max":[0,2.5,0.0000000596046447753906],"min":[-4,0,-0.30000048875809],"type":"VEC3"},{"bufferView":2,"byteOffset":0,"componentType":5126,"count":72,"type":"VEC3"},{"bufferView":3,"byteOffset":0,"componentType":5126,"count":72,"type":"VEC2"},{"bufferView":4,"byteOffset":0,"componentType":5123,"count":852,"type":"SCALAR"},{"bufferView":5,"byteOffset":0,"componentType":5126,"count":440,"max":[0,2.33358001708984,0.0709470957517624],"min":[-3.30000019073486,0,-0.00000017881393],"type":"VEC3"},{"bufferView":6,"byteOffset":0,"componentType":5126,"count":440,"type":"VEC3"},{"bufferView":7,"byteOffset":0,"componentType":5126,"count":440,"type":"VEC2"}],"asset":{"generator":"FBX2glTF v0.13.1","version":"2.0"},"bufferViews":[{"buffer":0,"byteLength":216,"byteOffset":0,"target":34963},{"buffer":0,"byteLength":864,"byteOffset":216,"target":34962},{"buffer":0,"byteLength":864,"byteOffset":1080,"target":34962},{"buffer":0,"byteLength":576,"byteOffset":1944,"target":34962},{"buffer":0,"byteLength":1704,"byteOffset":2520,"target":34963},{"buffer":0,"byteLength":5280,"byteOffset":4224,"target":34962},{"buffer":0,"byteLength":5280,"byteOffset":9504,"target":34962},{"buffer":0,"byteLength":3520,"byteOffset":14784,"target":34962}],"buffers":[{"byteLength":18304,"uri":"SM_fence_04_D.bin"}],"images":[{"name":"Polygon_Camping_Texture_vol2.0","uri":"Polygon_Camping_Texture_vol2.0.jpg"}],"materials":[{"alphaMode":"OPAQUE","doubleSided":false,"extras":{"fromFBX":{"isTruePBR":false,"shadingModel":"Phong"}},"name":"Material","pbrMetallicRoughness":{"baseColorFactor":[1,1,1,1],"baseColorTexture":{"index":0,"texCoord":0},"metallicFactor":0.400000005960464,"roughnessFactor":0.229415729641914}}],"meshes":[{"name":"fence_04_D","primitives":[{"attributes":{"NORMAL":2,"POSITION":1,"TEXCOORD_0":3},"indices":0,"material":0,"mode":4}]},{"name":"fence_04_D_Door_01","primitives":[{"attributes":{"NORMAL":6,"POSITION":5,"TEXCOORD_0":7},"indices":4,"material":0,"mode":4}]}],"nodes":[{"children":[1],"mesh":0,"name":"fence_04_D","rotation":[0,0,0,1],"scale":[1,1,1],"translation":[33,0,-5.34633827209473]},{"mesh":1,"name":"fence_04_D_Door_01","rotation":[0,0,0,1],"scale":[1,1,1],"translation":[-0.34999510645866,0.0832098722457886,-0.18547484278679]}],"samplers":[{}],"scene":0,"scenes":[{"name":"Root Scene","nodes":[0]}],"textures":[{"name":"base_color_texture","sampler":0,"source":0}]}