{"accessors":[{"bufferView":0,"byteOffset":0,"componentType":5123,"count":2898,"type":"SCALAR"},{"bufferView":1,"byteOffset":0,"componentType":5126,"count":1491,"max":[0.000000242143869400024,3.5,0.0000000596046447753906],"min":[-4,0,-4],"type":"VEC3"},{"bufferView":2,"byteOffset":0,"componentType":5126,"count":1491,"type":"VEC3"},{"bufferView":3,"byteOffset":0,"componentType":5126,"count":1491,"type":"VEC2"}],"asset":{"generator":"FBX2glTF v0.13.1","version":"2.0"},"bufferViews":[{"buffer":0,"byteLength":5796,"byteOffset":0,"target":34963},{"buffer":0,"byteLength":17892,"byteOffset":5796,"target":34962},{"buffer":0,"byteLength":17892,"byteOffset":23688,"target":34962},{"buffer":0,"byteLength":11928,"byteOffset":41580,"target":34962}],"buffers":[{"byteLength":53508,"uri":"SM_fence_04_C.bin"}],"images":[{"name":"Polygon_Camping_Texture_vol2.0","uri":"Polygon_Camping_Texture_vol2.0.jpg"}],"materials":[{"alphaMode":"OPAQUE","doubleSided":false,"extras":{"fromFBX":{"isTruePBR":false,"shadingModel":"Phong"}},"name":"Material","pbrMetallicRoughness":{"baseColorFactor":[1,1,1,1],"baseColorTexture":{"index":0,"texCoord":0},"metallicFactor":0.400000005960464,"roughnessFactor":0.229415729641914}}],"meshes":[{"name":"fence_04_C","primitives":[{"attributes":{"NORMAL":2,"POSITION":1,"TEXCOORD_0":3},"indices":0,"material":0,"mode":4}]}],"nodes":[{"mesh":0,"name":"fence_04_C","rotation":[0,0,0,1],"scale":[1,1,1],"translation":[33,0,-1.02802109718323]}],"samplers":[{}],"scene":0,"scenes":[{"name":"Root Scene","nodes":[0]}],"textures":[{"name":"base_color_texture","sampler":0,"source":0}]}