{"accessors":[{"bufferView":0,"byteOffset":0,"componentType":5123,"count":3135,"type":"SCALAR"},{"bufferView":1,"byteOffset":0,"componentType":5126,"count":1953,"max":[0.0161503553390503,2,0.0161577165126801],"min":[-3.98384976387024,0,-3.98384237289429],"type":"VEC3"},{"bufferView":2,"byteOffset":0,"componentType":5126,"count":1953,"type":"VEC3"},{"bufferView":3,"byteOffset":0,"componentType":5126,"count":1953,"type":"VEC2"}],"asset":{"generator":"FBX2glTF v0.13.1","version":"2.0"},"bufferViews":[{"buffer":0,"byteLength":6270,"byteOffset":0,"target":34963},{"buffer":0,"byteLength":23436,"byteOffset":6272,"target":34962},{"buffer":0,"byteLength":23436,"byteOffset":29708,"target":34962},{"buffer":0,"byteLength":15624,"byteOffset":53144,"target":34962}],"buffers":[{"byteLength":68768,"uri":"SM_fence_02_C.bin"}],"images":[{"name":"Polygon_Camping_Texture_vol2.0","uri":"Polygon_Camping_Texture_vol2.0.jpg"}],"materials":[{"alphaMode":"OPAQUE","doubleSided":false,"extras":{"fromFBX":{"isTruePBR":false,"shadingModel":"Phong"}},"name":"Material","pbrMetallicRoughness":{"baseColorFactor":[1,1,1,1],"baseColorTexture":{"index":0,"texCoord":0},"metallicFactor":0.400000005960464,"roughnessFactor":0.229415729641914}}],"meshes":[{"name":"fence_02_C","primitives":[{"attributes":{"NORMAL":2,"POSITION":1,"TEXCOORD_0":3},"indices":0,"material":0,"mode":4}]}],"nodes":[{"mesh":0,"name":"fence_02_C","rotation":[0,0,0,1],"scale":[1,1,1],"translation":[45.9919242858887,0,-0.63735049962997]}],"samplers":[{}],"scene":0,"scenes":[{"name":"Root Scene","nodes":[0]}],"textures":[{"name":"base_color_texture","sampler":0,"source":0}]}