{"accessors":[{"bufferView":0,"byteOffset":0,"componentType":5123,"count":606,"type":"SCALAR"},{"bufferView":1,"byteOffset":0,"componentType":5126,"count":326,"max":[1,0.449999988079071,0.0249999966472387],"min":[-1,0,-0.02499999664724],"type":"VEC3"},{"bufferView":2,"byteOffset":0,"componentType":5126,"count":326,"type":"VEC3"},{"bufferView":3,"byteOffset":0,"componentType":5126,"count":326,"type":"VEC2"}],"asset":{"generator":"FBX2glTF v0.13.1","version":"2.0"},"bufferViews":[{"buffer":0,"byteLength":1212,"byteOffset":0,"target":34963},{"buffer":0,"byteLength":3912,"byteOffset":1212,"target":34962},{"buffer":0,"byteLength":3912,"byteOffset":5124,"target":34962},{"buffer":0,"byteLength":2608,"byteOffset":9036,"target":34962}],"buffers":[{"byteLength":11644,"uri":"SM_fence_010.bin"}],"images":[{"name":"Polygon_Camping_Texture_vol2.0","uri":"Polygon_Camping_Texture_vol2.0.jpg"}],"materials":[{"alphaMode":"OPAQUE","doubleSided":false,"extras":{"fromFBX":{"isTruePBR":false,"shadingModel":"Phong"}},"name":"Material","pbrMetallicRoughness":{"baseColorFactor":[1,1,1,1],"baseColorTexture":{"index":0,"texCoord":0},"metallicFactor":0.400000005960464,"roughnessFactor":0.229415729641914}}],"meshes":[{"name":"fence_010","primitives":[{"attributes":{"NORMAL":2,"POSITION":1,"TEXCOORD_0":3},"indices":0,"material":0,"mode":4}]}],"nodes":[{"mesh":0,"name":"fence_010","rotation":[0,0,0,1],"scale":[1,1,1],"translation":[4,0,0]}],"samplers":[{}],"scene":0,"scenes":[{"name":"Root Scene","nodes":[0]}],"textures":[{"name":"base_color_texture","sampler":0,"source":0}]}