{"accessors":[{"bufferView":0,"byteOffset":0,"componentType":5123,"count":156,"type":"SCALAR"},{"bufferView":1,"byteOffset":0,"componentType":5126,"count":88,"max":[0.0207123458385468,2.04062414169312,0.0207124352455139],"min":[-3.98071217536926,0,-0.52071243524551],"type":"VEC3"},{"bufferView":2,"byteOffset":0,"componentType":5126,"count":88,"type":"VEC3"},{"bufferView":3,"byteOffset":0,"componentType":5126,"count":88,"type":"VEC2"},{"bufferView":4,"byteOffset":0,"componentType":5123,"count":282,"type":"SCALAR"},{"bufferView":5,"byteOffset":0,"componentType":5126,"count":188,"max":[0,1.72445034980774,0.0197210442274809],"min":[-1.47246301174164,0,-0.04173609614372],"type":"VEC3"},{"bufferView":6,"byteOffset":0,"componentType":5126,"count":188,"type":"VEC3"},{"bufferView":7,"byteOffset":0,"componentType":5126,"count":188,"type":"VEC2"},{"bufferView":8,"byteOffset":0,"componentType":5123,"count":282,"type":"SCALAR"},{"bufferView":9,"byteOffset":0,"componentType":5126,"count":188,"max":[1.47246301174164,1.72445034980774,0.0197210442274809],"min":[0,0,-0.04173609614372],"type":"VEC3"},{"bufferView":10,"byteOffset":0,"componentType":5126,"count":188,"type":"VEC3"},{"bufferView":11,"byteOffset":0,"componentType":5126,"count":188,"type":"VEC2"}],"asset":{"generator":"FBX2glTF v0.13.1","version":"2.0"},"bufferViews":[{"buffer":0,"byteLength":312,"byteOffset":0,"target":34963},{"buffer":0,"byteLength":1056,"byteOffset":312,"target":34962},{"buffer":0,"byteLength":1056,"byteOffset":1368,"target":34962},{"buffer":0,"byteLength":704,"byteOffset":2424,"target":34962},{"buffer":0,"byteLength":564,"byteOffset":3128,"target":34963},{"buffer":0,"byteLength":2256,"byteOffset":3692,"target":34962},{"buffer":0,"byteLength":2256,"byteOffset":5948,"target":34962},{"buffer":0,"byteLength":1504,"byteOffset":8204,"target":34962},{"buffer":0,"byteLength":564,"byteOffset":9708,"target":34963},{"buffer":0,"byteLength":2256,"byteOffset":10272,"target":34962},{"buffer":0,"byteLength":2256,"byteOffset":12528,"target":34962},{"buffer":0,"byteLength":1504,"byteOffset":14784,"target":34962}],"buffers":[{"byteLength":16288,"uri":"SM_fence_03_D.bin"}],"images":[{"name":"Polygon_Camping_Texture_vol2.0","uri":"Polygon_Camping_Texture_vol2.0.jpg"}],"materials":[{"alphaMode":"OPAQUE","doubleSided":false,"extras":{"fromFBX":{"isTruePBR":false,"shadingModel":"Phong"}},"name":"Material","pbrMetallicRoughness":{"baseColorFactor":[1,1,1,1],"baseColorTexture":{"index":0,"texCoord":0},"metallicFactor":0.400000005960464,"roughnessFactor":0.229415729641914}}],"meshes":[{"name":"fence_03_D","primitives":[{"attributes":{"NORMAL":2,"POSITION":1,"TEXCOORD_0":3},"indices":0,"material":0,"mode":4}]},{"name":"fence_03_D_Door_01","primitives":[{"attributes":{"NORMAL":6,"POSITION":5,"TEXCOORD_0":7},"indices":4,"material":0,"mode":4}]},{"name":"fence_03_D_Door_02","primitives":[{"attributes":{"NORMAL":10,"POSITION":9,"TEXCOORD_0":11},"indices":8,"material":0,"mode":4}]}],"nodes":[{"children":[1,2],"mesh":0,"name":"fence_03_D","rotation":[0,0,0,1],"scale":[1,1,1],"translation":[39.6937637329102,0,-5.24559783935547]},{"mesh":1,"name":"fence_03_D_Door_01","rotation":[0,0,0,1],"scale":[1,1,1],"translation":[-0.5,0.113398969173431,-0.25]},{"mesh":2,"name":"fence_03_D_Door_02","rotation":[0,0,0,1],"scale":[1,1,1],"translation":[-3.46000003814697,0.113398969173431,-0.25]}],"samplers":[{}],"scene":0,"scenes":[{"name":"Root Scene","nodes":[0]}],"textures":[{"name":"base_color_texture","sampler":0,"source":0}]}