{"accessors":[{"bufferView":0,"byteOffset":0,"componentType":5123,"count":252,"type":"SCALAR"},{"bufferView":1,"byteOffset":0,"componentType":5126,"count":160,"max":[0.0123934745788574,2.0706946849823,0.0123932361602783],"min":[-3.98833513259888,0,-0.16239356994629],"type":"VEC3"},{"bufferView":2,"byteOffset":0,"componentType":5126,"count":160,"type":"VEC3"},{"bufferView":3,"byteOffset":0,"componentType":5126,"count":160,"type":"VEC2"},{"bufferView":4,"byteOffset":0,"componentType":5123,"count":600,"type":"SCALAR"},{"bufferView":5,"byteOffset":0,"componentType":5126,"count":400,"max":[1.76557731628418,1.77674555778503,0.0535998344421387],"min":[-0.00000011920929,-0.16560554504395,-0.01697969436646],"type":"VEC3"},{"bufferView":6,"byteOffset":0,"componentType":5126,"count":400,"type":"VEC3"},{"bufferView":7,"byteOffset":0,"componentType":5126,"count":400,"type":"VEC2"},{"bufferView":8,"byteOffset":0,"componentType":5123,"count":600,"type":"SCALAR"},{"bufferView":9,"byteOffset":0,"componentType":5126,"count":400,"max":[0.000000119209289550781,1.77674555778503,0.0535998344421387],"min":[-1.76557731628418,-0.16560554504395,-0.01697969436646],"type":"VEC3"},{"bufferView":10,"byteOffset":0,"componentType":5126,"count":400,"type":"VEC3"},{"bufferView":11,"byteOffset":0,"componentType":5126,"count":400,"type":"VEC2"}],"asset":{"generator":"FBX2glTF v0.13.1","version":"2.0"},"bufferViews":[{"buffer":0,"byteLength":504,"byteOffset":0,"target":34963},{"buffer":0,"byteLength":1920,"byteOffset":504,"target":34962},{"buffer":0,"byteLength":1920,"byteOffset":2424,"target":34962},{"buffer":0,"byteLength":1280,"byteOffset":4344,"target":34962},{"buffer":0,"byteLength":1200,"byteOffset":5624,"target":34963},{"buffer":0,"byteLength":4800,"byteOffset":6824,"target":34962},{"buffer":0,"byteLength":4800,"byteOffset":11624,"target":34962},{"buffer":0,"byteLength":3200,"byteOffset":16424,"target":34962},{"buffer":0,"byteLength":1200,"byteOffset":19624,"target":34963},{"buffer":0,"byteLength":4800,"byteOffset":20824,"target":34962},{"buffer":0,"byteLength":4800,"byteOffset":25624,"target":34962},{"buffer":0,"byteLength":3200,"byteOffset":30424,"target":34962}],"buffers":[{"byteLength":33624,"uri":"SM_fence_01_D.bin"}],"images":[{"name":"Polygon_Camping_Texture_vol2.0","uri":"Polygon_Camping_Texture_vol2.0.jpg"}],"materials":[{"alphaMode":"OPAQUE","doubleSided":false,"extras":{"fromFBX":{"isTruePBR":false,"shadingModel":"Phong"}},"name":"Material","pbrMetallicRoughness":{"baseColorFactor":[1,1,1,1],"baseColorTexture":{"index":0,"texCoord":0},"metallicFactor":0.400000005960464,"roughnessFactor":0.229415729641914}}],"meshes":[{"name":"fence_01_D","primitives":[{"attributes":{"NORMAL":2,"POSITION":1,"TEXCOORD_0":3},"indices":0,"material":0,"mode":4}]},{"name":"fence_01_D_Door_02","primitives":[{"attributes":{"NORMAL":6,"POSITION":5,"TEXCOORD_0":7},"indices":4,"material":0,"mode":4}]},{"name":"fence_01_D_Door_01","primitives":[{"attributes":{"NORMAL":10,"POSITION":9,"TEXCOORD_0":11},"indices":8,"material":0,"mode":4}]}],"nodes":[{"children":[1,2],"mesh":0,"name":"fence_01_D","rotation":[0,0,0,1],"scale":[1,1,1],"translation":[50.9085426330566,0,-2.52040863037109]},{"mesh":1,"name":"fence_01_D_Door_02","rotation":[0,0,0,1],"scale":[1,1,1],"translation":[-3.7635498046875,0.207736119627953,-0.08878326416016]},{"mesh":2,"name":"fence_01_D_Door_01","rotation":[0,0,0,1],"scale":[1,1,1],"translation":[-0.21239256858826,0.207736119627953,-0.08878326416016]}],"samplers":[{}],"scene":0,"scenes":[{"name":"Root Scene","nodes":[0]}],"textures":[{"name":"base_color_texture","sampler":0,"source":0}]}