{"accessors":[{"bufferView":0,"byteOffset":0,"componentType":5123,"count":2916,"type":"SCALAR"},{"bufferView":1,"byteOffset":0,"componentType":5126,"count":1573,"max":[0,2,0],"min":[-1.99999976158142,0,-0.09999999403954],"type":"VEC3"},{"bufferView":2,"byteOffset":0,"componentType":5126,"count":1573,"type":"VEC3"},{"bufferView":3,"byteOffset":0,"componentType":5126,"count":1573,"type":"VEC2"}],"asset":{"generator":"FBX2glTF v0.13.1","version":"2.0"},"bufferViews":[{"buffer":0,"byteLength":5832,"byteOffset":0,"target":34963},{"buffer":0,"byteLength":18876,"byteOffset":5832,"target":34962},{"buffer":0,"byteLength":18876,"byteOffset":24708,"target":34962},{"buffer":0,"byteLength":12584,"byteOffset":43584,"target":34962}],"buffers":[{"byteLength":56168,"uri":"SM_fence_06_A.bin"}],"images":[{"name":"Polygon_Camping_Texture_vol2.0","uri":"Polygon_Camping_Texture_vol2.0.jpg"}],"materials":[{"alphaMode":"OPAQUE","doubleSided":false,"extras":{"fromFBX":{"isTruePBR":false,"shadingModel":"Phong"}},"name":"Material","pbrMetallicRoughness":{"baseColorFactor":[1,1,1,1],"baseColorTexture":{"index":0,"texCoord":0},"metallicFactor":0.400000005960464,"roughnessFactor":0.229415729641914}}],"meshes":[{"name":"fence_06_A","primitives":[{"attributes":{"NORMAL":2,"POSITION":1,"TEXCOORD_0":3},"indices":0,"material":0,"mode":4}]}],"nodes":[{"mesh":0,"name":"fence_06_A","rotation":[0,0,0,1],"scale":[1,1,1],"translation":[20.0499992370605,0,0.0499999970197678]}],"samplers":[{}],"scene":0,"scenes":[{"name":"Root Scene","nodes":[0]}],"textures":[{"name":"base_color_texture","sampler":0,"source":0}]}