{"accessors":[{"bufferView":0,"byteOffset":0,"componentType":5123,"count":5796,"type":"SCALAR"},{"bufferView":1,"byteOffset":0,"componentType":5126,"count":3331,"max":[0.0000000223517417907715,2,0],"min":[-1.99999976158142,0,-2],"type":"VEC3"},{"bufferView":2,"byteOffset":0,"componentType":5126,"count":3331,"type":"VEC3"},{"bufferView":3,"byteOffset":0,"componentType":5126,"count":3331,"type":"VEC2"}],"asset":{"generator":"FBX2glTF v0.13.1","version":"2.0"},"bufferViews":[{"buffer":0,"byteLength":11592,"byteOffset":0,"target":34963},{"buffer":0,"byteLength":39972,"byteOffset":11592,"target":34962},{"buffer":0,"byteLength":39972,"byteOffset":51564,"target":34962},{"buffer":0,"byteLength":26648,"byteOffset":91536,"target":34962}],"buffers":[{"byteLength":118184,"uri":"SM_fence_06_B.bin"}],"images":[{"name":"Polygon_Camping_Texture_vol2.0","uri":"Polygon_Camping_Texture_vol2.0.jpg"}],"materials":[{"alphaMode":"OPAQUE","doubleSided":false,"extras":{"fromFBX":{"isTruePBR":false,"shadingModel":"Phong"}},"name":"Material","pbrMetallicRoughness":{"baseColorFactor":[1,1,1,1],"baseColorTexture":{"index":0,"texCoord":0},"metallicFactor":0.400000005960464,"roughnessFactor":0.229415729641914}}],"meshes":[{"name":"fence_06_B","primitives":[{"attributes":{"NORMAL":2,"POSITION":1,"TEXCOORD_0":3},"indices":0,"material":0,"mode":4}]}],"nodes":[{"mesh":0,"name":"fence_06_B","rotation":[0,0,0,1],"scale":[1,1,1],"translation":[20.0499992370605,0,-0.62280279397965]}],"samplers":[{}],"scene":0,"scenes":[{"name":"Root Scene","nodes":[0]}],"textures":[{"name":"base_color_texture","sampler":0,"source":0}]}