{"accessors":[{"bufferView":0,"byteOffset":0,"componentType":5123,"count":72,"type":"SCALAR"},{"bufferView":1,"byteOffset":0,"componentType":5126,"count":48,"max":[0,2,0.0000000149011611938477],"min":[-4.00384998321533,0,-0.14946319162846],"type":"VEC3"},{"bufferView":2,"byteOffset":0,"componentType":5126,"count":48,"type":"VEC3"},{"bufferView":3,"byteOffset":0,"componentType":5126,"count":48,"type":"VEC2"},{"bufferView":4,"byteOffset":0,"componentType":5123,"count":768,"type":"SCALAR"},{"bufferView":5,"byteOffset":0,"componentType":5126,"count":426,"max":[0.000000119209289550781,1.94254696369171,0.0194641053676605],"min":[-1.90550851821899,0,-0.01946392655373],"type":"VEC3"},{"bufferView":6,"byteOffset":0,"componentType":5126,"count":426,"type":"VEC3"},{"bufferView":7,"byteOffset":0,"componentType":5126,"count":426,"type":"VEC2"},{"bufferView":8,"byteOffset":0,"componentType":5123,"count":768,"type":"SCALAR"},{"bufferView":9,"byteOffset":0,"componentType":5126,"count":426,"max":[1.90550851821899,1.94254696369171,0.0194641053676605],"min":[-0.00000011920929,0,-0.01946392655373],"type":"VEC3"},{"bufferView":10,"byteOffset":0,"componentType":5126,"count":426,"type":"VEC3"},{"bufferView":11,"byteOffset":0,"componentType":5126,"count":426,"type":"VEC2"}],"asset":{"generator":"FBX2glTF v0.13.1","version":"2.0"},"bufferViews":[{"buffer":0,"byteLength":144,"byteOffset":0,"target":34963},{"buffer":0,"byteLength":576,"byteOffset":144,"target":34962},{"buffer":0,"byteLength":576,"byteOffset":720,"target":34962},{"buffer":0,"byteLength":384,"byteOffset":1296,"target":34962},{"buffer":0,"byteLength":1536,"byteOffset":1680,"target":34963},{"buffer":0,"byteLength":5112,"byteOffset":3216,"target":34962},{"buffer":0,"byteLength":5112,"byteOffset":8328,"target":34962},{"buffer":0,"byteLength":3408,"byteOffset":13440,"target":34962},{"buffer":0,"byteLength":1536,"byteOffset":16848,"target":34963},{"buffer":0,"byteLength":5112,"byteOffset":18384,"target":34962},{"buffer":0,"byteLength":5112,"byteOffset":23496,"target":34962},{"buffer":0,"byteLength":3408,"byteOffset":28608,"target":34962}],"buffers":[{"byteLength":32016,"uri":"SM_fence_02_D.bin"}],"images":[{"name":"Polygon_Camping_Texture_vol2.0","uri":"Polygon_Camping_Texture_vol2.0.jpg"}],"materials":[{"alphaMode":"OPAQUE","doubleSided":false,"extras":{"fromFBX":{"isTruePBR":false,"shadingModel":"Phong"}},"name":"Material","pbrMetallicRoughness":{"baseColorFactor":[1,1,1,1],"baseColorTexture":{"index":0,"texCoord":0},"metallicFactor":0.400000005960464,"roughnessFactor":0.229415729641914}}],"meshes":[{"name":"fence_02_D","primitives":[{"attributes":{"NORMAL":2,"POSITION":1,"TEXCOORD_0":3},"indices":0,"material":0,"mode":4}]},{"name":"fence_02_D_Door_01","primitives":[{"attributes":{"NORMAL":6,"POSITION":5,"TEXCOORD_0":7},"indices":4,"material":0,"mode":4}]},{"name":"fence_02_D_Door_02","primitives":[{"attributes":{"NORMAL":10,"POSITION":9,"TEXCOORD_0":11},"indices":8,"material":0,"mode":4}]}],"nodes":[{"children":[1,2],"mesh":0,"name":"fence_02_D","rotation":[0,0,0,1],"scale":[1,1,1],"translation":[46.0019226074219,0,-4.9037880897522]},{"mesh":1,"name":"fence_02_D_Door_01","rotation":[0,0,0,1],"scale":[1,1,1],"translation":[-0.08997070044279,0.0338056683540344,-0.07572021335363]},{"mesh":2,"name":"fence_02_D_Door_02","rotation":[0,0,0,1],"scale":[1,1,1],"translation":[-3.91387677192688,0.0338056683540344,-0.07572021335363]}],"samplers":[{}],"scene":0,"scenes":[{"name":"Root Scene","nodes":[0]}],"textures":[{"name":"base_color_texture","sampler":0,"source":0}]}