{"accessors":[{"bufferView":0,"byteOffset":0,"componentType":5123,"count":72,"type":"SCALAR"},{"bufferView":1,"byteOffset":0,"componentType":5126,"count":48,"max":[0.000000119209289550781,2.5,0],"min":[-3.9815526008606,0,-0.07990977168083],"type":"VEC3"},{"bufferView":2,"byteOffset":0,"componentType":5126,"count":48,"type":"VEC3"},{"bufferView":3,"byteOffset":0,"componentType":5126,"count":48,"type":"VEC2"},{"bufferView":4,"byteOffset":0,"componentType":5123,"count":1560,"type":"SCALAR"},{"bufferView":5,"byteOffset":0,"componentType":5126,"count":784,"max":[3.88155293464661,2.5,0.0000001564621925354],"min":[0,0,-0.04999984800816],"type":"VEC3"},{"bufferView":6,"byteOffset":0,"componentType":5126,"count":784,"type":"VEC3"},{"bufferView":7,"byteOffset":0,"componentType":5126,"count":784,"type":"VEC2"}],"asset":{"generator":"FBX2glTF v0.13.1","version":"2.0"},"bufferViews":[{"buffer":0,"byteLength":144,"byteOffset":0,"target":34963},{"buffer":0,"byteLength":576,"byteOffset":144,"target":34962},{"buffer":0,"byteLength":576,"byteOffset":720,"target":34962},{"buffer":0,"byteLength":384,"byteOffset":1296,"target":34962},{"buffer":0,"byteLength":3120,"byteOffset":1680,"target":34963},{"buffer":0,"byteLength":9408,"byteOffset":4800,"target":34962},{"buffer":0,"byteLength":9408,"byteOffset":14208,"target":34962},{"buffer":0,"byteLength":6272,"byteOffset":23616,"target":34962}],"buffers":[{"byteLength":29888,"uri":"SM_fence_05_D.bin"}],"images":[{"name":"Polygon_Camping_Texture_vol2.0","uri":"Polygon_Camping_Texture_vol2.0.jpg"}],"materials":[{"alphaMode":"OPAQUE","doubleSided":false,"extras":{"fromFBX":{"isTruePBR":false,"shadingModel":"Phong"}},"name":"Material","pbrMetallicRoughness":{"baseColorFactor":[1,1,1,1],"baseColorTexture":{"index":0,"texCoord":0},"metallicFactor":0.400000005960464,"roughnessFactor":0.229415729641914}}],"meshes":[{"name":"fence_05_D","primitives":[{"attributes":{"NORMAL":2,"POSITION":1,"TEXCOORD_0":3},"indices":0,"material":0,"mode":4}]},{"name":"fence_05_D_Door_01","primitives":[{"attributes":{"NORMAL":6,"POSITION":5,"TEXCOORD_0":7},"indices":4,"material":0,"mode":4}]}],"nodes":[{"children":[1],"mesh":0,"name":"fence_05_D","rotation":[0,0,0,1],"scale":[1,1,1],"translation":[26,0,-5.52776336669922]},{"mesh":1,"name":"fence_05_D_Door_01","rotation":[0,0,0,1],"scale":[1,1,1],"translation":[-3.93155026435852,0,-0.01495544426143]}],"samplers":[{}],"scene":0,"scenes":[{"name":"Root Scene","nodes":[0]}],"textures":[{"name":"base_color_texture","sampler":0,"source":0}]}