{"accessors":[{"bufferView":0,"byteOffset":0,"componentType":5123,"count":834,"type":"SCALAR"},{"bufferView":1,"byteOffset":0,"componentType":5126,"count":536,"max":[0.0123934745788574,2.0706946849823,0.012393407523632],"min":[-2.01239395141602,0,-0.16239342093468],"type":"VEC3"},{"bufferView":2,"byteOffset":0,"componentType":5126,"count":536,"type":"VEC3"},{"bufferView":3,"byteOffset":0,"componentType":5126,"count":536,"type":"VEC2"}],"asset":{"generator":"FBX2glTF v0.13.1","version":"2.0"},"bufferViews":[{"buffer":0,"byteLength":1668,"byteOffset":0,"target":34963},{"buffer":0,"byteLength":6432,"byteOffset":1668,"target":34962},{"buffer":0,"byteLength":6432,"byteOffset":8100,"target":34962},{"buffer":0,"byteLength":4288,"byteOffset":14532,"target":34962}],"buffers":[{"byteLength":18820,"uri":"SM_fence_01_B.bin"}],"images":[{"name":"Polygon_Camping_Texture_vol2.0","uri":"Polygon_Camping_Texture_vol2.0.jpg"}],"materials":[{"alphaMode":"OPAQUE","doubleSided":false,"extras":{"fromFBX":{"isTruePBR":false,"shadingModel":"Phong"}},"name":"Material","pbrMetallicRoughness":{"baseColorFactor":[1,1,1,1],"baseColorTexture":{"index":0,"texCoord":0},"metallicFactor":0.400000005960464,"roughnessFactor":0.229415729641914}}],"meshes":[{"name":"fence_01_B","primitives":[{"attributes":{"NORMAL":2,"POSITION":1,"TEXCOORD_0":3},"indices":0,"material":0,"mode":4}]}],"nodes":[{"mesh":0,"name":"fence_01_B","rotation":[0,0,0,1],"scale":[1,1,1],"translation":[50.9085426330566,0,0.0750000029802322]}],"samplers":[{}],"scene":0,"scenes":[{"name":"Root Scene","nodes":[0]}],"textures":[{"name":"base_color_texture","sampler":0,"source":0}]}