{"accessors":[{"bufferView":0,"byteOffset":0,"componentType":5123,"count":636,"type":"SCALAR"},{"bufferView":1,"byteOffset":0,"componentType":5126,"count":356,"max":[0.999163329601288,0.0692318677902222,0.150000005960464],"min":[-0.99916332960129,0,-0.15000000596046],"type":"VEC3"},{"bufferView":2,"byteOffset":0,"componentType":5126,"count":356,"type":"VEC3"},{"bufferView":3,"byteOffset":0,"componentType":5126,"count":356,"type":"VEC2"}],"asset":{"generator":"FBX2glTF v0.13.1","version":"2.0"},"bufferViews":[{"buffer":0,"byteLength":1272,"byteOffset":0,"target":34963},{"buffer":0,"byteLength":4272,"byteOffset":1272,"target":34962},{"buffer":0,"byteLength":4272,"byteOffset":5544,"target":34962},{"buffer":0,"byteLength":2848,"byteOffset":9816,"target":34962}],"buffers":[{"byteLength":12664,"uri":"SM_Artificial_unevenness_04.bin"}],"images":[{"name":"Polygon_Camping_Texture_vol2.0","uri":"Polygon_Camping_Texture_vol2.0.jpg"}],"materials":[{"alphaMode":"OPAQUE","doubleSided":false,"extras":{"fromFBX":{"isTruePBR":false,"shadingModel":"Phong"}},"name":"Main_material","pbrMetallicRoughness":{"baseColorFactor":[1,1,1,1],"baseColorTexture":{"index":0,"texCoord":0},"metallicFactor":0.400000005960464,"roughnessFactor":0.272165536880493}}],"meshes":[{"name":"Artificial_unevenness_04","primitives":[{"attributes":{"NORMAL":2,"POSITION":1,"TEXCOORD_0":3},"indices":0,"material":0,"mode":4}]}],"nodes":[{"mesh":0,"name":"Artificial_unevenness_04","rotation":[0,0,0,1],"scale":[1,1,1],"translation":[13.4002819061279,0,85.8438034057617]}],"samplers":[{}],"scene":0,"scenes":[{"name":"Root Scene","nodes":[0]}],"textures":[{"name":"base_color_texture","sampler":0,"source":0}]}