{"accessors":[{"bufferView":0,"byteOffset":0,"componentType":5123,"count":2466,"type":"SCALAR"},{"bufferView":1,"byteOffset":0,"componentType":5126,"count":1499,"max":[0.369256913661957,1.8041570186615,0.596599638462067],"min":[-0.36925691366196,-0.00168445252348,-0.5],"type":"VEC3"},{"bufferView":2,"byteOffset":0,"componentType":5126,"count":1499,"type":"VEC3"},{"bufferView":3,"byteOffset":0,"componentType":5126,"count":1499,"type":"VEC2"}],"asset":{"generator":"FBX2glTF v0.13.1","version":"2.0"},"bufferViews":[{"buffer":0,"byteLength":4932,"byteOffset":0,"target":34963},{"buffer":0,"byteLength":17988,"byteOffset":4932,"target":34962},{"buffer":0,"byteLength":17988,"byteOffset":22920,"target":34962},{"buffer":0,"byteLength":11992,"byteOffset":40908,"target":34962}],"buffers":[{"byteLength":52900,"uri":"SM_ATM.bin"}],"images":[{"name":"Polygon_Camping_Texture_vol2.0","uri":"Polygon_Camping_Texture_vol2.0.jpg"}],"materials":[{"alphaMode":"OPAQUE","doubleSided":false,"extras":{"fromFBX":{"isTruePBR":false,"shadingModel":"Phong"}},"name":"Main_material","pbrMetallicRoughness":{"baseColorFactor":[1,1,1,1],"baseColorTexture":{"index":0,"texCoord":0},"metallicFactor":0.400000005960464,"roughnessFactor":0.272165536880493}}],"meshes":[{"name":"ATM","primitives":[{"attributes":{"NORMAL":2,"POSITION":1,"TEXCOORD_0":3},"indices":0,"material":0,"mode":4}]}],"nodes":[{"mesh":0,"name":"ATM","rotation":[0,0,0,1],"scale":[1,1,1],"translation":[32.210018157959,0,81.5226593017578]}],"samplers":[{}],"scene":0,"scenes":[{"name":"Root Scene","nodes":[0]}],"textures":[{"name":"base_color_texture","sampler":0,"source":0}]}