{"accessors":[{"bufferView":0,"byteOffset":0,"componentType":5123,"count":402,"type":"SCALAR"},{"bufferView":1,"byteOffset":0,"componentType":5126,"count":244,"max":[0.443025499582291,5.5023832321167,0.443025499582291],"min":[-0.44302549958229,-0.07000000029802,-0.44302549958229],"type":"VEC3"},{"bufferView":2,"byteOffset":0,"componentType":5126,"count":244,"type":"VEC3"},{"bufferView":3,"byteOffset":0,"componentType":5126,"count":244,"type":"VEC2"},{"bufferView":4,"byteOffset":0,"componentType":5123,"count":648,"type":"SCALAR"},{"bufferView":5,"byteOffset":0,"componentType":5126,"count":330,"max":[1.39340281486511,5.00165891647339,0.634007334709167],"min":[-1.39340281486511,3.32257175445557,-0.33234071731567],"type":"VEC3"},{"bufferView":6,"byteOffset":0,"componentType":5126,"count":330,"type":"VEC3"},{"bufferView":7,"byteOffset":0,"componentType":5126,"count":330,"type":"VEC2"}],"asset":{"generator":"FBX2glTF v0.13.1","version":"2.0"},"bufferViews":[{"buffer":0,"byteLength":804,"byteOffset":0,"target":34963},{"buffer":0,"byteLength":2928,"byteOffset":804,"target":34962},{"buffer":0,"byteLength":2928,"byteOffset":3732,"target":34962},{"buffer":0,"byteLength":1952,"byteOffset":6660,"target":34962},{"buffer":0,"byteLength":1296,"byteOffset":8612,"target":34963},{"buffer":0,"byteLength":3960,"byteOffset":9908,"target":34962},{"buffer":0,"byteLength":3960,"byteOffset":13868,"target":34962},{"buffer":0,"byteLength":2640,"byteOffset":17828,"target":34962}],"buffers":[{"byteLength":20468,"uri":"SM_banner_02.bin"}],"images":[{"name":"Polygon_Camping_Texture_vol2.0","uri":"Polygon_Camping_Texture_vol2.0.jpg"}],"materials":[{"alphaMode":"OPAQUE","doubleSided":false,"extras":{"fromFBX":{"isTruePBR":false,"shadingModel":"Phong"}},"name":"Main_material","pbrMetallicRoughness":{"baseColorFactor":[1,1,1,1],"baseColorTexture":{"index":0,"texCoord":0},"metallicFactor":0.400000005960464,"roughnessFactor":0.272165536880493}}],"meshes":[{"name":"banner_02","primitives":[{"attributes":{"NORMAL":2,"POSITION":1,"TEXCOORD_0":3},"indices":0,"material":0,"mode":4}]},{"name":"banner_A","primitives":[{"attributes":{"NORMAL":6,"POSITION":5,"TEXCOORD_0":7},"indices":4,"material":0,"mode":4}]}],"nodes":[{"children":[1],"mesh":0,"name":"banner_02","rotation":[0,0,0,1],"scale":[1,1,1],"translation":[21.0354557037354,0,80.4584503173828]},{"mesh":1,"name":"banner_A","rotation":[0,0,0,1],"scale":[1,1,1],"translation":[0,-0.10030873864889,0.00000488281239086064]}],"samplers":[{}],"scene":0,"scenes":[{"name":"Root Scene","nodes":[0]}],"textures":[{"name":"base_color_texture","sampler":0,"source":0}]}