{"accessors":[{"bufferView":0,"byteOffset":0,"componentType":5123,"count":144,"type":"SCALAR"},{"bufferView":1,"byteOffset":0,"componentType":5126,"count":80,"max":[2.00001907348633,0.868737518787384,3.99999809265137],"min":[-1.99999701976776,0,-4],"type":"VEC3"},{"bufferView":2,"byteOffset":0,"componentType":5126,"count":80,"type":"VEC3"},{"bufferView":3,"byteOffset":0,"componentType":5126,"count":80,"type":"VEC2"}],"asset":{"generator":"FBX2glTF v0.13.1","version":"2.0"},"bufferViews":[{"buffer":0,"byteLength":288,"byteOffset":0,"target":34963},{"buffer":0,"byteLength":960,"byteOffset":288,"target":34962},{"buffer":0,"byteLength":960,"byteOffset":1248,"target":34962},{"buffer":0,"byteLength":640,"byteOffset":2208,"target":34962}],"buffers":[{"byteLength":2848,"uri":"SM_brige_08.bin"}],"images":[{"name":"Polygon_Texture_vol2","uri":"Polygon_Texture_vol2.png"}],"materials":[{"alphaMode":"OPAQUE","doubleSided":false,"extras":{"fromFBX":{"isTruePBR":false,"shadingModel":"Phong"}},"name":"Main_material","pbrMetallicRoughness":{"baseColorFactor":[1,1,1,1],"baseColorTexture":{"index":0,"texCoord":0},"metallicFactor":0.400000005960464,"roughnessFactor":0.272165536880493}}],"meshes":[{"name":"brige_08","primitives":[{"attributes":{"NORMAL":2,"POSITION":1,"TEXCOORD_0":3},"indices":0,"material":0,"mode":4}]}],"nodes":[{"mesh":0,"name":"brige_08","rotation":[0,0,0,1],"scale":[1,1,1],"translation":[109.612419128418,0,43.2813873291016]}],"samplers":[{}],"scene":0,"scenes":[{"name":"Root Scene","nodes":[0]}],"textures":[{"name":"base_color_texture","sampler":0,"source":0}]}