{"accessors":[{"bufferView":0,"byteOffset":0,"componentType":5123,"count":1440,"type":"SCALAR"},{"bufferView":1,"byteOffset":0,"componentType":5126,"count":864,"max":[0.766012609004974,0.538663506507874,0.278512209653854],"min":[-0.76600217819214,-0.00000001490116,-0.27851220965385],"type":"VEC3"},{"bufferView":2,"byteOffset":0,"componentType":5126,"count":864,"type":"VEC3"},{"bufferView":3,"byteOffset":0,"componentType":5126,"count":864,"type":"VEC2"}],"asset":{"generator":"FBX2glTF v0.13.1","version":"2.0"},"bufferViews":[{"buffer":0,"byteLength":2880,"byteOffset":0,"target":34963},{"buffer":0,"byteLength":10368,"byteOffset":2880,"target":34962},{"buffer":0,"byteLength":10368,"byteOffset":13248,"target":34962},{"buffer":0,"byteLength":6912,"byteOffset":23616,"target":34962}],"buffers":[{"byteLength":30528,"uri":"SM_bicycle_parking.bin"}],"images":[{"name":"Polygon_Camping_Texture_vol2.0","uri":"Polygon_Camping_Texture_vol2.0.jpg"}],"materials":[{"alphaMode":"OPAQUE","doubleSided":false,"extras":{"fromFBX":{"isTruePBR":false,"shadingModel":"Phong"}},"name":"Main_material","pbrMetallicRoughness":{"baseColorFactor":[1,1,1,1],"baseColorTexture":{"index":0,"texCoord":0},"metallicFactor":0.400000005960464,"roughnessFactor":0.272165536880493}}],"meshes":[{"name":"bicycle_parking","primitives":[{"attributes":{"NORMAL":2,"POSITION":1,"TEXCOORD_0":3},"indices":0,"material":0,"mode":4}]}],"nodes":[{"mesh":0,"name":"bicycle_parking","rotation":[0,0,0,1],"scale":[1,1,1],"translation":[34.9994812011719,-0.00000001303852,81.5226593017578]}],"samplers":[{}],"scene":0,"scenes":[{"name":"Root Scene","nodes":[0]}],"textures":[{"name":"base_color_texture","sampler":0,"source":0}]}