{"accessors":[{"bufferView":0,"byteOffset":0,"componentType":5123,"count":2958,"type":"SCALAR"},{"bufferView":1,"byteOffset":0,"componentType":5126,"count":1900,"max":[2.89044785499573,11.6316375732422,2.842857837677],"min":[-2.89044785499573,0,-2.90637016296387],"type":"VEC3"},{"bufferView":2,"byteOffset":0,"componentType":5126,"count":1900,"type":"VEC3"},{"bufferView":3,"byteOffset":0,"componentType":5126,"count":1900,"type":"VEC2"}],"asset":{"generator":"FBX2glTF v0.13.1","version":"2.0"},"bufferViews":[{"buffer":0,"byteLength":5916,"byteOffset":0,"target":34963},{"buffer":0,"byteLength":22800,"byteOffset":5916,"target":34962},{"buffer":0,"byteLength":22800,"byteOffset":28716,"target":34962},{"buffer":0,"byteLength":15200,"byteOffset":51516,"target":34962}],"buffers":[{"byteLength":66716,"uri":"SM_Balloon_01.bin"}],"images":[{"name":"Polygon_Camping_Texture_vol2.0","uri":"Polygon_Camping_Texture_vol2.0.jpg"}],"materials":[{"alphaMode":"OPAQUE","doubleSided":false,"extras":{"fromFBX":{"isTruePBR":false,"shadingModel":"Phong"}},"name":"Main_material","pbrMetallicRoughness":{"baseColorFactor":[1,1,1,1],"baseColorTexture":{"index":0,"texCoord":0},"metallicFactor":0.400000005960464,"roughnessFactor":0.272165536880493}}],"meshes":[{"name":"Balloon_01","primitives":[{"attributes":{"NORMAL":2,"POSITION":1,"TEXCOORD_0":3},"indices":0,"material":0,"mode":4}]}],"nodes":[{"mesh":0,"name":"Balloon_01","rotation":[0,0,0,1],"scale":[1,1,1],"translation":[34.7646598815918,9.53096485137939,77.5520706176758]}],"samplers":[{}],"scene":0,"scenes":[{"name":"Root Scene","nodes":[0]}],"textures":[{"name":"base_color_texture","sampler":0,"source":0}]}