{"accessors":[{"bufferView":0,"byteOffset":0,"componentType":5123,"count":3318,"type":"SCALAR"},{"bufferView":1,"byteOffset":0,"componentType":5126,"count":1975,"max":[3.00000023841858,2.02410984039307,0],"min":[-3.00000023841858,0,-8.00000190734863],"type":"VEC3"},{"bufferView":2,"byteOffset":0,"componentType":5126,"count":1975,"type":"VEC3"},{"bufferView":3,"byteOffset":0,"componentType":5126,"count":1975,"type":"VEC2"}],"asset":{"generator":"FBX2glTF v0.13.1","version":"2.0"},"bufferViews":[{"buffer":0,"byteLength":6636,"byteOffset":0,"target":34963},{"buffer":0,"byteLength":23700,"byteOffset":6636,"target":34962},{"buffer":0,"byteLength":23700,"byteOffset":30336,"target":34962},{"buffer":0,"byteLength":15800,"byteOffset":54036,"target":34962}],"buffers":[{"byteLength":69836,"uri":"SM_brige_01.bin"}],"images":[{"name":"Polygon_Texture_vol2","uri":"Polygon_Texture_vol2.png"}],"materials":[{"alphaMode":"OPAQUE","doubleSided":false,"extras":{"fromFBX":{"isTruePBR":false,"shadingModel":"Phong"}},"name":"Main_material","pbrMetallicRoughness":{"baseColorFactor":[1,1,1,1],"baseColorTexture":{"index":0,"texCoord":0},"metallicFactor":0.400000005960464,"roughnessFactor":0.272165536880493}}],"meshes":[{"name":"brige_01","primitives":[{"attributes":{"NORMAL":2,"POSITION":1,"TEXCOORD_0":3},"indices":0,"material":0,"mode":4}]}],"nodes":[{"mesh":0,"name":"brige_01","rotation":[0,0,0,1],"scale":[1,1,1],"translation":[76.1592330932617,0,-2.19579076766968]}],"samplers":[{}],"scene":0,"scenes":[{"name":"Root Scene","nodes":[0]}],"textures":[{"name":"base_color_texture","sampler":0,"source":0}]}