{"accessors":[{"bufferView":0,"byteOffset":0,"componentType":5123,"count":6927,"type":"SCALAR"},{"bufferView":1,"byteOffset":0,"componentType":5126,"count":4110,"max":[15.9999980926514,3.55441117286682,9],"min":[-15.9999980926514,0,-9],"type":"VEC3"},{"bufferView":2,"byteOffset":0,"componentType":5126,"count":4110,"type":"VEC3"},{"bufferView":3,"byteOffset":0,"componentType":5126,"count":4110,"type":"VEC2"}],"asset":{"generator":"FBX2glTF v0.13.1","version":"2.0"},"bufferViews":[{"buffer":0,"byteLength":13854,"byteOffset":0,"target":34963},{"buffer":0,"byteLength":49320,"byteOffset":13856,"target":34962},{"buffer":0,"byteLength":49320,"byteOffset":63176,"target":34962},{"buffer":0,"byteLength":32880,"byteOffset":112496,"target":34962}],"buffers":[{"byteLength":145376,"uri":"SM_basketball_playground_01.bin"}],"images":[{"name":"Polygon_Camping_Texture_vol2.0","uri":"Polygon_Camping_Texture_vol2.0.jpg"}],"materials":[{"alphaMode":"OPAQUE","doubleSided":false,"extras":{"fromFBX":{"isTruePBR":false,"shadingModel":"Phong"}},"name":"Main_material","pbrMetallicRoughness":{"baseColorFactor":[1,1,1,1],"baseColorTexture":{"index":0,"texCoord":0},"metallicFactor":0.400000005960464,"roughnessFactor":0.272165536880493}}],"meshes":[{"name":"basketball_playground_01","primitives":[{"attributes":{"NORMAL":2,"POSITION":1,"TEXCOORD_0":3},"indices":0,"material":0,"mode":4}]}],"nodes":[{"mesh":0,"name":"basketball_playground_01","rotation":[0,0,0,1],"scale":[1,1,1],"translation":[65.0290374755859,0,22.0695133209229]}],"samplers":[{}],"scene":0,"scenes":[{"name":"Root Scene","nodes":[0]}],"textures":[{"name":"base_color_texture","sampler":0,"source":0}]}