{"accessors":[{"bufferView":0,"byteOffset":0,"componentType":5123,"count":420,"type":"SCALAR"},{"bufferView":1,"byteOffset":0,"componentType":5126,"count":256,"max":[1.43439388275146,0.0442791059613228,0.0442791059613228],"min":[-1.43439340591431,-0.04427910596132,-0.04427910596132],"type":"VEC3"},{"bufferView":2,"byteOffset":0,"componentType":5126,"count":256,"type":"VEC3"},{"bufferView":3,"byteOffset":0,"componentType":5126,"count":256,"type":"VEC2"}],"asset":{"generator":"FBX2glTF v0.13.1","version":"2.0"},"bufferViews":[{"buffer":0,"byteLength":840,"byteOffset":0,"target":34963},{"buffer":0,"byteLength":3072,"byteOffset":840,"target":34962},{"buffer":0,"byteLength":3072,"byteOffset":3912,"target":34962},{"buffer":0,"byteLength":2048,"byteOffset":6984,"target":34962}],"buffers":[{"byteLength":9032,"uri":"SM_barbell_bar_01.bin"}],"images":[{"name":"Polygon_Camping_Texture_vol2.0","uri":"Polygon_Camping_Texture_vol2.0.jpg"}],"materials":[{"alphaMode":"OPAQUE","doubleSided":false,"extras":{"fromFBX":{"isTruePBR":false,"shadingModel":"Phong"}},"name":"Main_material","pbrMetallicRoughness":{"baseColorFactor":[1,1,1,1],"baseColorTexture":{"index":0,"texCoord":0},"metallicFactor":0.400000005960464,"roughnessFactor":0.272165536880493}}],"meshes":[{"name":"barbell_bar_01","primitives":[{"attributes":{"NORMAL":2,"POSITION":1,"TEXCOORD_0":3},"indices":0,"material":0,"mode":4}]}],"nodes":[{"mesh":0,"name":"barbell_bar_01","rotation":[0,0,0,1],"scale":[1,1,1],"translation":[35.9977340698242,1.32479906082153,90.1222839355469]}],"samplers":[{}],"scene":0,"scenes":[{"name":"Root Scene","nodes":[0]}],"textures":[{"name":"base_color_texture","sampler":0,"source":0}]}