{"accessors":[{"bufferView":0,"byteOffset":0,"componentType":5123,"count":2688,"type":"SCALAR"},{"bufferView":1,"byteOffset":0,"componentType":5126,"count":1600,"max":[0.270301580429077,0.861166417598724,0.272072494029999],"min":[-0.27030169963837,-0.00000000790875,-0.05484571307898],"type":"VEC3"},{"bufferView":2,"byteOffset":0,"componentType":5126,"count":1600,"type":"VEC3"},{"bufferView":3,"byteOffset":0,"componentType":5126,"count":1600,"type":"VEC2"}],"asset":{"generator":"FBX2glTF v0.13.1","version":"2.0"},"bufferViews":[{"buffer":0,"byteLength":5376,"byteOffset":0,"target":34963},{"buffer":0,"byteLength":19200,"byteOffset":5376,"target":34962},{"buffer":0,"byteLength":19200,"byteOffset":24576,"target":34962},{"buffer":0,"byteLength":12800,"byteOffset":43776,"target":34962}],"buffers":[{"byteLength":56576,"uri":"SM_building_lamp_01.bin"}],"images":[{"name":"Polygon_Camping_Texture_vol2.0","uri":"Polygon_Camping_Texture_vol2.0.jpg"}],"materials":[{"alphaMode":"OPAQUE","doubleSided":false,"extras":{"fromFBX":{"isTruePBR":false,"shadingModel":"Phong"}},"name":"Main_material","pbrMetallicRoughness":{"baseColorFactor":[1,1,1,1],"baseColorTexture":{"index":0,"texCoord":0},"metallicFactor":0.400000005960464,"roughnessFactor":0.272165536880493}}],"meshes":[{"name":"building_lamp_01","primitives":[{"attributes":{"NORMAL":2,"POSITION":1,"TEXCOORD_0":3},"indices":0,"material":0,"mode":4}]}],"nodes":[{"mesh":0,"name":"building_lamp_01","rotation":[0,0,0,1],"scale":[1,1,1],"translation":[12.0146446228027,0,85.8744888305664]}],"samplers":[{}],"scene":0,"scenes":[{"name":"Root Scene","nodes":[0]}],"textures":[{"name":"base_color_texture","sampler":0,"source":0}]}