{"accessors":[{"bufferView":0,"byteOffset":0,"componentType":5123,"count":1320,"type":"SCALAR"},{"bufferView":1,"byteOffset":0,"componentType":5126,"count":880,"max":[1.24777841567993,0.54345691204071,0.74578583240509],"min":[-1.24781048297882,0,-0.26831549406052],"type":"VEC3"},{"bufferView":2,"byteOffset":0,"componentType":5126,"count":880,"type":"VEC3"},{"bufferView":3,"byteOffset":0,"componentType":5126,"count":880,"type":"VEC2"}],"asset":{"generator":"FBX2glTF v0.13.1","version":"2.0"},"bufferViews":[{"buffer":0,"byteLength":2640,"byteOffset":0,"target":34963},{"buffer":0,"byteLength":10560,"byteOffset":2640,"target":34962},{"buffer":0,"byteLength":10560,"byteOffset":13200,"target":34962},{"buffer":0,"byteLength":7040,"byteOffset":23760,"target":34962}],"buffers":[{"byteLength":30800,"uri":"SM_bench_02.bin"}],"images":[{"name":"Polygon_Camping_Texture_vol2.0","uri":"Polygon_Camping_Texture_vol2.0.jpg"}],"materials":[{"alphaMode":"OPAQUE","doubleSided":false,"extras":{"fromFBX":{"isTruePBR":false,"shadingModel":"Phong"}},"name":"Main_material","pbrMetallicRoughness":{"baseColorFactor":[1,1,1,1],"baseColorTexture":{"index":0,"texCoord":0},"metallicFactor":0.400000005960464,"roughnessFactor":0.272165536880493}}],"meshes":[{"name":"bench_02","primitives":[{"attributes":{"NORMAL":2,"POSITION":1,"TEXCOORD_0":3},"indices":0,"material":0,"mode":4}]}],"nodes":[{"mesh":0,"name":"bench_02","rotation":[0,0,0,1],"scale":[1,1,1],"translation":[6.67543697357178,0,79.8490142822266]}],"samplers":[{}],"scene":0,"scenes":[{"name":"Root Scene","nodes":[0]}],"textures":[{"name":"base_color_texture","sampler":0,"source":0}]}