{"accessors":[{"bufferView":0,"byteOffset":0,"componentType":5123,"count":372,"type":"SCALAR"},{"bufferView":1,"byteOffset":0,"componentType":5126,"count":196,"max":[0.541064560413361,1.87578058242798,0.0738630816340446],"min":[-0.54106539487839,0.0760112628340721,-0.07385957241058],"type":"VEC3"},{"bufferView":2,"byteOffset":0,"componentType":5126,"count":196,"type":"VEC3"},{"bufferView":3,"byteOffset":0,"componentType":5126,"count":196,"type":"VEC2"}],"asset":{"generator":"FBX2glTF v0.13.1","version":"2.0"},"bufferViews":[{"buffer":0,"byteLength":744,"byteOffset":0,"target":34963},{"buffer":0,"byteLength":2352,"byteOffset":744,"target":34962},{"buffer":0,"byteLength":2352,"byteOffset":3096,"target":34962},{"buffer":0,"byteLength":1568,"byteOffset":5448,"target":34962}],"buffers":[{"byteLength":7016,"uri":"SM_banner_01.bin"}],"images":[{"name":"Polygon_Camping_Texture_vol2.0","uri":"Polygon_Camping_Texture_vol2.0.jpg"}],"materials":[{"alphaMode":"OPAQUE","doubleSided":false,"extras":{"fromFBX":{"isTruePBR":false,"shadingModel":"Phong"}},"name":"Main_material","pbrMetallicRoughness":{"baseColorFactor":[1,1,1,1],"baseColorTexture":{"index":0,"texCoord":0},"metallicFactor":0.400000005960464,"roughnessFactor":0.272165536880493}}],"meshes":[{"name":"banner_01","primitives":[{"attributes":{"NORMAL":2,"POSITION":1,"TEXCOORD_0":3},"indices":0,"material":0,"mode":4}]}],"nodes":[{"mesh":0,"name":"banner_01","rotation":[0,0,0,1],"scale":[1,1,1],"translation":[18.9227104187012,-0.10030873864889,80.4584503173828]}],"samplers":[{}],"scene":0,"scenes":[{"name":"Root Scene","nodes":[0]}],"textures":[{"name":"base_color_texture","sampler":0,"source":0}]}