{"accessors":[{"bufferView":0,"byteOffset":0,"componentType":5123,"count":1044,"type":"SCALAR"},{"bufferView":1,"byteOffset":0,"componentType":5126,"count":550,"max":[0.340229630470276,1.15668344497681,0.311805367469788],"min":[-1.66023004055023,0.0000000298023223876953,-0.39532965421677],"type":"VEC3"},{"bufferView":2,"byteOffset":0,"componentType":5126,"count":550,"type":"VEC3"},{"bufferView":3,"byteOffset":0,"componentType":5126,"count":550,"type":"VEC2"}],"asset":{"generator":"FBX2glTF v0.13.1","version":"2.0"},"bufferViews":[{"buffer":0,"byteLength":2088,"byteOffset":0,"target":34963},{"buffer":0,"byteLength":6600,"byteOffset":2088,"target":34962},{"buffer":0,"byteLength":6600,"byteOffset":8688,"target":34962},{"buffer":0,"byteLength":4400,"byteOffset":15288,"target":34962}],"buffers":[{"byteLength":19688,"uri":"SM_bench_01.bin"}],"images":[{"name":"Polygon_Camping_Texture_vol2.0","uri":"Polygon_Camping_Texture_vol2.0.jpg"}],"materials":[{"alphaMode":"OPAQUE","doubleSided":false,"extras":{"fromFBX":{"isTruePBR":false,"shadingModel":"Phong"}},"name":"Main_material","pbrMetallicRoughness":{"baseColorFactor":[1,1,1,1],"baseColorTexture":{"index":0,"texCoord":0},"metallicFactor":0.400000005960464,"roughnessFactor":0.272165536880493}}],"meshes":[{"name":"bench_01","primitives":[{"attributes":{"NORMAL":2,"POSITION":1,"TEXCOORD_0":3},"indices":0,"material":0,"mode":4}]}],"nodes":[{"mesh":0,"name":"bench_01","rotation":[0,0,0,1],"scale":[1,1,1],"translation":[3.52515244483948,0,80.3206787109375]}],"samplers":[{}],"scene":0,"scenes":[{"name":"Root Scene","nodes":[0]}],"textures":[{"name":"base_color_texture","sampler":0,"source":0}]}