{"accessors":[{"bufferView":0,"byteOffset":0,"componentType":5123,"count":330,"type":"SCALAR"},{"bufferView":1,"byteOffset":0,"componentType":5126,"count":188,"max":[3.00000023841858,3.14211773872375,0],"min":[-3.00000023841858,-0.00000035762787,-8],"type":"VEC3"},{"bufferView":2,"byteOffset":0,"componentType":5126,"count":188,"type":"VEC3"},{"bufferView":3,"byteOffset":0,"componentType":5126,"count":188,"type":"VEC2"}],"asset":{"generator":"FBX2glTF v0.13.1","version":"2.0"},"bufferViews":[{"buffer":0,"byteLength":660,"byteOffset":0,"target":34963},{"buffer":0,"byteLength":2256,"byteOffset":660,"target":34962},{"buffer":0,"byteLength":2256,"byteOffset":2916,"target":34962},{"buffer":0,"byteLength":1504,"byteOffset":5172,"target":34962}],"buffers":[{"byteLength":6676,"uri":"SM_brige_02.bin"}],"images":[{"name":"Polygon_Texture_vol2","uri":"Polygon_Texture_vol2.png"}],"materials":[{"alphaMode":"OPAQUE","doubleSided":false,"extras":{"fromFBX":{"isTruePBR":false,"shadingModel":"Phong"}},"name":"Main_material","pbrMetallicRoughness":{"baseColorFactor":[1,1,1,1],"baseColorTexture":{"index":0,"texCoord":0},"metallicFactor":0.400000005960464,"roughnessFactor":0.272165536880493}}],"meshes":[{"name":"brige_02","primitives":[{"attributes":{"NORMAL":2,"POSITION":1,"TEXCOORD_0":3},"indices":0,"material":0,"mode":4}]}],"nodes":[{"mesh":0,"name":"brige_02","rotation":[0,0,0,1],"scale":[1,1,1],"translation":[69.4267272949219,0,-2.19578957557678]}],"samplers":[{}],"scene":0,"scenes":[{"name":"Root Scene","nodes":[0]}],"textures":[{"name":"base_color_texture","sampler":0,"source":0}]}