{"accessors":[{"bufferView":0,"byteOffset":0,"componentType":5123,"count":468,"type":"SCALAR"},{"bufferView":1,"byteOffset":0,"componentType":5126,"count":264,"max":[3.00000023841858,3.14211773872375,0],"min":[-3.00000023841858,0,-9.99999809265137],"type":"VEC3"},{"bufferView":2,"byteOffset":0,"componentType":5126,"count":264,"type":"VEC3"},{"bufferView":3,"byteOffset":0,"componentType":5126,"count":264,"type":"VEC2"}],"asset":{"generator":"FBX2glTF v0.13.1","version":"2.0"},"bufferViews":[{"buffer":0,"byteLength":936,"byteOffset":0,"target":34963},{"buffer":0,"byteLength":3168,"byteOffset":936,"target":34962},{"buffer":0,"byteLength":3168,"byteOffset":4104,"target":34962},{"buffer":0,"byteLength":2112,"byteOffset":7272,"target":34962}],"buffers":[{"byteLength":9384,"uri":"SM_brige_06.bin"}],"images":[{"name":"Polygon_Texture_vol2","uri":"Polygon_Texture_vol2.png"}],"materials":[{"alphaMode":"OPAQUE","doubleSided":false,"extras":{"fromFBX":{"isTruePBR":false,"shadingModel":"Phong"}},"name":"Main_material","pbrMetallicRoughness":{"baseColorFactor":[1,1,1,1],"baseColorTexture":{"index":0,"texCoord":0},"metallicFactor":0.400000005960464,"roughnessFactor":0.272165536880493}}],"meshes":[{"name":"brige_06","primitives":[{"attributes":{"NORMAL":2,"POSITION":1,"TEXCOORD_0":3},"indices":0,"material":0,"mode":4}]}],"nodes":[{"mesh":0,"name":"brige_06","rotation":[0,0,0,1],"scale":[1,1,1],"translation":[42.7012596130371,0,-0.19579076766968]}],"samplers":[{}],"scene":0,"scenes":[{"name":"Root Scene","nodes":[0]}],"textures":[{"name":"base_color_texture","sampler":0,"source":0}]}