{"accessors":[{"bufferView":0,"byteOffset":0,"componentType":5123,"count":3756,"type":"SCALAR"},{"bufferView":1,"byteOffset":0,"componentType":5126,"count":2191,"max":[2.00046920776367,2.40337467193604,0.791528820991516],"min":[-2.00046706199646,0.000000476837158203125,-0.77575588226318],"type":"VEC3"},{"bufferView":2,"byteOffset":0,"componentType":5126,"count":2191,"type":"VEC3"},{"bufferView":3,"byteOffset":0,"componentType":5126,"count":2191,"type":"VEC2"},{"bufferView":4,"byteOffset":0,"componentType":5123,"count":36,"type":"SCALAR"},{"bufferView":5,"byteOffset":0,"componentType":5126,"count":24,"max":[1.89045143127441,1.82614743709564,0.457969069480896],"min":[-1.89044964313507,0.269730687141418,-0.66684418916702],"type":"VEC3"},{"bufferView":6,"byteOffset":0,"componentType":5126,"count":24,"type":"VEC3"},{"bufferView":7,"byteOffset":0,"componentType":5126,"count":24,"type":"VEC2"}],"asset":{"generator":"FBX2glTF v0.13.1","version":"2.0"},"bufferViews":[{"buffer":0,"byteLength":7512,"byteOffset":0,"target":34963},{"buffer":0,"byteLength":26292,"byteOffset":7512,"target":34962},{"buffer":0,"byteLength":26292,"byteOffset":33804,"target":34962},{"buffer":0,"byteLength":17528,"byteOffset":60096,"target":34962},{"buffer":0,"byteLength":72,"byteOffset":77624,"target":34963},{"buffer":0,"byteLength":288,"byteOffset":77696,"target":34962},{"buffer":0,"byteLength":288,"byteOffset":77984,"target":34962},{"buffer":0,"byteLength":192,"byteOffset":78272,"target":34962}],"buffers":[{"byteLength":78464,"uri":"SM_bus_stop_02.bin"}],"images":[{"name":"Polygon_Texture_vol2","uri":"Polygon_Texture_vol2.png"}],"materials":[{"alphaMode":"OPAQUE","doubleSided":false,"extras":{"fromFBX":{"isTruePBR":false,"shadingModel":"Phong"}},"name":"Main_material","pbrMetallicRoughness":{"baseColorFactor":[1,1,1,1],"baseColorTexture":{"index":0,"texCoord":0},"metallicFactor":0.400000005960464,"roughnessFactor":0.272165536880493}},{"alphaMode":"OPAQUE","doubleSided":false,"extras":{"fromFBX":{"isTruePBR":false,"shadingModel":"Phong"}},"name":"Material","pbrMetallicRoughness":{"baseColorFactor":[0.800000011920929,0.800000011920929,0.800000011920929,1],"metallicFactor":0.400000005960464,"roughnessFactor":0.272165536880493}}],"meshes":[{"name":"bus_stop_02","primitives":[{"attributes":{"NORMAL":2,"POSITION":1,"TEXCOORD_0":3},"indices":0,"material":0,"mode":4},{"attributes":{"NORMAL":6,"POSITION":5,"TEXCOORD_0":7},"indices":4,"material":1,"mode":4}]}],"nodes":[{"mesh":0,"name":"bus_stop_02","rotation":[0,0,0,1],"scale":[1,1,1],"translation":[16.3465328216553,-0.10030937194824,78.010009765625]}],"samplers":[{}],"scene":0,"scenes":[{"name":"Root Scene","nodes":[0]}],"textures":[{"name":"base_color_texture","sampler":0,"source":0}]}