{"accessors":[{"bufferView":0,"byteOffset":0,"componentType":5123,"count":624,"type":"SCALAR"},{"bufferView":1,"byteOffset":0,"componentType":5126,"count":350,"max":[3.00000023841858,3.14211773872375,0],"min":[-3.00000023841858,0,-12],"type":"VEC3"},{"bufferView":2,"byteOffset":0,"componentType":5126,"count":350,"type":"VEC3"},{"bufferView":3,"byteOffset":0,"componentType":5126,"count":350,"type":"VEC2"}],"asset":{"generator":"FBX2glTF v0.13.1","version":"2.0"},"bufferViews":[{"buffer":0,"byteLength":1248,"byteOffset":0,"target":34963},{"buffer":0,"byteLength":4200,"byteOffset":1248,"target":34962},{"buffer":0,"byteLength":4200,"byteOffset":5448,"target":34962},{"buffer":0,"byteLength":2800,"byteOffset":9648,"target":34962}],"buffers":[{"byteLength":12448,"uri":"SM_brige_04.bin"}],"images":[{"name":"Polygon_Texture_vol2","uri":"Polygon_Texture_vol2.png"}],"materials":[{"alphaMode":"OPAQUE","doubleSided":false,"extras":{"fromFBX":{"isTruePBR":false,"shadingModel":"Phong"}},"name":"Main_material","pbrMetallicRoughness":{"baseColorFactor":[1,1,1,1],"baseColorTexture":{"index":0,"texCoord":0},"metallicFactor":0.400000005960464,"roughnessFactor":0.272165536880493}}],"meshes":[{"name":"brige_04","primitives":[{"attributes":{"NORMAL":2,"POSITION":1,"TEXCOORD_0":3},"indices":0,"material":0,"mode":4}]}],"nodes":[{"mesh":0,"name":"brige_04","rotation":[0,0,0,1],"scale":[1,1,1],"translation":[55.7270927429199,0,-0.19579076766968]}],"samplers":[{}],"scene":0,"scenes":[{"name":"Root Scene","nodes":[0]}],"textures":[{"name":"base_color_texture","sampler":0,"source":0}]}