{"accessors":[{"bufferView":0,"byteOffset":0,"componentType":5123,"count":2148,"type":"SCALAR"},{"bufferView":1,"byteOffset":0,"componentType":5126,"count":1365,"max":[2.29888916015625,0.616043150424957,0.962256968021393],"min":[-1.70111083984375,-0.01602973788977,-1.03774297237396],"type":"VEC3"},{"bufferView":2,"byteOffset":0,"componentType":5126,"count":1365,"type":"VEC3"},{"bufferView":3,"byteOffset":0,"componentType":5126,"count":1365,"type":"VEC2"}],"asset":{"generator":"FBX2glTF v0.13.1","version":"2.0"},"bufferViews":[{"buffer":0,"byteLength":4296,"byteOffset":0,"target":34963},{"buffer":0,"byteLength":16380,"byteOffset":4296,"target":34962},{"buffer":0,"byteLength":16380,"byteOffset":20676,"target":34962},{"buffer":0,"byteLength":10920,"byteOffset":37056,"target":34962}],"buffers":[{"byteLength":47976,"uri":"SM_boat_01.bin"}],"images":[{"name":"Polygon_Camping_Texture_vol2.0","uri":"Polygon_Camping_Texture_vol2.0.jpg"}],"materials":[{"alphaMode":"OPAQUE","doubleSided":false,"extras":{"fromFBX":{"isTruePBR":false,"shadingModel":"Phong"}},"name":"Main_material","pbrMetallicRoughness":{"baseColorFactor":[1,1,1,1],"baseColorTexture":{"index":0,"texCoord":0},"metallicFactor":0.400000005960464,"roughnessFactor":0.272165536880493}}],"meshes":[{"name":"boat_01","primitives":[{"attributes":{"NORMAL":2,"POSITION":1,"TEXCOORD_0":3},"indices":0,"material":0,"mode":4}]}],"nodes":[{"mesh":0,"name":"boat_01","rotation":[0,0,0,1],"scale":[1,1,1],"translation":[172.934158325195,0,50.122444152832]}],"samplers":[{}],"scene":0,"scenes":[{"name":"Root Scene","nodes":[0]}],"textures":[{"name":"base_color_texture","sampler":0,"source":0}]}