{"accessors":[{"bufferView":0,"byteOffset":0,"componentType":5123,"count":66,"type":"SCALAR"},{"bufferView":1,"byteOffset":0,"componentType":5126,"count":44,"max":[0.14680278301239,0.766986668109894,0.0984598994255066],"min":[-0.14679904282093,0,-0.09845989942551],"type":"VEC3"},{"bufferView":2,"byteOffset":0,"componentType":5126,"count":44,"type":"VEC3"},{"bufferView":3,"byteOffset":0,"componentType":5126,"count":44,"type":"VEC2"},{"bufferView":4,"byteOffset":0,"componentType":5123,"count":372,"type":"SCALAR"},{"bufferView":5,"byteOffset":0,"componentType":5126,"count":220,"max":[2.07180595397949,0.0808271169662476,0.0590109936892986],"min":[-0.07180593907833,-0.08082704991102,0.000000476837158203125],"type":"VEC3"},{"bufferView":6,"byteOffset":0,"componentType":5126,"count":220,"type":"VEC3"},{"bufferView":7,"byteOffset":0,"componentType":5126,"count":220,"type":"VEC2"}],"asset":{"generator":"FBX2glTF v0.13.1","version":"2.0"},"bufferViews":[{"buffer":0,"byteLength":132,"byteOffset":0,"target":34963},{"buffer":0,"byteLength":528,"byteOffset":132,"target":34962},{"buffer":0,"byteLength":528,"byteOffset":660,"target":34962},{"buffer":0,"byteLength":352,"byteOffset":1188,"target":34962},{"buffer":0,"byteLength":744,"byteOffset":1540,"target":34963},{"buffer":0,"byteLength":2640,"byteOffset":2284,"target":34962},{"buffer":0,"byteLength":2640,"byteOffset":4924,"target":34962},{"buffer":0,"byteLength":1760,"byteOffset":7564,"target":34962}],"buffers":[{"byteLength":9324,"uri":"SM_barrier_01.bin"}],"images":[{"name":"Polygon_Camping_Texture_vol2.0","uri":"Polygon_Camping_Texture_vol2.0.jpg"}],"materials":[{"alphaMode":"OPAQUE","doubleSided":false,"extras":{"fromFBX":{"isTruePBR":false,"shadingModel":"Phong"}},"name":"Main_material","pbrMetallicRoughness":{"baseColorFactor":[1,1,1,1],"baseColorTexture":{"index":0,"texCoord":0},"metallicFactor":0.400000005960464,"roughnessFactor":0.272165536880493}}],"meshes":[{"name":"barrier_01","primitives":[{"attributes":{"NORMAL":2,"POSITION":1,"TEXCOORD_0":3},"indices":0,"material":0,"mode":4}]},{"name":"barrier_A","primitives":[{"attributes":{"NORMAL":6,"POSITION":5,"TEXCOORD_0":7},"indices":4,"material":0,"mode":4}]}],"nodes":[{"children":[1],"mesh":0,"name":"barrier_01","rotation":[0,0,0,1],"scale":[1,1,1],"translation":[37.1961631774902,0.00000000186264514923096,81.4347839355469]},{"mesh":1,"name":"barrier_A","rotation":[0,0,0,1],"scale":[1,1,1],"translation":[0,0.57556140422821,0.0984619110822678]}],"samplers":[{}],"scene":0,"scenes":[{"name":"Root Scene","nodes":[0]}],"textures":[{"name":"base_color_texture","sampler":0,"source":0}]}