{"accessors":[{"bufferView":0,"byteOffset":0,"componentType":5123,"count":564,"type":"SCALAR"},{"bufferView":1,"byteOffset":0,"componentType":5126,"count":370,"max":[1.13151657581329,0.629161298274994,0.730119287967682],"min":[-1.13151729106903,0.0000000596046447753906,-0.22402799129486],"type":"VEC3"},{"bufferView":2,"byteOffset":0,"componentType":5126,"count":370,"type":"VEC3"},{"bufferView":3,"byteOffset":0,"componentType":5126,"count":370,"type":"VEC2"}],"asset":{"generator":"FBX2glTF v0.13.1","version":"2.0"},"bufferViews":[{"buffer":0,"byteLength":1128,"byteOffset":0,"target":34963},{"buffer":0,"byteLength":4440,"byteOffset":1128,"target":34962},{"buffer":0,"byteLength":4440,"byteOffset":5568,"target":34962},{"buffer":0,"byteLength":2960,"byteOffset":10008,"target":34962}],"buffers":[{"byteLength":12968,"uri":"SM_bench_03.bin"}],"images":[{"name":"Polygon_Camping_Texture_vol2.0","uri":"Polygon_Camping_Texture_vol2.0.jpg"}],"materials":[{"alphaMode":"OPAQUE","doubleSided":false,"extras":{"fromFBX":{"isTruePBR":false,"shadingModel":"Phong"}},"name":"Main_material","pbrMetallicRoughness":{"baseColorFactor":[1,1,1,1],"baseColorTexture":{"index":0,"texCoord":0},"metallicFactor":0.400000005960464,"roughnessFactor":0.272165536880493}}],"meshes":[{"name":"bench_03","primitives":[{"attributes":{"NORMAL":2,"POSITION":1,"TEXCOORD_0":3},"indices":0,"material":0,"mode":4}]}],"nodes":[{"mesh":0,"name":"bench_03","rotation":[0,0,0,1],"scale":[1,1,1],"translation":[9.14151954650879,0,79.8747711181641]}],"samplers":[{}],"scene":0,"scenes":[{"name":"Root Scene","nodes":[0]}],"textures":[{"name":"base_color_texture","sampler":0,"source":0}]}