{"accessors":[{"bufferView":0,"byteOffset":0,"componentType":5123,"count":504,"type":"SCALAR"},{"bufferView":1,"byteOffset":0,"componentType":5126,"count":336,"max":[0.375012576580048,0.21414852142334,1.769207239151],"min":[-0.3032311797142,0,-1.74552834033966],"type":"VEC3"},{"bufferView":2,"byteOffset":0,"componentType":5126,"count":336,"type":"VEC3"},{"bufferView":3,"byteOffset":0,"componentType":5126,"count":336,"type":"VEC2"}],"asset":{"generator":"FBX2glTF v0.13.1","version":"2.0"},"bufferViews":[{"buffer":0,"byteLength":1008,"byteOffset":0,"target":34963},{"buffer":0,"byteLength":4032,"byteOffset":1008,"target":34962},{"buffer":0,"byteLength":4032,"byteOffset":5040,"target":34962},{"buffer":0,"byteLength":2688,"byteOffset":9072,"target":34962}],"buffers":[{"byteLength":11760,"uri":"SM_boards_02.bin"}],"images":[{"name":"Polygon_Camping_Texture_vol2.0","uri":"Polygon_Camping_Texture_vol2.0.jpg"}],"materials":[{"alphaMode":"OPAQUE","doubleSided":false,"extras":{"fromFBX":{"isTruePBR":false,"shadingModel":"Phong"}},"name":"Main_material","pbrMetallicRoughness":{"baseColorFactor":[1,1,1,1],"baseColorTexture":{"index":0,"texCoord":0},"metallicFactor":0.400000005960464,"roughnessFactor":0.272165536880493}}],"meshes":[{"name":"boards_02","primitives":[{"attributes":{"NORMAL":2,"POSITION":1,"TEXCOORD_0":3},"indices":0,"material":0,"mode":4}]}],"nodes":[{"mesh":0,"name":"boards_02","rotation":[0,0,0,1],"scale":[1,1,1],"translation":[4.97357273101807,0,84.6055755615234]}],"samplers":[{}],"scene":0,"scenes":[{"name":"Root Scene","nodes":[0]}],"textures":[{"name":"base_color_texture","sampler":0,"source":0}]}