{"accessors":[{"bufferView":0,"byteOffset":0,"componentType":5123,"count":1764,"type":"SCALAR"},{"bufferView":1,"byteOffset":0,"componentType":5126,"count":1330,"max":[3.05506634712219,2.56057620048523,0.677689790725708],"min":[-2.94493365287781,-0.01851324178278,-0.67329514026642],"type":"VEC3"},{"bufferView":2,"byteOffset":0,"componentType":5126,"count":1330,"type":"VEC3"},{"bufferView":3,"byteOffset":0,"componentType":5126,"count":1330,"type":"VEC2"}],"asset":{"generator":"FBX2glTF v0.13.1","version":"2.0"},"bufferViews":[{"buffer":0,"byteLength":3528,"byteOffset":0,"target":34963},{"buffer":0,"byteLength":15960,"byteOffset":3528,"target":34962},{"buffer":0,"byteLength":15960,"byteOffset":19488,"target":34962},{"buffer":0,"byteLength":10640,"byteOffset":35448,"target":34962}],"buffers":[{"byteLength":46088,"uri":"SM_climbing_wall_01.bin"}],"images":[{"name":"Polygon_Camping_Texture_vol2.0","uri":"Polygon_Camping_Texture_vol2.0.jpg"}],"materials":[{"alphaMode":"OPAQUE","doubleSided":false,"extras":{"fromFBX":{"isTruePBR":false,"shadingModel":"Phong"}},"name":"Main_material","pbrMetallicRoughness":{"baseColorFactor":[1,1,1,1],"baseColorTexture":{"index":0,"texCoord":0},"metallicFactor":0.400000005960464,"roughnessFactor":0.272165536880493}}],"meshes":[{"name":"climbing_wall_01","primitives":[{"attributes":{"NORMAL":2,"POSITION":1,"TEXCOORD_0":3},"indices":0,"material":0,"mode":4}]}],"nodes":[{"mesh":0,"name":"climbing_wall_01","rotation":[0,0,0,1],"scale":[1,1,1],"translation":[39.2725563049316,0,84.2747039794922]}],"samplers":[{}],"scene":0,"scenes":[{"name":"Root Scene","nodes":[0]}],"textures":[{"name":"base_color_texture","sampler":0,"source":0}]}