{"accessors":[{"bufferView":0,"byteOffset":0,"componentType":5123,"count":1188,"type":"SCALAR"},{"bufferView":1,"byteOffset":0,"componentType":5126,"count":768,"max":[0.981427133083344,2.18356227874756,1.72295761108398],"min":[-0.9814230799675,0,-1.72725486755371],"type":"VEC3"},{"bufferView":2,"byteOffset":0,"componentType":5126,"count":768,"type":"VEC3"},{"bufferView":3,"byteOffset":0,"componentType":5126,"count":768,"type":"VEC2"}],"asset":{"generator":"FBX2glTF v0.13.1","version":"2.0"},"bufferViews":[{"buffer":0,"byteLength":2376,"byteOffset":0,"target":34963},{"buffer":0,"byteLength":9216,"byteOffset":2376,"target":34962},{"buffer":0,"byteLength":9216,"byteOffset":11592,"target":34962},{"buffer":0,"byteLength":6144,"byteOffset":20808,"target":34962}],"buffers":[{"byteLength":26952,"uri":"SM_canopy_01.bin"}],"images":[{"name":"Polygon_Camping_Texture_vol2.0","uri":"Polygon_Camping_Texture_vol2.0.jpg"}],"materials":[{"alphaMode":"OPAQUE","doubleSided":false,"extras":{"fromFBX":{"isTruePBR":false,"shadingModel":"Phong"}},"name":"Main_material","pbrMetallicRoughness":{"baseColorFactor":[1,1,1,1],"baseColorTexture":{"index":0,"texCoord":0},"metallicFactor":0.400000005960464,"roughnessFactor":0.272165536880493}}],"meshes":[{"name":"canopy_01","primitives":[{"attributes":{"NORMAL":2,"POSITION":1,"TEXCOORD_0":3},"indices":0,"material":0,"mode":4}]}],"nodes":[{"mesh":0,"name":"canopy_01","rotation":[0,0,0,1],"scale":[1,1,1],"translation":[10.4219551086426,0,91.5102615356445]}],"samplers":[{}],"scene":0,"scenes":[{"name":"Root Scene","nodes":[0]}],"textures":[{"name":"base_color_texture","sampler":0,"source":0}]}