{"accessors":[{"bufferView":0,"byteOffset":0,"componentType":5123,"count":5568,"type":"SCALAR"},{"bufferView":1,"byteOffset":0,"componentType":5126,"count":3700,"max":[1.06926345825195,1.81899344921112,1.06926250457764],"min":[-1.06926321983337,0.0000000596046447753906,-1.06926417350769],"type":"VEC3"},{"bufferView":2,"byteOffset":0,"componentType":5126,"count":3700,"type":"VEC3"},{"bufferView":3,"byteOffset":0,"componentType":5126,"count":3700,"type":"VEC2"}],"asset":{"generator":"FBX2glTF v0.13.1","version":"2.0"},"bufferViews":[{"buffer":0,"byteLength":11136,"byteOffset":0,"target":34963},{"buffer":0,"byteLength":44400,"byteOffset":11136,"target":34962},{"buffer":0,"byteLength":44400,"byteOffset":55536,"target":34962},{"buffer":0,"byteLength":29600,"byteOffset":99936,"target":34962}],"buffers":[{"byteLength":129536,"uri":"SM_coil_02.bin"}],"images":[{"name":"Polygon_Camping_Texture_vol2.0","uri":"Polygon_Camping_Texture_vol2.0.jpg"}],"materials":[{"alphaMode":"OPAQUE","doubleSided":false,"extras":{"fromFBX":{"isTruePBR":false,"shadingModel":"Phong"}},"name":"Main_material","pbrMetallicRoughness":{"baseColorFactor":[1,1,1,1],"baseColorTexture":{"index":0,"texCoord":0},"metallicFactor":0.400000005960464,"roughnessFactor":0.272165536880493}}],"meshes":[{"name":"coil_02","primitives":[{"attributes":{"NORMAL":2,"POSITION":1,"TEXCOORD_0":3},"indices":0,"material":0,"mode":4}]}],"nodes":[{"mesh":0,"name":"coil_02","rotation":[0,0,0,1],"scale":[1,1,1],"translation":[3.54035234451294,0,84.1213531494141]}],"samplers":[{}],"scene":0,"scenes":[{"name":"Root Scene","nodes":[0]}],"textures":[{"name":"base_color_texture","sampler":0,"source":0}]}