{"accessors":[{"bufferView":0,"byteOffset":0,"componentType":5123,"count":384,"type":"SCALAR"},{"bufferView":1,"byteOffset":0,"componentType":5126,"count":250,"max":[0.999998390674591,0.856142699718475,0.428070425987244],"min":[-1.00000047683716,-0.00000002071297,-0.42807224392891],"type":"VEC3"},{"bufferView":2,"byteOffset":0,"componentType":5126,"count":250,"type":"VEC3"},{"bufferView":3,"byteOffset":0,"componentType":5126,"count":250,"type":"VEC2"}],"asset":{"generator":"FBX2glTF v0.13.1","version":"2.0"},"bufferViews":[{"buffer":0,"byteLength":768,"byteOffset":0,"target":34963},{"buffer":0,"byteLength":3000,"byteOffset":768,"target":34962},{"buffer":0,"byteLength":3000,"byteOffset":3768,"target":34962},{"buffer":0,"byteLength":2000,"byteOffset":6768,"target":34962}],"buffers":[{"byteLength":8768,"uri":"SM_concrete_pipe_03.bin"}],"images":[{"name":"Polygon_Camping_Texture_vol2.0","uri":"Polygon_Camping_Texture_vol2.0.jpg"}],"materials":[{"alphaMode":"OPAQUE","doubleSided":false,"extras":{"fromFBX":{"isTruePBR":false,"shadingModel":"Phong"}},"name":"Main_material","pbrMetallicRoughness":{"baseColorFactor":[1,1,1,1],"baseColorTexture":{"index":0,"texCoord":0},"metallicFactor":0.400000005960464,"roughnessFactor":0.272165536880493}}],"meshes":[{"name":"concrete_pipe_03","primitives":[{"attributes":{"NORMAL":2,"POSITION":1,"TEXCOORD_0":3},"indices":0,"material":0,"mode":4}]}],"nodes":[{"mesh":0,"name":"concrete_pipe_03","rotation":[0,0,0,1],"scale":[1,1,1],"translation":[22.8022327423096,0.0000000667794068931471,86.2151336669922]}],"samplers":[{}],"scene":0,"scenes":[{"name":"Root Scene","nodes":[0]}],"textures":[{"name":"base_color_texture","sampler":0,"source":0}]}