{"accessors":[{"bufferView":0,"byteOffset":0,"componentType":5123,"count":4122,"type":"SCALAR"},{"bufferView":1,"byteOffset":0,"componentType":5126,"count":2265,"max":[0.534392714500427,2.27050089836121,0.542425274848938],"min":[-0.53439271450043,-0.0378860719502,-0.54630661010742],"type":"VEC3"},{"bufferView":2,"byteOffset":0,"componentType":5126,"count":2265,"type":"VEC3"},{"bufferView":3,"byteOffset":0,"componentType":5126,"count":2265,"type":"VEC2"}],"asset":{"generator":"FBX2glTF v0.13.1","version":"2.0"},"bufferViews":[{"buffer":0,"byteLength":8244,"byteOffset":0,"target":34963},{"buffer":0,"byteLength":27180,"byteOffset":8244,"target":34962},{"buffer":0,"byteLength":27180,"byteOffset":35424,"target":34962},{"buffer":0,"byteLength":18120,"byteOffset":62604,"target":34962}],"buffers":[{"byteLength":80724,"uri":"SM_construction toilet_01.bin"}],"images":[{"name":"Polygon_Camping_Texture_vol2.0","uri":"Polygon_Camping_Texture_vol2.0.jpg"}],"materials":[{"alphaMode":"OPAQUE","doubleSided":false,"extras":{"fromFBX":{"isTruePBR":false,"shadingModel":"Phong"}},"name":"Main_material","pbrMetallicRoughness":{"baseColorFactor":[1,1,1,1],"baseColorTexture":{"index":0,"texCoord":0},"metallicFactor":0.400000005960464,"roughnessFactor":0.272165536880493}}],"meshes":[{"name":"construction toilet_01","primitives":[{"attributes":{"NORMAL":2,"POSITION":1,"TEXCOORD_0":3},"indices":0,"material":0,"mode":4}]}],"nodes":[{"mesh":0,"name":"construction toilet_01","rotation":[0,0,0,1],"scale":[1,1,1],"translation":[13.8891334533691,0.00533150136470795,84.1224975585938]}],"samplers":[{}],"scene":0,"scenes":[{"name":"Root Scene","nodes":[0]}],"textures":[{"name":"base_color_texture","sampler":0,"source":0}]}