{"accessors":[{"bufferView":0,"byteOffset":0,"componentType":5123,"count":180,"type":"SCALAR"},{"bufferView":1,"byteOffset":0,"componentType":5126,"count":80,"max":[0.0999999567866325,0.12461144477129,0.199999988079071],"min":[-0.10000003874302,0,-0.19999998807907],"type":"VEC3"},{"bufferView":2,"byteOffset":0,"componentType":5126,"count":80,"type":"VEC3"},{"bufferView":3,"byteOffset":0,"componentType":5126,"count":80,"type":"VEC2"}],"asset":{"generator":"FBX2glTF v0.13.1","version":"2.0"},"bufferViews":[{"buffer":0,"byteLength":360,"byteOffset":0,"target":34963},{"buffer":0,"byteLength":960,"byteOffset":360,"target":34962},{"buffer":0,"byteLength":960,"byteOffset":1320,"target":34962},{"buffer":0,"byteLength":640,"byteOffset":2280,"target":34962}],"buffers":[{"byteLength":2920,"uri":"SM_cinder_block_01.bin"}],"images":[{"name":"Polygon_Camping_Texture_vol2.0","uri":"Polygon_Camping_Texture_vol2.0.jpg"}],"materials":[{"alphaMode":"OPAQUE","doubleSided":false,"extras":{"fromFBX":{"isTruePBR":false,"shadingModel":"Phong"}},"name":"Main_material","pbrMetallicRoughness":{"baseColorFactor":[1,1,1,1],"baseColorTexture":{"index":0,"texCoord":0},"metallicFactor":0.400000005960464,"roughnessFactor":0.272165536880493}}],"meshes":[{"name":"cinder_block_01","primitives":[{"attributes":{"NORMAL":2,"POSITION":1,"TEXCOORD_0":3},"indices":0,"material":0,"mode":4}]}],"nodes":[{"mesh":0,"name":"cinder_block_01","rotation":[0,0,0,1],"scale":[1,1,1],"translation":[4.30539798736572,0,87.1321792602539]}],"samplers":[{}],"scene":0,"scenes":[{"name":"Root Scene","nodes":[0]}],"textures":[{"name":"base_color_texture","sampler":0,"source":0}]}