{"accessors":[{"bufferView":0,"byteOffset":0,"componentType":5123,"count":102,"type":"SCALAR"},{"bufferView":1,"byteOffset":0,"componentType":5126,"count":58,"max":[16,5,2],"min":[-16,0,-2],"type":"VEC3"},{"bufferView":2,"byteOffset":0,"componentType":5126,"count":58,"type":"VEC3"},{"bufferView":3,"byteOffset":0,"componentType":5126,"count":58,"type":"VEC2"},{"bufferView":4,"byteOffset":0,"componentType":5123,"count":234,"type":"SCALAR"},{"bufferView":5,"byteOffset":0,"componentType":5126,"count":153,"max":[16,5,2],"min":[-16,0,-2],"type":"VEC3"},{"bufferView":6,"byteOffset":0,"componentType":5126,"count":153,"type":"VEC3"},{"bufferView":7,"byteOffset":0,"componentType":5126,"count":153,"type":"VEC2"}],"asset":{"generator":"FBX2glTF v0.13.1","version":"2.0"},"bufferViews":[{"buffer":0,"byteLength":204,"byteOffset":0,"target":34963},{"buffer":0,"byteLength":696,"byteOffset":204,"target":34962},{"buffer":0,"byteLength":696,"byteOffset":900,"target":34962},{"buffer":0,"byteLength":464,"byteOffset":1596,"target":34962},{"buffer":0,"byteLength":468,"byteOffset":2060,"target":34963},{"buffer":0,"byteLength":1836,"byteOffset":2528,"target":34962},{"buffer":0,"byteLength":1836,"byteOffset":4364,"target":34962},{"buffer":0,"byteLength":1224,"byteOffset":6200,"target":34962}],"buffers":[{"byteLength":7424,"uri":"SM_ditch_02.bin"}],"images":[{"name":"Polygon_Texture_vol2","uri":"Polygon_Texture_vol2.png"}],"materials":[{"alphaMode":"OPAQUE","doubleSided":false,"extras":{"fromFBX":{"isTruePBR":false,"shadingModel":"Phong"}},"name":"Main_material","pbrMetallicRoughness":{"baseColorFactor":[1,1,1,1],"baseColorTexture":{"index":0,"texCoord":0},"metallicFactor":0.400000005960464,"roughnessFactor":0.272165536880493}},{"alphaMode":"OPAQUE","doubleSided":false,"extras":{"fromFBX":{"isTruePBR":false,"shadingModel":"Phong"}},"name":"Material","pbrMetallicRoughness":{"baseColorFactor":[0.800000011920929,0.800000011920929,0.800000011920929,1],"metallicFactor":0.400000005960464,"roughnessFactor":0.272165536880493}}],"meshes":[{"name":"ditch_02","primitives":[{"attributes":{"NORMAL":2,"POSITION":1,"TEXCOORD_0":3},"indices":0,"material":0,"mode":4},{"attributes":{"NORMAL":6,"POSITION":5,"TEXCOORD_0":7},"indices":4,"material":1,"mode":4}]}],"nodes":[{"mesh":0,"name":"ditch_02","rotation":[0,0,0,1],"scale":[1,1,1],"translation":[73.8701629638672,0,45.683235168457]}],"samplers":[{}],"scene":0,"scenes":[{"name":"Root Scene","nodes":[0]}],"textures":[{"name":"base_color_texture","sampler":0,"source":0}]}