{"accessors":[{"bufferView":0,"byteOffset":0,"componentType":5123,"count":798,"type":"SCALAR"},{"bufferView":1,"byteOffset":0,"componentType":5126,"count":500,"max":[0.25,1.39763116836548,0.250001907348633],"min":[-0.25,0,-0.24999809265137],"type":"VEC3"},{"bufferView":2,"byteOffset":0,"componentType":5126,"count":500,"type":"VEC3"},{"bufferView":3,"byteOffset":0,"componentType":5126,"count":500,"type":"VEC2"}],"asset":{"generator":"FBX2glTF v0.13.1","version":"2.0"},"bufferViews":[{"buffer":0,"byteLength":1596,"byteOffset":0,"target":34963},{"buffer":0,"byteLength":6000,"byteOffset":1596,"target":34962},{"buffer":0,"byteLength":6000,"byteOffset":7596,"target":34962},{"buffer":0,"byteLength":4000,"byteOffset":13596,"target":34962}],"buffers":[{"byteLength":17596,"uri":"SM_drinking_fountain.bin"}],"images":[{"name":"Polygon_Camping_Texture_vol2.0","uri":"Polygon_Camping_Texture_vol2.0.jpg"}],"materials":[{"alphaMode":"OPAQUE","doubleSided":false,"extras":{"fromFBX":{"isTruePBR":false,"shadingModel":"Phong"}},"name":"Main_material","pbrMetallicRoughness":{"baseColorFactor":[1,1,1,1],"baseColorTexture":{"index":0,"texCoord":0},"metallicFactor":0.400000005960464,"roughnessFactor":0.272165536880493}}],"meshes":[{"name":"drinking_fountain","primitives":[{"attributes":{"NORMAL":2,"POSITION":1,"TEXCOORD_0":3},"indices":0,"material":0,"mode":4}]}],"nodes":[{"mesh":0,"name":"drinking_fountain","rotation":[0,0,0,1],"scale":[1,1,1],"translation":[33.0000267028809,0,81.4226531982422]}],"samplers":[{}],"scene":0,"scenes":[{"name":"Root Scene","nodes":[0]}],"textures":[{"name":"base_color_texture","sampler":0,"source":0}]}