{"accessors":[{"bufferView":0,"byteOffset":0,"componentType":5123,"count":153,"type":"SCALAR"},{"bufferView":1,"byteOffset":0,"componentType":5126,"count":75,"max":[16,5,4],"min":[-16,0,-4],"type":"VEC3"},{"bufferView":2,"byteOffset":0,"componentType":5126,"count":75,"type":"VEC3"},{"bufferView":3,"byteOffset":0,"componentType":5126,"count":75,"type":"VEC2"},{"bufferView":4,"byteOffset":0,"componentType":5123,"count":369,"type":"SCALAR"},{"bufferView":5,"byteOffset":0,"componentType":5126,"count":279,"max":[2,0.269735753536224,4],"min":[-2,0.00206417753361166,-4],"type":"VEC3"},{"bufferView":6,"byteOffset":0,"componentType":5126,"count":279,"type":"VEC3"},{"bufferView":7,"byteOffset":0,"componentType":5126,"count":279,"type":"VEC2"}],"asset":{"generator":"FBX2glTF v0.13.1","version":"2.0"},"bufferViews":[{"buffer":0,"byteLength":306,"byteOffset":0,"target":34963},{"buffer":0,"byteLength":900,"byteOffset":308,"target":34962},{"buffer":0,"byteLength":900,"byteOffset":1208,"target":34962},{"buffer":0,"byteLength":600,"byteOffset":2108,"target":34962},{"buffer":0,"byteLength":738,"byteOffset":2708,"target":34963},{"buffer":0,"byteLength":3348,"byteOffset":3448,"target":34962},{"buffer":0,"byteLength":3348,"byteOffset":6796,"target":34962},{"buffer":0,"byteLength":2232,"byteOffset":10144,"target":34962}],"buffers":[{"byteLength":12376,"uri":"SM_ditch_03.bin"}],"images":[{"name":"Polygon_Texture_vol2","uri":"Polygon_Texture_vol2.png"}],"materials":[{"alphaMode":"OPAQUE","doubleSided":false,"extras":{"fromFBX":{"isTruePBR":false,"shadingModel":"Phong"}},"name":"Main_material","pbrMetallicRoughness":{"baseColorFactor":[1,1,1,1],"baseColorTexture":{"index":0,"texCoord":0},"metallicFactor":0.400000005960464,"roughnessFactor":0.272165536880493}},{"alphaMode":"OPAQUE","doubleSided":false,"extras":{"fromFBX":{"isTruePBR":false,"shadingModel":"Phong"}},"name":"Material","pbrMetallicRoughness":{"baseColorFactor":[0.800000011920929,0.800000011920929,0.800000011920929,1],"metallicFactor":0.400000005960464,"roughnessFactor":0.272165536880493}}],"meshes":[{"name":"ditch_03","primitives":[{"attributes":{"NORMAL":2,"POSITION":1,"TEXCOORD_0":3},"indices":0,"material":0,"mode":4},{"attributes":{"NORMAL":6,"POSITION":5,"TEXCOORD_0":7},"indices":4,"material":1,"mode":4}]}],"nodes":[{"mesh":0,"name":"ditch_03","rotation":[0,0,0,1],"scale":[1,1,1],"translation":[73.8701629638672,0,55.1108245849609]}],"samplers":[{}],"scene":0,"scenes":[{"name":"Root Scene","nodes":[0]}],"textures":[{"name":"base_color_texture","sampler":0,"source":0}]}