{"accessors":[{"bufferView":0,"byteOffset":0,"componentType":5123,"count":2562,"type":"SCALAR"},{"bufferView":1,"byteOffset":0,"componentType":5126,"count":1568,"max":[5.10093021392822,5.53207921981812,1.00000035762787],"min":[-0.89907002449036,-0.00000008195639,-1.00000023841858],"type":"VEC3"},{"bufferView":2,"byteOffset":0,"componentType":5126,"count":1568,"type":"VEC3"},{"bufferView":3,"byteOffset":0,"componentType":5126,"count":1568,"type":"VEC2"},{"bufferView":4,"byteOffset":0,"componentType":5123,"count":912,"type":"SCALAR"},{"bufferView":5,"byteOffset":0,"componentType":5126,"count":514,"max":[4.25160455703735,5.88307476043701,0.899495363235474],"min":[-0.34732818603516,1.53208017349243,-0.89949482679367],"type":"VEC3"},{"bufferView":6,"byteOffset":0,"componentType":5126,"count":514,"type":"VEC3"},{"bufferView":7,"byteOffset":0,"componentType":5126,"count":514,"type":"VEC2"}],"asset":{"generator":"FBX2glTF v0.13.1","version":"2.0"},"bufferViews":[{"buffer":0,"byteLength":5124,"byteOffset":0,"target":34963},{"buffer":0,"byteLength":18816,"byteOffset":5124,"target":34962},{"buffer":0,"byteLength":18816,"byteOffset":23940,"target":34962},{"buffer":0,"byteLength":12544,"byteOffset":42756,"target":34962},{"buffer":0,"byteLength":1824,"byteOffset":55300,"target":34963},{"buffer":0,"byteLength":6168,"byteOffset":57124,"target":34962},{"buffer":0,"byteLength":6168,"byteOffset":63292,"target":34962},{"buffer":0,"byteLength":4112,"byteOffset":69460,"target":34962}],"buffers":[{"byteLength":73572,"uri":"SM_Escalator_01.bin"}],"images":[{"name":"Polygon_Texture_vol2","uri":"Polygon_Texture_vol2.png"}],"materials":[{"alphaMode":"OPAQUE","doubleSided":false,"extras":{"fromFBX":{"isTruePBR":false,"shadingModel":"Phong"}},"name":"Main_material","pbrMetallicRoughness":{"baseColorFactor":[1,1,1,1],"baseColorTexture":{"index":0,"texCoord":0},"metallicFactor":0.400000005960464,"roughnessFactor":0.272165536880493}},{"alphaMode":"OPAQUE","doubleSided":false,"extras":{"fromFBX":{"isTruePBR":false,"shadingModel":"Phong"}},"name":"Material","pbrMetallicRoughness":{"baseColorFactor":[0.800000011920929,0.800000011920929,0.800000011920929,1],"metallicFactor":0.400000005960464,"roughnessFactor":0.272165536880493}}],"meshes":[{"name":"Escalator_01","primitives":[{"attributes":{"NORMAL":2,"POSITION":1,"TEXCOORD_0":3},"indices":0,"material":0,"mode":4},{"attributes":{"NORMAL":6,"POSITION":5,"TEXCOORD_0":7},"indices":4,"material":1,"mode":4}]}],"nodes":[{"mesh":0,"name":"Escalator_01","rotation":[0,0,0,1],"scale":[1,1,1],"translation":[12.9661779403687,0,90.7693862915039]}],"samplers":[{}],"scene":0,"scenes":[{"name":"Root Scene","nodes":[0]}],"textures":[{"name":"base_color_texture","sampler":0,"source":0}]}