{"accessors":[{"bufferView":0,"byteOffset":0,"componentType":5123,"count":540,"type":"SCALAR"},{"bufferView":1,"byteOffset":0,"componentType":5126,"count":322,"max":[6.00928068161011,6.05380868911743,6.01361799240112],"min":[-6.00927829742432,0.00000143051147460938,-6.01363325119019],"type":"VEC3"},{"bufferView":2,"byteOffset":0,"componentType":5126,"count":322,"type":"VEC3"},{"bufferView":3,"byteOffset":0,"componentType":5126,"count":322,"type":"VEC2"},{"bufferView":4,"byteOffset":0,"componentType":5123,"count":5916,"type":"SCALAR"},{"bufferView":5,"byteOffset":0,"componentType":5126,"count":3902,"max":[4.9240083694458,4.92404413223267,1.44837915897369],"min":[-4.92406892776489,-4.92403316497803,-1.44837915897369],"type":"VEC3"},{"bufferView":6,"byteOffset":0,"componentType":5126,"count":3902,"type":"VEC3"},{"bufferView":7,"byteOffset":0,"componentType":5126,"count":3902,"type":"VEC2"},{"bufferView":8,"byteOffset":0,"componentType":5123,"count":3792,"type":"SCALAR"},{"bufferView":9,"byteOffset":0,"componentType":5126,"count":2329,"max":[0.748355865478516,-0.00000071525574,0.748347401618958],"min":[-0.7483503818512,-1.29753661155701,-0.7483594417572],"type":"VEC3"},{"bufferView":10,"byteOffset":0,"componentType":5126,"count":2329,"type":"VEC3"},{"bufferView":11,"byteOffset":0,"componentType":5126,"count":2329,"type":"VEC2"},{"bufferView":12,"byteOffset":0,"componentType":5123,"count":3792,"type":"SCALAR"},{"bufferView":13,"byteOffset":0,"componentType":5126,"count":2338,"max":[0.748354375362396,0,0.748346984386444],"min":[-0.74835205078125,-1.29753577709198,-0.74835991859436],"type":"VEC3"},{"bufferView":14,"byteOffset":0,"componentType":5126,"count":2338,"type":"VEC3"},{"bufferView":15,"byteOffset":0,"componentType":5126,"count":2338,"type":"VEC2"},{"bufferView":16,"byteOffset":0,"componentType":5123,"count":3792,"type":"SCALAR"},{"bufferView":17,"byteOffset":0,"componentType":5126,"count":2334,"max":[0.748357772827148,0,0.748347401618958],"min":[-0.7483486533165,-1.29753577709198,-0.7483594417572],"type":"VEC3"},{"bufferView":18,"byteOffset":0,"componentType":5126,"count":2334,"type":"VEC3"},{"bufferView":19,"byteOffset":0,"componentType":5126,"count":2334,"type":"VEC2"},{"bufferView":20,"byteOffset":0,"componentType":5123,"count":3792,"type":"SCALAR"},{"bufferView":21,"byteOffset":0,"componentType":5126,"count":2341,"max":[0.748343169689178,-0.00000095367432,0.748347520828247],"min":[-0.74836355447769,-1.29753684997559,-0.74835920333862],"type":"VEC3"},{"bufferView":22,"byteOffset":0,"componentType":5126,"count":2341,"type":"VEC3"},{"bufferView":23,"byteOffset":0,"componentType":5126,"count":2341,"type":"VEC2"},{"bufferView":24,"byteOffset":0,"componentType":5123,"count":3792,"type":"SCALAR"},{"bufferView":25,"byteOffset":0,"componentType":5126,"count":2320,"max":[0.748350143432617,-0.00000023841858,0.748347401618958],"min":[-0.74835628271103,-1.29753613471985,-0.7483594417572],"type":"VEC3"},{"bufferView":26,"byteOffset":0,"componentType":5126,"count":2320,"type":"VEC3"},{"bufferView":27,"byteOffset":0,"componentType":5126,"count":2320,"type":"VEC2"},{"bufferView":28,"byteOffset":0,"componentType":5123,"count":3792,"type":"SCALAR"},{"bufferView":29,"byteOffset":0,"componentType":5126,"count":2333,"max":[0.748350381851196,0,0.748348116874695],"min":[-0.74835628271103,-1.29753577709198,-0.74835842847824],"type":"VEC3"},{"bufferView":30,"byteOffset":0,"componentType":5126,"count":2333,"type":"VEC3"},{"bufferView":31,"byteOffset":0,"componentType":5126,"count":2333,"type":"VEC2"},{"bufferView":32,"byteOffset":0,"componentType":5123,"count":3792,"type":"SCALAR"},{"bufferView":33,"byteOffset":0,"componentType":5126,"count":2320,"max":[0.748356103897095,0.000000715255737304688,0.748347401618958],"min":[-0.7483503818512,-1.29753518104553,-0.7483594417572],"type":"VEC3"},{"bufferView":34,"byteOffset":0,"componentType":5126,"count":2320,"type":"VEC3"},{"bufferView":35,"byteOffset":0,"componentType":5126,"count":2320,"type":"VEC2"},{"bufferView":36,"byteOffset":0,"componentType":5123,"count":3792,"type":"SCALAR"},{"bufferView":37,"byteOffset":0,"componentType":5126,"count":2338,"max":[0.74835079908371,0,0.748347520828247],"min":[-0.74835592508316,-1.29753577709198,-0.74835920333862],"type":"VEC3"},{"bufferView":38,"byteOffset":0,"componentType":5126,"count":2338,"type":"VEC3"},{"bufferView":39,"byteOffset":0,"componentType":5126,"count":2338,"type":"VEC2"}],"asset":{"generator":"FBX2glTF v0.13.1","version":"2.0"},"bufferViews":[{"buffer":0,"byteLength":1080,"byteOffset":0,"target":34963},{"buffer":0,"byteLength":3864,"byteOffset":1080,"target":34962},{"buffer":0,"byteLength":3864,"byteOffset":4944,"target":34962},{"buffer":0,"byteLength":2576,"byteOffset":8808,"target":34962},{"buffer":0,"byteLength":11832,"byteOffset":11384,"target":34963},{"buffer":0,"byteLength":46824,"byteOffset":23216,"target":34962},{"buffer":0,"byteLength":46824,"byteOffset":70040,"target":34962},{"buffer":0,"byteLength":31216,"byteOffset":116864,"target":34962},{"buffer":0,"byteLength":7584,"byteOffset":148080,"target":34963},{"buffer":0,"byteLength":27948,"byteOffset":155664,"target":34962},{"buffer":0,"byteLength":27948,"byteOffset":183612,"target":34962},{"buffer":0,"byteLength":18632,"byteOffset":211560,"target":34962},{"buffer":0,"byteLength":7584,"byteOffset":230192,"target":34963},{"buffer":0,"byteLength":28056,"byteOffset":237776,"target":34962},{"buffer":0,"byteLength":28056,"byteOffset":265832,"target":34962},{"buffer":0,"byteLength":18704,"byteOffset":293888,"target":34962},{"buffer":0,"byteLength":7584,"byteOffset":312592,"target":34963},{"buffer":0,"byteLength":28008,"byteOffset":320176,"target":34962},{"buffer":0,"byteLength":28008,"byteOffset":348184,"target":34962},{"buffer":0,"byteLength":18672,"byteOffset":376192,"target":34962},{"buffer":0,"byteLength":7584,"byteOffset":394864,"target":34963},{"buffer":0,"byteLength":28092,"byteOffset":402448,"target":34962},{"buffer":0,"byteLength":28092,"byteOffset":430540,"target":34962},{"buffer":0,"byteLength":18728,"byteOffset":458632,"target":34962},{"buffer":0,"byteLength":7584,"byteOffset":477360,"target":34963},{"buffer":0,"byteLength":27840,"byteOffset":484944,"target":34962},{"buffer":0,"byteLength":27840,"byteOffset":512784,"target":34962},{"buffer":0,"byteLength":18560,"byteOffset":540624,"target":34962},{"buffer":0,"byteLength":7584,"byteOffset":559184,"target":34963},{"buffer":0,"byteLength":27996,"byteOffset":566768,"target":34962},{"buffer":0,"byteLength":27996,"byteOffset":594764,"target":34962},{"buffer":0,"byteLength":18664,"byteOffset":622760,"target":34962},{"buffer":0,"byteLength":7584,"byteOffset":641424,"target":34963},{"buffer":0,"byteLength":27840,"byteOffset":649008,"target":34962},{"buffer":0,"byteLength":27840,"byteOffset":676848,"target":34962},{"buffer":0,"byteLength":18560,"byteOffset":704688,"target":34962},{"buffer":0,"byteLength":7584,"byteOffset":723248,"target":34963},{"buffer":0,"byteLength":28056,"byteOffset":730832,"target":34962},{"buffer":0,"byteLength":28056,"byteOffset":758888,"target":34962},{"buffer":0,"byteLength":18704,"byteOffset":786944,"target":34962}],"buffers":[{"byteLength":805648,"uri":"SM_Ferris wheel_01.bin"}],"images":[{"name":"Polygon_Camping_Texture_vol2.0","uri":"Polygon_Camping_Texture_vol2.0.jpg"}],"materials":[{"alphaMode":"OPAQUE","doubleSided":false,"extras":{"fromFBX":{"isTruePBR":false,"shadingModel":"Phong"}},"name":"Main_material","pbrMetallicRoughness":{"baseColorFactor":[1,1,1,1],"baseColorTexture":{"index":0,"texCoord":0},"metallicFactor":0.400000005960464,"roughnessFactor":0.272165536880493}}],"meshes":[{"name":"Ferris wheel_01","primitives":[{"attributes":{"NORMAL":2,"POSITION":1,"TEXCOORD_0":3},"indices":0,"material":0,"mode":4}]},{"name":"wheel_01","primitives":[{"attributes":{"NORMAL":6,"POSITION":5,"TEXCOORD_0":7},"indices":4,"material":0,"mode":4}]},{"name":"booth_08","primitives":[{"attributes":{"NORMAL":10,"POSITION":9,"TEXCOORD_0":11},"indices":8,"material":0,"mode":4}]},{"name":"booth_07","primitives":[{"attributes":{"NORMAL":14,"POSITION":13,"TEXCOORD_0":15},"indices":12,"material":0,"mode":4}]},{"name":"booth_06","primitives":[{"attributes":{"NORMAL":18,"POSITION":17,"TEXCOORD_0":19},"indices":16,"material":0,"mode":4}]},{"name":"booth_05","primitives":[{"attributes":{"NORMAL":22,"POSITION":21,"TEXCOORD_0":23},"indices":20,"material":0,"mode":4}]},{"name":"booth_04","primitives":[{"attributes":{"NORMAL":26,"POSITION":25,"TEXCOORD_0":27},"indices":24,"material":0,"mode":4}]},{"name":"booth_03","primitives":[{"attributes":{"NORMAL":30,"POSITION":29,"TEXCOORD_0":31},"indices":28,"material":0,"mode":4}]},{"name":"booth_02","primitives":[{"attributes":{"NORMAL":34,"POSITION":33,"TEXCOORD_0":35},"indices":32,"material":0,"mode":4}]},{"name":"booth_01","primitives":[{"attributes":{"NORMAL":38,"POSITION":37,"TEXCOORD_0":39},"indices":36,"material":0,"mode":4}]}],"nodes":[{"children":[1],"mesh":0,"name":"Ferris wheel_01","rotation":[0,0,0,1],"scale":[1,1,1],"translation":[85.5287170410156,0,89.9800643920898]},{"children":[2,3,4,5,6,7,8,9],"mesh":1,"name":"wheel_01","rotation":[0,0,0,1],"scale":[1,1,1],"translation":[0.0000390624991268851,6.79987287521362,0]},{"mesh":2,"name":"booth_08","rotation":[0.707106828689575,0,0,0.707106709480286],"scale":[0.00999999977648258,0.00999999977648258,0.00999999977648258],"translation":[0.0340385437011719,-6.79987287521362,0.0339964590966702]},{"mesh":3,"name":"booth_07","rotation":[0.707106828689575,0,0,0.707106709480286],"scale":[0.00999999977648258,0.00999999977648258,0.00999999977648258],"translation":[0.0469731129705906,-6.79987287521362,0.0678094401955605]},{"mesh":4,"name":"booth_06","rotation":[0.707106828689575,0,0,0.707106709480286],"scale":[0.00999999977648258,0.00999999977648258,0.00999999977648258],"translation":[0.0331266783177853,-6.79987287521362,0.100625410676003]},{"mesh":5,"name":"booth_05","rotation":[0.707106828689575,0,0,0.707106709480286],"scale":[0.00999999977648258,0.00999999977648258,0.00999999977648258],"translation":[-0.00096824642969,-6.79987287521362,0.114148005843163]},{"mesh":6,"name":"booth_04","rotation":[0.707106828689575,0,0,0.707106709480286],"scale":[0.00999999977648258,0.00999999977648258,0.00999999977648258],"translation":[-0.03416847065091,-6.79987287521362,0.0991415306925774]},{"mesh":7,"name":"booth_03","rotation":[0.707106828689575,0,0,0.707106709480286],"scale":[0.00999999977648258,0.00999999977648258,0.00999999977648258],"translation":[-0.04682029783726,-6.79987287521362,0.0657318606972694]},{"mesh":8,"name":"booth_02","rotation":[0.707106828689575,0,0,0.707106709480286],"scale":[0.00999999977648258,0.00999999977648258,0.00999999977648258],"translation":[-0.03242423757911,-6.79987287521362,0.0325589329004288]},{"mesh":9,"name":"booth_01","rotation":[0.707106828689575,0,0,0.707106709480286],"scale":[0.00999999977648258,0.00999999977648258,0.00999999977648258],"translation":[0.00048828125,-6.79987287521362,0.0200055167078972]}],"samplers":[{}],"scene":0,"scenes":[{"name":"Root Scene","nodes":[0]}],"textures":[{"name":"base_color_texture","sampler":0,"source":0}]}