{"accessors":[{"bufferView":0,"byteOffset":0,"componentType":5123,"count":489,"type":"SCALAR"},{"bufferView":1,"byteOffset":0,"componentType":5126,"count":455,"max":[0.752057313919067,0.536916792392731,0.250234872102737],"min":[-0.25023487210274,0,-0.25700753927231],"type":"VEC3"},{"bufferView":2,"byteOffset":0,"componentType":5126,"count":455,"type":"VEC3"},{"bufferView":3,"byteOffset":0,"componentType":5126,"count":455,"type":"VEC2"}],"asset":{"generator":"FBX2glTF v0.13.1","version":"2.0"},"bufferViews":[{"buffer":0,"byteLength":978,"byteOffset":0,"target":34963},{"buffer":0,"byteLength":5460,"byteOffset":980,"target":34962},{"buffer":0,"byteLength":5460,"byteOffset":6440,"target":34962},{"buffer":0,"byteLength":3640,"byteOffset":11900,"target":34962}],"buffers":[{"byteLength":15540,"uri":"SM_flowerbed_08.bin"}],"images":[{"name":"Polygon_Camping_Texture_vol2.0","uri":"Polygon_Camping_Texture_vol2.0.jpg"}],"materials":[{"alphaMode":"OPAQUE","doubleSided":false,"extras":{"fromFBX":{"isTruePBR":false,"shadingModel":"Phong"}},"name":"Main_material","pbrMetallicRoughness":{"baseColorFactor":[1,1,1,1],"baseColorTexture":{"index":0,"texCoord":0},"metallicFactor":0.400000005960464,"roughnessFactor":0.272165536880493}}],"meshes":[{"name":"flowerbed_08","primitives":[{"attributes":{"NORMAL":2,"POSITION":1,"TEXCOORD_0":3},"indices":0,"material":0,"mode":4}]}],"nodes":[{"mesh":0,"name":"flowerbed_08","rotation":[0,0,0,1],"scale":[1,1,1],"translation":[12.7309198379517,0,12.0139398574829]}],"samplers":[{}],"scene":0,"scenes":[{"name":"Root Scene","nodes":[0]}],"textures":[{"name":"base_color_texture","sampler":0,"source":0}]}