{"accessors":[{"bufferView":0,"byteOffset":0,"componentType":5123,"count":3756,"type":"SCALAR"},{"bufferView":1,"byteOffset":0,"componentType":5126,"count":2368,"max":[2.028324842453,2.05244255065918,0.999656438827515],"min":[-1.97167491912842,0,-1.00034356117249],"type":"VEC3"},{"bufferView":2,"byteOffset":0,"componentType":5126,"count":2368,"type":"VEC3"},{"bufferView":3,"byteOffset":0,"componentType":5126,"count":2368,"type":"VEC2"}],"asset":{"generator":"FBX2glTF v0.13.1","version":"2.0"},"bufferViews":[{"buffer":0,"byteLength":7512,"byteOffset":0,"target":34963},{"buffer":0,"byteLength":28416,"byteOffset":7512,"target":34962},{"buffer":0,"byteLength":28416,"byteOffset":35928,"target":34962},{"buffer":0,"byteLength":18944,"byteOffset":64344,"target":34962}],"buffers":[{"byteLength":83288,"uri":"SM_fishing_boat_01.bin"}],"images":[{"name":"Polygon_Camping_Texture_vol2.0","uri":"Polygon_Camping_Texture_vol2.0.jpg"}],"materials":[{"alphaMode":"OPAQUE","doubleSided":false,"extras":{"fromFBX":{"isTruePBR":false,"shadingModel":"Phong"}},"name":"Main_material","pbrMetallicRoughness":{"baseColorFactor":[1,1,1,1],"baseColorTexture":{"index":0,"texCoord":0},"metallicFactor":0.400000005960464,"roughnessFactor":0.272165536880493}}],"meshes":[{"name":"fishing_boat_01","primitives":[{"attributes":{"NORMAL":2,"POSITION":1,"TEXCOORD_0":3},"indices":0,"material":0,"mode":4}]}],"nodes":[{"mesh":0,"name":"fishing_boat_01","rotation":[0,0,0,1],"scale":[1,1,1],"translation":[167.992523193359,0,50.0811462402344]}],"samplers":[{}],"scene":0,"scenes":[{"name":"Root Scene","nodes":[0]}],"textures":[{"name":"base_color_texture","sampler":0,"source":0}]}