{"accessors":[{"bufferView":0,"byteOffset":0,"componentType":5123,"count":90,"type":"SCALAR"},{"bufferView":1,"byteOffset":0,"componentType":5126,"count":56,"max":[0.899203538894653,0.300000011920929,0.899203538894653],"min":[-0.89920353889465,0,-0.89920353889465],"type":"VEC3"},{"bufferView":2,"byteOffset":0,"componentType":5126,"count":56,"type":"VEC3"},{"bufferView":3,"byteOffset":0,"componentType":5126,"count":56,"type":"VEC2"}],"asset":{"generator":"FBX2glTF v0.13.1","version":"2.0"},"bufferViews":[{"buffer":0,"byteLength":180,"byteOffset":0,"target":34963},{"buffer":0,"byteLength":672,"byteOffset":180,"target":34962},{"buffer":0,"byteLength":672,"byteOffset":852,"target":34962},{"buffer":0,"byteLength":448,"byteOffset":1524,"target":34962}],"buffers":[{"byteLength":1972,"uri":"SM_flowerbed_02.bin"}],"images":[{"name":"Polygon_Camping_Texture_vol2.0","uri":"Polygon_Camping_Texture_vol2.0.jpg"}],"materials":[{"alphaMode":"OPAQUE","doubleSided":false,"extras":{"fromFBX":{"isTruePBR":false,"shadingModel":"Phong"}},"name":"Main_material","pbrMetallicRoughness":{"baseColorFactor":[1,1,1,1],"baseColorTexture":{"index":0,"texCoord":0},"metallicFactor":0.400000005960464,"roughnessFactor":0.272165536880493}}],"meshes":[{"name":"flowerbed_02","primitives":[{"attributes":{"NORMAL":2,"POSITION":1,"TEXCOORD_0":3},"indices":0,"material":0,"mode":4}]}],"nodes":[{"mesh":0,"name":"flowerbed_02","rotation":[0,0,0,1],"scale":[1,1,1],"translation":[5.59825992584229,0,12.6629085540771]}],"samplers":[{}],"scene":0,"scenes":[{"name":"Root Scene","nodes":[0]}],"textures":[{"name":"base_color_texture","sampler":0,"source":0}]}