{"accessors":[{"bufferView":0,"byteOffset":0,"componentType":5123,"count":2580,"type":"SCALAR"},{"bufferView":1,"byteOffset":0,"componentType":5126,"count":1684,"max":[0.416372984647751,0.61923360824585,0.18158520758152],"min":[-0.3762826025486,0.0000000415899776839979,-0.18158513307571],"type":"VEC3"},{"bufferView":2,"byteOffset":0,"componentType":5126,"count":1684,"type":"VEC3"},{"bufferView":3,"byteOffset":0,"componentType":5126,"count":1684,"type":"VEC2"}],"asset":{"generator":"FBX2glTF v0.13.1","version":"2.0"},"bufferViews":[{"buffer":0,"byteLength":5160,"byteOffset":0,"target":34963},{"buffer":0,"byteLength":20208,"byteOffset":5160,"target":34962},{"buffer":0,"byteLength":20208,"byteOffset":25368,"target":34962},{"buffer":0,"byteLength":13472,"byteOffset":45576,"target":34962}],"buffers":[{"byteLength":59048,"uri":"SM_generator_01.bin"}],"images":[{"name":"Polygon_Camping_Texture_vol2.0","uri":"Polygon_Camping_Texture_vol2.0.jpg"}],"materials":[{"alphaMode":"OPAQUE","doubleSided":false,"extras":{"fromFBX":{"isTruePBR":false,"shadingModel":"Phong"}},"name":"Main_material","pbrMetallicRoughness":{"baseColorFactor":[1,1,1,1],"baseColorTexture":{"index":0,"texCoord":0},"metallicFactor":0.400000005960464,"roughnessFactor":0.272165536880493}}],"meshes":[{"name":"generator_01","primitives":[{"attributes":{"NORMAL":2,"POSITION":1,"TEXCOORD_0":3},"indices":0,"material":0,"mode":4}]}],"nodes":[{"mesh":0,"name":"generator_01","rotation":[0,0,0,1],"scale":[1,1,1],"translation":[16.232780456543,0,86.0491561889648]}],"samplers":[{}],"scene":0,"scenes":[{"name":"Root Scene","nodes":[0]}],"textures":[{"name":"base_color_texture","sampler":0,"source":0}]}