{"accessors":[{"bufferView":0,"byteOffset":0,"componentType":5123,"count":1056,"type":"SCALAR"},{"bufferView":1,"byteOffset":0,"componentType":5126,"count":560,"max":[0.900000870227814,1.59999990463257,0.95001208782196],"min":[-0.89999997615814,0,-1.04998779296875],"type":"VEC3"},{"bufferView":2,"byteOffset":0,"componentType":5126,"count":560,"type":"VEC3"},{"bufferView":3,"byteOffset":0,"componentType":5126,"count":560,"type":"VEC2"}],"asset":{"generator":"FBX2glTF v0.13.1","version":"2.0"},"bufferViews":[{"buffer":0,"byteLength":2112,"byteOffset":0,"target":34963},{"buffer":0,"byteLength":6720,"byteOffset":2112,"target":34962},{"buffer":0,"byteLength":6720,"byteOffset":8832,"target":34962},{"buffer":0,"byteLength":4480,"byteOffset":15552,"target":34962}],"buffers":[{"byteLength":20032,"uri":"SM_horizontal_bar_02.bin"}],"images":[{"name":"Polygon_Camping_Texture_vol2.0","uri":"Polygon_Camping_Texture_vol2.0.jpg"}],"materials":[{"alphaMode":"OPAQUE","doubleSided":false,"extras":{"fromFBX":{"isTruePBR":false,"shadingModel":"Phong"}},"name":"Main_material","pbrMetallicRoughness":{"baseColorFactor":[1,1,1,1],"baseColorTexture":{"index":0,"texCoord":0},"metallicFactor":0.400000005960464,"roughnessFactor":0.272165536880493}}],"meshes":[{"name":"horizontal_bar_02","primitives":[{"attributes":{"NORMAL":2,"POSITION":1,"TEXCOORD_0":3},"indices":0,"material":0,"mode":4}]}],"nodes":[{"mesh":0,"name":"horizontal_bar_02","rotation":[0,0,0,1],"scale":[1,1,1],"translation":[34.0901641845703,0,87.6466751098633]}],"samplers":[{}],"scene":0,"scenes":[{"name":"Root Scene","nodes":[0]}],"textures":[{"name":"base_color_texture","sampler":0,"source":0}]}