{"accessors":[{"bufferView":0,"byteOffset":0,"componentType":5123,"count":1224,"type":"SCALAR"},{"bufferView":1,"byteOffset":0,"componentType":5126,"count":631,"max":[2,2,0.5],"min":[-2,0,-0.5],"type":"VEC3"},{"bufferView":2,"byteOffset":0,"componentType":5126,"count":631,"type":"VEC3"},{"bufferView":3,"byteOffset":0,"componentType":5126,"count":631,"type":"VEC2"}],"asset":{"generator":"FBX2glTF v0.13.1","version":"2.0"},"bufferViews":[{"buffer":0,"byteLength":2448,"byteOffset":0,"target":34963},{"buffer":0,"byteLength":7572,"byteOffset":2448,"target":34962},{"buffer":0,"byteLength":7572,"byteOffset":10020,"target":34962},{"buffer":0,"byteLength":5048,"byteOffset":17592,"target":34962}],"buffers":[{"byteLength":22640,"uri":"SM_horizontal_bar_03.bin"}],"images":[{"name":"Polygon_Camping_Texture_vol2.0","uri":"Polygon_Camping_Texture_vol2.0.jpg"}],"materials":[{"alphaMode":"OPAQUE","doubleSided":false,"extras":{"fromFBX":{"isTruePBR":false,"shadingModel":"Phong"}},"name":"Main_material","pbrMetallicRoughness":{"baseColorFactor":[1,1,1,1],"baseColorTexture":{"index":0,"texCoord":0},"metallicFactor":0.400000005960464,"roughnessFactor":0.272165536880493}}],"meshes":[{"name":"horizontal_bar_03","primitives":[{"attributes":{"NORMAL":2,"POSITION":1,"TEXCOORD_0":3},"indices":0,"material":0,"mode":4}]}],"nodes":[{"mesh":0,"name":"horizontal_bar_03","rotation":[0,0,0,1],"scale":[1,1,1],"translation":[30.984432220459,0,87.8219299316406]}],"samplers":[{}],"scene":0,"scenes":[{"name":"Root Scene","nodes":[0]}],"textures":[{"name":"base_color_texture","sampler":0,"source":0}]}