{"accessors":[{"bufferView":0,"byteOffset":0,"componentType":5123,"count":606,"type":"SCALAR"},{"bufferView":1,"byteOffset":0,"componentType":5126,"count":316,"max":[4,0.0999999940395355,4],"min":[-4,0,-4],"type":"VEC3"},{"bufferView":2,"byteOffset":0,"componentType":5126,"count":316,"type":"VEC3"},{"bufferView":3,"byteOffset":0,"componentType":5126,"count":316,"type":"VEC2"}],"asset":{"generator":"FBX2glTF v0.13.1","version":"2.0"},"bufferViews":[{"buffer":0,"byteLength":1212,"byteOffset":0,"target":34963},{"buffer":0,"byteLength":3792,"byteOffset":1212,"target":34962},{"buffer":0,"byteLength":3792,"byteOffset":5004,"target":34962},{"buffer":0,"byteLength":2528,"byteOffset":8796,"target":34962}],"buffers":[{"byteLength":11324,"uri":"SM_hiking_trail_12.bin"}],"images":[{"name":"Polygon_Texture_vol2","uri":"Polygon_Texture_vol2.png"}],"materials":[{"alphaMode":"OPAQUE","doubleSided":false,"extras":{"fromFBX":{"isTruePBR":false,"shadingModel":"Phong"}},"name":"Main_material","pbrMetallicRoughness":{"baseColorFactor":[1,1,1,1],"baseColorTexture":{"index":0,"texCoord":0},"metallicFactor":0.400000005960464,"roughnessFactor":0.272165536880493}}],"meshes":[{"name":"hiking_trail_12","primitives":[{"attributes":{"NORMAL":2,"POSITION":1,"TEXCOORD_0":3},"indices":0,"material":0,"mode":4}]}],"nodes":[{"mesh":0,"name":"hiking_trail_12","rotation":[0,0,0,1],"scale":[1,1,1],"translation":[55.4605560302734,0,4.97977018356323]}],"samplers":[{}],"scene":0,"scenes":[{"name":"Root Scene","nodes":[0]}],"textures":[{"name":"base_color_texture","sampler":0,"source":0}]}