{"accessors":[{"bufferView":0,"byteOffset":0,"componentType":5123,"count":90,"type":"SCALAR"},{"bufferView":1,"byteOffset":0,"componentType":5126,"count":54,"max":[2.42873764038086,0.0999999940395355,1.57117128372192],"min":[-1.57126235961914,0,-2.42867517471313],"type":"VEC3"},{"bufferView":2,"byteOffset":0,"componentType":5126,"count":54,"type":"VEC3"},{"bufferView":3,"byteOffset":0,"componentType":5126,"count":54,"type":"VEC2"}],"asset":{"generator":"FBX2glTF v0.13.1","version":"2.0"},"bufferViews":[{"buffer":0,"byteLength":180,"byteOffset":0,"target":34963},{"buffer":0,"byteLength":648,"byteOffset":180,"target":34962},{"buffer":0,"byteLength":648,"byteOffset":828,"target":34962},{"buffer":0,"byteLength":432,"byteOffset":1476,"target":34962}],"buffers":[{"byteLength":1908,"uri":"SM_hiking_trail_10.bin"}],"images":[{"name":"Polygon_Texture_vol2","uri":"Polygon_Texture_vol2.png"}],"materials":[{"alphaMode":"OPAQUE","doubleSided":false,"extras":{"fromFBX":{"isTruePBR":false,"shadingModel":"Phong"}},"name":"Main_material","pbrMetallicRoughness":{"baseColorFactor":[1,1,1,1],"baseColorTexture":{"index":0,"texCoord":0},"metallicFactor":0.400000005960464,"roughnessFactor":0.272165536880493}}],"meshes":[{"name":"hiking_trail_10","primitives":[{"attributes":{"NORMAL":2,"POSITION":1,"TEXCOORD_0":3},"indices":0,"material":0,"mode":4}]}],"nodes":[{"mesh":0,"name":"hiking_trail_10","rotation":[0,0,0,1],"scale":[1,1,1],"translation":[39.7348480224609,0,3.40844559669495]}],"samplers":[{}],"scene":0,"scenes":[{"name":"Root Scene","nodes":[0]}],"textures":[{"name":"base_color_texture","sampler":0,"source":0}]}