{"accessors":[{"bufferView":0,"byteOffset":0,"componentType":5123,"count":1920,"type":"SCALAR"},{"bufferView":1,"byteOffset":0,"componentType":5126,"count":1262,"max":[2.02938866615295,2.0898015499115,2.01295256614685],"min":[-1.97061133384705,-0.03145182132721,-1.98704755306244],"type":"VEC3"},{"bufferView":2,"byteOffset":0,"componentType":5126,"count":1262,"type":"VEC3"},{"bufferView":3,"byteOffset":0,"componentType":5126,"count":1262,"type":"VEC2"}],"asset":{"generator":"FBX2glTF v0.13.1","version":"2.0"},"bufferViews":[{"buffer":0,"byteLength":3840,"byteOffset":0,"target":34963},{"buffer":0,"byteLength":15144,"byteOffset":3840,"target":34962},{"buffer":0,"byteLength":15144,"byteOffset":18984,"target":34962},{"buffer":0,"byteLength":10096,"byteOffset":34128,"target":34962}],"buffers":[{"byteLength":44224,"uri":"SM_horizontal_bar_04.bin"}],"images":[{"name":"Polygon_Camping_Texture_vol2.0","uri":"Polygon_Camping_Texture_vol2.0.jpg"}],"materials":[{"alphaMode":"OPAQUE","doubleSided":false,"extras":{"fromFBX":{"isTruePBR":false,"shadingModel":"Phong"}},"name":"Main_material","pbrMetallicRoughness":{"baseColorFactor":[1,1,1,1],"baseColorTexture":{"index":0,"texCoord":0},"metallicFactor":0.400000005960464,"roughnessFactor":0.272165536880493}}],"meshes":[{"name":"horizontal_bar_04","primitives":[{"attributes":{"NORMAL":2,"POSITION":1,"TEXCOORD_0":3},"indices":0,"material":0,"mode":4}]}],"nodes":[{"mesh":0,"name":"horizontal_bar_04","rotation":[0,0,0,1],"scale":[1,1,1],"translation":[31.0942573547363,0,90.5705337524414]}],"samplers":[{}],"scene":0,"scenes":[{"name":"Root Scene","nodes":[0]}],"textures":[{"name":"base_color_texture","sampler":0,"source":0}]}