{"accessors":[{"bufferView":0,"byteOffset":0,"componentType":5123,"count":2784,"type":"SCALAR"},{"bufferView":1,"byteOffset":0,"componentType":5126,"count":1844,"max":[0.496942520141602,0.0175819043070078,0.453981667757034],"min":[-0.22544820606708,-0.01758189126849,-0.29518020153046],"type":"VEC3"},{"bufferView":2,"byteOffset":0,"componentType":5126,"count":1844,"type":"VEC3"},{"bufferView":3,"byteOffset":0,"componentType":5126,"count":1844,"type":"VEC2"}],"asset":{"generator":"FBX2glTF v0.13.1","version":"2.0"},"bufferViews":[{"buffer":0,"byteLength":5568,"byteOffset":0,"target":34963},{"buffer":0,"byteLength":22128,"byteOffset":5568,"target":34962},{"buffer":0,"byteLength":22128,"byteOffset":27696,"target":34962},{"buffer":0,"byteLength":14752,"byteOffset":49824,"target":34962}],"buffers":[{"byteLength":64576,"uri":"SM_hose_01.bin"}],"images":[{"name":"Polygon_Camping_Texture_vol2.0","uri":"Polygon_Camping_Texture_vol2.0.jpg"}],"materials":[{"alphaMode":"OPAQUE","doubleSided":false,"extras":{"fromFBX":{"isTruePBR":false,"shadingModel":"Phong"}},"name":"Main_material","pbrMetallicRoughness":{"baseColorFactor":[1,1,1,1],"baseColorTexture":{"index":0,"texCoord":0},"metallicFactor":0.400000005960464,"roughnessFactor":0.272165536880493}}],"meshes":[{"name":"hose_01","primitives":[{"attributes":{"NORMAL":2,"POSITION":1,"TEXCOORD_0":3},"indices":0,"material":0,"mode":4}]}],"nodes":[{"mesh":0,"name":"hose_01","rotation":[0,0,0,1],"scale":[1,1,1],"translation":[11.6177253723145,0,86.4912796020508]}],"samplers":[{}],"scene":0,"scenes":[{"name":"Root Scene","nodes":[0]}],"textures":[{"name":"base_color_texture","sampler":0,"source":0}]}