{"accessors":[{"bufferView":0,"byteOffset":0,"componentType":5123,"count":57,"type":"SCALAR"},{"bufferView":1,"byteOffset":0,"componentType":5126,"count":35,"max":[1.04482269287109,0.0999999940395355,0.955178380012512],"min":[-0.95517730712891,0,-1.04482161998749],"type":"VEC3"},{"bufferView":2,"byteOffset":0,"componentType":5126,"count":35,"type":"VEC3"},{"bufferView":3,"byteOffset":0,"componentType":5126,"count":35,"type":"VEC2"}],"asset":{"generator":"FBX2glTF v0.13.1","version":"2.0"},"bufferViews":[{"buffer":0,"byteLength":114,"byteOffset":0,"target":34963},{"buffer":0,"byteLength":420,"byteOffset":116,"target":34962},{"buffer":0,"byteLength":420,"byteOffset":536,"target":34962},{"buffer":0,"byteLength":280,"byteOffset":956,"target":34962}],"buffers":[{"byteLength":1236,"uri":"SM_hiking_trail_09.bin"}],"images":[{"name":"Polygon_Texture_vol2","uri":"Polygon_Texture_vol2.png"}],"materials":[{"alphaMode":"OPAQUE","doubleSided":false,"extras":{"fromFBX":{"isTruePBR":false,"shadingModel":"Phong"}},"name":"Main_material","pbrMetallicRoughness":{"baseColorFactor":[1,1,1,1],"baseColorTexture":{"index":0,"texCoord":0},"metallicFactor":0.400000005960464,"roughnessFactor":0.272165536880493}}],"meshes":[{"name":"hiking_trail_09","primitives":[{"attributes":{"NORMAL":2,"POSITION":1,"TEXCOORD_0":3},"indices":0,"material":0,"mode":4}]}],"nodes":[{"mesh":0,"name":"hiking_trail_09","rotation":[0,0,0,1],"scale":[1,1,1],"translation":[36.5865364074707,0,2.02459192276001]}],"samplers":[{}],"scene":0,"scenes":[{"name":"Root Scene","nodes":[0]}],"textures":[{"name":"base_color_texture","sampler":0,"source":0}]}