{"accessors":[{"bufferView":0,"byteOffset":0,"componentType":5123,"count":138,"type":"SCALAR"},{"bufferView":1,"byteOffset":0,"componentType":5126,"count":68,"max":[0.499998420476913,0.0999999493360519,0.50000011920929],"min":[-0.51795154809952,0,-0.49999988079071],"type":"VEC3"},{"bufferView":2,"byteOffset":0,"componentType":5126,"count":68,"type":"VEC3"},{"bufferView":3,"byteOffset":0,"componentType":5126,"count":68,"type":"VEC2"}],"asset":{"generator":"FBX2glTF v0.13.1","version":"2.0"},"bufferViews":[{"buffer":0,"byteLength":276,"byteOffset":0,"target":34963},{"buffer":0,"byteLength":816,"byteOffset":276,"target":34962},{"buffer":0,"byteLength":816,"byteOffset":1092,"target":34962},{"buffer":0,"byteLength":544,"byteOffset":1908,"target":34962}],"buffers":[{"byteLength":2452,"uri":"SM_ladder_05.bin"}],"images":[{"name":"Polygon_Camping_Texture_vol2.0","uri":"Polygon_Camping_Texture_vol2.0.jpg"}],"materials":[{"alphaMode":"OPAQUE","doubleSided":false,"extras":{"fromFBX":{"isTruePBR":false,"shadingModel":"Phong"}},"name":"Main_material","pbrMetallicRoughness":{"baseColorFactor":[1,1,1,1],"baseColorTexture":{"index":0,"texCoord":0},"metallicFactor":0.400000005960464,"roughnessFactor":0.272165536880493}}],"meshes":[{"name":"ladder_05","primitives":[{"attributes":{"NORMAL":2,"POSITION":1,"TEXCOORD_0":3},"indices":0,"material":0,"mode":4}]}],"nodes":[{"mesh":0,"name":"ladder_05","rotation":[0,0,0,1],"scale":[1,1,1],"translation":[95.7170867919922,0,-1.96597373485565]}],"samplers":[{}],"scene":0,"scenes":[{"name":"Root Scene","nodes":[0]}],"textures":[{"name":"base_color_texture","sampler":0,"source":0}]}