{"accessors":[{"bufferView":0,"byteOffset":0,"componentType":5123,"count":1110,"type":"SCALAR"},{"bufferView":1,"byteOffset":0,"componentType":5126,"count":578,"max":[0.930912911891937,0.843464851379395,1.0709125995636],"min":[-1.84999930858612,0.0000000596046447753906,-1.93091213703156],"type":"VEC3"},{"bufferView":2,"byteOffset":0,"componentType":5126,"count":578,"type":"VEC3"},{"bufferView":3,"byteOffset":0,"componentType":5126,"count":578,"type":"VEC2"}],"asset":{"generator":"FBX2glTF v0.13.1","version":"2.0"},"bufferViews":[{"buffer":0,"byteLength":2220,"byteOffset":0,"target":34963},{"buffer":0,"byteLength":6936,"byteOffset":2220,"target":34962},{"buffer":0,"byteLength":6936,"byteOffset":9156,"target":34962},{"buffer":0,"byteLength":4624,"byteOffset":16092,"target":34962}],"buffers":[{"byteLength":20716,"uri":"SM_ladder_03.bin"}],"images":[{"name":"Polygon_Camping_Texture_vol2.0","uri":"Polygon_Camping_Texture_vol2.0.jpg"}],"materials":[{"alphaMode":"OPAQUE","doubleSided":false,"extras":{"fromFBX":{"isTruePBR":false,"shadingModel":"Phong"}},"name":"Main_material","pbrMetallicRoughness":{"baseColorFactor":[1,1,1,1],"baseColorTexture":{"index":0,"texCoord":0},"metallicFactor":0.400000005960464,"roughnessFactor":0.272165536880493}}],"meshes":[{"name":"ladder_03","primitives":[{"attributes":{"NORMAL":2,"POSITION":1,"TEXCOORD_0":3},"indices":0,"material":0,"mode":4}]}],"nodes":[{"mesh":0,"name":"ladder_03","rotation":[0,0,0,1],"scale":[1,1,1],"translation":[86.9635696411133,1.79999995231628,-5.91944026947021]}],"samplers":[{}],"scene":0,"scenes":[{"name":"Root Scene","nodes":[0]}],"textures":[{"name":"base_color_texture","sampler":0,"source":0}]}