{"accessors":[{"bufferView":0,"byteOffset":0,"componentType":5123,"count":381,"type":"SCALAR"},{"bufferView":1,"byteOffset":0,"componentType":5126,"count":209,"max":[16,0,16],"min":[-16,-0.43211859464645,-16],"type":"VEC3"},{"bufferView":2,"byteOffset":0,"componentType":5126,"count":209,"type":"VEC3"},{"bufferView":3,"byteOffset":0,"componentType":5126,"count":209,"type":"VEC2"}],"asset":{"generator":"FBX2glTF v0.13.1","version":"2.0"},"bufferViews":[{"buffer":0,"byteLength":762,"byteOffset":0,"target":34963},{"buffer":0,"byteLength":2508,"byteOffset":764,"target":34962},{"buffer":0,"byteLength":2508,"byteOffset":3272,"target":34962},{"buffer":0,"byteLength":1672,"byteOffset":5780,"target":34962}],"buffers":[{"byteLength":7452,"uri":"SM_lake.bin"}],"images":[{"name":"Polygon_Camping_Texture_vol2.0","uri":"Polygon_Camping_Texture_vol2.0.jpg"}],"materials":[{"alphaMode":"OPAQUE","doubleSided":false,"extras":{"fromFBX":{"isTruePBR":false,"shadingModel":"Phong"}},"name":"Main_material","pbrMetallicRoughness":{"baseColorFactor":[1,1,1,1],"baseColorTexture":{"index":0,"texCoord":0},"metallicFactor":0.400000005960464,"roughnessFactor":0.272165536880493}}],"meshes":[{"name":"lake","primitives":[{"attributes":{"NORMAL":2,"POSITION":1,"TEXCOORD_0":3},"indices":0,"material":0,"mode":4}]}],"nodes":[{"mesh":0,"name":"lake","rotation":[0,0,0,1],"scale":[1,1,1],"translation":[141.719741821289,0,49.891731262207]}],"samplers":[{}],"scene":0,"scenes":[{"name":"Root Scene","nodes":[0]}],"textures":[{"name":"base_color_texture","sampler":0,"source":0}]}