{"accessors":[{"bufferView":0,"byteOffset":0,"componentType":5123,"count":192,"type":"SCALAR"},{"bufferView":1,"byteOffset":0,"componentType":5126,"count":128,"max":[0.00019514560699462,0.111246466636658,0.109426513314247],"min":[-0.57884061336517,-0.01039791107178,-0.11947597563267],"type":"VEC3"},{"bufferView":2,"byteOffset":0,"componentType":5126,"count":128,"type":"VEC3"},{"bufferView":3,"byteOffset":0,"componentType":5126,"count":128,"type":"VEC2"}],"asset":{"generator":"FBX2glTF v0.13.1","version":"2.0"},"bufferViews":[{"buffer":0,"byteLength":384,"byteOffset":0,"target":34963},{"buffer":0,"byteLength":1536,"byteOffset":384,"target":34962},{"buffer":0,"byteLength":1536,"byteOffset":1920,"target":34962},{"buffer":0,"byteLength":1024,"byteOffset":3456,"target":34962}],"buffers":[{"byteLength":4480,"uri":"SM_lamp_01.bin"}],"images":[{"name":"Polygon_Camping_Texture_vol2.0","uri":"Polygon_Camping_Texture_vol2.0.jpg"}],"materials":[{"alphaMode":"OPAQUE","doubleSided":false,"extras":{"fromFBX":{"isTruePBR":false,"shadingModel":"Phong"}},"name":"Main_material","pbrMetallicRoughness":{"baseColorFactor":[1,1,1,1],"baseColorTexture":{"index":0,"texCoord":0},"metallicFactor":0.400000005960464,"roughnessFactor":0.272165536880493}}],"meshes":[{"name":"lamp_01","primitives":[{"attributes":{"NORMAL":2,"POSITION":1,"TEXCOORD_0":3},"indices":0,"material":0,"mode":4}]}],"nodes":[{"mesh":0,"name":"lamp_01","rotation":[0,0,0,1],"scale":[1,1,1],"translation":[-0.71882206201553,0.497355222702026,-32.9440422058105]}],"samplers":[{}],"scene":0,"scenes":[{"name":"Root Scene","nodes":[0]}],"textures":[{"name":"base_color_texture","sampler":0,"source":0}]}