{"accessors":[{"bufferView":0,"byteOffset":0,"componentType":5123,"count":492,"type":"SCALAR"},{"bufferView":1,"byteOffset":0,"componentType":5126,"count":264,"max":[0.50000011920929,0.843464851379395,1.07091224193573],"min":[-0.5,0.0000000596046447753906,-0.93091237545013],"type":"VEC3"},{"bufferView":2,"byteOffset":0,"componentType":5126,"count":264,"type":"VEC3"},{"bufferView":3,"byteOffset":0,"componentType":5126,"count":264,"type":"VEC2"}],"asset":{"generator":"FBX2glTF v0.13.1","version":"2.0"},"bufferViews":[{"buffer":0,"byteLength":984,"byteOffset":0,"target":34963},{"buffer":0,"byteLength":3168,"byteOffset":984,"target":34962},{"buffer":0,"byteLength":3168,"byteOffset":4152,"target":34962},{"buffer":0,"byteLength":2112,"byteOffset":7320,"target":34962}],"buffers":[{"byteLength":9432,"uri":"SM_ladder_02.bin"}],"images":[{"name":"Polygon_Camping_Texture_vol2.0","uri":"Polygon_Camping_Texture_vol2.0.jpg"}],"materials":[{"alphaMode":"OPAQUE","doubleSided":false,"extras":{"fromFBX":{"isTruePBR":false,"shadingModel":"Phong"}},"name":"Main_material","pbrMetallicRoughness":{"baseColorFactor":[1,1,1,1],"baseColorTexture":{"index":0,"texCoord":0},"metallicFactor":0.400000005960464,"roughnessFactor":0.272165536880493}}],"meshes":[{"name":"ladder_02","primitives":[{"attributes":{"NORMAL":2,"POSITION":1,"TEXCOORD_0":3},"indices":0,"material":0,"mode":4}]}],"nodes":[{"mesh":0,"name":"ladder_02","rotation":[0,0,0,1],"scale":[1,1,1],"translation":[84.4844741821289,1.79999995231628,-4.05761528015137]}],"samplers":[{}],"scene":0,"scenes":[{"name":"Root Scene","nodes":[0]}],"textures":[{"name":"base_color_texture","sampler":0,"source":0}]}