{"accessors":[{"bufferView":0,"byteOffset":0,"componentType":5123,"count":1296,"type":"SCALAR"},{"bufferView":1,"byteOffset":0,"componentType":5126,"count":840,"max":[1,2.53384065628052,1],"min":[-1,0,-1],"type":"VEC3"},{"bufferView":2,"byteOffset":0,"componentType":5126,"count":840,"type":"VEC3"},{"bufferView":3,"byteOffset":0,"componentType":5126,"count":840,"type":"VEC2"}],"asset":{"generator":"FBX2glTF v0.13.1","version":"2.0"},"bufferViews":[{"buffer":0,"byteLength":2592,"byteOffset":0,"target":34963},{"buffer":0,"byteLength":10080,"byteOffset":2592,"target":34962},{"buffer":0,"byteLength":10080,"byteOffset":12672,"target":34962},{"buffer":0,"byteLength":6720,"byteOffset":22752,"target":34962}],"buffers":[{"byteLength":29472,"uri":"SM_ladder_06.bin"}],"images":[{"name":"Polygon_Camping_Texture_vol2.0","uri":"Polygon_Camping_Texture_vol2.0.jpg"}],"materials":[{"alphaMode":"OPAQUE","doubleSided":false,"extras":{"fromFBX":{"isTruePBR":false,"shadingModel":"Phong"}},"name":"Main_material","pbrMetallicRoughness":{"baseColorFactor":[1,1,1,1],"baseColorTexture":{"index":0,"texCoord":0},"metallicFactor":0.400000005960464,"roughnessFactor":0.272165536880493}}],"meshes":[{"name":"ladder_06","primitives":[{"attributes":{"NORMAL":2,"POSITION":1,"TEXCOORD_0":3},"indices":0,"material":0,"mode":4}]}],"nodes":[{"mesh":0,"name":"ladder_06","rotation":[0,0,0,1],"scale":[1,1,1],"translation":[97.4776077270508,0,-1.96597373485565]}],"samplers":[{}],"scene":0,"scenes":[{"name":"Root Scene","nodes":[0]}],"textures":[{"name":"base_color_texture","sampler":0,"source":0}]}