{"accessors":[{"bufferView":0,"byteOffset":0,"componentType":5123,"count":648,"type":"SCALAR"},{"bufferView":1,"byteOffset":0,"componentType":5126,"count":286,"max":[0.88390988111496,0.997197389602661,4.00000095367432],"min":[-0.88390988111496,0,-3.99999904632568],"type":"VEC3"},{"bufferView":2,"byteOffset":0,"componentType":5126,"count":286,"type":"VEC3"},{"bufferView":3,"byteOffset":0,"componentType":5126,"count":286,"type":"VEC2"}],"asset":{"generator":"FBX2glTF v0.13.1","version":"2.0"},"bufferViews":[{"buffer":0,"byteLength":1296,"byteOffset":0,"target":34963},{"buffer":0,"byteLength":3432,"byteOffset":1296,"target":34962},{"buffer":0,"byteLength":3432,"byteOffset":4728,"target":34962},{"buffer":0,"byteLength":2288,"byteOffset":8160,"target":34962}],"buffers":[{"byteLength":10448,"uri":"SM_monorail_01.bin"}],"images":[{"name":"Polygon_Camping_Texture_vol2.0","uri":"Polygon_Camping_Texture_vol2.0.jpg"}],"materials":[{"alphaMode":"OPAQUE","doubleSided":false,"extras":{"fromFBX":{"isTruePBR":false,"shadingModel":"Phong"}},"name":"Main_material","pbrMetallicRoughness":{"baseColorFactor":[1,1,1,1],"baseColorTexture":{"index":0,"texCoord":0},"metallicFactor":0.400000005960464,"roughnessFactor":0.272165536880493}}],"meshes":[{"name":"monorail_01","primitives":[{"attributes":{"NORMAL":2,"POSITION":1,"TEXCOORD_0":3},"indices":0,"material":0,"mode":4}]}],"nodes":[{"mesh":0,"name":"monorail_01","rotation":[0,0,0,1],"scale":[1,1,1],"translation":[0.00000685453414916992,0,-37.9325218200684]}],"samplers":[{}],"scene":0,"scenes":[{"name":"Root Scene","nodes":[0]}],"textures":[{"name":"base_color_texture","sampler":0,"source":0}]}