{"accessors":[{"bufferView":0,"byteOffset":0,"componentType":5123,"count":228,"type":"SCALAR"},{"bufferView":1,"byteOffset":0,"componentType":5126,"count":228,"max":[1.01566100120544,1.2861602306366,1.50484657287598],"min":[-1.00333058834076,-0.0018276355695,-1.5],"type":"VEC3"},{"bufferView":2,"byteOffset":0,"componentType":5126,"count":228,"type":"VEC3"},{"bufferView":3,"byteOffset":0,"componentType":5126,"count":228,"type":"VEC2"}],"asset":{"generator":"FBX2glTF v0.13.1","version":"2.0"},"bufferViews":[{"buffer":0,"byteLength":456,"byteOffset":0,"target":34963},{"buffer":0,"byteLength":2736,"byteOffset":456,"target":34962},{"buffer":0,"byteLength":2736,"byteOffset":3192,"target":34962},{"buffer":0,"byteLength":1824,"byteOffset":5928,"target":34962}],"buffers":[{"byteLength":7752,"uri":"SM_mountain_of_sand_01.bin"}],"images":[{"name":"Polygon_Camping_Texture_vol2.0","uri":"Polygon_Camping_Texture_vol2.0.jpg"}],"materials":[{"alphaMode":"OPAQUE","doubleSided":false,"extras":{"fromFBX":{"isTruePBR":false,"shadingModel":"Phong"}},"name":"Main_material","pbrMetallicRoughness":{"baseColorFactor":[1,1,1,1],"baseColorTexture":{"index":0,"texCoord":0},"metallicFactor":0.400000005960464,"roughnessFactor":0.272165536880493}}],"meshes":[{"name":"mountain_of_sand_01","primitives":[{"attributes":{"NORMAL":2,"POSITION":1,"TEXCOORD_0":3},"indices":0,"material":0,"mode":4}]}],"nodes":[{"mesh":0,"name":"mountain_of_sand_01","rotation":[0,0,0,1],"scale":[1,1,1],"translation":[10.6692743301392,0,84.5544967651367]}],"samplers":[{}],"scene":0,"scenes":[{"name":"Root Scene","nodes":[0]}],"textures":[{"name":"base_color_texture","sampler":0,"source":0}]}