{"accessors":[{"bufferView":0,"byteOffset":0,"componentType":5123,"count":186,"type":"SCALAR"},{"bufferView":1,"byteOffset":0,"componentType":5126,"count":186,"max":[0.748026013374329,0.671950876712799,1.26574850082397],"min":[-0.66150832176208,0.001748111913912,-0.80218541622162],"type":"VEC3"},{"bufferView":2,"byteOffset":0,"componentType":5126,"count":186,"type":"VEC3"},{"bufferView":3,"byteOffset":0,"componentType":5126,"count":186,"type":"VEC2"}],"asset":{"generator":"FBX2glTF v0.13.1","version":"2.0"},"bufferViews":[{"buffer":0,"byteLength":372,"byteOffset":0,"target":34963},{"buffer":0,"byteLength":2232,"byteOffset":372,"target":34962},{"buffer":0,"byteLength":2232,"byteOffset":2604,"target":34962},{"buffer":0,"byteLength":1488,"byteOffset":4836,"target":34962}],"buffers":[{"byteLength":6324,"uri":"SM_mountain_of_sand_02.bin"}],"images":[{"name":"Polygon_Camping_Texture_vol2.0","uri":"Polygon_Camping_Texture_vol2.0.jpg"}],"materials":[{"alphaMode":"OPAQUE","doubleSided":false,"extras":{"fromFBX":{"isTruePBR":false,"shadingModel":"Phong"}},"name":"Main_material","pbrMetallicRoughness":{"baseColorFactor":[1,1,1,1],"baseColorTexture":{"index":0,"texCoord":0},"metallicFactor":0.400000005960464,"roughnessFactor":0.272165536880493}}],"meshes":[{"name":"mountain_of_sand_02","primitives":[{"attributes":{"NORMAL":2,"POSITION":1,"TEXCOORD_0":3},"indices":0,"material":0,"mode":4}]}],"nodes":[{"mesh":0,"name":"mountain_of_sand_02","rotation":[0,0,0,1],"scale":[1,1,1],"translation":[12.5340728759766,0,83.8216018676758]}],"samplers":[{}],"scene":0,"scenes":[{"name":"Root Scene","nodes":[0]}],"textures":[{"name":"base_color_texture","sampler":0,"source":0}]}