{"accessors":[{"bufferView":0,"byteOffset":0,"componentType":5123,"count":2760,"type":"SCALAR"},{"bufferView":1,"byteOffset":0,"componentType":5126,"count":1692,"max":[5.19060468673706,0.997197389602661,10.3961591720581],"min":[-10.3972492218018,0,-5.1846399307251],"type":"VEC3"},{"bufferView":2,"byteOffset":0,"componentType":5126,"count":1692,"type":"VEC3"},{"bufferView":3,"byteOffset":0,"componentType":5126,"count":1692,"type":"VEC2"}],"asset":{"generator":"FBX2glTF v0.13.1","version":"2.0"},"bufferViews":[{"buffer":0,"byteLength":5520,"byteOffset":0,"target":34963},{"buffer":0,"byteLength":20304,"byteOffset":5520,"target":34962},{"buffer":0,"byteLength":20304,"byteOffset":25824,"target":34962},{"buffer":0,"byteLength":13536,"byteOffset":46128,"target":34962}],"buffers":[{"byteLength":59664,"uri":"SM_monorail_06.bin"}],"images":[{"name":"Polygon_Camping_Texture_vol2.0","uri":"Polygon_Camping_Texture_vol2.0.jpg"}],"materials":[{"alphaMode":"OPAQUE","doubleSided":false,"extras":{"fromFBX":{"isTruePBR":false,"shadingModel":"Phong"}},"name":"Main_material","pbrMetallicRoughness":{"baseColorFactor":[1,1,1,1],"baseColorTexture":{"index":0,"texCoord":0},"metallicFactor":0.400000005960464,"roughnessFactor":0.272165536880493}}],"meshes":[{"name":"monorail_06","primitives":[{"attributes":{"NORMAL":2,"POSITION":1,"TEXCOORD_0":3},"indices":0,"material":0,"mode":4}]}],"nodes":[{"mesh":0,"name":"monorail_06","rotation":[0,0,0,1],"scale":[1,1,1],"translation":[22.6123485565186,0,-50.0378456115723]}],"samplers":[{}],"scene":0,"scenes":[{"name":"Root Scene","nodes":[0]}],"textures":[{"name":"base_color_texture","sampler":0,"source":0}]}