{"accessors":[{"bufferView":0,"byteOffset":0,"componentType":5123,"count":5400,"type":"SCALAR"},{"bufferView":1,"byteOffset":0,"componentType":5126,"count":3280,"max":[15.5870418548584,0.997197389602661,14.7023878097534],"min":[-15.5870761871338,0,-0.88386213779449],"type":"VEC3"},{"bufferView":2,"byteOffset":0,"componentType":5126,"count":3280,"type":"VEC3"},{"bufferView":3,"byteOffset":0,"componentType":5126,"count":3280,"type":"VEC2"}],"asset":{"generator":"FBX2glTF v0.13.1","version":"2.0"},"bufferViews":[{"buffer":0,"byteLength":10800,"byteOffset":0,"target":34963},{"buffer":0,"byteLength":39360,"byteOffset":10800,"target":34962},{"buffer":0,"byteLength":39360,"byteOffset":50160,"target":34962},{"buffer":0,"byteLength":26240,"byteOffset":89520,"target":34962}],"buffers":[{"byteLength":115760,"uri":"SM_monorail_07.bin"}],"images":[{"name":"Polygon_Camping_Texture_vol2.0","uri":"Polygon_Camping_Texture_vol2.0.jpg"}],"materials":[{"alphaMode":"OPAQUE","doubleSided":false,"extras":{"fromFBX":{"isTruePBR":false,"shadingModel":"Phong"}},"name":"Main_material","pbrMetallicRoughness":{"baseColorFactor":[1,1,1,1],"baseColorTexture":{"index":0,"texCoord":0},"metallicFactor":0.400000005960464,"roughnessFactor":0.272165536880493}}],"meshes":[{"name":"monorail_07","primitives":[{"attributes":{"NORMAL":2,"POSITION":1,"TEXCOORD_0":3},"indices":0,"material":0,"mode":4}]}],"nodes":[{"mesh":0,"name":"monorail_07","rotation":[0,0,0,1],"scale":[1,1,1],"translation":[14.7031726837158,0,-57.378288269043]}],"samplers":[{}],"scene":0,"scenes":[{"name":"Root Scene","nodes":[0]}],"textures":[{"name":"base_color_texture","sampler":0,"source":0}]}