{"accessors":[{"bufferView":0,"byteOffset":0,"componentType":5123,"count":780,"type":"SCALAR"},{"bufferView":1,"byteOffset":0,"componentType":5126,"count":448,"max":[0.883910179138184,1.69064855575562,0],"min":[-0.88390952348709,-0.00000006705523,-9.99586868286133],"type":"VEC3"},{"bufferView":2,"byteOffset":0,"componentType":5126,"count":448,"type":"VEC3"},{"bufferView":3,"byteOffset":0,"componentType":5126,"count":448,"type":"VEC2"}],"asset":{"generator":"FBX2glTF v0.13.1","version":"2.0"},"bufferViews":[{"buffer":0,"byteLength":1560,"byteOffset":0,"target":34963},{"buffer":0,"byteLength":5376,"byteOffset":1560,"target":34962},{"buffer":0,"byteLength":5376,"byteOffset":6936,"target":34962},{"buffer":0,"byteLength":3584,"byteOffset":12312,"target":34962}],"buffers":[{"byteLength":15896,"uri":"SM_monorail_03.bin"}],"images":[{"name":"Polygon_Camping_Texture_vol2.0","uri":"Polygon_Camping_Texture_vol2.0.jpg"}],"materials":[{"alphaMode":"OPAQUE","doubleSided":false,"extras":{"fromFBX":{"isTruePBR":false,"shadingModel":"Phong"}},"name":"Main_material","pbrMetallicRoughness":{"baseColorFactor":[1,1,1,1],"baseColorTexture":{"index":0,"texCoord":0},"metallicFactor":0.400000005960464,"roughnessFactor":0.272165536880493}}],"meshes":[{"name":"monorail_03","primitives":[{"attributes":{"NORMAL":2,"POSITION":1,"TEXCOORD_0":3},"indices":0,"material":0,"mode":4}]}],"nodes":[{"mesh":0,"name":"monorail_03","rotation":[0,0,0,1],"scale":[1,1,1],"translation":[6.77061986923218,-0.08715573698282,-31.8611392974854]}],"samplers":[{}],"scene":0,"scenes":[{"name":"Root Scene","nodes":[0]}],"textures":[{"name":"base_color_texture","sampler":0,"source":0}]}