{"accessors":[{"bufferView":0,"byteOffset":0,"componentType":5123,"count":900,"type":"SCALAR"},{"bufferView":1,"byteOffset":0,"componentType":5126,"count":600,"max":[0.654933452606201,0.0472450330853462,1.57489788532257],"min":[-0.65493339300156,-0.91760897636414,-1.57489264011383],"type":"VEC3"},{"bufferView":2,"byteOffset":0,"componentType":5126,"count":600,"type":"VEC3"},{"bufferView":3,"byteOffset":0,"componentType":5126,"count":600,"type":"VEC2"}],"asset":{"generator":"FBX2glTF v0.13.1","version":"2.0"},"bufferViews":[{"buffer":0,"byteLength":1800,"byteOffset":0,"target":34963},{"buffer":0,"byteLength":7200,"byteOffset":1800,"target":34962},{"buffer":0,"byteLength":7200,"byteOffset":9000,"target":34962},{"buffer":0,"byteLength":4800,"byteOffset":16200,"target":34962}],"buffers":[{"byteLength":21000,"uri":"SM_object_for_crane_01.bin"}],"images":[{"name":"Polygon_Camping_Texture_vol2.0","uri":"Polygon_Camping_Texture_vol2.0.jpg"}],"materials":[{"alphaMode":"OPAQUE","doubleSided":false,"extras":{"fromFBX":{"isTruePBR":false,"shadingModel":"Phong"}},"name":"Main_material","pbrMetallicRoughness":{"baseColorFactor":[1,1,1,1],"baseColorTexture":{"index":0,"texCoord":0},"metallicFactor":0.400000005960464,"roughnessFactor":0.272165536880493}}],"meshes":[{"name":"object_for_crane_01","primitives":[{"attributes":{"NORMAL":2,"POSITION":1,"TEXCOORD_0":3},"indices":0,"material":0,"mode":4}]}],"nodes":[{"mesh":0,"name":"object_for_crane_01","rotation":[0,0,0,1],"scale":[1,1,1],"translation":[2.96420431137085,8.67773628234863,85.1790390014648]}],"samplers":[{}],"scene":0,"scenes":[{"name":"Root Scene","nodes":[0]}],"textures":[{"name":"base_color_texture","sampler":0,"source":0}]}