{"accessors":[{"bufferView":0,"byteOffset":0,"componentType":5123,"count":768,"type":"SCALAR"},{"bufferView":1,"byteOffset":0,"componentType":5126,"count":448,"max":[0.614862322807312,0.00383841991424561,1.37685084342957],"min":[-0.60209852457046,-0.89836972951889,-1.37684524059296],"type":"VEC3"},{"bufferView":2,"byteOffset":0,"componentType":5126,"count":448,"type":"VEC3"},{"bufferView":3,"byteOffset":0,"componentType":5126,"count":448,"type":"VEC2"}],"asset":{"generator":"FBX2glTF v0.13.1","version":"2.0"},"bufferViews":[{"buffer":0,"byteLength":1536,"byteOffset":0,"target":34963},{"buffer":0,"byteLength":5376,"byteOffset":1536,"target":34962},{"buffer":0,"byteLength":5376,"byteOffset":6912,"target":34962},{"buffer":0,"byteLength":3584,"byteOffset":12288,"target":34962}],"buffers":[{"byteLength":15872,"uri":"SM_object_for_crane_03.bin"}],"images":[{"name":"Polygon_Camping_Texture_vol2.0","uri":"Polygon_Camping_Texture_vol2.0.jpg"}],"materials":[{"alphaMode":"OPAQUE","doubleSided":false,"extras":{"fromFBX":{"isTruePBR":false,"shadingModel":"Phong"}},"name":"Main_material","pbrMetallicRoughness":{"baseColorFactor":[1,1,1,1],"baseColorTexture":{"index":0,"texCoord":0},"metallicFactor":0.400000005960464,"roughnessFactor":0.272165536880493}}],"meshes":[{"name":"object_for_crane_03","primitives":[{"attributes":{"NORMAL":2,"POSITION":1,"TEXCOORD_0":3},"indices":0,"material":0,"mode":4}]}],"nodes":[{"mesh":0,"name":"object_for_crane_03","rotation":[0,0,0,1],"scale":[1,1,1],"translation":[5.80792570114136,8.67773628234863,85.1790390014648]}],"samplers":[{}],"scene":0,"scenes":[{"name":"Root Scene","nodes":[0]}],"textures":[{"name":"base_color_texture","sampler":0,"source":0}]}