{"accessors":[{"bufferView":0,"byteOffset":0,"componentType":5123,"count":852,"type":"SCALAR"},{"bufferView":1,"byteOffset":0,"componentType":5126,"count":494,"max":[0.476330250501633,0.476325988769531,1.77553141117096],"min":[-0.47633084654808,-0.47633457183838,-1.77553987503052],"type":"VEC3"},{"bufferView":2,"byteOffset":0,"componentType":5126,"count":494,"type":"VEC3"},{"bufferView":3,"byteOffset":0,"componentType":5126,"count":494,"type":"VEC2"}],"asset":{"generator":"FBX2glTF v0.13.1","version":"2.0"},"bufferViews":[{"buffer":0,"byteLength":1704,"byteOffset":0,"target":34963},{"buffer":0,"byteLength":5928,"byteOffset":1704,"target":34962},{"buffer":0,"byteLength":5928,"byteOffset":7632,"target":34962},{"buffer":0,"byteLength":3952,"byteOffset":13560,"target":34962}],"buffers":[{"byteLength":17512,"uri":"SM_object_for_crane_02.bin"}],"images":[{"name":"Polygon_Camping_Texture_vol2.0","uri":"Polygon_Camping_Texture_vol2.0.jpg"}],"materials":[{"alphaMode":"OPAQUE","doubleSided":false,"extras":{"fromFBX":{"isTruePBR":false,"shadingModel":"Phong"}},"name":"Main_material","pbrMetallicRoughness":{"baseColorFactor":[1,1,1,1],"baseColorTexture":{"index":0,"texCoord":0},"metallicFactor":0.400000005960464,"roughnessFactor":0.272165536880493}}],"meshes":[{"name":"object_for_crane_02","primitives":[{"attributes":{"NORMAL":2,"POSITION":1,"TEXCOORD_0":3},"indices":0,"material":0,"mode":4}]}],"nodes":[{"mesh":0,"name":"object_for_crane_02","rotation":[0,0,0,1],"scale":[1,1,1],"translation":[4.55687522888184,8.39623355865479,85.1790924072266]}],"samplers":[{}],"scene":0,"scenes":[{"name":"Root Scene","nodes":[0]}],"textures":[{"name":"base_color_texture","sampler":0,"source":0}]}