{"accessors":[{"bufferView":0,"byteOffset":0,"componentType":5123,"count":102,"type":"SCALAR"},{"bufferView":1,"byteOffset":0,"componentType":5126,"count":66,"max":[1,2,0.979230463504791],"min":[-1,0,-1.02076947689056],"type":"VEC3"},{"bufferView":2,"byteOffset":0,"componentType":5126,"count":66,"type":"VEC3"},{"bufferView":3,"byteOffset":0,"componentType":5126,"count":66,"type":"VEC2"}],"asset":{"generator":"FBX2glTF v0.13.1","version":"2.0"},"bufferViews":[{"buffer":0,"byteLength":204,"byteOffset":0,"target":34963},{"buffer":0,"byteLength":792,"byteOffset":204,"target":34962},{"buffer":0,"byteLength":792,"byteOffset":996,"target":34962},{"buffer":0,"byteLength":528,"byteOffset":1788,"target":34962}],"buffers":[{"byteLength":2316,"uri":"SM_pillar_04_B.bin"}],"images":[{"name":"Polygon_Camping_Texture_vol2.0","uri":"Polygon_Camping_Texture_vol2.0.jpg"}],"materials":[{"alphaMode":"OPAQUE","doubleSided":false,"extras":{"fromFBX":{"isTruePBR":false,"shadingModel":"Phong"}},"name":"Main_material","pbrMetallicRoughness":{"baseColorFactor":[1,1,1,1],"baseColorTexture":{"index":0,"texCoord":0},"metallicFactor":0.400000005960464,"roughnessFactor":0.272165536880493}}],"meshes":[{"name":"pillar_04_B","primitives":[{"attributes":{"NORMAL":2,"POSITION":1,"TEXCOORD_0":3},"indices":0,"material":0,"mode":4}]}],"nodes":[{"mesh":0,"name":"pillar_04_B","rotation":[0,0,0,1],"scale":[1,1,1],"translation":[122.298873901367,0,44.7972946166992]}],"samplers":[{}],"scene":0,"scenes":[{"name":"Root Scene","nodes":[0]}],"textures":[{"name":"base_color_texture","sampler":0,"source":0}]}