{"accessors":[{"bufferView":0,"byteOffset":0,"componentType":5123,"count":228,"type":"SCALAR"},{"bufferView":1,"byteOffset":0,"componentType":5126,"count":124,"max":[0.199993699789047,0.299999952316284,0.300000011920929],"min":[-0.20000629127026,0,-0.30000001192093],"type":"VEC3"},{"bufferView":2,"byteOffset":0,"componentType":5126,"count":124,"type":"VEC3"},{"bufferView":3,"byteOffset":0,"componentType":5126,"count":124,"type":"VEC2"},{"bufferView":4,"byteOffset":0,"componentType":5123,"count":612,"type":"SCALAR"},{"bufferView":5,"byteOffset":0,"componentType":5126,"count":370,"max":[1.22561728954315,0.205551236867905,0.249825030565262],"min":[-1.22560322284698,-0.0229038130492,-0.2498097717762],"type":"VEC3"},{"bufferView":6,"byteOffset":0,"componentType":5126,"count":370,"type":"VEC3"},{"bufferView":7,"byteOffset":0,"componentType":5126,"count":370,"type":"VEC2"}],"asset":{"generator":"FBX2glTF v0.13.1","version":"2.0"},"bufferViews":[{"buffer":0,"byteLength":456,"byteOffset":0,"target":34963},{"buffer":0,"byteLength":1488,"byteOffset":456,"target":34962},{"buffer":0,"byteLength":1488,"byteOffset":1944,"target":34962},{"buffer":0,"byteLength":992,"byteOffset":3432,"target":34962},{"buffer":0,"byteLength":1224,"byteOffset":4424,"target":34963},{"buffer":0,"byteLength":4440,"byteOffset":5648,"target":34962},{"buffer":0,"byteLength":4440,"byteOffset":10088,"target":34962},{"buffer":0,"byteLength":2960,"byteOffset":14528,"target":34962}],"buffers":[{"byteLength":17488,"uri":"SM_playground_04_A.bin"}],"images":[{"name":"Polygon_Camping_Texture_vol2.0","uri":"Polygon_Camping_Texture_vol2.0.jpg"}],"materials":[{"alphaMode":"OPAQUE","doubleSided":false,"extras":{"fromFBX":{"isTruePBR":false,"shadingModel":"Phong"}},"name":"Main_material","pbrMetallicRoughness":{"baseColorFactor":[1,1,1,1],"baseColorTexture":{"index":0,"texCoord":0},"metallicFactor":0.400000005960464,"roughnessFactor":0.272165536880493}}],"meshes":[{"name":"playground_04","primitives":[{"attributes":{"NORMAL":2,"POSITION":1,"TEXCOORD_0":3},"indices":0,"material":0,"mode":4}]},{"name":"playground_04_A","primitives":[{"attributes":{"NORMAL":6,"POSITION":5,"TEXCOORD_0":7},"indices":4,"material":0,"mode":4}]}],"nodes":[{"children":[1],"mesh":0,"name":"playground_04","rotation":[0,0,0,1],"scale":[1,1,1],"translation":[44.9312973022461,0,87.7941360473633]},{"mesh":1,"name":"playground_04_A","rotation":[0,0,0,1],"scale":[1,1,1],"translation":[-0.00000976562478,0.211708024144173,-0.00000976562478]}],"samplers":[{}],"scene":0,"scenes":[{"name":"Root Scene","nodes":[0]}],"textures":[{"name":"base_color_texture","sampler":0,"source":0}]}