{"accessors":[{"bufferView":0,"byteOffset":0,"componentType":5123,"count":258,"type":"SCALAR"},{"bufferView":1,"byteOffset":0,"componentType":5126,"count":148,"max":[1.00000667572021,2,1],"min":[-0.9999932050705,0,-1],"type":"VEC3"},{"bufferView":2,"byteOffset":0,"componentType":5126,"count":148,"type":"VEC3"},{"bufferView":3,"byteOffset":0,"componentType":5126,"count":148,"type":"VEC2"}],"asset":{"generator":"FBX2glTF v0.13.1","version":"2.0"},"bufferViews":[{"buffer":0,"byteLength":516,"byteOffset":0,"target":34963},{"buffer":0,"byteLength":1776,"byteOffset":516,"target":34962},{"buffer":0,"byteLength":1776,"byteOffset":2292,"target":34962},{"buffer":0,"byteLength":1184,"byteOffset":4068,"target":34962}],"buffers":[{"byteLength":5252,"uri":"SM_pillar_04.bin"}],"images":[{"name":"Polygon_Camping_Texture_vol2.0","uri":"Polygon_Camping_Texture_vol2.0.jpg"}],"materials":[{"alphaMode":"OPAQUE","doubleSided":false,"extras":{"fromFBX":{"isTruePBR":false,"shadingModel":"Phong"}},"name":"Main_material","pbrMetallicRoughness":{"baseColorFactor":[1,1,1,1],"baseColorTexture":{"index":0,"texCoord":0},"metallicFactor":0.400000005960464,"roughnessFactor":0.272165536880493}}],"meshes":[{"name":"pillar_04","primitives":[{"attributes":{"NORMAL":2,"POSITION":1,"TEXCOORD_0":3},"indices":0,"material":0,"mode":4}]}],"nodes":[{"mesh":0,"name":"pillar_04","rotation":[0,0,0,1],"scale":[1,1,1],"translation":[113.643798828125,0,42.6727180480957]}],"samplers":[{}],"scene":0,"scenes":[{"name":"Root Scene","nodes":[0]}],"textures":[{"name":"base_color_texture","sampler":0,"source":0}]}