{"accessors":[{"bufferView":0,"byteOffset":0,"componentType":5123,"count":708,"type":"SCALAR"},{"bufferView":1,"byteOffset":0,"componentType":5126,"count":392,"max":[1.00001525878906,1.54690039157867,1],"min":[-0.99998474121094,-0.00000011920929,-1],"type":"VEC3"},{"bufferView":2,"byteOffset":0,"componentType":5126,"count":392,"type":"VEC3"},{"bufferView":3,"byteOffset":0,"componentType":5126,"count":392,"type":"VEC2"}],"asset":{"generator":"FBX2glTF v0.13.1","version":"2.0"},"bufferViews":[{"buffer":0,"byteLength":1416,"byteOffset":0,"target":34963},{"buffer":0,"byteLength":4704,"byteOffset":1416,"target":34962},{"buffer":0,"byteLength":4704,"byteOffset":6120,"target":34962},{"buffer":0,"byteLength":3136,"byteOffset":10824,"target":34962}],"buffers":[{"byteLength":13960,"uri":"SM_pier_02.bin"}],"images":[{"name":"Polygon_Camping_Texture_vol2.0","uri":"Polygon_Camping_Texture_vol2.0.jpg"}],"materials":[{"alphaMode":"OPAQUE","doubleSided":false,"extras":{"fromFBX":{"isTruePBR":false,"shadingModel":"Phong"}},"name":"Main_material","pbrMetallicRoughness":{"baseColorFactor":[1,1,1,1],"baseColorTexture":{"index":0,"texCoord":0},"metallicFactor":0.400000005960464,"roughnessFactor":0.272165536880493}}],"meshes":[{"name":"pier_02","primitives":[{"attributes":{"NORMAL":2,"POSITION":1,"TEXCOORD_0":3},"indices":0,"material":0,"mode":4}]}],"nodes":[{"mesh":0,"name":"pier_02","rotation":[0,0,0,1],"scale":[1,1,1],"translation":[175.403396606445,-0.66029942035675,20.3091621398926]}],"samplers":[{}],"scene":0,"scenes":[{"name":"Root Scene","nodes":[0]}],"textures":[{"name":"base_color_texture","sampler":0,"source":0}]}