{"accessors":[{"bufferView":0,"byteOffset":0,"componentType":5123,"count":288,"type":"SCALAR"},{"bufferView":1,"byteOffset":0,"componentType":5126,"count":172,"max":[0.149659171700478,0.0238873828202486,0.149663180112839],"min":[-0.14966382086277,-0.02388738282025,-0.14965978264809],"type":"VEC3"},{"bufferView":2,"byteOffset":0,"componentType":5126,"count":172,"type":"VEC3"},{"bufferView":3,"byteOffset":0,"componentType":5126,"count":172,"type":"VEC2"}],"asset":{"generator":"FBX2glTF v0.13.1","version":"2.0"},"bufferViews":[{"buffer":0,"byteLength":576,"byteOffset":0,"target":34963},{"buffer":0,"byteLength":2064,"byteOffset":576,"target":34962},{"buffer":0,"byteLength":2064,"byteOffset":2640,"target":34962},{"buffer":0,"byteLength":1376,"byteOffset":4704,"target":34962}],"buffers":[{"byteLength":6080,"uri":"SM_pancake_for_barbell_04.bin"}],"images":[{"name":"Polygon_Camping_Texture_vol2.0","uri":"Polygon_Camping_Texture_vol2.0.jpg"}],"materials":[{"alphaMode":"OPAQUE","doubleSided":false,"extras":{"fromFBX":{"isTruePBR":false,"shadingModel":"Phong"}},"name":"Main_material","pbrMetallicRoughness":{"baseColorFactor":[1,1,1,1],"baseColorTexture":{"index":0,"texCoord":0},"metallicFactor":0.400000005960464,"roughnessFactor":0.272165536880493}}],"meshes":[{"name":"pancake_for_barbell_04","primitives":[{"attributes":{"NORMAL":2,"POSITION":1,"TEXCOORD_0":3},"indices":0,"material":0,"mode":4}]}],"nodes":[{"mesh":0,"name":"pancake_for_barbell_04","rotation":[0,0,0,1],"scale":[1,1,1],"translation":[36.7204933166504,0.230967998504639,90.6322174072266]}],"samplers":[{}],"scene":0,"scenes":[{"name":"Root Scene","nodes":[0]}],"textures":[{"name":"base_color_texture","sampler":0,"source":0}]}