{"accessors":[{"bufferView":0,"byteOffset":0,"componentType":5123,"count":288,"type":"SCALAR"},{"bufferView":1,"byteOffset":0,"componentType":5126,"count":174,"max":[0.185805693268776,0.0238873828202486,0.185810670256615],"min":[-0.18581147491932,-0.02388738282025,-0.18580648303032],"type":"VEC3"},{"bufferView":2,"byteOffset":0,"componentType":5126,"count":174,"type":"VEC3"},{"bufferView":3,"byteOffset":0,"componentType":5126,"count":174,"type":"VEC2"}],"asset":{"generator":"FBX2glTF v0.13.1","version":"2.0"},"bufferViews":[{"buffer":0,"byteLength":576,"byteOffset":0,"target":34963},{"buffer":0,"byteLength":2088,"byteOffset":576,"target":34962},{"buffer":0,"byteLength":2088,"byteOffset":2664,"target":34962},{"buffer":0,"byteLength":1392,"byteOffset":4752,"target":34962}],"buffers":[{"byteLength":6144,"uri":"SM_pancake_for_barbell_03.bin"}],"images":[{"name":"Polygon_Camping_Texture_vol2.0","uri":"Polygon_Camping_Texture_vol2.0.jpg"}],"materials":[{"alphaMode":"OPAQUE","doubleSided":false,"extras":{"fromFBX":{"isTruePBR":false,"shadingModel":"Phong"}},"name":"Main_material","pbrMetallicRoughness":{"baseColorFactor":[1,1,1,1],"baseColorTexture":{"index":0,"texCoord":0},"metallicFactor":0.400000005960464,"roughnessFactor":0.272165536880493}}],"meshes":[{"name":"pancake_for_barbell_03","primitives":[{"attributes":{"NORMAL":2,"POSITION":1,"TEXCOORD_0":3},"indices":0,"material":0,"mode":4}]}],"nodes":[{"mesh":0,"name":"pancake_for_barbell_03","rotation":[0,0,0,1],"scale":[1,1,1],"translation":[36.7204933166504,0.167399764060974,90.6322174072266]}],"samplers":[{}],"scene":0,"scenes":[{"name":"Root Scene","nodes":[0]}],"textures":[{"name":"base_color_texture","sampler":0,"source":0}]}