{"accessors":[{"bufferView":0,"byteOffset":0,"componentType":5123,"count":216,"type":"SCALAR"},{"bufferView":1,"byteOffset":0,"componentType":5126,"count":136,"max":[0.451440453529358,1.98593854904175,0.276349425315857],"min":[-0.45144018530846,0,-0.27635133266449],"type":"VEC3"},{"bufferView":2,"byteOffset":0,"componentType":5126,"count":136,"type":"VEC3"},{"bufferView":3,"byteOffset":0,"componentType":5126,"count":136,"type":"VEC2"}],"asset":{"generator":"FBX2glTF v0.13.1","version":"2.0"},"bufferViews":[{"buffer":0,"byteLength":432,"byteOffset":0,"target":34963},{"buffer":0,"byteLength":1632,"byteOffset":432,"target":34962},{"buffer":0,"byteLength":1632,"byteOffset":2064,"target":34962},{"buffer":0,"byteLength":1088,"byteOffset":3696,"target":34962}],"buffers":[{"byteLength":4784,"uri":"SM_pillar_03_F.bin"}],"images":[{"name":"Polygon_Camping_Texture_vol2.0","uri":"Polygon_Camping_Texture_vol2.0.jpg"}],"materials":[{"alphaMode":"OPAQUE","doubleSided":false,"extras":{"fromFBX":{"isTruePBR":false,"shadingModel":"Phong"}},"name":"Main_material","pbrMetallicRoughness":{"baseColorFactor":[1,1,1,1],"baseColorTexture":{"index":0,"texCoord":0},"metallicFactor":0.400000005960464,"roughnessFactor":0.272165536880493}}],"meshes":[{"name":"pillar_03_F","primitives":[{"attributes":{"NORMAL":2,"POSITION":1,"TEXCOORD_0":3},"indices":0,"material":0,"mode":4}]}],"nodes":[{"mesh":0,"name":"pillar_03_F","rotation":[0,0,0,1],"scale":[1,1,1],"translation":[-1.13406229019165,0.525774717330933,-29.8636512756348]}],"samplers":[{}],"scene":0,"scenes":[{"name":"Root Scene","nodes":[0]}],"textures":[{"name":"base_color_texture","sampler":0,"source":0}]}