{"accessors":[{"bufferView":0,"byteOffset":0,"componentType":5123,"count":1224,"type":"SCALAR"},{"bufferView":1,"byteOffset":0,"componentType":5126,"count":678,"max":[0.869347810745239,1.82479929924011,1.76647651195526],"min":[-0.86935544013977,0.0000000596046447753906,-0.92694681882858],"type":"VEC3"},{"bufferView":2,"byteOffset":0,"componentType":5126,"count":678,"type":"VEC3"},{"bufferView":3,"byteOffset":0,"componentType":5126,"count":678,"type":"VEC2"}],"asset":{"generator":"FBX2glTF v0.13.1","version":"2.0"},"bufferViews":[{"buffer":0,"byteLength":2448,"byteOffset":0,"target":34963},{"buffer":0,"byteLength":8136,"byteOffset":2448,"target":34962},{"buffer":0,"byteLength":8136,"byteOffset":10584,"target":34962},{"buffer":0,"byteLength":5424,"byteOffset":18720,"target":34962}],"buffers":[{"byteLength":24144,"uri":"SM_press_bench_02.bin"}],"images":[{"name":"Polygon_Camping_Texture_vol2.0","uri":"Polygon_Camping_Texture_vol2.0.jpg"}],"materials":[{"alphaMode":"OPAQUE","doubleSided":false,"extras":{"fromFBX":{"isTruePBR":false,"shadingModel":"Phong"}},"name":"Main_material","pbrMetallicRoughness":{"baseColorFactor":[1,1,1,1],"baseColorTexture":{"index":0,"texCoord":0},"metallicFactor":0.400000005960464,"roughnessFactor":0.272165536880493}}],"meshes":[{"name":"press_bench_02","primitives":[{"attributes":{"NORMAL":2,"POSITION":1,"TEXCOORD_0":3},"indices":0,"material":0,"mode":4}]}],"nodes":[{"mesh":0,"name":"press_bench_02","rotation":[0,0,0,1],"scale":[1,1,1],"translation":[35.9977416992188,0,90.7036666870117]}],"samplers":[{}],"scene":0,"scenes":[{"name":"Root Scene","nodes":[0]}],"textures":[{"name":"base_color_texture","sampler":0,"source":0}]}