{"accessors":[{"bufferView":0,"byteOffset":0,"componentType":5123,"count":174,"type":"SCALAR"},{"bufferView":1,"byteOffset":0,"componentType":5126,"count":116,"max":[0.919439196586609,1.34339225292206,0.276351928710938],"min":[-0.91944050788879,0,-0.27634906768799],"type":"VEC3"},{"bufferView":2,"byteOffset":0,"componentType":5126,"count":116,"type":"VEC3"},{"bufferView":3,"byteOffset":0,"componentType":5126,"count":116,"type":"VEC2"}],"asset":{"generator":"FBX2glTF v0.13.1","version":"2.0"},"bufferViews":[{"buffer":0,"byteLength":348,"byteOffset":0,"target":34963},{"buffer":0,"byteLength":1392,"byteOffset":348,"target":34962},{"buffer":0,"byteLength":1392,"byteOffset":1740,"target":34962},{"buffer":0,"byteLength":928,"byteOffset":3132,"target":34962}],"buffers":[{"byteLength":4060,"uri":"SM_pillar_03_C.bin"}],"images":[{"name":"Polygon_Camping_Texture_vol2.0","uri":"Polygon_Camping_Texture_vol2.0.jpg"}],"materials":[{"alphaMode":"OPAQUE","doubleSided":false,"extras":{"fromFBX":{"isTruePBR":false,"shadingModel":"Phong"}},"name":"Main_material","pbrMetallicRoughness":{"baseColorFactor":[1,1,1,1],"baseColorTexture":{"index":0,"texCoord":0},"metallicFactor":0.400000005960464,"roughnessFactor":0.272165536880493}}],"meshes":[{"name":"pillar_03_C","primitives":[{"attributes":{"NORMAL":2,"POSITION":1,"TEXCOORD_0":3},"indices":0,"material":0,"mode":4}]}],"nodes":[{"mesh":0,"name":"pillar_03_C","rotation":[0,0,0,1],"scale":[1,1,1],"translation":[-1.13406181335449,1.6082466840744,-27.6002140045166]}],"samplers":[{}],"scene":0,"scenes":[{"name":"Root Scene","nodes":[0]}],"textures":[{"name":"base_color_texture","sampler":0,"source":0}]}