{"accessors":[{"bufferView":0,"byteOffset":0,"componentType":5123,"count":546,"type":"SCALAR"},{"bufferView":1,"byteOffset":0,"componentType":5126,"count":430,"max":[1,0.109586343169212,1],"min":[-1,-0.07500000298023,-1],"type":"VEC3"},{"bufferView":2,"byteOffset":0,"componentType":5126,"count":430,"type":"VEC3"},{"bufferView":3,"byteOffset":0,"componentType":5126,"count":430,"type":"VEC2"}],"asset":{"generator":"FBX2glTF v0.13.1","version":"2.0"},"bufferViews":[{"buffer":0,"byteLength":1092,"byteOffset":0,"target":34963},{"buffer":0,"byteLength":5160,"byteOffset":1092,"target":34962},{"buffer":0,"byteLength":5160,"byteOffset":6252,"target":34962},{"buffer":0,"byteLength":3440,"byteOffset":11412,"target":34962}],"buffers":[{"byteLength":14852,"uri":"SM_playground_02.bin"}],"images":[{"name":"Polygon_Camping_Texture_vol2.0","uri":"Polygon_Camping_Texture_vol2.0.jpg"}],"materials":[{"alphaMode":"OPAQUE","doubleSided":false,"extras":{"fromFBX":{"isTruePBR":false,"shadingModel":"Phong"}},"name":"Main_material","pbrMetallicRoughness":{"baseColorFactor":[1,1,1,1],"baseColorTexture":{"index":0,"texCoord":0},"metallicFactor":0.400000005960464,"roughnessFactor":0.272165536880493}}],"meshes":[{"name":"playground_02","primitives":[{"attributes":{"NORMAL":2,"POSITION":1,"TEXCOORD_0":3},"indices":0,"material":0,"mode":4}]}],"nodes":[{"mesh":0,"name":"playground_02","rotation":[0,0,0,1],"scale":[1,1,1],"translation":[36.3406867980957,0,87.6669540405273]}],"samplers":[{}],"scene":0,"scenes":[{"name":"Root Scene","nodes":[0]}],"textures":[{"name":"base_color_texture","sampler":0,"source":0}]}