{"accessors":[{"bufferView":0,"byteOffset":0,"componentType":5123,"count":546,"type":"SCALAR"},{"bufferView":1,"byteOffset":0,"componentType":5126,"count":464,"max":[0.722030937671661,0.0209055449813604,1.38288772106171],"min":[-0.68810951709747,-0.02665031887591,-1],"type":"VEC3"},{"bufferView":2,"byteOffset":0,"componentType":5126,"count":464,"type":"VEC3"},{"bufferView":3,"byteOffset":0,"componentType":5126,"count":464,"type":"VEC2"}],"asset":{"generator":"FBX2glTF v0.13.1","version":"2.0"},"bufferViews":[{"buffer":0,"byteLength":1092,"byteOffset":0,"target":34963},{"buffer":0,"byteLength":5568,"byteOffset":1092,"target":34962},{"buffer":0,"byteLength":5568,"byteOffset":6660,"target":34962},{"buffer":0,"byteLength":3712,"byteOffset":12228,"target":34962}],"buffers":[{"byteLength":15940,"uri":"SM_puddle_02.bin"}],"images":[{"name":"Polygon_Camping_Texture_vol2.0","uri":"Polygon_Camping_Texture_vol2.0.jpg"}],"materials":[{"alphaMode":"OPAQUE","doubleSided":false,"extras":{"fromFBX":{"isTruePBR":false,"shadingModel":"Phong"}},"name":"Main_material","pbrMetallicRoughness":{"baseColorFactor":[1,1,1,1],"baseColorTexture":{"index":0,"texCoord":0},"metallicFactor":0.400000005960464,"roughnessFactor":0.272165536880493}}],"meshes":[{"name":"puddle_02","primitives":[{"attributes":{"NORMAL":2,"POSITION":1,"TEXCOORD_0":3},"indices":0,"material":0,"mode":4}]}],"nodes":[{"mesh":0,"name":"puddle_02","rotation":[0,0,0,1],"scale":[1,1,1],"translation":[14.8447370529175,0,87.5899124145508]}],"samplers":[{}],"scene":0,"scenes":[{"name":"Root Scene","nodes":[0]}],"textures":[{"name":"base_color_texture","sampler":0,"source":0}]}