{"accessors":[{"bufferView":0,"byteOffset":0,"componentType":5123,"count":1332,"type":"SCALAR"},{"bufferView":1,"byteOffset":0,"componentType":5126,"count":743,"max":[2.00000166893005,0.986601829528809,1],"min":[-1.99999809265137,-0.5602987408638,-1],"type":"VEC3"},{"bufferView":2,"byteOffset":0,"componentType":5126,"count":743,"type":"VEC3"},{"bufferView":3,"byteOffset":0,"componentType":5126,"count":743,"type":"VEC2"}],"asset":{"generator":"FBX2glTF v0.13.1","version":"2.0"},"bufferViews":[{"buffer":0,"byteLength":2664,"byteOffset":0,"target":34963},{"buffer":0,"byteLength":8916,"byteOffset":2664,"target":34962},{"buffer":0,"byteLength":8916,"byteOffset":11580,"target":34962},{"buffer":0,"byteLength":5944,"byteOffset":20496,"target":34962}],"buffers":[{"byteLength":26440,"uri":"SM_pier_03.bin"}],"images":[{"name":"Polygon_Camping_Texture_vol2.0","uri":"Polygon_Camping_Texture_vol2.0.jpg"}],"materials":[{"alphaMode":"OPAQUE","doubleSided":false,"extras":{"fromFBX":{"isTruePBR":false,"shadingModel":"Phong"}},"name":"Main_material","pbrMetallicRoughness":{"baseColorFactor":[1,1,1,1],"baseColorTexture":{"index":0,"texCoord":0},"metallicFactor":0.400000005960464,"roughnessFactor":0.272165536880493}}],"meshes":[{"name":"pier_03","primitives":[{"attributes":{"NORMAL":2,"POSITION":1,"TEXCOORD_0":3},"indices":0,"material":0,"mode":4}]}],"nodes":[{"mesh":0,"name":"pier_03","rotation":[0,0,0,1],"scale":[1,1,1],"translation":[179.092437744141,-0.10000076889992,20.3091621398926]}],"samplers":[{}],"scene":0,"scenes":[{"name":"Root Scene","nodes":[0]}],"textures":[{"name":"base_color_texture","sampler":0,"source":0}]}