{"accessors":[{"bufferView":0,"byteOffset":0,"componentType":5123,"count":120,"type":"SCALAR"},{"bufferView":1,"byteOffset":0,"componentType":5126,"count":80,"max":[0.451440006494522,0.992969274520874,0.276350498199463],"min":[-0.45144066214562,0,-0.27635002136231],"type":"VEC3"},{"bufferView":2,"byteOffset":0,"componentType":5126,"count":80,"type":"VEC3"},{"bufferView":3,"byteOffset":0,"componentType":5126,"count":80,"type":"VEC2"}],"asset":{"generator":"FBX2glTF v0.13.1","version":"2.0"},"bufferViews":[{"buffer":0,"byteLength":240,"byteOffset":0,"target":34963},{"buffer":0,"byteLength":960,"byteOffset":240,"target":34962},{"buffer":0,"byteLength":960,"byteOffset":1200,"target":34962},{"buffer":0,"byteLength":640,"byteOffset":2160,"target":34962}],"buffers":[{"byteLength":2800,"uri":"SM_pillar_03_E.bin"}],"images":[{"name":"Polygon_Camping_Texture_vol2.0","uri":"Polygon_Camping_Texture_vol2.0.jpg"}],"materials":[{"alphaMode":"OPAQUE","doubleSided":false,"extras":{"fromFBX":{"isTruePBR":false,"shadingModel":"Phong"}},"name":"Main_material","pbrMetallicRoughness":{"baseColorFactor":[1,1,1,1],"baseColorTexture":{"index":0,"texCoord":0},"metallicFactor":0.400000005960464,"roughnessFactor":0.272165536880493}}],"meshes":[{"name":"pillar_03_E","primitives":[{"attributes":{"NORMAL":2,"POSITION":1,"TEXCOORD_0":3},"indices":0,"material":0,"mode":4}]}],"nodes":[{"mesh":0,"name":"pillar_03_E","rotation":[0,0,0,1],"scale":[1,1,1],"translation":[-1.13406181335449,1.6082466840744,-29.1171932220459]}],"samplers":[{}],"scene":0,"scenes":[{"name":"Root Scene","nodes":[0]}],"textures":[{"name":"base_color_texture","sampler":0,"source":0}]}