{"accessors":[{"bufferView":0,"byteOffset":0,"componentType":5123,"count":48,"type":"SCALAR"},{"bufferView":1,"byteOffset":0,"componentType":5126,"count":32,"max":[0.813814282417297,0.999999582767487,0.813814043998718],"min":[-0.81382590532303,-1.00000035762787,-0.81382614374161],"type":"VEC3"},{"bufferView":2,"byteOffset":0,"componentType":5126,"count":32,"type":"VEC3"},{"bufferView":3,"byteOffset":0,"componentType":5126,"count":32,"type":"VEC2"}],"asset":{"generator":"FBX2glTF v0.13.1","version":"2.0"},"bufferViews":[{"buffer":0,"byteLength":96,"byteOffset":0,"target":34963},{"buffer":0,"byteLength":384,"byteOffset":96,"target":34962},{"buffer":0,"byteLength":384,"byteOffset":480,"target":34962},{"buffer":0,"byteLength":256,"byteOffset":864,"target":34962}],"buffers":[{"byteLength":1120,"uri":"SM_pillar_04_A.bin"}],"images":[{"name":"Polygon_Camping_Texture_vol2.0","uri":"Polygon_Camping_Texture_vol2.0.jpg"}],"materials":[{"alphaMode":"OPAQUE","doubleSided":false,"extras":{"fromFBX":{"isTruePBR":false,"shadingModel":"Phong"}},"name":"Main_material","pbrMetallicRoughness":{"baseColorFactor":[1,1,1,1],"baseColorTexture":{"index":0,"texCoord":0},"metallicFactor":0.400000005960464,"roughnessFactor":0.272165536880493}}],"meshes":[{"name":"pillar_04_A","primitives":[{"attributes":{"NORMAL":2,"POSITION":1,"TEXCOORD_0":3},"indices":0,"material":0,"mode":4}]}],"nodes":[{"mesh":0,"name":"pillar_04_A","rotation":[0,0,0,1],"scale":[1,1,1],"translation":[115.783050537109,1.00000035762787,45.6091842651367]}],"samplers":[{}],"scene":0,"scenes":[{"name":"Root Scene","nodes":[0]}],"textures":[{"name":"base_color_texture","sampler":0,"source":0}]}