{"accessors":[{"bufferView":0,"byteOffset":0,"componentType":5123,"count":444,"type":"SCALAR"},{"bufferView":1,"byteOffset":0,"componentType":5126,"count":280,"max":[0.230037018656731,0.721005737781525,1.67878198623657],"min":[-0.230039909482,-0.00009405612946,-0.44578146934509],"type":"VEC3"},{"bufferView":2,"byteOffset":0,"componentType":5126,"count":280,"type":"VEC3"},{"bufferView":3,"byteOffset":0,"componentType":5126,"count":280,"type":"VEC2"}],"asset":{"generator":"FBX2glTF v0.13.1","version":"2.0"},"bufferViews":[{"buffer":0,"byteLength":888,"byteOffset":0,"target":34963},{"buffer":0,"byteLength":3360,"byteOffset":888,"target":34962},{"buffer":0,"byteLength":3360,"byteOffset":4248,"target":34962},{"buffer":0,"byteLength":2240,"byteOffset":7608,"target":34962}],"buffers":[{"byteLength":9848,"uri":"SM_press_bench_01.bin"}],"images":[{"name":"Polygon_Camping_Texture_vol2.0","uri":"Polygon_Camping_Texture_vol2.0.jpg"}],"materials":[{"alphaMode":"OPAQUE","doubleSided":false,"extras":{"fromFBX":{"isTruePBR":false,"shadingModel":"Phong"}},"name":"Main_material","pbrMetallicRoughness":{"baseColorFactor":[1,1,1,1],"baseColorTexture":{"index":0,"texCoord":0},"metallicFactor":0.400000005960464,"roughnessFactor":0.272165536880493}}],"meshes":[{"name":"press_bench_01","primitives":[{"attributes":{"NORMAL":2,"POSITION":1,"TEXCOORD_0":3},"indices":0,"material":0,"mode":4}]}],"nodes":[{"mesh":0,"name":"press_bench_01","rotation":[0,0,0,1],"scale":[1,1,1],"translation":[33.9947776794434,-0.02950859069824,89.9182815551758]}],"samplers":[{}],"scene":0,"scenes":[{"name":"Root Scene","nodes":[0]}],"textures":[{"name":"base_color_texture","sampler":0,"source":0}]}