{"accessors":[{"bufferView":0,"byteOffset":0,"componentType":5123,"count":900,"type":"SCALAR"},{"bufferView":1,"byteOffset":0,"componentType":5126,"count":488,"max":[2,2.15000319480896,1.00001263618469],"min":[-2,0,-0.99998730421066],"type":"VEC3"},{"bufferView":2,"byteOffset":0,"componentType":5126,"count":488,"type":"VEC3"},{"bufferView":3,"byteOffset":0,"componentType":5126,"count":488,"type":"VEC2"}],"asset":{"generator":"FBX2glTF v0.13.1","version":"2.0"},"bufferViews":[{"buffer":0,"byteLength":1800,"byteOffset":0,"target":34963},{"buffer":0,"byteLength":5856,"byteOffset":1800,"target":34962},{"buffer":0,"byteLength":5856,"byteOffset":7656,"target":34962},{"buffer":0,"byteLength":3904,"byteOffset":13512,"target":34962}],"buffers":[{"byteLength":17416,"uri":"SM_playground_03.bin"}],"images":[{"name":"Polygon_Camping_Texture_vol2.0","uri":"Polygon_Camping_Texture_vol2.0.jpg"}],"materials":[{"alphaMode":"OPAQUE","doubleSided":false,"extras":{"fromFBX":{"isTruePBR":false,"shadingModel":"Phong"}},"name":"Main_material","pbrMetallicRoughness":{"baseColorFactor":[1,1,1,1],"baseColorTexture":{"index":0,"texCoord":0},"metallicFactor":0.400000005960464,"roughnessFactor":0.272165536880493}}],"meshes":[{"name":"playground_03","primitives":[{"attributes":{"NORMAL":2,"POSITION":1,"TEXCOORD_0":3},"indices":0,"material":0,"mode":4}]}],"nodes":[{"mesh":0,"name":"playground_03","rotation":[0,0,0,1],"scale":[1,1,1],"translation":[40.3202972412109,0,87.6669387817383]}],"samplers":[{}],"scene":0,"scenes":[{"name":"Root Scene","nodes":[0]}],"textures":[{"name":"base_color_texture","sampler":0,"source":0}]}