{"accessors":[{"bufferView":0,"byteOffset":0,"componentType":5123,"count":4242,"type":"SCALAR"},{"bufferView":1,"byteOffset":0,"componentType":5126,"count":2441,"max":[3.30925035476685,2.80025386810303,1.62871181964874],"min":[-2.17363142967224,-0.05795850977302,-0.74124348163605],"type":"VEC3"},{"bufferView":2,"byteOffset":0,"componentType":5126,"count":2441,"type":"VEC3"},{"bufferView":3,"byteOffset":0,"componentType":5126,"count":2441,"type":"VEC2"}],"asset":{"generator":"FBX2glTF v0.13.1","version":"2.0"},"bufferViews":[{"buffer":0,"byteLength":8484,"byteOffset":0,"target":34963},{"buffer":0,"byteLength":29292,"byteOffset":8484,"target":34962},{"buffer":0,"byteLength":29292,"byteOffset":37776,"target":34962},{"buffer":0,"byteLength":19528,"byteOffset":67068,"target":34962}],"buffers":[{"byteLength":86596,"uri":"SM_playground_01.bin"}],"images":[{"name":"Polygon_Camping_Texture_vol2.0","uri":"Polygon_Camping_Texture_vol2.0.jpg"}],"materials":[{"alphaMode":"OPAQUE","doubleSided":false,"extras":{"fromFBX":{"isTruePBR":false,"shadingModel":"Phong"}},"name":"Main_material","pbrMetallicRoughness":{"baseColorFactor":[1,1,1,1],"baseColorTexture":{"index":0,"texCoord":0},"metallicFactor":0.400000005960464,"roughnessFactor":0.272165536880493}}],"meshes":[{"name":"playground_01","primitives":[{"attributes":{"NORMAL":2,"POSITION":1,"TEXCOORD_0":3},"indices":0,"material":0,"mode":4}]}],"nodes":[{"mesh":0,"name":"playground_01","rotation":[0,0,0,1],"scale":[1,1,1],"translation":[32.7273330688477,0,84.4240417480469]}],"samplers":[{}],"scene":0,"scenes":[{"name":"Root Scene","nodes":[0]}],"textures":[{"name":"base_color_texture","sampler":0,"source":0}]}