{"accessors":[{"bufferView":0,"byteOffset":0,"componentType":5123,"count":2406,"type":"SCALAR"},{"bufferView":1,"byteOffset":0,"componentType":5126,"count":1529,"max":[0.235386058688164,0.737841010093689,0.235386773943901],"min":[-0.23538605868816,0,-0.23538528382778],"type":"VEC3"},{"bufferView":2,"byteOffset":0,"componentType":5126,"count":1529,"type":"VEC3"},{"bufferView":3,"byteOffset":0,"componentType":5126,"count":1529,"type":"VEC2"}],"asset":{"generator":"FBX2glTF v0.13.1","version":"2.0"},"bufferViews":[{"buffer":0,"byteLength":4812,"byteOffset":0,"target":34963},{"buffer":0,"byteLength":18348,"byteOffset":4812,"target":34962},{"buffer":0,"byteLength":18348,"byteOffset":23160,"target":34962},{"buffer":0,"byteLength":12232,"byteOffset":41508,"target":34962}],"buffers":[{"byteLength":53740,"uri":"SM_road_water_barrel_01.bin"}],"images":[{"name":"Polygon_Camping_Texture_vol2.0","uri":"Polygon_Camping_Texture_vol2.0.jpg"}],"materials":[{"alphaMode":"OPAQUE","doubleSided":false,"extras":{"fromFBX":{"isTruePBR":false,"shadingModel":"Phong"}},"name":"Main_material","pbrMetallicRoughness":{"baseColorFactor":[1,1,1,1],"baseColorTexture":{"index":0,"texCoord":0},"metallicFactor":0.400000005960464,"roughnessFactor":0.272165536880493}}],"meshes":[{"name":"road_water_barrel_01","primitives":[{"attributes":{"NORMAL":2,"POSITION":1,"TEXCOORD_0":3},"indices":0,"material":0,"mode":4}]}],"nodes":[{"mesh":0,"name":"road_water_barrel_01","rotation":[0,0,0,1],"scale":[1,1,1],"translation":[15.1754465103149,0,85.8769989013672]}],"samplers":[{}],"scene":0,"scenes":[{"name":"Root Scene","nodes":[0]}],"textures":[{"name":"base_color_texture","sampler":0,"source":0}]}