{"accessors":[{"bufferView":0,"byteOffset":0,"componentType":5123,"count":684,"type":"SCALAR"},{"bufferView":1,"byteOffset":0,"componentType":5126,"count":456,"max":[0.991057634353638,0.279197335243225,4.0290322303772],"min":[-1.00894236564636,-0.00000000416784,-3.97097373008728],"type":"VEC3"},{"bufferView":2,"byteOffset":0,"componentType":5126,"count":456,"type":"VEC3"},{"bufferView":3,"byteOffset":0,"componentType":5126,"count":456,"type":"VEC2"}],"asset":{"generator":"FBX2glTF v0.13.1","version":"2.0"},"bufferViews":[{"buffer":0,"byteLength":1368,"byteOffset":0,"target":34963},{"buffer":0,"byteLength":5472,"byteOffset":1368,"target":34962},{"buffer":0,"byteLength":5472,"byteOffset":6840,"target":34962},{"buffer":0,"byteLength":3648,"byteOffset":12312,"target":34962}],"buffers":[{"byteLength":15960,"uri":"SM_Railway_tracks_01.bin"}],"images":[{"name":"Polygon_Camping_Texture_vol2.0","uri":"Polygon_Camping_Texture_vol2.0.jpg"}],"materials":[{"alphaMode":"OPAQUE","doubleSided":false,"extras":{"fromFBX":{"isTruePBR":false,"shadingModel":"Phong"}},"name":"Main_material","pbrMetallicRoughness":{"baseColorFactor":[1,1,1,1],"baseColorTexture":{"index":0,"texCoord":0},"metallicFactor":0.400000005960464,"roughnessFactor":0.272165536880493}}],"meshes":[{"name":"Railway_tracks_01","primitives":[{"attributes":{"NORMAL":2,"POSITION":1,"TEXCOORD_0":3},"indices":0,"material":0,"mode":4}]}],"nodes":[{"mesh":0,"name":"Railway_tracks_01","rotation":[0,0,0,1],"scale":[1,1,1],"translation":[30.0718841552734,-0.03617715463042,-25.719259262085]}],"samplers":[{}],"scene":0,"scenes":[{"name":"Root Scene","nodes":[0]}],"textures":[{"name":"base_color_texture","sampler":0,"source":0}]}