{"accessors":[{"bufferView":0,"byteOffset":0,"componentType":5123,"count":222,"type":"SCALAR"},{"bufferView":1,"byteOffset":0,"componentType":5126,"count":116,"max":[4,0.0499999970197678,2.00000047683716],"min":[-4.00000095367432,0,-2.00000047683716],"type":"VEC3"},{"bufferView":2,"byteOffset":0,"componentType":5126,"count":116,"type":"VEC3"},{"bufferView":3,"byteOffset":0,"componentType":5126,"count":116,"type":"VEC2"}],"asset":{"generator":"FBX2glTF v0.13.1","version":"2.0"},"bufferViews":[{"buffer":0,"byteLength":444,"byteOffset":0,"target":34963},{"buffer":0,"byteLength":1392,"byteOffset":444,"target":34962},{"buffer":0,"byteLength":1392,"byteOffset":1836,"target":34962},{"buffer":0,"byteLength":928,"byteOffset":3228,"target":34962}],"buffers":[{"byteLength":4156,"uri":"SM_road_20.bin"}],"images":[{"name":"Polygon_Texture_vol2","uri":"Polygon_Texture_vol2.png"}],"materials":[{"alphaMode":"OPAQUE","doubleSided":false,"extras":{"fromFBX":{"isTruePBR":false,"shadingModel":"Phong"}},"name":"Main_material","pbrMetallicRoughness":{"baseColorFactor":[1,1,1,1],"baseColorTexture":{"index":0,"texCoord":0},"metallicFactor":0.400000005960464,"roughnessFactor":0.272165536880493}}],"meshes":[{"name":"road_20","primitives":[{"attributes":{"NORMAL":2,"POSITION":1,"TEXCOORD_0":3},"indices":0,"material":0,"mode":4}]}],"nodes":[{"mesh":0,"name":"road_20","rotation":[0,0,0,1],"scale":[1,1,1],"translation":[5.2392578125,0,-19.8884716033936]}],"samplers":[{}],"scene":0,"scenes":[{"name":"Root Scene","nodes":[0]}],"textures":[{"name":"base_color_texture","sampler":0,"source":0}]}