{"accessors":[{"bufferView":0,"byteOffset":0,"componentType":5123,"count":7020,"type":"SCALAR"},{"bufferView":1,"byteOffset":0,"componentType":5126,"count":4680,"max":[14.6044111251831,0.279197454452515,14.9347457885742],"min":[-15.4353723526001,-0.00000008206823,-1.06525468826294],"type":"VEC3"},{"bufferView":2,"byteOffset":0,"componentType":5126,"count":4680,"type":"VEC3"},{"bufferView":3,"byteOffset":0,"componentType":5126,"count":4680,"type":"VEC2"}],"asset":{"generator":"FBX2glTF v0.13.1","version":"2.0"},"bufferViews":[{"buffer":0,"byteLength":14040,"byteOffset":0,"target":34963},{"buffer":0,"byteLength":56160,"byteOffset":14040,"target":34962},{"buffer":0,"byteLength":56160,"byteOffset":70200,"target":34962},{"buffer":0,"byteLength":37440,"byteOffset":126360,"target":34962}],"buffers":[{"byteLength":163800,"uri":"SM_Railway_tracks_04.bin"}],"images":[{"name":"Polygon_Camping_Texture_vol2.0","uri":"Polygon_Camping_Texture_vol2.0.jpg"}],"materials":[{"alphaMode":"OPAQUE","doubleSided":false,"extras":{"fromFBX":{"isTruePBR":false,"shadingModel":"Phong"}},"name":"Main_material","pbrMetallicRoughness":{"baseColorFactor":[1,1,1,1],"baseColorTexture":{"index":0,"texCoord":0},"metallicFactor":0.400000005960464,"roughnessFactor":0.272165536880493}}],"meshes":[{"name":"Railway_tracks_04","primitives":[{"attributes":{"NORMAL":2,"POSITION":1,"TEXCOORD_0":3},"indices":0,"material":0,"mode":4}]}],"nodes":[{"mesh":0,"name":"Railway_tracks_04","rotation":[0,0,0,1],"scale":[1,1,1],"translation":[44.4983139038086,-0.03617725148797,-46.0995254516602]}],"samplers":[{}],"scene":0,"scenes":[{"name":"Root Scene","nodes":[0]}],"textures":[{"name":"base_color_texture","sampler":0,"source":0}]}