{"accessors":[{"bufferView":0,"byteOffset":0,"componentType":5123,"count":1800,"type":"SCALAR"},{"bufferView":1,"byteOffset":0,"componentType":5126,"count":1192,"max":[1.87735879421234,0.279197335243225,6.81783294677734],"min":[-3.27980279922485,-0.00000002235174,-5.22998762130737],"type":"VEC3"},{"bufferView":2,"byteOffset":0,"componentType":5126,"count":1192,"type":"VEC3"},{"bufferView":3,"byteOffset":0,"componentType":5126,"count":1192,"type":"VEC2"}],"asset":{"generator":"FBX2glTF v0.13.1","version":"2.0"},"bufferViews":[{"buffer":0,"byteLength":3600,"byteOffset":0,"target":34963},{"buffer":0,"byteLength":14304,"byteOffset":3600,"target":34962},{"buffer":0,"byteLength":14304,"byteOffset":17904,"target":34962},{"buffer":0,"byteLength":9536,"byteOffset":32208,"target":34962}],"buffers":[{"byteLength":41744,"uri":"SM_Railway_tracks_05.bin"}],"images":[{"name":"Polygon_Camping_Texture_vol2.0","uri":"Polygon_Camping_Texture_vol2.0.jpg"}],"materials":[{"alphaMode":"OPAQUE","doubleSided":false,"extras":{"fromFBX":{"isTruePBR":false,"shadingModel":"Phong"}},"name":"Main_material","pbrMetallicRoughness":{"baseColorFactor":[1,1,1,1],"baseColorTexture":{"index":0,"texCoord":0},"metallicFactor":0.400000005960464,"roughnessFactor":0.272165536880493}}],"meshes":[{"name":"Railway_tracks_05","primitives":[{"attributes":{"NORMAL":2,"POSITION":1,"TEXCOORD_0":3},"indices":0,"material":0,"mode":4}]}],"nodes":[{"mesh":0,"name":"Railway_tracks_05","rotation":[0,0,0,1],"scale":[1,1,1],"translation":[52.721305847168,-0.03617731481791,-33.4974975585938]}],"samplers":[{}],"scene":0,"scenes":[{"name":"Root Scene","nodes":[0]}],"textures":[{"name":"base_color_texture","sampler":0,"source":0}]}