{"accessors":[{"bufferView":0,"byteOffset":0,"componentType":5123,"count":1080,"type":"SCALAR"},{"bufferView":1,"byteOffset":0,"componentType":5126,"count":708,"max":[0.228283479809761,4.79685878753662,1.72796440124512],"min":[-0.22828435897827,0,-0.16476911306381],"type":"VEC3"},{"bufferView":2,"byteOffset":0,"componentType":5126,"count":708,"type":"VEC3"},{"bufferView":3,"byteOffset":0,"componentType":5126,"count":708,"type":"VEC2"}],"asset":{"generator":"FBX2glTF v0.13.1","version":"2.0"},"bufferViews":[{"buffer":0,"byteLength":2160,"byteOffset":0,"target":34963},{"buffer":0,"byteLength":8496,"byteOffset":2160,"target":34962},{"buffer":0,"byteLength":8496,"byteOffset":10656,"target":34962},{"buffer":0,"byteLength":5664,"byteOffset":19152,"target":34962}],"buffers":[{"byteLength":24816,"uri":"SM_road_lantern_01.bin"}],"images":[{"name":"Polygon_Camping_Texture_vol2.0","uri":"Polygon_Camping_Texture_vol2.0.jpg"}],"materials":[{"alphaMode":"OPAQUE","doubleSided":false,"extras":{"fromFBX":{"isTruePBR":false,"shadingModel":"Phong"}},"name":"Main_material","pbrMetallicRoughness":{"baseColorFactor":[1,1,1,1],"baseColorTexture":{"index":0,"texCoord":0},"metallicFactor":0.400000005960464,"roughnessFactor":0.272165536880493}}],"meshes":[{"name":"road_lantern_01","primitives":[{"attributes":{"NORMAL":2,"POSITION":1,"TEXCOORD_0":3},"indices":0,"material":0,"mode":4}]}],"nodes":[{"mesh":0,"name":"road_lantern_01","rotation":[0,0,0,1],"scale":[1,1,1],"translation":[29.0085735321045,0,84.5198211669922]}],"samplers":[{}],"scene":0,"scenes":[{"name":"Root Scene","nodes":[0]}],"textures":[{"name":"base_color_texture","sampler":0,"source":0}]}