{"accessors":[{"bufferView":0,"byteOffset":0,"componentType":5123,"count":114,"type":"SCALAR"},{"bufferView":1,"byteOffset":0,"componentType":5126,"count":72,"max":[0.0359438620507717,2.42841553688049,0.0359435230493546],"min":[-0.03594386205077,0,-0.03594420477748],"type":"VEC3"},{"bufferView":2,"byteOffset":0,"componentType":5126,"count":72,"type":"VEC3"},{"bufferView":3,"byteOffset":0,"componentType":5126,"count":72,"type":"VEC2"},{"bufferView":4,"byteOffset":0,"componentType":5123,"count":192,"type":"SCALAR"},{"bufferView":5,"byteOffset":0,"componentType":5126,"count":120,"max":[0.198221102356911,2.08883690834045,0.0747620165348053],"min":[-0.19822104275227,1.72347319126129,-0.04649443179369],"type":"VEC3"},{"bufferView":6,"byteOffset":0,"componentType":5126,"count":120,"type":"VEC3"},{"bufferView":7,"byteOffset":0,"componentType":5126,"count":120,"type":"VEC2"}],"asset":{"generator":"FBX2glTF v0.13.1","version":"2.0"},"bufferViews":[{"buffer":0,"byteLength":228,"byteOffset":0,"target":34963},{"buffer":0,"byteLength":864,"byteOffset":228,"target":34962},{"buffer":0,"byteLength":864,"byteOffset":1092,"target":34962},{"buffer":0,"byteLength":576,"byteOffset":1956,"target":34962},{"buffer":0,"byteLength":384,"byteOffset":2532,"target":34963},{"buffer":0,"byteLength":1440,"byteOffset":2916,"target":34962},{"buffer":0,"byteLength":1440,"byteOffset":4356,"target":34962},{"buffer":0,"byteLength":960,"byteOffset":5796,"target":34962}],"buffers":[{"byteLength":6756,"uri":"SM_road_sign_A.bin"}],"images":[{"name":"Polygon_Camping_Texture_vol2.0","uri":"Polygon_Camping_Texture_vol2.0.jpg"}],"materials":[{"alphaMode":"OPAQUE","doubleSided":false,"extras":{"fromFBX":{"isTruePBR":false,"shadingModel":"Phong"}},"name":"Main_material","pbrMetallicRoughness":{"baseColorFactor":[1,1,1,1],"baseColorTexture":{"index":0,"texCoord":0},"metallicFactor":0.400000005960464,"roughnessFactor":0.272165536880493}}],"meshes":[{"name":"road_sign_10","primitives":[{"attributes":{"NORMAL":2,"POSITION":1,"TEXCOORD_0":3},"indices":0,"material":0,"mode":4}]},{"name":"road_sign_A","primitives":[{"attributes":{"NORMAL":6,"POSITION":5,"TEXCOORD_0":7},"indices":4,"material":0,"mode":4}]}],"nodes":[{"children":[1],"mesh":0,"name":"road_sign_10","rotation":[0,0,0,1],"scale":[1,1,1],"translation":[17.4413032531738,0,80.4584503173828]},{"mesh":1,"name":"road_sign_A","rotation":[0,0,0,1],"scale":[1,1,1],"translation":[0.00000244140619543032,0,0.00000488281239086064]}],"samplers":[{}],"scene":0,"scenes":[{"name":"Root Scene","nodes":[0]}],"textures":[{"name":"base_color_texture","sampler":0,"source":0}]}