{"accessors":[{"bufferView":0,"byteOffset":0,"componentType":5123,"count":66,"type":"SCALAR"},{"bufferView":1,"byteOffset":0,"componentType":5126,"count":38,"max":[1,0.084307536482811,0.892400503158569],"min":[-1,-0.03430755063891,-1.10759949684143],"type":"VEC3"},{"bufferView":2,"byteOffset":0,"componentType":5126,"count":38,"type":"VEC3"},{"bufferView":3,"byteOffset":0,"componentType":5126,"count":38,"type":"VEC2"}],"asset":{"generator":"FBX2glTF v0.13.1","version":"2.0"},"bufferViews":[{"buffer":0,"byteLength":132,"byteOffset":0,"target":34963},{"buffer":0,"byteLength":456,"byteOffset":132,"target":34962},{"buffer":0,"byteLength":456,"byteOffset":588,"target":34962},{"buffer":0,"byteLength":304,"byteOffset":1044,"target":34962}],"buffers":[{"byteLength":1348,"uri":"SM_road_04.bin"}],"images":[{"name":"Polygon_Texture_vol2","uri":"Polygon_Texture_vol2.png"}],"materials":[{"alphaMode":"OPAQUE","doubleSided":false,"extras":{"fromFBX":{"isTruePBR":false,"shadingModel":"Phong"}},"name":"Main_material","pbrMetallicRoughness":{"baseColorFactor":[1,1,1,1],"baseColorTexture":{"index":0,"texCoord":0},"metallicFactor":0.400000005960464,"roughnessFactor":0.272165536880493}}],"meshes":[{"name":"road_04","primitives":[{"attributes":{"NORMAL":2,"POSITION":1,"TEXCOORD_0":3},"indices":0,"material":0,"mode":4}]}],"nodes":[{"mesh":0,"name":"road_04","rotation":[0,0,0,1],"scale":[1,1,1],"translation":[15.4994201660156,0,-0.89240050315857]}],"samplers":[{}],"scene":0,"scenes":[{"name":"Root Scene","nodes":[0]}],"textures":[{"name":"base_color_texture","sampler":0,"source":0}]}