{"accessors":[{"bufferView":0,"byteOffset":0,"componentType":5123,"count":192,"type":"SCALAR"},{"bufferView":1,"byteOffset":0,"componentType":5126,"count":108,"max":[0.38367423415184,1.16921532154083,0.383674502372742],"min":[-0.38367423415184,0,-0.38367396593094],"type":"VEC3"},{"bufferView":2,"byteOffset":0,"componentType":5126,"count":108,"type":"VEC3"},{"bufferView":3,"byteOffset":0,"componentType":5126,"count":108,"type":"VEC2"}],"asset":{"generator":"FBX2glTF v0.13.1","version":"2.0"},"bufferViews":[{"buffer":0,"byteLength":384,"byteOffset":0,"target":34963},{"buffer":0,"byteLength":1296,"byteOffset":384,"target":34962},{"buffer":0,"byteLength":1296,"byteOffset":1680,"target":34962},{"buffer":0,"byteLength":864,"byteOffset":2976,"target":34962}],"buffers":[{"byteLength":3840,"uri":"SM_road_sign_08.bin"}],"images":[{"name":"Polygon_Camping_Texture_vol2.0","uri":"Polygon_Camping_Texture_vol2.0.jpg"}],"materials":[{"alphaMode":"OPAQUE","doubleSided":false,"extras":{"fromFBX":{"isTruePBR":false,"shadingModel":"Phong"}},"name":"Main_material","pbrMetallicRoughness":{"baseColorFactor":[1,1,1,1],"baseColorTexture":{"index":0,"texCoord":0},"metallicFactor":0.400000005960464,"roughnessFactor":0.272165536880493}}],"meshes":[{"name":"road_sign_08","primitives":[{"attributes":{"NORMAL":2,"POSITION":1,"TEXCOORD_0":3},"indices":0,"material":0,"mode":4}]}],"nodes":[{"mesh":0,"name":"road_sign_08","rotation":[0,0,0,1],"scale":[1,1,1],"translation":[19.9322166442871,0,86.7172698974609]}],"samplers":[{}],"scene":0,"scenes":[{"name":"Root Scene","nodes":[0]}],"textures":[{"name":"base_color_texture","sampler":0,"source":0}]}