{"accessors":[{"bufferView":0,"byteOffset":0,"componentType":5123,"count":2442,"type":"SCALAR"},{"bufferView":1,"byteOffset":0,"componentType":5126,"count":1529,"max":[2.08892822265625,3.9525671005249,5.86027383804321],"min":[-2.10903906822205,0.000000119209289550781,-2.13891363143921],"type":"VEC3"},{"bufferView":2,"byteOffset":0,"componentType":5126,"count":1529,"type":"VEC3"},{"bufferView":3,"byteOffset":0,"componentType":5126,"count":1529,"type":"VEC2"},{"bufferView":4,"byteOffset":0,"componentType":5123,"count":24,"type":"SCALAR"},{"bufferView":5,"byteOffset":0,"componentType":5126,"count":16,"max":[1.4481920003891,3.68184566497803,0.592226326465607],"min":[-1.29397583007812,2.51285719871521,-1.44304442405701],"type":"VEC3"},{"bufferView":6,"byteOffset":0,"componentType":5126,"count":16,"type":"VEC3"},{"bufferView":7,"byteOffset":0,"componentType":5126,"count":16,"type":"VEC2"}],"asset":{"generator":"FBX2glTF v0.13.1","version":"2.0"},"bufferViews":[{"buffer":0,"byteLength":4884,"byteOffset":0,"target":34963},{"buffer":0,"byteLength":18348,"byteOffset":4884,"target":34962},{"buffer":0,"byteLength":18348,"byteOffset":23232,"target":34962},{"buffer":0,"byteLength":12232,"byteOffset":41580,"target":34962},{"buffer":0,"byteLength":48,"byteOffset":53812,"target":34963},{"buffer":0,"byteLength":192,"byteOffset":53860,"target":34962},{"buffer":0,"byteLength":192,"byteOffset":54052,"target":34962},{"buffer":0,"byteLength":128,"byteOffset":54244,"target":34962}],"buffers":[{"byteLength":54372,"uri":"SM_rescue_tower_01.bin"}],"images":[{"name":"Polygon_Texture_vol2","uri":"Polygon_Texture_vol2.png"}],"materials":[{"alphaMode":"OPAQUE","doubleSided":false,"extras":{"fromFBX":{"isTruePBR":false,"shadingModel":"Phong"}},"name":"Main_material","pbrMetallicRoughness":{"baseColorFactor":[1,1,1,1],"baseColorTexture":{"index":0,"texCoord":0},"metallicFactor":0.400000005960464,"roughnessFactor":0.272165536880493}},{"alphaMode":"OPAQUE","doubleSided":false,"extras":{"fromFBX":{"isTruePBR":false,"shadingModel":"Phong"}},"name":"Material","pbrMetallicRoughness":{"baseColorFactor":[0.800000011920929,0.800000011920929,0.800000011920929,1],"metallicFactor":0.400000005960464,"roughnessFactor":0.272165536880493}}],"meshes":[{"name":"rescue_tower_01","primitives":[{"attributes":{"NORMAL":2,"POSITION":1,"TEXCOORD_0":3},"indices":0,"material":0,"mode":4},{"attributes":{"NORMAL":6,"POSITION":5,"TEXCOORD_0":7},"indices":4,"material":1,"mode":4}]}],"nodes":[{"mesh":0,"name":"rescue_tower_01","rotation":[0,0,0,1],"scale":[1,1,1],"translation":[27.2607536315918,0,20.009838104248]}],"samplers":[{}],"scene":0,"scenes":[{"name":"Root Scene","nodes":[0]}],"textures":[{"name":"base_color_texture","sampler":0,"source":0}]}