{"accessors":[{"bufferView":0,"byteOffset":0,"componentType":5123,"count":657,"type":"SCALAR"},{"bufferView":1,"byteOffset":0,"componentType":5126,"count":401,"max":[4.5,0.177035495638847,1.00000035762787],"min":[-4.50000095367432,0,-1.00000035762787],"type":"VEC3"},{"bufferView":2,"byteOffset":0,"componentType":5126,"count":401,"type":"VEC3"},{"bufferView":3,"byteOffset":0,"componentType":5126,"count":401,"type":"VEC2"}],"asset":{"generator":"FBX2glTF v0.13.1","version":"2.0"},"bufferViews":[{"buffer":0,"byteLength":1314,"byteOffset":0,"target":34963},{"buffer":0,"byteLength":4812,"byteOffset":1316,"target":34962},{"buffer":0,"byteLength":4812,"byteOffset":6128,"target":34962},{"buffer":0,"byteLength":3208,"byteOffset":10940,"target":34962}],"buffers":[{"byteLength":14148,"uri":"SM_road_23.bin"}],"images":[{"name":"Polygon_Texture_vol2","uri":"Polygon_Texture_vol2.png"}],"materials":[{"alphaMode":"OPAQUE","doubleSided":false,"extras":{"fromFBX":{"isTruePBR":false,"shadingModel":"Phong"}},"name":"Main_material","pbrMetallicRoughness":{"baseColorFactor":[1,1,1,1],"baseColorTexture":{"index":0,"texCoord":0},"metallicFactor":0.400000005960464,"roughnessFactor":0.272165536880493}}],"meshes":[{"name":"road_23","primitives":[{"attributes":{"NORMAL":2,"POSITION":1,"TEXCOORD_0":3},"indices":0,"material":0,"mode":4}]}],"nodes":[{"mesh":0,"name":"road_23","rotation":[0,0,0,1],"scale":[1,1,1],"translation":[5.7392578125,0.0249999985098839,-11.1093244552612]}],"samplers":[{}],"scene":0,"scenes":[{"name":"Root Scene","nodes":[0]}],"textures":[{"name":"base_color_texture","sampler":0,"source":0}]}