{"accessors":[{"bufferView":0,"byteOffset":0,"componentType":5123,"count":54,"type":"SCALAR"},{"bufferView":1,"byteOffset":0,"componentType":5126,"count":32,"max":[1,0.0499999970197678,1],"min":[-1,0,-1],"type":"VEC3"},{"bufferView":2,"byteOffset":0,"componentType":5126,"count":32,"type":"VEC3"},{"bufferView":3,"byteOffset":0,"componentType":5126,"count":32,"type":"VEC2"}],"asset":{"generator":"FBX2glTF v0.13.1","version":"2.0"},"bufferViews":[{"buffer":0,"byteLength":108,"byteOffset":0,"target":34963},{"buffer":0,"byteLength":384,"byteOffset":108,"target":34962},{"buffer":0,"byteLength":384,"byteOffset":492,"target":34962},{"buffer":0,"byteLength":256,"byteOffset":876,"target":34962}],"buffers":[{"byteLength":1132,"uri":"SM_road_21.bin"}],"images":[{"name":"Polygon_Texture_vol2","uri":"Polygon_Texture_vol2.png"}],"materials":[{"alphaMode":"OPAQUE","doubleSided":false,"extras":{"fromFBX":{"isTruePBR":false,"shadingModel":"Phong"}},"name":"Main_material","pbrMetallicRoughness":{"baseColorFactor":[1,1,1,1],"baseColorTexture":{"index":0,"texCoord":0},"metallicFactor":0.400000005960464,"roughnessFactor":0.272165536880493}}],"meshes":[{"name":"road_21","primitives":[{"attributes":{"NORMAL":2,"POSITION":1,"TEXCOORD_0":3},"indices":0,"material":0,"mode":4}]}],"nodes":[{"mesh":0,"name":"road_21","rotation":[0,0,0,1],"scale":[1,1,1],"translation":[7.38641357421875,0.0249999985098839,-16.0353202819824]}],"samplers":[{}],"scene":0,"scenes":[{"name":"Root Scene","nodes":[0]}],"textures":[{"name":"base_color_texture","sampler":0,"source":0}]}