{"accessors":[{"bufferView":0,"byteOffset":0,"componentType":5123,"count":4428,"type":"SCALAR"},{"bufferView":1,"byteOffset":0,"componentType":5126,"count":2944,"max":[2.00000047683716,0.279197484254837,7.78782272338867],"min":[-13.9746417999268,-0.00000002980232,-8.21218681335449],"type":"VEC3"},{"bufferView":2,"byteOffset":0,"componentType":5126,"count":2944,"type":"VEC3"},{"bufferView":3,"byteOffset":0,"componentType":5126,"count":2944,"type":"VEC2"}],"asset":{"generator":"FBX2glTF v0.13.1","version":"2.0"},"bufferViews":[{"buffer":0,"byteLength":8856,"byteOffset":0,"target":34963},{"buffer":0,"byteLength":35328,"byteOffset":8856,"target":34962},{"buffer":0,"byteLength":35328,"byteOffset":44184,"target":34962},{"buffer":0,"byteLength":23552,"byteOffset":79512,"target":34962}],"buffers":[{"byteLength":103064,"uri":"SM_Railway_tracks_02.bin"}],"images":[{"name":"Polygon_Camping_Texture_vol2.0","uri":"Polygon_Camping_Texture_vol2.0.jpg"}],"materials":[{"alphaMode":"OPAQUE","doubleSided":false,"extras":{"fromFBX":{"isTruePBR":false,"shadingModel":"Phong"}},"name":"Main_material","pbrMetallicRoughness":{"baseColorFactor":[1,1,1,1],"baseColorTexture":{"index":0,"texCoord":0},"metallicFactor":0.400000005960464,"roughnessFactor":0.272165536880493}}],"meshes":[{"name":"Railway_tracks_02","primitives":[{"attributes":{"NORMAL":2,"POSITION":1,"TEXCOORD_0":3},"indices":0,"material":0,"mode":4}]}],"nodes":[{"mesh":0,"name":"Railway_tracks_02","rotation":[0,0,0,1],"scale":[1,1,1],"translation":[47.2527923583984,-0.03617730364203,-28.0550651550293]}],"samplers":[{}],"scene":0,"scenes":[{"name":"Root Scene","nodes":[0]}],"textures":[{"name":"base_color_texture","sampler":0,"source":0}]}