{"accessors":[{"bufferView":0,"byteOffset":0,"componentType":5123,"count":4200,"type":"SCALAR"},{"bufferView":1,"byteOffset":0,"componentType":5126,"count":2264,"max":[4,5.95308208465576,0.499999940395355],"min":[-4,-0.04691705480218,-0.49999994039536],"type":"VEC3"},{"bufferView":2,"byteOffset":0,"componentType":5126,"count":2264,"type":"VEC3"},{"bufferView":3,"byteOffset":0,"componentType":5126,"count":2264,"type":"VEC2"}],"asset":{"generator":"FBX2glTF v0.13.1","version":"2.0"},"bufferViews":[{"buffer":0,"byteLength":8400,"byteOffset":0,"target":34963},{"buffer":0,"byteLength":27168,"byteOffset":8400,"target":34962},{"buffer":0,"byteLength":27168,"byteOffset":35568,"target":34962},{"buffer":0,"byteLength":18112,"byteOffset":62736,"target":34962}],"buffers":[{"byteLength":80848,"uri":"SM_road_signs_12.bin"}],"images":[{"name":"Polygon_Camping_Texture_vol2.0","uri":"Polygon_Camping_Texture_vol2.0.jpg"}],"materials":[{"alphaMode":"OPAQUE","doubleSided":false,"extras":{"fromFBX":{"isTruePBR":false,"shadingModel":"Phong"}},"name":"Main_material","pbrMetallicRoughness":{"baseColorFactor":[1,1,1,1],"baseColorTexture":{"index":0,"texCoord":0},"metallicFactor":0.400000005960464,"roughnessFactor":0.272165536880493}}],"meshes":[{"name":"road_signs_12","primitives":[{"attributes":{"NORMAL":2,"POSITION":1,"TEXCOORD_0":3},"indices":0,"material":0,"mode":4}]}],"nodes":[{"mesh":0,"name":"road_signs_12","rotation":[0,0,0,1],"scale":[1,1,1],"translation":[54.9725074768066,0,79.9449462890625]}],"samplers":[{}],"scene":0,"scenes":[{"name":"Root Scene","nodes":[0]}],"textures":[{"name":"base_color_texture","sampler":0,"source":0}]}