{"accessors":[{"bufferView":0,"byteOffset":0,"componentType":5123,"count":252,"type":"SCALAR"},{"bufferView":1,"byteOffset":0,"componentType":5126,"count":136,"max":[0.530315399169922,1.59659314155579,0.368371814489365],"min":[-0.46968460083008,0,-0.36837249994278],"type":"VEC3"},{"bufferView":2,"byteOffset":0,"componentType":5126,"count":136,"type":"VEC3"},{"bufferView":3,"byteOffset":0,"componentType":5126,"count":136,"type":"VEC2"}],"asset":{"generator":"FBX2glTF v0.13.1","version":"2.0"},"bufferViews":[{"buffer":0,"byteLength":504,"byteOffset":0,"target":34963},{"buffer":0,"byteLength":1632,"byteOffset":504,"target":34962},{"buffer":0,"byteLength":1632,"byteOffset":2136,"target":34962},{"buffer":0,"byteLength":1088,"byteOffset":3768,"target":34962}],"buffers":[{"byteLength":4856,"uri":"SM_road_sign_06.bin"}],"images":[{"name":"Polygon_Camping_Texture_vol2.0","uri":"Polygon_Camping_Texture_vol2.0.jpg"}],"materials":[{"alphaMode":"OPAQUE","doubleSided":false,"extras":{"fromFBX":{"isTruePBR":false,"shadingModel":"Phong"}},"name":"Main_material","pbrMetallicRoughness":{"baseColorFactor":[1,1,1,1],"baseColorTexture":{"index":0,"texCoord":0},"metallicFactor":0.400000005960464,"roughnessFactor":0.272165536880493}}],"meshes":[{"name":"road_sign_06","primitives":[{"attributes":{"NORMAL":2,"POSITION":1,"TEXCOORD_0":3},"indices":0,"material":0,"mode":4}]}],"nodes":[{"mesh":0,"name":"road_sign_06","rotation":[0,0,0,1],"scale":[1,1,1],"translation":[17.7624034881592,0,86.7427978515625]}],"samplers":[{}],"scene":0,"scenes":[{"name":"Root Scene","nodes":[0]}],"textures":[{"name":"base_color_texture","sampler":0,"source":0}]}