{"accessors":[{"bufferView":0,"byteOffset":0,"componentType":5123,"count":354,"type":"SCALAR"},{"bufferView":1,"byteOffset":0,"componentType":5126,"count":224,"max":[0.113415829837322,1,0.113415896892548],"min":[-0.11341595649719,0,-0.11341589689255],"type":"VEC3"},{"bufferView":2,"byteOffset":0,"componentType":5126,"count":224,"type":"VEC3"},{"bufferView":3,"byteOffset":0,"componentType":5126,"count":224,"type":"VEC2"}],"asset":{"generator":"FBX2glTF v0.13.1","version":"2.0"},"bufferViews":[{"buffer":0,"byteLength":708,"byteOffset":0,"target":34963},{"buffer":0,"byteLength":2688,"byteOffset":708,"target":34962},{"buffer":0,"byteLength":2688,"byteOffset":3396,"target":34962},{"buffer":0,"byteLength":1792,"byteOffset":6084,"target":34962}],"buffers":[{"byteLength":7876,"uri":"SM_road_fence_01.bin"}],"images":[{"name":"Polygon_Camping_Texture_vol2.0","uri":"Polygon_Camping_Texture_vol2.0.jpg"}],"materials":[{"alphaMode":"OPAQUE","doubleSided":false,"extras":{"fromFBX":{"isTruePBR":false,"shadingModel":"Phong"}},"name":"Main_material","pbrMetallicRoughness":{"baseColorFactor":[1,1,1,1],"baseColorTexture":{"index":0,"texCoord":0},"metallicFactor":0.400000005960464,"roughnessFactor":0.272165536880493}}],"meshes":[{"name":"road_fence_01","primitives":[{"attributes":{"NORMAL":2,"POSITION":1,"TEXCOORD_0":3},"indices":0,"material":0,"mode":4}]}],"nodes":[{"mesh":0,"name":"road_fence_01","rotation":[0,0,0,1],"scale":[1,1,1],"translation":[27.3917694091797,0,84.5886688232422]}],"samplers":[{}],"scene":0,"scenes":[{"name":"Root Scene","nodes":[0]}],"textures":[{"name":"base_color_texture","sampler":0,"source":0}]}