{"accessors":[{"bufferView":0,"byteOffset":0,"componentType":5123,"count":3672,"type":"SCALAR"},{"bufferView":1,"byteOffset":0,"componentType":5126,"count":2448,"max":[4.96050024032593,0.2791967689991,10.4073715209961],"min":[-11.0439081192017,-0.00000004470348,-5.5926194190979],"type":"VEC3"},{"bufferView":2,"byteOffset":0,"componentType":5126,"count":2448,"type":"VEC3"},{"bufferView":3,"byteOffset":0,"componentType":5126,"count":2448,"type":"VEC2"}],"asset":{"generator":"FBX2glTF v0.13.1","version":"2.0"},"bufferViews":[{"buffer":0,"byteLength":7344,"byteOffset":0,"target":34963},{"buffer":0,"byteLength":29376,"byteOffset":7344,"target":34962},{"buffer":0,"byteLength":29376,"byteOffset":36720,"target":34962},{"buffer":0,"byteLength":19584,"byteOffset":66096,"target":34962}],"buffers":[{"byteLength":85680,"uri":"SM_Railway_tracks_03.bin"}],"images":[{"name":"Polygon_Camping_Texture_vol2.0","uri":"Polygon_Camping_Texture_vol2.0.jpg"}],"materials":[{"alphaMode":"OPAQUE","doubleSided":false,"extras":{"fromFBX":{"isTruePBR":false,"shadingModel":"Phong"}},"name":"Main_material","pbrMetallicRoughness":{"baseColorFactor":[1,1,1,1],"baseColorTexture":{"index":0,"texCoord":0},"metallicFactor":0.400000005960464,"roughnessFactor":0.272165536880493}}],"meshes":[{"name":"Railway_tracks_03","primitives":[{"attributes":{"NORMAL":2,"POSITION":1,"TEXCOORD_0":3},"indices":0,"material":0,"mode":4}]}],"nodes":[{"mesh":0,"name":"Railway_tracks_03","rotation":[0,0,0,1],"scale":[1,1,1],"translation":[52.3946952819824,-0.03617729246616,-38.9734687805176]}],"samplers":[{}],"scene":0,"scenes":[{"name":"Root Scene","nodes":[0]}],"textures":[{"name":"base_color_texture","sampler":0,"source":0}]}