{"accessors":[{"bufferView":0,"byteOffset":0,"componentType":5123,"count":246,"type":"SCALAR"},{"bufferView":1,"byteOffset":0,"componentType":5126,"count":124,"max":[1,0.0499999970197678,1],"min":[-1,0,-1],"type":"VEC3"},{"bufferView":2,"byteOffset":0,"componentType":5126,"count":124,"type":"VEC3"},{"bufferView":3,"byteOffset":0,"componentType":5126,"count":124,"type":"VEC2"}],"asset":{"generator":"FBX2glTF v0.13.1","version":"2.0"},"bufferViews":[{"buffer":0,"byteLength":492,"byteOffset":0,"target":34963},{"buffer":0,"byteLength":1488,"byteOffset":492,"target":34962},{"buffer":0,"byteLength":1488,"byteOffset":1980,"target":34962},{"buffer":0,"byteLength":992,"byteOffset":3468,"target":34962}],"buffers":[{"byteLength":4460,"uri":"SM_road_13.bin"}],"images":[{"name":"Polygon_Texture_vol2","uri":"Polygon_Texture_vol2.png"}],"materials":[{"alphaMode":"OPAQUE","doubleSided":false,"extras":{"fromFBX":{"isTruePBR":false,"shadingModel":"Phong"}},"name":"Main_material","pbrMetallicRoughness":{"baseColorFactor":[1,1,1,1],"baseColorTexture":{"index":0,"texCoord":0},"metallicFactor":0.400000005960464,"roughnessFactor":0.272165536880493}}],"meshes":[{"name":"road_13","primitives":[{"attributes":{"NORMAL":2,"POSITION":1,"TEXCOORD_0":3},"indices":0,"material":0,"mode":4}]}],"nodes":[{"mesh":0,"name":"road_13","rotation":[0,0,0,1],"scale":[1,1,1],"translation":[2.2392578125,0.0249999985098839,-4.71217918395996]}],"samplers":[{}],"scene":0,"scenes":[{"name":"Root Scene","nodes":[0]}],"textures":[{"name":"base_color_texture","sampler":0,"source":0}]}