{"accessors":[{"bufferView":0,"byteOffset":0,"componentType":5123,"count":24,"type":"SCALAR"},{"bufferView":1,"byteOffset":0,"componentType":5126,"count":18,"max":[0.333332061767578,0.0500000044703484,1.33333337306976],"min":[-0.66666793823242,-0.00000000186265,-0.66666662693024],"type":"VEC3"},{"bufferView":2,"byteOffset":0,"componentType":5126,"count":18,"type":"VEC3"},{"bufferView":3,"byteOffset":0,"componentType":5126,"count":18,"type":"VEC2"}],"asset":{"generator":"FBX2glTF v0.13.1","version":"2.0"},"bufferViews":[{"buffer":0,"byteLength":48,"byteOffset":0,"target":34963},{"buffer":0,"byteLength":216,"byteOffset":48,"target":34962},{"buffer":0,"byteLength":216,"byteOffset":264,"target":34962},{"buffer":0,"byteLength":144,"byteOffset":480,"target":34962}],"buffers":[{"byteLength":624,"uri":"SM_road_08.bin"}],"images":[{"name":"Polygon_Texture_vol2","uri":"Polygon_Texture_vol2.png"}],"materials":[{"alphaMode":"OPAQUE","doubleSided":false,"extras":{"fromFBX":{"isTruePBR":false,"shadingModel":"Phong"}},"name":"Main_material","pbrMetallicRoughness":{"baseColorFactor":[1,1,1,1],"baseColorTexture":{"index":0,"texCoord":0},"metallicFactor":0.400000005960464,"roughnessFactor":0.272165536880493}}],"meshes":[{"name":"road_08","primitives":[{"attributes":{"NORMAL":2,"POSITION":1,"TEXCOORD_0":3},"indices":0,"material":0,"mode":4}]}],"nodes":[{"mesh":0,"name":"road_08","rotation":[0,0,0,1],"scale":[1,1,1],"translation":[32.1166534423828,0.0250000022351742,-1.33333337306976]}],"samplers":[{}],"scene":0,"scenes":[{"name":"Root Scene","nodes":[0]}],"textures":[{"name":"base_color_texture","sampler":0,"source":0}]}