{"accessors":[{"bufferView":0,"byteOffset":0,"componentType":5123,"count":1776,"type":"SCALAR"},{"bufferView":1,"byteOffset":0,"componentType":5126,"count":951,"max":[0.991670370101929,0.32141438126564,1.98398113250732],"min":[-1.00832962989807,-0.01711487770081,-2.01601886749268],"type":"VEC3"},{"bufferView":2,"byteOffset":0,"componentType":5126,"count":951,"type":"VEC3"},{"bufferView":3,"byteOffset":0,"componentType":5126,"count":951,"type":"VEC2"}],"asset":{"generator":"FBX2glTF v0.13.1","version":"2.0"},"bufferViews":[{"buffer":0,"byteLength":3552,"byteOffset":0,"target":34963},{"buffer":0,"byteLength":11412,"byteOffset":3552,"target":34962},{"buffer":0,"byteLength":11412,"byteOffset":14964,"target":34962},{"buffer":0,"byteLength":7608,"byteOffset":26376,"target":34962}],"buffers":[{"byteLength":33984,"uri":"SM_road_pit_01.bin"}],"images":[{"name":"Polygon_Camping_Texture_vol2.0","uri":"Polygon_Camping_Texture_vol2.0.jpg"}],"materials":[{"alphaMode":"OPAQUE","doubleSided":false,"extras":{"fromFBX":{"isTruePBR":false,"shadingModel":"Phong"}},"name":"Main_material","pbrMetallicRoughness":{"baseColorFactor":[1,1,1,1],"baseColorTexture":{"index":0,"texCoord":0},"metallicFactor":0.400000005960464,"roughnessFactor":0.272165536880493}}],"meshes":[{"name":"road_pit_01","primitives":[{"attributes":{"NORMAL":2,"POSITION":1,"TEXCOORD_0":3},"indices":0,"material":0,"mode":4}]}],"nodes":[{"mesh":0,"name":"road_pit_01","rotation":[0,0,0,1],"scale":[1,1,1],"translation":[8.19628715515137,-0.24641434848309,84.9534149169922]}],"samplers":[{}],"scene":0,"scenes":[{"name":"Root Scene","nodes":[0]}],"textures":[{"name":"base_color_texture","sampler":0,"source":0}]}