{"accessors":[{"bufferView":0,"byteOffset":0,"componentType":5123,"count":7335,"type":"SCALAR"},{"bufferView":1,"byteOffset":0,"componentType":5126,"count":3785,"max":[3.78335571289062,4.1109094619751,1.7986741065979],"min":[-2.92621207237244,-0.00000002980232,-2.80795454978943],"type":"VEC3"},{"bufferView":2,"byteOffset":0,"componentType":5126,"count":3785,"type":"VEC3"},{"bufferView":3,"byteOffset":0,"componentType":5126,"count":3785,"type":"VEC2"},{"bufferView":4,"byteOffset":0,"componentType":5123,"count":42,"type":"SCALAR"},{"bufferView":5,"byteOffset":0,"componentType":5126,"count":26,"max":[3.01337480545044,2.74500799179077,1.34464991092682],"min":[-2.15623140335083,1.18442130088806,1.28666210174561],"type":"VEC3"},{"bufferView":6,"byteOffset":0,"componentType":5126,"count":26,"type":"VEC3"},{"bufferView":7,"byteOffset":0,"componentType":5126,"count":26,"type":"VEC2"}],"asset":{"generator":"FBX2glTF v0.13.1","version":"2.0"},"bufferViews":[{"buffer":0,"byteLength":14670,"byteOffset":0,"target":34963},{"buffer":0,"byteLength":45420,"byteOffset":14672,"target":34962},{"buffer":0,"byteLength":45420,"byteOffset":60092,"target":34962},{"buffer":0,"byteLength":30280,"byteOffset":105512,"target":34962},{"buffer":0,"byteLength":84,"byteOffset":135792,"target":34963},{"buffer":0,"byteLength":312,"byteOffset":135876,"target":34962},{"buffer":0,"byteLength":312,"byteOffset":136188,"target":34962},{"buffer":0,"byteLength":208,"byteOffset":136500,"target":34962}],"buffers":[{"byteLength":136708,"uri":"SM_street_coffee_shop.bin"}],"images":[{"name":"Polygon_Texture_vol2","uri":"Polygon_Texture_vol2.png"}],"materials":[{"alphaMode":"OPAQUE","doubleSided":false,"extras":{"fromFBX":{"isTruePBR":false,"shadingModel":"Phong"}},"name":"Main_material","pbrMetallicRoughness":{"baseColorFactor":[1,1,1,1],"baseColorTexture":{"index":0,"texCoord":0},"metallicFactor":0.400000005960464,"roughnessFactor":0.272165536880493}},{"alphaMode":"OPAQUE","doubleSided":false,"extras":{"fromFBX":{"isTruePBR":false,"shadingModel":"Phong"}},"name":"Material","pbrMetallicRoughness":{"baseColorFactor":[0.800000011920929,0.800000011920929,0.800000011920929,1],"metallicFactor":0.400000005960464,"roughnessFactor":0.272165536880493}}],"meshes":[{"name":"street_coffee_shop","primitives":[{"attributes":{"NORMAL":2,"POSITION":1,"TEXCOORD_0":3},"indices":0,"material":0,"mode":4},{"attributes":{"NORMAL":6,"POSITION":5,"TEXCOORD_0":7},"indices":4,"material":1,"mode":4}]}],"nodes":[{"mesh":0,"name":"street_coffee_shop","rotation":[0,0,0,1],"scale":[1,1,1],"translation":[25.9563980102539,0,80.8989791870117]}],"samplers":[{}],"scene":0,"scenes":[{"name":"Root Scene","nodes":[0]}],"textures":[{"name":"base_color_texture","sampler":0,"source":0}]}