{"accessors":[{"bufferView":0,"byteOffset":0,"componentType":5123,"count":732,"type":"SCALAR"},{"bufferView":1,"byteOffset":0,"componentType":5126,"count":344,"max":[0.423672169446945,0.640156447887421,0.861591994762421],"min":[-0.42367219924927,0.00000000745058059692383,-0.86159306764603],"type":"VEC3"},{"bufferView":2,"byteOffset":0,"componentType":5126,"count":344,"type":"VEC3"},{"bufferView":3,"byteOffset":0,"componentType":5126,"count":344,"type":"VEC2"}],"asset":{"generator":"FBX2glTF v0.13.1","version":"2.0"},"bufferViews":[{"buffer":0,"byteLength":1464,"byteOffset":0,"target":34963},{"buffer":0,"byteLength":4128,"byteOffset":1464,"target":34962},{"buffer":0,"byteLength":4128,"byteOffset":5592,"target":34962},{"buffer":0,"byteLength":2752,"byteOffset":9720,"target":34962}],"buffers":[{"byteLength":12472,"uri":"SM_stand_03.bin"}],"images":[{"name":"Polygon_Camping_Texture_vol2.0","uri":"Polygon_Camping_Texture_vol2.0.jpg"}],"materials":[{"alphaMode":"OPAQUE","doubleSided":false,"extras":{"fromFBX":{"isTruePBR":false,"shadingModel":"Phong"}},"name":"Main_material","pbrMetallicRoughness":{"baseColorFactor":[1,1,1,1],"baseColorTexture":{"index":0,"texCoord":0},"metallicFactor":0.400000005960464,"roughnessFactor":0.272165536880493}}],"meshes":[{"name":"stand_03","primitives":[{"attributes":{"NORMAL":2,"POSITION":1,"TEXCOORD_0":3},"indices":0,"material":0,"mode":4}]}],"nodes":[{"mesh":0,"name":"stand_03","rotation":[0,0,0,1],"scale":[1,1,1],"translation":[9.80810070037842,-0.05921407416463,88.2457962036133]}],"samplers":[{}],"scene":0,"scenes":[{"name":"Root Scene","nodes":[0]}],"textures":[{"name":"base_color_texture","sampler":0,"source":0}]}