{"accessors":[{"bufferView":0,"byteOffset":0,"componentType":5123,"count":378,"type":"SCALAR"},{"bufferView":1,"byteOffset":0,"componentType":5126,"count":304,"max":[2.00028562545776,0.14835412800312,2.00041151046753],"min":[-2.00001335144043,0,-2.00025343894958],"type":"VEC3"},{"bufferView":2,"byteOffset":0,"componentType":5126,"count":304,"type":"VEC3"},{"bufferView":3,"byteOffset":0,"componentType":5126,"count":304,"type":"VEC2"}],"asset":{"generator":"FBX2glTF v0.13.1","version":"2.0"},"bufferViews":[{"buffer":0,"byteLength":756,"byteOffset":0,"target":34963},{"buffer":0,"byteLength":3648,"byteOffset":756,"target":34962},{"buffer":0,"byteLength":3648,"byteOffset":4404,"target":34962},{"buffer":0,"byteLength":2432,"byteOffset":8052,"target":34962}],"buffers":[{"byteLength":10484,"uri":"SM_sand_03_B.bin"}],"images":[{"name":"Polygon_Camping_Texture_vol2.0","uri":"Polygon_Camping_Texture_vol2.0.jpg"}],"materials":[{"alphaMode":"OPAQUE","doubleSided":false,"extras":{"fromFBX":{"isTruePBR":false,"shadingModel":"Phong"}},"name":"Main_material.005","pbrMetallicRoughness":{"baseColorFactor":[1,1,1,1],"baseColorTexture":{"index":0,"texCoord":0},"metallicFactor":0.400000005960464,"roughnessFactor":0.272165536880493}}],"meshes":[{"name":"sand_03_B","primitives":[{"attributes":{"NORMAL":2,"POSITION":1,"TEXCOORD_0":3},"indices":0,"material":0,"mode":4}]}],"nodes":[{"mesh":0,"name":"sand_03_B","rotation":[0,0,0,1],"scale":[1,1,1],"translation":[8.03410339355469,-0.04999999701977,24.9952354431152]}],"samplers":[{}],"scene":0,"scenes":[{"name":"Root Scene","nodes":[0]}],"textures":[{"name":"base_color_texture","sampler":0,"source":0}]}