{"accessors":[{"bufferView":0,"byteOffset":0,"componentType":5123,"count":972,"type":"SCALAR"},{"bufferView":1,"byteOffset":0,"componentType":5126,"count":576,"max":[13.6582098007202,0.0000000894069671630859,7.76452445983887],"min":[-18.3417892456055,-1.73954010009766,-8.23547554016113],"type":"VEC3"},{"bufferView":2,"byteOffset":0,"componentType":5126,"count":576,"type":"VEC3"},{"bufferView":3,"byteOffset":0,"componentType":5126,"count":576,"type":"VEC2"}],"asset":{"generator":"FBX2glTF v0.13.1","version":"2.0"},"bufferViews":[{"buffer":0,"byteLength":1944,"byteOffset":0,"target":34963},{"buffer":0,"byteLength":6912,"byteOffset":1944,"target":34962},{"buffer":0,"byteLength":6912,"byteOffset":8856,"target":34962},{"buffer":0,"byteLength":4608,"byteOffset":15768,"target":34962}],"buffers":[{"byteLength":20376,"uri":"SM_skate_playground_01.bin"}],"images":[{"name":"Polygon_Camping_Texture_vol2.0","uri":"Polygon_Camping_Texture_vol2.0.jpg"}],"materials":[{"alphaMode":"OPAQUE","doubleSided":false,"extras":{"fromFBX":{"isTruePBR":false,"shadingModel":"Phong"}},"name":"Main_material","pbrMetallicRoughness":{"baseColorFactor":[1,1,1,1],"baseColorTexture":{"index":0,"texCoord":0},"metallicFactor":0.400000005960464,"roughnessFactor":0.272165536880493}}],"meshes":[{"name":"skate_playground_01","primitives":[{"attributes":{"NORMAL":2,"POSITION":1,"TEXCOORD_0":3},"indices":0,"material":0,"mode":4}]}],"nodes":[{"mesh":0,"name":"skate_playground_01","rotation":[0,0,0,1],"scale":[1,1,1],"translation":[102.625984191895,0,22.2840671539307]}],"samplers":[{}],"scene":0,"scenes":[{"name":"Root Scene","nodes":[0]}],"textures":[{"name":"base_color_texture","sampler":0,"source":0}]}