{"accessors":[{"bufferView":0,"byteOffset":0,"componentType":5123,"count":282,"type":"SCALAR"},{"bufferView":1,"byteOffset":0,"componentType":5126,"count":260,"max":[1.00022208690643,0.0663104355335236,1.00019419193268],"min":[-1.00021636486053,-0.04999999701977,-1],"type":"VEC3"},{"bufferView":2,"byteOffset":0,"componentType":5126,"count":260,"type":"VEC3"},{"bufferView":3,"byteOffset":0,"componentType":5126,"count":260,"type":"VEC2"}],"asset":{"generator":"FBX2glTF v0.13.1","version":"2.0"},"bufferViews":[{"buffer":0,"byteLength":564,"byteOffset":0,"target":34963},{"buffer":0,"byteLength":3120,"byteOffset":564,"target":34962},{"buffer":0,"byteLength":3120,"byteOffset":3684,"target":34962},{"buffer":0,"byteLength":2080,"byteOffset":6804,"target":34962}],"buffers":[{"byteLength":8884,"uri":"SM_sand_01_A.bin"}],"images":[{"name":"Polygon_Camping_Texture_vol2.0","uri":"Polygon_Camping_Texture_vol2.0.jpg"}],"materials":[{"alphaMode":"OPAQUE","doubleSided":false,"extras":{"fromFBX":{"isTruePBR":false,"shadingModel":"Phong"}},"name":"Main_material","pbrMetallicRoughness":{"baseColorFactor":[1,1,1,1],"baseColorTexture":{"index":0,"texCoord":0},"metallicFactor":0.400000005960464,"roughnessFactor":0.272165536880493}}],"meshes":[{"name":"sand_01_A","primitives":[{"attributes":{"NORMAL":2,"POSITION":1,"TEXCOORD_0":3},"indices":0,"material":0,"mode":4}]}],"nodes":[{"mesh":0,"name":"sand_01_A","rotation":[0,0,0,1],"scale":[1,1,1],"translation":[1,0,19.8011283874512]}],"samplers":[{}],"scene":0,"scenes":[{"name":"Root Scene","nodes":[0]}],"textures":[{"name":"base_color_texture","sampler":0,"source":0}]}