{"accessors":[{"bufferView":0,"byteOffset":0,"componentType":5123,"count":804,"type":"SCALAR"},{"bufferView":1,"byteOffset":0,"componentType":5126,"count":592,"max":[0.92718380689621,0.92718380689621,0.836602926254272],"min":[-0.92718380689621,-1.25176286697388,-0.00000160932541],"type":"VEC3"},{"bufferView":2,"byteOffset":0,"componentType":5126,"count":592,"type":"VEC3"},{"bufferView":3,"byteOffset":0,"componentType":5126,"count":592,"type":"VEC2"}],"asset":{"generator":"FBX2glTF v0.13.1","version":"2.0"},"bufferViews":[{"buffer":0,"byteLength":1608,"byteOffset":0,"target":34963},{"buffer":0,"byteLength":7104,"byteOffset":1608,"target":34962},{"buffer":0,"byteLength":7104,"byteOffset":8712,"target":34962},{"buffer":0,"byteLength":4736,"byteOffset":15816,"target":34962}],"buffers":[{"byteLength":20552,"uri":"SM_sewage_01.bin"}],"images":[{"name":"Polygon_Camping_Texture_vol2.0","uri":"Polygon_Camping_Texture_vol2.0.jpg"}],"materials":[{"alphaMode":"OPAQUE","doubleSided":false,"extras":{"fromFBX":{"isTruePBR":false,"shadingModel":"Phong"}},"name":"Main_material","pbrMetallicRoughness":{"baseColorFactor":[1,1,1,1],"baseColorTexture":{"index":0,"texCoord":0},"metallicFactor":0.400000005960464,"roughnessFactor":0.272165536880493}}],"meshes":[{"name":"sewage_01","primitives":[{"attributes":{"NORMAL":2,"POSITION":1,"TEXCOORD_0":3},"indices":0,"material":0,"mode":4}]}],"nodes":[{"mesh":0,"name":"sewage_01","rotation":[0,0,0,1],"scale":[1,1,1],"translation":[56.2302474975586,1.25176286697388,39.2813873291016]}],"samplers":[{}],"scene":0,"scenes":[{"name":"Root Scene","nodes":[0]}],"textures":[{"name":"base_color_texture","sampler":0,"source":0}]}