{"accessors":[{"bufferView":0,"byteOffset":0,"componentType":5123,"count":2430,"type":"SCALAR"},{"bufferView":1,"byteOffset":0,"componentType":5126,"count":1498,"max":[0.347107738256454,1.98045206069946,0.373448312282562],"min":[-0.34711018204689,0,-0.11728433519602],"type":"VEC3"},{"bufferView":2,"byteOffset":0,"componentType":5126,"count":1498,"type":"VEC3"},{"bufferView":3,"byteOffset":0,"componentType":5126,"count":1498,"type":"VEC2"}],"asset":{"generator":"FBX2glTF v0.13.1","version":"2.0"},"bufferViews":[{"buffer":0,"byteLength":4860,"byteOffset":0,"target":34963},{"buffer":0,"byteLength":17976,"byteOffset":4860,"target":34962},{"buffer":0,"byteLength":17976,"byteOffset":22836,"target":34962},{"buffer":0,"byteLength":11984,"byteOffset":40812,"target":34962}],"buffers":[{"byteLength":52796,"uri":"SM_street_decor_16.bin"}],"images":[{"name":"Polygon_Camping_Texture_vol2.0","uri":"Polygon_Camping_Texture_vol2.0.jpg"}],"materials":[{"alphaMode":"OPAQUE","doubleSided":false,"extras":{"fromFBX":{"isTruePBR":false,"shadingModel":"Phong"}},"name":"Main_material","pbrMetallicRoughness":{"baseColorFactor":[1,1,1,1],"baseColorTexture":{"index":0,"texCoord":0},"metallicFactor":0.400000005960464,"roughnessFactor":0.272165536880493}}],"meshes":[{"name":"street_decor_16","primitives":[{"attributes":{"NORMAL":2,"POSITION":1,"TEXCOORD_0":3},"indices":0,"material":0,"mode":4}]}],"nodes":[{"mesh":0,"name":"street_decor_16","rotation":[0,0,0,1],"scale":[1,1,1],"translation":[36.3885269165039,0.00000000186264514923096,81.4347839355469]}],"samplers":[{}],"scene":0,"scenes":[{"name":"Root Scene","nodes":[0]}],"textures":[{"name":"base_color_texture","sampler":0,"source":0}]}