{"accessors":[{"bufferView":0,"byteOffset":0,"componentType":5123,"count":720,"type":"SCALAR"},{"bufferView":1,"byteOffset":0,"componentType":5126,"count":480,"max":[0.617139995098114,0.0755193755030632,0.615800321102142],"min":[-0.61713927984238,0.0000000596046447753906,-0.61579447984695],"type":"VEC3"},{"bufferView":2,"byteOffset":0,"componentType":5126,"count":480,"type":"VEC3"},{"bufferView":3,"byteOffset":0,"componentType":5126,"count":480,"type":"VEC2"}],"asset":{"generator":"FBX2glTF v0.13.1","version":"2.0"},"bufferViews":[{"buffer":0,"byteLength":1440,"byteOffset":0,"target":34963},{"buffer":0,"byteLength":5760,"byteOffset":1440,"target":34962},{"buffer":0,"byteLength":5760,"byteOffset":7200,"target":34962},{"buffer":0,"byteLength":3840,"byteOffset":12960,"target":34962}],"buffers":[{"byteLength":16800,"uri":"SM_stand_01.bin"}],"images":[{"name":"Polygon_Camping_Texture_vol2.0","uri":"Polygon_Camping_Texture_vol2.0.jpg"}],"materials":[{"alphaMode":"OPAQUE","doubleSided":false,"extras":{"fromFBX":{"isTruePBR":false,"shadingModel":"Phong"}},"name":"Main_material","pbrMetallicRoughness":{"baseColorFactor":[1,1,1,1],"baseColorTexture":{"index":0,"texCoord":0},"metallicFactor":0.400000005960464,"roughnessFactor":0.272165536880493}}],"meshes":[{"name":"stand_01","primitives":[{"attributes":{"NORMAL":2,"POSITION":1,"TEXCOORD_0":3},"indices":0,"material":0,"mode":4}]}],"nodes":[{"mesh":0,"name":"stand_01","rotation":[0,0,0,1],"scale":[1,1,1],"translation":[8.44546508789062,0,87.6894989013672]}],"samplers":[{}],"scene":0,"scenes":[{"name":"Root Scene","nodes":[0]}],"textures":[{"name":"base_color_texture","sampler":0,"source":0}]}