{"accessors":[{"bufferView":0,"byteOffset":0,"componentType":5123,"count":1854,"type":"SCALAR"},{"bufferView":1,"byteOffset":0,"componentType":5126,"count":1016,"max":[1.99654722213745,2.68634271621704,1.23162996768951],"min":[-2.08582544326782,-0.00000000745058,-0.87037533521652],"type":"VEC3"},{"bufferView":2,"byteOffset":0,"componentType":5126,"count":1016,"type":"VEC3"},{"bufferView":3,"byteOffset":0,"componentType":5126,"count":1016,"type":"VEC2"},{"bufferView":4,"byteOffset":0,"componentType":5123,"count":48,"type":"SCALAR"},{"bufferView":5,"byteOffset":0,"componentType":5126,"count":32,"max":[1.86618661880493,1.93264329433441,1.03868842124939],"min":[-1.95546472072601,0.467974126338959,-0.78296166658402],"type":"VEC3"},{"bufferView":6,"byteOffset":0,"componentType":5126,"count":32,"type":"VEC3"},{"bufferView":7,"byteOffset":0,"componentType":5126,"count":32,"type":"VEC2"}],"asset":{"generator":"FBX2glTF v0.13.1","version":"2.0"},"bufferViews":[{"buffer":0,"byteLength":3708,"byteOffset":0,"target":34963},{"buffer":0,"byteLength":12192,"byteOffset":3708,"target":34962},{"buffer":0,"byteLength":12192,"byteOffset":15900,"target":34962},{"buffer":0,"byteLength":8128,"byteOffset":28092,"target":34962},{"buffer":0,"byteLength":96,"byteOffset":36220,"target":34963},{"buffer":0,"byteLength":384,"byteOffset":36316,"target":34962},{"buffer":0,"byteLength":384,"byteOffset":36700,"target":34962},{"buffer":0,"byteLength":256,"byteOffset":37084,"target":34962}],"buffers":[{"byteLength":37340,"uri":"SM_street_decor_04.bin"}],"images":[{"name":"Polygon_Texture_vol2","uri":"Polygon_Texture_vol2.png"}],"materials":[{"alphaMode":"OPAQUE","doubleSided":false,"extras":{"fromFBX":{"isTruePBR":false,"shadingModel":"Phong"}},"name":"Main_material","pbrMetallicRoughness":{"baseColorFactor":[1,1,1,1],"baseColorTexture":{"index":0,"texCoord":0},"metallicFactor":0.400000005960464,"roughnessFactor":0.272165536880493}},{"alphaMode":"OPAQUE","doubleSided":false,"extras":{"fromFBX":{"isTruePBR":false,"shadingModel":"Phong"}},"name":"Material","pbrMetallicRoughness":{"baseColorFactor":[0.800000011920929,0.800000011920929,0.800000011920929,1],"metallicFactor":0.400000005960464,"roughnessFactor":0.272165536880493}}],"meshes":[{"name":"street_decor_04","primitives":[{"attributes":{"NORMAL":2,"POSITION":1,"TEXCOORD_0":3},"indices":0,"material":0,"mode":4},{"attributes":{"NORMAL":6,"POSITION":5,"TEXCOORD_0":7},"indices":4,"material":1,"mode":4}]}],"nodes":[{"mesh":0,"name":"street_decor_04","rotation":[0,0,0,1],"scale":[1,1,1],"translation":[13.0652379989624,-0.10030873864889,80.4584503173828]}],"samplers":[{}],"scene":0,"scenes":[{"name":"Root Scene","nodes":[0]}],"textures":[{"name":"base_color_texture","sampler":0,"source":0}]}