{"accessors":[{"bufferView":0,"byteOffset":0,"componentType":5123,"count":2025,"type":"SCALAR"},{"bufferView":1,"byteOffset":0,"componentType":5126,"count":1135,"max":[16,5.17661666870117,8],"min":[-16,-0.04999999701977,-8],"type":"VEC3"},{"bufferView":2,"byteOffset":0,"componentType":5126,"count":1135,"type":"VEC3"},{"bufferView":3,"byteOffset":0,"componentType":5126,"count":1135,"type":"VEC2"}],"asset":{"generator":"FBX2glTF v0.13.1","version":"2.0"},"bufferViews":[{"buffer":0,"byteLength":4050,"byteOffset":0,"target":34963},{"buffer":0,"byteLength":13620,"byteOffset":4052,"target":34962},{"buffer":0,"byteLength":13620,"byteOffset":17672,"target":34962},{"buffer":0,"byteLength":9080,"byteOffset":31292,"target":34962}],"buffers":[{"byteLength":40372,"uri":"SM_skate_playground_02.bin"}],"images":[{"name":"Polygon_Camping_Texture_vol2.0","uri":"Polygon_Camping_Texture_vol2.0.jpg"}],"materials":[{"alphaMode":"OPAQUE","doubleSided":false,"extras":{"fromFBX":{"isTruePBR":false,"shadingModel":"Phong"}},"name":"Main_material","pbrMetallicRoughness":{"baseColorFactor":[1,1,1,1],"baseColorTexture":{"index":0,"texCoord":0},"metallicFactor":0.400000005960464,"roughnessFactor":0.272165536880493}}],"meshes":[{"name":"skate_playground_02","primitives":[{"attributes":{"NORMAL":2,"POSITION":1,"TEXCOORD_0":3},"indices":0,"material":0,"mode":4}]}],"nodes":[{"mesh":0,"name":"skate_playground_02","rotation":[0,0,0,1],"scale":[1,1,1],"translation":[136.561996459961,0.0499999523162842,22.0485916137695]}],"samplers":[{}],"scene":0,"scenes":[{"name":"Root Scene","nodes":[0]}],"textures":[{"name":"base_color_texture","sampler":0,"source":0}]}