{"accessors":[{"bufferView":0,"byteOffset":0,"componentType":5123,"count":432,"type":"SCALAR"},{"bufferView":1,"byteOffset":0,"componentType":5126,"count":288,"max":[0.990789830684662,0.138082608580589,0.608853042125702],"min":[-1.00921010971069,0.0000000596046447753906,-0.60885280370712],"type":"VEC3"},{"bufferView":2,"byteOffset":0,"componentType":5126,"count":288,"type":"VEC3"},{"bufferView":3,"byteOffset":0,"componentType":5126,"count":288,"type":"VEC2"}],"asset":{"generator":"FBX2glTF v0.13.1","version":"2.0"},"bufferViews":[{"buffer":0,"byteLength":864,"byteOffset":0,"target":34963},{"buffer":0,"byteLength":3456,"byteOffset":864,"target":34962},{"buffer":0,"byteLength":3456,"byteOffset":4320,"target":34962},{"buffer":0,"byteLength":2304,"byteOffset":7776,"target":34962}],"buffers":[{"byteLength":10080,"uri":"SM_stand_02.bin"}],"images":[{"name":"Polygon_Camping_Texture_vol2.0","uri":"Polygon_Camping_Texture_vol2.0.jpg"}],"materials":[{"alphaMode":"OPAQUE","doubleSided":false,"extras":{"fromFBX":{"isTruePBR":false,"shadingModel":"Phong"}},"name":"Main_material","pbrMetallicRoughness":{"baseColorFactor":[1,1,1,1],"baseColorTexture":{"index":0,"texCoord":0},"metallicFactor":0.400000005960464,"roughnessFactor":0.272165536880493}}],"meshes":[{"name":"stand_02","primitives":[{"attributes":{"NORMAL":2,"POSITION":1,"TEXCOORD_0":3},"indices":0,"material":0,"mode":4}]}],"nodes":[{"mesh":0,"name":"stand_02","rotation":[0,0,0,1],"scale":[1,1,1],"translation":[10.3273706436157,0,86.7497329711914]}],"samplers":[{}],"scene":0,"scenes":[{"name":"Root Scene","nodes":[0]}],"textures":[{"name":"base_color_texture","sampler":0,"source":0}]}