{"accessors":[{"bufferView":0,"byteOffset":0,"componentType":5123,"count":2448,"type":"SCALAR"},{"bufferView":1,"byteOffset":0,"componentType":5126,"count":1292,"max":[2.04704427719116,2.63227438926697,1.08405673503876],"min":[-2.04704427719116,0,-1],"type":"VEC3"},{"bufferView":2,"byteOffset":0,"componentType":5126,"count":1292,"type":"VEC3"},{"bufferView":3,"byteOffset":0,"componentType":5126,"count":1292,"type":"VEC2"}],"asset":{"generator":"FBX2glTF v0.13.1","version":"2.0"},"bufferViews":[{"buffer":0,"byteLength":4896,"byteOffset":0,"target":34963},{"buffer":0,"byteLength":15504,"byteOffset":4896,"target":34962},{"buffer":0,"byteLength":15504,"byteOffset":20400,"target":34962},{"buffer":0,"byteLength":10336,"byteOffset":35904,"target":34962}],"buffers":[{"byteLength":46240,"uri":"SM_shooting_range_01.bin"}],"images":[{"name":"Polygon_Camping_Texture_vol2.0","uri":"Polygon_Camping_Texture_vol2.0.jpg"}],"materials":[{"alphaMode":"OPAQUE","doubleSided":false,"extras":{"fromFBX":{"isTruePBR":false,"shadingModel":"Phong"}},"name":"Main_material","pbrMetallicRoughness":{"baseColorFactor":[1,1,1,1],"baseColorTexture":{"index":0,"texCoord":0},"metallicFactor":0.400000005960464,"roughnessFactor":0.272165536880493}}],"meshes":[{"name":"shooting_range_01","primitives":[{"attributes":{"NORMAL":2,"POSITION":1,"TEXCOORD_0":3},"indices":0,"material":0,"mode":4}]}],"nodes":[{"mesh":0,"name":"shooting_range_01","rotation":[0,0,0,1],"scale":[1,1,1],"translation":[95.4314422607422,0,100.864929199219]}],"samplers":[{}],"scene":0,"scenes":[{"name":"Root Scene","nodes":[0]}],"textures":[{"name":"base_color_texture","sampler":0,"source":0}]}