{"accessors":[{"bufferView":0,"byteOffset":0,"componentType":5123,"count":3600,"type":"SCALAR"},{"bufferView":1,"byteOffset":0,"componentType":5126,"count":2188,"max":[2.32470345497131,2.65167880058289,1.67528533935547],"min":[-1.67529678344727,-0.00240981578827,-2.32471466064453],"type":"VEC3"},{"bufferView":2,"byteOffset":0,"componentType":5126,"count":2188,"type":"VEC3"},{"bufferView":3,"byteOffset":0,"componentType":5126,"count":2188,"type":"VEC2"}],"asset":{"generator":"FBX2glTF v0.13.1","version":"2.0"},"bufferViews":[{"buffer":0,"byteLength":7200,"byteOffset":0,"target":34963},{"buffer":0,"byteLength":26256,"byteOffset":7200,"target":34962},{"buffer":0,"byteLength":26256,"byteOffset":33456,"target":34962},{"buffer":0,"byteLength":17504,"byteOffset":59712,"target":34962}],"buffers":[{"byteLength":77216,"uri":"SM_trampoline_01.bin"}],"images":[{"name":"Polygon_Camping_Texture_vol2.0","uri":"Polygon_Camping_Texture_vol2.0.jpg"}],"materials":[{"alphaMode":"OPAQUE","doubleSided":false,"extras":{"fromFBX":{"isTruePBR":false,"shadingModel":"Phong"}},"name":"Main_material","pbrMetallicRoughness":{"baseColorFactor":[1,1,1,1],"baseColorTexture":{"index":0,"texCoord":0},"metallicFactor":0.400000005960464,"roughnessFactor":0.272165536880493}}],"meshes":[{"name":"trampoline_01","primitives":[{"attributes":{"NORMAL":2,"POSITION":1,"TEXCOORD_0":3},"indices":0,"material":0,"mode":4}]}],"nodes":[{"mesh":0,"name":"trampoline_01","rotation":[0,0,0,1],"scale":[1,1,1],"translation":[44.6750755310059,0,85.1924591064453]}],"samplers":[{}],"scene":0,"scenes":[{"name":"Root Scene","nodes":[0]}],"textures":[{"name":"base_color_texture","sampler":0,"source":0}]}