{"accessors":[{"bufferView":0,"byteOffset":0,"componentType":5123,"count":984,"type":"SCALAR"},{"bufferView":1,"byteOffset":0,"componentType":5126,"count":592,"max":[3.40487933158875,0.0182809680700302,6.59511280059814],"min":[-6.59506750106812,-0.00000001490116,-3.4049654006958],"type":"VEC3"},{"bufferView":2,"byteOffset":0,"componentType":5126,"count":592,"type":"VEC3"},{"bufferView":3,"byteOffset":0,"componentType":5126,"count":592,"type":"VEC2"}],"asset":{"generator":"FBX2glTF v0.13.1","version":"2.0"},"bufferViews":[{"buffer":0,"byteLength":1968,"byteOffset":0,"target":34963},{"buffer":0,"byteLength":7104,"byteOffset":1968,"target":34962},{"buffer":0,"byteLength":7104,"byteOffset":9072,"target":34962},{"buffer":0,"byteLength":4736,"byteOffset":16176,"target":34962}],"buffers":[{"byteLength":20912,"uri":"SM_tromway_paths_05.bin"}],"images":[{"name":"Polygon_Camping_Texture_vol2.0","uri":"Polygon_Camping_Texture_vol2.0.jpg"}],"materials":[{"alphaMode":"OPAQUE","doubleSided":false,"extras":{"fromFBX":{"isTruePBR":false,"shadingModel":"Phong"}},"name":"Main_material","pbrMetallicRoughness":{"baseColorFactor":[1,1,1,1],"baseColorTexture":{"index":0,"texCoord":0},"metallicFactor":0.400000005960464,"roughnessFactor":0.272165536880493}}],"meshes":[{"name":"tromway_paths_05","primitives":[{"attributes":{"NORMAL":2,"POSITION":1,"TEXCOORD_0":3},"indices":0,"material":0,"mode":4}]}],"nodes":[{"mesh":0,"name":"tromway_paths_05","rotation":[0,0,0,1],"scale":[1,1,1],"translation":[94.3930053710938,0.0000000745058059692383,-42.4607353210449]}],"samplers":[{}],"scene":0,"scenes":[{"name":"Root Scene","nodes":[0]}],"textures":[{"name":"base_color_texture","sampler":0,"source":0}]}