{"accessors":[{"bufferView":0,"byteOffset":0,"componentType":5123,"count":1944,"type":"SCALAR"},{"bufferView":1,"byteOffset":0,"componentType":5126,"count":1162,"max":[10.0000171661377,0.0182809680700302,9.32697486877441],"min":[-10.0000104904175,-0.00000001490116,-0.67310357093811],"type":"VEC3"},{"bufferView":2,"byteOffset":0,"componentType":5126,"count":1162,"type":"VEC3"},{"bufferView":3,"byteOffset":0,"componentType":5126,"count":1162,"type":"VEC2"}],"asset":{"generator":"FBX2glTF v0.13.1","version":"2.0"},"bufferViews":[{"buffer":0,"byteLength":3888,"byteOffset":0,"target":34963},{"buffer":0,"byteLength":13944,"byteOffset":3888,"target":34962},{"buffer":0,"byteLength":13944,"byteOffset":17832,"target":34962},{"buffer":0,"byteLength":9296,"byteOffset":31776,"target":34962}],"buffers":[{"byteLength":41072,"uri":"SM_tromway_paths_06.bin"}],"images":[{"name":"Polygon_Camping_Texture_vol2.0","uri":"Polygon_Camping_Texture_vol2.0.jpg"}],"materials":[{"alphaMode":"OPAQUE","doubleSided":false,"extras":{"fromFBX":{"isTruePBR":false,"shadingModel":"Phong"}},"name":"Main_material","pbrMetallicRoughness":{"baseColorFactor":[1,1,1,1],"baseColorTexture":{"index":0,"texCoord":0},"metallicFactor":0.400000005960464,"roughnessFactor":0.272165536880493}}],"meshes":[{"name":"tromway_paths_06","primitives":[{"attributes":{"NORMAL":2,"POSITION":1,"TEXCOORD_0":3},"indices":0,"material":0,"mode":4}]}],"nodes":[{"mesh":0,"name":"tromway_paths_06","rotation":[0,0,0,1],"scale":[1,1,1],"translation":[89.359375,0.0000000745058059692383,-47.6216049194336]}],"samplers":[{}],"scene":0,"scenes":[{"name":"Root Scene","nodes":[0]}],"textures":[{"name":"base_color_texture","sampler":0,"source":0}]}