{"accessors":[{"bufferView":0,"byteOffset":0,"componentType":5123,"count":1656,"type":"SCALAR"},{"bufferView":1,"byteOffset":0,"componentType":5126,"count":1008,"max":[8,2.58844804763794,4],"min":[-8.0000057220459,-0.02499999850988,-2.00166273117065],"type":"VEC3"},{"bufferView":2,"byteOffset":0,"componentType":5126,"count":1008,"type":"VEC3"},{"bufferView":3,"byteOffset":0,"componentType":5126,"count":1008,"type":"VEC2"}],"asset":{"generator":"FBX2glTF v0.13.1","version":"2.0"},"bufferViews":[{"buffer":0,"byteLength":3312,"byteOffset":0,"target":34963},{"buffer":0,"byteLength":12096,"byteOffset":3312,"target":34962},{"buffer":0,"byteLength":12096,"byteOffset":15408,"target":34962},{"buffer":0,"byteLength":8064,"byteOffset":27504,"target":34962}],"buffers":[{"byteLength":35568,"uri":"SM_tribunes_01.bin"}],"images":[{"name":"Polygon_Camping_Texture_vol2.0","uri":"Polygon_Camping_Texture_vol2.0.jpg"}],"materials":[{"alphaMode":"OPAQUE","doubleSided":false,"extras":{"fromFBX":{"isTruePBR":false,"shadingModel":"Phong"}},"name":"Main_material","pbrMetallicRoughness":{"baseColorFactor":[1,1,1,1],"baseColorTexture":{"index":0,"texCoord":0},"metallicFactor":0.400000005960464,"roughnessFactor":0.272165536880493}}],"meshes":[{"name":"tribunes_01","primitives":[{"attributes":{"NORMAL":2,"POSITION":1,"TEXCOORD_0":3},"indices":0,"material":0,"mode":4}]}],"nodes":[{"mesh":0,"name":"tribunes_01","rotation":[0,0,0,1],"scale":[1,1,1],"translation":[161.362731933594,0.0499992370605469,20.3091621398926]}],"samplers":[{}],"scene":0,"scenes":[{"name":"Root Scene","nodes":[0]}],"textures":[{"name":"base_color_texture","sampler":0,"source":0}]}