{"accessors":[{"bufferView":0,"byteOffset":0,"componentType":5123,"count":678,"type":"SCALAR"},{"bufferView":1,"byteOffset":0,"componentType":5126,"count":444,"max":[0.0819656848907471,0.449508011341095,0.0819644033908844],"min":[-0.08196573704481,0.0000000023283064365387,-0.08196701109409],"type":"VEC3"},{"bufferView":2,"byteOffset":0,"componentType":5126,"count":444,"type":"VEC3"},{"bufferView":3,"byteOffset":0,"componentType":5126,"count":444,"type":"VEC2"}],"asset":{"generator":"FBX2glTF v0.13.1","version":"2.0"},"bufferViews":[{"buffer":0,"byteLength":1356,"byteOffset":0,"target":34963},{"buffer":0,"byteLength":5328,"byteOffset":1356,"target":34962},{"buffer":0,"byteLength":5328,"byteOffset":6684,"target":34962},{"buffer":0,"byteLength":3552,"byteOffset":12012,"target":34962}],"buffers":[{"byteLength":15564,"uri":"SM_traffic_cone_03.bin"}],"images":[{"name":"Polygon_Camping_Texture_vol2.0","uri":"Polygon_Camping_Texture_vol2.0.jpg"}],"materials":[{"alphaMode":"OPAQUE","doubleSided":false,"extras":{"fromFBX":{"isTruePBR":false,"shadingModel":"Phong"}},"name":"Main_material","pbrMetallicRoughness":{"baseColorFactor":[1,1,1,1],"baseColorTexture":{"index":0,"texCoord":0},"metallicFactor":0.400000005960464,"roughnessFactor":0.272165536880493}}],"meshes":[{"name":"traffic_cone_03","primitives":[{"attributes":{"NORMAL":2,"POSITION":1,"TEXCOORD_0":3},"indices":0,"material":0,"mode":4}]}],"nodes":[{"mesh":0,"name":"traffic_cone_03","rotation":[0,0,0,1],"scale":[1,1,1],"translation":[15.0218696594238,-0.01004499197006,86.312126159668]}],"samplers":[{}],"scene":0,"scenes":[{"name":"Root Scene","nodes":[0]}],"textures":[{"name":"base_color_texture","sampler":0,"source":0}]}