{"accessors":[{"bufferView":0,"byteOffset":0,"componentType":5123,"count":168,"type":"SCALAR"},{"bufferView":1,"byteOffset":0,"componentType":5126,"count":100,"max":[0.0999999940395355,0.345261424779892,0.0999999940395355],"min":[-0.09999999403954,0,-0.09999999403954],"type":"VEC3"},{"bufferView":2,"byteOffset":0,"componentType":5126,"count":100,"type":"VEC3"},{"bufferView":3,"byteOffset":0,"componentType":5126,"count":100,"type":"VEC2"}],"asset":{"generator":"FBX2glTF v0.13.1","version":"2.0"},"bufferViews":[{"buffer":0,"byteLength":336,"byteOffset":0,"target":34963},{"buffer":0,"byteLength":1200,"byteOffset":336,"target":34962},{"buffer":0,"byteLength":1200,"byteOffset":1536,"target":34962},{"buffer":0,"byteLength":800,"byteOffset":2736,"target":34962}],"buffers":[{"byteLength":3536,"uri":"SM_traffic_cone_06.bin"}],"images":[{"name":"Polygon_Camping_Texture_vol2.0","uri":"Polygon_Camping_Texture_vol2.0.jpg"}],"materials":[{"alphaMode":"OPAQUE","doubleSided":false,"extras":{"fromFBX":{"isTruePBR":false,"shadingModel":"Phong"}},"name":"Main_material.001","pbrMetallicRoughness":{"baseColorFactor":[1,1,1,1],"baseColorTexture":{"index":0,"texCoord":0},"metallicFactor":0.400000005960464,"roughnessFactor":0.272165536880493}}],"meshes":[{"name":"traffic_cone_03","primitives":[{"attributes":{"NORMAL":2,"POSITION":1,"TEXCOORD_0":3},"indices":0,"material":0,"mode":4}]}],"nodes":[{"mesh":0,"name":"traffic_cone_03","rotation":[0,0,0,1],"scale":[1,1,1],"translation":[15.4005584716797,-0.01499999966472,86.5423736572266]}],"samplers":[{}],"scene":0,"scenes":[{"name":"Root Scene","nodes":[0]}],"textures":[{"name":"base_color_texture","sampler":0,"source":0}]}