{"accessors":[{"bufferView":0,"byteOffset":0,"componentType":5123,"count":1050,"type":"SCALAR"},{"bufferView":1,"byteOffset":0,"componentType":5126,"count":656,"max":[0.961300253868103,1.78898596763611,0.68135541677475],"min":[-0.9613002538681,0.09601129591465,-0.8160006403923],"type":"VEC3"},{"bufferView":2,"byteOffset":0,"componentType":5126,"count":656,"type":"VEC3"},{"bufferView":3,"byteOffset":0,"componentType":5126,"count":656,"type":"VEC2"}],"asset":{"generator":"FBX2glTF v0.13.1","version":"2.0"},"bufferViews":[{"buffer":0,"byteLength":2100,"byteOffset":0,"target":34963},{"buffer":0,"byteLength":7872,"byteOffset":2100,"target":34962},{"buffer":0,"byteLength":7872,"byteOffset":9972,"target":34962},{"buffer":0,"byteLength":5248,"byteOffset":17844,"target":34962}],"buffers":[{"byteLength":23092,"uri":"SM_trash_can_01.bin"}],"images":[{"name":"Polygon_Camping_Texture_vol2.0","uri":"Polygon_Camping_Texture_vol2.0.jpg"}],"materials":[{"alphaMode":"OPAQUE","doubleSided":false,"extras":{"fromFBX":{"isTruePBR":false,"shadingModel":"Phong"}},"name":"Main_material","pbrMetallicRoughness":{"baseColorFactor":[1,1,1,1],"baseColorTexture":{"index":0,"texCoord":0},"metallicFactor":0.400000005960464,"roughnessFactor":0.272165536880493}}],"meshes":[{"name":"trash_can_01","primitives":[{"attributes":{"NORMAL":2,"POSITION":1,"TEXCOORD_0":3},"indices":0,"material":0,"mode":4}]}],"nodes":[{"mesh":0,"name":"trash_can_01","rotation":[0,0,0,1],"scale":[1,1,1],"translation":[15.6398820877075,-0.17156079411507,84.2941284179688]}],"samplers":[{}],"scene":0,"scenes":[{"name":"Root Scene","nodes":[0]}],"textures":[{"name":"base_color_texture","sampler":0,"source":0}]}