{"accessors":[{"bufferView":0,"byteOffset":0,"componentType":5123,"count":516,"type":"SCALAR"},{"bufferView":1,"byteOffset":0,"componentType":5126,"count":308,"max":[2.14843487739563,1.5,1.02872800827026],"min":[-1.46366190910339,0,-1.02872800827026],"type":"VEC3"},{"bufferView":2,"byteOffset":0,"componentType":5126,"count":308,"type":"VEC3"},{"bufferView":3,"byteOffset":0,"componentType":5126,"count":308,"type":"VEC2"}],"asset":{"generator":"FBX2glTF v0.13.1","version":"2.0"},"bufferViews":[{"buffer":0,"byteLength":1032,"byteOffset":0,"target":34963},{"buffer":0,"byteLength":3696,"byteOffset":1032,"target":34962},{"buffer":0,"byteLength":3696,"byteOffset":4728,"target":34962},{"buffer":0,"byteLength":2464,"byteOffset":8424,"target":34962}],"buffers":[{"byteLength":10888,"uri":"SM_trash_can_02.bin"}],"images":[{"name":"Polygon_Camping_Texture_vol2.0","uri":"Polygon_Camping_Texture_vol2.0.jpg"}],"materials":[{"alphaMode":"OPAQUE","doubleSided":false,"extras":{"fromFBX":{"isTruePBR":false,"shadingModel":"Phong"}},"name":"Main_material","pbrMetallicRoughness":{"baseColorFactor":[1,1,1,1],"baseColorTexture":{"index":0,"texCoord":0},"metallicFactor":0.400000005960464,"roughnessFactor":0.272165536880493}}],"meshes":[{"name":"trash_can_02","primitives":[{"attributes":{"NORMAL":2,"POSITION":1,"TEXCOORD_0":3},"indices":0,"material":0,"mode":4}]}],"nodes":[{"mesh":0,"name":"trash_can_02","rotation":[0,0,0,1],"scale":[1,1,1],"translation":[18.3357753753662,0,84.6058197021484]}],"samplers":[{}],"scene":0,"scenes":[{"name":"Root Scene","nodes":[0]}],"textures":[{"name":"base_color_texture","sampler":0,"source":0}]}