{"accessors":[{"bufferView":0,"byteOffset":0,"componentType":5123,"count":552,"type":"SCALAR"},{"bufferView":1,"byteOffset":0,"componentType":5126,"count":340,"max":[1.38309121131897,0.0182840954512358,4.37924146652222],"min":[-2.61797380447388,-0.00000001490116,-3.62206602096558],"type":"VEC3"},{"bufferView":2,"byteOffset":0,"componentType":5126,"count":340,"type":"VEC3"},{"bufferView":3,"byteOffset":0,"componentType":5126,"count":340,"type":"VEC2"}],"asset":{"generator":"FBX2glTF v0.13.1","version":"2.0"},"bufferViews":[{"buffer":0,"byteLength":1104,"byteOffset":0,"target":34963},{"buffer":0,"byteLength":4080,"byteOffset":1104,"target":34962},{"buffer":0,"byteLength":4080,"byteOffset":5184,"target":34962},{"buffer":0,"byteLength":2720,"byteOffset":9264,"target":34962}],"buffers":[{"byteLength":11984,"uri":"SM_tromway_paths_04.bin"}],"images":[{"name":"Polygon_Camping_Texture_vol2.0","uri":"Polygon_Camping_Texture_vol2.0.jpg"}],"materials":[{"alphaMode":"OPAQUE","doubleSided":false,"extras":{"fromFBX":{"isTruePBR":false,"shadingModel":"Phong"}},"name":"Main_material","pbrMetallicRoughness":{"baseColorFactor":[1,1,1,1],"baseColorTexture":{"index":0,"texCoord":0},"metallicFactor":0.400000005960464,"roughnessFactor":0.272165536880493}}],"meshes":[{"name":"tromway_paths_04","primitives":[{"attributes":{"NORMAL":2,"POSITION":1,"TEXCOORD_0":3},"indices":0,"material":0,"mode":4}]}],"nodes":[{"mesh":0,"name":"tromway_paths_04","rotation":[0,0,0,1],"scale":[1,1,1],"translation":[91.78466796875,0.0000000745058059692383,-39.4348640441895]}],"samplers":[{}],"scene":0,"scenes":[{"name":"Root Scene","nodes":[0]}],"textures":[{"name":"base_color_texture","sampler":0,"source":0}]}