{"accessors":[{"bufferView":0,"byteOffset":0,"componentType":5123,"count":366,"type":"SCALAR"},{"bufferView":1,"byteOffset":0,"componentType":5126,"count":220,"max":[0.0984612032771111,0.784551084041595,0.0984598994255066],"min":[-0.09846030920744,-0.00619608862326,-0.09846162796021],"type":"VEC3"},{"bufferView":2,"byteOffset":0,"componentType":5126,"count":220,"type":"VEC3"},{"bufferView":3,"byteOffset":0,"componentType":5126,"count":220,"type":"VEC2"}],"asset":{"generator":"FBX2glTF v0.13.1","version":"2.0"},"bufferViews":[{"buffer":0,"byteLength":732,"byteOffset":0,"target":34963},{"buffer":0,"byteLength":2640,"byteOffset":732,"target":34962},{"buffer":0,"byteLength":2640,"byteOffset":3372,"target":34962},{"buffer":0,"byteLength":1760,"byteOffset":6012,"target":34962}],"buffers":[{"byteLength":7772,"uri":"SM_traffic_cone_05.bin"}],"images":[{"name":"Polygon_Camping_Texture_vol2.0","uri":"Polygon_Camping_Texture_vol2.0.jpg"}],"materials":[{"alphaMode":"OPAQUE","doubleSided":false,"extras":{"fromFBX":{"isTruePBR":false,"shadingModel":"Phong"}},"name":"Main_material","pbrMetallicRoughness":{"baseColorFactor":[1,1,1,1],"baseColorTexture":{"index":0,"texCoord":0},"metallicFactor":0.400000005960464,"roughnessFactor":0.272165536880493}}],"meshes":[{"name":"traffic_cone_05","primitives":[{"attributes":{"NORMAL":2,"POSITION":1,"TEXCOORD_0":3},"indices":0,"material":0,"mode":4}]}],"nodes":[{"mesh":0,"name":"traffic_cone_05","rotation":[0,0,0,1],"scale":[1,1,1],"translation":[15.5537347793579,0,86.3070755004883]}],"samplers":[{}],"scene":0,"scenes":[{"name":"Root Scene","nodes":[0]}],"textures":[{"name":"base_color_texture","sampler":0,"source":0}]}