{"accessors":[{"bufferView":0,"byteOffset":0,"componentType":5123,"count":708,"type":"SCALAR"},{"bufferView":1,"byteOffset":0,"componentType":5126,"count":424,"max":[0.673146188259125,0.0182809680700302,3.91999983787537],"min":[-3.32971549034119,-0.00000001500803,-4.08420467376709],"type":"VEC3"},{"bufferView":2,"byteOffset":0,"componentType":5126,"count":424,"type":"VEC3"},{"bufferView":3,"byteOffset":0,"componentType":5126,"count":424,"type":"VEC2"}],"asset":{"generator":"FBX2glTF v0.13.1","version":"2.0"},"bufferViews":[{"buffer":0,"byteLength":1416,"byteOffset":0,"target":34963},{"buffer":0,"byteLength":5088,"byteOffset":1416,"target":34962},{"buffer":0,"byteLength":5088,"byteOffset":6504,"target":34962},{"buffer":0,"byteLength":3392,"byteOffset":11592,"target":34962}],"buffers":[{"byteLength":14984,"uri":"SM_tromway_paths_03.bin"}],"images":[{"name":"Polygon_Camping_Texture_vol2.0","uri":"Polygon_Camping_Texture_vol2.0.jpg"}],"materials":[{"alphaMode":"OPAQUE","doubleSided":false,"extras":{"fromFBX":{"isTruePBR":false,"shadingModel":"Phong"}},"name":"Main_material","pbrMetallicRoughness":{"baseColorFactor":[1,1,1,1],"baseColorTexture":{"index":0,"texCoord":0},"metallicFactor":0.400000005960464,"roughnessFactor":0.272165536880493}}],"meshes":[{"name":"tromway_paths_03","primitives":[{"attributes":{"NORMAL":2,"POSITION":1,"TEXCOORD_0":3},"indices":0,"material":0,"mode":4}]}],"nodes":[{"mesh":0,"name":"tromway_paths_03","rotation":[0,0,0,1],"scale":[1,1,1],"translation":[87.597412109375,0.0000000745058059692383,-40.0688743591309]}],"samplers":[{}],"scene":0,"scenes":[{"name":"Root Scene","nodes":[0]}],"textures":[{"name":"base_color_texture","sampler":0,"source":0}]}