{"accessors":[{"bufferView":0,"byteOffset":0,"componentType":5123,"count":324,"type":"SCALAR"},{"bufferView":1,"byteOffset":0,"componentType":5126,"count":142,"max":[16,0,3],"min":[-16,-0.09999999403954,-3],"type":"VEC3"},{"bufferView":2,"byteOffset":0,"componentType":5126,"count":142,"type":"VEC3"},{"bufferView":3,"byteOffset":0,"componentType":5126,"count":142,"type":"VEC2"}],"asset":{"generator":"FBX2glTF v0.13.1","version":"2.0"},"bufferViews":[{"buffer":0,"byteLength":648,"byteOffset":0,"target":34963},{"buffer":0,"byteLength":1704,"byteOffset":648,"target":34962},{"buffer":0,"byteLength":1704,"byteOffset":2352,"target":34962},{"buffer":0,"byteLength":1136,"byteOffset":4056,"target":34962}],"buffers":[{"byteLength":5192,"uri":"SM_Treadmill_02.bin"}],"images":[{"name":"Polygon_Camping_Texture_vol2.0","uri":"Polygon_Camping_Texture_vol2.0.jpg"}],"materials":[{"alphaMode":"OPAQUE","doubleSided":false,"extras":{"fromFBX":{"isTruePBR":false,"shadingModel":"Phong"}},"name":"Main_material","pbrMetallicRoughness":{"baseColorFactor":[1,1,1,1],"baseColorTexture":{"index":0,"texCoord":0},"metallicFactor":0.400000005960464,"roughnessFactor":0.272165536880493}}],"meshes":[{"name":"Treadmill_02","primitives":[{"attributes":{"NORMAL":2,"POSITION":1,"TEXCOORD_0":3},"indices":0,"material":0,"mode":4}]}],"nodes":[{"mesh":0,"name":"Treadmill_02","rotation":[0,0,0,1],"scale":[1,1,1],"translation":[63.1595878601074,0,99.8246154785156]}],"samplers":[{}],"scene":0,"scenes":[{"name":"Root Scene","nodes":[0]}],"textures":[{"name":"base_color_texture","sampler":0,"source":0}]}