{"accessors":[{"bufferView":0,"byteOffset":0,"componentType":5123,"count":1140,"type":"SCALAR"},{"bufferView":1,"byteOffset":0,"componentType":5126,"count":712,"max":[3.99996328353882,0.0183015894144773,3.66178631782532],"min":[-3.99933767318726,0,-4.34129333496094],"type":"VEC3"},{"bufferView":2,"byteOffset":0,"componentType":5126,"count":712,"type":"VEC3"},{"bufferView":3,"byteOffset":0,"componentType":5126,"count":712,"type":"VEC2"}],"asset":{"generator":"FBX2glTF v0.13.1","version":"2.0"},"bufferViews":[{"buffer":0,"byteLength":2280,"byteOffset":0,"target":34963},{"buffer":0,"byteLength":8544,"byteOffset":2280,"target":34962},{"buffer":0,"byteLength":8544,"byteOffset":10824,"target":34962},{"buffer":0,"byteLength":5696,"byteOffset":19368,"target":34962}],"buffers":[{"byteLength":25064,"uri":"SM_tromway_paths_02.bin"}],"images":[{"name":"Polygon_Camping_Texture_vol2.0","uri":"Polygon_Camping_Texture_vol2.0.jpg"}],"materials":[{"alphaMode":"OPAQUE","doubleSided":false,"extras":{"fromFBX":{"isTruePBR":false,"shadingModel":"Phong"}},"name":"Main_material","pbrMetallicRoughness":{"baseColorFactor":[1,1,1,1],"baseColorTexture":{"index":0,"texCoord":0},"metallicFactor":0.400000005960464,"roughnessFactor":0.272165536880493}}],"meshes":[{"name":"tromway_paths_02","primitives":[{"attributes":{"NORMAL":2,"POSITION":1,"TEXCOORD_0":3},"indices":0,"material":0,"mode":4}]}],"nodes":[{"mesh":0,"name":"tromway_paths_02","rotation":[0,0,0,1],"scale":[1,1,1],"translation":[87.4538269042969,0.0000000596046447753906,-33.1289329528809]}],"samplers":[{}],"scene":0,"scenes":[{"name":"Root Scene","nodes":[0]}],"textures":[{"name":"base_color_texture","sampler":0,"source":0}]}