{"accessors":[{"bufferView":0,"byteOffset":0,"componentType":5123,"count":2100,"type":"SCALAR"},{"bufferView":1,"byteOffset":0,"componentType":5126,"count":1072,"max":[3.82953715324402,1.35241723060608,0.714999973773956],"min":[-3.05848407745361,0,-0.71499997377396],"type":"VEC3"},{"bufferView":2,"byteOffset":0,"componentType":5126,"count":1072,"type":"VEC3"},{"bufferView":3,"byteOffset":0,"componentType":5126,"count":1072,"type":"VEC2"}],"asset":{"generator":"FBX2glTF v0.13.1","version":"2.0"},"bufferViews":[{"buffer":0,"byteLength":4200,"byteOffset":0,"target":34963},{"buffer":0,"byteLength":12864,"byteOffset":4200,"target":34962},{"buffer":0,"byteLength":12864,"byteOffset":17064,"target":34962},{"buffer":0,"byteLength":8576,"byteOffset":29928,"target":34962}],"buffers":[{"byteLength":38504,"uri":"SM_trailer_01.bin"}],"images":[{"name":"Polygon_Camping_Texture_vol2.0","uri":"Polygon_Camping_Texture_vol2.0.jpg"}],"materials":[{"alphaMode":"OPAQUE","doubleSided":false,"extras":{"fromFBX":{"isTruePBR":false,"shadingModel":"Phong"}},"name":"Main_material","pbrMetallicRoughness":{"baseColorFactor":[1,1,1,1],"baseColorTexture":{"index":0,"texCoord":0},"metallicFactor":0.400000005960464,"roughnessFactor":0.272165536880493}}],"meshes":[{"name":"trailer_01","primitives":[{"attributes":{"NORMAL":2,"POSITION":1,"TEXCOORD_0":3},"indices":0,"material":0,"mode":4}]}],"nodes":[{"mesh":0,"name":"trailer_01","rotation":[0,0,0,1],"scale":[1,1,1],"translation":[138.324523925781,0,94.0085906982422]}],"samplers":[{}],"scene":0,"scenes":[{"name":"Root Scene","nodes":[0]}],"textures":[{"name":"base_color_texture","sampler":0,"source":0}]}