{"accessors":[{"bufferView":0,"byteOffset":0,"componentType":5123,"count":606,"type":"SCALAR"},{"bufferView":1,"byteOffset":0,"componentType":5126,"count":376,"max":[0.154185831546783,4.5,0.154185831546783],"min":[-0.15418583154678,0,-0.15418583154678],"type":"VEC3"},{"bufferView":2,"byteOffset":0,"componentType":5126,"count":376,"type":"VEC3"},{"bufferView":3,"byteOffset":0,"componentType":5126,"count":376,"type":"VEC2"},{"bufferView":4,"byteOffset":0,"componentType":5123,"count":384,"type":"SCALAR"},{"bufferView":5,"byteOffset":0,"componentType":5126,"count":240,"max":[0.0708980113267899,0.166666254401207,2.72623109817505],"min":[-0.07089754939079,-0.16666741669178,-0.07089412212372],"type":"VEC3"},{"bufferView":6,"byteOffset":0,"componentType":5126,"count":240,"type":"VEC3"},{"bufferView":7,"byteOffset":0,"componentType":5126,"count":240,"type":"VEC2"},{"bufferView":8,"byteOffset":0,"componentType":5123,"count":960,"type":"SCALAR"},{"bufferView":9,"byteOffset":0,"componentType":5126,"count":586,"max":[0.0277442429214716,0.112732626497746,0.379499763250351],"min":[-0.10448624193668,-0.11273262649775,-0.37949365377426],"type":"VEC3"},{"bufferView":10,"byteOffset":0,"componentType":5126,"count":586,"type":"VEC3"},{"bufferView":11,"byteOffset":0,"componentType":5126,"count":586,"type":"VEC2"},{"bufferView":12,"byteOffset":0,"componentType":5123,"count":1404,"type":"SCALAR"},{"bufferView":13,"byteOffset":0,"componentType":5126,"count":870,"max":[0.10950979590416,0.434046864509583,0.12046517431736],"min":[-0.4739955663681,-0.43404760956764,-0.12045574933291],"type":"VEC3"},{"bufferView":14,"byteOffset":0,"componentType":5126,"count":870,"type":"VEC3"},{"bufferView":15,"byteOffset":0,"componentType":5126,"count":870,"type":"VEC2"}],"asset":{"generator":"FBX2glTF v0.13.1","version":"2.0"},"bufferViews":[{"buffer":0,"byteLength":1212,"byteOffset":0,"target":34963},{"buffer":0,"byteLength":4512,"byteOffset":1212,"target":34962},{"buffer":0,"byteLength":4512,"byteOffset":5724,"target":34962},{"buffer":0,"byteLength":3008,"byteOffset":10236,"target":34962},{"buffer":0,"byteLength":768,"byteOffset":13244,"target":34963},{"buffer":0,"byteLength":2880,"byteOffset":14012,"target":34962},{"buffer":0,"byteLength":2880,"byteOffset":16892,"target":34962},{"buffer":0,"byteLength":1920,"byteOffset":19772,"target":34962},{"buffer":0,"byteLength":1920,"byteOffset":21692,"target":34963},{"buffer":0,"byteLength":7032,"byteOffset":23612,"target":34962},{"buffer":0,"byteLength":7032,"byteOffset":30644,"target":34962},{"buffer":0,"byteLength":4688,"byteOffset":37676,"target":34962},{"buffer":0,"byteLength":2808,"byteOffset":42364,"target":34963},{"buffer":0,"byteLength":10440,"byteOffset":45172,"target":34962},{"buffer":0,"byteLength":10440,"byteOffset":55612,"target":34962},{"buffer":0,"byteLength":6960,"byteOffset":66052,"target":34962}],"buffers":[{"byteLength":73012,"uri":"SM_traffic_light_01.bin"}],"images":[{"name":"Polygon_Camping_Texture_vol2.0","uri":"Polygon_Camping_Texture_vol2.0.jpg"}],"materials":[{"alphaMode":"OPAQUE","doubleSided":false,"extras":{"fromFBX":{"isTruePBR":false,"shadingModel":"Phong"}},"name":"Main_material","pbrMetallicRoughness":{"baseColorFactor":[1,1,1,1],"baseColorTexture":{"index":0,"texCoord":0},"metallicFactor":0.400000005960464,"roughnessFactor":0.272165536880493}}],"meshes":[{"name":"traffic_light_01","primitives":[{"attributes":{"NORMAL":2,"POSITION":1,"TEXCOORD_0":3},"indices":0,"material":0,"mode":4}]},{"name":"traffic_light_B","primitives":[{"attributes":{"NORMAL":6,"POSITION":5,"TEXCOORD_0":7},"indices":4,"material":0,"mode":4}]},{"name":"traffic_light_C","primitives":[{"attributes":{"NORMAL":10,"POSITION":9,"TEXCOORD_0":11},"indices":8,"material":0,"mode":4}]},{"name":"traffic_light_A","primitives":[{"attributes":{"NORMAL":14,"POSITION":13,"TEXCOORD_0":15},"indices":12,"material":0,"mode":4}]}],"nodes":[{"children":[1,3],"mesh":0,"name":"traffic_light_01","rotation":[0,0,0,1],"scale":[1,1,1],"translation":[28.222957611084,0,84.5121307373047]},{"children":[2],"mesh":1,"name":"traffic_light_B","rotation":[0,0,0,1],"scale":[1,1,1],"translation":[0,4.00000095367432,0]},{"mesh":2,"name":"traffic_light_C","rotation":[0.707106828689575,0,0,0.707106709480286],"scale":[0.00999999977648258,0.00999999977648258,0.00999999977648258],"translation":[0.0000719833333278075,-4.01469945907593,0.0399999916553497]},{"mesh":3,"name":"traffic_light_A","rotation":[0,0,0,1],"scale":[1,1,1],"translation":[0.0109521485865116,2.455406665802,0]}],"samplers":[{}],"scene":0,"scenes":[{"name":"Root Scene","nodes":[0]}],"textures":[{"name":"base_color_texture","sampler":0,"source":0}]}