{"accessors":[{"bufferView":0,"byteOffset":0,"componentType":5123,"count":708,"type":"SCALAR"},{"bufferView":1,"byteOffset":0,"componentType":5126,"count":372,"max":[1,0.5,2],"min":[-1,-1.34037041664124,-2],"type":"VEC3"},{"bufferView":2,"byteOffset":0,"componentType":5126,"count":372,"type":"VEC3"},{"bufferView":3,"byteOffset":0,"componentType":5126,"count":372,"type":"VEC2"}],"asset":{"generator":"FBX2glTF v0.13.1","version":"2.0"},"bufferViews":[{"buffer":0,"byteLength":1416,"byteOffset":0,"target":34963},{"buffer":0,"byteLength":4464,"byteOffset":1416,"target":34962},{"buffer":0,"byteLength":4464,"byteOffset":5880,"target":34962},{"buffer":0,"byteLength":2976,"byteOffset":10344,"target":34962}],"buffers":[{"byteLength":13320,"uri":"SM_underground_pass_01.bin"}],"images":[{"name":"Polygon_Camping_Texture_vol2.0","uri":"Polygon_Camping_Texture_vol2.0.jpg"}],"materials":[{"alphaMode":"OPAQUE","doubleSided":false,"extras":{"fromFBX":{"isTruePBR":false,"shadingModel":"Phong"}},"name":"Main_material","pbrMetallicRoughness":{"baseColorFactor":[1,1,1,1],"baseColorTexture":{"index":0,"texCoord":0},"metallicFactor":0.400000005960464,"roughnessFactor":0.272165536880493}}],"meshes":[{"name":"underground_pass_01","primitives":[{"attributes":{"NORMAL":2,"POSITION":1,"TEXCOORD_0":3},"indices":0,"material":0,"mode":4}]}],"nodes":[{"mesh":0,"name":"underground_pass_01","rotation":[0,0,0,1],"scale":[1,1,1],"translation":[7.76466226577759,0,91.7852783203125]}],"samplers":[{}],"scene":0,"scenes":[{"name":"Root Scene","nodes":[0]}],"textures":[{"name":"base_color_texture","sampler":0,"source":0}]}