{"accessors":[{"bufferView":0,"byteOffset":0,"componentType":5123,"count":3474,"type":"SCALAR"},{"bufferView":1,"byteOffset":0,"componentType":5126,"count":1732,"max":[8,2.52999997138977,4],"min":[-8,0,-4],"type":"VEC3"},{"bufferView":2,"byteOffset":0,"componentType":5126,"count":1732,"type":"VEC3"},{"bufferView":3,"byteOffset":0,"componentType":5126,"count":1732,"type":"VEC2"}],"asset":{"generator":"FBX2glTF v0.13.1","version":"2.0"},"bufferViews":[{"buffer":0,"byteLength":6948,"byteOffset":0,"target":34963},{"buffer":0,"byteLength":20784,"byteOffset":6948,"target":34962},{"buffer":0,"byteLength":20784,"byteOffset":27732,"target":34962},{"buffer":0,"byteLength":13856,"byteOffset":48516,"target":34962}],"buffers":[{"byteLength":62372,"uri":"SM_Volleyball_Court_01.bin"}],"images":[{"name":"Polygon_Camping_Texture_vol2.0","uri":"Polygon_Camping_Texture_vol2.0.jpg"}],"materials":[{"alphaMode":"OPAQUE","doubleSided":false,"extras":{"fromFBX":{"isTruePBR":false,"shadingModel":"Phong"}},"name":"Main_material","pbrMetallicRoughness":{"baseColorFactor":[1,1,1,1],"baseColorTexture":{"index":0,"texCoord":0},"metallicFactor":0.400000005960464,"roughnessFactor":0.272165536880493}}],"meshes":[{"name":"Volleyball_Court_01","primitives":[{"attributes":{"NORMAL":2,"POSITION":1,"TEXCOORD_0":3},"indices":0,"material":0,"mode":4}]}],"nodes":[{"mesh":0,"name":"Volleyball_Court_01","rotation":[0,0,0,1],"scale":[1,1,1],"translation":[38.1998291015625,0,21.8701114654541]}],"samplers":[{}],"scene":0,"scenes":[{"name":"Root Scene","nodes":[0]}],"textures":[{"name":"base_color_texture","sampler":0,"source":0}]}