{"accessors":[{"bufferView":0,"byteOffset":0,"componentType":5123,"count":1131,"type":"SCALAR"},{"bufferView":1,"byteOffset":0,"componentType":5126,"count":620,"max":[0.44318962097168,2,0.415153414011002],"min":[-0.55681037902832,0,-0.64611119031906],"type":"VEC3"},{"bufferView":2,"byteOffset":0,"componentType":5126,"count":620,"type":"VEC3"},{"bufferView":3,"byteOffset":0,"componentType":5126,"count":620,"type":"VEC2"}],"asset":{"generator":"FBX2glTF v0.13.1","version":"2.0"},"bufferViews":[{"buffer":0,"byteLength":2262,"byteOffset":0,"target":34963},{"buffer":0,"byteLength":7440,"byteOffset":2264,"target":34962},{"buffer":0,"byteLength":7440,"byteOffset":9704,"target":34962},{"buffer":0,"byteLength":4960,"byteOffset":17144,"target":34962}],"buffers":[{"byteLength":22104,"uri":"SM_vending_machine.bin"}],"images":[{"name":"Polygon_Camping_Texture_vol2.0","uri":"Polygon_Camping_Texture_vol2.0.jpg"}],"materials":[{"alphaMode":"OPAQUE","doubleSided":false,"extras":{"fromFBX":{"isTruePBR":false,"shadingModel":"Phong"}},"name":"Main_material","pbrMetallicRoughness":{"baseColorFactor":[1,1,1,1],"baseColorTexture":{"index":0,"texCoord":0},"metallicFactor":0.400000005960464,"roughnessFactor":0.272165536880493}}],"meshes":[{"name":"vending_machine","primitives":[{"attributes":{"NORMAL":2,"POSITION":1,"TEXCOORD_0":3},"indices":0,"material":0,"mode":4}]}],"nodes":[{"mesh":0,"name":"vending_machine","rotation":[0,0,0,1],"scale":[1,1,1],"translation":[31.1219215393066,0,81.5226593017578]}],"samplers":[{}],"scene":0,"scenes":[{"name":"Root Scene","nodes":[0]}],"textures":[{"name":"base_color_texture","sampler":0,"source":0}]}