{"accessors":[{"bufferView":0,"byteOffset":0,"componentType":5123,"count":2400,"type":"SCALAR"},{"bufferView":1,"byteOffset":0,"componentType":5126,"count":1929,"max":[3.99999141693115,0.0457780063152313,4],"min":[-4.00000858306885,-0.05222198367119,-4],"type":"VEC3"},{"bufferView":2,"byteOffset":0,"componentType":5126,"count":1929,"type":"VEC3"},{"bufferView":3,"byteOffset":0,"componentType":5126,"count":1929,"type":"VEC2"}],"asset":{"generator":"FBX2glTF v0.13.1","version":"2.0"},"bufferViews":[{"buffer":0,"byteLength":4800,"byteOffset":0,"target":34963},{"buffer":0,"byteLength":23148,"byteOffset":4800,"target":34962},{"buffer":0,"byteLength":23148,"byteOffset":27948,"target":34962},{"buffer":0,"byteLength":15432,"byteOffset":51096,"target":34962}],"buffers":[{"byteLength":66528,"uri":"SM_water_03.bin"}],"images":[{"name":"Polygon_Camping_Texture_vol2.0","uri":"Polygon_Camping_Texture_vol2.0.jpg"}],"materials":[{"alphaMode":"OPAQUE","doubleSided":false,"extras":{"fromFBX":{"isTruePBR":false,"shadingModel":"Phong"}},"name":"Main_material","pbrMetallicRoughness":{"baseColorFactor":[1,1,1,1],"baseColorTexture":{"index":0,"texCoord":0},"metallicFactor":0.400000005960464,"roughnessFactor":0.272165536880493}}],"meshes":[{"name":"water_03","primitives":[{"attributes":{"NORMAL":2,"POSITION":1,"TEXCOORD_0":3},"indices":0,"material":0,"mode":4}]}],"nodes":[{"mesh":0,"name":"water_03","rotation":[0,0,0,1],"scale":[1,1,1],"translation":[19.8738250732422,0,43.9284057617188]}],"samplers":[{}],"scene":0,"scenes":[{"name":"Root Scene","nodes":[0]}],"textures":[{"name":"base_color_texture","sampler":0,"source":0}]}