{"accessors":[{"bufferView":0,"byteOffset":0,"componentType":5123,"count":120,"type":"SCALAR"},{"bufferView":1,"byteOffset":0,"componentType":5126,"count":66,"max":[3.99999618530273,4,4.00000333786011],"min":[-4.00000333786011,-0.00000011920929,-3.99999809265137],"type":"VEC3"},{"bufferView":2,"byteOffset":0,"componentType":5126,"count":66,"type":"VEC3"},{"bufferView":3,"byteOffset":0,"componentType":5126,"count":66,"type":"VEC2"},{"bufferView":4,"byteOffset":0,"componentType":5123,"count":294,"type":"SCALAR"},{"bufferView":5,"byteOffset":0,"componentType":5126,"count":250,"max":[3.99999403953552,0.174999430775642,4.00000333786011],"min":[-3.38972949981689,0,-3.38972568511963],"type":"VEC3"},{"bufferView":6,"byteOffset":0,"componentType":5126,"count":250,"type":"VEC3"},{"bufferView":7,"byteOffset":0,"componentType":5126,"count":250,"type":"VEC2"}],"asset":{"generator":"FBX2glTF v0.13.1","version":"2.0"},"bufferViews":[{"buffer":0,"byteLength":240,"byteOffset":0,"target":34963},{"buffer":0,"byteLength":792,"byteOffset":240,"target":34962},{"buffer":0,"byteLength":792,"byteOffset":1032,"target":34962},{"buffer":0,"byteLength":528,"byteOffset":1824,"target":34962},{"buffer":0,"byteLength":588,"byteOffset":2352,"target":34963},{"buffer":0,"byteLength":3000,"byteOffset":2940,"target":34962},{"buffer":0,"byteLength":3000,"byteOffset":5940,"target":34962},{"buffer":0,"byteLength":2000,"byteOffset":8940,"target":34962}],"buffers":[{"byteLength":10940,"uri":"SM_water_channels_03.bin"}],"images":[{"name":"Polygon_Texture_vol2","uri":"Polygon_Texture_vol2.png"}],"materials":[{"alphaMode":"OPAQUE","doubleSided":false,"extras":{"fromFBX":{"isTruePBR":false,"shadingModel":"Phong"}},"name":"Main_material","pbrMetallicRoughness":{"baseColorFactor":[1,1,1,1],"baseColorTexture":{"index":0,"texCoord":0},"metallicFactor":0.400000005960464,"roughnessFactor":0.272165536880493}},{"alphaMode":"OPAQUE","doubleSided":false,"extras":{"fromFBX":{"isTruePBR":false,"shadingModel":"Phong"}},"name":"Material","pbrMetallicRoughness":{"baseColorFactor":[0.800000011920929,0.800000011920929,0.800000011920929,1],"metallicFactor":0.400000005960464,"roughnessFactor":0.272165536880493}}],"meshes":[{"name":"water_channels_03","primitives":[{"attributes":{"NORMAL":2,"POSITION":1,"TEXCOORD_0":3},"indices":0,"material":0,"mode":4},{"attributes":{"NORMAL":6,"POSITION":5,"TEXCOORD_0":7},"indices":4,"material":1,"mode":4}]}],"nodes":[{"mesh":0,"name":"water_channels_03","rotation":[0,0,0,1],"scale":[1,1,1],"translation":[39.4727172851562,0.000000119209289550781,43.2813873291016]}],"samplers":[{}],"scene":0,"scenes":[{"name":"Root Scene","nodes":[0]}],"textures":[{"name":"base_color_texture","sampler":0,"source":0}]}