{"accessors":[{"bufferView":0,"byteOffset":0,"componentType":5123,"count":93,"type":"SCALAR"},{"bufferView":1,"byteOffset":0,"componentType":5126,"count":49,"max":[4,4,4],"min":[-4,0,-4],"type":"VEC3"},{"bufferView":2,"byteOffset":0,"componentType":5126,"count":49,"type":"VEC3"},{"bufferView":3,"byteOffset":0,"componentType":5126,"count":49,"type":"VEC2"},{"bufferView":4,"byteOffset":0,"componentType":5123,"count":537,"type":"SCALAR"},{"bufferView":5,"byteOffset":0,"componentType":5126,"count":413,"max":[3.38972759246826,4,4],"min":[-3.38972187042236,0,-4],"type":"VEC3"},{"bufferView":6,"byteOffset":0,"componentType":5126,"count":413,"type":"VEC3"},{"bufferView":7,"byteOffset":0,"componentType":5126,"count":413,"type":"VEC2"}],"asset":{"generator":"FBX2glTF v0.13.1","version":"2.0"},"bufferViews":[{"buffer":0,"byteLength":186,"byteOffset":0,"target":34963},{"buffer":0,"byteLength":588,"byteOffset":188,"target":34962},{"buffer":0,"byteLength":588,"byteOffset":776,"target":34962},{"buffer":0,"byteLength":392,"byteOffset":1364,"target":34962},{"buffer":0,"byteLength":1074,"byteOffset":1756,"target":34963},{"buffer":0,"byteLength":4956,"byteOffset":2832,"target":34962},{"buffer":0,"byteLength":4956,"byteOffset":7788,"target":34962},{"buffer":0,"byteLength":3304,"byteOffset":12744,"target":34962}],"buffers":[{"byteLength":16048,"uri":"SM_water_channels_04.bin"}],"images":[{"name":"Polygon_Texture_vol2","uri":"Polygon_Texture_vol2.png"}],"materials":[{"alphaMode":"OPAQUE","doubleSided":false,"extras":{"fromFBX":{"isTruePBR":false,"shadingModel":"Phong"}},"name":"Main_material","pbrMetallicRoughness":{"baseColorFactor":[1,1,1,1],"baseColorTexture":{"index":0,"texCoord":0},"metallicFactor":0.400000005960464,"roughnessFactor":0.272165536880493}},{"alphaMode":"OPAQUE","doubleSided":false,"extras":{"fromFBX":{"isTruePBR":false,"shadingModel":"Phong"}},"name":"Material","pbrMetallicRoughness":{"baseColorFactor":[0.800000011920929,0.800000011920929,0.800000011920929,1],"metallicFactor":0.400000005960464,"roughnessFactor":0.272165536880493}}],"meshes":[{"name":"water_channels_04","primitives":[{"attributes":{"NORMAL":2,"POSITION":1,"TEXCOORD_0":3},"indices":0,"material":0,"mode":4},{"attributes":{"NORMAL":6,"POSITION":5,"TEXCOORD_0":7},"indices":4,"material":1,"mode":4}]}],"nodes":[{"mesh":0,"name":"water_channels_04","rotation":[0,0,0,1],"scale":[1,1,1],"translation":[48.7934646606445,0,43.2813873291016]}],"samplers":[{}],"scene":0,"scenes":[{"name":"Root Scene","nodes":[0]}],"textures":[{"name":"base_color_texture","sampler":0,"source":0}]}