{"accessors":[{"bufferView":0,"byteOffset":0,"componentType":5123,"count":150,"type":"SCALAR"},{"bufferView":1,"byteOffset":0,"componentType":5126,"count":117,"max":[0.999999821186066,0.0381111092865467,1],"min":[-1.00000011920929,-0.05988888442516,-1],"type":"VEC3"},{"bufferView":2,"byteOffset":0,"componentType":5126,"count":117,"type":"VEC3"},{"bufferView":3,"byteOffset":0,"componentType":5126,"count":117,"type":"VEC2"}],"asset":{"generator":"FBX2glTF v0.13.1","version":"2.0"},"bufferViews":[{"buffer":0,"byteLength":300,"byteOffset":0,"target":34963},{"buffer":0,"byteLength":1404,"byteOffset":300,"target":34962},{"buffer":0,"byteLength":1404,"byteOffset":1704,"target":34962},{"buffer":0,"byteLength":936,"byteOffset":3108,"target":34962}],"buffers":[{"byteLength":4044,"uri":"SM_water_01.bin"}],"images":[{"name":"Polygon_Camping_Texture_vol2.0","uri":"Polygon_Camping_Texture_vol2.0.jpg"}],"materials":[{"alphaMode":"OPAQUE","doubleSided":false,"extras":{"fromFBX":{"isTruePBR":false,"shadingModel":"Phong"}},"name":"Main_material","pbrMetallicRoughness":{"baseColorFactor":[1,1,1,1],"baseColorTexture":{"index":0,"texCoord":0},"metallicFactor":0.400000005960464,"roughnessFactor":0.272165536880493}}],"meshes":[{"name":"water_01","primitives":[{"attributes":{"NORMAL":2,"POSITION":1,"TEXCOORD_0":3},"indices":0,"material":0,"mode":4}]}],"nodes":[{"mesh":0,"name":"water_01","rotation":[0,0,0,1],"scale":[1,1,1],"translation":[8.20309352874756,0,40.928409576416]}],"samplers":[{}],"scene":0,"scenes":[{"name":"Root Scene","nodes":[0]}],"textures":[{"name":"base_color_texture","sampler":0,"source":0}]}