{"accessors":[{"bufferView":0,"byteOffset":0,"componentType":5123,"count":102,"type":"SCALAR"},{"bufferView":1,"byteOffset":0,"componentType":5126,"count":50,"max":[4.00000429153442,4,1.00000131130219],"min":[-3.99999618530273,0,-1.00000154972076],"type":"VEC3"},{"bufferView":2,"byteOffset":0,"componentType":5126,"count":50,"type":"VEC3"},{"bufferView":3,"byteOffset":0,"componentType":5126,"count":50,"type":"VEC2"},{"bufferView":4,"byteOffset":0,"componentType":5123,"count":108,"type":"SCALAR"},{"bufferView":5,"byteOffset":0,"componentType":5126,"count":106,"max":[3.38972592353821,0.175000011920929,0.389722019433975],"min":[-3.38972401618958,0.0250000208616257,-1.00000131130219],"type":"VEC3"},{"bufferView":6,"byteOffset":0,"componentType":5126,"count":106,"type":"VEC3"},{"bufferView":7,"byteOffset":0,"componentType":5126,"count":106,"type":"VEC2"}],"asset":{"generator":"FBX2glTF v0.13.1","version":"2.0"},"bufferViews":[{"buffer":0,"byteLength":204,"byteOffset":0,"target":34963},{"buffer":0,"byteLength":600,"byteOffset":204,"target":34962},{"buffer":0,"byteLength":600,"byteOffset":804,"target":34962},{"buffer":0,"byteLength":400,"byteOffset":1404,"target":34962},{"buffer":0,"byteLength":216,"byteOffset":1804,"target":34963},{"buffer":0,"byteLength":1272,"byteOffset":2020,"target":34962},{"buffer":0,"byteLength":1272,"byteOffset":3292,"target":34962},{"buffer":0,"byteLength":848,"byteOffset":4564,"target":34962}],"buffers":[{"byteLength":5412,"uri":"SM_water_channels_02.bin"}],"images":[{"name":"Polygon_Texture_vol2","uri":"Polygon_Texture_vol2.png"}],"materials":[{"alphaMode":"OPAQUE","doubleSided":false,"extras":{"fromFBX":{"isTruePBR":false,"shadingModel":"Phong"}},"name":"Main_material","pbrMetallicRoughness":{"baseColorFactor":[1,1,1,1],"baseColorTexture":{"index":0,"texCoord":0},"metallicFactor":0.400000005960464,"roughnessFactor":0.272165536880493}},{"alphaMode":"OPAQUE","doubleSided":false,"extras":{"fromFBX":{"isTruePBR":false,"shadingModel":"Phong"}},"name":"Material","pbrMetallicRoughness":{"baseColorFactor":[0.800000011920929,0.800000011920929,0.800000011920929,1],"metallicFactor":0.400000005960464,"roughnessFactor":0.272165536880493}}],"meshes":[{"name":"water_channels_02","primitives":[{"attributes":{"NORMAL":2,"POSITION":1,"TEXCOORD_0":3},"indices":0,"material":0,"mode":4},{"attributes":{"NORMAL":6,"POSITION":5,"TEXCOORD_0":7},"indices":4,"material":1,"mode":4}]}],"nodes":[{"mesh":0,"name":"water_channels_02","rotation":[0,0,0,1],"scale":[1,1,1],"translation":[30.0753631591797,0,46.2813911437988]}],"samplers":[{}],"scene":0,"scenes":[{"name":"Root Scene","nodes":[0]}],"textures":[{"name":"base_color_texture","sampler":0,"source":0}]}