{"accessors":[{"bufferView":0,"byteOffset":0,"componentType":5123,"count":1926,"type":"SCALAR"},{"bufferView":1,"byteOffset":0,"componentType":5126,"count":714,"max":[0,2.42323541641235,0],"min":[-12.0000019073486,-1.03404808044434,-8.99552536010742],"type":"VEC3"},{"bufferView":2,"byteOffset":0,"componentType":5126,"count":714,"type":"VEC3"},{"bufferView":3,"byteOffset":0,"componentType":5126,"count":714,"type":"VEC2"}],"asset":{"generator":"FBX2glTF v0.13.1","version":"2.0"},"bufferViews":[{"buffer":0,"byteLength":3852,"byteOffset":0,"target":34963},{"buffer":0,"byteLength":8568,"byteOffset":3852,"target":34962},{"buffer":0,"byteLength":8568,"byteOffset":12420,"target":34962},{"buffer":0,"byteLength":5712,"byteOffset":20988,"target":34962}],"buffers":[{"byteLength":26700,"uri":"SM_brige_015.bin"}],"images":[{"name":"Polygon_Texture_vol2","uri":"Polygon_Texture_vol2.png"}],"materials":[{"alphaMode":"OPAQUE","doubleSided":false,"extras":{"fromFBX":{"isTruePBR":false,"shadingModel":"Phong"}},"name":"Material.016","pbrMetallicRoughness":{"baseColorFactor":[1,1,1,1],"baseColorTexture":{"index":0,"texCoord":0},"metallicFactor":0.400000005960464,"roughnessFactor":0.272165536880493}}],"meshes":[{"name":"SM_brige_015","primitives":[{"attributes":{"NORMAL":2,"POSITION":1,"TEXCOORD_0":3},"indices":0,"material":0,"mode":4}]}],"nodes":[{"mesh":0,"name":"SM_brige_015","rotation":[0,0,0,1],"scale":[1,1,1],"translation":[110.180107116699,1.32426154613495,-28.3769207000732]}],"samplers":[{}],"scene":0,"scenes":[{"name":"Root Scene","nodes":[0]}],"textures":[{"name":"base_color_texture","sampler":0,"source":0}]}