{"accessors":[{"bufferView":0,"byteOffset":0,"componentType":5123,"count":1389,"type":"SCALAR"},{"bufferView":1,"byteOffset":0,"componentType":5126,"count":491,"max":[0.0000109672546386719,1.0500009059906,0.00000524520874023438],"min":[-12.0000009536743,-1.05000162124634,-12],"type":"VEC3"},{"bufferView":2,"byteOffset":0,"componentType":5126,"count":491,"type":"VEC3"},{"bufferView":3,"byteOffset":0,"componentType":5126,"count":491,"type":"VEC2"}],"asset":{"generator":"FBX2glTF v0.13.1","version":"2.0"},"bufferViews":[{"buffer":0,"byteLength":2778,"byteOffset":0,"target":34963},{"buffer":0,"byteLength":5892,"byteOffset":2780,"target":34962},{"buffer":0,"byteLength":5892,"byteOffset":8672,"target":34962},{"buffer":0,"byteLength":3928,"byteOffset":14564,"target":34962}],"buffers":[{"byteLength":18492,"uri":"SM_brige_012.bin"}],"images":[{"name":"Polygon_Texture_vol2","uri":"Polygon_Texture_vol2.png"}],"materials":[{"alphaMode":"OPAQUE","doubleSided":false,"extras":{"fromFBX":{"isTruePBR":false,"shadingModel":"Phong"}},"name":"Material.012","pbrMetallicRoughness":{"baseColorFactor":[1,1,1,1],"baseColorTexture":{"index":0,"texCoord":0},"metallicFactor":0.400000005960464,"roughnessFactor":0.272165536880493}}],"meshes":[{"name":"SM_brige_012","primitives":[{"attributes":{"NORMAL":2,"POSITION":1,"TEXCOORD_0":3},"indices":0,"material":0,"mode":4}]}],"nodes":[{"mesh":0,"name":"SM_brige_012","rotation":[0,0,0,1],"scale":[1,1,1],"translation":[94.15087890625,2.05000019073486,-59.0822830200195]}],"samplers":[{}],"scene":0,"scenes":[{"name":"Root Scene","nodes":[0]}],"textures":[{"name":"base_color_texture","sampler":0,"source":0}]}