{"accessors":[{"bufferView":0,"byteOffset":0,"componentType":5123,"count":1548,"type":"SCALAR"},{"bufferView":1,"byteOffset":0,"componentType":5126,"count":564,"max":[0,2.42323517799377,0.182329654693604],"min":[-12.0000019073486,-1.03404808044434,-8.06079292297363],"type":"VEC3"},{"bufferView":2,"byteOffset":0,"componentType":5126,"count":564,"type":"VEC3"},{"bufferView":3,"byteOffset":0,"componentType":5126,"count":564,"type":"VEC2"}],"asset":{"generator":"FBX2glTF v0.13.1","version":"2.0"},"bufferViews":[{"buffer":0,"byteLength":3096,"byteOffset":0,"target":34963},{"buffer":0,"byteLength":6768,"byteOffset":3096,"target":34962},{"buffer":0,"byteLength":6768,"byteOffset":9864,"target":34962},{"buffer":0,"byteLength":4512,"byteOffset":16632,"target":34962}],"buffers":[{"byteLength":21144,"uri":"SM_brige_010.bin"}],"images":[{"name":"Polygon_Texture_vol2","uri":"Polygon_Texture_vol2.png"}],"materials":[{"alphaMode":"OPAQUE","doubleSided":false,"extras":{"fromFBX":{"isTruePBR":false,"shadingModel":"Phong"}},"name":"Material.010","pbrMetallicRoughness":{"baseColorFactor":[1,1,1,1],"baseColorTexture":{"index":0,"texCoord":0},"metallicFactor":0.400000005960464,"roughnessFactor":0.272165536880493}}],"meshes":[{"name":"SM_brige_010","primitives":[{"attributes":{"NORMAL":2,"POSITION":1,"TEXCOORD_0":3},"indices":0,"material":0,"mode":4}]}],"nodes":[{"mesh":0,"name":"SM_brige_010","rotation":[0,0,0,1],"scale":[1,1,1],"translation":[94.15087890625,1.32426190376282,-50.2615432739258]}],"samplers":[{}],"scene":0,"scenes":[{"name":"Root Scene","nodes":[0]}],"textures":[{"name":"base_color_texture","sampler":0,"source":0}]}