{"accessors":[{"bufferView":0,"byteOffset":0,"componentType":5123,"count":1824,"type":"SCALAR"},{"bufferView":1,"byteOffset":0,"componentType":5126,"count":718,"max":[0,1.05000162124634,0.000000476837158203125],"min":[-12.0000019073486,-2.04999971389771,-8],"type":"VEC3"},{"bufferView":2,"byteOffset":0,"componentType":5126,"count":718,"type":"VEC3"},{"bufferView":3,"byteOffset":0,"componentType":5126,"count":718,"type":"VEC2"}],"asset":{"generator":"FBX2glTF v0.13.1","version":"2.0"},"bufferViews":[{"buffer":0,"byteLength":3648,"byteOffset":0,"target":34963},{"buffer":0,"byteLength":8616,"byteOffset":3648,"target":34962},{"buffer":0,"byteLength":8616,"byteOffset":12264,"target":34962},{"buffer":0,"byteLength":5744,"byteOffset":20880,"target":34962}],"buffers":[{"byteLength":26624,"uri":"SM_brige_013.bin"}],"images":[{"name":"Polygon_Texture_vol2","uri":"Polygon_Texture_vol2.png"}],"materials":[{"alphaMode":"OPAQUE","doubleSided":false,"extras":{"fromFBX":{"isTruePBR":false,"shadingModel":"Phong"}},"name":"Material.013","pbrMetallicRoughness":{"baseColorFactor":[1,1,1,1],"baseColorTexture":{"index":0,"texCoord":0},"metallicFactor":0.400000005960464,"roughnessFactor":0.272165536880493}}],"meshes":[{"name":"SM_brige_013","primitives":[{"attributes":{"NORMAL":2,"POSITION":1,"TEXCOORD_0":3},"indices":0,"material":0,"mode":4}]}],"nodes":[{"mesh":0,"name":"SM_brige_013","rotation":[0,0,0,1],"scale":[1,1,1],"translation":[110.180107116699,2.04999899864197,-2.73791003227234]}],"samplers":[{}],"scene":0,"scenes":[{"name":"Root Scene","nodes":[0]}],"textures":[{"name":"base_color_texture","sampler":0,"source":0}]}