{"accessors":[{"bufferView":0,"byteOffset":0,"componentType":5123,"count":33432,"type":"SCALAR"},{"bufferView":1,"byteOffset":0,"componentType":5126,"count":15914,"max":[7.73676919937134,43.6286888122559,63.9312286376953],"min":[-7.70337057113647,-0.00203990936279,-64.0687637329102],"type":"VEC3"},{"bufferView":2,"byteOffset":0,"componentType":5126,"count":15914,"type":"VEC3"},{"bufferView":3,"byteOffset":0,"componentType":5126,"count":15914,"type":"VEC2"}],"asset":{"generator":"FBX2glTF v0.13.1","version":"2.0"},"bufferViews":[{"buffer":0,"byteLength":66864,"byteOffset":0,"target":34963},{"buffer":0,"byteLength":190968,"byteOffset":66864,"target":34962},{"buffer":0,"byteLength":190968,"byteOffset":257832,"target":34962},{"buffer":0,"byteLength":127312,"byteOffset":448800,"target":34962}],"buffers":[{"byteLength":576112,"uri":"SM_Bridge.bin"}],"images":[{"name":"Polygon_Texture_vol2","uri":"Polygon_Texture_vol2.png"}],"materials":[{"alphaMode":"OPAQUE","doubleSided":false,"extras":{"fromFBX":{"isTruePBR":false,"shadingModel":"Phong"}},"name":"Material.001","pbrMetallicRoughness":{"baseColorFactor":[1,1,1,1],"baseColorTexture":{"index":0,"texCoord":0},"metallicFactor":0.400000005960464,"roughnessFactor":0.272165536880493}}],"meshes":[{"name":"Bridge","primitives":[{"attributes":{"NORMAL":2,"POSITION":1,"TEXCOORD_0":3},"indices":0,"material":0,"mode":4}]}],"nodes":[{"mesh":0,"name":"Bridge","rotation":[0,0,0,1],"scale":[1,1,1],"translation":[136.30061340332,0,-66.6691436767578]}],"samplers":[{}],"scene":0,"scenes":[{"name":"Root Scene","nodes":[0]}],"textures":[{"name":"base_color_texture","sampler":0,"source":0}]}