{"accessors":[{"bufferView":0,"byteOffset":0,"componentType":5123,"count":1455,"type":"SCALAR"},{"bufferView":1,"byteOffset":0,"componentType":5126,"count":512,"max":[0.00000810623168945312,1.0500009059906,0.00000286102294921875],"min":[-12.0000009536743,-1.05000162124634,-12],"type":"VEC3"},{"bufferView":2,"byteOffset":0,"componentType":5126,"count":512,"type":"VEC3"},{"bufferView":3,"byteOffset":0,"componentType":5126,"count":512,"type":"VEC2"}],"asset":{"generator":"FBX2glTF v0.13.1","version":"2.0"},"bufferViews":[{"buffer":0,"byteLength":2910,"byteOffset":0,"target":34963},{"buffer":0,"byteLength":6144,"byteOffset":2912,"target":34962},{"buffer":0,"byteLength":6144,"byteOffset":9056,"target":34962},{"buffer":0,"byteLength":4096,"byteOffset":15200,"target":34962}],"buffers":[{"byteLength":19296,"uri":"SM_brige_018.bin"}],"images":[{"name":"Polygon_Texture_vol2","uri":"Polygon_Texture_vol2.png"}],"materials":[{"alphaMode":"OPAQUE","doubleSided":false,"extras":{"fromFBX":{"isTruePBR":false,"shadingModel":"Phong"}},"name":"Material.019","pbrMetallicRoughness":{"baseColorFactor":[1,1,1,1],"baseColorTexture":{"index":0,"texCoord":0},"metallicFactor":0.400000005960464,"roughnessFactor":0.272165536880493}}],"meshes":[{"name":"SM_brige_018","primitives":[{"attributes":{"NORMAL":2,"POSITION":1,"TEXCOORD_0":3},"indices":0,"material":0,"mode":4}]}],"nodes":[{"mesh":0,"name":"SM_brige_018","rotation":[0,0,0,1],"scale":[1,1,1],"translation":[110.18009185791,2.05000019073486,-59.0822830200195]}],"samplers":[{}],"scene":0,"scenes":[{"name":"Root Scene","nodes":[0]}],"textures":[{"name":"base_color_texture","sampler":0,"source":0}]}