{"accessors":[{"bufferView":0,"byteOffset":0,"componentType":5123,"count":1326,"type":"SCALAR"},{"bufferView":1,"byteOffset":0,"componentType":5126,"count":507,"max":[0.000000238418579101562,2.42323517799377,0],"min":[-6,-1.03404808044434,-8.99552536010742],"type":"VEC3"},{"bufferView":2,"byteOffset":0,"componentType":5126,"count":507,"type":"VEC3"},{"bufferView":3,"byteOffset":0,"componentType":5126,"count":507,"type":"VEC2"}],"asset":{"generator":"FBX2glTF v0.13.1","version":"2.0"},"bufferViews":[{"buffer":0,"byteLength":2652,"byteOffset":0,"target":34963},{"buffer":0,"byteLength":6084,"byteOffset":2652,"target":34962},{"buffer":0,"byteLength":6084,"byteOffset":8736,"target":34962},{"buffer":0,"byteLength":4056,"byteOffset":14820,"target":34962}],"buffers":[{"byteLength":18876,"uri":"SM_brige_05.bin"}],"images":[{"name":"Polygon_Texture_vol2","uri":"Polygon_Texture_vol2.png"}],"materials":[{"alphaMode":"OPAQUE","doubleSided":false,"extras":{"fromFBX":{"isTruePBR":false,"shadingModel":"Phong"}},"name":"Material.005","pbrMetallicRoughness":{"baseColorFactor":[1,1,1,1],"baseColorTexture":{"index":0,"texCoord":0},"metallicFactor":0.400000005960464,"roughnessFactor":0.272165536880493}}],"meshes":[{"name":"SM_brige_05","primitives":[{"attributes":{"NORMAL":2,"POSITION":1,"TEXCOORD_0":3},"indices":0,"material":0,"mode":4}]}],"nodes":[{"mesh":0,"name":"SM_brige_05","rotation":[0,0,0,1],"scale":[1,1,1],"translation":[76.6002731323242,1.32426154613495,-28.3769207000732]}],"samplers":[{}],"scene":0,"scenes":[{"name":"Root Scene","nodes":[0]}],"textures":[{"name":"base_color_texture","sampler":0,"source":0}]}