{"accessors":[{"bufferView":0,"byteOffset":0,"componentType":5123,"count":678,"type":"SCALAR"},{"bufferView":1,"byteOffset":0,"componentType":5126,"count":279,"max":[0.000000238418579101562,1.05000138282776,0.00000309944152832031],"min":[-6.00000286102295,-1.04999995231628,-6],"type":"VEC3"},{"bufferView":2,"byteOffset":0,"componentType":5126,"count":279,"type":"VEC3"},{"bufferView":3,"byteOffset":0,"componentType":5126,"count":279,"type":"VEC2"}],"asset":{"generator":"FBX2glTF v0.13.1","version":"2.0"},"bufferViews":[{"buffer":0,"byteLength":1356,"byteOffset":0,"target":34963},{"buffer":0,"byteLength":3348,"byteOffset":1356,"target":34962},{"buffer":0,"byteLength":3348,"byteOffset":4704,"target":34962},{"buffer":0,"byteLength":2232,"byteOffset":8052,"target":34962}],"buffers":[{"byteLength":10284,"uri":"SM_brige_011.bin"}],"images":[{"name":"Polygon_Texture_vol2","uri":"Polygon_Texture_vol2.png"}],"materials":[{"alphaMode":"OPAQUE","doubleSided":false,"extras":{"fromFBX":{"isTruePBR":false,"shadingModel":"Phong"}},"name":"Material.011","pbrMetallicRoughness":{"baseColorFactor":[1,1,1,1],"baseColorTexture":{"index":0,"texCoord":0},"metallicFactor":0.400000005960464,"roughnessFactor":0.272165536880493}}],"meshes":[{"name":"SM_brige_011","primitives":[{"attributes":{"NORMAL":2,"POSITION":1,"TEXCOORD_0":3},"indices":0,"material":0,"mode":4}]}],"nodes":[{"mesh":0,"name":"SM_brige_011","rotation":[0,0,0,1],"scale":[1,1,1],"translation":[76.6002731323242,2.04999947547913,-59.0822830200195]}],"samplers":[{}],"scene":0,"scenes":[{"name":"Root Scene","nodes":[0]}],"textures":[{"name":"base_color_texture","sampler":0,"source":0}]}