{"accessors":[{"bufferView":0,"byteOffset":0,"componentType":5123,"count":18,"type":"SCALAR"},{"bufferView":1,"byteOffset":0,"componentType":5126,"count":12,"max":[0.999999821186066,0.199999570846558,0.500000059604645],"min":[-1,0,-0.5],"type":"VEC3"},{"bufferView":2,"byteOffset":0,"componentType":5126,"count":12,"type":"VEC3"},{"bufferView":3,"byteOffset":0,"componentType":5126,"count":12,"type":"VEC2"}],"asset":{"generator":"FBX2glTF v0.13.1","version":"2.0"},"bufferViews":[{"buffer":0,"byteLength":36,"byteOffset":0,"target":34963},{"buffer":0,"byteLength":144,"byteOffset":36,"target":34962},{"buffer":0,"byteLength":144,"byteOffset":180,"target":34962},{"buffer":0,"byteLength":96,"byteOffset":324,"target":34962}],"buffers":[{"byteLength":420,"uri":"SM_pillar_04.bin"}],"images":[{"name":"Polygon_Texture_vol2","uri":"Polygon_Texture_vol2.png"}],"materials":[{"alphaMode":"OPAQUE","doubleSided":false,"extras":{"fromFBX":{"isTruePBR":false,"shadingModel":"Phong"}},"name":"Material.023","pbrMetallicRoughness":{"baseColorFactor":[1,1,1,1],"baseColorTexture":{"index":0,"texCoord":0},"metallicFactor":0.400000005960464,"roughnessFactor":0.272165536880493}}],"meshes":[{"name":"SM_pillar_04","primitives":[{"attributes":{"NORMAL":2,"POSITION":1,"TEXCOORD_0":3},"indices":0,"material":0,"mode":4}]}],"nodes":[{"mesh":0,"name":"SM_pillar_04","rotation":[0,0,0,1],"scale":[1,1,1],"translation":[77.9530029296875,-0.00000023841858,-4.45219659805298]}],"samplers":[{}],"scene":0,"scenes":[{"name":"Root Scene","nodes":[0]}],"textures":[{"name":"base_color_texture","sampler":0,"source":0}]}