{"accessors":[{"bufferView":0,"byteOffset":0,"componentType":5123,"count":186,"type":"SCALAR"},{"bufferView":1,"byteOffset":0,"componentType":5126,"count":100,"max":[0.500007629394531,2.00000095367432,0.49999988079071],"min":[-0.49999237060547,0,-0.50000017881393],"type":"VEC3"},{"bufferView":2,"byteOffset":0,"componentType":5126,"count":100,"type":"VEC3"},{"bufferView":3,"byteOffset":0,"componentType":5126,"count":100,"type":"VEC2"}],"asset":{"generator":"FBX2glTF v0.13.1","version":"2.0"},"bufferViews":[{"buffer":0,"byteLength":372,"byteOffset":0,"target":34963},{"buffer":0,"byteLength":1200,"byteOffset":372,"target":34962},{"buffer":0,"byteLength":1200,"byteOffset":1572,"target":34962},{"buffer":0,"byteLength":800,"byteOffset":2772,"target":34962}],"buffers":[{"byteLength":3572,"uri":"SM_pillar_03.bin"}],"images":[{"name":"Polygon_Texture_vol2","uri":"Polygon_Texture_vol2.png"}],"materials":[{"alphaMode":"OPAQUE","doubleSided":false,"extras":{"fromFBX":{"isTruePBR":false,"shadingModel":"Phong"}},"name":"Material.022","pbrMetallicRoughness":{"baseColorFactor":[1,1,1,1],"baseColorTexture":{"index":0,"texCoord":0},"metallicFactor":0.400000005960464,"roughnessFactor":0.272165536880493}}],"meshes":[{"name":"SM_pillar_03","primitives":[{"attributes":{"NORMAL":2,"POSITION":1,"TEXCOORD_0":3},"indices":0,"material":0,"mode":4}]}],"nodes":[{"mesh":0,"name":"SM_pillar_03","rotation":[0,0,0,1],"scale":[1,1,1],"translation":[79.5560150146484,-0.00000023841858,-4.45219659805298]}],"samplers":[{}],"scene":0,"scenes":[{"name":"Root Scene","nodes":[0]}],"textures":[{"name":"base_color_texture","sampler":0,"source":0}]}