{"accessors":[{"bufferView":0,"byteOffset":0,"componentType":5123,"count":150,"type":"SCALAR"},{"bufferView":1,"byteOffset":0,"componentType":5126,"count":84,"max":[0.5,1.99999856948853,0.500000417232513],"min":[-0.5,-0.00000131130219,-0.49999952316284],"type":"VEC3"},{"bufferView":2,"byteOffset":0,"componentType":5126,"count":84,"type":"VEC3"},{"bufferView":3,"byteOffset":0,"componentType":5126,"count":84,"type":"VEC2"}],"asset":{"generator":"FBX2glTF v0.13.1","version":"2.0"},"bufferViews":[{"buffer":0,"byteLength":300,"byteOffset":0,"target":34963},{"buffer":0,"byteLength":1008,"byteOffset":300,"target":34962},{"buffer":0,"byteLength":1008,"byteOffset":1308,"target":34962},{"buffer":0,"byteLength":672,"byteOffset":2316,"target":34962}],"buffers":[{"byteLength":2988,"uri":"SM_pillar_01.bin"}],"images":[{"name":"Polygon_Texture_vol2","uri":"Polygon_Texture_vol2.png"}],"materials":[{"alphaMode":"OPAQUE","doubleSided":false,"extras":{"fromFBX":{"isTruePBR":false,"shadingModel":"Phong"}},"name":"Material.020","pbrMetallicRoughness":{"baseColorFactor":[1,1,1,1],"baseColorTexture":{"index":0,"texCoord":0},"metallicFactor":0.400000005960464,"roughnessFactor":0.272165536880493}}],"meshes":[{"name":"SM_pillar_01","primitives":[{"attributes":{"NORMAL":2,"POSITION":1,"TEXCOORD_0":3},"indices":0,"material":0,"mode":4}]}],"nodes":[{"mesh":0,"name":"SM_pillar_01","rotation":[0,0,0,1],"scale":[1,1,1],"translation":[79.5560150146484,4.8527946472168,-4.45219612121582]}],"samplers":[{}],"scene":0,"scenes":[{"name":"Root Scene","nodes":[0]}],"textures":[{"name":"base_color_texture","sampler":0,"source":0}]}