{"accessors":[{"bufferView":0,"byteOffset":0,"componentType":5123,"count":2106,"type":"SCALAR"},{"bufferView":1,"byteOffset":0,"componentType":5126,"count":780,"max":[-0.00000190734863,0.0500026009976864,0],"min":[-12.0000019073486,-0.05000000447035,-16],"type":"VEC3"},{"bufferView":2,"byteOffset":0,"componentType":5126,"count":780,"type":"VEC3"},{"bufferView":3,"byteOffset":0,"componentType":5126,"count":780,"type":"VEC2"}],"asset":{"generator":"FBX2glTF v0.13.1","version":"2.0"},"bufferViews":[{"buffer":0,"byteLength":4212,"byteOffset":0,"target":34963},{"buffer":0,"byteLength":9360,"byteOffset":4212,"target":34962},{"buffer":0,"byteLength":9360,"byteOffset":13572,"target":34962},{"buffer":0,"byteLength":6240,"byteOffset":22932,"target":34962}],"buffers":[{"byteLength":29172,"uri":"SM_road_034.bin"}],"images":[{"name":"Polygon_Texture_vol2","uri":"Polygon_Texture_vol2.png"}],"materials":[{"alphaMode":"OPAQUE","doubleSided":false,"extras":{"fromFBX":{"isTruePBR":false,"shadingModel":"Phong"}},"name":"Material.057","pbrMetallicRoughness":{"baseColorFactor":[1,1,1,1],"baseColorTexture":{"index":0,"texCoord":0},"metallicFactor":0.400000005960464,"roughnessFactor":0.272165536880493}}],"meshes":[{"name":"SM_road_034","primitives":[{"attributes":{"NORMAL":2,"POSITION":1,"TEXCOORD_0":3},"indices":0,"material":0,"mode":4}]}],"nodes":[{"mesh":0,"name":"SM_road_034","rotation":[0,0,0,1],"scale":[1,1,1],"translation":[37.1554794311523,-0.00000130757689,-14.7320337295532]}],"samplers":[{}],"scene":0,"scenes":[{"name":"Root Scene","nodes":[0]}],"textures":[{"name":"base_color_texture","sampler":0,"source":0}]}