{"accessors":[{"bufferView":0,"byteOffset":0,"componentType":5123,"count":654,"type":"SCALAR"},{"bufferView":1,"byteOffset":0,"componentType":5126,"count":260,"max":[0.0000000381469895671671,0.0500013008713722,0.000000550349568584352],"min":[-6,-0.04999999329448,-7.99999904632568],"type":"VEC3"},{"bufferView":2,"byteOffset":0,"componentType":5126,"count":260,"type":"VEC3"},{"bufferView":3,"byteOffset":0,"componentType":5126,"count":260,"type":"VEC2"}],"asset":{"generator":"FBX2glTF v0.13.1","version":"2.0"},"bufferViews":[{"buffer":0,"byteLength":1308,"byteOffset":0,"target":34963},{"buffer":0,"byteLength":3120,"byteOffset":1308,"target":34962},{"buffer":0,"byteLength":3120,"byteOffset":4428,"target":34962},{"buffer":0,"byteLength":2080,"byteOffset":7548,"target":34962}],"buffers":[{"byteLength":9628,"uri":"SM_road_05.bin"}],"images":[{"name":"Polygon_Texture_vol2","uri":"Polygon_Texture_vol2.png"}],"materials":[{"alphaMode":"OPAQUE","doubleSided":false,"extras":{"fromFBX":{"isTruePBR":false,"shadingModel":"Phong"}},"name":"Material.028","pbrMetallicRoughness":{"baseColorFactor":[1,1,1,1],"baseColorTexture":{"index":0,"texCoord":0},"metallicFactor":0.400000005960464,"roughnessFactor":0.272165536880493}}],"meshes":[{"name":"SM_road_05","primitives":[{"attributes":{"NORMAL":2,"POSITION":1,"TEXCOORD_0":3},"indices":0,"material":0,"mode":4}]}],"nodes":[{"mesh":0,"name":"SM_road_05","rotation":[0,0,0,1],"scale":[1,1,1],"translation":[-9.2763032913208,-0.00000065565109,-28.2820205688477]}],"samplers":[{}],"scene":0,"scenes":[{"name":"Root Scene","nodes":[0]}],"textures":[{"name":"base_color_texture","sampler":0,"source":0}]}