{"accessors":[{"bufferView":0,"byteOffset":0,"componentType":5123,"count":1134,"type":"SCALAR"},{"bufferView":1,"byteOffset":0,"componentType":5126,"count":425,"max":[0.000000686645478253922,0.0500013008713722,0.000000931819329252903],"min":[-17.9999980926514,-0.04999999329448,-7.99999856948853],"type":"VEC3"},{"bufferView":2,"byteOffset":0,"componentType":5126,"count":425,"type":"VEC3"},{"bufferView":3,"byteOffset":0,"componentType":5126,"count":425,"type":"VEC2"}],"asset":{"generator":"FBX2glTF v0.13.1","version":"2.0"},"bufferViews":[{"buffer":0,"byteLength":2268,"byteOffset":0,"target":34963},{"buffer":0,"byteLength":5100,"byteOffset":2268,"target":34962},{"buffer":0,"byteLength":5100,"byteOffset":7368,"target":34962},{"buffer":0,"byteLength":3400,"byteOffset":12468,"target":34962}],"buffers":[{"byteLength":15868,"uri":"SM_road_026.bin"}],"images":[{"name":"Polygon_Texture_vol2","uri":"Polygon_Texture_vol2.png"}],"materials":[{"alphaMode":"OPAQUE","doubleSided":false,"extras":{"fromFBX":{"isTruePBR":false,"shadingModel":"Phong"}},"name":"Material.049","pbrMetallicRoughness":{"baseColorFactor":[1,1,1,1],"baseColorTexture":{"index":0,"texCoord":0},"metallicFactor":0.400000005960464,"roughnessFactor":0.272165536880493}}],"meshes":[{"name":"SM_road_026","primitives":[{"attributes":{"NORMAL":2,"POSITION":1,"TEXCOORD_0":3},"indices":0,"material":0,"mode":4}]}],"nodes":[{"mesh":0,"name":"SM_road_026","rotation":[0,0,0,1],"scale":[1,1,1],"translation":[19.913423538208,-0.00000064074993,-113.556373596191]}],"samplers":[{}],"scene":0,"scenes":[{"name":"Root Scene","nodes":[0]}],"textures":[{"name":"base_color_texture","sampler":0,"source":0}]}