{"accessors":[{"bufferView":0,"byteOffset":0,"componentType":5123,"count":954,"type":"SCALAR"},{"bufferView":1,"byteOffset":0,"componentType":5126,"count":306,"max":[0.0000000762939791343342,0.0500013008713722,0.000000321467837238743],"min":[-12,-0.04999999329448,-8],"type":"VEC3"},{"bufferView":2,"byteOffset":0,"componentType":5126,"count":306,"type":"VEC3"},{"bufferView":3,"byteOffset":0,"componentType":5126,"count":306,"type":"VEC2"}],"asset":{"generator":"FBX2glTF v0.13.1","version":"2.0"},"bufferViews":[{"buffer":0,"byteLength":1908,"byteOffset":0,"target":34963},{"buffer":0,"byteLength":3672,"byteOffset":1908,"target":34962},{"buffer":0,"byteLength":3672,"byteOffset":5580,"target":34962},{"buffer":0,"byteLength":2448,"byteOffset":9252,"target":34962}],"buffers":[{"byteLength":11700,"uri":"SM_road_020.bin"}],"images":[{"name":"Polygon_Texture_vol2","uri":"Polygon_Texture_vol2.png"}],"materials":[{"alphaMode":"OPAQUE","doubleSided":false,"extras":{"fromFBX":{"isTruePBR":false,"shadingModel":"Phong"}},"name":"Material.043","pbrMetallicRoughness":{"baseColorFactor":[1,1,1,1],"baseColorTexture":{"index":0,"texCoord":0},"metallicFactor":0.400000005960464,"roughnessFactor":0.272165536880493}}],"meshes":[{"name":"SM_road_020","primitives":[{"attributes":{"NORMAL":2,"POSITION":1,"TEXCOORD_0":3},"indices":0,"material":0,"mode":4}]}],"nodes":[{"mesh":0,"name":"SM_road_020","rotation":[0,0,0,1],"scale":[1,1,1],"translation":[19.913423538208,-0.00000065565109,-45.11083984375]}],"samplers":[{}],"scene":0,"scenes":[{"name":"Root Scene","nodes":[0]}],"textures":[{"name":"base_color_texture","sampler":0,"source":0}]}