{"accessors":[{"bufferView":0,"byteOffset":0,"componentType":5123,"count":774,"type":"SCALAR"},{"bufferView":1,"byteOffset":0,"componentType":5126,"count":304,"max":[0,0.05000064894557,0],"min":[-12,-0.04999999701977,-4],"type":"VEC3"},{"bufferView":2,"byteOffset":0,"componentType":5126,"count":304,"type":"VEC3"},{"bufferView":3,"byteOffset":0,"componentType":5126,"count":304,"type":"VEC2"}],"asset":{"generator":"FBX2glTF v0.13.1","version":"2.0"},"bufferViews":[{"buffer":0,"byteLength":1548,"byteOffset":0,"target":34963},{"buffer":0,"byteLength":3648,"byteOffset":1548,"target":34962},{"buffer":0,"byteLength":3648,"byteOffset":5196,"target":34962},{"buffer":0,"byteLength":2432,"byteOffset":8844,"target":34962}],"buffers":[{"byteLength":11276,"uri":"SM_road_043_A.bin"}],"images":[{"name":"Polygon_Texture_vol2","uri":"Polygon_Texture_vol2.png"}],"materials":[{"alphaMode":"OPAQUE","doubleSided":false,"extras":{"fromFBX":{"isTruePBR":false,"shadingModel":"Phong"}},"name":"Material.067","pbrMetallicRoughness":{"baseColorFactor":[1,1,1,1],"baseColorTexture":{"index":0,"texCoord":0},"metallicFactor":0.400000005960464,"roughnessFactor":0.272165536880493}}],"meshes":[{"name":"SM_road_043_A","primitives":[{"attributes":{"NORMAL":2,"POSITION":1,"TEXCOORD_0":3},"indices":0,"material":0,"mode":4}]}],"nodes":[{"mesh":0,"name":"SM_road_043_A","rotation":[0,0,0,1],"scale":[1,1,1],"translation":[67.6225128173828,-0.00000032410026,7.25761556625366]}],"samplers":[{}],"scene":0,"scenes":[{"name":"Root Scene","nodes":[0]}],"textures":[{"name":"base_color_texture","sampler":0,"source":0}]}