{"accessors":[{"bufferView":0,"byteOffset":0,"componentType":5123,"count":222,"type":"SCALAR"},{"bufferView":1,"byteOffset":0,"componentType":5126,"count":114,"max":[0.000000534057505774399,0.0500009767711163,0.000000626643554824113],"min":[-5.99999904632568,-0.04999999329448,-5.99999856948853],"type":"VEC3"},{"bufferView":2,"byteOffset":0,"componentType":5126,"count":114,"type":"VEC3"},{"bufferView":3,"byteOffset":0,"componentType":5126,"count":114,"type":"VEC2"}],"asset":{"generator":"FBX2glTF v0.13.1","version":"2.0"},"bufferViews":[{"buffer":0,"byteLength":444,"byteOffset":0,"target":34963},{"buffer":0,"byteLength":1368,"byteOffset":444,"target":34962},{"buffer":0,"byteLength":1368,"byteOffset":1812,"target":34962},{"buffer":0,"byteLength":912,"byteOffset":3180,"target":34962}],"buffers":[{"byteLength":4092,"uri":"SM_road_032.bin"}],"images":[{"name":"Polygon_Texture_vol2","uri":"Polygon_Texture_vol2.png"}],"materials":[{"alphaMode":"OPAQUE","doubleSided":false,"extras":{"fromFBX":{"isTruePBR":false,"shadingModel":"Phong"}},"name":"Material.055","pbrMetallicRoughness":{"baseColorFactor":[1,1,1,1],"baseColorTexture":{"index":0,"texCoord":0},"metallicFactor":0.400000005960464,"roughnessFactor":0.272165536880493}}],"meshes":[{"name":"SM_road_032","primitives":[{"attributes":{"NORMAL":2,"POSITION":1,"TEXCOORD_0":3},"indices":0,"material":0,"mode":4}]}],"nodes":[{"mesh":0,"name":"SM_road_032","rotation":[0,0,0,1],"scale":[1,1,1],"translation":[-19.9169273376465,-0.00000048056245,-31.06711769104]}],"samplers":[{}],"scene":0,"scenes":[{"name":"Root Scene","nodes":[0]}],"textures":[{"name":"base_color_texture","sampler":0,"source":0}]}