{"accessors":[{"bufferView":0,"byteOffset":0,"componentType":5123,"count":516,"type":"SCALAR"},{"bufferView":1,"byteOffset":0,"componentType":5126,"count":229,"max":[0.00000476837158203125,0.0500007048249245,0.000000476837158203125],"min":[-11.9999971389771,-0.05000196024776,-11.9999980926514],"type":"VEC3"},{"bufferView":2,"byteOffset":0,"componentType":5126,"count":229,"type":"VEC3"},{"bufferView":3,"byteOffset":0,"componentType":5126,"count":229,"type":"VEC2"}],"asset":{"generator":"FBX2glTF v0.13.1","version":"2.0"},"bufferViews":[{"buffer":0,"byteLength":1032,"byteOffset":0,"target":34963},{"buffer":0,"byteLength":2748,"byteOffset":1032,"target":34962},{"buffer":0,"byteLength":2748,"byteOffset":3780,"target":34962},{"buffer":0,"byteLength":1832,"byteOffset":6528,"target":34962}],"buffers":[{"byteLength":8360,"uri":"SM_road_036.bin"}],"images":[{"name":"Polygon_Texture_vol2","uri":"Polygon_Texture_vol2.png"}],"materials":[{"alphaMode":"OPAQUE","doubleSided":false,"extras":{"fromFBX":{"isTruePBR":false,"shadingModel":"Phong"}},"name":"Material.059","pbrMetallicRoughness":{"baseColorFactor":[1,1,1,1],"baseColorTexture":{"index":0,"texCoord":0},"metallicFactor":0.400000005960464,"roughnessFactor":0.272165536880493}}],"meshes":[{"name":"SM_road_036","primitives":[{"attributes":{"NORMAL":2,"POSITION":1,"TEXCOORD_0":3},"indices":0,"material":0,"mode":4}]}],"nodes":[{"mesh":0,"name":"SM_road_036","rotation":[0,0,0,1],"scale":[1,1,1],"translation":[37.1554756164551,0.000000633299350738525,-44.1049690246582]}],"samplers":[{}],"scene":0,"scenes":[{"name":"Root Scene","nodes":[0]}],"textures":[{"name":"base_color_texture","sampler":0,"source":0}]}