{"accessors":[{"bufferView":0,"byteOffset":0,"componentType":5123,"count":222,"type":"SCALAR"},{"bufferView":1,"byteOffset":0,"componentType":5126,"count":124,"max":[0.000000534057505774399,0.0500009767711163,-0.0000003270307],"min":[-5.99999904632568,-0.04999999329448,-6],"type":"VEC3"},{"bufferView":2,"byteOffset":0,"componentType":5126,"count":124,"type":"VEC3"},{"bufferView":3,"byteOffset":0,"componentType":5126,"count":124,"type":"VEC2"}],"asset":{"generator":"FBX2glTF v0.13.1","version":"2.0"},"bufferViews":[{"buffer":0,"byteLength":444,"byteOffset":0,"target":34963},{"buffer":0,"byteLength":1488,"byteOffset":444,"target":34962},{"buffer":0,"byteLength":1488,"byteOffset":1932,"target":34962},{"buffer":0,"byteLength":992,"byteOffset":3420,"target":34962}],"buffers":[{"byteLength":4412,"uri":"SM_road_029.bin"}],"images":[{"name":"Polygon_Texture_vol2","uri":"Polygon_Texture_vol2.png"}],"materials":[{"alphaMode":"OPAQUE","doubleSided":false,"extras":{"fromFBX":{"isTruePBR":false,"shadingModel":"Phong"}},"name":"Material.052","pbrMetallicRoughness":{"baseColorFactor":[1,1,1,1],"baseColorTexture":{"index":0,"texCoord":0},"metallicFactor":0.400000005960464,"roughnessFactor":0.272165536880493}}],"meshes":[{"name":"SM_road_029","primitives":[{"attributes":{"NORMAL":2,"POSITION":1,"TEXCOORD_0":3},"indices":0,"material":0,"mode":4}]}],"nodes":[{"mesh":0,"name":"SM_road_029","rotation":[0,0,0,1],"scale":[1,1,1],"translation":[-19.9169273376465,-0.00000048056245,-10.6269207000732]}],"samplers":[{}],"scene":0,"scenes":[{"name":"Root Scene","nodes":[0]}],"textures":[{"name":"base_color_texture","sampler":0,"source":0}]}