{"accessors":[{"bufferView":0,"byteOffset":0,"componentType":5123,"count":882,"type":"SCALAR"},{"bufferView":1,"byteOffset":0,"componentType":5126,"count":334,"max":[0.0000002670287528872,0.050001285970211,0.0000000162920681390233],"min":[-5.99999904632568,-0.04999999329448,-8],"type":"VEC3"},{"bufferView":2,"byteOffset":0,"componentType":5126,"count":334,"type":"VEC3"},{"bufferView":3,"byteOffset":0,"componentType":5126,"count":334,"type":"VEC2"}],"asset":{"generator":"FBX2glTF v0.13.1","version":"2.0"},"bufferViews":[{"buffer":0,"byteLength":1764,"byteOffset":0,"target":34963},{"buffer":0,"byteLength":4008,"byteOffset":1764,"target":34962},{"buffer":0,"byteLength":4008,"byteOffset":5772,"target":34962},{"buffer":0,"byteLength":2672,"byteOffset":9780,"target":34962}],"buffers":[{"byteLength":12452,"uri":"SM_road_03.bin"}],"images":[{"name":"Polygon_Texture_vol2","uri":"Polygon_Texture_vol2.png"}],"materials":[{"alphaMode":"OPAQUE","doubleSided":false,"extras":{"fromFBX":{"isTruePBR":false,"shadingModel":"Phong"}},"name":"Material.026","pbrMetallicRoughness":{"baseColorFactor":[1,1,1,1],"baseColorTexture":{"index":0,"texCoord":0},"metallicFactor":0.400000005960464,"roughnessFactor":0.272165536880493}}],"meshes":[{"name":"SM_road_03","primitives":[{"attributes":{"NORMAL":2,"POSITION":1,"TEXCOORD_0":3},"indices":0,"material":0,"mode":4}]}],"nodes":[{"mesh":0,"name":"SM_road_03","rotation":[0,0,0,1],"scale":[1,1,1],"translation":[-9.27630424499512,-0.00000062212348,-11.1984663009644]}],"samplers":[{}],"scene":0,"scenes":[{"name":"Root Scene","nodes":[0]}],"textures":[{"name":"base_color_texture","sampler":0,"source":0}]}