{"accessors":[{"bufferView":0,"byteOffset":0,"componentType":5123,"count":2322,"type":"SCALAR"},{"bufferView":1,"byteOffset":0,"componentType":5126,"count":928,"max":[0,0.0500026009976864,-0.00000286102295],"min":[-12,-0.05000000447035,-16.0000019073486],"type":"VEC3"},{"bufferView":2,"byteOffset":0,"componentType":5126,"count":928,"type":"VEC3"},{"bufferView":3,"byteOffset":0,"componentType":5126,"count":928,"type":"VEC2"}],"asset":{"generator":"FBX2glTF v0.13.1","version":"2.0"},"bufferViews":[{"buffer":0,"byteLength":4644,"byteOffset":0,"target":34963},{"buffer":0,"byteLength":11136,"byteOffset":4644,"target":34962},{"buffer":0,"byteLength":11136,"byteOffset":15780,"target":34962},{"buffer":0,"byteLength":7424,"byteOffset":26916,"target":34962}],"buffers":[{"byteLength":34340,"uri":"SM_road_057.bin"}],"images":[{"name":"Polygon_Texture_vol2","uri":"Polygon_Texture_vol2.png"}],"materials":[{"alphaMode":"OPAQUE","doubleSided":false,"extras":{"fromFBX":{"isTruePBR":false,"shadingModel":"Phong"}},"name":"Material.081","pbrMetallicRoughness":{"baseColorFactor":[1,1,1,1],"baseColorTexture":{"index":0,"texCoord":0},"metallicFactor":0.400000005960464,"roughnessFactor":0.272165536880493}}],"meshes":[{"name":"SM_road_057","primitives":[{"attributes":{"NORMAL":2,"POSITION":1,"TEXCOORD_0":3},"indices":0,"material":0,"mode":4}]}],"nodes":[{"mesh":0,"name":"SM_road_057","rotation":[0,0,0,1],"scale":[1,1,1],"translation":[67.6225128173828,-0.00000130757689,-138.604522705078]}],"samplers":[{}],"scene":0,"scenes":[{"name":"Root Scene","nodes":[0]}],"textures":[{"name":"base_color_texture","sampler":0,"source":0}]}