{"accessors":[{"bufferView":0,"byteOffset":0,"componentType":5123,"count":684,"type":"SCALAR"},{"bufferView":1,"byteOffset":0,"componentType":5126,"count":258,"max":[0.00000030517577442879,0.0500013045966625,0.00000123699510368169],"min":[-6,-0.04999999329448,-7.99999856948853],"type":"VEC3"},{"bufferView":2,"byteOffset":0,"componentType":5126,"count":258,"type":"VEC3"},{"bufferView":3,"byteOffset":0,"componentType":5126,"count":258,"type":"VEC2"}],"asset":{"generator":"FBX2glTF v0.13.1","version":"2.0"},"bufferViews":[{"buffer":0,"byteLength":1368,"byteOffset":0,"target":34963},{"buffer":0,"byteLength":3096,"byteOffset":1368,"target":34962},{"buffer":0,"byteLength":3096,"byteOffset":4464,"target":34962},{"buffer":0,"byteLength":2064,"byteOffset":7560,"target":34962}],"buffers":[{"byteLength":9624,"uri":"SM_road_06.bin"}],"images":[{"name":"Polygon_Texture_vol2","uri":"Polygon_Texture_vol2.png"}],"materials":[{"alphaMode":"OPAQUE","doubleSided":false,"extras":{"fromFBX":{"isTruePBR":false,"shadingModel":"Phong"}},"name":"Material.029","pbrMetallicRoughness":{"baseColorFactor":[1,1,1,1],"baseColorTexture":{"index":0,"texCoord":0},"metallicFactor":0.400000005960464,"roughnessFactor":0.272165536880493}}],"meshes":[{"name":"SM_road_06","primitives":[{"attributes":{"NORMAL":2,"POSITION":1,"TEXCOORD_0":3},"indices":0,"material":0,"mode":4}]}],"nodes":[{"mesh":0,"name":"SM_road_06","rotation":[0,0,0,1],"scale":[1,1,1],"translation":[-9.27630424499512,-0.00000062212348,-36.8551864624023]}],"samplers":[{}],"scene":0,"scenes":[{"name":"Root Scene","nodes":[0]}],"textures":[{"name":"base_color_texture","sampler":0,"source":0}]}