{"accessors":[{"bufferView":0,"byteOffset":0,"componentType":5123,"count":1074,"type":"SCALAR"},{"bufferView":1,"byteOffset":0,"componentType":5126,"count":412,"max":[0.00000286102294921875,0.0500013008713722,0.0000019073486328125],"min":[-11.9999961853027,-0.04999999701977,-7.99999809265137],"type":"VEC3"},{"bufferView":2,"byteOffset":0,"componentType":5126,"count":412,"type":"VEC3"},{"bufferView":3,"byteOffset":0,"componentType":5126,"count":412,"type":"VEC2"}],"asset":{"generator":"FBX2glTF v0.13.1","version":"2.0"},"bufferViews":[{"buffer":0,"byteLength":2148,"byteOffset":0,"target":34963},{"buffer":0,"byteLength":4944,"byteOffset":2148,"target":34962},{"buffer":0,"byteLength":4944,"byteOffset":7092,"target":34962},{"buffer":0,"byteLength":3296,"byteOffset":12036,"target":34962}],"buffers":[{"byteLength":15332,"uri":"SM_road_049.bin"}],"images":[{"name":"Polygon_Texture_vol2","uri":"Polygon_Texture_vol2.png"}],"materials":[{"alphaMode":"OPAQUE","doubleSided":false,"extras":{"fromFBX":{"isTruePBR":false,"shadingModel":"Phong"}},"name":"Material.073","pbrMetallicRoughness":{"baseColorFactor":[1,1,1,1],"baseColorTexture":{"index":0,"texCoord":0},"metallicFactor":0.400000005960464,"roughnessFactor":0.272165536880493}}],"meshes":[{"name":"SM_road_049","primitives":[{"attributes":{"NORMAL":2,"POSITION":1,"TEXCOORD_0":3},"indices":0,"material":0,"mode":4}]}],"nodes":[{"mesh":0,"name":"SM_road_049","rotation":[0,0,0,1],"scale":[1,1,1],"translation":[67.6225128173828,-0.00000064820051,-45.11083984375]}],"samplers":[{}],"scene":0,"scenes":[{"name":"Root Scene","nodes":[0]}],"textures":[{"name":"base_color_texture","sampler":0,"source":0}]}