{"accessors":[{"bufferView":0,"byteOffset":0,"componentType":5123,"count":1074,"type":"SCALAR"},{"bufferView":1,"byteOffset":0,"componentType":5126,"count":392,"max":[0,0.0500013008713722,-0.00000008861212],"min":[-12,-0.04999999329448,-8.00000095367432],"type":"VEC3"},{"bufferView":2,"byteOffset":0,"componentType":5126,"count":392,"type":"VEC3"},{"bufferView":3,"byteOffset":0,"componentType":5126,"count":392,"type":"VEC2"}],"asset":{"generator":"FBX2glTF v0.13.1","version":"2.0"},"bufferViews":[{"buffer":0,"byteLength":2148,"byteOffset":0,"target":34963},{"buffer":0,"byteLength":4704,"byteOffset":2148,"target":34962},{"buffer":0,"byteLength":4704,"byteOffset":6852,"target":34962},{"buffer":0,"byteLength":3136,"byteOffset":11556,"target":34962}],"buffers":[{"byteLength":14692,"uri":"SM_road_015.bin"}],"images":[{"name":"Polygon_Texture_vol2","uri":"Polygon_Texture_vol2.png"}],"materials":[{"alphaMode":"OPAQUE","doubleSided":false,"extras":{"fromFBX":{"isTruePBR":false,"shadingModel":"Phong"}},"name":"Material.038","pbrMetallicRoughness":{"baseColorFactor":[1,1,1,1],"baseColorTexture":{"index":0,"texCoord":0},"metallicFactor":0.400000005960464,"roughnessFactor":0.272165536880493}}],"meshes":[{"name":"SM_road_015","primitives":[{"attributes":{"NORMAL":2,"POSITION":1,"TEXCOORD_0":3},"indices":0,"material":0,"mode":4}]}],"nodes":[{"mesh":0,"name":"SM_road_015","rotation":[0,0,0,1],"scale":[1,1,1],"translation":[19.9134254455566,-0.0000006519258,-2.73791122436523]}],"samplers":[{}],"scene":0,"scenes":[{"name":"Root Scene","nodes":[0]}],"textures":[{"name":"base_color_texture","sampler":0,"source":0}]}