{"accessors":[{"bufferView":0,"byteOffset":0,"componentType":5123,"count":2181,"type":"SCALAR"},{"bufferView":1,"byteOffset":0,"componentType":5126,"count":791,"max":[0.00000333786010742188,0.0500025972723961,-0.00000143051147],"min":[-13.9999961853027,-0.04999999701977,-16.0000019073486],"type":"VEC3"},{"bufferView":2,"byteOffset":0,"componentType":5126,"count":791,"type":"VEC3"},{"bufferView":3,"byteOffset":0,"componentType":5126,"count":791,"type":"VEC2"}],"asset":{"generator":"FBX2glTF v0.13.1","version":"2.0"},"bufferViews":[{"buffer":0,"byteLength":4362,"byteOffset":0,"target":34963},{"buffer":0,"byteLength":9492,"byteOffset":4364,"target":34962},{"buffer":0,"byteLength":9492,"byteOffset":13856,"target":34962},{"buffer":0,"byteLength":6328,"byteOffset":23348,"target":34962}],"buffers":[{"byteLength":29676,"uri":"SM_road_051.bin"}],"images":[{"name":"Polygon_Texture_vol2","uri":"Polygon_Texture_vol2.png"}],"materials":[{"alphaMode":"OPAQUE","doubleSided":false,"extras":{"fromFBX":{"isTruePBR":false,"shadingModel":"Phong"}},"name":"Material.075","pbrMetallicRoughness":{"baseColorFactor":[1,1,1,1],"baseColorTexture":{"index":0,"texCoord":0},"metallicFactor":0.400000005960464,"roughnessFactor":0.272165536880493}}],"meshes":[{"name":"SM_road_051","primitives":[{"attributes":{"NORMAL":2,"POSITION":1,"TEXCOORD_0":3},"indices":0,"material":0,"mode":4}]}],"nodes":[{"mesh":0,"name":"SM_road_051","rotation":[0,0,0,1],"scale":[1,1,1],"translation":[67.6225128173828,-0.00000129640102,-62.2924346923828]}],"samplers":[{}],"scene":0,"scenes":[{"name":"Root Scene","nodes":[0]}],"textures":[{"name":"base_color_texture","sampler":0,"source":0}]}