{"accessors":[{"bufferView":0,"byteOffset":0,"componentType":5123,"count":1890,"type":"SCALAR"},{"bufferView":1,"byteOffset":0,"componentType":5126,"count":648,"max":[0,0.0500026009976864,0.0000000162920681390233],"min":[-12,-0.04999999329448,-16],"type":"VEC3"},{"bufferView":2,"byteOffset":0,"componentType":5126,"count":648,"type":"VEC3"},{"bufferView":3,"byteOffset":0,"componentType":5126,"count":648,"type":"VEC2"}],"asset":{"generator":"FBX2glTF v0.13.1","version":"2.0"},"bufferViews":[{"buffer":0,"byteLength":3780,"byteOffset":0,"target":34963},{"buffer":0,"byteLength":7776,"byteOffset":3780,"target":34962},{"buffer":0,"byteLength":7776,"byteOffset":11556,"target":34962},{"buffer":0,"byteLength":5184,"byteOffset":19332,"target":34962}],"buffers":[{"byteLength":24516,"uri":"SM_road_023.bin"}],"images":[{"name":"Polygon_Texture_vol2","uri":"Polygon_Texture_vol2.png"}],"materials":[{"alphaMode":"OPAQUE","doubleSided":false,"extras":{"fromFBX":{"isTruePBR":false,"shadingModel":"Phong"}},"name":"Material.046","pbrMetallicRoughness":{"baseColorFactor":[1,1,1,1],"baseColorTexture":{"index":0,"texCoord":0},"metallicFactor":0.400000005960464,"roughnessFactor":0.272165536880493}}],"meshes":[{"name":"SM_road_023","primitives":[{"attributes":{"NORMAL":2,"POSITION":1,"TEXCOORD_0":3},"indices":0,"material":0,"mode":4}]}],"nodes":[{"mesh":0,"name":"SM_road_023","rotation":[0,0,0,1],"scale":[1,1,1],"translation":[19.9134254455566,-0.00000131130219,-79.552490234375]}],"samplers":[{}],"scene":0,"scenes":[{"name":"Root Scene","nodes":[0]}],"textures":[{"name":"base_color_texture","sampler":0,"source":0}]}