{"accessors":[{"bufferView":0,"byteOffset":0,"componentType":5123,"count":1122,"type":"SCALAR"},{"bufferView":1,"byteOffset":0,"componentType":5126,"count":496,"max":[-0.00000143051147,0.0500019490718842,0.00000095367431640625],"min":[-12.0000009536743,-0.05000000447035,-12.0000019073486],"type":"VEC3"},{"bufferView":2,"byteOffset":0,"componentType":5126,"count":496,"type":"VEC3"},{"bufferView":3,"byteOffset":0,"componentType":5126,"count":496,"type":"VEC2"}],"asset":{"generator":"FBX2glTF v0.13.1","version":"2.0"},"bufferViews":[{"buffer":0,"byteLength":2244,"byteOffset":0,"target":34963},{"buffer":0,"byteLength":5952,"byteOffset":2244,"target":34962},{"buffer":0,"byteLength":5952,"byteOffset":8196,"target":34962},{"buffer":0,"byteLength":3968,"byteOffset":14148,"target":34962}],"buffers":[{"byteLength":18116,"uri":"SM_road_035.bin"}],"images":[{"name":"Polygon_Texture_vol2","uri":"Polygon_Texture_vol2.png"}],"materials":[{"alphaMode":"OPAQUE","doubleSided":false,"extras":{"fromFBX":{"isTruePBR":false,"shadingModel":"Phong"}},"name":"Material.058","pbrMetallicRoughness":{"baseColorFactor":[1,1,1,1],"baseColorTexture":{"index":0,"texCoord":0},"metallicFactor":0.400000005960464,"roughnessFactor":0.272165536880493}}],"meshes":[{"name":"SM_road_035","primitives":[{"attributes":{"NORMAL":2,"POSITION":1,"TEXCOORD_0":3},"indices":0,"material":0,"mode":4}]}],"nodes":[{"mesh":0,"name":"SM_road_035","rotation":[0,0,0,1],"scale":[1,1,1],"translation":[37.1554794311523,-0.00000095739961,-31.1960506439209]}],"samplers":[{}],"scene":0,"scenes":[{"name":"Root Scene","nodes":[0]}],"textures":[{"name":"base_color_texture","sampler":0,"source":0}]}