{"accessors":[{"bufferView":0,"byteOffset":0,"componentType":5123,"count":996,"type":"SCALAR"},{"bufferView":1,"byteOffset":0,"componentType":5126,"count":364,"max":[0.000000610351548857579,0.0500013008713722,0.00000215252202906413],"min":[-18,-0.04999999329448,-7.99999761581421],"type":"VEC3"},{"bufferView":2,"byteOffset":0,"componentType":5126,"count":364,"type":"VEC3"},{"bufferView":3,"byteOffset":0,"componentType":5126,"count":364,"type":"VEC2"}],"asset":{"generator":"FBX2glTF v0.13.1","version":"2.0"},"bufferViews":[{"buffer":0,"byteLength":1992,"byteOffset":0,"target":34963},{"buffer":0,"byteLength":4368,"byteOffset":1992,"target":34962},{"buffer":0,"byteLength":4368,"byteOffset":6360,"target":34962},{"buffer":0,"byteLength":2912,"byteOffset":10728,"target":34962}],"buffers":[{"byteLength":13640,"uri":"SM_road_025.bin"}],"images":[{"name":"Polygon_Texture_vol2","uri":"Polygon_Texture_vol2.png"}],"materials":[{"alphaMode":"OPAQUE","doubleSided":false,"extras":{"fromFBX":{"isTruePBR":false,"shadingModel":"Phong"}},"name":"Material.048","pbrMetallicRoughness":{"baseColorFactor":[1,1,1,1],"baseColorTexture":{"index":0,"texCoord":0},"metallicFactor":0.400000005960464,"roughnessFactor":0.272165536880493}}],"meshes":[{"name":"SM_road_025","primitives":[{"attributes":{"NORMAL":2,"POSITION":1,"TEXCOORD_0":3},"indices":0,"material":0,"mode":4}]}],"nodes":[{"mesh":0,"name":"SM_road_025","rotation":[0,0,0,1],"scale":[1,1,1],"translation":[19.9134254455566,-0.00000065565109,-105.130249023438]}],"samplers":[{}],"scene":0,"scenes":[{"name":"Root Scene","nodes":[0]}],"textures":[{"name":"base_color_texture","sampler":0,"source":0}]}