{"accessors":[{"bufferView":0,"byteOffset":0,"componentType":5123,"count":2214,"type":"SCALAR"},{"bufferView":1,"byteOffset":0,"componentType":5126,"count":844,"max":[0,0.050002608448267,0],"min":[-12,-0.05000000447035,-16],"type":"VEC3"},{"bufferView":2,"byteOffset":0,"componentType":5126,"count":844,"type":"VEC3"},{"bufferView":3,"byteOffset":0,"componentType":5126,"count":844,"type":"VEC2"}],"asset":{"generator":"FBX2glTF v0.13.1","version":"2.0"},"bufferViews":[{"buffer":0,"byteLength":4428,"byteOffset":0,"target":34963},{"buffer":0,"byteLength":10128,"byteOffset":4428,"target":34962},{"buffer":0,"byteLength":10128,"byteOffset":14556,"target":34962},{"buffer":0,"byteLength":6752,"byteOffset":24684,"target":34962}],"buffers":[{"byteLength":31436,"uri":"SM_road_056.bin"}],"images":[{"name":"Polygon_Texture_vol2","uri":"Polygon_Texture_vol2.png"}],"materials":[{"alphaMode":"OPAQUE","doubleSided":false,"extras":{"fromFBX":{"isTruePBR":false,"shadingModel":"Phong"}},"name":"Material.080","pbrMetallicRoughness":{"baseColorFactor":[1,1,1,1],"baseColorTexture":{"index":0,"texCoord":0},"metallicFactor":0.400000005960464,"roughnessFactor":0.272165536880493}}],"meshes":[{"name":"SM_road_056","primitives":[{"attributes":{"NORMAL":2,"POSITION":1,"TEXCOORD_0":3},"indices":0,"material":0,"mode":4}]}],"nodes":[{"mesh":0,"name":"SM_road_056","rotation":[0,0,0,1],"scale":[1,1,1],"translation":[67.6225128173828,-0.00000130012631,-122.019897460938]}],"samplers":[{}],"scene":0,"scenes":[{"name":"Root Scene","nodes":[0]}],"textures":[{"name":"base_color_texture","sampler":0,"source":0}]}