{"accessors":[{"bufferView":0,"byteOffset":0,"componentType":5123,"count":414,"type":"SCALAR"},{"bufferView":1,"byteOffset":0,"componentType":5126,"count":172,"max":[-0.00000034332274,0.05000064894557,0.0000000162920681390233],"min":[-6,-0.04999999329448,-4],"type":"VEC3"},{"bufferView":2,"byteOffset":0,"componentType":5126,"count":172,"type":"VEC3"},{"bufferView":3,"byteOffset":0,"componentType":5126,"count":172,"type":"VEC2"}],"asset":{"generator":"FBX2glTF v0.13.1","version":"2.0"},"bufferViews":[{"buffer":0,"byteLength":828,"byteOffset":0,"target":34963},{"buffer":0,"byteLength":2064,"byteOffset":828,"target":34962},{"buffer":0,"byteLength":2064,"byteOffset":2892,"target":34962},{"buffer":0,"byteLength":1376,"byteOffset":4956,"target":34962}],"buffers":[{"byteLength":6332,"uri":"SM_road_01.bin"}],"images":[{"name":"Polygon_Texture_vol2","uri":"Polygon_Texture_vol2.png"}],"materials":[{"alphaMode":"OPAQUE","doubleSided":false,"extras":{"fromFBX":{"isTruePBR":false,"shadingModel":"Phong"}},"name":"Material.024","pbrMetallicRoughness":{"baseColorFactor":[1,1,1,1],"baseColorTexture":{"index":0,"texCoord":0},"metallicFactor":0.400000005960464,"roughnessFactor":0.272165536880493}}],"meshes":[{"name":"SM_road_01","primitives":[{"attributes":{"NORMAL":2,"POSITION":1,"TEXCOORD_0":3},"indices":0,"material":0,"mode":4}]}],"nodes":[{"mesh":0,"name":"SM_road_01","rotation":[0,0,0,1],"scale":[1,1,1],"translation":[-9.2763032913208,-0.00000032410026,2]}],"samplers":[{}],"scene":0,"scenes":[{"name":"Root Scene","nodes":[0]}],"textures":[{"name":"base_color_texture","sampler":0,"source":0}]}