{"accessors":[{"bufferView":0,"byteOffset":0,"componentType":5123,"count":1125,"type":"SCALAR"},{"bufferView":1,"byteOffset":0,"componentType":5126,"count":501,"max":[0.00311946868896484,0.0500087738037109,0],"min":[-16.0062389373779,-0.04999999329448,-15.9999961853027],"type":"VEC3"},{"bufferView":2,"byteOffset":0,"componentType":5126,"count":501,"type":"VEC3"},{"bufferView":3,"byteOffset":0,"componentType":5126,"count":501,"type":"VEC2"}],"asset":{"generator":"FBX2glTF v0.13.1","version":"2.0"},"bufferViews":[{"buffer":0,"byteLength":2250,"byteOffset":0,"target":34963},{"buffer":0,"byteLength":6012,"byteOffset":2252,"target":34962},{"buffer":0,"byteLength":6012,"byteOffset":8264,"target":34962},{"buffer":0,"byteLength":4008,"byteOffset":14276,"target":34962}],"buffers":[{"byteLength":18284,"uri":"SM_road_039.bin"}],"images":[{"name":"Polygon_Texture_vol2","uri":"Polygon_Texture_vol2.png"}],"materials":[{"alphaMode":"OPAQUE","doubleSided":false,"extras":{"fromFBX":{"isTruePBR":false,"shadingModel":"Phong"}},"name":"Material.062","pbrMetallicRoughness":{"baseColorFactor":[1,1,1,1],"baseColorTexture":{"index":0,"texCoord":0},"metallicFactor":0.400000005960464,"roughnessFactor":0.272165536880493}}],"meshes":[{"name":"SM_road_039","primitives":[{"attributes":{"NORMAL":2,"POSITION":1,"TEXCOORD_0":3},"indices":0,"material":0,"mode":4}]}],"nodes":[{"mesh":0,"name":"SM_road_039","rotation":[0,0,0,1],"scale":[1,1,1],"translation":[40.1642990112305,-0.0000013038516,-83.8229217529297]}],"samplers":[{}],"scene":0,"scenes":[{"name":"Root Scene","nodes":[0]}],"textures":[{"name":"base_color_texture","sampler":0,"source":0}]}