{"accessors":[{"bufferView":0,"byteOffset":0,"componentType":5123,"count":1242,"type":"SCALAR"},{"bufferView":1,"byteOffset":0,"componentType":5126,"count":472,"max":[-0.00000238418579,0.0500012971460819,0],"min":[-12.0000019073486,-0.04999999701977,-8],"type":"VEC3"},{"bufferView":2,"byteOffset":0,"componentType":5126,"count":472,"type":"VEC3"},{"bufferView":3,"byteOffset":0,"componentType":5126,"count":472,"type":"VEC2"}],"asset":{"generator":"FBX2glTF v0.13.1","version":"2.0"},"bufferViews":[{"buffer":0,"byteLength":2484,"byteOffset":0,"target":34963},{"buffer":0,"byteLength":5664,"byteOffset":2484,"target":34962},{"buffer":0,"byteLength":5664,"byteOffset":8148,"target":34962},{"buffer":0,"byteLength":3776,"byteOffset":13812,"target":34962}],"buffers":[{"byteLength":17588,"uri":"SM_road_045.bin"}],"images":[{"name":"Polygon_Texture_vol2","uri":"Polygon_Texture_vol2.png"}],"materials":[{"alphaMode":"OPAQUE","doubleSided":false,"extras":{"fromFBX":{"isTruePBR":false,"shadingModel":"Phong"}},"name":"Material.069","pbrMetallicRoughness":{"baseColorFactor":[1,1,1,1],"baseColorTexture":{"index":0,"texCoord":0},"metallicFactor":0.400000005960464,"roughnessFactor":0.272165536880493}}],"meshes":[{"name":"SM_road_045","primitives":[{"attributes":{"NORMAL":2,"POSITION":1,"TEXCOORD_0":3},"indices":0,"material":0,"mode":4}]}],"nodes":[{"mesh":0,"name":"SM_road_045","rotation":[0,0,0,1],"scale":[1,1,1],"translation":[67.6225204467773,-0.00000062957406,-11.19846534729]}],"samplers":[{}],"scene":0,"scenes":[{"name":"Root Scene","nodes":[0]}],"textures":[{"name":"base_color_texture","sampler":0,"source":0}]}