{"accessors":[{"bufferView":0,"byteOffset":0,"componentType":5123,"count":1998,"type":"SCALAR"},{"bufferView":1,"byteOffset":0,"componentType":5126,"count":868,"max":[-0.00000143051147,0.0500019490718842,0.00000476837158203125],"min":[-12.0000009536743,-0.05000000447035,-11.9999980926514],"type":"VEC3"},{"bufferView":2,"byteOffset":0,"componentType":5126,"count":868,"type":"VEC3"},{"bufferView":3,"byteOffset":0,"componentType":5126,"count":868,"type":"VEC2"}],"asset":{"generator":"FBX2glTF v0.13.1","version":"2.0"},"bufferViews":[{"buffer":0,"byteLength":3996,"byteOffset":0,"target":34963},{"buffer":0,"byteLength":10416,"byteOffset":3996,"target":34962},{"buffer":0,"byteLength":10416,"byteOffset":14412,"target":34962},{"buffer":0,"byteLength":6944,"byteOffset":24828,"target":34962}],"buffers":[{"byteLength":31772,"uri":"SM_road_038.bin"}],"images":[{"name":"Polygon_Texture_vol2","uri":"Polygon_Texture_vol2.png"}],"materials":[{"alphaMode":"OPAQUE","doubleSided":false,"extras":{"fromFBX":{"isTruePBR":false,"shadingModel":"Phong"}},"name":"Material.061","pbrMetallicRoughness":{"baseColorFactor":[1,1,1,1],"baseColorTexture":{"index":0,"texCoord":0},"metallicFactor":0.400000005960464,"roughnessFactor":0.272165536880493}}],"meshes":[{"name":"SM_road_038","primitives":[{"attributes":{"NORMAL":2,"POSITION":1,"TEXCOORD_0":3},"indices":0,"material":0,"mode":4}]}],"nodes":[{"mesh":0,"name":"SM_road_038","rotation":[0,0,0,1],"scale":[1,1,1],"translation":[37.1554794311523,-0.00000095739961,-69.1178817749023]}],"samplers":[{}],"scene":0,"scenes":[{"name":"Root Scene","nodes":[0]}],"textures":[{"name":"base_color_texture","sampler":0,"source":0}]}