{"accessors":[{"bufferView":0,"byteOffset":0,"componentType":5123,"count":1965,"type":"SCALAR"},{"bufferView":1,"byteOffset":0,"componentType":5126,"count":683,"max":[-0.00000068664548,0.050002608448267,-0.00000181476241],"min":[-14,-0.04999999329448,-16.0000019073486],"type":"VEC3"},{"bufferView":2,"byteOffset":0,"componentType":5126,"count":683,"type":"VEC3"},{"bufferView":3,"byteOffset":0,"componentType":5126,"count":683,"type":"VEC2"}],"asset":{"generator":"FBX2glTF v0.13.1","version":"2.0"},"bufferViews":[{"buffer":0,"byteLength":3930,"byteOffset":0,"target":34963},{"buffer":0,"byteLength":8196,"byteOffset":3932,"target":34962},{"buffer":0,"byteLength":8196,"byteOffset":12128,"target":34962},{"buffer":0,"byteLength":5464,"byteOffset":20324,"target":34962}],"buffers":[{"byteLength":25788,"uri":"SM_road_022.bin"}],"images":[{"name":"Polygon_Texture_vol2","uri":"Polygon_Texture_vol2.png"}],"materials":[{"alphaMode":"OPAQUE","doubleSided":false,"extras":{"fromFBX":{"isTruePBR":false,"shadingModel":"Phong"}},"name":"Material.045","pbrMetallicRoughness":{"baseColorFactor":[1,1,1,1],"baseColorTexture":{"index":0,"texCoord":0},"metallicFactor":0.400000005960464,"roughnessFactor":0.272165536880493}}],"meshes":[{"name":"SM_road_022","primitives":[{"attributes":{"NORMAL":2,"POSITION":1,"TEXCOORD_0":3},"indices":0,"material":0,"mode":4}]}],"nodes":[{"mesh":0,"name":"SM_road_022","rotation":[0,0,0,1],"scale":[1,1,1],"translation":[19.9134273529053,-0.00000129640102,-62.2924346923828]}],"samplers":[{}],"scene":0,"scenes":[{"name":"Root Scene","nodes":[0]}],"textures":[{"name":"base_color_texture","sampler":0,"source":0}]}