{"accessors":[{"bufferView":0,"byteOffset":0,"componentType":5123,"count":1518,"type":"SCALAR"},{"bufferView":1,"byteOffset":0,"componentType":5126,"count":574,"max":[0,0.050000973045826,0],"min":[-15.9999847412109,-0.05000080913305,-11.0000219345093],"type":"VEC3"},{"bufferView":2,"byteOffset":0,"componentType":5126,"count":574,"type":"VEC3"},{"bufferView":3,"byteOffset":0,"componentType":5126,"count":574,"type":"VEC2"}],"asset":{"generator":"FBX2glTF v0.13.1","version":"2.0"},"bufferViews":[{"buffer":0,"byteLength":3036,"byteOffset":0,"target":34963},{"buffer":0,"byteLength":6888,"byteOffset":3036,"target":34962},{"buffer":0,"byteLength":6888,"byteOffset":9924,"target":34962},{"buffer":0,"byteLength":4592,"byteOffset":16812,"target":34962}],"buffers":[{"byteLength":21404,"uri":"SM_road_041.bin"}],"images":[{"name":"Polygon_Texture_vol2","uri":"Polygon_Texture_vol2.png"}],"materials":[{"alphaMode":"OPAQUE","doubleSided":false,"extras":{"fromFBX":{"isTruePBR":false,"shadingModel":"Phong"}},"name":"Material.064","pbrMetallicRoughness":{"baseColorFactor":[1,1,1,1],"baseColorTexture":{"index":0,"texCoord":0},"metallicFactor":0.400000005960464,"roughnessFactor":0.272165536880493}}],"meshes":[{"name":"SM_road_041","primitives":[{"attributes":{"NORMAL":2,"POSITION":1,"TEXCOORD_0":3},"indices":0,"material":0,"mode":4}]}],"nodes":[{"mesh":0,"name":"SM_road_041","rotation":[0,0,0,1],"scale":[1,1,1],"translation":[40.158073425293,0.000000491738319396973,-136.441421508789]}],"samplers":[{}],"scene":0,"scenes":[{"name":"Root Scene","nodes":[0]}],"textures":[{"name":"base_color_texture","sampler":0,"source":0}]}