{"accessors":[{"bufferView":0,"byteOffset":0,"componentType":5123,"count":1950,"type":"SCALAR"},{"bufferView":1,"byteOffset":0,"componentType":5126,"count":748,"max":[0,0.0500017814338207,0],"min":[-15.9999847412109,-0.05000080913305,-16.0000133514404],"type":"VEC3"},{"bufferView":2,"byteOffset":0,"componentType":5126,"count":748,"type":"VEC3"},{"bufferView":3,"byteOffset":0,"componentType":5126,"count":748,"type":"VEC2"}],"asset":{"generator":"FBX2glTF v0.13.1","version":"2.0"},"bufferViews":[{"buffer":0,"byteLength":3900,"byteOffset":0,"target":34963},{"buffer":0,"byteLength":8976,"byteOffset":3900,"target":34962},{"buffer":0,"byteLength":8976,"byteOffset":12876,"target":34962},{"buffer":0,"byteLength":5984,"byteOffset":21852,"target":34962}],"buffers":[{"byteLength":27836,"uri":"SM_road_042.bin"}],"images":[{"name":"Polygon_Texture_vol2","uri":"Polygon_Texture_vol2.png"}],"materials":[{"alphaMode":"OPAQUE","doubleSided":false,"extras":{"fromFBX":{"isTruePBR":false,"shadingModel":"Phong"}},"name":"Material.065","pbrMetallicRoughness":{"baseColorFactor":[1,1,1,1],"baseColorTexture":{"index":0,"texCoord":0},"metallicFactor":0.400000005960464,"roughnessFactor":0.272165536880493}}],"meshes":[{"name":"SM_road_042","primitives":[{"attributes":{"NORMAL":2,"POSITION":1,"TEXCOORD_0":3},"indices":0,"material":0,"mode":4}]}],"nodes":[{"mesh":0,"name":"SM_road_042","rotation":[0,0,0,1],"scale":[1,1,1],"translation":[40.158073425293,0.000000491738319396973,-148.659774780273]}],"samplers":[{}],"scene":0,"scenes":[{"name":"Root Scene","nodes":[0]}],"textures":[{"name":"base_color_texture","sampler":0,"source":0}]}