{"accessors":[{"bufferView":0,"byteOffset":0,"componentType":5123,"count":678,"type":"SCALAR"},{"bufferView":1,"byteOffset":0,"componentType":5126,"count":260,"max":[-0.00000003814699,0.0500012896955013,-0.00000008861212],"min":[-5.99999904632568,-0.04999999701977,-8],"type":"VEC3"},{"bufferView":2,"byteOffset":0,"componentType":5126,"count":260,"type":"VEC3"},{"bufferView":3,"byteOffset":0,"componentType":5126,"count":260,"type":"VEC2"}],"asset":{"generator":"FBX2glTF v0.13.1","version":"2.0"},"bufferViews":[{"buffer":0,"byteLength":1356,"byteOffset":0,"target":34963},{"buffer":0,"byteLength":3120,"byteOffset":1356,"target":34962},{"buffer":0,"byteLength":3120,"byteOffset":4476,"target":34962},{"buffer":0,"byteLength":2080,"byteOffset":7596,"target":34962}],"buffers":[{"byteLength":9676,"uri":"SM_road_02.bin"}],"images":[{"name":"Polygon_Texture_vol2","uri":"Polygon_Texture_vol2.png"}],"materials":[{"alphaMode":"OPAQUE","doubleSided":false,"extras":{"fromFBX":{"isTruePBR":false,"shadingModel":"Phong"}},"name":"Material.025","pbrMetallicRoughness":{"baseColorFactor":[1,1,1,1],"baseColorTexture":{"index":0,"texCoord":0},"metallicFactor":0.400000005960464,"roughnessFactor":0.272165536880493}}],"meshes":[{"name":"SM_road_02","primitives":[{"attributes":{"NORMAL":2,"POSITION":1,"TEXCOORD_0":3},"indices":0,"material":0,"mode":4}]}],"nodes":[{"mesh":0,"name":"SM_road_02","rotation":[0,0,0,1],"scale":[1,1,1],"translation":[-9.2763032913208,-0.0000006519258,-2.73791074752808]}],"samplers":[{}],"scene":0,"scenes":[{"name":"Root Scene","nodes":[0]}],"textures":[{"name":"base_color_texture","sampler":0,"source":0}]}