{"accessors":[{"bufferView":0,"byteOffset":0,"componentType":5123,"count":1116,"type":"SCALAR"},{"bufferView":1,"byteOffset":0,"componentType":5126,"count":444,"max":[0.00000286102294921875,0.0500013045966625,0],"min":[-17.9999961853027,-0.04999999701977,-8],"type":"VEC3"},{"bufferView":2,"byteOffset":0,"componentType":5126,"count":444,"type":"VEC3"},{"bufferView":3,"byteOffset":0,"componentType":5126,"count":444,"type":"VEC2"}],"asset":{"generator":"FBX2glTF v0.13.1","version":"2.0"},"bufferViews":[{"buffer":0,"byteLength":2232,"byteOffset":0,"target":34963},{"buffer":0,"byteLength":5328,"byteOffset":2232,"target":34962},{"buffer":0,"byteLength":5328,"byteOffset":7560,"target":34962},{"buffer":0,"byteLength":3552,"byteOffset":12888,"target":34962}],"buffers":[{"byteLength":16440,"uri":"SM_road_054.bin"}],"images":[{"name":"Polygon_Texture_vol2","uri":"Polygon_Texture_vol2.png"}],"materials":[{"alphaMode":"OPAQUE","doubleSided":false,"extras":{"fromFBX":{"isTruePBR":false,"shadingModel":"Phong"}},"name":"Material.078","pbrMetallicRoughness":{"baseColorFactor":[1,1,1,1],"baseColorTexture":{"index":0,"texCoord":0},"metallicFactor":0.400000005960464,"roughnessFactor":0.272165536880493}}],"meshes":[{"name":"SM_road_054","primitives":[{"attributes":{"NORMAL":2,"POSITION":1,"TEXCOORD_0":3},"indices":0,"material":0,"mode":4}]}],"nodes":[{"mesh":0,"name":"SM_road_054","rotation":[0,0,0,1],"scale":[1,1,1],"translation":[67.6225128173828,-0.0000006519258,-105.130249023438]}],"samplers":[{}],"scene":0,"scenes":[{"name":"Root Scene","nodes":[0]}],"textures":[{"name":"base_color_texture","sampler":0,"source":0}]}