{"accessors":[{"bufferView":0,"byteOffset":0,"componentType":5123,"count":600,"type":"SCALAR"},{"bufferView":1,"byteOffset":0,"componentType":5126,"count":232,"max":[0.00000030517577442879,0.0500013045966625,0.00000276287369160855],"min":[-12,-0.04999999329448,-7.99999666213989],"type":"VEC3"},{"bufferView":2,"byteOffset":0,"componentType":5126,"count":232,"type":"VEC3"},{"bufferView":3,"byteOffset":0,"componentType":5126,"count":232,"type":"VEC2"}],"asset":{"generator":"FBX2glTF v0.13.1","version":"2.0"},"bufferViews":[{"buffer":0,"byteLength":1200,"byteOffset":0,"target":34963},{"buffer":0,"byteLength":2784,"byteOffset":1200,"target":34962},{"buffer":0,"byteLength":2784,"byteOffset":3984,"target":34962},{"buffer":0,"byteLength":1856,"byteOffset":6768,"target":34962}],"buffers":[{"byteLength":8624,"uri":"SM_road_012.bin"}],"images":[{"name":"Polygon_Texture_vol2","uri":"Polygon_Texture_vol2.png"}],"materials":[{"alphaMode":"OPAQUE","doubleSided":false,"extras":{"fromFBX":{"isTruePBR":false,"shadingModel":"Phong"}},"name":"Material.035","pbrMetallicRoughness":{"baseColorFactor":[1,1,1,1],"baseColorTexture":{"index":0,"texCoord":0},"metallicFactor":0.400000005960464,"roughnessFactor":0.272165536880493}}],"meshes":[{"name":"SM_road_012","primitives":[{"attributes":{"NORMAL":2,"POSITION":1,"TEXCOORD_0":3},"indices":0,"material":0,"mode":4}]}],"nodes":[{"mesh":0,"name":"SM_road_012","rotation":[0,0,0,1],"scale":[1,1,1],"translation":[-9.27630424499512,-0.0000006519258,-105.130249023438]}],"samplers":[{}],"scene":0,"scenes":[{"name":"Root Scene","nodes":[0]}],"textures":[{"name":"base_color_texture","sampler":0,"source":0}]}