{"accessors":[{"bufferView":0,"byteOffset":0,"componentType":5123,"count":1380,"type":"SCALAR"},{"bufferView":1,"byteOffset":0,"componentType":5126,"count":478,"max":[-0.00000003814699,0.050002608448267,0.00000108440735857585],"min":[-7.99999904632568,-0.04999999329448,-15.9999980926514],"type":"VEC3"},{"bufferView":2,"byteOffset":0,"componentType":5126,"count":478,"type":"VEC3"},{"bufferView":3,"byteOffset":0,"componentType":5126,"count":478,"type":"VEC2"}],"asset":{"generator":"FBX2glTF v0.13.1","version":"2.0"},"bufferViews":[{"buffer":0,"byteLength":2760,"byteOffset":0,"target":34963},{"buffer":0,"byteLength":5736,"byteOffset":2760,"target":34962},{"buffer":0,"byteLength":5736,"byteOffset":8496,"target":34962},{"buffer":0,"byteLength":3824,"byteOffset":14232,"target":34962}],"buffers":[{"byteLength":18056,"uri":"SM_road_09.bin"}],"images":[{"name":"Polygon_Texture_vol2","uri":"Polygon_Texture_vol2.png"}],"materials":[{"alphaMode":"OPAQUE","doubleSided":false,"extras":{"fromFBX":{"isTruePBR":false,"shadingModel":"Phong"}},"name":"Material.032","pbrMetallicRoughness":{"baseColorFactor":[1,1,1,1],"baseColorTexture":{"index":0,"texCoord":0},"metallicFactor":0.400000005960464,"roughnessFactor":0.272165536880493}}],"meshes":[{"name":"SM_road_09","primitives":[{"attributes":{"NORMAL":2,"POSITION":1,"TEXCOORD_0":3},"indices":0,"material":0,"mode":4}]}],"nodes":[{"mesh":0,"name":"SM_road_09","rotation":[0,0,0,1],"scale":[1,1,1],"translation":[-9.27630424499512,-0.0000013038516,-62.2924270629883]}],"samplers":[{}],"scene":0,"scenes":[{"name":"Root Scene","nodes":[0]}],"textures":[{"name":"base_color_texture","sampler":0,"source":0}]}